<?xml version="1.0" encoding="UTF-8" standalone="no"?>
<svg
   width="1382.4pt"
   height="696.24pt"
   viewBox="0 0 1382.4 696.24"
   version="1.1"
   id="svg145"
   sodipodi:docname="CEP.svg"
   inkscape:version="1.4.2 (f4327f4, 2025-05-13)"
   inkscape:export-filename="Exports\CEP.pdf"
   inkscape:export-xdpi="96"
   inkscape:export-ydpi="96"
   xmlns:inkscape="http://www.inkscape.org/namespaces/inkscape"
   xmlns:sodipodi="http://sodipodi.sourceforge.net/DTD/sodipodi-0.dtd"
   xmlns="http://www.w3.org/2000/svg"
   xmlns:svg="http://www.w3.org/2000/svg"
   xmlns:rdf="http://www.w3.org/1999/02/22-rdf-syntax-ns#"
   xmlns:cc="http://creativecommons.org/ns#"
   xmlns:dc="http://purl.org/dc/elements/1.1/">
  <sodipodi:namedview
     id="namedview145"
     pagecolor="#ffffff"
     bordercolor="#000000"
     borderopacity="0.25"
     inkscape:showpageshadow="2"
     inkscape:pageopacity="0.0"
     inkscape:pagecheckerboard="0"
     inkscape:deskcolor="#d1d1d1"
     inkscape:document-units="pt"
     showgrid="false"
     inkscape:zoom="0.52680121"
     inkscape:cx="695.70835"
     inkscape:cy="226.84078"
     inkscape:window-width="1920"
     inkscape:window-height="1009"
     inkscape:window-x="-8"
     inkscape:window-y="-8"
     inkscape:window-maximized="1"
     inkscape:current-layer="svg145"
     showguides="false" />
  <metadata
     id="metadata1">
    <rdf:RDF>
      <cc:Work>
        <dc:type
           rdf:resource="http://purl.org/dc/dcmitype/StillImage" />
        <dc:date>2025-09-08T20:02:42.855136</dc:date>
        <dc:format>image/svg+xml</dc:format>
        <dc:creator>
          <cc:Agent>
            <dc:title>Matplotlib v3.10.5, https://matplotlib.org/</dc:title>
          </cc:Agent>
        </dc:creator>
      </cc:Work>
    </rdf:RDF>
  </metadata>
  <defs
     id="defs1">
    <marker
       style="overflow:visible"
       id="marker150"
       refX="0"
       refY="0"
       orient="auto-start-reverse"
       inkscape:stockid="Triangle arrow"
       markerWidth="1"
       markerHeight="1"
       viewBox="0 0 1 1"
       inkscape:isstock="true"
       inkscape:collect="always"
       preserveAspectRatio="xMidYMid">
      <path
         transform="scale(0.5)"
         style="fill:context-stroke;fill-rule:evenodd;stroke:context-stroke;stroke-width:1pt"
         d="M 5.77,0 -2.88,5 V -5 Z"
         id="path150" />
    </marker>
    <marker
       style="overflow:visible"
       id="Triangle"
       refX="0"
       refY="0"
       orient="auto-start-reverse"
       inkscape:stockid="Triangle arrow"
       markerWidth="1"
       markerHeight="1"
       viewBox="0 0 1 1"
       inkscape:isstock="true"
       inkscape:collect="always"
       preserveAspectRatio="xMidYMid">
      <path
         transform="scale(0.5)"
         style="fill:context-stroke;fill-rule:evenodd;stroke:context-stroke;stroke-width:1pt"
         d="M 5.77,0 -2.88,5 V -5 Z"
         id="path135" />
    </marker>
    <marker
       style="overflow:visible"
       id="Stop"
       refX="0"
       refY="0"
       orient="auto"
       inkscape:stockid="Stop"
       markerWidth="1.001"
       markerHeight="1.001"
       viewBox="0 0 1 1"
       inkscape:isstock="true"
       inkscape:collect="always"
       preserveAspectRatio="xMidYMid">
      <path
         style="fill:none;stroke:context-stroke;stroke-width:1"
         d="M 0,4 V -4"
         id="path23" />
    </marker>
    <style
       type="text/css"
       id="style1">*{stroke-linejoin: round; stroke-linecap: butt}</style>
    <marker
       style="overflow:visible"
       id="Stop-8"
       refX="0"
       refY="0"
       orient="auto"
       inkscape:stockid="Stop"
       markerWidth="1.001"
       markerHeight="1.001"
       viewBox="0 0 1 1"
       inkscape:isstock="true"
       inkscape:collect="always"
       preserveAspectRatio="xMidYMid">
      <path
         style="fill:none;stroke:context-stroke;stroke-width:1"
         d="M 0,4 V -4"
         id="path23-9" />
    </marker>
    <marker
       style="overflow:visible"
       id="Stop-8-4"
       refX="0"
       refY="0"
       orient="auto"
       inkscape:stockid="Stop"
       markerWidth="1.001"
       markerHeight="1.001"
       viewBox="0 0 1 1"
       inkscape:isstock="true"
       inkscape:collect="always"
       preserveAspectRatio="xMidYMid">
      <path
         style="fill:none;stroke:context-stroke;stroke-width:1"
         d="M 0,4 V -4"
         id="path23-9-3" />
    </marker>
    <marker
       style="overflow:visible"
       id="Stop-8-0"
       refX="0"
       refY="0"
       orient="auto"
       inkscape:stockid="Stop"
       markerWidth="1.001"
       markerHeight="1.001"
       viewBox="0 0 1 1"
       inkscape:isstock="true"
       inkscape:collect="always"
       preserveAspectRatio="xMidYMid">
      <path
         style="fill:none;stroke:context-stroke;stroke-width:1"
         d="M 0,4 V -4"
         id="path23-9-8" />
    </marker>
  </defs>
  <path
     d="M 81.684036,559.85875 H 314.58839 V 23.753948 H 81.684036 Z"
     style="fill:#ffffff"
     id="path2" />
  <g
     id="line2d_13"
     transform="translate(-91.115964,-59.794852)">
    <path
       d="m 391.04178,629.49992 29.32513,-19.69264"
       style="fill:none;stroke:#000000;stroke-width:1.5;stroke-linecap:square"
       id="path61" />
  </g>
  <path
     d="m 172.66023,351.52101 13.10349,-0.25611 8.91037,-0.13764 4.19312,0.15213 3.14484,0.33642 2.6207,0.50696 2.09655,0.60548 2.09656,0.82818 2.09656,1.09538 2.09656,1.40801 2.09656,1.7645 1.57242,1.58116 2.09655,2.47763 2.09656,2.9188 2.09656,3.36508 2.09656,3.79517 2.6207,5.28131 3.14484,6.915 5.76553,12.80946 2.09656,4.04045 1.57242,2.56539 1.04828,1.42153 1.04828,1.14681 1.04828,0.83382 1.04828,0.48229 1.04827,0.0924 1.04828,-0.33521 1.04828,-0.79939 1.04828,-1.29848 1.04828,-1.83027 1.04828,-2.39201 1.04828,-2.98044 1.04828,-3.59169 1.04828,-4.2214 1.57242,-7.54117 1.57242,-9.01041 1.57242,-10.47258 1.57241,-11.8951 2.09656,-17.94007 2.09656,-20.06099 2.6207,-27.46719 4.19312,-47.09242 4.19311,-46.53607 2.09656,-21.32396 2.09656,-19.1062 1.57242,-12.48954 1.57242,-10.64408 1.04828,-5.9671 1.04828,-5.00197 1.04828,-3.99282 1.04827,-2.94833 0.52414,-1.07394 0.52414,-0.80374 0.52414,-0.53173 0.52414,-0.25855 0.52414,0.0152 0.52414,0.28895 0.52414,0.56202 0.52414,0.83386 0.52414,1.10382 1.04828,3.00714 1.04828,4.04989 1.04828,5.05682 1.04828,6.01926 1.57242,10.71634 1.57242,12.55347 2.09655,19.17669 2.09656,21.37593 3.14484,34.67807 6.28967,70.20401 2.6207,26.42735 2.09656,18.98236 2.09656,16.70378 1.57242,10.89972 1.57242,9.44581 1.57242,7.97539 1.57242,6.51938 1.04827,3.5572 1.04828,2.94711 1.04828,2.36008 1.04828,1.79991 1.04828,1.26987 1.04828,0.77267 1.04828,0.31048 1.04828,-0.11505 1.04828,-0.50282 1.04828,-0.85222 1.04828,-1.16308 1.04828,-1.43568 1.57242,-2.58277 2.09655,-4.05683 2.6207,-5.68512 6.81382,-15.13862 2.6207,-5.15745 2.09655,-3.67874 2.09656,-3.24173 2.09656,-2.79496 2.09656,-2.35832 2.09656,-1.94687 2.09655,-1.5711 2.09656,-1.23738 2.09656,-0.94871 2.09656,-0.70523 2.6207,-0.60474 2.6207,-0.3683 3.14483,-0.22148 4.19312,-0.0651 7.8621,0.15586 12.57935,0.24173 v 0"
     clip-path="url(#p3d69617078)"
     style="fill:none;stroke:#800080;stroke-width:2;stroke-linecap:square"
     id="path62"
     transform="translate(-91.115964,-59.794852)" />
  <g
     id="line2d_15"
     transform="translate(-91.115964,-59.794852)">
    <path
       d="m 172.66023,351.52101 9.95865,-0.21743 6.28968,-0.34387 4.71725,-0.46522 3.66898,-0.55425 3.14484,-0.66182 3.14484,-0.88783 2.62069,-0.9568 2.6207,-1.19829 2.6207,-1.48708 2.09656,-1.43284 2.09656,-1.68062 2.09656,-1.95951 2.09655,-2.27095 2.09656,-2.61597 2.09656,-2.99503 2.09656,-3.40784 2.09656,-3.85341 2.09656,-4.32976 2.09655,-4.83392 2.09656,-5.36184 2.09656,-5.90832 2.09656,-6.46694 2.6207,-8.87545 2.6207,-9.74444 2.62069,-10.57869 3.14484,-13.70687 3.66898,-17.1773 4.71726,-23.38859 8.91037,-44.54125 3.14484,-14.50938 2.62069,-11.11226 2.09656,-8.07855 2.09656,-7.23386 1.57242,-4.80782 1.57242,-4.23387 1.57242,-3.62435 1.57242,-2.98402 1.04828,-1.62075 1.04828,-1.31843 1.04827,-1.01104 1.04828,-0.69974 1.04828,-0.38571 1.04828,-0.0702 1.04828,0.2456 1.04828,0.56043 1.04828,0.8731 1.04828,1.18237 1.04828,1.48709 1.04828,1.78607 1.57242,3.22445 1.57242,3.85396 1.57241,4.45082 2.09656,6.79802 2.09656,7.69332 2.09656,8.47904 2.6207,11.52421 3.14483,14.86854 4.71726,23.55307 7.8621,39.32075 3.66897,17.15933 3.14484,13.68758 2.6207,10.56071 2.6207,9.72541 2.6207,8.85594 2.62069,7.97655 2.09656,5.755 2.09656,5.21309 2.09656,4.6913 2.09656,4.1945 2.09655,3.72645 2.09656,3.28983 2.09656,2.88632 2.09656,2.51673 2.09656,2.18111 2.09656,1.87882 2.09656,1.60875 2.09656,1.3693 2.62069,1.41853 2.6207,1.14073 2.6207,0.90901 3.14484,0.84164 3.66897,0.71283 4.19312,0.55271 4.71726,0.39125 6.28967,0.286 8.38624,0.16249 v 0"
       clip-path="url(#p3d69617078)"
       style="fill:none;stroke:#000000;stroke-width:1.5;stroke-dasharray:5.55, 2.4;stroke-dashoffset:0;stroke-opacity:0.8"
       id="path63" />
  </g>
  <g
     id="line2d_16"
     transform="translate(-91.115964,-59.794852)">
    <path
       d="m 172.66023,351.68139 9.95865,0.21743 6.28968,0.34387 4.71725,0.46522 3.66898,0.55425 3.14484,0.66182 3.14484,0.88783 2.62069,0.9568 2.6207,1.19829 2.6207,1.48708 2.09656,1.43284 2.09656,1.68062 2.09656,1.95951 2.09655,2.27095 2.09656,2.61597 2.09656,2.99502 2.09656,3.40785 2.09656,3.85341 2.09656,4.32976 2.09655,4.83392 2.09656,5.36184 2.09656,5.90832 2.09656,6.46694 2.6207,8.87545 2.6207,9.74444 2.62069,10.57869 3.14484,13.70687 3.66898,17.1773 4.71726,23.38859 8.91037,44.54125 3.14484,14.50938 2.62069,11.11226 2.09656,8.07855 2.09656,7.23386 1.57242,4.80782 1.57242,4.23387 1.57242,3.62435 1.57242,2.98402 1.04828,1.62075 1.04828,1.31843 1.04827,1.01104 1.04828,0.69974 1.04828,0.38571 1.04828,0.0702 1.04828,-0.2456 1.04828,-0.56043 1.04828,-0.8731 1.04828,-1.18237 1.04828,-1.48709 1.04828,-1.78607 1.57242,-3.22445 1.57242,-3.85396 1.57241,-4.45083 2.09656,-6.79801 2.09656,-7.69333 2.09656,-8.47903 2.6207,-11.52422 3.14483,-14.86853 4.71726,-23.55308 7.8621,-39.32074 3.66897,-17.15933 3.14484,-13.68758 2.6207,-10.56071 2.6207,-9.72541 2.6207,-8.85594 2.62069,-7.97655 2.09656,-5.755 2.09656,-5.21309 2.09656,-4.6913 2.09656,-4.1945 2.09655,-3.72646 2.09656,-3.28983 2.09656,-2.88631 2.09656,-2.51674 2.09656,-2.1811 2.09656,-1.87882 2.09656,-1.60875 2.09656,-1.3693 2.62069,-1.41853 2.6207,-1.14073 2.6207,-0.90901 3.14484,-0.84164 3.66897,-0.71283 4.19312,-0.55271 4.71726,-0.39125 6.28967,-0.286 8.38624,-0.16249 v 0"
       clip-path="url(#p3d69617078)"
       style="fill:none;stroke:#000000;stroke-width:1.5;stroke-dasharray:5.55, 2.4;stroke-dashoffset:0;stroke-opacity:0.8"
       id="path64" />
  </g>
  <g
     id="patch_3"
     transform="translate(-91.115964,-59.794852)">
    <path
       d="M 172.8,619.6536 V 83.5488"
       style="fill:none;stroke:#000000;stroke-width:1.5;stroke-linecap:square;stroke-linejoin:miter"
       id="path65" />
  </g>
  <g
     id="patch_4"
     transform="translate(-91.115964,-59.794852)">
    <path
       d="M 172.8,619.6536 H 405.70435"
       style="fill:none;stroke:#000000;stroke-width:1.5;stroke-linecap:square;stroke-linejoin:miter"
       id="path66" />
  </g>
  <g
     id="patch_5"
     transform="translate(-122.61596,-59.794852)">
    <path
       d="M 452.28522,619.6536 H 685.18957 V 83.5488 H 452.28522 Z"
       style="fill:#ffffff"
       id="path67" />
  </g>
  <g
     id="matplotlib.axis_4">
    <g
       id="ytick_10" />
    <g
       id="ytick_11" />
    <g
       id="ytick_12" />
    <g
       id="ytick_13" />
    <g
       id="ytick_14" />
    <g
       id="ytick_15" />
    <g
       id="ytick_16" />
    <g
       id="ytick_17" />
    <g
       id="ytick_18" />
  </g>
  <g
     id="line2d_20"
     transform="translate(-122.61596,-59.794852)">
    <path
       d="m 670.527,629.49992 29.32513,-19.69264"
       style="fill:none;stroke:#000000;stroke-width:1.5;stroke-linecap:square"
       id="path80" />
  </g>
  <g
     id="line2d_21"
     transform="translate(-122.61596,-59.794852)">
    <path
       d="m 437.62265,629.49992 29.32513,-19.69264"
       style="fill:none;stroke:#000000;stroke-width:1.5;stroke-linecap:square"
       id="path81" />
  </g>
  <g
     id="line2d_22"
     transform="translate(-122.61596,-59.794852)">
    <path
       d="m 452.20368,351.60084 9.95866,0.15268 5.76553,0.30129 4.19312,0.4142 3.66898,0.55539 3.66897,0.77652 3.66898,1.01578 4.19312,1.41909 7.33795,2.58846 2.09656,0.5259 2.09656,0.29054 1.57242,0.002 1.57242,-0.23579 1.57242,-0.52688 1.04828,-0.54062 1.04828,-0.71221 1.04827,-0.9014 1.04828,-1.10831 1.04828,-1.33283 1.57242,-2.45796 1.57242,-3.05766 1.57242,-3.70803 1.57242,-4.40178 1.57242,-5.12924 1.57241,-5.87828 1.57242,-6.6344 2.09656,-10.00259 2.09656,-11.2514 2.6207,-15.59674 3.14484,-20.36749 6.81381,-44.8797 2.09656,-12.17923 1.57242,-8.0752 1.57242,-6.92406 1.04828,-3.87176 1.04828,-3.20656 1.04828,-2.48532 1.04827,-1.71234 0.52414,-0.55146 0.52414,-0.34111 0.52414,-0.12581 0.52414,0.094 0.52414,0.31801 0.52414,0.54566 0.52414,0.77655 1.04828,2.25625 1.04828,3.20636 1.04828,4.1643 1.04828,5.12144 1.04828,6.069 1.57242,10.83717 1.57242,12.82504 1.57241,14.66833 2.09656,22.09689 2.09656,24.49093 3.14484,39.78818 6.81381,87.69738 2.09656,24.31492 2.09656,21.87117 1.57242,14.47199 1.57242,12.61051 1.57242,10.60927 1.04828,5.91212 1.04828,4.96235 1.04827,4.00445 1.04828,3.04725 1.04828,2.09924 0.52414,0.69926 0.52414,0.46939 0.52414,0.24292 0.52414,0.0203 0.52414,-0.1981 0.52414,-0.4118 0.52414,-0.62042 1.04828,-1.84456 1.04828,-2.60925 1.04828,-3.32141 1.04828,-3.97693 1.57242,-7.06259 1.57242,-8.18968 2.09655,-12.29376 2.6207,-16.84569 7.8621,-51.63441 2.62069,-15.17232 2.09656,-10.84755 2.09656,-9.56634 1.57242,-6.2985 1.57242,-5.54358 1.57242,-4.80249 1.57242,-4.08865 1.57241,-3.41313 1.57242,-2.78452 1.57242,-2.20909 1.57242,-1.69089 1.57242,-1.23201 1.57242,-0.83274 1.57242,-0.49182 1.57242,-0.20677 1.57242,0.0259 2.09655,0.31384 2.09656,0.54139 3.14484,1.057 8.38623,2.95258 3.66898,1.00451 3.66898,0.76535 3.66898,0.54573 4.19311,0.40573 5.2414,0.27632 7.33795,0.14543 3.14484,0.0199 v 0"
       clip-path="url(#p53d13bf545)"
       style="fill:none;stroke:#800080;stroke-width:2;stroke-linecap:square"
       id="path82" />
  </g>
  <g
     id="line2d_23"
     transform="translate(-122.61596,-59.794852)">
    <path
       d="m 452.20368,351.52036 9.95866,-0.21897 6.28967,-0.34612 4.71726,-0.46807 3.66898,-0.55749 3.14483,-0.6655 3.14484,-0.89257 2.6207,-0.96169 2.6207,-1.20417 2.6207,-1.49408 2.09655,-1.43932 2.09656,-1.68794 2.09656,-1.96771 2.09656,-2.28008 2.09656,-2.62604 2.09656,-3.00604 2.09656,-3.41979 2.09655,-3.86624 2.09656,-4.34339 2.09656,-4.84829 2.09656,-5.3768 2.09656,-5.9237 2.09655,-6.48257 2.6207,-8.89496 2.6207,-9.76344 2.6207,-10.59663 3.14484,-13.72612 3.66898,-17.19517 4.71725,-23.40162 8.91037,-44.525 3.14484,-14.48903 2.6207,-11.0894 2.09656,-8.05659 2.09656,-7.20885 1.57242,-4.78725 1.57241,-4.2119 1.57242,-3.60115 1.57242,-2.95978 1.04828,-1.60411 1.04828,-1.30148 1.04828,-0.99383 1.04828,-0.68235 1.04828,-0.36822 1.04828,-0.0526 1.04828,0.26313 1.04828,0.57787 1.04828,0.89038 1.04828,1.19943 1.04827,1.50386 1.04828,1.80249 1.57242,3.24829 1.57242,3.87667 1.57242,4.47225 2.09656,6.82428 2.09656,7.71667 2.09655,8.49921 2.6207,11.54472 3.14484,14.88599 4.71726,23.5648 7.33795,36.77076 3.66898,17.30048 3.14484,13.84039 3.14483,12.7468 2.6207,9.70637 2.6207,8.83641 2.6207,7.95707 2.09656,5.73973 2.09655,5.1983 2.09656,4.67714 2.09656,4.18109 2.09656,3.71389 2.09656,3.27817 2.09656,2.8756 2.09656,2.50695 2.09655,2.17226 2.09656,1.87089 2.09656,1.60169 2.09656,1.36307 2.6207,1.41182 2.6207,1.1351 2.62069,0.90434 3.14484,0.83713 3.66898,0.70883 4.19312,0.54946 4.71725,0.38881 6.28968,0.2841 8.38623,0.16133 v 0"
       clip-path="url(#p53d13bf545)"
       style="fill:none;stroke:#000000;stroke-width:1.5;stroke-dasharray:5.55, 2.4;stroke-dashoffset:0;stroke-opacity:0.8"
       id="path83" />
  </g>
  <g
     id="line2d_24"
     transform="translate(-122.61596,-59.794852)">
    <path
       d="m 452.20368,351.68204 9.95866,0.21897 6.28967,0.34612 4.71726,0.46807 3.66898,0.55749 3.14483,0.6655 3.14484,0.89257 2.6207,0.96169 2.6207,1.20417 2.6207,1.49408 2.09655,1.43932 2.09656,1.68794 2.09656,1.96771 2.09656,2.28008 2.09656,2.62604 2.09656,3.00604 2.09656,3.41979 2.09655,3.86624 2.09656,4.34339 2.09656,4.84829 2.09656,5.3768 2.09656,5.9237 2.09655,6.48257 2.6207,8.89496 2.6207,9.76344 2.6207,10.59663 3.14484,13.72612 3.66898,17.19517 4.71725,23.40162 8.91037,44.525 3.14484,14.48903 2.6207,11.0894 2.09656,8.05659 2.09656,7.20885 1.57242,4.78725 1.57241,4.2119 1.57242,3.60115 1.57242,2.95978 1.04828,1.60411 1.04828,1.30148 1.04828,0.99384 1.04828,0.68234 1.04828,0.36822 1.04828,0.0526 1.04828,-0.26313 1.04828,-0.57787 1.04828,-0.89038 1.04828,-1.19943 1.04827,-1.50386 1.04828,-1.80249 1.57242,-3.24829 1.57242,-3.87667 1.57242,-4.47225 2.09656,-6.82428 2.09656,-7.71667 2.09655,-8.49921 2.6207,-11.54472 3.14484,-14.88599 4.71726,-23.5648 7.33795,-36.77076 3.66898,-17.30048 3.14484,-13.8404 3.14483,-12.74679 2.6207,-9.70637 2.6207,-8.83641 2.6207,-7.95707 2.09656,-5.73973 2.09655,-5.1983 2.09656,-4.67714 2.09656,-4.18109 2.09656,-3.7139 2.09656,-3.27816 2.09656,-2.8756 2.09656,-2.50695 2.09655,-2.17226 2.09656,-1.87089 2.09656,-1.60169 2.09656,-1.36307 2.6207,-1.41182 2.6207,-1.1351 2.62069,-0.90434 3.14484,-0.83713 3.66898,-0.70884 4.19312,-0.54945 4.71725,-0.38881 6.28968,-0.2841 8.38623,-0.16133 v 0"
       clip-path="url(#p53d13bf545)"
       style="fill:none;stroke:#000000;stroke-width:1.5;stroke-dasharray:5.55, 2.4;stroke-dashoffset:0;stroke-opacity:0.8"
       id="path84" />
  </g>
  <g
     id="patch_6"
     transform="translate(-122.61596,-59.794852)">
    <path
       d="M 452.28522,619.6536 H 685.18957"
       style="fill:none;stroke:#000000;stroke-width:1.5;stroke-linecap:square;stroke-linejoin:miter"
       id="path85" />
  </g>
  <g
     id="matplotlib.axis_6">
    <g
       id="ytick_19" />
    <g
       id="ytick_20" />
    <g
       id="ytick_21" />
    <g
       id="ytick_22" />
    <g
       id="ytick_23" />
    <g
       id="ytick_24" />
    <g
       id="ytick_25" />
    <g
       id="ytick_26" />
    <g
       id="ytick_27" />
  </g>
  <g
     id="line2d_28"
     transform="translate(-154.11596,-59.794852)">
    <path
       d="m 950.01222,629.49992 29.32513,-19.69264"
       style="fill:none;stroke:#000000;stroke-width:1.5;stroke-linecap:square"
       id="path100" />
  </g>
  <g
     id="line2d_29"
     transform="translate(-154.11596,-59.794852)">
    <path
       d="M 717.10787,629.49992 746.433,609.80728"
       style="fill:none;stroke:#000000;stroke-width:1.5;stroke-linecap:square"
       id="path101" />
  </g>
  <g
     id="line2d_30"
     transform="translate(-154.11596,-59.794852)">
    <path
       d="m 731.74714,351.68269 13.10349,0.25782 8.91037,0.13349 4.19312,-0.15933 3.14484,-0.34565 2.6207,-0.51792 2.09655,-0.61672 2.09656,-0.84183 2.09656,-1.11156 2.09656,-1.4267 2.09656,-1.78551 2.09656,-2.18312 2.09656,-2.61082 2.09655,-3.05551 2.09656,-3.49933 2.09656,-3.91946 2.6207,-5.40894 3.66898,-8.19332 4.19311,-9.31642 2.09656,-4.1508 1.57242,-2.68354 1.57242,-2.18211 1.04828,-1.11393 1.04828,-0.79666 1.04828,-0.44086 1.04828,-0.0467 1.04828,0.38501 1.04827,0.85315 1.04828,1.356 1.04828,1.89126 1.04828,2.45614 1.04828,3.0473 1.04828,3.66083 1.04828,4.29231 1.57242,7.64956 1.57242,9.11935 1.57242,10.57972 1.57241,11.99796 2.09656,18.06607 2.09656,20.16862 2.6207,27.56689 4.19312,47.14848 4.19311,46.44212 2.09656,21.21842 2.09656,18.96375 1.57242,12.36068 1.57242,10.49872 1.04828,5.8623 1.04828,4.89185 1.04828,3.87835 1.04828,2.83049 0.52413,1.01408 0.52414,0.74343 0.52414,0.4711 0.52414,0.19774 0.52414,-0.0761 0.52414,-0.34971 0.52414,-0.62256 0.52414,-0.89403 1.04828,-2.5939 1.04828,-3.64814 1.04828,-4.67005 1.04828,-5.6508 1.57242,-10.20462 1.57242,-12.09907 1.57241,-13.76096 2.09656,-20.48105 2.6207,-28.08112 9.43451,-103.86999 2.09656,-19.89736 2.09656,-17.74949 1.57242,-11.74006 1.57242,-10.31146 1.57242,-8.84693 1.57242,-7.37882 1.04828,-4.11537 1.04828,-3.4884 1.04827,-2.88067 1.04828,-2.29645 1.04828,-1.73947 1.04828,-1.21296 1.04828,-0.71955 1.04828,-0.26137 1.04828,0.16002 1.04828,0.54355 1.04828,0.88865 1.04828,1.19525 1.57242,2.28436 1.57241,2.76296 2.09656,4.22351 3.14484,6.97785 4.71726,10.54168 2.6207,5.35212 2.09655,3.86351 2.09656,3.43853 2.09656,2.99334 2.09656,2.55005 2.09656,2.12586 2.09656,1.7332 2.09656,1.38025 2.09655,1.07138 2.09656,0.80794 2.09656,0.58886 2.6207,0.4908 3.14484,0.32283 3.66897,0.1363 5.76554,-0.0483 16.77247,-0.34356 v 0"
       clip-path="url(#p1023f42a5f)"
       style="fill:none;stroke:#800080;stroke-width:2;stroke-linecap:square"
       id="path102" />
  </g>
  <g
     id="line2d_31"
     transform="translate(-154.11596,-59.794852)">
    <path
       d="m 731.74714,351.51971 9.95865,-0.22052 6.28968,-0.34838 4.71725,-0.47095 3.66898,-0.56073 3.14484,-0.66921 3.14484,-0.89732 2.62069,-0.96661 2.6207,-1.21008 2.6207,-1.5011 2.09656,-1.44582 2.09656,-1.69528 2.09656,-1.97594 2.09656,-2.28923 2.09655,-2.63614 2.09656,-3.01708 2.09656,-3.43176 2.09656,-3.87908 2.09656,-4.35707 2.09655,-4.86267 2.09656,-5.39177 2.09656,-5.9391 2.09656,-6.49819 2.6207,-8.91446 2.6207,-9.78244 2.6207,-10.61455 3.14483,-13.7453 3.66898,-17.21295 4.71726,-23.41449 8.38623,-41.99808 3.14484,-14.64779 2.6207,-11.26898 2.09655,-8.22985 2.09656,-7.4066 2.09656,-6.47695 1.57242,-4.18988 1.57242,-3.57791 1.57242,-2.93551 1.04828,-1.58744 1.04828,-1.28451 1.04828,-0.97662 1.04827,-0.66496 1.04828,-0.35071 1.04828,-0.0351 1.04828,0.28065 1.04828,0.5953 1.04828,0.90765 1.04828,1.21648 1.04828,1.52061 1.04828,1.81889 1.57242,3.2721 1.57242,3.89934 1.57241,4.49361 2.09656,6.85046 2.09656,7.73994 2.09656,8.5193 2.6207,11.5651 3.14484,14.9033 4.71725,23.57631 7.33796,36.75806 3.66897,17.28316 3.14484,13.82149 3.14484,12.72534 2.6207,9.6873 2.62069,8.81689 2.6207,7.93759 2.09656,5.72446 2.09656,5.18353 2.09656,4.663 2.09656,4.16772 2.09656,3.70135 2.09655,3.26653 2.09656,2.86489 2.09656,2.4972 2.09656,2.16344 2.09656,1.86299 2.09656,1.59465 2.09656,1.35687 2.62069,1.40513 2.6207,1.12949 2.6207,0.89969 3.14484,0.83265 3.66897,0.70486 4.19312,0.54621 4.71726,0.38638 6.28967,0.28223 8.38624,0.16017 v 0"
       clip-path="url(#p1023f42a5f)"
       style="fill:none;stroke:#000000;stroke-width:1.5;stroke-dasharray:5.55, 2.4;stroke-dashoffset:0;stroke-opacity:0.8"
       id="path103" />
  </g>
  <g
     id="line2d_32"
     transform="translate(-154.11596,-59.794852)">
    <path
       d="m 731.74714,351.68269 9.95865,0.22052 6.28968,0.34838 4.71725,0.47095 3.66898,0.56073 3.14484,0.66921 3.14484,0.89732 2.62069,0.96661 2.6207,1.21008 2.6207,1.5011 2.09656,1.44582 2.09656,1.69528 2.09656,1.97594 2.09656,2.28923 2.09655,2.63614 2.09656,3.01708 2.09656,3.43176 2.09656,3.87908 2.09656,4.35707 2.09655,4.86267 2.09656,5.39177 2.09656,5.9391 2.09656,6.49819 2.6207,8.91446 2.6207,9.78244 2.6207,10.61455 3.14483,13.7453 3.66898,17.21295 4.71726,23.41449 8.38623,41.99808 3.14484,14.64779 2.6207,11.26898 2.09655,8.22985 2.09656,7.4066 2.09656,6.47695 1.57242,4.18988 1.57242,3.57791 1.57242,2.93551 1.04828,1.58744 1.04828,1.28451 1.04828,0.97663 1.04827,0.66495 1.04828,0.35071 1.04828,0.0351 1.04828,-0.28065 1.04828,-0.5953 1.04828,-0.90765 1.04828,-1.21648 1.04828,-1.52061 1.04828,-1.81889 1.57242,-3.2721 1.57242,-3.89934 1.57241,-4.49362 2.09656,-6.85045 2.09656,-7.73994 2.09656,-8.5193 2.6207,-11.5651 3.14484,-14.9033 4.71725,-23.57631 7.33796,-36.75806 3.66897,-17.28316 3.14484,-13.82149 3.14484,-12.72534 2.6207,-9.6873 2.62069,-8.81689 2.6207,-7.93759 2.09656,-5.72447 2.09656,-5.18352 2.09656,-4.663 2.09656,-4.16772 2.09656,-3.70135 2.09655,-3.26653 2.09656,-2.86489 2.09656,-2.4972 2.09656,-2.16344 2.09656,-1.86299 2.09656,-1.59465 2.09656,-1.35687 2.62069,-1.40513 2.6207,-1.12949 2.6207,-0.89969 3.14484,-0.83265 3.66897,-0.70486 4.19312,-0.54621 4.71726,-0.38638 6.28967,-0.28223 8.38624,-0.16017 v 0"
       clip-path="url(#p1023f42a5f)"
       style="fill:none;stroke:#000000;stroke-width:1.5;stroke-dasharray:5.55, 2.4;stroke-dashoffset:0;stroke-opacity:0.8"
       id="path104" />
  </g>
  <g
     id="patch_8"
     transform="translate(-154.11596,-59.794852)">
    <path
       d="M 731.77044,619.6536 H 964.67478"
       style="fill:none;stroke:#000000;stroke-width:1.5;stroke-linecap:square;stroke-linejoin:miter"
       id="path105" />
  </g>
  <g
     id="patch_9"
     transform="translate(-185.61596,-59.794852)">
    <path
       d="M 1011.2557,619.6536 H 1244.16 V 83.5488 h -232.9043 z"
       style="fill:#ffffff"
       id="path106" />
  </g>
  <g
     id="matplotlib.axis_8">
    <g
       id="ytick_28" />
    <g
       id="ytick_29" />
    <g
       id="ytick_30" />
    <g
       id="ytick_31" />
    <g
       id="ytick_32" />
    <g
       id="ytick_33" />
    <g
       id="ytick_34" />
    <g
       id="ytick_35" />
    <g
       id="ytick_36" />
  </g>
  <g
     id="line2d_36"
     transform="translate(-185.61596,-59.794852)">
    <path
       d="m 996.59309,629.49992 29.32511,-19.69264"
       style="fill:none;stroke:#000000;stroke-width:1.5;stroke-linecap:square"
       id="path120" />
  </g>
  <g
     id="line2d_37"
     transform="translate(-185.61596,-59.794852)">
    <path
       d="m 1010.7665,351.60322 9.9586,-0.14128 5.7655,-0.28428 4.7173,-0.45887 3.669,-0.56187 3.669,-0.78401 3.6689,-1.02326 4.1931,-1.42531 7.338,-2.58004 2.0966,-0.51524 2.0965,-0.27461 1.5724,0.0134 1.5725,0.25549 1.5724,0.55065 1.0483,0.55882 1.0482,0.73236 1.0483,0.92352 1.0483,1.13238 1.0483,1.35886 1.5724,2.50052 1.5724,3.10417 1.5724,3.75804 1.5724,4.45464 1.5725,5.18415 1.5724,5.93424 1.5724,6.69024 2.0966,10.07455 2.0965,11.31724 2.6207,15.66457 3.1449,20.41734 6.2896,41.58659 2.0966,12.44082 1.5724,8.33811 1.5724,7.24319 1.0483,4.11456 1.0483,3.47211 1.0483,2.7722 1.0482,2.0188 0.5242,0.71141 0.5241,0.50516 0.5242,0.29368 0.5241,0.0773 0.5241,-0.14347 0.5242,-0.3683 0.5241,-0.5967 0.5242,-0.82824 1.0482,-2.36118 1.0483,-3.31257 1.0483,-4.27084 1.0483,-5.22736 1.0483,-6.17331 1.5724,-10.9884 1.5724,-12.96708 1.5724,-14.79794 2.0966,-22.24527 2.0965,-24.60577 3.1449,-39.88733 6.2896,-81.2212 2.6207,-30.55838 2.0966,-21.7186 1.5724,-14.33984 1.5724,-12.46653 1.5725,-10.45669 1.0482,-5.80726 1.0483,-4.85616 1.0483,-3.8979 1.0483,-2.9413 1.0483,-1.99484 0.5241,-0.64791 0.5241,-0.41876 0.5242,-0.19309 0.5241,0.0286 0.5242,0.24601 0.5241,0.45861 0.5241,0.66605 1.0483,1.93197 1.0483,2.69106 1.0483,3.39711 1.0482,4.04612 1.5725,7.15347 1.5724,8.26451 2.0965,12.36809 2.6207,16.89861 7.338,48.3615 2.6207,15.42347 2.0966,11.08489 2.0965,9.82171 1.5724,6.49458 1.5724,5.73857 1.5725,4.9925 1.5724,4.27045 1.5724,3.58407 1.5724,2.9426 1.5724,2.3529 1.5725,1.81959 1.5724,1.34524 1.5724,0.93058 1.5724,0.57472 1.5724,0.27548 1.5725,0.0296 1.5724,-0.16691 2.0965,-0.45172 2.6207,-0.8061 12.5794,-4.23847 3.669,-0.82545 3.6689,-0.59825 4.1932,-0.45227 5.2414,-0.3145 6.8138,-0.16517 4.7172,-0.0357 v 0"
       clip-path="url(#pff1c2ad3f0)"
       style="fill:none;stroke:#800080;stroke-width:2;stroke-linecap:square"
       id="path121" />
  </g>
  <g
     id="line2d_38"
     transform="translate(-185.61596,-59.794852)">
    <path
       d="m 1010.7665,351.52478 9.9586,-0.20838 6.2897,-0.33065 4.7172,-0.4484 4.1932,-0.62887 3.1448,-0.67293 3.1448,-0.9021 2.6207,-0.97154 2.6207,-1.216 2.6207,-1.50815 2.0966,-1.45235 2.0965,-1.70265 2.0966,-1.9842 2.0966,-2.29841 2.0965,-2.64626 2.0966,-3.02814 2.0965,-3.44375 2.0966,-3.89196 2.0966,-4.37076 2.0965,-4.87707 2.0966,-5.40675 2.0965,-5.9545 2.6207,-8.23032 2.6207,-9.10915 2.6207,-9.97137 2.6207,-10.7919 3.1449,-13.93405 3.6689,-17.38565 4.7173,-23.53441 7.8621,-39.33079 3.1448,-14.62846 2.6207,-11.24694 2.0966,-8.2085 2.0965,-7.38217 2.0966,-6.4497 1.5724,-4.16782 1.5724,-3.55463 1.5725,-2.9112 1.0482,-1.57076 1.0483,-1.26753 1.0483,-0.95939 1.0483,-0.64756 1.0482,-0.3332 1.0483,-0.0175 1.0483,0.29817 1.0483,0.61273 1.0483,0.92491 1.0482,1.23351 1.0483,1.53734 1.0483,1.83527 1.5724,3.29586 1.5724,3.92197 1.5725,4.51493 2.0965,6.87657 2.0966,7.76312 2.6207,10.78169 2.6207,11.76235 3.669,17.65355 6.2896,31.72809 5.2414,25.98339 3.669,17.1049 3.1448,13.62935 2.6207,10.50662 2.6207,9.66822 2.6207,8.79737 2.6207,7.91811 2.0966,5.70921 2.0965,5.16877 2.0966,4.64888 2.0966,4.15436 2.0965,3.68884 2.0966,3.25492 2.0965,2.85422 2.0966,2.48747 2.0966,2.15465 2.0965,1.8551 2.0966,1.58765 2.0965,1.35068 2.6207,1.39847 2.6207,1.1239 2.6207,0.89506 3.1449,0.82819 3.6689,0.70089 4.1932,0.54299 4.7172,0.38397 6.2897,0.28036 8.3862,0.15903 v 0"
       clip-path="url(#pff1c2ad3f0)"
       style="fill:none;stroke:#000000;stroke-width:1.5;stroke-dasharray:5.55, 2.4;stroke-dashoffset:0;stroke-opacity:0.8"
       id="path122" />
  </g>
  <g
     id="line2d_39"
     transform="translate(-185.61596,-59.794852)">
    <path
       d="m 1010.7665,351.67762 9.9586,0.20838 6.2897,0.33065 4.7172,0.4484 4.1932,0.62887 3.1448,0.67293 3.1448,0.9021 2.6207,0.97154 2.6207,1.216 2.6207,1.50815 2.0966,1.45235 2.0965,1.70265 2.0966,1.9842 2.0966,2.29841 2.0965,2.64626 2.0966,3.02814 2.0965,3.44375 2.0966,3.89196 2.0966,4.37076 2.0965,4.87707 2.0966,5.40675 2.0965,5.9545 2.6207,8.23032 2.6207,9.10915 2.6207,9.97137 2.6207,10.7919 3.1449,13.93405 3.6689,17.38565 4.7173,23.53441 7.8621,39.33079 3.1448,14.62846 2.6207,11.24694 2.0966,8.2085 2.0965,7.38217 2.0966,6.4497 1.5724,4.16782 1.5724,3.55463 1.5725,2.9112 1.0482,1.57076 1.0483,1.26753 1.0483,0.95939 1.0483,0.64756 1.0482,0.3332 1.0483,0.0176 1.0483,-0.29817 1.0483,-0.61273 1.0483,-0.92491 1.0482,-1.23351 1.0483,-1.53734 1.0483,-1.83528 1.5724,-3.29585 1.5724,-3.92197 1.5725,-4.51493 2.0965,-6.87657 2.0966,-7.76312 2.6207,-10.78169 2.6207,-11.76235 3.669,-17.65355 6.2896,-31.72809 5.2414,-25.9834 3.669,-17.10489 3.1448,-13.62935 2.6207,-10.50662 2.6207,-9.66822 2.6207,-8.79737 2.6207,-7.91811 2.0966,-5.70921 2.0965,-5.16877 2.0966,-4.64888 2.0966,-4.15436 2.0965,-3.68884 2.0966,-3.25492 2.0965,-2.85422 2.0966,-2.48747 2.0966,-2.15465 2.0965,-1.8551 2.0966,-1.58765 2.0965,-1.35068 2.6207,-1.39847 2.6207,-1.1239 2.6207,-0.89507 3.1449,-0.82818 3.6689,-0.70089 4.1932,-0.54299 4.7172,-0.38397 6.2897,-0.28036 8.3862,-0.15903 v 0"
       clip-path="url(#pff1c2ad3f0)"
       style="fill:none;stroke:#000000;stroke-width:1.5;stroke-dasharray:5.55, 2.4;stroke-dashoffset:0;stroke-opacity:0.8"
       id="path123" />
  </g>
  <g
     id="patch_10"
     transform="translate(-185.61596,-59.794852)">
    <path
       d="M 1011.2557,619.6536 H 1244.16"
       style="fill:none;stroke:#000000;stroke-width:1.5;stroke-linecap:square;stroke-linejoin:miter"
       id="path124" />
  </g>
  <defs
     id="defs145">
    <clipPath
       id="p3d69617078">
      <rect
         x="172.8"
         y="83.5488"
         width="232.904348"
         height="536.1048"
         id="rect142" />
    </clipPath>
    <clipPath
       id="p53d13bf545">
      <rect
         x="452.285217"
         y="83.5488"
         width="232.904348"
         height="536.1048"
         id="rect143" />
    </clipPath>
    <clipPath
       id="p1023f42a5f">
      <rect
         x="731.770435"
         y="83.5488"
         width="232.904348"
         height="536.1048"
         id="rect144" />
    </clipPath>
    <clipPath
       id="pff1c2ad3f0">
      <rect
         x="1011.255652"
         y="83.5488"
         width="232.904348"
         height="536.1048"
         id="rect145" />
    </clipPath>
  </defs>
  <path
     style="fill:none;stroke:#000000;stroke-width:1.41732;stroke-dasharray:none;stroke-opacity:1;marker-start:url(#Stop);marker-end:url(#Stop)"
     d="M 445.2581,38.856958 H 694.40329"
     id="path145" />
  <path
     style="fill:none;stroke:#000000;stroke-width:1.41732;stroke-linecap:butt;stroke-linejoin:round;stroke-dasharray:none;stroke-opacity:1;marker-start:url(#Stop-8);marker-end:url(#Stop-8)"
     d="m 445.76226,543.69536 h 21.56471"
     id="path145-4" />
  <path
     style="fill:none;stroke:#000000;stroke-width:1.417;stroke-linecap:butt;stroke-linejoin:round;stroke-dasharray:none;stroke-opacity:1;marker-start:url(#Stop-8-4);marker-end:url(#Stop-8-4)"
     d="m 694.17566,542.5242 h 44.15388"
     id="path145-4-8" />
  <text
     xml:space="preserve"
     style="font-weight:bold;font-size:20px;font-family:Arial;-inkscape-font-specification:'Arial Bold';text-align:start;writing-mode:lr-tb;direction:ltr;text-anchor:start;fill:none;stroke:#000000;stroke-width:1.41732;stroke-dasharray:none;stroke-opacity:1"
     x="550.6109"
     y="20.287539"
     id="text145"><tspan
       sodipodi:role="line"
       id="tspan145"
       style="font-size:20px;fill:#4e4e4e;fill-opacity:1;stroke:none;stroke-width:1.41732"
       x="550.6109"
       y="20.287539">T<tspan
   style="font-size:20px;baseline-shift:sub;fill:#4e4e4e;fill-opacity:1;stroke:none"
   id="tspan146">r</tspan></tspan></text>
  <path
     style="fill:none;fill-opacity:1;stroke:#000000;stroke-width:1.41732;stroke-dasharray:4.25196, 1.41732;stroke-dashoffset:0;stroke-opacity:1"
     d="M 198.07045,48.405358 V 535.60451"
     id="path146" />
  <path
     style="fill:none;fill-opacity:1;stroke:#000000;stroke-width:1.41732;stroke-linecap:butt;stroke-linejoin:round;stroke-dasharray:4.25196, 1.41732;stroke-dashoffset:0;stroke-opacity:1"
     d="M 445.83638,48.497578 V 535.69673"
     id="path146-4" />
  <path
     style="fill:none;fill-opacity:1;stroke:#000000;stroke-width:1.41732;stroke-linecap:butt;stroke-linejoin:round;stroke-dasharray:4.25196, 1.41732;stroke-dashoffset:0;stroke-opacity:1"
     d="M 694.29846,48.169118 V 535.36827"
     id="path146-4-3" />
  <path
     style="fill:none;fill-opacity:1;stroke:#000000;stroke-width:1.41732;stroke-linecap:butt;stroke-linejoin:round;stroke-dasharray:4.25196, 1.41732;stroke-dashoffset:0;stroke-opacity:1"
     d="M 942.17034,47.862058 V 535.06121"
     id="path146-4-2" />
  <path
     style="fill:none;fill-opacity:1;stroke:#000000;stroke-width:1.417;stroke-dasharray:4.251, 1.417;stroke-dashoffset:0;stroke-opacity:1"
     d="m 467.14728,461.98642 v 72.43007"
     id="path147" />
  <path
     style="fill:none;fill-opacity:1;stroke:#000000;stroke-width:1.41732;stroke-linecap:butt;stroke-linejoin:round;stroke-dasharray:4.25197, 1.41732;stroke-dashoffset:0;stroke-opacity:1"
     d="M 738.2437,236.68983 V 534.87208"
     id="path147-6" />
  <path
     style="fill:none;fill-opacity:1;stroke:#000000;stroke-width:1.25462;stroke-linecap:butt;stroke-linejoin:round;stroke-dasharray:3.76386, 1.25462;stroke-dashoffset:0;stroke-opacity:1"
     d="M 1010.5593,300.70242 V 534.35478"
     id="path147-6-6" />
  <path
     style="fill:none;stroke:#000000;stroke-width:1.417;stroke-linecap:butt;stroke-linejoin:round;stroke-dasharray:none;stroke-opacity:1;marker-start:url(#Stop-8-0);marker-end:url(#Stop-8-0)"
     d="m 942.02584,542.95643 h 68.72476"
     id="path145-4-7" />
  <path
     style="fill:none;fill-opacity:1;stroke:#000000;stroke-width:1.417;stroke-dasharray:none;stroke-opacity:1;marker-end:url(#Triangle)"
     d="m 229.51757,430.46742 h 83.556"
     id="path148" />
  <path
     style="fill:#800080;fill-opacity:1;stroke:#800080;stroke-width:1.417;stroke-dasharray:none;stroke-opacity:1;marker-end:url(#marker150)"
     d="m 217.82411,172.62204 h 95.38702"
     id="path149" />
  <text
     xml:space="preserve"
     style="font-weight:bold;font-size:20px;font-family:Arial;-inkscape-font-specification:'Arial Bold';text-align:start;writing-mode:lr-tb;direction:ltr;text-anchor:start;fill:#800080;fill-opacity:1;stroke:none;stroke-width:1.417;stroke-dasharray:none;stroke-opacity:1"
     x="254.48401"
     y="160.87663"
     id="text151"><tspan
       sodipodi:role="line"
       id="tspan151"
       style="font-size:20px;fill:#800080;fill-opacity:1;stroke-width:1.417"
       x="254.48401"
       y="160.87663">V<tspan
   style="font-size:20px;baseline-shift:sub"
   id="tspan152">ph</tspan></tspan></text>
  <text
     xml:space="preserve"
     style="font-weight:bold;font-size:20px;font-family:Arial;-inkscape-font-specification:'Arial Bold';text-align:start;writing-mode:lr-tb;direction:ltr;text-anchor:start;fill:#800080;fill-opacity:1;stroke:none;stroke-width:1.417;stroke-dasharray:none;stroke-opacity:1"
     x="266.94128"
     y="424.2587"
     id="text153"><tspan
       sodipodi:role="line"
       id="tspan153"
       style="fill:#000000;fill-opacity:1;stroke-width:1.417"
       x="266.94128"
       y="424.2587">V<tspan
   style="font-size:65%;baseline-shift:sub"
   id="tspan154">g</tspan></tspan></text>
  <rect
     style="fill:#ffffff;fill-opacity:1;stroke:none;stroke-width:0.817606;stroke-dasharray:2.45338, 0.817787;stroke-dashoffset:0;stroke-opacity:1"
     id="rect154"
     width="57.821613"
     height="31.930454"
     x="222.70897"
     y="-206.6506"
     transform="matrix(0.13507566,0.99083529,-0.99767993,0.06807899,0,0)" />
  <rect
     style="fill:#ffffff;fill-opacity:1;stroke:none;stroke-width:1.03727;stroke-linecap:butt;stroke-linejoin:round;stroke-dasharray:3.11252, 1.0375;stroke-dashoffset:0;stroke-opacity:1"
     id="rect154-8"
     width="92.954865"
     height="31.96801"
     x="389.18164"
     y="-102.90839"
     transform="matrix(0.18461064,0.98281174,-0.98107568,0.19362468,0,0)" />
  <text
     xml:space="preserve"
     style="font-weight:bold;font-size:20px;font-family:Arial;-inkscape-font-specification:'Arial Bold';text-align:start;writing-mode:lr-tb;direction:ltr;text-anchor:start;fill:#000000;fill-opacity:1;stroke:none;stroke-width:1.417;stroke-dasharray:4.25196, 1.41732;stroke-dashoffset:0;stroke-opacity:1"
     x="391.36652"
     y="-75.841537"
     id="text155"
     transform="rotate(78.995624)"><tspan
       sodipodi:role="line"
       id="tspan155"
       style="font-size:20px;fill:#000000;fill-opacity:1;stroke-width:1.417"
       x="391.36652"
       y="-75.841537">Envelope</tspan></text>
  <text
     xml:space="preserve"
     style="font-weight:bold;font-size:20px;font-family:Arial;-inkscape-font-specification:'Arial Bold';text-align:start;writing-mode:lr-tb;direction:ltr;text-anchor:start;fill:#000000;fill-opacity:1;stroke:none;stroke-width:1.417;stroke-dasharray:4.25196, 1.41732;stroke-dashoffset:0;stroke-opacity:1"
     x="240.67688"
     y="-182.87967"
     id="text156"
     transform="rotate(82.3316)"><tspan
       sodipodi:role="line"
       id="tspan156"
       style="fill:#800080;fill-opacity:1;stroke-width:1.417"
       x="240.67688"
       y="-182.87967">Field</tspan></text>
  <rect
     style="fill:#800080;fill-opacity:0.30000001;stroke:none;stroke-width:1.41936;stroke-dasharray:4.25904, 1.41968;stroke-dashoffset:0;stroke-opacity:1"
     id="rect156"
     width="240.6031"
     height="535.66217"
     x="81.150162"
     y="24.202679" />
  <rect
     style="fill:#2b8000;fill-opacity:0.30000001;stroke:none;stroke-width:1.41936;stroke-linecap:butt;stroke-linejoin:round;stroke-dasharray:4.25904, 1.41968;stroke-dashoffset:0;stroke-opacity:1"
     id="rect156-1"
     width="240.6031"
     height="535.66217"
     x="321.71271"
     y="24.247789" />
  <rect
     style="fill:#005580;fill-opacity:0.30000001;stroke:none;stroke-width:1.41936;stroke-linecap:butt;stroke-linejoin:round;stroke-dasharray:4.25904, 1.41968;stroke-dashoffset:0;stroke-opacity:1"
     id="rect156-1-3"
     width="240.6031"
     height="535.66217"
     x="562.28162"
     y="24.313578" />
  <rect
     style="fill:#800000;fill-opacity:0.30000001;stroke:none;stroke-width:1.41936;stroke-linecap:butt;stroke-linejoin:round;stroke-dasharray:4.25904, 1.41968;stroke-dashoffset:0;stroke-opacity:1"
     id="rect156-1-3-6"
     width="240.6031"
     height="535.66217"
     x="802.93524"
     y="23.758631" />
  <text
     xml:space="preserve"
     style="font-weight:bold;font-size:20px;font-family:Arial;-inkscape-font-specification:'Arial Bold';text-align:start;writing-mode:lr-tb;direction:ltr;text-anchor:start;fill:#800000;fill-opacity:0.3;stroke-width:1.417;stroke-dasharray:4.25196, 1.41732"
     x="168.52895"
     y="550.78888"
     id="text1"><tspan
       sodipodi:role="line"
       id="tspan1"
       style="stroke-width:1.417"
       x="168.52895"
       y="550.78888">Φ<tspan
   style="font-size:65%;baseline-shift:sub"
   id="tspan2">0</tspan> = 0</tspan></text>
  <text
     xml:space="preserve"
     style="font-weight:bold;font-size:20px;font-family:Arial;-inkscape-font-specification:'Arial Bold';text-align:start;writing-mode:lr-tb;direction:ltr;text-anchor:start;fill:#800000;fill-opacity:0.3;stroke-width:1.417;stroke-dasharray:4.25196, 1.41732"
     x="349.86359"
     y="549.58148"
     id="text3"><tspan
       sodipodi:role="line"
       id="tspan3"
       style="stroke-width:1.417"
       x="349.86359"
       y="549.58148">Φ<tspan
   style="font-size:65%;baseline-shift:sub"
   id="tspan4">0</tspan> = π/2</tspan></text>
  <text
     xml:space="preserve"
     style="font-weight:bold;font-size:20px;font-family:Arial;-inkscape-font-specification:'Arial Bold';text-align:start;writing-mode:lr-tb;direction:ltr;text-anchor:start;fill:#800000;fill-opacity:0.3;stroke-width:1.417;stroke-linecap:butt;stroke-linejoin:round;stroke-dasharray:4.25196, 1.41732"
     x="612.8009"
     y="546.14581"
     id="text3-4"><tspan
       sodipodi:role="line"
       id="tspan3-8"
       style="stroke-width:1.417"
       x="612.8009"
       y="546.14581">Φ<tspan
   style="font-size:65%;baseline-shift:sub"
   id="tspan4-8">0</tspan> = π</tspan><tspan
       sodipodi:role="line"
       style="stroke-width:1.417"
       x="612.8009"
       y="571.14581"
       id="tspan5" /></text>
  <g
     id="svg145-4"
     transform="translate(614.21384,-0.96984872)">
    <text
       xml:space="preserve"
       style="font-weight:bold;font-size:20px;font-family:Arial;-inkscape-font-specification:'Arial Bold';text-align:start;writing-mode:lr-tb;direction:ltr;text-anchor:start;fill:#800000;fill-opacity:0.3;stroke-width:1.417;stroke-linecap:butt;stroke-linejoin:round;stroke-dasharray:4.25196, 1.41732"
       x="231.47424"
       y="546.26654"
       id="text3-5"><tspan
         sodipodi:role="line"
         id="tspan3-5"
         style="stroke-width:1.417"
         x="231.47424"
         y="546.26654">Φ<tspan
   style="font-size:65%;baseline-shift:sub"
   id="tspan4-1">0</tspan> = 3π/2</tspan></text>
  </g>
  <text
     xml:space="preserve"
     style="font-weight:bold;font-size:28px;font-family:Arial;-inkscape-font-specification:'Arial Bold';text-align:start;writing-mode:lr-tb;direction:ltr;text-anchor:start;fill:#800000;fill-opacity:0.3;stroke-width:1.417;stroke-dasharray:4.25196, 1.41732"
     x="-426.05899"
     y="63.143684"
     id="text6"
     transform="rotate(-90)"><tspan
       sodipodi:role="line"
       id="tspan6"
       style="font-size:28px;fill:#000000;fill-opacity:1;stroke-width:1.417"
       x="-426.05899"
       y="63.143684">Electric Field (V/nm)</tspan></text>
  <text
     xml:space="preserve"
     style="font-weight:bold;font-size:28px;font-family:Arial;-inkscape-font-specification:'Arial Bold';text-align:start;writing-mode:lr-tb;direction:ltr;text-anchor:start;fill:#000000;fill-opacity:1;stroke-width:1.417;stroke-dasharray:4.25196, 1.41732"
     x="516.79834"
     y="599.37225"
     id="text7"><tspan
       sodipodi:role="line"
       id="tspan7"
       style="font-size:28px;stroke-width:1.417"
       x="516.79834"
       y="599.37225">Time (fs)</tspan></text>
</svg>
