<?xml version="1.0" encoding="utf-8" standalone="no"?>
<!DOCTYPE svg PUBLIC "-//W3C//DTD SVG 1.1//EN"
  "http://www.w3.org/Graphics/SVG/1.1/DTD/svg11.dtd">
<svg xmlns:xlink="http://www.w3.org/1999/xlink" width="1152pt" height="576pt" viewBox="0 0 1152 576" xmlns="http://www.w3.org/2000/svg" version="1.1">
 <metadata>
  <rdf:RDF xmlns:dc="http://purl.org/dc/elements/1.1/" xmlns:cc="http://creativecommons.org/ns#" xmlns:rdf="http://www.w3.org/1999/02/22-rdf-syntax-ns#">
   <cc:Work>
    <dc:type rdf:resource="http://purl.org/dc/dcmitype/StillImage"/>
    <dc:date>2025-09-11T11:28:03.425104</dc:date>
    <dc:format>image/svg+xml</dc:format>
    <dc:creator>
     <cc:Agent>
      <dc:title>Matplotlib v3.10.5, https://matplotlib.org/</dc:title>
     </cc:Agent>
    </dc:creator>
   </cc:Work>
  </rdf:RDF>
 </metadata>
 <defs>
  <style type="text/css">*{stroke-linejoin: round; stroke-linecap: butt}</style>
 </defs>
 <g id="figure_1">
  <g id="patch_1">
   <path d="M 0 576 
L 1152 576 
L 1152 0 
L 0 0 
z
" style="fill: #ffffff"/>
  </g>
  <g id="axes_1">
   <g id="patch_2">
    <path d="M 144 512.64 
L 1036.8 512.64 
L 1036.8 69.12 
L 144 69.12 
z
" style="fill: #ffffff"/>
   </g>
   <g id="axes_2">
    <g id="patch_3">
     <path d="M 144 69.12 
L 1036.8 69.12 
L 1036.8 69.12 
L 144 69.12 
z
" style="fill: #ffffff"/>
    </g>
    <g id="matplotlib.axis_1">
     <g id="xtick_1">
      <g id="line2d_1">
       <defs>
        <path id="m73b8daea52" d="M 0 0 
L 0 3.5 
" style="stroke: #000000; stroke-width: 0.8"/>
       </defs>
       <g>
        <use xlink:href="#m73b8daea52" x="144" y="69.12" style="stroke: #000000; stroke-width: 0.8"/>
       </g>
      </g>
      <g id="text_1">
       <!-- 0 -->
       <g transform="translate(138.27375 61.876562) scale(0.18 -0.18)">
        <defs>
         <path id="DejaVuSans-30" d="M 2034 4250 
Q 1547 4250 1301 3770 
Q 1056 3291 1056 2328 
Q 1056 1369 1301 889 
Q 1547 409 2034 409 
Q 2525 409 2770 889 
Q 3016 1369 3016 2328 
Q 3016 3291 2770 3770 
Q 2525 4250 2034 4250 
z
M 2034 4750 
Q 2819 4750 3233 4129 
Q 3647 3509 3647 2328 
Q 3647 1150 3233 529 
Q 2819 -91 2034 -91 
Q 1250 -91 836 529 
Q 422 1150 422 2328 
Q 422 3509 836 4129 
Q 1250 4750 2034 4750 
z
" transform="scale(0.015625)"/>
        </defs>
        <use xlink:href="#DejaVuSans-30"/>
       </g>
      </g>
     </g>
     <g id="xtick_2">
      <g id="line2d_2">
       <g>
        <use xlink:href="#m73b8daea52" x="298.808707" y="69.12" style="stroke: #000000; stroke-width: 0.8"/>
       </g>
      </g>
      <g id="text_2">
       <!-- 2 -->
       <g transform="translate(293.082457 61.876562) scale(0.18 -0.18)">
        <defs>
         <path id="DejaVuSans-32" d="M 1228 531 
L 3431 531 
L 3431 0 
L 469 0 
L 469 531 
Q 828 903 1448 1529 
Q 2069 2156 2228 2338 
Q 2531 2678 2651 2914 
Q 2772 3150 2772 3378 
Q 2772 3750 2511 3984 
Q 2250 4219 1831 4219 
Q 1534 4219 1204 4116 
Q 875 4013 500 3803 
L 500 4441 
Q 881 4594 1212 4672 
Q 1544 4750 1819 4750 
Q 2544 4750 2975 4387 
Q 3406 4025 3406 3419 
Q 3406 3131 3298 2873 
Q 3191 2616 2906 2266 
Q 2828 2175 2409 1742 
Q 1991 1309 1228 531 
z
" transform="scale(0.015625)"/>
        </defs>
        <use xlink:href="#DejaVuSans-32"/>
       </g>
      </g>
     </g>
     <g id="xtick_3">
      <g id="line2d_3">
       <g>
        <use xlink:href="#m73b8daea52" x="453.617415" y="69.12" style="stroke: #000000; stroke-width: 0.8"/>
       </g>
      </g>
      <g id="text_3">
       <!-- 4 -->
       <g transform="translate(447.891165 61.876562) scale(0.18 -0.18)">
        <defs>
         <path id="DejaVuSans-34" d="M 2419 4116 
L 825 1625 
L 2419 1625 
L 2419 4116 
z
M 2253 4666 
L 3047 4666 
L 3047 1625 
L 3713 1625 
L 3713 1100 
L 3047 1100 
L 3047 0 
L 2419 0 
L 2419 1100 
L 313 1100 
L 313 1709 
L 2253 4666 
z
" transform="scale(0.015625)"/>
        </defs>
        <use xlink:href="#DejaVuSans-34"/>
       </g>
      </g>
     </g>
     <g id="xtick_4">
      <g id="line2d_4">
       <g>
        <use xlink:href="#m73b8daea52" x="608.426122" y="69.12" style="stroke: #000000; stroke-width: 0.8"/>
       </g>
      </g>
      <g id="text_4">
       <!-- 6 -->
       <g transform="translate(602.699872 61.876562) scale(0.18 -0.18)">
        <defs>
         <path id="DejaVuSans-36" d="M 2113 2584 
Q 1688 2584 1439 2293 
Q 1191 2003 1191 1497 
Q 1191 994 1439 701 
Q 1688 409 2113 409 
Q 2538 409 2786 701 
Q 3034 994 3034 1497 
Q 3034 2003 2786 2293 
Q 2538 2584 2113 2584 
z
M 3366 4563 
L 3366 3988 
Q 3128 4100 2886 4159 
Q 2644 4219 2406 4219 
Q 1781 4219 1451 3797 
Q 1122 3375 1075 2522 
Q 1259 2794 1537 2939 
Q 1816 3084 2150 3084 
Q 2853 3084 3261 2657 
Q 3669 2231 3669 1497 
Q 3669 778 3244 343 
Q 2819 -91 2113 -91 
Q 1303 -91 875 529 
Q 447 1150 447 2328 
Q 447 3434 972 4092 
Q 1497 4750 2381 4750 
Q 2619 4750 2861 4703 
Q 3103 4656 3366 4563 
z
" transform="scale(0.015625)"/>
        </defs>
        <use xlink:href="#DejaVuSans-36"/>
       </g>
      </g>
     </g>
     <g id="xtick_5">
      <g id="line2d_5">
       <g>
        <use xlink:href="#m73b8daea52" x="763.234829" y="69.12" style="stroke: #000000; stroke-width: 0.8"/>
       </g>
      </g>
      <g id="text_5">
       <!-- 8 -->
       <g transform="translate(757.508579 61.876562) scale(0.18 -0.18)">
        <defs>
         <path id="DejaVuSans-38" d="M 2034 2216 
Q 1584 2216 1326 1975 
Q 1069 1734 1069 1313 
Q 1069 891 1326 650 
Q 1584 409 2034 409 
Q 2484 409 2743 651 
Q 3003 894 3003 1313 
Q 3003 1734 2745 1975 
Q 2488 2216 2034 2216 
z
M 1403 2484 
Q 997 2584 770 2862 
Q 544 3141 544 3541 
Q 544 4100 942 4425 
Q 1341 4750 2034 4750 
Q 2731 4750 3128 4425 
Q 3525 4100 3525 3541 
Q 3525 3141 3298 2862 
Q 3072 2584 2669 2484 
Q 3125 2378 3379 2068 
Q 3634 1759 3634 1313 
Q 3634 634 3220 271 
Q 2806 -91 2034 -91 
Q 1263 -91 848 271 
Q 434 634 434 1313 
Q 434 1759 690 2068 
Q 947 2378 1403 2484 
z
M 1172 3481 
Q 1172 3119 1398 2916 
Q 1625 2713 2034 2713 
Q 2441 2713 2670 2916 
Q 2900 3119 2900 3481 
Q 2900 3844 2670 4047 
Q 2441 4250 2034 4250 
Q 1625 4250 1398 4047 
Q 1172 3844 1172 3481 
z
" transform="scale(0.015625)"/>
        </defs>
        <use xlink:href="#DejaVuSans-38"/>
       </g>
      </g>
     </g>
     <g id="xtick_6">
      <g id="line2d_6">
       <g>
        <use xlink:href="#m73b8daea52" x="918.043536" y="69.12" style="stroke: #000000; stroke-width: 0.8"/>
       </g>
      </g>
      <g id="text_6">
       <!-- 10 -->
       <g transform="translate(906.591036 61.876562) scale(0.18 -0.18)">
        <defs>
         <path id="DejaVuSans-31" d="M 794 531 
L 1825 531 
L 1825 4091 
L 703 3866 
L 703 4441 
L 1819 4666 
L 2450 4666 
L 2450 531 
L 3481 531 
L 3481 0 
L 794 0 
L 794 531 
z
" transform="scale(0.015625)"/>
        </defs>
        <use xlink:href="#DejaVuSans-31"/>
        <use xlink:href="#DejaVuSans-30" transform="translate(63.623047 0)"/>
       </g>
      </g>
     </g>
     <g id="text_7">
      <!-- Shift in CEP ($\pi$ radians) -->
      <g transform="translate(486.9 44.199375) scale(0.18 -0.18)">
       <defs>
        <path id="DejaVuSans-53" d="M 3425 4513 
L 3425 3897 
Q 3066 4069 2747 4153 
Q 2428 4238 2131 4238 
Q 1616 4238 1336 4038 
Q 1056 3838 1056 3469 
Q 1056 3159 1242 3001 
Q 1428 2844 1947 2747 
L 2328 2669 
Q 3034 2534 3370 2195 
Q 3706 1856 3706 1288 
Q 3706 609 3251 259 
Q 2797 -91 1919 -91 
Q 1588 -91 1214 -16 
Q 841 59 441 206 
L 441 856 
Q 825 641 1194 531 
Q 1563 422 1919 422 
Q 2459 422 2753 634 
Q 3047 847 3047 1241 
Q 3047 1584 2836 1778 
Q 2625 1972 2144 2069 
L 1759 2144 
Q 1053 2284 737 2584 
Q 422 2884 422 3419 
Q 422 4038 858 4394 
Q 1294 4750 2059 4750 
Q 2388 4750 2728 4690 
Q 3069 4631 3425 4513 
z
" transform="scale(0.015625)"/>
        <path id="DejaVuSans-68" d="M 3513 2113 
L 3513 0 
L 2938 0 
L 2938 2094 
Q 2938 2591 2744 2837 
Q 2550 3084 2163 3084 
Q 1697 3084 1428 2787 
Q 1159 2491 1159 1978 
L 1159 0 
L 581 0 
L 581 4863 
L 1159 4863 
L 1159 2956 
Q 1366 3272 1645 3428 
Q 1925 3584 2291 3584 
Q 2894 3584 3203 3211 
Q 3513 2838 3513 2113 
z
" transform="scale(0.015625)"/>
        <path id="DejaVuSans-69" d="M 603 3500 
L 1178 3500 
L 1178 0 
L 603 0 
L 603 3500 
z
M 603 4863 
L 1178 4863 
L 1178 4134 
L 603 4134 
L 603 4863 
z
" transform="scale(0.015625)"/>
        <path id="DejaVuSans-66" d="M 2375 4863 
L 2375 4384 
L 1825 4384 
Q 1516 4384 1395 4259 
Q 1275 4134 1275 3809 
L 1275 3500 
L 2222 3500 
L 2222 3053 
L 1275 3053 
L 1275 0 
L 697 0 
L 697 3053 
L 147 3053 
L 147 3500 
L 697 3500 
L 697 3744 
Q 697 4328 969 4595 
Q 1241 4863 1831 4863 
L 2375 4863 
z
" transform="scale(0.015625)"/>
        <path id="DejaVuSans-74" d="M 1172 4494 
L 1172 3500 
L 2356 3500 
L 2356 3053 
L 1172 3053 
L 1172 1153 
Q 1172 725 1289 603 
Q 1406 481 1766 481 
L 2356 481 
L 2356 0 
L 1766 0 
Q 1100 0 847 248 
Q 594 497 594 1153 
L 594 3053 
L 172 3053 
L 172 3500 
L 594 3500 
L 594 4494 
L 1172 4494 
z
" transform="scale(0.015625)"/>
        <path id="DejaVuSans-20" transform="scale(0.015625)"/>
        <path id="DejaVuSans-6e" d="M 3513 2113 
L 3513 0 
L 2938 0 
L 2938 2094 
Q 2938 2591 2744 2837 
Q 2550 3084 2163 3084 
Q 1697 3084 1428 2787 
Q 1159 2491 1159 1978 
L 1159 0 
L 581 0 
L 581 3500 
L 1159 3500 
L 1159 2956 
Q 1366 3272 1645 3428 
Q 1925 3584 2291 3584 
Q 2894 3584 3203 3211 
Q 3513 2838 3513 2113 
z
" transform="scale(0.015625)"/>
        <path id="DejaVuSans-43" d="M 4122 4306 
L 4122 3641 
Q 3803 3938 3442 4084 
Q 3081 4231 2675 4231 
Q 1875 4231 1450 3742 
Q 1025 3253 1025 2328 
Q 1025 1406 1450 917 
Q 1875 428 2675 428 
Q 3081 428 3442 575 
Q 3803 722 4122 1019 
L 4122 359 
Q 3791 134 3420 21 
Q 3050 -91 2638 -91 
Q 1578 -91 968 557 
Q 359 1206 359 2328 
Q 359 3453 968 4101 
Q 1578 4750 2638 4750 
Q 3056 4750 3426 4639 
Q 3797 4528 4122 4306 
z
" transform="scale(0.015625)"/>
        <path id="DejaVuSans-45" d="M 628 4666 
L 3578 4666 
L 3578 4134 
L 1259 4134 
L 1259 2753 
L 3481 2753 
L 3481 2222 
L 1259 2222 
L 1259 531 
L 3634 531 
L 3634 0 
L 628 0 
L 628 4666 
z
" transform="scale(0.015625)"/>
        <path id="DejaVuSans-50" d="M 1259 4147 
L 1259 2394 
L 2053 2394 
Q 2494 2394 2734 2622 
Q 2975 2850 2975 3272 
Q 2975 3691 2734 3919 
Q 2494 4147 2053 4147 
L 1259 4147 
z
M 628 4666 
L 2053 4666 
Q 2838 4666 3239 4311 
Q 3641 3956 3641 3272 
Q 3641 2581 3239 2228 
Q 2838 1875 2053 1875 
L 1259 1875 
L 1259 0 
L 628 0 
L 628 4666 
z
" transform="scale(0.015625)"/>
        <path id="DejaVuSans-28" d="M 1984 4856 
Q 1566 4138 1362 3434 
Q 1159 2731 1159 2009 
Q 1159 1288 1364 580 
Q 1569 -128 1984 -844 
L 1484 -844 
Q 1016 -109 783 600 
Q 550 1309 550 2009 
Q 550 2706 781 3412 
Q 1013 4119 1484 4856 
L 1984 4856 
z
" transform="scale(0.015625)"/>
        <path id="DejaVuSans-Oblique-3c0" d="M 584 3500 
L 3938 3500 
L 3825 2925 
L 3384 2925 
L 2966 775 
Q 2922 550 2981 450 
Q 3038 353 3209 353 
Q 3256 353 3325 363 
Q 3397 369 3419 372 
L 3338 -44 
Q 3222 -84 3103 -103 
Q 2981 -122 2866 -122 
Q 2491 -122 2388 81 
Q 2284 288 2391 838 
L 2797 2925 
L 1506 2925 
L 938 0 
L 350 0 
L 919 2925 
L 472 2925 
L 584 3500 
z
" transform="scale(0.015625)"/>
        <path id="DejaVuSans-72" d="M 2631 2963 
Q 2534 3019 2420 3045 
Q 2306 3072 2169 3072 
Q 1681 3072 1420 2755 
Q 1159 2438 1159 1844 
L 1159 0 
L 581 0 
L 581 3500 
L 1159 3500 
L 1159 2956 
Q 1341 3275 1631 3429 
Q 1922 3584 2338 3584 
Q 2397 3584 2469 3576 
Q 2541 3569 2628 3553 
L 2631 2963 
z
" transform="scale(0.015625)"/>
        <path id="DejaVuSans-61" d="M 2194 1759 
Q 1497 1759 1228 1600 
Q 959 1441 959 1056 
Q 959 750 1161 570 
Q 1363 391 1709 391 
Q 2188 391 2477 730 
Q 2766 1069 2766 1631 
L 2766 1759 
L 2194 1759 
z
M 3341 1997 
L 3341 0 
L 2766 0 
L 2766 531 
Q 2569 213 2275 61 
Q 1981 -91 1556 -91 
Q 1019 -91 701 211 
Q 384 513 384 1019 
Q 384 1609 779 1909 
Q 1175 2209 1959 2209 
L 2766 2209 
L 2766 2266 
Q 2766 2663 2505 2880 
Q 2244 3097 1772 3097 
Q 1472 3097 1187 3025 
Q 903 2953 641 2809 
L 641 3341 
Q 956 3463 1253 3523 
Q 1550 3584 1831 3584 
Q 2591 3584 2966 3190 
Q 3341 2797 3341 1997 
z
" transform="scale(0.015625)"/>
        <path id="DejaVuSans-64" d="M 2906 2969 
L 2906 4863 
L 3481 4863 
L 3481 0 
L 2906 0 
L 2906 525 
Q 2725 213 2448 61 
Q 2172 -91 1784 -91 
Q 1150 -91 751 415 
Q 353 922 353 1747 
Q 353 2572 751 3078 
Q 1150 3584 1784 3584 
Q 2172 3584 2448 3432 
Q 2725 3281 2906 2969 
z
M 947 1747 
Q 947 1113 1208 752 
Q 1469 391 1925 391 
Q 2381 391 2643 752 
Q 2906 1113 2906 1747 
Q 2906 2381 2643 2742 
Q 2381 3103 1925 3103 
Q 1469 3103 1208 2742 
Q 947 2381 947 1747 
z
" transform="scale(0.015625)"/>
        <path id="DejaVuSans-73" d="M 2834 3397 
L 2834 2853 
Q 2591 2978 2328 3040 
Q 2066 3103 1784 3103 
Q 1356 3103 1142 2972 
Q 928 2841 928 2578 
Q 928 2378 1081 2264 
Q 1234 2150 1697 2047 
L 1894 2003 
Q 2506 1872 2764 1633 
Q 3022 1394 3022 966 
Q 3022 478 2636 193 
Q 2250 -91 1575 -91 
Q 1294 -91 989 -36 
Q 684 19 347 128 
L 347 722 
Q 666 556 975 473 
Q 1284 391 1588 391 
Q 1994 391 2212 530 
Q 2431 669 2431 922 
Q 2431 1156 2273 1281 
Q 2116 1406 1581 1522 
L 1381 1569 
Q 847 1681 609 1914 
Q 372 2147 372 2553 
Q 372 3047 722 3315 
Q 1072 3584 1716 3584 
Q 2034 3584 2315 3537 
Q 2597 3491 2834 3397 
z
" transform="scale(0.015625)"/>
        <path id="DejaVuSans-29" d="M 513 4856 
L 1013 4856 
Q 1481 4119 1714 3412 
Q 1947 2706 1947 2009 
Q 1947 1309 1714 600 
Q 1481 -109 1013 -844 
L 513 -844 
Q 928 -128 1133 580 
Q 1338 1288 1338 2009 
Q 1338 2731 1133 3434 
Q 928 4138 513 4856 
z
" transform="scale(0.015625)"/>
       </defs>
       <use xlink:href="#DejaVuSans-53" transform="translate(0 0.015625)"/>
       <use xlink:href="#DejaVuSans-68" transform="translate(63.476562 0.015625)"/>
       <use xlink:href="#DejaVuSans-69" transform="translate(126.855469 0.015625)"/>
       <use xlink:href="#DejaVuSans-66" transform="translate(154.638672 0.015625)"/>
       <use xlink:href="#DejaVuSans-74" transform="translate(189.84375 0.015625)"/>
       <use xlink:href="#DejaVuSans-20" transform="translate(229.052734 0.015625)"/>
       <use xlink:href="#DejaVuSans-69" transform="translate(260.839844 0.015625)"/>
       <use xlink:href="#DejaVuSans-6e" transform="translate(288.623047 0.015625)"/>
       <use xlink:href="#DejaVuSans-20" transform="translate(352.001953 0.015625)"/>
       <use xlink:href="#DejaVuSans-43" transform="translate(383.789062 0.015625)"/>
       <use xlink:href="#DejaVuSans-45" transform="translate(453.613281 0.015625)"/>
       <use xlink:href="#DejaVuSans-50" transform="translate(516.796875 0.015625)"/>
       <use xlink:href="#DejaVuSans-20" transform="translate(577.099609 0.015625)"/>
       <use xlink:href="#DejaVuSans-28" transform="translate(608.886719 0.015625)"/>
       <use xlink:href="#DejaVuSans-Oblique-3c0" transform="translate(647.900391 0.015625)"/>
       <use xlink:href="#DejaVuSans-20" transform="translate(708.105469 0.015625)"/>
       <use xlink:href="#DejaVuSans-72" transform="translate(739.892578 0.015625)"/>
       <use xlink:href="#DejaVuSans-61" transform="translate(781.005859 0.015625)"/>
       <use xlink:href="#DejaVuSans-64" transform="translate(842.285156 0.015625)"/>
       <use xlink:href="#DejaVuSans-69" transform="translate(905.761719 0.015625)"/>
       <use xlink:href="#DejaVuSans-61" transform="translate(933.544922 0.015625)"/>
       <use xlink:href="#DejaVuSans-6e" transform="translate(994.824219 0.015625)"/>
       <use xlink:href="#DejaVuSans-73" transform="translate(1058.203125 0.015625)"/>
       <use xlink:href="#DejaVuSans-29" transform="translate(1110.302734 0.015625)"/>
      </g>
     </g>
    </g>
    <g id="matplotlib.axis_2"/>
    <g id="patch_4">
     <path d="M 144 69.12 
L 1036.8 69.12 
" style="fill: none; stroke: #000000; stroke-width: 1.5; stroke-linejoin: miter; stroke-linecap: square"/>
    </g>
   </g>
   <g id="matplotlib.axis_3">
    <g id="xtick_7">
     <g id="line2d_7">
      <defs>
       <path id="mf7deedaf56" d="M 0 0 
L 0 -3.5 
" style="stroke: #000000; stroke-width: 0.8"/>
      </defs>
      <g>
       <use xlink:href="#mf7deedaf56" x="144" y="512.64" style="stroke: #000000; stroke-width: 0.8"/>
      </g>
     </g>
     <g id="text_8">
      <!-- 0.0 -->
      <g transform="translate(129.687187 529.817188) scale(0.18 -0.18)">
       <defs>
        <path id="DejaVuSans-2e" d="M 684 794 
L 1344 794 
L 1344 0 
L 684 0 
L 684 794 
z
" transform="scale(0.015625)"/>
       </defs>
       <use xlink:href="#DejaVuSans-30"/>
       <use xlink:href="#DejaVuSans-2e" transform="translate(63.623047 0)"/>
       <use xlink:href="#DejaVuSans-30" transform="translate(95.410156 0)"/>
      </g>
     </g>
    </g>
    <g id="xtick_8">
     <g id="line2d_8">
      <g>
       <use xlink:href="#mf7deedaf56" x="276.266667" y="512.64" style="stroke: #000000; stroke-width: 0.8"/>
      </g>
     </g>
     <g id="text_9">
      <!-- 0.2 -->
      <g transform="translate(261.953854 529.817188) scale(0.18 -0.18)">
       <use xlink:href="#DejaVuSans-30"/>
       <use xlink:href="#DejaVuSans-2e" transform="translate(63.623047 0)"/>
       <use xlink:href="#DejaVuSans-32" transform="translate(95.410156 0)"/>
      </g>
     </g>
    </g>
    <g id="xtick_9">
     <g id="line2d_9">
      <g>
       <use xlink:href="#mf7deedaf56" x="408.533333" y="512.64" style="stroke: #000000; stroke-width: 0.8"/>
      </g>
     </g>
     <g id="text_10">
      <!-- 0.4 -->
      <g transform="translate(394.220521 529.817188) scale(0.18 -0.18)">
       <use xlink:href="#DejaVuSans-30"/>
       <use xlink:href="#DejaVuSans-2e" transform="translate(63.623047 0)"/>
       <use xlink:href="#DejaVuSans-34" transform="translate(95.410156 0)"/>
      </g>
     </g>
    </g>
    <g id="xtick_10">
     <g id="line2d_10">
      <g>
       <use xlink:href="#mf7deedaf56" x="540.8" y="512.64" style="stroke: #000000; stroke-width: 0.8"/>
      </g>
     </g>
     <g id="text_11">
      <!-- 0.6 -->
      <g transform="translate(526.487188 529.817188) scale(0.18 -0.18)">
       <use xlink:href="#DejaVuSans-30"/>
       <use xlink:href="#DejaVuSans-2e" transform="translate(63.623047 0)"/>
       <use xlink:href="#DejaVuSans-36" transform="translate(95.410156 0)"/>
      </g>
     </g>
    </g>
    <g id="xtick_11">
     <g id="line2d_11">
      <g>
       <use xlink:href="#mf7deedaf56" x="673.066667" y="512.64" style="stroke: #000000; stroke-width: 0.8"/>
      </g>
     </g>
     <g id="text_12">
      <!-- 0.8 -->
      <g transform="translate(658.753854 529.817188) scale(0.18 -0.18)">
       <use xlink:href="#DejaVuSans-30"/>
       <use xlink:href="#DejaVuSans-2e" transform="translate(63.623047 0)"/>
       <use xlink:href="#DejaVuSans-38" transform="translate(95.410156 0)"/>
      </g>
     </g>
    </g>
    <g id="xtick_12">
     <g id="line2d_12">
      <g>
       <use xlink:href="#mf7deedaf56" x="805.333333" y="512.64" style="stroke: #000000; stroke-width: 0.8"/>
      </g>
     </g>
     <g id="text_13">
      <!-- 1.0 -->
      <g transform="translate(791.020521 529.817188) scale(0.18 -0.18)">
       <use xlink:href="#DejaVuSans-31"/>
       <use xlink:href="#DejaVuSans-2e" transform="translate(63.623047 0)"/>
       <use xlink:href="#DejaVuSans-30" transform="translate(95.410156 0)"/>
      </g>
     </g>
    </g>
    <g id="xtick_13">
     <g id="line2d_13">
      <g>
       <use xlink:href="#mf7deedaf56" x="937.6" y="512.64" style="stroke: #000000; stroke-width: 0.8"/>
      </g>
     </g>
     <g id="text_14">
      <!-- 1.2 -->
      <g transform="translate(923.287188 529.817188) scale(0.18 -0.18)">
       <use xlink:href="#DejaVuSans-31"/>
       <use xlink:href="#DejaVuSans-2e" transform="translate(63.623047 0)"/>
       <use xlink:href="#DejaVuSans-32" transform="translate(95.410156 0)"/>
      </g>
     </g>
    </g>
    <g id="text_15">
     <!-- Wedge insertion (mm) -->
     <g transform="translate(489.88125 551.237813) scale(0.18 -0.18)">
      <defs>
       <path id="DejaVuSans-57" d="M 213 4666 
L 850 4666 
L 1831 722 
L 2809 4666 
L 3519 4666 
L 4500 722 
L 5478 4666 
L 6119 4666 
L 4947 0 
L 4153 0 
L 3169 4050 
L 2175 0 
L 1381 0 
L 213 4666 
z
" transform="scale(0.015625)"/>
       <path id="DejaVuSans-65" d="M 3597 1894 
L 3597 1613 
L 953 1613 
Q 991 1019 1311 708 
Q 1631 397 2203 397 
Q 2534 397 2845 478 
Q 3156 559 3463 722 
L 3463 178 
Q 3153 47 2828 -22 
Q 2503 -91 2169 -91 
Q 1331 -91 842 396 
Q 353 884 353 1716 
Q 353 2575 817 3079 
Q 1281 3584 2069 3584 
Q 2775 3584 3186 3129 
Q 3597 2675 3597 1894 
z
M 3022 2063 
Q 3016 2534 2758 2815 
Q 2500 3097 2075 3097 
Q 1594 3097 1305 2825 
Q 1016 2553 972 2059 
L 3022 2063 
z
" transform="scale(0.015625)"/>
       <path id="DejaVuSans-67" d="M 2906 1791 
Q 2906 2416 2648 2759 
Q 2391 3103 1925 3103 
Q 1463 3103 1205 2759 
Q 947 2416 947 1791 
Q 947 1169 1205 825 
Q 1463 481 1925 481 
Q 2391 481 2648 825 
Q 2906 1169 2906 1791 
z
M 3481 434 
Q 3481 -459 3084 -895 
Q 2688 -1331 1869 -1331 
Q 1566 -1331 1297 -1286 
Q 1028 -1241 775 -1147 
L 775 -588 
Q 1028 -725 1275 -790 
Q 1522 -856 1778 -856 
Q 2344 -856 2625 -561 
Q 2906 -266 2906 331 
L 2906 616 
Q 2728 306 2450 153 
Q 2172 0 1784 0 
Q 1141 0 747 490 
Q 353 981 353 1791 
Q 353 2603 747 3093 
Q 1141 3584 1784 3584 
Q 2172 3584 2450 3431 
Q 2728 3278 2906 2969 
L 2906 3500 
L 3481 3500 
L 3481 434 
z
" transform="scale(0.015625)"/>
       <path id="DejaVuSans-6f" d="M 1959 3097 
Q 1497 3097 1228 2736 
Q 959 2375 959 1747 
Q 959 1119 1226 758 
Q 1494 397 1959 397 
Q 2419 397 2687 759 
Q 2956 1122 2956 1747 
Q 2956 2369 2687 2733 
Q 2419 3097 1959 3097 
z
M 1959 3584 
Q 2709 3584 3137 3096 
Q 3566 2609 3566 1747 
Q 3566 888 3137 398 
Q 2709 -91 1959 -91 
Q 1206 -91 779 398 
Q 353 888 353 1747 
Q 353 2609 779 3096 
Q 1206 3584 1959 3584 
z
" transform="scale(0.015625)"/>
       <path id="DejaVuSans-6d" d="M 3328 2828 
Q 3544 3216 3844 3400 
Q 4144 3584 4550 3584 
Q 5097 3584 5394 3201 
Q 5691 2819 5691 2113 
L 5691 0 
L 5113 0 
L 5113 2094 
Q 5113 2597 4934 2840 
Q 4756 3084 4391 3084 
Q 3944 3084 3684 2787 
Q 3425 2491 3425 1978 
L 3425 0 
L 2847 0 
L 2847 2094 
Q 2847 2600 2669 2842 
Q 2491 3084 2119 3084 
Q 1678 3084 1418 2786 
Q 1159 2488 1159 1978 
L 1159 0 
L 581 0 
L 581 3500 
L 1159 3500 
L 1159 2956 
Q 1356 3278 1631 3431 
Q 1906 3584 2284 3584 
Q 2666 3584 2933 3390 
Q 3200 3197 3328 2828 
z
" transform="scale(0.015625)"/>
      </defs>
      <use xlink:href="#DejaVuSans-57"/>
      <use xlink:href="#DejaVuSans-65" transform="translate(93.001953 0)"/>
      <use xlink:href="#DejaVuSans-64" transform="translate(154.525391 0)"/>
      <use xlink:href="#DejaVuSans-67" transform="translate(218.001953 0)"/>
      <use xlink:href="#DejaVuSans-65" transform="translate(281.478516 0)"/>
      <use xlink:href="#DejaVuSans-20" transform="translate(343.001953 0)"/>
      <use xlink:href="#DejaVuSans-69" transform="translate(374.789062 0)"/>
      <use xlink:href="#DejaVuSans-6e" transform="translate(402.572266 0)"/>
      <use xlink:href="#DejaVuSans-73" transform="translate(465.951172 0)"/>
      <use xlink:href="#DejaVuSans-65" transform="translate(518.050781 0)"/>
      <use xlink:href="#DejaVuSans-72" transform="translate(579.574219 0)"/>
      <use xlink:href="#DejaVuSans-74" transform="translate(620.6875 0)"/>
      <use xlink:href="#DejaVuSans-69" transform="translate(659.896484 0)"/>
      <use xlink:href="#DejaVuSans-6f" transform="translate(687.679688 0)"/>
      <use xlink:href="#DejaVuSans-6e" transform="translate(748.861328 0)"/>
      <use xlink:href="#DejaVuSans-20" transform="translate(812.240234 0)"/>
      <use xlink:href="#DejaVuSans-28" transform="translate(844.027344 0)"/>
      <use xlink:href="#DejaVuSans-6d" transform="translate(883.041016 0)"/>
      <use xlink:href="#DejaVuSans-6d" transform="translate(980.453125 0)"/>
      <use xlink:href="#DejaVuSans-29" transform="translate(1077.865234 0)"/>
     </g>
    </g>
   </g>
   <g id="matplotlib.axis_4">
    <g id="ytick_1">
     <g id="line2d_14">
      <defs>
       <path id="m5df0a331a8" d="M 0 0 
L 3.5 0 
" style="stroke: #000000; stroke-width: 0.8"/>
      </defs>
      <g>
       <use xlink:href="#m5df0a331a8" x="144" y="488.291784" style="stroke: #000000; stroke-width: 0.8"/>
      </g>
     </g>
     <g id="text_16">
      <!-- −75 -->
      <g transform="translate(102.511562 495.130378) scale(0.18 -0.18)">
       <defs>
        <path id="DejaVuSans-2212" d="M 678 2272 
L 4684 2272 
L 4684 1741 
L 678 1741 
L 678 2272 
z
" transform="scale(0.015625)"/>
        <path id="DejaVuSans-37" d="M 525 4666 
L 3525 4666 
L 3525 4397 
L 1831 0 
L 1172 0 
L 2766 4134 
L 525 4134 
L 525 4666 
z
" transform="scale(0.015625)"/>
        <path id="DejaVuSans-35" d="M 691 4666 
L 3169 4666 
L 3169 4134 
L 1269 4134 
L 1269 2991 
Q 1406 3038 1543 3061 
Q 1681 3084 1819 3084 
Q 2600 3084 3056 2656 
Q 3513 2228 3513 1497 
Q 3513 744 3044 326 
Q 2575 -91 1722 -91 
Q 1428 -91 1123 -41 
Q 819 9 494 109 
L 494 744 
Q 775 591 1075 516 
Q 1375 441 1709 441 
Q 2250 441 2565 725 
Q 2881 1009 2881 1497 
Q 2881 1984 2565 2268 
Q 2250 2553 1709 2553 
Q 1456 2553 1204 2497 
Q 953 2441 691 2322 
L 691 4666 
z
" transform="scale(0.015625)"/>
       </defs>
       <use xlink:href="#DejaVuSans-2212"/>
       <use xlink:href="#DejaVuSans-37" transform="translate(83.789062 0)"/>
       <use xlink:href="#DejaVuSans-35" transform="translate(147.412109 0)"/>
      </g>
     </g>
    </g>
    <g id="ytick_2">
     <g id="line2d_15">
      <g>
       <use xlink:href="#m5df0a331a8" x="144" y="430.273302" style="stroke: #000000; stroke-width: 0.8"/>
      </g>
     </g>
     <g id="text_17">
      <!-- −50 -->
      <g transform="translate(102.511562 437.111896) scale(0.18 -0.18)">
       <use xlink:href="#DejaVuSans-2212"/>
       <use xlink:href="#DejaVuSans-35" transform="translate(83.789062 0)"/>
       <use xlink:href="#DejaVuSans-30" transform="translate(147.412109 0)"/>
      </g>
     </g>
    </g>
    <g id="ytick_3">
     <g id="line2d_16">
      <g>
       <use xlink:href="#m5df0a331a8" x="144" y="372.25482" style="stroke: #000000; stroke-width: 0.8"/>
      </g>
     </g>
     <g id="text_18">
      <!-- −25 -->
      <g transform="translate(102.511562 379.093414) scale(0.18 -0.18)">
       <use xlink:href="#DejaVuSans-2212"/>
       <use xlink:href="#DejaVuSans-32" transform="translate(83.789062 0)"/>
       <use xlink:href="#DejaVuSans-35" transform="translate(147.412109 0)"/>
      </g>
     </g>
    </g>
    <g id="ytick_4">
     <g id="line2d_17">
      <g>
       <use xlink:href="#m5df0a331a8" x="144" y="314.236338" style="stroke: #000000; stroke-width: 0.8"/>
      </g>
     </g>
     <g id="text_19">
      <!-- 0 -->
      <g transform="translate(129.0475 321.074932) scale(0.18 -0.18)">
       <use xlink:href="#DejaVuSans-30"/>
      </g>
     </g>
    </g>
    <g id="ytick_5">
     <g id="line2d_18">
      <g>
       <use xlink:href="#m5df0a331a8" x="144" y="256.217856" style="stroke: #000000; stroke-width: 0.8"/>
      </g>
     </g>
     <g id="text_20">
      <!-- 25 -->
      <g transform="translate(117.595 263.05645) scale(0.18 -0.18)">
       <use xlink:href="#DejaVuSans-32"/>
       <use xlink:href="#DejaVuSans-35" transform="translate(63.623047 0)"/>
      </g>
     </g>
    </g>
    <g id="ytick_6">
     <g id="line2d_19">
      <g>
       <use xlink:href="#m5df0a331a8" x="144" y="198.199374" style="stroke: #000000; stroke-width: 0.8"/>
      </g>
     </g>
     <g id="text_21">
      <!-- 50 -->
      <g transform="translate(117.595 205.037967) scale(0.18 -0.18)">
       <use xlink:href="#DejaVuSans-35"/>
       <use xlink:href="#DejaVuSans-30" transform="translate(63.623047 0)"/>
      </g>
     </g>
    </g>
    <g id="ytick_7">
     <g id="line2d_20">
      <g>
       <use xlink:href="#m5df0a331a8" x="144" y="140.180892" style="stroke: #000000; stroke-width: 0.8"/>
      </g>
     </g>
     <g id="text_22">
      <!-- 75 -->
      <g transform="translate(117.595 147.019485) scale(0.18 -0.18)">
       <use xlink:href="#DejaVuSans-37"/>
       <use xlink:href="#DejaVuSans-35" transform="translate(63.623047 0)"/>
      </g>
     </g>
    </g>
    <g id="ytick_8">
     <g id="line2d_21">
      <g>
       <use xlink:href="#m5df0a331a8" x="144" y="82.16241" style="stroke: #000000; stroke-width: 0.8"/>
      </g>
     </g>
     <g id="text_23">
      <!-- 100 -->
      <g transform="translate(106.1425 89.001003) scale(0.18 -0.18)">
       <use xlink:href="#DejaVuSans-31"/>
       <use xlink:href="#DejaVuSans-30" transform="translate(63.623047 0)"/>
       <use xlink:href="#DejaVuSans-30" transform="translate(127.246094 0)"/>
      </g>
     </g>
    </g>
    <g id="text_24">
     <!-- $ j_{CEP} $ (pA) -->
     <g transform="translate(94.731562 327.6) rotate(-90) scale(0.18 -0.18)">
      <defs>
       <path id="DejaVuSans-Oblique-6a" d="M 928 3500 
L 1503 3500 
L 813 -63 
L 809 -78 
Q 694 -675 544 -897 
Q 403 -1106 132 -1218 
Q -138 -1331 -506 -1331 
L -722 -1331 
L -628 -844 
L -481 -844 
Q -144 -844 -1 -703 
Q 141 -563 238 -63 
L 928 3500 
z
M 1197 4863 
L 1772 4863 
L 1631 4134 
L 1056 4134 
L 1197 4863 
z
" transform="scale(0.015625)"/>
       <path id="DejaVuSans-Oblique-43" d="M 4447 4306 
L 4319 3641 
Q 4019 3944 3683 4091 
Q 3347 4238 2956 4238 
Q 2422 4238 2017 3981 
Q 1613 3725 1319 3200 
Q 1131 2863 1032 2486 
Q 934 2109 934 1728 
Q 934 1091 1264 756 
Q 1594 422 2222 422 
Q 2656 422 3056 561 
Q 3456 700 3834 978 
L 3688 231 
Q 3316 72 2936 -9 
Q 2556 -91 2175 -91 
Q 1278 -91 773 396 
Q 269 884 269 1753 
Q 269 2309 461 2846 
Q 653 3384 1013 3828 
Q 1394 4300 1883 4525 
Q 2372 4750 3022 4750 
Q 3422 4750 3780 4639 
Q 4138 4528 4447 4306 
z
" transform="scale(0.015625)"/>
       <path id="DejaVuSans-Oblique-45" d="M 1081 4666 
L 4031 4666 
L 3928 4134 
L 1606 4134 
L 1338 2753 
L 3566 2753 
L 3463 2222 
L 1234 2222 
L 909 531 
L 3284 531 
L 3181 0 
L 172 0 
L 1081 4666 
z
" transform="scale(0.015625)"/>
       <path id="DejaVuSans-Oblique-50" d="M 1081 4666 
L 2541 4666 
Q 3178 4666 3512 4369 
Q 3847 4072 3847 3500 
Q 3847 2731 3353 2303 
Q 2859 1875 1966 1875 
L 1172 1875 
L 806 0 
L 172 0 
L 1081 4666 
z
M 1613 4147 
L 1275 2394 
L 2069 2394 
Q 2606 2394 2893 2669 
Q 3181 2944 3181 3456 
Q 3181 3784 2986 3965 
Q 2791 4147 2438 4147 
L 1613 4147 
z
" transform="scale(0.015625)"/>
       <path id="DejaVuSans-70" d="M 1159 525 
L 1159 -1331 
L 581 -1331 
L 581 3500 
L 1159 3500 
L 1159 2969 
Q 1341 3281 1617 3432 
Q 1894 3584 2278 3584 
Q 2916 3584 3314 3078 
Q 3713 2572 3713 1747 
Q 3713 922 3314 415 
Q 2916 -91 2278 -91 
Q 1894 -91 1617 61 
Q 1341 213 1159 525 
z
M 3116 1747 
Q 3116 2381 2855 2742 
Q 2594 3103 2138 3103 
Q 1681 3103 1420 2742 
Q 1159 2381 1159 1747 
Q 1159 1113 1420 752 
Q 1681 391 2138 391 
Q 2594 391 2855 752 
Q 3116 1113 3116 1747 
z
" transform="scale(0.015625)"/>
       <path id="DejaVuSans-41" d="M 2188 4044 
L 1331 1722 
L 3047 1722 
L 2188 4044 
z
M 1831 4666 
L 2547 4666 
L 4325 0 
L 3669 0 
L 3244 1197 
L 1141 1197 
L 716 0 
L 50 0 
L 1831 4666 
z
" transform="scale(0.015625)"/>
      </defs>
      <use xlink:href="#DejaVuSans-Oblique-6a" transform="translate(0 0.015625)"/>
      <use xlink:href="#DejaVuSans-Oblique-43" transform="translate(27.783203 -16.390625) scale(0.7)"/>
      <use xlink:href="#DejaVuSans-Oblique-45" transform="translate(76.660156 -16.390625) scale(0.7)"/>
      <use xlink:href="#DejaVuSans-Oblique-50" transform="translate(120.888672 -16.390625) scale(0.7)"/>
      <use xlink:href="#DejaVuSans-20" transform="translate(165.834961 0.015625)"/>
      <use xlink:href="#DejaVuSans-28" transform="translate(197.62207 0.015625)"/>
      <use xlink:href="#DejaVuSans-70" transform="translate(236.635742 0.015625)"/>
      <use xlink:href="#DejaVuSans-41" transform="translate(300.112305 0.015625)"/>
      <use xlink:href="#DejaVuSans-29" transform="translate(368.520508 0.015625)"/>
     </g>
    </g>
   </g>
   <g id="line2d_22">
    <path d="M 144.992 226.734036 
L 152.494262 262.557878 
L 152.494262 295.306328 
L 159.996524 351.645769 
L 159.996524 339.011806 
L 167.498786 338.810611 
L 167.498786 414.90004 
L 175.001049 375.502044 
L 175.001049 349.092752 
L 182.503311 339.176473 
L 182.503311 329.978904 
L 190.005573 235.646713 
L 190.005573 240.145165 
L 197.507835 217.480035 
L 197.507835 284.10942 
L 205.010097 265.118649 
L 205.010097 281.337377 
L 212.512359 288.242611 
L 212.512359 347.235997 
L 220.014621 387.555295 
L 220.014621 393.179251 
L 227.516884 393.186893 
L 227.516884 449.076238 
L 235.019146 457.204408 
L 235.019146 455.053009 
L 242.521408 453.00719 
L 242.521408 414.329311 
L 250.02367 397.683809 
L 250.02367 361.981731 
L 257.525932 282.124951 
L 257.525932 181.133485 
L 265.028194 123.824182 
L 265.028194 89.28 
L 272.530456 118.856004 
L 272.530456 102.668577 
L 280.032719 160.01331 
L 280.032719 221.211528 
L 287.534981 237.615881 
L 287.534981 223.890832 
L 295.037243 238.804589 
L 295.037243 278.84592 
L 302.539505 281.921866 
L 302.539505 317.193122 
L 310.041767 406.595579 
L 310.041767 412.26681 
L 317.544029 389.523556 
L 317.544029 398.25178 
L 325.046291 403.196766 
L 325.046291 332.020375 
L 332.548554 330.227665 
L 332.548554 279.181245 
L 340.050816 260.260285 
L 340.050816 228.87072 
L 347.553078 234.17506 
L 347.553078 252.41861 
L 355.05534 284.683932 
L 355.05534 383.516235 
L 362.557602 373.14331 
L 362.557602 405.878317 
L 370.059864 431.987016 
L 370.059864 434.082799 
L 377.562126 431.295758 
L 377.562126 492.48 
L 385.064389 422.646763 
L 385.064389 428.717649 
L 392.566651 446.469779 
L 400.068913 390.991153 
L 400.068913 424.401683 
L 407.571175 370.82474 
L 407.571175 353.08585 
L 415.073437 250.117138 
L 415.073437 230.224063 
L 422.575699 200.90722 
L 422.575699 170.883619 
L 430.077961 184.032869 
L 430.077961 209.574354 
L 437.580224 227.964167 
L 437.580224 235.824163 
L 445.082486 252.692589 
L 445.082486 291.363356 
L 452.584748 304.79152 
L 452.584748 369.745365 
L 460.08701 423.529072 
L 460.08701 413.601349 
L 467.589272 431.502483 
L 467.589272 405.969669 
L 475.091534 357.984676 
L 475.091534 330.371434 
L 482.593796 300.404707 
L 482.593796 286.966246 
L 490.096058 233.647141 
L 490.096058 174.499824 
L 497.598321 145.50575 
L 497.598321 159.164858 
L 505.100583 157.858075 
L 505.100583 177.467573 
L 512.602845 191.19181 
L 512.602845 220.492781 
L 520.105107 218.147987 
L 520.105107 227.582018 
L 527.607369 251.7269 
L 527.607369 256.492574 
L 535.109631 234.013269 
L 535.109631 282.515472 
L 542.611893 400.630033 
L 542.611893 424.112254 
L 550.114156 426.510827 
L 550.114156 448.161095 
L 557.616418 448.558882 
L 557.616418 385.843041 
L 565.11868 368.56945 
L 565.11868 310.187708 
L 572.620942 298.904566 
L 572.620942 273.788367 
L 580.123204 286.373232 
L 580.123204 284.562784 
L 587.625466 322.766024 
L 587.625466 350.26943 
L 595.127728 304.036967 
L 595.127728 335.919564 
L 602.629991 288.068648 
L 602.629991 318.217175 
L 610.132253 335.51279 
L 610.132253 416.876396 
L 617.634515 429.88171 
L 617.634515 436.891899 
L 625.136777 442.842024 
L 625.136777 466.172617 
L 632.639039 400.438147 
L 632.639039 444.082257 
L 640.141301 410.899274 
L 640.141301 314.714824 
L 647.643563 331.347141 
L 647.643563 307.999149 
L 655.145826 281.239765 
L 655.145826 270.100223 
L 662.648088 254.919667 
L 662.648088 245.820745 
L 670.15035 253.886427 
L 670.15035 271.324202 
L 677.652612 262.044389 
L 677.652612 248.752206 
L 685.154874 270.205248 
L 685.154874 283.676043 
L 692.657136 286.997643 
L 692.657136 336.964456 
L 700.159398 304.586397 
L 700.159398 325.890471 
L 707.661661 333.167651 
L 707.661661 319.622557 
L 715.163923 276.838097 
L 715.163923 257.698781 
L 722.666185 256.172432 
L 722.666185 282.872282 
L 730.168447 272.633122 
L 730.168447 230.532512 
L 737.670709 256.621417 
L 737.670709 258.283885 
L 745.172971 237.718622 
L 745.172971 293.278858 
L 752.675233 280.61216 
L 752.675233 276.782569 
L 760.177496 348.502928 
L 760.177496 372.709312 
L 767.679758 353.476027 
L 767.679758 458.094341 
L 775.18202 433.317135 
L 775.18202 461.312835 
L 782.684282 445.54696 
L 782.684282 387.537854 
L 790.186544 401.815708 
L 790.186544 318.212329 
L 797.688806 317.934454 
L 797.688806 275.676295 
L 805.191068 215.731033 
L 805.191068 173.913691 
L 812.693331 166.300086 
L 812.693331 256.167209 
L 820.195593 243.40189 
L 820.195593 241.460561 
L 827.697855 244.508544 
L 827.697855 256.303279 
L 835.200117 293.53092 
L 835.200117 309.090935 
L 842.702379 326.945919 
L 842.702379 402.8346 
L 850.204641 391.081497 
L 850.204641 420.645166 
L 857.706903 304.195726 
L 857.706903 326.89602 
L 865.209166 298.764759 
L 865.209166 354.766039 
L 872.711428 375.315748 
L 872.711428 347.949897 
L 880.21369 295.426421 
L 880.21369 279.241816 
L 887.715952 254.801856 
L 887.715952 266.912111 
L 895.218214 275.936076 
L 895.218214 322.52321 
L 902.720476 314.698471 
L 902.720476 327.555877 
L 910.222738 355.88943 
L 910.222738 351.19068 
L 917.725001 346.338473 
L 917.725001 333.020717 
L 925.227263 348.563073 
L 925.227263 373.237643 
L 932.729525 384.370627 
L 932.729525 371.211391 
L 940.231787 340.39074 
L 940.231787 306.302923 
L 947.734049 347.519197 
L 947.734049 361.550701 
L 955.236311 306.585078 
L 955.236311 299.217424 
L 962.738573 267.490059 
L 962.738573 204.306037 
L 970.240836 216.119394 
L 970.240836 211.041695 
L 977.743098 240.410197 
L 977.743098 273.254661 
L 985.24536 324.775983 
L 985.24536 343.760967 
L 992.747622 357.390787 
L 992.747622 365.224481 
L 1000.249884 351.755481 
L 1000.249884 299.55967 
L 1007.752146 301.197025 
L 1007.752146 287.173518 
L 1015.254408 299.164054 
L 1015.254408 279.749065 
L 1022.756671 372.440392 
L 1022.756671 332.548157 
L 1030.258933 333.383418 
L 1030.258933 327.551534 
L 1037.761195 368.975109 
L 1037.761195 303.923356 
L 1045.263457 278.336911 
L 1045.263457 304.728979 
L 1045.263457 304.728979 
" clip-path="url(#pbda81b4b76)" style="fill: none; stroke: #808080; stroke-width: 1.5; stroke-linecap: square"/>
    <defs>
     <path id="me53fad2dbe" d="M 0 4.242641 
L 2.545584 0 
L 0 -4.242641 
L -2.545584 0 
z
" style="stroke: #808080; stroke-linejoin: miter"/>
    </defs>
    <g clip-path="url(#pbda81b4b76)">
     <use xlink:href="#me53fad2dbe" x="144.992" y="226.734036" style="fill: #808080; stroke: #808080; stroke-linejoin: miter"/>
     <use xlink:href="#me53fad2dbe" x="152.494262" y="262.557878" style="fill: #808080; stroke: #808080; stroke-linejoin: miter"/>
     <use xlink:href="#me53fad2dbe" x="152.494262" y="295.306328" style="fill: #808080; stroke: #808080; stroke-linejoin: miter"/>
     <use xlink:href="#me53fad2dbe" x="159.996524" y="351.645769" style="fill: #808080; stroke: #808080; stroke-linejoin: miter"/>
     <use xlink:href="#me53fad2dbe" x="159.996524" y="339.011806" style="fill: #808080; stroke: #808080; stroke-linejoin: miter"/>
     <use xlink:href="#me53fad2dbe" x="167.498786" y="338.810611" style="fill: #808080; stroke: #808080; stroke-linejoin: miter"/>
     <use xlink:href="#me53fad2dbe" x="167.498786" y="414.90004" style="fill: #808080; stroke: #808080; stroke-linejoin: miter"/>
     <use xlink:href="#me53fad2dbe" x="175.001049" y="375.502044" style="fill: #808080; stroke: #808080; stroke-linejoin: miter"/>
     <use xlink:href="#me53fad2dbe" x="175.001049" y="349.092752" style="fill: #808080; stroke: #808080; stroke-linejoin: miter"/>
     <use xlink:href="#me53fad2dbe" x="182.503311" y="339.176473" style="fill: #808080; stroke: #808080; stroke-linejoin: miter"/>
     <use xlink:href="#me53fad2dbe" x="182.503311" y="329.978904" style="fill: #808080; stroke: #808080; stroke-linejoin: miter"/>
     <use xlink:href="#me53fad2dbe" x="190.005573" y="235.646713" style="fill: #808080; stroke: #808080; stroke-linejoin: miter"/>
     <use xlink:href="#me53fad2dbe" x="190.005573" y="240.145165" style="fill: #808080; stroke: #808080; stroke-linejoin: miter"/>
     <use xlink:href="#me53fad2dbe" x="197.507835" y="217.480035" style="fill: #808080; stroke: #808080; stroke-linejoin: miter"/>
     <use xlink:href="#me53fad2dbe" x="197.507835" y="284.10942" style="fill: #808080; stroke: #808080; stroke-linejoin: miter"/>
     <use xlink:href="#me53fad2dbe" x="205.010097" y="265.118649" style="fill: #808080; stroke: #808080; stroke-linejoin: miter"/>
     <use xlink:href="#me53fad2dbe" x="205.010097" y="281.337377" style="fill: #808080; stroke: #808080; stroke-linejoin: miter"/>
     <use xlink:href="#me53fad2dbe" x="212.512359" y="288.242611" style="fill: #808080; stroke: #808080; stroke-linejoin: miter"/>
     <use xlink:href="#me53fad2dbe" x="212.512359" y="347.235997" style="fill: #808080; stroke: #808080; stroke-linejoin: miter"/>
     <use xlink:href="#me53fad2dbe" x="220.014621" y="387.555295" style="fill: #808080; stroke: #808080; stroke-linejoin: miter"/>
     <use xlink:href="#me53fad2dbe" x="220.014621" y="393.179251" style="fill: #808080; stroke: #808080; stroke-linejoin: miter"/>
     <use xlink:href="#me53fad2dbe" x="227.516884" y="393.186893" style="fill: #808080; stroke: #808080; stroke-linejoin: miter"/>
     <use xlink:href="#me53fad2dbe" x="227.516884" y="449.076238" style="fill: #808080; stroke: #808080; stroke-linejoin: miter"/>
     <use xlink:href="#me53fad2dbe" x="235.019146" y="457.204408" style="fill: #808080; stroke: #808080; stroke-linejoin: miter"/>
     <use xlink:href="#me53fad2dbe" x="235.019146" y="455.053009" style="fill: #808080; stroke: #808080; stroke-linejoin: miter"/>
     <use xlink:href="#me53fad2dbe" x="242.521408" y="453.00719" style="fill: #808080; stroke: #808080; stroke-linejoin: miter"/>
     <use xlink:href="#me53fad2dbe" x="242.521408" y="414.329311" style="fill: #808080; stroke: #808080; stroke-linejoin: miter"/>
     <use xlink:href="#me53fad2dbe" x="250.02367" y="397.683809" style="fill: #808080; stroke: #808080; stroke-linejoin: miter"/>
     <use xlink:href="#me53fad2dbe" x="250.02367" y="361.981731" style="fill: #808080; stroke: #808080; stroke-linejoin: miter"/>
     <use xlink:href="#me53fad2dbe" x="257.525932" y="282.124951" style="fill: #808080; stroke: #808080; stroke-linejoin: miter"/>
     <use xlink:href="#me53fad2dbe" x="257.525932" y="181.133485" style="fill: #808080; stroke: #808080; stroke-linejoin: miter"/>
     <use xlink:href="#me53fad2dbe" x="265.028194" y="123.824182" style="fill: #808080; stroke: #808080; stroke-linejoin: miter"/>
     <use xlink:href="#me53fad2dbe" x="265.028194" y="89.28" style="fill: #808080; stroke: #808080; stroke-linejoin: miter"/>
     <use xlink:href="#me53fad2dbe" x="272.530456" y="118.856004" style="fill: #808080; stroke: #808080; stroke-linejoin: miter"/>
     <use xlink:href="#me53fad2dbe" x="272.530456" y="102.668577" style="fill: #808080; stroke: #808080; stroke-linejoin: miter"/>
     <use xlink:href="#me53fad2dbe" x="280.032719" y="160.01331" style="fill: #808080; stroke: #808080; stroke-linejoin: miter"/>
     <use xlink:href="#me53fad2dbe" x="280.032719" y="221.211528" style="fill: #808080; stroke: #808080; stroke-linejoin: miter"/>
     <use xlink:href="#me53fad2dbe" x="287.534981" y="237.615881" style="fill: #808080; stroke: #808080; stroke-linejoin: miter"/>
     <use xlink:href="#me53fad2dbe" x="287.534981" y="223.890832" style="fill: #808080; stroke: #808080; stroke-linejoin: miter"/>
     <use xlink:href="#me53fad2dbe" x="295.037243" y="238.804589" style="fill: #808080; stroke: #808080; stroke-linejoin: miter"/>
     <use xlink:href="#me53fad2dbe" x="295.037243" y="278.84592" style="fill: #808080; stroke: #808080; stroke-linejoin: miter"/>
     <use xlink:href="#me53fad2dbe" x="302.539505" y="281.921866" style="fill: #808080; stroke: #808080; stroke-linejoin: miter"/>
     <use xlink:href="#me53fad2dbe" x="302.539505" y="317.193122" style="fill: #808080; stroke: #808080; stroke-linejoin: miter"/>
     <use xlink:href="#me53fad2dbe" x="310.041767" y="406.595579" style="fill: #808080; stroke: #808080; stroke-linejoin: miter"/>
     <use xlink:href="#me53fad2dbe" x="310.041767" y="412.26681" style="fill: #808080; stroke: #808080; stroke-linejoin: miter"/>
     <use xlink:href="#me53fad2dbe" x="317.544029" y="389.523556" style="fill: #808080; stroke: #808080; stroke-linejoin: miter"/>
     <use xlink:href="#me53fad2dbe" x="317.544029" y="398.25178" style="fill: #808080; stroke: #808080; stroke-linejoin: miter"/>
     <use xlink:href="#me53fad2dbe" x="325.046291" y="403.196766" style="fill: #808080; stroke: #808080; stroke-linejoin: miter"/>
     <use xlink:href="#me53fad2dbe" x="325.046291" y="332.020375" style="fill: #808080; stroke: #808080; stroke-linejoin: miter"/>
     <use xlink:href="#me53fad2dbe" x="332.548554" y="330.227665" style="fill: #808080; stroke: #808080; stroke-linejoin: miter"/>
     <use xlink:href="#me53fad2dbe" x="332.548554" y="279.181245" style="fill: #808080; stroke: #808080; stroke-linejoin: miter"/>
     <use xlink:href="#me53fad2dbe" x="340.050816" y="260.260285" style="fill: #808080; stroke: #808080; stroke-linejoin: miter"/>
     <use xlink:href="#me53fad2dbe" x="340.050816" y="228.87072" style="fill: #808080; stroke: #808080; stroke-linejoin: miter"/>
     <use xlink:href="#me53fad2dbe" x="347.553078" y="234.17506" style="fill: #808080; stroke: #808080; stroke-linejoin: miter"/>
     <use xlink:href="#me53fad2dbe" x="347.553078" y="252.41861" style="fill: #808080; stroke: #808080; stroke-linejoin: miter"/>
     <use xlink:href="#me53fad2dbe" x="355.05534" y="284.683932" style="fill: #808080; stroke: #808080; stroke-linejoin: miter"/>
     <use xlink:href="#me53fad2dbe" x="355.05534" y="383.516235" style="fill: #808080; stroke: #808080; stroke-linejoin: miter"/>
     <use xlink:href="#me53fad2dbe" x="362.557602" y="373.14331" style="fill: #808080; stroke: #808080; stroke-linejoin: miter"/>
     <use xlink:href="#me53fad2dbe" x="362.557602" y="405.878317" style="fill: #808080; stroke: #808080; stroke-linejoin: miter"/>
     <use xlink:href="#me53fad2dbe" x="370.059864" y="431.987016" style="fill: #808080; stroke: #808080; stroke-linejoin: miter"/>
     <use xlink:href="#me53fad2dbe" x="370.059864" y="434.082799" style="fill: #808080; stroke: #808080; stroke-linejoin: miter"/>
     <use xlink:href="#me53fad2dbe" x="377.562126" y="431.295758" style="fill: #808080; stroke: #808080; stroke-linejoin: miter"/>
     <use xlink:href="#me53fad2dbe" x="377.562126" y="492.48" style="fill: #808080; stroke: #808080; stroke-linejoin: miter"/>
     <use xlink:href="#me53fad2dbe" x="385.064389" y="422.646763" style="fill: #808080; stroke: #808080; stroke-linejoin: miter"/>
     <use xlink:href="#me53fad2dbe" x="385.064389" y="428.717649" style="fill: #808080; stroke: #808080; stroke-linejoin: miter"/>
     <use xlink:href="#me53fad2dbe" x="392.566651" y="446.268233" style="fill: #808080; stroke: #808080; stroke-linejoin: miter"/>
     <use xlink:href="#me53fad2dbe" x="392.566651" y="446.469779" style="fill: #808080; stroke: #808080; stroke-linejoin: miter"/>
     <use xlink:href="#me53fad2dbe" x="400.068913" y="390.991153" style="fill: #808080; stroke: #808080; stroke-linejoin: miter"/>
     <use xlink:href="#me53fad2dbe" x="400.068913" y="424.401683" style="fill: #808080; stroke: #808080; stroke-linejoin: miter"/>
     <use xlink:href="#me53fad2dbe" x="407.571175" y="370.82474" style="fill: #808080; stroke: #808080; stroke-linejoin: miter"/>
     <use xlink:href="#me53fad2dbe" x="407.571175" y="353.08585" style="fill: #808080; stroke: #808080; stroke-linejoin: miter"/>
     <use xlink:href="#me53fad2dbe" x="415.073437" y="250.117138" style="fill: #808080; stroke: #808080; stroke-linejoin: miter"/>
     <use xlink:href="#me53fad2dbe" x="415.073437" y="230.224063" style="fill: #808080; stroke: #808080; stroke-linejoin: miter"/>
     <use xlink:href="#me53fad2dbe" x="422.575699" y="200.90722" style="fill: #808080; stroke: #808080; stroke-linejoin: miter"/>
     <use xlink:href="#me53fad2dbe" x="422.575699" y="170.883619" style="fill: #808080; stroke: #808080; stroke-linejoin: miter"/>
     <use xlink:href="#me53fad2dbe" x="430.077961" y="184.032869" style="fill: #808080; stroke: #808080; stroke-linejoin: miter"/>
     <use xlink:href="#me53fad2dbe" x="430.077961" y="209.574354" style="fill: #808080; stroke: #808080; stroke-linejoin: miter"/>
     <use xlink:href="#me53fad2dbe" x="437.580224" y="227.964167" style="fill: #808080; stroke: #808080; stroke-linejoin: miter"/>
     <use xlink:href="#me53fad2dbe" x="437.580224" y="235.824163" style="fill: #808080; stroke: #808080; stroke-linejoin: miter"/>
     <use xlink:href="#me53fad2dbe" x="445.082486" y="252.692589" style="fill: #808080; stroke: #808080; stroke-linejoin: miter"/>
     <use xlink:href="#me53fad2dbe" x="445.082486" y="291.363356" style="fill: #808080; stroke: #808080; stroke-linejoin: miter"/>
     <use xlink:href="#me53fad2dbe" x="452.584748" y="304.79152" style="fill: #808080; stroke: #808080; stroke-linejoin: miter"/>
     <use xlink:href="#me53fad2dbe" x="452.584748" y="369.745365" style="fill: #808080; stroke: #808080; stroke-linejoin: miter"/>
     <use xlink:href="#me53fad2dbe" x="460.08701" y="423.529072" style="fill: #808080; stroke: #808080; stroke-linejoin: miter"/>
     <use xlink:href="#me53fad2dbe" x="460.08701" y="413.601349" style="fill: #808080; stroke: #808080; stroke-linejoin: miter"/>
     <use xlink:href="#me53fad2dbe" x="467.589272" y="431.502483" style="fill: #808080; stroke: #808080; stroke-linejoin: miter"/>
     <use xlink:href="#me53fad2dbe" x="467.589272" y="405.969669" style="fill: #808080; stroke: #808080; stroke-linejoin: miter"/>
     <use xlink:href="#me53fad2dbe" x="475.091534" y="357.984676" style="fill: #808080; stroke: #808080; stroke-linejoin: miter"/>
     <use xlink:href="#me53fad2dbe" x="475.091534" y="330.371434" style="fill: #808080; stroke: #808080; stroke-linejoin: miter"/>
     <use xlink:href="#me53fad2dbe" x="482.593796" y="300.404707" style="fill: #808080; stroke: #808080; stroke-linejoin: miter"/>
     <use xlink:href="#me53fad2dbe" x="482.593796" y="286.966246" style="fill: #808080; stroke: #808080; stroke-linejoin: miter"/>
     <use xlink:href="#me53fad2dbe" x="490.096058" y="233.647141" style="fill: #808080; stroke: #808080; stroke-linejoin: miter"/>
     <use xlink:href="#me53fad2dbe" x="490.096058" y="174.499824" style="fill: #808080; stroke: #808080; stroke-linejoin: miter"/>
     <use xlink:href="#me53fad2dbe" x="497.598321" y="145.50575" style="fill: #808080; stroke: #808080; stroke-linejoin: miter"/>
     <use xlink:href="#me53fad2dbe" x="497.598321" y="159.164858" style="fill: #808080; stroke: #808080; stroke-linejoin: miter"/>
     <use xlink:href="#me53fad2dbe" x="505.100583" y="157.858075" style="fill: #808080; stroke: #808080; stroke-linejoin: miter"/>
     <use xlink:href="#me53fad2dbe" x="505.100583" y="177.467573" style="fill: #808080; stroke: #808080; stroke-linejoin: miter"/>
     <use xlink:href="#me53fad2dbe" x="512.602845" y="191.19181" style="fill: #808080; stroke: #808080; stroke-linejoin: miter"/>
     <use xlink:href="#me53fad2dbe" x="512.602845" y="220.492781" style="fill: #808080; stroke: #808080; stroke-linejoin: miter"/>
     <use xlink:href="#me53fad2dbe" x="520.105107" y="218.147987" style="fill: #808080; stroke: #808080; stroke-linejoin: miter"/>
     <use xlink:href="#me53fad2dbe" x="520.105107" y="227.582018" style="fill: #808080; stroke: #808080; stroke-linejoin: miter"/>
     <use xlink:href="#me53fad2dbe" x="527.607369" y="251.7269" style="fill: #808080; stroke: #808080; stroke-linejoin: miter"/>
     <use xlink:href="#me53fad2dbe" x="527.607369" y="256.492574" style="fill: #808080; stroke: #808080; stroke-linejoin: miter"/>
     <use xlink:href="#me53fad2dbe" x="535.109631" y="234.013269" style="fill: #808080; stroke: #808080; stroke-linejoin: miter"/>
     <use xlink:href="#me53fad2dbe" x="535.109631" y="282.515472" style="fill: #808080; stroke: #808080; stroke-linejoin: miter"/>
     <use xlink:href="#me53fad2dbe" x="542.611893" y="400.630033" style="fill: #808080; stroke: #808080; stroke-linejoin: miter"/>
     <use xlink:href="#me53fad2dbe" x="542.611893" y="424.112254" style="fill: #808080; stroke: #808080; stroke-linejoin: miter"/>
     <use xlink:href="#me53fad2dbe" x="550.114156" y="426.510827" style="fill: #808080; stroke: #808080; stroke-linejoin: miter"/>
     <use xlink:href="#me53fad2dbe" x="550.114156" y="448.161095" style="fill: #808080; stroke: #808080; stroke-linejoin: miter"/>
     <use xlink:href="#me53fad2dbe" x="557.616418" y="448.558882" style="fill: #808080; stroke: #808080; stroke-linejoin: miter"/>
     <use xlink:href="#me53fad2dbe" x="557.616418" y="385.843041" style="fill: #808080; stroke: #808080; stroke-linejoin: miter"/>
     <use xlink:href="#me53fad2dbe" x="565.11868" y="368.56945" style="fill: #808080; stroke: #808080; stroke-linejoin: miter"/>
     <use xlink:href="#me53fad2dbe" x="565.11868" y="310.187708" style="fill: #808080; stroke: #808080; stroke-linejoin: miter"/>
     <use xlink:href="#me53fad2dbe" x="572.620942" y="298.904566" style="fill: #808080; stroke: #808080; stroke-linejoin: miter"/>
     <use xlink:href="#me53fad2dbe" x="572.620942" y="273.788367" style="fill: #808080; stroke: #808080; stroke-linejoin: miter"/>
     <use xlink:href="#me53fad2dbe" x="580.123204" y="286.373232" style="fill: #808080; stroke: #808080; stroke-linejoin: miter"/>
     <use xlink:href="#me53fad2dbe" x="580.123204" y="284.562784" style="fill: #808080; stroke: #808080; stroke-linejoin: miter"/>
     <use xlink:href="#me53fad2dbe" x="587.625466" y="322.766024" style="fill: #808080; stroke: #808080; stroke-linejoin: miter"/>
     <use xlink:href="#me53fad2dbe" x="587.625466" y="350.26943" style="fill: #808080; stroke: #808080; stroke-linejoin: miter"/>
     <use xlink:href="#me53fad2dbe" x="595.127728" y="304.036967" style="fill: #808080; stroke: #808080; stroke-linejoin: miter"/>
     <use xlink:href="#me53fad2dbe" x="595.127728" y="335.919564" style="fill: #808080; stroke: #808080; stroke-linejoin: miter"/>
     <use xlink:href="#me53fad2dbe" x="602.629991" y="288.068648" style="fill: #808080; stroke: #808080; stroke-linejoin: miter"/>
     <use xlink:href="#me53fad2dbe" x="602.629991" y="318.217175" style="fill: #808080; stroke: #808080; stroke-linejoin: miter"/>
     <use xlink:href="#me53fad2dbe" x="610.132253" y="335.51279" style="fill: #808080; stroke: #808080; stroke-linejoin: miter"/>
     <use xlink:href="#me53fad2dbe" x="610.132253" y="416.876396" style="fill: #808080; stroke: #808080; stroke-linejoin: miter"/>
     <use xlink:href="#me53fad2dbe" x="617.634515" y="429.88171" style="fill: #808080; stroke: #808080; stroke-linejoin: miter"/>
     <use xlink:href="#me53fad2dbe" x="617.634515" y="436.891899" style="fill: #808080; stroke: #808080; stroke-linejoin: miter"/>
     <use xlink:href="#me53fad2dbe" x="625.136777" y="442.842024" style="fill: #808080; stroke: #808080; stroke-linejoin: miter"/>
     <use xlink:href="#me53fad2dbe" x="625.136777" y="466.172617" style="fill: #808080; stroke: #808080; stroke-linejoin: miter"/>
     <use xlink:href="#me53fad2dbe" x="632.639039" y="400.438147" style="fill: #808080; stroke: #808080; stroke-linejoin: miter"/>
     <use xlink:href="#me53fad2dbe" x="632.639039" y="444.082257" style="fill: #808080; stroke: #808080; stroke-linejoin: miter"/>
     <use xlink:href="#me53fad2dbe" x="640.141301" y="410.899274" style="fill: #808080; stroke: #808080; stroke-linejoin: miter"/>
     <use xlink:href="#me53fad2dbe" x="640.141301" y="314.714824" style="fill: #808080; stroke: #808080; stroke-linejoin: miter"/>
     <use xlink:href="#me53fad2dbe" x="647.643563" y="331.347141" style="fill: #808080; stroke: #808080; stroke-linejoin: miter"/>
     <use xlink:href="#me53fad2dbe" x="647.643563" y="307.999149" style="fill: #808080; stroke: #808080; stroke-linejoin: miter"/>
     <use xlink:href="#me53fad2dbe" x="655.145826" y="281.239765" style="fill: #808080; stroke: #808080; stroke-linejoin: miter"/>
     <use xlink:href="#me53fad2dbe" x="655.145826" y="270.100223" style="fill: #808080; stroke: #808080; stroke-linejoin: miter"/>
     <use xlink:href="#me53fad2dbe" x="662.648088" y="254.919667" style="fill: #808080; stroke: #808080; stroke-linejoin: miter"/>
     <use xlink:href="#me53fad2dbe" x="662.648088" y="245.820745" style="fill: #808080; stroke: #808080; stroke-linejoin: miter"/>
     <use xlink:href="#me53fad2dbe" x="670.15035" y="253.886427" style="fill: #808080; stroke: #808080; stroke-linejoin: miter"/>
     <use xlink:href="#me53fad2dbe" x="670.15035" y="271.324202" style="fill: #808080; stroke: #808080; stroke-linejoin: miter"/>
     <use xlink:href="#me53fad2dbe" x="677.652612" y="262.044389" style="fill: #808080; stroke: #808080; stroke-linejoin: miter"/>
     <use xlink:href="#me53fad2dbe" x="677.652612" y="248.752206" style="fill: #808080; stroke: #808080; stroke-linejoin: miter"/>
     <use xlink:href="#me53fad2dbe" x="685.154874" y="270.205248" style="fill: #808080; stroke: #808080; stroke-linejoin: miter"/>
     <use xlink:href="#me53fad2dbe" x="685.154874" y="283.676043" style="fill: #808080; stroke: #808080; stroke-linejoin: miter"/>
     <use xlink:href="#me53fad2dbe" x="692.657136" y="286.997643" style="fill: #808080; stroke: #808080; stroke-linejoin: miter"/>
     <use xlink:href="#me53fad2dbe" x="692.657136" y="336.964456" style="fill: #808080; stroke: #808080; stroke-linejoin: miter"/>
     <use xlink:href="#me53fad2dbe" x="700.159398" y="304.586397" style="fill: #808080; stroke: #808080; stroke-linejoin: miter"/>
     <use xlink:href="#me53fad2dbe" x="700.159398" y="325.890471" style="fill: #808080; stroke: #808080; stroke-linejoin: miter"/>
     <use xlink:href="#me53fad2dbe" x="707.661661" y="333.167651" style="fill: #808080; stroke: #808080; stroke-linejoin: miter"/>
     <use xlink:href="#me53fad2dbe" x="707.661661" y="319.622557" style="fill: #808080; stroke: #808080; stroke-linejoin: miter"/>
     <use xlink:href="#me53fad2dbe" x="715.163923" y="276.838097" style="fill: #808080; stroke: #808080; stroke-linejoin: miter"/>
     <use xlink:href="#me53fad2dbe" x="715.163923" y="257.698781" style="fill: #808080; stroke: #808080; stroke-linejoin: miter"/>
     <use xlink:href="#me53fad2dbe" x="722.666185" y="256.172432" style="fill: #808080; stroke: #808080; stroke-linejoin: miter"/>
     <use xlink:href="#me53fad2dbe" x="722.666185" y="282.872282" style="fill: #808080; stroke: #808080; stroke-linejoin: miter"/>
     <use xlink:href="#me53fad2dbe" x="730.168447" y="272.633122" style="fill: #808080; stroke: #808080; stroke-linejoin: miter"/>
     <use xlink:href="#me53fad2dbe" x="730.168447" y="230.532512" style="fill: #808080; stroke: #808080; stroke-linejoin: miter"/>
     <use xlink:href="#me53fad2dbe" x="737.670709" y="256.621417" style="fill: #808080; stroke: #808080; stroke-linejoin: miter"/>
     <use xlink:href="#me53fad2dbe" x="737.670709" y="258.283885" style="fill: #808080; stroke: #808080; stroke-linejoin: miter"/>
     <use xlink:href="#me53fad2dbe" x="745.172971" y="237.718622" style="fill: #808080; stroke: #808080; stroke-linejoin: miter"/>
     <use xlink:href="#me53fad2dbe" x="745.172971" y="293.278858" style="fill: #808080; stroke: #808080; stroke-linejoin: miter"/>
     <use xlink:href="#me53fad2dbe" x="752.675233" y="280.61216" style="fill: #808080; stroke: #808080; stroke-linejoin: miter"/>
     <use xlink:href="#me53fad2dbe" x="752.675233" y="276.782569" style="fill: #808080; stroke: #808080; stroke-linejoin: miter"/>
     <use xlink:href="#me53fad2dbe" x="760.177496" y="348.502928" style="fill: #808080; stroke: #808080; stroke-linejoin: miter"/>
     <use xlink:href="#me53fad2dbe" x="760.177496" y="372.709312" style="fill: #808080; stroke: #808080; stroke-linejoin: miter"/>
     <use xlink:href="#me53fad2dbe" x="767.679758" y="353.476027" style="fill: #808080; stroke: #808080; stroke-linejoin: miter"/>
     <use xlink:href="#me53fad2dbe" x="767.679758" y="458.094341" style="fill: #808080; stroke: #808080; stroke-linejoin: miter"/>
     <use xlink:href="#me53fad2dbe" x="775.18202" y="433.317135" style="fill: #808080; stroke: #808080; stroke-linejoin: miter"/>
     <use xlink:href="#me53fad2dbe" x="775.18202" y="461.312835" style="fill: #808080; stroke: #808080; stroke-linejoin: miter"/>
     <use xlink:href="#me53fad2dbe" x="782.684282" y="445.54696" style="fill: #808080; stroke: #808080; stroke-linejoin: miter"/>
     <use xlink:href="#me53fad2dbe" x="782.684282" y="387.537854" style="fill: #808080; stroke: #808080; stroke-linejoin: miter"/>
     <use xlink:href="#me53fad2dbe" x="790.186544" y="401.815708" style="fill: #808080; stroke: #808080; stroke-linejoin: miter"/>
     <use xlink:href="#me53fad2dbe" x="790.186544" y="318.212329" style="fill: #808080; stroke: #808080; stroke-linejoin: miter"/>
     <use xlink:href="#me53fad2dbe" x="797.688806" y="317.934454" style="fill: #808080; stroke: #808080; stroke-linejoin: miter"/>
     <use xlink:href="#me53fad2dbe" x="797.688806" y="275.676295" style="fill: #808080; stroke: #808080; stroke-linejoin: miter"/>
     <use xlink:href="#me53fad2dbe" x="805.191068" y="215.731033" style="fill: #808080; stroke: #808080; stroke-linejoin: miter"/>
     <use xlink:href="#me53fad2dbe" x="805.191068" y="173.913691" style="fill: #808080; stroke: #808080; stroke-linejoin: miter"/>
     <use xlink:href="#me53fad2dbe" x="812.693331" y="166.300086" style="fill: #808080; stroke: #808080; stroke-linejoin: miter"/>
     <use xlink:href="#me53fad2dbe" x="812.693331" y="256.167209" style="fill: #808080; stroke: #808080; stroke-linejoin: miter"/>
     <use xlink:href="#me53fad2dbe" x="820.195593" y="243.40189" style="fill: #808080; stroke: #808080; stroke-linejoin: miter"/>
     <use xlink:href="#me53fad2dbe" x="820.195593" y="241.460561" style="fill: #808080; stroke: #808080; stroke-linejoin: miter"/>
     <use xlink:href="#me53fad2dbe" x="827.697855" y="244.508544" style="fill: #808080; stroke: #808080; stroke-linejoin: miter"/>
     <use xlink:href="#me53fad2dbe" x="827.697855" y="256.303279" style="fill: #808080; stroke: #808080; stroke-linejoin: miter"/>
     <use xlink:href="#me53fad2dbe" x="835.200117" y="293.53092" style="fill: #808080; stroke: #808080; stroke-linejoin: miter"/>
     <use xlink:href="#me53fad2dbe" x="835.200117" y="309.090935" style="fill: #808080; stroke: #808080; stroke-linejoin: miter"/>
     <use xlink:href="#me53fad2dbe" x="842.702379" y="326.945919" style="fill: #808080; stroke: #808080; stroke-linejoin: miter"/>
     <use xlink:href="#me53fad2dbe" x="842.702379" y="402.8346" style="fill: #808080; stroke: #808080; stroke-linejoin: miter"/>
     <use xlink:href="#me53fad2dbe" x="850.204641" y="391.081497" style="fill: #808080; stroke: #808080; stroke-linejoin: miter"/>
     <use xlink:href="#me53fad2dbe" x="850.204641" y="420.645166" style="fill: #808080; stroke: #808080; stroke-linejoin: miter"/>
     <use xlink:href="#me53fad2dbe" x="857.706903" y="304.195726" style="fill: #808080; stroke: #808080; stroke-linejoin: miter"/>
     <use xlink:href="#me53fad2dbe" x="857.706903" y="326.89602" style="fill: #808080; stroke: #808080; stroke-linejoin: miter"/>
     <use xlink:href="#me53fad2dbe" x="865.209166" y="298.764759" style="fill: #808080; stroke: #808080; stroke-linejoin: miter"/>
     <use xlink:href="#me53fad2dbe" x="865.209166" y="354.766039" style="fill: #808080; stroke: #808080; stroke-linejoin: miter"/>
     <use xlink:href="#me53fad2dbe" x="872.711428" y="375.315748" style="fill: #808080; stroke: #808080; stroke-linejoin: miter"/>
     <use xlink:href="#me53fad2dbe" x="872.711428" y="347.949897" style="fill: #808080; stroke: #808080; stroke-linejoin: miter"/>
     <use xlink:href="#me53fad2dbe" x="880.21369" y="295.426421" style="fill: #808080; stroke: #808080; stroke-linejoin: miter"/>
     <use xlink:href="#me53fad2dbe" x="880.21369" y="279.241816" style="fill: #808080; stroke: #808080; stroke-linejoin: miter"/>
     <use xlink:href="#me53fad2dbe" x="887.715952" y="254.801856" style="fill: #808080; stroke: #808080; stroke-linejoin: miter"/>
     <use xlink:href="#me53fad2dbe" x="887.715952" y="266.912111" style="fill: #808080; stroke: #808080; stroke-linejoin: miter"/>
     <use xlink:href="#me53fad2dbe" x="895.218214" y="275.936076" style="fill: #808080; stroke: #808080; stroke-linejoin: miter"/>
     <use xlink:href="#me53fad2dbe" x="895.218214" y="322.52321" style="fill: #808080; stroke: #808080; stroke-linejoin: miter"/>
     <use xlink:href="#me53fad2dbe" x="902.720476" y="314.698471" style="fill: #808080; stroke: #808080; stroke-linejoin: miter"/>
     <use xlink:href="#me53fad2dbe" x="902.720476" y="327.555877" style="fill: #808080; stroke: #808080; stroke-linejoin: miter"/>
     <use xlink:href="#me53fad2dbe" x="910.222738" y="355.88943" style="fill: #808080; stroke: #808080; stroke-linejoin: miter"/>
     <use xlink:href="#me53fad2dbe" x="910.222738" y="351.19068" style="fill: #808080; stroke: #808080; stroke-linejoin: miter"/>
     <use xlink:href="#me53fad2dbe" x="917.725001" y="346.338473" style="fill: #808080; stroke: #808080; stroke-linejoin: miter"/>
     <use xlink:href="#me53fad2dbe" x="917.725001" y="333.020717" style="fill: #808080; stroke: #808080; stroke-linejoin: miter"/>
     <use xlink:href="#me53fad2dbe" x="925.227263" y="348.563073" style="fill: #808080; stroke: #808080; stroke-linejoin: miter"/>
     <use xlink:href="#me53fad2dbe" x="925.227263" y="373.237643" style="fill: #808080; stroke: #808080; stroke-linejoin: miter"/>
     <use xlink:href="#me53fad2dbe" x="932.729525" y="384.370627" style="fill: #808080; stroke: #808080; stroke-linejoin: miter"/>
     <use xlink:href="#me53fad2dbe" x="932.729525" y="371.211391" style="fill: #808080; stroke: #808080; stroke-linejoin: miter"/>
     <use xlink:href="#me53fad2dbe" x="940.231787" y="340.39074" style="fill: #808080; stroke: #808080; stroke-linejoin: miter"/>
     <use xlink:href="#me53fad2dbe" x="940.231787" y="306.302923" style="fill: #808080; stroke: #808080; stroke-linejoin: miter"/>
     <use xlink:href="#me53fad2dbe" x="947.734049" y="347.519197" style="fill: #808080; stroke: #808080; stroke-linejoin: miter"/>
     <use xlink:href="#me53fad2dbe" x="947.734049" y="361.550701" style="fill: #808080; stroke: #808080; stroke-linejoin: miter"/>
     <use xlink:href="#me53fad2dbe" x="955.236311" y="306.585078" style="fill: #808080; stroke: #808080; stroke-linejoin: miter"/>
     <use xlink:href="#me53fad2dbe" x="955.236311" y="299.217424" style="fill: #808080; stroke: #808080; stroke-linejoin: miter"/>
     <use xlink:href="#me53fad2dbe" x="962.738573" y="267.490059" style="fill: #808080; stroke: #808080; stroke-linejoin: miter"/>
     <use xlink:href="#me53fad2dbe" x="962.738573" y="204.306037" style="fill: #808080; stroke: #808080; stroke-linejoin: miter"/>
     <use xlink:href="#me53fad2dbe" x="970.240836" y="216.119394" style="fill: #808080; stroke: #808080; stroke-linejoin: miter"/>
     <use xlink:href="#me53fad2dbe" x="970.240836" y="211.041695" style="fill: #808080; stroke: #808080; stroke-linejoin: miter"/>
     <use xlink:href="#me53fad2dbe" x="977.743098" y="240.410197" style="fill: #808080; stroke: #808080; stroke-linejoin: miter"/>
     <use xlink:href="#me53fad2dbe" x="977.743098" y="273.254661" style="fill: #808080; stroke: #808080; stroke-linejoin: miter"/>
     <use xlink:href="#me53fad2dbe" x="985.24536" y="324.775983" style="fill: #808080; stroke: #808080; stroke-linejoin: miter"/>
     <use xlink:href="#me53fad2dbe" x="985.24536" y="343.760967" style="fill: #808080; stroke: #808080; stroke-linejoin: miter"/>
     <use xlink:href="#me53fad2dbe" x="992.747622" y="357.390787" style="fill: #808080; stroke: #808080; stroke-linejoin: miter"/>
     <use xlink:href="#me53fad2dbe" x="992.747622" y="365.224481" style="fill: #808080; stroke: #808080; stroke-linejoin: miter"/>
     <use xlink:href="#me53fad2dbe" x="1000.249884" y="351.755481" style="fill: #808080; stroke: #808080; stroke-linejoin: miter"/>
     <use xlink:href="#me53fad2dbe" x="1000.249884" y="299.55967" style="fill: #808080; stroke: #808080; stroke-linejoin: miter"/>
     <use xlink:href="#me53fad2dbe" x="1007.752146" y="301.197025" style="fill: #808080; stroke: #808080; stroke-linejoin: miter"/>
     <use xlink:href="#me53fad2dbe" x="1007.752146" y="287.173518" style="fill: #808080; stroke: #808080; stroke-linejoin: miter"/>
     <use xlink:href="#me53fad2dbe" x="1015.254408" y="299.164054" style="fill: #808080; stroke: #808080; stroke-linejoin: miter"/>
     <use xlink:href="#me53fad2dbe" x="1015.254408" y="279.749065" style="fill: #808080; stroke: #808080; stroke-linejoin: miter"/>
     <use xlink:href="#me53fad2dbe" x="1022.756671" y="372.440392" style="fill: #808080; stroke: #808080; stroke-linejoin: miter"/>
     <use xlink:href="#me53fad2dbe" x="1022.756671" y="332.548157" style="fill: #808080; stroke: #808080; stroke-linejoin: miter"/>
     <use xlink:href="#me53fad2dbe" x="1030.258933" y="333.383418" style="fill: #808080; stroke: #808080; stroke-linejoin: miter"/>
     <use xlink:href="#me53fad2dbe" x="1030.258933" y="327.551534" style="fill: #808080; stroke: #808080; stroke-linejoin: miter"/>
     <use xlink:href="#me53fad2dbe" x="1037.761195" y="368.975109" style="fill: #808080; stroke: #808080; stroke-linejoin: miter"/>
     <use xlink:href="#me53fad2dbe" x="1037.761195" y="303.923356" style="fill: #808080; stroke: #808080; stroke-linejoin: miter"/>
     <use xlink:href="#me53fad2dbe" x="1045.263457" y="278.336911" style="fill: #808080; stroke: #808080; stroke-linejoin: miter"/>
     <use xlink:href="#me53fad2dbe" x="1045.263457" y="304.728979" style="fill: #808080; stroke: #808080; stroke-linejoin: miter"/>
    </g>
   </g>
   <g id="line2d_23">
    <path d="M 144.992 355.688048 
L 146.779387 365.030353 
L 148.566775 373.348045 
L 150.354162 380.457836 
L 152.14155 386.200779 
L 153.035243 388.517551 
L 153.928937 390.445814 
L 154.822631 391.974032 
L 155.716324 393.092751 
L 156.610018 393.794655 
L 157.503712 394.074612 
L 158.397405 393.929709 
L 159.291099 393.359278 
L 160.184793 392.3649 
L 161.078486 390.950413 
L 161.97218 389.121891 
L 162.865874 386.887625 
L 163.759568 384.258085 
L 165.546955 377.865644 
L 167.334342 370.069761 
L 169.12173 361.026213 
L 170.909117 350.918256 
L 173.590198 334.218856 
L 178.058667 304.246832 
L 181.633441 280.605215 
L 184.314523 264.391085 
L 186.10191 254.746575 
L 187.889297 246.281764 
L 189.676685 239.182826 
L 190.570378 236.196226 
L 191.464072 233.608094 
L 192.357766 231.43329 
L 193.251459 229.684531 
L 194.145153 228.372312 
L 195.038847 227.504846 
L 195.932541 227.088012 
L 196.826234 227.125321 
L 197.719928 227.617886 
L 198.613622 228.56441 
L 199.507315 229.961188 
L 200.401009 231.80212 
L 201.294703 234.078732 
L 202.188396 236.780221 
L 203.975784 243.403264 
L 205.763171 251.540399 
L 207.550559 261.027955 
L 209.337946 271.672734 
L 212.019027 289.325215 
L 216.487495 321.162533 
L 220.06227 346.4042 
L 222.743351 363.795352 
L 224.530739 374.183648 
L 226.318126 383.342114 
L 228.105514 391.07094 
L 229.892901 397.199611 
L 230.786595 399.619552 
L 231.680288 401.590666 
L 232.573982 403.101444 
L 233.467676 404.142784 
L 234.361369 404.708049 
L 235.255063 404.793108 
L 236.148757 404.396364 
L 237.04245 403.518767 
L 237.936144 402.163819 
L 238.829838 400.337556 
L 239.723532 398.048525 
L 240.617225 395.307744 
L 241.510919 392.128651 
L 243.298306 384.520959 
L 245.085694 375.378496 
L 246.873081 364.88752 
L 248.660468 353.263689 
L 251.34155 334.235796 
L 260.278486 268.129064 
L 262.065874 256.517932 
L 263.853261 246.058573 
L 265.640649 236.976656 
L 267.428036 229.469598 
L 268.32173 226.359534 
L 269.215423 223.702254 
L 270.109117 221.512681 
L 271.002811 219.803292 
L 271.896505 218.584046 
L 272.790198 217.862324 
L 273.683892 217.642888 
L 274.577586 217.927849 
L 275.471279 218.716651 
L 276.364973 220.006071 
L 277.258667 221.790226 
L 278.15236 224.060606 
L 279.046054 226.806108 
L 279.939748 230.013095 
L 281.727135 237.744712 
L 283.514523 247.098539 
L 285.30191 257.882757 
L 287.089297 269.874591 
L 289.770378 289.575758 
L 299.601009 364.779119 
L 301.388396 376.434123 
L 303.175784 386.79664 
L 304.963171 395.643914 
L 306.750559 402.784583 
L 307.644252 405.66476 
L 308.537946 408.06283 
L 309.43164 409.965427 
L 310.325333 411.361793 
L 311.219027 412.243832 
L 312.112721 412.606158 
L 313.006414 412.446131 
L 313.900108 411.763871 
L 314.793802 410.562261 
L 315.687495 408.84694 
L 316.581189 406.626272 
L 317.474883 403.911307 
L 318.368577 400.715725 
L 320.155964 392.950169 
L 321.943351 383.48871 
L 323.730739 372.526749 
L 325.518126 360.291924 
L 328.199207 340.117388 
L 332.667676 304.023664 
L 336.24245 275.655835 
L 338.923532 256.253614 
L 340.710919 244.734031 
L 342.498306 234.636757 
L 344.285694 226.17778 
L 345.179387 222.620904 
L 346.073081 219.538869 
L 346.966775 216.948405 
L 347.860468 214.863658 
L 348.754162 213.296111 
L 349.647856 212.254522 
L 350.54155 211.744873 
L 351.435243 211.770336 
L 352.328937 212.331255 
L 353.222631 213.425141 
L 354.116324 215.046681 
L 355.010018 217.187768 
L 355.903712 219.837538 
L 356.797405 222.982423 
L 358.584793 230.690211 
L 360.37218 240.151589 
L 362.159568 251.169679 
L 363.946955 263.514383 
L 366.628036 283.946946 
L 371.096505 320.681014 
L 374.671279 349.700067 
L 377.35236 369.638826 
L 379.139748 381.526755 
L 380.927135 391.993339 
L 382.714523 400.816319 
L 383.608216 404.551327 
L 384.50191 407.80796 
L 385.395604 410.568802 
L 386.289297 412.819053 
L 387.182991 414.546606 
L 388.076685 415.742116 
L 388.970378 416.399047 
L 389.864072 416.51371 
L 390.757766 416.085284 
L 391.651459 415.115818 
L 392.545153 413.610228 
L 393.438847 411.576265 
L 394.332541 409.024478 
L 395.226234 405.96816 
L 396.119928 402.423278 
L 397.907315 393.944534 
L 399.694703 383.76592 
L 401.48209 372.101138 
L 403.269477 359.195412 
L 405.950559 338.109912 
L 414.887495 265.231147 
L 416.674883 252.491462 
L 418.46227 241.031836 
L 420.249658 231.093967 
L 422.037045 222.887417 
L 422.930739 219.488977 
L 423.824432 216.585166 
L 424.718126 214.191289 
L 425.61182 212.319956 
L 426.505514 210.98101 
L 427.399207 210.181479 
L 428.292901 209.925538 
L 429.186595 210.214487 
L 430.080288 211.046741 
L 430.973982 212.417846 
L 431.867676 214.320495 
L 432.761369 216.744573 
L 433.655063 219.677209 
L 434.548757 223.102843 
L 436.336144 231.357941 
L 438.123532 241.335134 
L 439.910919 252.823383 
L 441.698306 265.579824 
L 444.379387 286.496858 
L 454.210018 365.901818 
L 455.997405 378.144824 
L 457.784793 389.015171 
L 459.57218 398.285078 
L 461.359568 405.760779 
L 462.253261 408.77557 
L 463.146955 411.286593 
L 464.040649 413.280874 
L 464.934342 414.748177 
L 465.828036 415.681058 
L 466.72173 416.074905 
L 467.615423 415.927955 
L 468.509117 415.24131 
L 469.402811 414.018922 
L 470.296505 412.267575 
L 471.190198 409.996844 
L 472.083892 407.219046 
L 472.977586 403.949168 
L 474.764973 396.005999 
L 476.55236 386.337287 
L 478.339748 375.149178 
L 480.127135 362.679602 
L 482.808216 342.15729 
L 488.170378 298.225759 
L 491.745153 270.135483 
L 493.532541 257.348051 
L 495.319928 245.762663 
L 497.107315 235.621061 
L 498.894703 227.134044 
L 499.788396 223.567323 
L 500.68209 220.477074 
L 501.575784 217.879112 
L 502.469477 215.78663 
L 503.363171 214.210136 
L 504.256865 213.157401 
L 505.150559 212.633416 
L 506.044252 212.640373 
L 506.937946 213.177655 
L 507.83164 214.241841 
L 508.725333 215.826728 
L 509.619027 217.923371 
L 510.512721 220.520124 
L 511.406414 223.602716 
L 513.193802 231.155653 
L 514.981189 240.418707 
L 516.768577 251.1927 
L 518.555964 263.247052 
L 521.237045 283.161108 
L 525.705514 318.849087 
L 529.280288 346.940156 
L 531.961369 366.188208 
L 533.748757 377.642967 
L 535.536144 387.714685 
L 537.323532 396.195372 
L 538.217225 399.783326 
L 539.110919 402.911222 
L 540.004613 405.563259 
L 540.898306 407.726181 
L 541.792 409.389333 
L 542.685694 410.544719 
L 543.579387 411.187041 
L 544.473081 411.313719 
L 545.366775 410.924904 
L 546.260468 410.023471 
L 547.154162 408.614999 
L 548.047856 406.707738 
L 548.94155 404.312563 
L 549.835243 401.442908 
L 550.728937 398.114692 
L 552.516324 390.158146 
L 554.303712 380.616329 
L 556.091099 369.695499 
L 558.77218 351.248405 
L 562.346955 324.195874 
L 567.709117 283.02774 
L 570.390198 264.284675 
L 572.177586 253.084941 
L 573.964973 243.195371 
L 575.75236 234.818957 
L 577.539748 228.125983 
L 578.433441 225.454183 
L 579.327135 223.250546 
L 580.220829 221.525739 
L 581.114523 220.287877 
L 582.008216 219.542486 
L 582.90191 219.292477 
L 583.795604 219.538139 
L 584.689297 220.277139 
L 585.582991 221.504542 
L 586.476685 223.212843 
L 587.370378 225.392011 
L 588.264072 228.02955 
L 589.157766 231.110564 
L 590.945153 238.53199 
L 592.732541 247.492723 
L 594.519928 257.797455 
L 596.307315 269.223398 
L 598.988396 287.922799 
L 607.925333 352.7129 
L 609.712721 364.07334 
L 611.500108 374.314805 
L 613.287495 383.227303 
L 615.074883 390.629892 
L 615.968577 393.717287 
L 616.86227 396.374351 
L 617.755964 398.58816 
L 618.649658 400.348159 
L 619.543351 401.646223 
L 620.437045 402.476684 
L 621.330739 402.836364 
L 622.224432 402.724576 
L 623.118126 402.143129 
L 624.01182 401.096309 
L 624.905514 399.590847 
L 625.799207 397.635883 
L 626.692901 395.242907 
L 627.586595 392.425692 
L 629.373982 385.584579 
L 631.161369 377.265134 
L 632.948757 367.650292 
L 634.736144 356.949306 
L 637.417225 339.37136 
L 647.247856 272.461617 
L 649.035243 262.107418 
L 650.822631 252.890191 
L 652.610018 244.997074 
L 654.397405 238.586197 
L 655.291099 235.977289 
L 656.184793 233.783514 
L 657.078486 232.015184 
L 657.97218 230.680332 
L 658.865874 229.784676 
L 659.759568 229.331596 
L 660.653261 229.322123 
L 661.546955 229.754941 
L 662.440649 230.626404 
L 663.334342 231.930556 
L 664.228036 233.659177 
L 665.12173 235.801826 
L 666.015423 238.345911 
L 667.802811 244.577691 
L 669.590198 252.21373 
L 671.377586 261.084543 
L 673.164973 270.995708 
L 675.846054 287.338091 
L 681.208216 322.386856 
L 684.782991 344.836874 
L 687.464072 359.851822 
L 689.251459 368.601047 
L 691.038847 376.131989 
L 692.826234 382.294757 
L 693.719928 384.824331 
L 694.613622 386.96932 
L 695.507315 388.719767 
L 696.401009 390.067836 
L 697.294703 391.007844 
L 698.188396 391.536282 
L 699.08209 391.65183 
L 699.975784 391.355353 
L 700.869477 390.649889 
L 701.763171 389.540626 
L 702.656865 388.034868 
L 703.550559 386.141986 
L 704.444252 383.87336 
L 705.337946 381.242319 
L 707.125333 374.955531 
L 708.912721 367.423918 
L 710.700108 358.81495 
L 713.381189 344.29959 
L 716.955964 323.07104 
L 722.318126 290.894596 
L 724.999207 276.297633 
L 726.786595 267.591721 
L 728.573982 259.91469 
L 730.361369 253.419773 
L 732.148757 248.234103 
L 733.04245 246.164204 
L 733.936144 244.45623 
L 734.829838 243.11773 
L 735.723532 242.154271 
L 736.617225 241.569417 
L 737.510919 241.364716 
L 738.404613 241.539704 
L 739.298306 242.09191 
L 740.192 243.016884 
L 741.085694 244.308222 
L 741.979387 245.957614 
L 742.873081 247.95489 
L 743.766775 250.288085 
L 745.554162 255.905831 
L 747.34155 262.682124 
L 749.128937 270.464913 
L 751.810018 283.645563 
L 755.384793 303.013601 
L 760.746955 332.538142 
L 763.428036 346.006922 
L 765.215423 354.071791 
L 767.002811 361.212733 
L 768.790198 367.287902 
L 770.577586 372.179151 
L 771.471279 374.150936 
L 772.364973 375.794308 
L 773.258667 377.102085 
L 774.15236 378.068893 
L 775.046054 378.691179 
L 775.939748 378.96723 
L 776.833441 378.897167 
L 777.727135 378.48294 
L 778.620829 377.728307 
L 779.514523 376.638808 
L 780.408216 375.221725 
L 781.30191 373.486039 
L 782.195604 371.442371 
L 783.982991 366.481387 
L 785.770378 360.453953 
L 787.557766 353.496624 
L 789.345153 345.764256 
L 792.026234 333.086917 
L 800.963171 289.052187 
L 802.750559 281.308394 
L 804.537946 274.312925 
L 806.325333 268.205367 
L 808.112721 263.105249 
L 809.900108 259.109714 
L 810.793802 257.549942 
L 811.687495 256.291696 
L 812.581189 255.340097 
L 813.474883 254.698619 
L 814.368577 254.369082 
L 815.26227 254.35165 
L 816.155964 254.644835 
L 817.049658 255.245518 
L 817.943351 256.14897 
L 818.837045 257.348889 
L 819.730739 258.837436 
L 820.624432 260.605291 
L 822.41182 264.93456 
L 824.199207 270.234773 
L 825.986595 276.38462 
L 827.773982 283.246159 
L 830.455063 294.538624 
L 840.285694 337.641627 
L 842.073081 344.335063 
L 843.860468 350.308027 
L 845.647856 355.442889 
L 847.435243 359.640925 
L 848.328937 361.363424 
L 849.222631 362.824198 
L 850.116324 364.016985 
L 851.010018 364.936973 
L 851.903712 365.580817 
L 852.797405 365.946651 
L 853.691099 366.034085 
L 854.584793 365.844204 
L 855.478486 365.37955 
L 856.37218 364.644103 
L 857.265874 363.643251 
L 858.159568 362.383755 
L 859.053261 360.873703 
L 860.840649 357.140616 
L 862.628036 352.533197 
L 864.415423 347.158042 
L 866.202811 341.136699 
L 868.883892 331.18831 
L 874.246054 309.810994 
L 877.820829 296.09427 
L 880.50191 286.901255 
L 882.289297 281.529936 
L 884.076685 276.889613 
L 885.864072 273.069052 
L 886.757766 271.488955 
L 887.651459 270.138719 
L 888.545153 269.024086 
L 889.438847 268.149519 
L 890.332541 267.518185 
L 891.226234 267.131948 
L 892.119928 266.991366 
L 893.013622 267.095696 
L 893.907315 267.442907 
L 894.801009 268.029696 
L 895.694703 268.851514 
L 896.588396 269.9026 
L 897.48209 271.176016 
L 899.269477 274.356473 
L 901.056865 278.315672 
L 902.844252 282.96096 
L 904.63164 288.186389 
L 907.312721 296.854351 
L 911.781189 312.44459 
L 915.355964 324.752755 
L 918.037045 333.214991 
L 919.824432 338.272468 
L 921.61182 342.744381 
L 923.399207 346.544357 
L 925.186595 349.601262 
L 926.080288 350.833328 
L 926.973982 351.860503 
L 927.867676 352.678702 
L 928.761369 353.284968 
L 929.655063 353.677487 
L 930.548757 353.855582 
L 931.44245 353.819716 
L 932.336144 353.571477 
L 933.229838 353.113566 
L 934.123532 352.449773 
L 935.017225 351.584951 
L 935.910919 350.524982 
L 937.698306 347.848056 
L 939.485694 344.485095 
L 941.273081 340.515753 
L 943.060468 336.031387 
L 945.74155 328.562119 
L 950.210018 315.059173 
L 953.784793 304.344413 
L 956.465874 296.945514 
L 958.253261 292.506503 
L 960.040649 288.565946 
L 961.828036 285.199677 
L 963.615423 282.470407 
L 965.402811 280.426588 
L 966.296505 279.672753 
L 967.190198 279.101583 
L 968.083892 278.714809 
L 968.977586 278.513177 
L 969.871279 278.49645 
L 970.764973 278.663417 
L 971.658667 279.011902 
L 972.55236 279.538788 
L 973.446054 280.240037 
L 974.339748 281.110718 
L 976.127135 283.336386 
L 977.914523 286.159832 
L 979.70191 289.513319 
L 981.489297 293.318926 
L 984.170378 299.684422 
L 987.745153 308.900092 
L 992.213622 320.477451 
L 994.894703 326.875601 
L 996.68209 330.728654 
L 998.469477 334.162122 
L 1000.256865 337.110146 
L 1002.044252 339.518048 
L 1003.83164 341.343313 
L 1004.725333 342.02768 
L 1005.619027 342.556309 
L 1006.512721 342.92758 
L 1007.406414 343.140716 
L 1008.300108 343.195781 
L 1009.193802 343.093675 
L 1010.087495 342.836119 
L 1010.981189 342.425646 
L 1011.874883 341.865574 
L 1013.66227 340.313713 
L 1015.449658 338.221882 
L 1017.237045 335.642152 
L 1019.024432 332.636065 
L 1021.705514 327.481501 
L 1024.386595 321.785841 
L 1032.429838 304.264525 
L 1035.110919 299.192349 
L 1036.898306 296.234144 
L 1037.792 294.904051 
L 1037.792 294.904051 
" clip-path="url(#pbda81b4b76)" style="fill: none; stroke: #800080; stroke-width: 1.5; stroke-linecap: square"/>
   </g>
   <g id="patch_5">
    <path d="M 144 512.64 
L 144 69.12 
" style="fill: none; stroke: #000000; stroke-width: 1.5; stroke-linejoin: miter; stroke-linecap: square"/>
   </g>
   <g id="patch_6">
    <path d="M 1036.8 512.64 
L 1036.8 69.12 
" style="fill: none; stroke: #000000; stroke-width: 1.5; stroke-linejoin: miter; stroke-linecap: square"/>
   </g>
   <g id="patch_7">
    <path d="M 144 512.64 
L 1036.8 512.64 
" style="fill: none; stroke: #000000; stroke-width: 1.5; stroke-linejoin: miter; stroke-linecap: square"/>
   </g>
   <g id="patch_8">
    <path d="M 144 69.12 
L 1036.8 69.12 
" style="fill: none; stroke: #000000; stroke-width: 1.5; stroke-linejoin: miter; stroke-linecap: square"/>
   </g>
   <g id="legend_1">
    <g id="patch_9">
     <path d="M 835.12 121.1475 
L 1025.6 121.1475 
Q 1028.8 121.1475 1028.8 117.9475 
L 1028.8 80.32 
Q 1028.8 77.12 1025.6 77.12 
L 835.12 77.12 
Q 831.92 77.12 831.92 80.32 
L 831.92 117.9475 
Q 831.92 121.1475 835.12 121.1475 
z
" style="fill: #ffffff; opacity: 0.8; stroke: #cccccc; stroke-linejoin: miter"/>
    </g>
    <g id="text_25">
     <!-- $\varepsilon_0$ = 1.51 V/nm -->
     <g transform="translate(838.32 101.75625) scale(0.24 -0.24)">
      <defs>
       <path id="DejaVuSans-Oblique-3b5" d="M 1263 1888 
Q 925 1963 778 2166 
Q 669 2309 669 2503 
Q 669 3034 1175 3344 
Q 1575 3588 2188 3588 
Q 2425 3588 2684 3550 
Q 2944 3513 3234 3438 
L 3134 2916 
Q 2847 3006 2606 3047 
Q 2359 3088 2138 3088 
Q 1766 3088 1522 2944 
Q 1228 2772 1228 2522 
Q 1228 2356 1381 2241 
Q 1563 2103 1925 2103 
L 2409 2103 
L 2319 1628 
L 1856 1628 
Q 1425 1628 1172 1469 
Q 828 1253 828 916 
Q 828 703 1013 563 
Q 1244 388 1716 388 
Q 2006 388 2284 444 
Q 2563 503 2806 619 
L 2700 84 
Q 2403 -3 2131 -47 
Q 1859 -91 1609 -91 
Q 866 -91 516 194 
Q 250 413 250 781 
Q 250 1278 600 1584 
Q 859 1813 1263 1888 
z
" transform="scale(0.015625)"/>
       <path id="DejaVuSans-3d" d="M 678 2906 
L 4684 2906 
L 4684 2381 
L 678 2381 
L 678 2906 
z
M 678 1631 
L 4684 1631 
L 4684 1100 
L 678 1100 
L 678 1631 
z
" transform="scale(0.015625)"/>
       <path id="DejaVuSans-56" d="M 1831 0 
L 50 4666 
L 709 4666 
L 2188 738 
L 3669 4666 
L 4325 4666 
L 2547 0 
L 1831 0 
z
" transform="scale(0.015625)"/>
       <path id="DejaVuSans-2f" d="M 1625 4666 
L 2156 4666 
L 531 -594 
L 0 -594 
L 1625 4666 
z
" transform="scale(0.015625)"/>
      </defs>
      <use xlink:href="#DejaVuSans-Oblique-3b5" transform="translate(0 0.09375)"/>
      <use xlink:href="#DejaVuSans-30" transform="translate(54.052734 -16.3125) scale(0.7)"/>
      <use xlink:href="#DejaVuSans-20" transform="translate(101.323242 0.09375)"/>
      <use xlink:href="#DejaVuSans-3d" transform="translate(133.110352 0.09375)"/>
      <use xlink:href="#DejaVuSans-20" transform="translate(216.899414 0.09375)"/>
      <use xlink:href="#DejaVuSans-31" transform="translate(248.686523 0.09375)"/>
      <use xlink:href="#DejaVuSans-2e" transform="translate(312.30957 0.09375)"/>
      <use xlink:href="#DejaVuSans-35" transform="translate(344.09668 0.09375)"/>
      <use xlink:href="#DejaVuSans-31" transform="translate(407.719727 0.09375)"/>
      <use xlink:href="#DejaVuSans-20" transform="translate(471.342773 0.09375)"/>
      <use xlink:href="#DejaVuSans-56" transform="translate(503.129883 0.09375)"/>
      <use xlink:href="#DejaVuSans-2f" transform="translate(571.538086 0.09375)"/>
      <use xlink:href="#DejaVuSans-6e" transform="translate(605.229492 0.09375)"/>
      <use xlink:href="#DejaVuSans-6d" transform="translate(668.608398 0.09375)"/>
     </g>
    </g>
   </g>
  </g>
 </g>
 <defs>
  <clipPath id="pbda81b4b76">
   <rect x="144" y="69.12" width="892.8" height="443.52"/>
  </clipPath>
 </defs>
</svg>
