<?xml version="1.0" encoding="utf-8" standalone="no"?>
<!DOCTYPE svg PUBLIC "-//W3C//DTD SVG 1.1//EN"
  "http://www.w3.org/Graphics/SVG/1.1/DTD/svg11.dtd">
<svg xmlns:xlink="http://www.w3.org/1999/xlink" width="1152pt" height="576pt" viewBox="0 0 1152 576" xmlns="http://www.w3.org/2000/svg" version="1.1">
 <metadata>
  <rdf:RDF xmlns:dc="http://purl.org/dc/elements/1.1/" xmlns:cc="http://creativecommons.org/ns#" xmlns:rdf="http://www.w3.org/1999/02/22-rdf-syntax-ns#">
   <cc:Work>
    <dc:type rdf:resource="http://purl.org/dc/dcmitype/StillImage"/>
    <dc:date>2025-09-11T12:30:22.628606</dc:date>
    <dc:format>image/svg+xml</dc:format>
    <dc:creator>
     <cc:Agent>
      <dc:title>Matplotlib v3.10.5, https://matplotlib.org/</dc:title>
     </cc:Agent>
    </dc:creator>
   </cc:Work>
  </rdf:RDF>
 </metadata>
 <defs>
  <style type="text/css">*{stroke-linejoin: round; stroke-linecap: butt}</style>
 </defs>
 <g id="figure_1">
  <g id="patch_1">
   <path d="M 0 576 
L 1152 576 
L 1152 0 
L 0 0 
z
" style="fill: #ffffff"/>
  </g>
  <g id="axes_1">
   <g id="patch_2">
    <path d="M 144 270.72 
L 1036.8 270.72 
L 1036.8 69.12 
L 144 69.12 
z
" style="fill: #ffffff"/>
   </g>
   <g id="matplotlib.axis_1"/>
   <g id="matplotlib.axis_2">
    <g id="ytick_1">
     <g id="line2d_1">
      <defs>
       <path id="m58744ab5a3" d="M 0 0 
L 3.5 0 
" style="stroke: #000000; stroke-width: 0.8"/>
      </defs>
      <g>
       <use xlink:href="#m58744ab5a3" x="144" y="242.632557" style="stroke: #000000; stroke-width: 0.8"/>
      </g>
     </g>
     <g id="text_1">
      <!-- −2 -->
      <g transform="translate(119.860938 247.951463) scale(0.14 -0.14)">
       <defs>
        <path id="DejaVuSans-2212" d="M 678 2272 
L 4684 2272 
L 4684 1741 
L 678 1741 
L 678 2272 
z
" transform="scale(0.015625)"/>
        <path id="DejaVuSans-32" d="M 1228 531 
L 3431 531 
L 3431 0 
L 469 0 
L 469 531 
Q 828 903 1448 1529 
Q 2069 2156 2228 2338 
Q 2531 2678 2651 2914 
Q 2772 3150 2772 3378 
Q 2772 3750 2511 3984 
Q 2250 4219 1831 4219 
Q 1534 4219 1204 4116 
Q 875 4013 500 3803 
L 500 4441 
Q 881 4594 1212 4672 
Q 1544 4750 1819 4750 
Q 2544 4750 2975 4387 
Q 3406 4025 3406 3419 
Q 3406 3131 3298 2873 
Q 3191 2616 2906 2266 
Q 2828 2175 2409 1742 
Q 1991 1309 1228 531 
z
" transform="scale(0.015625)"/>
       </defs>
       <use xlink:href="#DejaVuSans-2212"/>
       <use xlink:href="#DejaVuSans-32" transform="translate(83.789062 0)"/>
      </g>
     </g>
    </g>
    <g id="ytick_2">
     <g id="line2d_2">
      <g>
       <use xlink:href="#m58744ab5a3" x="144" y="202.215833" style="stroke: #000000; stroke-width: 0.8"/>
      </g>
     </g>
     <g id="text_2">
      <!-- −1 -->
      <g transform="translate(119.860938 207.534739) scale(0.14 -0.14)">
       <defs>
        <path id="DejaVuSans-31" d="M 794 531 
L 1825 531 
L 1825 4091 
L 703 3866 
L 703 4441 
L 1819 4666 
L 2450 4666 
L 2450 531 
L 3481 531 
L 3481 0 
L 794 0 
L 794 531 
z
" transform="scale(0.015625)"/>
       </defs>
       <use xlink:href="#DejaVuSans-2212"/>
       <use xlink:href="#DejaVuSans-31" transform="translate(83.789062 0)"/>
      </g>
     </g>
    </g>
    <g id="ytick_3">
     <g id="line2d_3">
      <g>
       <use xlink:href="#m58744ab5a3" x="144" y="161.799108" style="stroke: #000000; stroke-width: 0.8"/>
      </g>
     </g>
     <g id="text_3">
      <!-- 0 -->
      <g transform="translate(131.5925 167.118015) scale(0.14 -0.14)">
       <defs>
        <path id="DejaVuSans-30" d="M 2034 4250 
Q 1547 4250 1301 3770 
Q 1056 3291 1056 2328 
Q 1056 1369 1301 889 
Q 1547 409 2034 409 
Q 2525 409 2770 889 
Q 3016 1369 3016 2328 
Q 3016 3291 2770 3770 
Q 2525 4250 2034 4250 
z
M 2034 4750 
Q 2819 4750 3233 4129 
Q 3647 3509 3647 2328 
Q 3647 1150 3233 529 
Q 2819 -91 2034 -91 
Q 1250 -91 836 529 
Q 422 1150 422 2328 
Q 422 3509 836 4129 
Q 1250 4750 2034 4750 
z
" transform="scale(0.015625)"/>
       </defs>
       <use xlink:href="#DejaVuSans-30"/>
      </g>
     </g>
    </g>
    <g id="ytick_4">
     <g id="line2d_4">
      <g>
       <use xlink:href="#m58744ab5a3" x="144" y="121.382384" style="stroke: #000000; stroke-width: 0.8"/>
      </g>
     </g>
     <g id="text_4">
      <!-- 1 -->
      <g transform="translate(131.5925 126.70129) scale(0.14 -0.14)">
       <use xlink:href="#DejaVuSans-31"/>
      </g>
     </g>
    </g>
    <g id="ytick_5">
     <g id="line2d_5">
      <g>
       <use xlink:href="#m58744ab5a3" x="144" y="80.96566" style="stroke: #000000; stroke-width: 0.8"/>
      </g>
     </g>
     <g id="text_5">
      <!-- 2 -->
      <g transform="translate(131.5925 86.284566) scale(0.14 -0.14)">
       <use xlink:href="#DejaVuSans-32"/>
      </g>
     </g>
    </g>
    <g id="text_6">
     <!-- $ j_{CEP} $ (pA) -->
     <g transform="translate(112.080938 206.64) rotate(-90) scale(0.18 -0.18)">
      <defs>
       <path id="DejaVuSans-Oblique-6a" d="M 928 3500 
L 1503 3500 
L 813 -63 
L 809 -78 
Q 694 -675 544 -897 
Q 403 -1106 132 -1218 
Q -138 -1331 -506 -1331 
L -722 -1331 
L -628 -844 
L -481 -844 
Q -144 -844 -1 -703 
Q 141 -563 238 -63 
L 928 3500 
z
M 1197 4863 
L 1772 4863 
L 1631 4134 
L 1056 4134 
L 1197 4863 
z
" transform="scale(0.015625)"/>
       <path id="DejaVuSans-Oblique-43" d="M 4447 4306 
L 4319 3641 
Q 4019 3944 3683 4091 
Q 3347 4238 2956 4238 
Q 2422 4238 2017 3981 
Q 1613 3725 1319 3200 
Q 1131 2863 1032 2486 
Q 934 2109 934 1728 
Q 934 1091 1264 756 
Q 1594 422 2222 422 
Q 2656 422 3056 561 
Q 3456 700 3834 978 
L 3688 231 
Q 3316 72 2936 -9 
Q 2556 -91 2175 -91 
Q 1278 -91 773 396 
Q 269 884 269 1753 
Q 269 2309 461 2846 
Q 653 3384 1013 3828 
Q 1394 4300 1883 4525 
Q 2372 4750 3022 4750 
Q 3422 4750 3780 4639 
Q 4138 4528 4447 4306 
z
" transform="scale(0.015625)"/>
       <path id="DejaVuSans-Oblique-45" d="M 1081 4666 
L 4031 4666 
L 3928 4134 
L 1606 4134 
L 1338 2753 
L 3566 2753 
L 3463 2222 
L 1234 2222 
L 909 531 
L 3284 531 
L 3181 0 
L 172 0 
L 1081 4666 
z
" transform="scale(0.015625)"/>
       <path id="DejaVuSans-Oblique-50" d="M 1081 4666 
L 2541 4666 
Q 3178 4666 3512 4369 
Q 3847 4072 3847 3500 
Q 3847 2731 3353 2303 
Q 2859 1875 1966 1875 
L 1172 1875 
L 806 0 
L 172 0 
L 1081 4666 
z
M 1613 4147 
L 1275 2394 
L 2069 2394 
Q 2606 2394 2893 2669 
Q 3181 2944 3181 3456 
Q 3181 3784 2986 3965 
Q 2791 4147 2438 4147 
L 1613 4147 
z
" transform="scale(0.015625)"/>
       <path id="DejaVuSans-20" transform="scale(0.015625)"/>
       <path id="DejaVuSans-28" d="M 1984 4856 
Q 1566 4138 1362 3434 
Q 1159 2731 1159 2009 
Q 1159 1288 1364 580 
Q 1569 -128 1984 -844 
L 1484 -844 
Q 1016 -109 783 600 
Q 550 1309 550 2009 
Q 550 2706 781 3412 
Q 1013 4119 1484 4856 
L 1984 4856 
z
" transform="scale(0.015625)"/>
       <path id="DejaVuSans-70" d="M 1159 525 
L 1159 -1331 
L 581 -1331 
L 581 3500 
L 1159 3500 
L 1159 2969 
Q 1341 3281 1617 3432 
Q 1894 3584 2278 3584 
Q 2916 3584 3314 3078 
Q 3713 2572 3713 1747 
Q 3713 922 3314 415 
Q 2916 -91 2278 -91 
Q 1894 -91 1617 61 
Q 1341 213 1159 525 
z
M 3116 1747 
Q 3116 2381 2855 2742 
Q 2594 3103 2138 3103 
Q 1681 3103 1420 2742 
Q 1159 2381 1159 1747 
Q 1159 1113 1420 752 
Q 1681 391 2138 391 
Q 2594 391 2855 752 
Q 3116 1113 3116 1747 
z
" transform="scale(0.015625)"/>
       <path id="DejaVuSans-41" d="M 2188 4044 
L 1331 1722 
L 3047 1722 
L 2188 4044 
z
M 1831 4666 
L 2547 4666 
L 4325 0 
L 3669 0 
L 3244 1197 
L 1141 1197 
L 716 0 
L 50 0 
L 1831 4666 
z
" transform="scale(0.015625)"/>
       <path id="DejaVuSans-29" d="M 513 4856 
L 1013 4856 
Q 1481 4119 1714 3412 
Q 1947 2706 1947 2009 
Q 1947 1309 1714 600 
Q 1481 -109 1013 -844 
L 513 -844 
Q 928 -128 1133 580 
Q 1338 1288 1338 2009 
Q 1338 2731 1133 3434 
Q 928 4138 513 4856 
z
" transform="scale(0.015625)"/>
      </defs>
      <use xlink:href="#DejaVuSans-Oblique-6a" transform="translate(0 0.015625)"/>
      <use xlink:href="#DejaVuSans-Oblique-43" transform="translate(27.783203 -16.390625) scale(0.7)"/>
      <use xlink:href="#DejaVuSans-Oblique-45" transform="translate(76.660156 -16.390625) scale(0.7)"/>
      <use xlink:href="#DejaVuSans-Oblique-50" transform="translate(120.888672 -16.390625) scale(0.7)"/>
      <use xlink:href="#DejaVuSans-20" transform="translate(165.834961 0.015625)"/>
      <use xlink:href="#DejaVuSans-28" transform="translate(197.62207 0.015625)"/>
      <use xlink:href="#DejaVuSans-70" transform="translate(236.635742 0.015625)"/>
      <use xlink:href="#DejaVuSans-41" transform="translate(300.112305 0.015625)"/>
      <use xlink:href="#DejaVuSans-29" transform="translate(368.520508 0.015625)"/>
     </g>
    </g>
   </g>
   <g id="line2d_6">
    <path d="M 622.246108 163.004536 
L 625.743784 161.148271 
L 629.24146 159.051434 
L 633.127767 156.469186 
L 637.791335 153.081401 
L 643.620796 148.5486 
L 654.502455 140.022612 
L 658.777393 136.986114 
L 662.275069 134.768576 
L 665.384115 133.059534 
L 668.10453 131.805432 
L 670.824945 130.808334 
L 673.156729 130.179783 
L 675.488513 129.777348 
L 677.820297 129.615877 
L 680.152081 129.708404 
L 682.095235 129.987534 
L 684.038388 130.455901 
L 685.981542 131.117517 
L 688.313326 132.170363 
L 690.64511 133.507733 
L 692.976894 135.129118 
L 695.308679 137.031071 
L 697.640463 139.207139 
L 700.360878 142.07948 
L 703.081292 145.291488 
L 706.190338 149.344703 
L 709.299384 153.759997 
L 713.185691 159.701803 
L 717.849259 167.281321 
L 732.228595 191.001483 
L 735.726271 196.180888 
L 738.835317 200.383705 
L 741.555731 203.684492 
L 743.887516 206.193092 
L 746.2193 208.374214 
L 748.162453 209.921995 
L 750.105607 211.209315 
L 752.04876 212.223574 
L 753.991914 212.953847 
L 755.546436 213.327387 
L 757.100959 213.509461 
L 758.655482 213.49704 
L 760.210005 213.287911 
L 761.764528 212.8807 
L 763.31905 212.274881 
L 764.873573 211.470796 
L 766.816727 210.188802 
L 768.75988 208.60325 
L 770.703034 206.720539 
L 772.646187 204.549168 
L 774.977971 201.577489 
L 777.309756 198.227459 
L 780.03017 193.875751 
L 782.750585 189.092156 
L 785.859631 183.165696 
L 789.357307 176.019813 
L 794.020875 165.937355 
L 807.62295 136.112077 
L 811.120626 129.122263 
L 814.229672 123.377193 
L 816.950087 118.785465 
L 819.670501 114.656696 
L 822.002286 111.522519 
L 824.33407 108.789508 
L 826.277223 106.834361 
L 828.220377 105.183498 
L 830.16353 103.845228 
L 832.106684 102.825699 
L 833.661206 102.242301 
L 835.215729 101.866477 
L 836.770252 101.698331 
L 838.324775 101.737068 
L 839.879298 101.981003 
L 841.43382 102.427578 
L 842.988343 103.073375 
L 844.931497 104.154225 
L 846.87465 105.529589 
L 848.817804 107.187519 
L 850.760957 109.114297 
L 853.092741 111.759565 
L 855.424525 114.74035 
L 858.14494 118.598888 
L 861.253986 123.443031 
L 864.751662 129.340883 
L 869.0266 137.007682 
L 884.571828 165.382119 
L 888.069504 171.111288 
L 891.17855 175.808819 
L 893.898964 179.564561 
L 896.619379 182.95353 
L 898.951164 185.545085 
L 901.282948 187.832576 
L 903.614732 189.805454 
L 905.946516 191.456587 
L 907.88967 192.58395 
L 909.832823 193.484815 
L 911.775976 194.160337 
L 913.71913 194.613178 
L 915.662283 194.847445 
L 917.605437 194.868617 
L 919.54859 194.683465 
L 921.491744 194.299961 
L 923.823528 193.590787 
L 926.155312 192.626695 
L 928.487096 191.427081 
L 931.207511 189.757867 
L 933.927926 187.83201 
L 937.036972 185.364405 
L 940.923279 181.963668 
L 945.586847 177.567617 
L 960.354814 163.397506 
L 964.629751 159.729769 
L 968.127427 157.000085 
L 971.625104 154.553907 
L 974.734149 152.639535 
L 977.843195 150.983447 
L 980.95224 149.592932 
L 984.061286 148.469985 
L 987.170332 147.611666 
L 990.279377 147.010524 
L 993.388423 146.655089 
L 996.497468 146.530407 
L 999.606514 146.6186 
L 1003.10419 146.947023 
L 1006.990497 147.5596 
L 1010.488173 148.297418 
L 1010.488173 148.297418 
" clip-path="url(#p533926b78d)" style="fill: none; stroke-dasharray: 9.6,2.4,1.5,2.4; stroke-dashoffset: 0; stroke: #0000ff; stroke-width: 1.5"/>
   </g>
   <g id="line2d_7">
    <path d="M 149.603593 190.515253 
L 166.483683 160.218244 
L 166.483683 179.980615 
L 183.363772 93.920247 
L 183.363772 152.147295 
L 200.243862 144.020796 
L 200.243862 186.446572 
L 217.123952 175.734751 
L 217.123952 175.92872 
L 234.004042 125.734924 
L 234.004042 171.523707 
L 250.884132 125.635303 
L 250.884132 205.795854 
L 267.764221 155.100799 
L 267.764221 181.301204 
L 284.644311 174.600775 
L 284.644311 176.677814 
L 301.524401 170.075207 
L 301.524401 173.876751 
L 318.404491 194.464599 
L 318.404491 151.316874 
L 335.284581 161.76486 
L 335.284581 188.334116 
L 352.164671 178.020465 
L 352.164671 122.640679 
L 369.04476 150.083065 
L 369.04476 120.28372 
L 385.92485 118.436073 
L 385.92485 152.815064 
L 402.80494 149.30912 
L 402.80494 116.948543 
L 419.68503 112.795494 
L 419.68503 129.121891 
L 436.56512 168.780561 
L 436.56512 238.268966 
L 453.445209 207.069717 
L 453.445209 184.374572 
L 470.325299 209.865105 
L 470.325299 153.202493 
L 487.205389 97.644309 
L 487.205389 159.007857 
L 504.085479 170.946249 
L 504.085479 157.212575 
L 520.965569 220.068061 
L 520.965569 177.066938 
L 537.845659 177.321674 
L 537.845659 203.485861 
L 554.725748 170.072551 
L 554.725748 198.077949 
L 571.605838 180.381035 
L 571.605838 152.035822 
L 588.485928 126.500871 
L 588.485928 132.231347 
L 605.366018 192.993977 
L 605.366018 142.54216 
L 622.246108 137.880082 
L 622.246108 123.943277 
L 639.126197 157.353978 
L 639.126197 166.598109 
L 656.006287 86.827934 
L 656.006287 113.891301 
L 672.886377 146.880908 
L 672.886377 166.908632 
L 689.766467 141.849683 
L 689.766467 150.103219 
L 706.646557 124.602223 
L 706.646557 158.527942 
L 723.526647 175.470209 
L 723.526647 201.719905 
L 740.406736 180.314158 
L 740.406736 191.448394 
L 757.286826 215.831193 
L 757.286826 213.428984 
L 774.166916 261.556364 
L 774.166916 230.732239 
L 791.047006 199.621506 
L 791.047006 178.238004 
L 807.927096 131.783375 
L 807.927096 78.283636 
L 824.807185 98.483074 
L 824.807185 141.42111 
L 841.687275 104.214328 
L 841.687275 166.538985 
L 858.567365 146.194208 
L 858.567365 94.297233 
L 875.447455 97.499045 
L 875.447455 182.217667 
L 892.327545 174.418634 
L 892.327545 161.545922 
L 909.207634 164.957328 
L 909.207634 242.59632 
L 926.087724 190.090797 
L 926.087724 229.918757 
L 942.967814 193.916417 
L 942.967814 135.457499 
L 959.847904 117.100576 
L 959.847904 152.437498 
L 976.727994 162.278346 
L 976.727994 166.945597 
L 993.608084 129.268911 
L 993.608084 124.070273 
L 1010.488173 209.125221 
" clip-path="url(#p533926b78d)" style="fill: none; stroke: #808080; stroke-width: 1.5; stroke-linecap: square"/>
    <defs>
     <path id="m75c6949ffb" d="M 0 4.242641 
L 2.545584 0 
L 0 -4.242641 
L -2.545584 0 
z
" style="stroke: #808080; stroke-linejoin: miter"/>
    </defs>
    <g clip-path="url(#p533926b78d)">
     <use xlink:href="#m75c6949ffb" x="149.603593" y="190.515253" style="fill: #808080; stroke: #808080; stroke-linejoin: miter"/>
     <use xlink:href="#m75c6949ffb" x="166.483683" y="160.218244" style="fill: #808080; stroke: #808080; stroke-linejoin: miter"/>
     <use xlink:href="#m75c6949ffb" x="166.483683" y="179.980615" style="fill: #808080; stroke: #808080; stroke-linejoin: miter"/>
     <use xlink:href="#m75c6949ffb" x="183.363772" y="93.920247" style="fill: #808080; stroke: #808080; stroke-linejoin: miter"/>
     <use xlink:href="#m75c6949ffb" x="183.363772" y="152.147295" style="fill: #808080; stroke: #808080; stroke-linejoin: miter"/>
     <use xlink:href="#m75c6949ffb" x="200.243862" y="144.020796" style="fill: #808080; stroke: #808080; stroke-linejoin: miter"/>
     <use xlink:href="#m75c6949ffb" x="200.243862" y="186.446572" style="fill: #808080; stroke: #808080; stroke-linejoin: miter"/>
     <use xlink:href="#m75c6949ffb" x="217.123952" y="175.734751" style="fill: #808080; stroke: #808080; stroke-linejoin: miter"/>
     <use xlink:href="#m75c6949ffb" x="217.123952" y="175.92872" style="fill: #808080; stroke: #808080; stroke-linejoin: miter"/>
     <use xlink:href="#m75c6949ffb" x="234.004042" y="125.734924" style="fill: #808080; stroke: #808080; stroke-linejoin: miter"/>
     <use xlink:href="#m75c6949ffb" x="234.004042" y="171.523707" style="fill: #808080; stroke: #808080; stroke-linejoin: miter"/>
     <use xlink:href="#m75c6949ffb" x="250.884132" y="125.635303" style="fill: #808080; stroke: #808080; stroke-linejoin: miter"/>
     <use xlink:href="#m75c6949ffb" x="250.884132" y="205.795854" style="fill: #808080; stroke: #808080; stroke-linejoin: miter"/>
     <use xlink:href="#m75c6949ffb" x="267.764221" y="155.100799" style="fill: #808080; stroke: #808080; stroke-linejoin: miter"/>
     <use xlink:href="#m75c6949ffb" x="267.764221" y="181.301204" style="fill: #808080; stroke: #808080; stroke-linejoin: miter"/>
     <use xlink:href="#m75c6949ffb" x="284.644311" y="174.600775" style="fill: #808080; stroke: #808080; stroke-linejoin: miter"/>
     <use xlink:href="#m75c6949ffb" x="284.644311" y="176.677814" style="fill: #808080; stroke: #808080; stroke-linejoin: miter"/>
     <use xlink:href="#m75c6949ffb" x="301.524401" y="170.075207" style="fill: #808080; stroke: #808080; stroke-linejoin: miter"/>
     <use xlink:href="#m75c6949ffb" x="301.524401" y="173.876751" style="fill: #808080; stroke: #808080; stroke-linejoin: miter"/>
     <use xlink:href="#m75c6949ffb" x="318.404491" y="194.464599" style="fill: #808080; stroke: #808080; stroke-linejoin: miter"/>
     <use xlink:href="#m75c6949ffb" x="318.404491" y="151.316874" style="fill: #808080; stroke: #808080; stroke-linejoin: miter"/>
     <use xlink:href="#m75c6949ffb" x="335.284581" y="161.76486" style="fill: #808080; stroke: #808080; stroke-linejoin: miter"/>
     <use xlink:href="#m75c6949ffb" x="335.284581" y="188.334116" style="fill: #808080; stroke: #808080; stroke-linejoin: miter"/>
     <use xlink:href="#m75c6949ffb" x="352.164671" y="178.020465" style="fill: #808080; stroke: #808080; stroke-linejoin: miter"/>
     <use xlink:href="#m75c6949ffb" x="352.164671" y="122.640679" style="fill: #808080; stroke: #808080; stroke-linejoin: miter"/>
     <use xlink:href="#m75c6949ffb" x="369.04476" y="150.083065" style="fill: #808080; stroke: #808080; stroke-linejoin: miter"/>
     <use xlink:href="#m75c6949ffb" x="369.04476" y="120.28372" style="fill: #808080; stroke: #808080; stroke-linejoin: miter"/>
     <use xlink:href="#m75c6949ffb" x="385.92485" y="118.436073" style="fill: #808080; stroke: #808080; stroke-linejoin: miter"/>
     <use xlink:href="#m75c6949ffb" x="385.92485" y="152.815064" style="fill: #808080; stroke: #808080; stroke-linejoin: miter"/>
     <use xlink:href="#m75c6949ffb" x="402.80494" y="149.30912" style="fill: #808080; stroke: #808080; stroke-linejoin: miter"/>
     <use xlink:href="#m75c6949ffb" x="402.80494" y="116.948543" style="fill: #808080; stroke: #808080; stroke-linejoin: miter"/>
     <use xlink:href="#m75c6949ffb" x="419.68503" y="112.795494" style="fill: #808080; stroke: #808080; stroke-linejoin: miter"/>
     <use xlink:href="#m75c6949ffb" x="419.68503" y="129.121891" style="fill: #808080; stroke: #808080; stroke-linejoin: miter"/>
     <use xlink:href="#m75c6949ffb" x="436.56512" y="168.780561" style="fill: #808080; stroke: #808080; stroke-linejoin: miter"/>
     <use xlink:href="#m75c6949ffb" x="436.56512" y="238.268966" style="fill: #808080; stroke: #808080; stroke-linejoin: miter"/>
     <use xlink:href="#m75c6949ffb" x="453.445209" y="207.069717" style="fill: #808080; stroke: #808080; stroke-linejoin: miter"/>
     <use xlink:href="#m75c6949ffb" x="453.445209" y="184.374572" style="fill: #808080; stroke: #808080; stroke-linejoin: miter"/>
     <use xlink:href="#m75c6949ffb" x="470.325299" y="209.865105" style="fill: #808080; stroke: #808080; stroke-linejoin: miter"/>
     <use xlink:href="#m75c6949ffb" x="470.325299" y="153.202493" style="fill: #808080; stroke: #808080; stroke-linejoin: miter"/>
     <use xlink:href="#m75c6949ffb" x="487.205389" y="97.644309" style="fill: #808080; stroke: #808080; stroke-linejoin: miter"/>
     <use xlink:href="#m75c6949ffb" x="487.205389" y="159.007857" style="fill: #808080; stroke: #808080; stroke-linejoin: miter"/>
     <use xlink:href="#m75c6949ffb" x="504.085479" y="170.946249" style="fill: #808080; stroke: #808080; stroke-linejoin: miter"/>
     <use xlink:href="#m75c6949ffb" x="504.085479" y="157.212575" style="fill: #808080; stroke: #808080; stroke-linejoin: miter"/>
     <use xlink:href="#m75c6949ffb" x="520.965569" y="220.068061" style="fill: #808080; stroke: #808080; stroke-linejoin: miter"/>
     <use xlink:href="#m75c6949ffb" x="520.965569" y="177.066938" style="fill: #808080; stroke: #808080; stroke-linejoin: miter"/>
     <use xlink:href="#m75c6949ffb" x="537.845659" y="177.321674" style="fill: #808080; stroke: #808080; stroke-linejoin: miter"/>
     <use xlink:href="#m75c6949ffb" x="537.845659" y="203.485861" style="fill: #808080; stroke: #808080; stroke-linejoin: miter"/>
     <use xlink:href="#m75c6949ffb" x="554.725748" y="170.072551" style="fill: #808080; stroke: #808080; stroke-linejoin: miter"/>
     <use xlink:href="#m75c6949ffb" x="554.725748" y="198.077949" style="fill: #808080; stroke: #808080; stroke-linejoin: miter"/>
     <use xlink:href="#m75c6949ffb" x="571.605838" y="180.381035" style="fill: #808080; stroke: #808080; stroke-linejoin: miter"/>
     <use xlink:href="#m75c6949ffb" x="571.605838" y="152.035822" style="fill: #808080; stroke: #808080; stroke-linejoin: miter"/>
     <use xlink:href="#m75c6949ffb" x="588.485928" y="126.500871" style="fill: #808080; stroke: #808080; stroke-linejoin: miter"/>
     <use xlink:href="#m75c6949ffb" x="588.485928" y="132.231347" style="fill: #808080; stroke: #808080; stroke-linejoin: miter"/>
     <use xlink:href="#m75c6949ffb" x="605.366018" y="192.993977" style="fill: #808080; stroke: #808080; stroke-linejoin: miter"/>
     <use xlink:href="#m75c6949ffb" x="605.366018" y="142.54216" style="fill: #808080; stroke: #808080; stroke-linejoin: miter"/>
     <use xlink:href="#m75c6949ffb" x="622.246108" y="137.880082" style="fill: #808080; stroke: #808080; stroke-linejoin: miter"/>
     <use xlink:href="#m75c6949ffb" x="622.246108" y="123.943277" style="fill: #808080; stroke: #808080; stroke-linejoin: miter"/>
     <use xlink:href="#m75c6949ffb" x="639.126197" y="157.353978" style="fill: #808080; stroke: #808080; stroke-linejoin: miter"/>
     <use xlink:href="#m75c6949ffb" x="639.126197" y="166.598109" style="fill: #808080; stroke: #808080; stroke-linejoin: miter"/>
     <use xlink:href="#m75c6949ffb" x="656.006287" y="86.827934" style="fill: #808080; stroke: #808080; stroke-linejoin: miter"/>
     <use xlink:href="#m75c6949ffb" x="656.006287" y="113.891301" style="fill: #808080; stroke: #808080; stroke-linejoin: miter"/>
     <use xlink:href="#m75c6949ffb" x="672.886377" y="146.880908" style="fill: #808080; stroke: #808080; stroke-linejoin: miter"/>
     <use xlink:href="#m75c6949ffb" x="672.886377" y="166.908632" style="fill: #808080; stroke: #808080; stroke-linejoin: miter"/>
     <use xlink:href="#m75c6949ffb" x="689.766467" y="141.849683" style="fill: #808080; stroke: #808080; stroke-linejoin: miter"/>
     <use xlink:href="#m75c6949ffb" x="689.766467" y="150.103219" style="fill: #808080; stroke: #808080; stroke-linejoin: miter"/>
     <use xlink:href="#m75c6949ffb" x="706.646557" y="124.602223" style="fill: #808080; stroke: #808080; stroke-linejoin: miter"/>
     <use xlink:href="#m75c6949ffb" x="706.646557" y="158.527942" style="fill: #808080; stroke: #808080; stroke-linejoin: miter"/>
     <use xlink:href="#m75c6949ffb" x="723.526647" y="175.470209" style="fill: #808080; stroke: #808080; stroke-linejoin: miter"/>
     <use xlink:href="#m75c6949ffb" x="723.526647" y="201.719905" style="fill: #808080; stroke: #808080; stroke-linejoin: miter"/>
     <use xlink:href="#m75c6949ffb" x="740.406736" y="180.314158" style="fill: #808080; stroke: #808080; stroke-linejoin: miter"/>
     <use xlink:href="#m75c6949ffb" x="740.406736" y="191.448394" style="fill: #808080; stroke: #808080; stroke-linejoin: miter"/>
     <use xlink:href="#m75c6949ffb" x="757.286826" y="215.831193" style="fill: #808080; stroke: #808080; stroke-linejoin: miter"/>
     <use xlink:href="#m75c6949ffb" x="757.286826" y="213.428984" style="fill: #808080; stroke: #808080; stroke-linejoin: miter"/>
     <use xlink:href="#m75c6949ffb" x="774.166916" y="261.556364" style="fill: #808080; stroke: #808080; stroke-linejoin: miter"/>
     <use xlink:href="#m75c6949ffb" x="774.166916" y="230.732239" style="fill: #808080; stroke: #808080; stroke-linejoin: miter"/>
     <use xlink:href="#m75c6949ffb" x="791.047006" y="199.621506" style="fill: #808080; stroke: #808080; stroke-linejoin: miter"/>
     <use xlink:href="#m75c6949ffb" x="791.047006" y="178.238004" style="fill: #808080; stroke: #808080; stroke-linejoin: miter"/>
     <use xlink:href="#m75c6949ffb" x="807.927096" y="131.783375" style="fill: #808080; stroke: #808080; stroke-linejoin: miter"/>
     <use xlink:href="#m75c6949ffb" x="807.927096" y="78.283636" style="fill: #808080; stroke: #808080; stroke-linejoin: miter"/>
     <use xlink:href="#m75c6949ffb" x="824.807185" y="98.483074" style="fill: #808080; stroke: #808080; stroke-linejoin: miter"/>
     <use xlink:href="#m75c6949ffb" x="824.807185" y="141.42111" style="fill: #808080; stroke: #808080; stroke-linejoin: miter"/>
     <use xlink:href="#m75c6949ffb" x="841.687275" y="104.214328" style="fill: #808080; stroke: #808080; stroke-linejoin: miter"/>
     <use xlink:href="#m75c6949ffb" x="841.687275" y="166.538985" style="fill: #808080; stroke: #808080; stroke-linejoin: miter"/>
     <use xlink:href="#m75c6949ffb" x="858.567365" y="146.194208" style="fill: #808080; stroke: #808080; stroke-linejoin: miter"/>
     <use xlink:href="#m75c6949ffb" x="858.567365" y="94.297233" style="fill: #808080; stroke: #808080; stroke-linejoin: miter"/>
     <use xlink:href="#m75c6949ffb" x="875.447455" y="97.499045" style="fill: #808080; stroke: #808080; stroke-linejoin: miter"/>
     <use xlink:href="#m75c6949ffb" x="875.447455" y="182.217667" style="fill: #808080; stroke: #808080; stroke-linejoin: miter"/>
     <use xlink:href="#m75c6949ffb" x="892.327545" y="174.418634" style="fill: #808080; stroke: #808080; stroke-linejoin: miter"/>
     <use xlink:href="#m75c6949ffb" x="892.327545" y="161.545922" style="fill: #808080; stroke: #808080; stroke-linejoin: miter"/>
     <use xlink:href="#m75c6949ffb" x="909.207634" y="164.957328" style="fill: #808080; stroke: #808080; stroke-linejoin: miter"/>
     <use xlink:href="#m75c6949ffb" x="909.207634" y="242.59632" style="fill: #808080; stroke: #808080; stroke-linejoin: miter"/>
     <use xlink:href="#m75c6949ffb" x="926.087724" y="190.090797" style="fill: #808080; stroke: #808080; stroke-linejoin: miter"/>
     <use xlink:href="#m75c6949ffb" x="926.087724" y="229.918757" style="fill: #808080; stroke: #808080; stroke-linejoin: miter"/>
     <use xlink:href="#m75c6949ffb" x="942.967814" y="193.916417" style="fill: #808080; stroke: #808080; stroke-linejoin: miter"/>
     <use xlink:href="#m75c6949ffb" x="942.967814" y="135.457499" style="fill: #808080; stroke: #808080; stroke-linejoin: miter"/>
     <use xlink:href="#m75c6949ffb" x="959.847904" y="117.100576" style="fill: #808080; stroke: #808080; stroke-linejoin: miter"/>
     <use xlink:href="#m75c6949ffb" x="959.847904" y="152.437498" style="fill: #808080; stroke: #808080; stroke-linejoin: miter"/>
     <use xlink:href="#m75c6949ffb" x="976.727994" y="162.278346" style="fill: #808080; stroke: #808080; stroke-linejoin: miter"/>
     <use xlink:href="#m75c6949ffb" x="976.727994" y="166.945597" style="fill: #808080; stroke: #808080; stroke-linejoin: miter"/>
     <use xlink:href="#m75c6949ffb" x="993.608084" y="129.268911" style="fill: #808080; stroke: #808080; stroke-linejoin: miter"/>
     <use xlink:href="#m75c6949ffb" x="993.608084" y="124.070273" style="fill: #808080; stroke: #808080; stroke-linejoin: miter"/>
     <use xlink:href="#m75c6949ffb" x="1010.488173" y="209.125221" style="fill: #808080; stroke: #808080; stroke-linejoin: miter"/>
    </g>
   </g>
   <g id="patch_3">
    <path d="M 144 270.72 
L 144 69.12 
" style="fill: none; stroke: #000000; stroke-width: 1.5; stroke-linejoin: miter; stroke-linecap: square"/>
   </g>
   <g id="patch_4">
    <path d="M 1036.8 270.72 
L 1036.8 69.12 
" style="fill: none; stroke: #000000; stroke-width: 1.5; stroke-linejoin: miter; stroke-linecap: square"/>
   </g>
   <g id="patch_5">
    <path d="M 144 270.72 
L 1036.8 270.72 
" style="fill: none; stroke: #000000; stroke-width: 1.5; stroke-linejoin: miter; stroke-linecap: square"/>
   </g>
   <g id="patch_6">
    <path d="M 144 69.12 
L 1036.8 69.12 
" style="fill: none; stroke: #000000; stroke-width: 1.5; stroke-linejoin: miter; stroke-linecap: square"/>
   </g>
   <g id="legend_1">
    <g id="patch_7">
     <path d="M 843.22 128.89 
L 1025.6 128.89 
Q 1028.8 128.89 1028.8 125.69 
L 1028.8 80.32 
Q 1028.8 77.12 1025.6 77.12 
L 843.22 77.12 
Q 840.02 77.12 840.02 80.32 
L 840.02 125.69 
Q 840.02 128.89 843.22 128.89 
z
" style="fill: #ffffff; opacity: 0.8; stroke: #cccccc; stroke-linejoin: miter"/>
    </g>
    <g id="line2d_8">
     <path d="M 846.42 90.0775 
L 862.42 90.0775 
L 878.42 90.0775 
" style="fill: none; stroke-dasharray: 9.6,2.4,1.5,2.4; stroke-dashoffset: 0; stroke: #0000ff; stroke-width: 1.5"/>
    </g>
    <g id="text_7">
     <!-- Unpumped Fit -->
     <g transform="translate(891.22 95.6775) scale(0.16 -0.16)">
      <defs>
       <path id="DejaVuSans-55" d="M 556 4666 
L 1191 4666 
L 1191 1831 
Q 1191 1081 1462 751 
Q 1734 422 2344 422 
Q 2950 422 3222 751 
Q 3494 1081 3494 1831 
L 3494 4666 
L 4128 4666 
L 4128 1753 
Q 4128 841 3676 375 
Q 3225 -91 2344 -91 
Q 1459 -91 1007 375 
Q 556 841 556 1753 
L 556 4666 
z
" transform="scale(0.015625)"/>
       <path id="DejaVuSans-6e" d="M 3513 2113 
L 3513 0 
L 2938 0 
L 2938 2094 
Q 2938 2591 2744 2837 
Q 2550 3084 2163 3084 
Q 1697 3084 1428 2787 
Q 1159 2491 1159 1978 
L 1159 0 
L 581 0 
L 581 3500 
L 1159 3500 
L 1159 2956 
Q 1366 3272 1645 3428 
Q 1925 3584 2291 3584 
Q 2894 3584 3203 3211 
Q 3513 2838 3513 2113 
z
" transform="scale(0.015625)"/>
       <path id="DejaVuSans-75" d="M 544 1381 
L 544 3500 
L 1119 3500 
L 1119 1403 
Q 1119 906 1312 657 
Q 1506 409 1894 409 
Q 2359 409 2629 706 
Q 2900 1003 2900 1516 
L 2900 3500 
L 3475 3500 
L 3475 0 
L 2900 0 
L 2900 538 
Q 2691 219 2414 64 
Q 2138 -91 1772 -91 
Q 1169 -91 856 284 
Q 544 659 544 1381 
z
M 1991 3584 
L 1991 3584 
z
" transform="scale(0.015625)"/>
       <path id="DejaVuSans-6d" d="M 3328 2828 
Q 3544 3216 3844 3400 
Q 4144 3584 4550 3584 
Q 5097 3584 5394 3201 
Q 5691 2819 5691 2113 
L 5691 0 
L 5113 0 
L 5113 2094 
Q 5113 2597 4934 2840 
Q 4756 3084 4391 3084 
Q 3944 3084 3684 2787 
Q 3425 2491 3425 1978 
L 3425 0 
L 2847 0 
L 2847 2094 
Q 2847 2600 2669 2842 
Q 2491 3084 2119 3084 
Q 1678 3084 1418 2786 
Q 1159 2488 1159 1978 
L 1159 0 
L 581 0 
L 581 3500 
L 1159 3500 
L 1159 2956 
Q 1356 3278 1631 3431 
Q 1906 3584 2284 3584 
Q 2666 3584 2933 3390 
Q 3200 3197 3328 2828 
z
" transform="scale(0.015625)"/>
       <path id="DejaVuSans-65" d="M 3597 1894 
L 3597 1613 
L 953 1613 
Q 991 1019 1311 708 
Q 1631 397 2203 397 
Q 2534 397 2845 478 
Q 3156 559 3463 722 
L 3463 178 
Q 3153 47 2828 -22 
Q 2503 -91 2169 -91 
Q 1331 -91 842 396 
Q 353 884 353 1716 
Q 353 2575 817 3079 
Q 1281 3584 2069 3584 
Q 2775 3584 3186 3129 
Q 3597 2675 3597 1894 
z
M 3022 2063 
Q 3016 2534 2758 2815 
Q 2500 3097 2075 3097 
Q 1594 3097 1305 2825 
Q 1016 2553 972 2059 
L 3022 2063 
z
" transform="scale(0.015625)"/>
       <path id="DejaVuSans-64" d="M 2906 2969 
L 2906 4863 
L 3481 4863 
L 3481 0 
L 2906 0 
L 2906 525 
Q 2725 213 2448 61 
Q 2172 -91 1784 -91 
Q 1150 -91 751 415 
Q 353 922 353 1747 
Q 353 2572 751 3078 
Q 1150 3584 1784 3584 
Q 2172 3584 2448 3432 
Q 2725 3281 2906 2969 
z
M 947 1747 
Q 947 1113 1208 752 
Q 1469 391 1925 391 
Q 2381 391 2643 752 
Q 2906 1113 2906 1747 
Q 2906 2381 2643 2742 
Q 2381 3103 1925 3103 
Q 1469 3103 1208 2742 
Q 947 2381 947 1747 
z
" transform="scale(0.015625)"/>
       <path id="DejaVuSans-46" d="M 628 4666 
L 3309 4666 
L 3309 4134 
L 1259 4134 
L 1259 2759 
L 3109 2759 
L 3109 2228 
L 1259 2228 
L 1259 0 
L 628 0 
L 628 4666 
z
" transform="scale(0.015625)"/>
       <path id="DejaVuSans-69" d="M 603 3500 
L 1178 3500 
L 1178 0 
L 603 0 
L 603 3500 
z
M 603 4863 
L 1178 4863 
L 1178 4134 
L 603 4134 
L 603 4863 
z
" transform="scale(0.015625)"/>
       <path id="DejaVuSans-74" d="M 1172 4494 
L 1172 3500 
L 2356 3500 
L 2356 3053 
L 1172 3053 
L 1172 1153 
Q 1172 725 1289 603 
Q 1406 481 1766 481 
L 2356 481 
L 2356 0 
L 1766 0 
Q 1100 0 847 248 
Q 594 497 594 1153 
L 594 3053 
L 172 3053 
L 172 3500 
L 594 3500 
L 594 4494 
L 1172 4494 
z
" transform="scale(0.015625)"/>
      </defs>
      <use xlink:href="#DejaVuSans-55"/>
      <use xlink:href="#DejaVuSans-6e" transform="translate(73.193359 0)"/>
      <use xlink:href="#DejaVuSans-70" transform="translate(136.572266 0)"/>
      <use xlink:href="#DejaVuSans-75" transform="translate(200.048828 0)"/>
      <use xlink:href="#DejaVuSans-6d" transform="translate(263.427734 0)"/>
      <use xlink:href="#DejaVuSans-70" transform="translate(360.839844 0)"/>
      <use xlink:href="#DejaVuSans-65" transform="translate(424.316406 0)"/>
      <use xlink:href="#DejaVuSans-64" transform="translate(485.839844 0)"/>
      <use xlink:href="#DejaVuSans-20" transform="translate(549.316406 0)"/>
      <use xlink:href="#DejaVuSans-46" transform="translate(581.103516 0)"/>
      <use xlink:href="#DejaVuSans-69" transform="translate(631.373047 0)"/>
      <use xlink:href="#DejaVuSans-74" transform="translate(659.15625 0)"/>
     </g>
    </g>
    <g id="line2d_9">
     <path d="M 846.42 113.5625 
L 862.42 113.5625 
L 878.42 113.5625 
" style="fill: none; stroke: #808080; stroke-width: 1.5; stroke-linecap: square"/>
     <g>
      <use xlink:href="#m75c6949ffb" x="862.42" y="113.5625" style="fill: #808080; stroke: #808080; stroke-linejoin: miter"/>
     </g>
    </g>
    <g id="text_8">
     <!-- Unpumped Data -->
     <g transform="translate(891.22 119.1625) scale(0.16 -0.16)">
      <defs>
       <path id="DejaVuSans-44" d="M 1259 4147 
L 1259 519 
L 2022 519 
Q 2988 519 3436 956 
Q 3884 1394 3884 2338 
Q 3884 3275 3436 3711 
Q 2988 4147 2022 4147 
L 1259 4147 
z
M 628 4666 
L 1925 4666 
Q 3281 4666 3915 4102 
Q 4550 3538 4550 2338 
Q 4550 1131 3912 565 
Q 3275 0 1925 0 
L 628 0 
L 628 4666 
z
" transform="scale(0.015625)"/>
       <path id="DejaVuSans-61" d="M 2194 1759 
Q 1497 1759 1228 1600 
Q 959 1441 959 1056 
Q 959 750 1161 570 
Q 1363 391 1709 391 
Q 2188 391 2477 730 
Q 2766 1069 2766 1631 
L 2766 1759 
L 2194 1759 
z
M 3341 1997 
L 3341 0 
L 2766 0 
L 2766 531 
Q 2569 213 2275 61 
Q 1981 -91 1556 -91 
Q 1019 -91 701 211 
Q 384 513 384 1019 
Q 384 1609 779 1909 
Q 1175 2209 1959 2209 
L 2766 2209 
L 2766 2266 
Q 2766 2663 2505 2880 
Q 2244 3097 1772 3097 
Q 1472 3097 1187 3025 
Q 903 2953 641 2809 
L 641 3341 
Q 956 3463 1253 3523 
Q 1550 3584 1831 3584 
Q 2591 3584 2966 3190 
Q 3341 2797 3341 1997 
z
" transform="scale(0.015625)"/>
      </defs>
      <use xlink:href="#DejaVuSans-55"/>
      <use xlink:href="#DejaVuSans-6e" transform="translate(73.193359 0)"/>
      <use xlink:href="#DejaVuSans-70" transform="translate(136.572266 0)"/>
      <use xlink:href="#DejaVuSans-75" transform="translate(200.048828 0)"/>
      <use xlink:href="#DejaVuSans-6d" transform="translate(263.427734 0)"/>
      <use xlink:href="#DejaVuSans-70" transform="translate(360.839844 0)"/>
      <use xlink:href="#DejaVuSans-65" transform="translate(424.316406 0)"/>
      <use xlink:href="#DejaVuSans-64" transform="translate(485.839844 0)"/>
      <use xlink:href="#DejaVuSans-20" transform="translate(549.316406 0)"/>
      <use xlink:href="#DejaVuSans-44" transform="translate(581.103516 0)"/>
      <use xlink:href="#DejaVuSans-61" transform="translate(658.105469 0)"/>
      <use xlink:href="#DejaVuSans-74" transform="translate(719.384766 0)"/>
      <use xlink:href="#DejaVuSans-61" transform="translate(758.59375 0)"/>
     </g>
    </g>
   </g>
  </g>
  <g id="axes_2">
   <g id="patch_8">
    <path d="M 144 512.64 
L 1036.8 512.64 
L 1036.8 311.04 
L 144 311.04 
z
" style="fill: #ffffff"/>
   </g>
   <g id="matplotlib.axis_3">
    <g id="xtick_1">
     <g id="line2d_10">
      <defs>
       <path id="m8c922cd8af" d="M 0 0 
L 0 3.5 
" style="stroke: #000000; stroke-width: 0.8"/>
      </defs>
      <g>
       <use xlink:href="#m8c922cd8af" x="218.4" y="512.64" style="stroke: #000000; stroke-width: 0.8"/>
      </g>
     </g>
     <g id="text_9">
      <!-- 0.5 -->
      <g transform="translate(207.267812 530.277812) scale(0.14 -0.14)">
       <defs>
        <path id="DejaVuSans-2e" d="M 684 794 
L 1344 794 
L 1344 0 
L 684 0 
L 684 794 
z
" transform="scale(0.015625)"/>
        <path id="DejaVuSans-35" d="M 691 4666 
L 3169 4666 
L 3169 4134 
L 1269 4134 
L 1269 2991 
Q 1406 3038 1543 3061 
Q 1681 3084 1819 3084 
Q 2600 3084 3056 2656 
Q 3513 2228 3513 1497 
Q 3513 744 3044 326 
Q 2575 -91 1722 -91 
Q 1428 -91 1123 -41 
Q 819 9 494 109 
L 494 744 
Q 775 591 1075 516 
Q 1375 441 1709 441 
Q 2250 441 2565 725 
Q 2881 1009 2881 1497 
Q 2881 1984 2565 2268 
Q 2250 2553 1709 2553 
Q 1456 2553 1204 2497 
Q 953 2441 691 2322 
L 691 4666 
z
" transform="scale(0.015625)"/>
       </defs>
       <use xlink:href="#DejaVuSans-30"/>
       <use xlink:href="#DejaVuSans-2e" transform="translate(63.623047 0)"/>
       <use xlink:href="#DejaVuSans-35" transform="translate(95.410156 0)"/>
      </g>
     </g>
    </g>
    <g id="xtick_2">
     <g id="line2d_11">
      <g>
       <use xlink:href="#m8c922cd8af" x="367.2" y="512.64" style="stroke: #000000; stroke-width: 0.8"/>
      </g>
     </g>
     <g id="text_10">
      <!-- 0.6 -->
      <g transform="translate(356.067813 530.277812) scale(0.14 -0.14)">
       <defs>
        <path id="DejaVuSans-36" d="M 2113 2584 
Q 1688 2584 1439 2293 
Q 1191 2003 1191 1497 
Q 1191 994 1439 701 
Q 1688 409 2113 409 
Q 2538 409 2786 701 
Q 3034 994 3034 1497 
Q 3034 2003 2786 2293 
Q 2538 2584 2113 2584 
z
M 3366 4563 
L 3366 3988 
Q 3128 4100 2886 4159 
Q 2644 4219 2406 4219 
Q 1781 4219 1451 3797 
Q 1122 3375 1075 2522 
Q 1259 2794 1537 2939 
Q 1816 3084 2150 3084 
Q 2853 3084 3261 2657 
Q 3669 2231 3669 1497 
Q 3669 778 3244 343 
Q 2819 -91 2113 -91 
Q 1303 -91 875 529 
Q 447 1150 447 2328 
Q 447 3434 972 4092 
Q 1497 4750 2381 4750 
Q 2619 4750 2861 4703 
Q 3103 4656 3366 4563 
z
" transform="scale(0.015625)"/>
       </defs>
       <use xlink:href="#DejaVuSans-30"/>
       <use xlink:href="#DejaVuSans-2e" transform="translate(63.623047 0)"/>
       <use xlink:href="#DejaVuSans-36" transform="translate(95.410156 0)"/>
      </g>
     </g>
    </g>
    <g id="xtick_3">
     <g id="line2d_12">
      <g>
       <use xlink:href="#m8c922cd8af" x="516" y="512.64" style="stroke: #000000; stroke-width: 0.8"/>
      </g>
     </g>
     <g id="text_11">
      <!-- 0.7 -->
      <g transform="translate(504.867813 530.277812) scale(0.14 -0.14)">
       <defs>
        <path id="DejaVuSans-37" d="M 525 4666 
L 3525 4666 
L 3525 4397 
L 1831 0 
L 1172 0 
L 2766 4134 
L 525 4134 
L 525 4666 
z
" transform="scale(0.015625)"/>
       </defs>
       <use xlink:href="#DejaVuSans-30"/>
       <use xlink:href="#DejaVuSans-2e" transform="translate(63.623047 0)"/>
       <use xlink:href="#DejaVuSans-37" transform="translate(95.410156 0)"/>
      </g>
     </g>
    </g>
    <g id="xtick_4">
     <g id="line2d_13">
      <g>
       <use xlink:href="#m8c922cd8af" x="664.8" y="512.64" style="stroke: #000000; stroke-width: 0.8"/>
      </g>
     </g>
     <g id="text_12">
      <!-- 0.8 -->
      <g transform="translate(653.667812 530.277812) scale(0.14 -0.14)">
       <defs>
        <path id="DejaVuSans-38" d="M 2034 2216 
Q 1584 2216 1326 1975 
Q 1069 1734 1069 1313 
Q 1069 891 1326 650 
Q 1584 409 2034 409 
Q 2484 409 2743 651 
Q 3003 894 3003 1313 
Q 3003 1734 2745 1975 
Q 2488 2216 2034 2216 
z
M 1403 2484 
Q 997 2584 770 2862 
Q 544 3141 544 3541 
Q 544 4100 942 4425 
Q 1341 4750 2034 4750 
Q 2731 4750 3128 4425 
Q 3525 4100 3525 3541 
Q 3525 3141 3298 2862 
Q 3072 2584 2669 2484 
Q 3125 2378 3379 2068 
Q 3634 1759 3634 1313 
Q 3634 634 3220 271 
Q 2806 -91 2034 -91 
Q 1263 -91 848 271 
Q 434 634 434 1313 
Q 434 1759 690 2068 
Q 947 2378 1403 2484 
z
M 1172 3481 
Q 1172 3119 1398 2916 
Q 1625 2713 2034 2713 
Q 2441 2713 2670 2916 
Q 2900 3119 2900 3481 
Q 2900 3844 2670 4047 
Q 2441 4250 2034 4250 
Q 1625 4250 1398 4047 
Q 1172 3844 1172 3481 
z
" transform="scale(0.015625)"/>
       </defs>
       <use xlink:href="#DejaVuSans-30"/>
       <use xlink:href="#DejaVuSans-2e" transform="translate(63.623047 0)"/>
       <use xlink:href="#DejaVuSans-38" transform="translate(95.410156 0)"/>
      </g>
     </g>
    </g>
    <g id="xtick_5">
     <g id="line2d_14">
      <g>
       <use xlink:href="#m8c922cd8af" x="813.6" y="512.64" style="stroke: #000000; stroke-width: 0.8"/>
      </g>
     </g>
     <g id="text_13">
      <!-- 0.9 -->
      <g transform="translate(802.467812 530.277812) scale(0.14 -0.14)">
       <defs>
        <path id="DejaVuSans-39" d="M 703 97 
L 703 672 
Q 941 559 1184 500 
Q 1428 441 1663 441 
Q 2288 441 2617 861 
Q 2947 1281 2994 2138 
Q 2813 1869 2534 1725 
Q 2256 1581 1919 1581 
Q 1219 1581 811 2004 
Q 403 2428 403 3163 
Q 403 3881 828 4315 
Q 1253 4750 1959 4750 
Q 2769 4750 3195 4129 
Q 3622 3509 3622 2328 
Q 3622 1225 3098 567 
Q 2575 -91 1691 -91 
Q 1453 -91 1209 -44 
Q 966 3 703 97 
z
M 1959 2075 
Q 2384 2075 2632 2365 
Q 2881 2656 2881 3163 
Q 2881 3666 2632 3958 
Q 2384 4250 1959 4250 
Q 1534 4250 1286 3958 
Q 1038 3666 1038 3163 
Q 1038 2656 1286 2365 
Q 1534 2075 1959 2075 
z
" transform="scale(0.015625)"/>
       </defs>
       <use xlink:href="#DejaVuSans-30"/>
       <use xlink:href="#DejaVuSans-2e" transform="translate(63.623047 0)"/>
       <use xlink:href="#DejaVuSans-39" transform="translate(95.410156 0)"/>
      </g>
     </g>
    </g>
    <g id="xtick_6">
     <g id="line2d_15">
      <g>
       <use xlink:href="#m8c922cd8af" x="962.4" y="512.64" style="stroke: #000000; stroke-width: 0.8"/>
      </g>
     </g>
     <g id="text_14">
      <!-- 1.0 -->
      <g transform="translate(951.267812 530.277812) scale(0.14 -0.14)">
       <use xlink:href="#DejaVuSans-31"/>
       <use xlink:href="#DejaVuSans-2e" transform="translate(63.623047 0)"/>
       <use xlink:href="#DejaVuSans-30" transform="translate(95.410156 0)"/>
      </g>
     </g>
    </g>
    <g id="text_15">
     <!-- Wedge insertion (mm) -->
     <g transform="translate(489.88125 550.866562) scale(0.18 -0.18)">
      <defs>
       <path id="DejaVuSans-57" d="M 213 4666 
L 850 4666 
L 1831 722 
L 2809 4666 
L 3519 4666 
L 4500 722 
L 5478 4666 
L 6119 4666 
L 4947 0 
L 4153 0 
L 3169 4050 
L 2175 0 
L 1381 0 
L 213 4666 
z
" transform="scale(0.015625)"/>
       <path id="DejaVuSans-67" d="M 2906 1791 
Q 2906 2416 2648 2759 
Q 2391 3103 1925 3103 
Q 1463 3103 1205 2759 
Q 947 2416 947 1791 
Q 947 1169 1205 825 
Q 1463 481 1925 481 
Q 2391 481 2648 825 
Q 2906 1169 2906 1791 
z
M 3481 434 
Q 3481 -459 3084 -895 
Q 2688 -1331 1869 -1331 
Q 1566 -1331 1297 -1286 
Q 1028 -1241 775 -1147 
L 775 -588 
Q 1028 -725 1275 -790 
Q 1522 -856 1778 -856 
Q 2344 -856 2625 -561 
Q 2906 -266 2906 331 
L 2906 616 
Q 2728 306 2450 153 
Q 2172 0 1784 0 
Q 1141 0 747 490 
Q 353 981 353 1791 
Q 353 2603 747 3093 
Q 1141 3584 1784 3584 
Q 2172 3584 2450 3431 
Q 2728 3278 2906 2969 
L 2906 3500 
L 3481 3500 
L 3481 434 
z
" transform="scale(0.015625)"/>
       <path id="DejaVuSans-73" d="M 2834 3397 
L 2834 2853 
Q 2591 2978 2328 3040 
Q 2066 3103 1784 3103 
Q 1356 3103 1142 2972 
Q 928 2841 928 2578 
Q 928 2378 1081 2264 
Q 1234 2150 1697 2047 
L 1894 2003 
Q 2506 1872 2764 1633 
Q 3022 1394 3022 966 
Q 3022 478 2636 193 
Q 2250 -91 1575 -91 
Q 1294 -91 989 -36 
Q 684 19 347 128 
L 347 722 
Q 666 556 975 473 
Q 1284 391 1588 391 
Q 1994 391 2212 530 
Q 2431 669 2431 922 
Q 2431 1156 2273 1281 
Q 2116 1406 1581 1522 
L 1381 1569 
Q 847 1681 609 1914 
Q 372 2147 372 2553 
Q 372 3047 722 3315 
Q 1072 3584 1716 3584 
Q 2034 3584 2315 3537 
Q 2597 3491 2834 3397 
z
" transform="scale(0.015625)"/>
       <path id="DejaVuSans-72" d="M 2631 2963 
Q 2534 3019 2420 3045 
Q 2306 3072 2169 3072 
Q 1681 3072 1420 2755 
Q 1159 2438 1159 1844 
L 1159 0 
L 581 0 
L 581 3500 
L 1159 3500 
L 1159 2956 
Q 1341 3275 1631 3429 
Q 1922 3584 2338 3584 
Q 2397 3584 2469 3576 
Q 2541 3569 2628 3553 
L 2631 2963 
z
" transform="scale(0.015625)"/>
       <path id="DejaVuSans-6f" d="M 1959 3097 
Q 1497 3097 1228 2736 
Q 959 2375 959 1747 
Q 959 1119 1226 758 
Q 1494 397 1959 397 
Q 2419 397 2687 759 
Q 2956 1122 2956 1747 
Q 2956 2369 2687 2733 
Q 2419 3097 1959 3097 
z
M 1959 3584 
Q 2709 3584 3137 3096 
Q 3566 2609 3566 1747 
Q 3566 888 3137 398 
Q 2709 -91 1959 -91 
Q 1206 -91 779 398 
Q 353 888 353 1747 
Q 353 2609 779 3096 
Q 1206 3584 1959 3584 
z
" transform="scale(0.015625)"/>
      </defs>
      <use xlink:href="#DejaVuSans-57"/>
      <use xlink:href="#DejaVuSans-65" transform="translate(93.001953 0)"/>
      <use xlink:href="#DejaVuSans-64" transform="translate(154.525391 0)"/>
      <use xlink:href="#DejaVuSans-67" transform="translate(218.001953 0)"/>
      <use xlink:href="#DejaVuSans-65" transform="translate(281.478516 0)"/>
      <use xlink:href="#DejaVuSans-20" transform="translate(343.001953 0)"/>
      <use xlink:href="#DejaVuSans-69" transform="translate(374.789062 0)"/>
      <use xlink:href="#DejaVuSans-6e" transform="translate(402.572266 0)"/>
      <use xlink:href="#DejaVuSans-73" transform="translate(465.951172 0)"/>
      <use xlink:href="#DejaVuSans-65" transform="translate(518.050781 0)"/>
      <use xlink:href="#DejaVuSans-72" transform="translate(579.574219 0)"/>
      <use xlink:href="#DejaVuSans-74" transform="translate(620.6875 0)"/>
      <use xlink:href="#DejaVuSans-69" transform="translate(659.896484 0)"/>
      <use xlink:href="#DejaVuSans-6f" transform="translate(687.679688 0)"/>
      <use xlink:href="#DejaVuSans-6e" transform="translate(748.861328 0)"/>
      <use xlink:href="#DejaVuSans-20" transform="translate(812.240234 0)"/>
      <use xlink:href="#DejaVuSans-28" transform="translate(844.027344 0)"/>
      <use xlink:href="#DejaVuSans-6d" transform="translate(883.041016 0)"/>
      <use xlink:href="#DejaVuSans-6d" transform="translate(980.453125 0)"/>
      <use xlink:href="#DejaVuSans-29" transform="translate(1077.865234 0)"/>
     </g>
    </g>
   </g>
   <g id="matplotlib.axis_4">
    <g id="ytick_6">
     <g id="line2d_16">
      <g>
       <use xlink:href="#m58744ab5a3" x="144" y="505.040136" style="stroke: #000000; stroke-width: 0.8"/>
      </g>
     </g>
     <g id="text_16">
      <!-- −3 -->
      <g transform="translate(119.860938 510.359043) scale(0.14 -0.14)">
       <defs>
        <path id="DejaVuSans-33" d="M 2597 2516 
Q 3050 2419 3304 2112 
Q 3559 1806 3559 1356 
Q 3559 666 3084 287 
Q 2609 -91 1734 -91 
Q 1441 -91 1130 -33 
Q 819 25 488 141 
L 488 750 
Q 750 597 1062 519 
Q 1375 441 1716 441 
Q 2309 441 2620 675 
Q 2931 909 2931 1356 
Q 2931 1769 2642 2001 
Q 2353 2234 1838 2234 
L 1294 2234 
L 1294 2753 
L 1863 2753 
Q 2328 2753 2575 2939 
Q 2822 3125 2822 3475 
Q 2822 3834 2567 4026 
Q 2313 4219 1838 4219 
Q 1578 4219 1281 4162 
Q 984 4106 628 3988 
L 628 4550 
Q 988 4650 1302 4700 
Q 1616 4750 1894 4750 
Q 2613 4750 3031 4423 
Q 3450 4097 3450 3541 
Q 3450 3153 3228 2886 
Q 3006 2619 2597 2516 
z
" transform="scale(0.015625)"/>
       </defs>
       <use xlink:href="#DejaVuSans-2212"/>
       <use xlink:href="#DejaVuSans-33" transform="translate(83.789062 0)"/>
      </g>
     </g>
    </g>
    <g id="ytick_7">
     <g id="line2d_17">
      <g>
       <use xlink:href="#m58744ab5a3" x="144" y="474.641005" style="stroke: #000000; stroke-width: 0.8"/>
      </g>
     </g>
     <g id="text_17">
      <!-- −2 -->
      <g transform="translate(119.860938 479.959912) scale(0.14 -0.14)">
       <use xlink:href="#DejaVuSans-2212"/>
       <use xlink:href="#DejaVuSans-32" transform="translate(83.789062 0)"/>
      </g>
     </g>
    </g>
    <g id="ytick_8">
     <g id="line2d_18">
      <g>
       <use xlink:href="#m58744ab5a3" x="144" y="444.241875" style="stroke: #000000; stroke-width: 0.8"/>
      </g>
     </g>
     <g id="text_18">
      <!-- −1 -->
      <g transform="translate(119.860938 449.560781) scale(0.14 -0.14)">
       <use xlink:href="#DejaVuSans-2212"/>
       <use xlink:href="#DejaVuSans-31" transform="translate(83.789062 0)"/>
      </g>
     </g>
    </g>
    <g id="ytick_9">
     <g id="line2d_19">
      <g>
       <use xlink:href="#m58744ab5a3" x="144" y="413.842744" style="stroke: #000000; stroke-width: 0.8"/>
      </g>
     </g>
     <g id="text_19">
      <!-- 0 -->
      <g transform="translate(131.5925 419.16165) scale(0.14 -0.14)">
       <use xlink:href="#DejaVuSans-30"/>
      </g>
     </g>
    </g>
    <g id="ytick_10">
     <g id="line2d_20">
      <g>
       <use xlink:href="#m58744ab5a3" x="144" y="383.443613" style="stroke: #000000; stroke-width: 0.8"/>
      </g>
     </g>
     <g id="text_20">
      <!-- 1 -->
      <g transform="translate(131.5925 388.762519) scale(0.14 -0.14)">
       <use xlink:href="#DejaVuSans-31"/>
      </g>
     </g>
    </g>
    <g id="ytick_11">
     <g id="line2d_21">
      <g>
       <use xlink:href="#m58744ab5a3" x="144" y="353.044482" style="stroke: #000000; stroke-width: 0.8"/>
      </g>
     </g>
     <g id="text_21">
      <!-- 2 -->
      <g transform="translate(131.5925 358.363388) scale(0.14 -0.14)">
       <use xlink:href="#DejaVuSans-32"/>
      </g>
     </g>
    </g>
    <g id="ytick_12">
     <g id="line2d_22">
      <g>
       <use xlink:href="#m58744ab5a3" x="144" y="322.645351" style="stroke: #000000; stroke-width: 0.8"/>
      </g>
     </g>
     <g id="text_22">
      <!-- 3 -->
      <g transform="translate(131.5925 327.964257) scale(0.14 -0.14)">
       <use xlink:href="#DejaVuSans-33"/>
      </g>
     </g>
    </g>
    <g id="text_23">
     <!-- $ j_{CEP} $ (pA) -->
     <g transform="translate(112.080938 448.56) rotate(-90) scale(0.18 -0.18)">
      <use xlink:href="#DejaVuSans-Oblique-6a" transform="translate(0 0.015625)"/>
      <use xlink:href="#DejaVuSans-Oblique-43" transform="translate(27.783203 -16.390625) scale(0.7)"/>
      <use xlink:href="#DejaVuSans-Oblique-45" transform="translate(76.660156 -16.390625) scale(0.7)"/>
      <use xlink:href="#DejaVuSans-Oblique-50" transform="translate(120.888672 -16.390625) scale(0.7)"/>
      <use xlink:href="#DejaVuSans-20" transform="translate(165.834961 0.015625)"/>
      <use xlink:href="#DejaVuSans-28" transform="translate(197.62207 0.015625)"/>
      <use xlink:href="#DejaVuSans-70" transform="translate(236.635742 0.015625)"/>
      <use xlink:href="#DejaVuSans-41" transform="translate(300.112305 0.015625)"/>
      <use xlink:href="#DejaVuSans-29" transform="translate(368.520508 0.015625)"/>
     </g>
    </g>
   </g>
   <g id="line2d_23">
    <path d="M 144 408.021717 
L 151.14955 413.87039 
L 160.98018 421.909775 
L 166.342342 425.972277 
L 170.810811 429.039149 
L 174.385586 431.225675 
L 177.96036 433.134636 
L 181.535135 434.733595 
L 184.216216 435.712685 
L 186.897297 436.492317 
L 189.578378 437.064774 
L 192.259459 437.424248 
L 194.940541 437.566899 
L 197.621622 437.4909 
L 200.302703 437.196451 
L 202.983784 436.685787 
L 205.664865 435.963162 
L 208.345946 435.034809 
L 211.027027 433.908894 
L 214.601802 432.117934 
L 218.176577 430.022372 
L 221.751351 427.655934 
L 226.21982 424.375719 
L 230.688288 420.815765 
L 236.944144 415.535997 
L 248.562162 405.660175 
L 253.030631 402.132268 
L 257.499099 398.898383 
L 261.073874 396.580183 
L 264.648649 394.543635 
L 268.223423 392.823297 
L 270.904505 391.758471 
L 273.585586 390.898544 
L 276.266667 390.251994 
L 278.947748 389.825331 
L 281.628829 389.623035 
L 284.30991 389.647505 
L 286.990991 389.899039 
L 289.672072 390.375819 
L 292.353153 391.073929 
L 295.034234 391.987381 
L 297.715315 393.108171 
L 300.396396 394.426347 
L 303.971171 396.470287 
L 307.545946 398.811136 
L 311.120721 401.411084 
L 315.589189 404.960705 
L 320.951351 409.539422 
L 338.825225 425.17041 
L 343.293694 428.643339 
L 346.868468 431.163682 
L 350.443243 433.408488 
L 354.018018 435.339776 
L 356.699099 436.562489 
L 359.38018 437.578389 
L 362.061261 438.377545 
L 364.742342 438.952018 
L 367.423423 439.295945 
L 370.104505 439.405592 
L 372.785586 439.279399 
L 375.466667 438.917997 
L 378.147748 438.324207 
L 380.828829 437.503021 
L 383.50991 436.461556 
L 386.190991 435.209 
L 388.872072 433.756522 
L 392.446847 431.531722 
L 396.021622 429.010708 
L 399.596396 426.234273 
L 404.064865 422.473673 
L 409.427027 417.663114 
L 424.61982 403.791441 
L 429.088288 400.077322 
L 432.663063 397.351087 
L 436.237838 394.892524 
L 439.812613 392.743126 
L 442.493694 391.356133 
L 445.174775 390.177051 
L 447.855856 389.217332 
L 450.536937 388.486414 
L 453.218018 387.991625 
L 455.899099 387.738115 
L 458.58018 387.728798 
L 461.261261 387.964322 
L 463.942342 388.443058 
L 466.623423 389.161111 
L 469.304505 390.112348 
L 471.985586 391.288451 
L 474.666667 392.678993 
L 477.347748 394.271524 
L 480.922523 396.68403 
L 484.497297 399.391013 
L 488.965766 403.121587 
L 493.434234 407.148524 
L 500.583784 413.949093 
L 510.414414 423.285046 
L 514.882883 427.24153 
L 518.457658 430.176723 
L 522.032432 432.853949 
L 525.607207 435.228132 
L 528.288288 436.785509 
L 530.969369 438.134756 
L 533.65045 439.262839 
L 536.331532 440.15875 
L 539.012613 440.813618 
L 541.693694 441.220793 
L 544.374775 441.375918 
L 547.055856 441.27697 
L 549.736937 440.924287 
L 552.418018 440.320568 
L 555.099099 439.470856 
L 557.78018 438.382495 
L 560.461261 437.065066 
L 563.142342 435.530304 
L 566.717117 433.169989 
L 570.291892 430.485972 
L 573.866667 427.521663 
L 578.335135 423.495903 
L 583.697297 418.331671 
L 599.783784 402.531169 
L 604.252252 398.565696 
L 607.827027 395.665556 
L 611.401802 393.060469 
L 614.976577 390.794431 
L 617.657658 389.340802 
L 620.338739 388.113699 
L 623.01982 387.125062 
L 625.700901 386.384639 
L 628.381982 385.899891 
L 631.063063 385.675914 
L 633.744144 385.715391 
L 636.425225 386.018559 
L 639.106306 386.583201 
L 641.787387 387.404659 
L 644.468468 388.475878 
L 647.14955 389.787459 
L 649.830631 391.327747 
L 652.511712 393.08293 
L 656.086486 395.729797 
L 659.661261 398.68761 
L 663.236036 401.908393 
L 667.704505 406.223868 
L 673.96036 412.606502 
L 684.684685 423.614413 
L 689.153153 427.902962 
L 692.727928 431.092777 
L 696.302703 434.010218 
L 699.877477 436.606191 
L 702.558559 438.31557 
L 705.23964 439.802914 
L 707.920721 441.053874 
L 710.601802 442.056266 
L 713.282883 442.800191 
L 715.963964 443.278135 
L 718.645045 443.48504 
L 721.326126 443.418362 
L 724.007207 443.078094 
L 726.688288 442.466779 
L 729.369369 441.589485 
L 732.05045 440.45377 
L 734.731532 439.069611 
L 737.412613 437.449325 
L 740.093694 435.60745 
L 743.668468 432.835961 
L 747.243243 429.745073 
L 750.818018 426.38494 
L 755.286486 421.889946 
L 761.542342 415.254329 
L 772.266667 403.842032 
L 776.735135 399.40789 
L 780.30991 396.115302 
L 783.884685 393.109163 
L 787.459459 390.440074 
L 790.140541 388.68685 
L 792.821622 387.165566 
L 795.502703 385.890909 
L 798.183784 384.875307 
L 800.864865 384.128802 
L 803.545946 383.658958 
L 806.227027 383.470779 
L 808.908108 383.566659 
L 811.589189 383.946354 
L 814.27027 384.60698 
L 816.951351 385.543027 
L 819.632432 386.746414 
L 822.313514 388.20655 
L 824.994595 389.910432 
L 827.675676 391.842759 
L 831.25045 394.744078 
L 834.825225 397.973391 
L 838.4 401.478276 
L 842.868468 406.159485 
L 849.124324 413.057036 
L 858.954955 423.93458 
L 863.423423 428.580653 
L 866.998198 432.04525 
L 870.572973 435.222517 
L 874.147748 438.059022 
L 876.828829 439.933696 
L 879.50991 441.57164 
L 882.190991 442.95707 
L 884.872072 444.076515 
L 887.553153 444.918951 
L 890.234234 445.475906 
L 892.915315 445.741546 
L 895.596396 445.712735 
L 898.277477 445.38907 
L 900.958559 444.77289 
L 903.63964 443.869266 
L 906.320721 442.685951 
L 909.001802 441.233323 
L 911.682883 439.524285 
L 914.363964 437.574162 
L 917.045045 435.400553 
L 920.61982 432.189132 
L 924.194595 428.66771 
L 928.663063 423.91773 
L 934.025225 417.868251 
L 948.324324 401.53101 
L 952.792793 396.863975 
L 956.367568 393.431559 
L 959.942342 390.329599 
L 962.623423 388.251685 
L 965.304505 386.409036 
L 967.985586 384.819337 
L 970.666667 383.497957 
L 973.347748 382.457807 
L 976.028829 381.709205 
L 978.70991 381.259782 
L 981.390991 381.114403 
L 984.072072 381.27511 
L 986.753153 381.741105 
L 989.434234 382.508744 
L 992.115315 383.57157 
L 994.796396 384.920362 
L 997.477477 386.543216 
L 1000.158559 388.425653 
L 1002.83964 390.550742 
L 1006.414414 393.728114 
L 1009.989189 397.251086 
L 1013.563964 401.062429 
L 1018.032432 406.137024 
L 1025.181982 414.664564 
L 1033.225225 424.242256 
L 1036.8 428.292788 
L 1036.8 428.292788 
" clip-path="url(#pfcaf2db48a)" style="fill: none; stroke-dasharray: 9.6,2.4,1.5,2.4; stroke-dashoffset: 0; stroke: #0000ff; stroke-width: 1.5"/>
   </g>
   <g id="line2d_24">
    <path d="M 149.603593 369.569458 
L 166.483683 405.172197 
L 166.483683 418.036547 
L 183.363772 430.487257 
L 183.363772 485.224878 
L 200.243862 459.401572 
L 200.243862 414.890907 
L 217.123952 418.769833 
L 217.123952 416.836166 
L 234.004042 362.004966 
L 234.004042 393.630999 
L 250.884132 382.12528 
L 250.884132 428.717834 
L 267.764221 394.073507 
L 267.764221 418.229741 
L 284.644311 402.780496 
L 284.644311 370.704057 
L 301.524401 391.525634 
L 301.524401 397.68672 
L 318.404491 400.554766 
L 318.404491 402.026748 
L 335.284581 437.900061 
L 335.284581 414.719172 
L 352.164671 458.031033 
L 352.164671 439.898979 
L 369.04476 447.641635 
L 369.04476 473.660846 
L 385.92485 455.323997 
L 385.92485 437.397274 
L 402.80494 389.12362 
L 402.80494 442.896878 
L 419.68503 404.301297 
L 419.68503 408.499891 
L 436.56512 388.766329 
L 436.56512 386.164961 
L 453.445209 410.621488 
L 453.445209 388.010032 
L 470.325299 390.448693 
L 470.325299 383.267121 
L 487.205389 408.235696 
L 487.205389 397.083425 
L 504.085479 418.509118 
L 504.085479 383.71016 
L 520.965569 390.219538 
L 520.965569 413.384961 
L 537.845659 447.037128 
L 537.845659 447.392019 
L 554.725748 442.206762 
L 554.725748 431.277167 
L 571.605838 399.275123 
L 571.605838 411.846929 
L 588.485928 422.664703 
L 588.485928 415.77093 
L 605.366018 396.97774 
L 605.366018 420.946713 
L 622.246108 392.935575 
L 622.246108 397.000504 
L 639.126197 399.369061 
L 639.126197 413.603763 
L 656.006287 410.885838 
L 656.006287 408.620369 
L 672.886377 391.816079 
L 672.886377 391.341236 
L 689.766467 418.499606 
L 689.766467 461.157213 
L 706.646557 457.232298 
L 706.646557 470.738218 
L 723.526647 423.764167 
L 723.526647 438.702361 
L 740.406736 463.954192 
L 740.406736 446.849403 
L 757.286826 411.016248 
L 757.286826 373.952651 
L 774.166916 405.32806 
L 774.166916 397.762547 
L 791.047006 405.211571 
L 791.047006 387.530986 
L 807.927096 388.715889 
L 807.927096 370.494691 
L 824.807185 320.203636 
L 824.807185 393.164043 
L 841.687275 364.404245 
L 841.687275 416.09275 
L 858.567365 430.600425 
L 858.567365 437.637717 
L 875.447455 449.69082 
L 875.447455 438.772262 
L 892.327545 420.541263 
L 892.327545 446.158873 
L 909.207634 415.184203 
L 909.207634 426.728728 
L 926.087724 453.604491 
L 926.087724 468.471632 
L 942.967814 454.539065 
L 942.967814 432.42672 
L 959.847904 402.373728 
L 959.847904 378.433479 
L 976.727994 326.582142 
L 976.727994 352.242731 
L 993.608084 369.332319 
L 993.608084 419.154715 
L 1010.488173 503.476364 
" clip-path="url(#pfcaf2db48a)" style="fill: none; stroke: #808080; stroke-width: 1.5; stroke-linecap: square"/>
    <defs>
     <path id="m7442e43fb9" d="M 0 3 
C 0.795609 3 1.55874 2.683901 2.12132 2.12132 
C 2.683901 1.55874 3 0.795609 3 0 
C 3 -0.795609 2.683901 -1.55874 2.12132 -2.12132 
C 1.55874 -2.683901 0.795609 -3 0 -3 
C -0.795609 -3 -1.55874 -2.683901 -2.12132 -2.12132 
C -2.683901 -1.55874 -3 -0.795609 -3 0 
C -3 0.795609 -2.683901 1.55874 -2.12132 2.12132 
C -1.55874 2.683901 -0.795609 3 0 3 
z
" style="stroke: #808080"/>
    </defs>
    <g clip-path="url(#pfcaf2db48a)">
     <use xlink:href="#m7442e43fb9" x="149.603593" y="369.569458" style="fill: #808080; stroke: #808080"/>
     <use xlink:href="#m7442e43fb9" x="166.483683" y="405.172197" style="fill: #808080; stroke: #808080"/>
     <use xlink:href="#m7442e43fb9" x="166.483683" y="418.036547" style="fill: #808080; stroke: #808080"/>
     <use xlink:href="#m7442e43fb9" x="183.363772" y="430.487257" style="fill: #808080; stroke: #808080"/>
     <use xlink:href="#m7442e43fb9" x="183.363772" y="485.224878" style="fill: #808080; stroke: #808080"/>
     <use xlink:href="#m7442e43fb9" x="200.243862" y="459.401572" style="fill: #808080; stroke: #808080"/>
     <use xlink:href="#m7442e43fb9" x="200.243862" y="414.890907" style="fill: #808080; stroke: #808080"/>
     <use xlink:href="#m7442e43fb9" x="217.123952" y="418.769833" style="fill: #808080; stroke: #808080"/>
     <use xlink:href="#m7442e43fb9" x="217.123952" y="416.836166" style="fill: #808080; stroke: #808080"/>
     <use xlink:href="#m7442e43fb9" x="234.004042" y="362.004966" style="fill: #808080; stroke: #808080"/>
     <use xlink:href="#m7442e43fb9" x="234.004042" y="393.630999" style="fill: #808080; stroke: #808080"/>
     <use xlink:href="#m7442e43fb9" x="250.884132" y="382.12528" style="fill: #808080; stroke: #808080"/>
     <use xlink:href="#m7442e43fb9" x="250.884132" y="428.717834" style="fill: #808080; stroke: #808080"/>
     <use xlink:href="#m7442e43fb9" x="267.764221" y="394.073507" style="fill: #808080; stroke: #808080"/>
     <use xlink:href="#m7442e43fb9" x="267.764221" y="418.229741" style="fill: #808080; stroke: #808080"/>
     <use xlink:href="#m7442e43fb9" x="284.644311" y="402.780496" style="fill: #808080; stroke: #808080"/>
     <use xlink:href="#m7442e43fb9" x="284.644311" y="370.704057" style="fill: #808080; stroke: #808080"/>
     <use xlink:href="#m7442e43fb9" x="301.524401" y="391.525634" style="fill: #808080; stroke: #808080"/>
     <use xlink:href="#m7442e43fb9" x="301.524401" y="397.68672" style="fill: #808080; stroke: #808080"/>
     <use xlink:href="#m7442e43fb9" x="318.404491" y="400.554766" style="fill: #808080; stroke: #808080"/>
     <use xlink:href="#m7442e43fb9" x="318.404491" y="402.026748" style="fill: #808080; stroke: #808080"/>
     <use xlink:href="#m7442e43fb9" x="335.284581" y="437.900061" style="fill: #808080; stroke: #808080"/>
     <use xlink:href="#m7442e43fb9" x="335.284581" y="414.719172" style="fill: #808080; stroke: #808080"/>
     <use xlink:href="#m7442e43fb9" x="352.164671" y="458.031033" style="fill: #808080; stroke: #808080"/>
     <use xlink:href="#m7442e43fb9" x="352.164671" y="439.898979" style="fill: #808080; stroke: #808080"/>
     <use xlink:href="#m7442e43fb9" x="369.04476" y="447.641635" style="fill: #808080; stroke: #808080"/>
     <use xlink:href="#m7442e43fb9" x="369.04476" y="473.660846" style="fill: #808080; stroke: #808080"/>
     <use xlink:href="#m7442e43fb9" x="385.92485" y="455.323997" style="fill: #808080; stroke: #808080"/>
     <use xlink:href="#m7442e43fb9" x="385.92485" y="437.397274" style="fill: #808080; stroke: #808080"/>
     <use xlink:href="#m7442e43fb9" x="402.80494" y="389.12362" style="fill: #808080; stroke: #808080"/>
     <use xlink:href="#m7442e43fb9" x="402.80494" y="442.896878" style="fill: #808080; stroke: #808080"/>
     <use xlink:href="#m7442e43fb9" x="419.68503" y="404.301297" style="fill: #808080; stroke: #808080"/>
     <use xlink:href="#m7442e43fb9" x="419.68503" y="408.499891" style="fill: #808080; stroke: #808080"/>
     <use xlink:href="#m7442e43fb9" x="436.56512" y="388.766329" style="fill: #808080; stroke: #808080"/>
     <use xlink:href="#m7442e43fb9" x="436.56512" y="386.164961" style="fill: #808080; stroke: #808080"/>
     <use xlink:href="#m7442e43fb9" x="453.445209" y="410.621488" style="fill: #808080; stroke: #808080"/>
     <use xlink:href="#m7442e43fb9" x="453.445209" y="388.010032" style="fill: #808080; stroke: #808080"/>
     <use xlink:href="#m7442e43fb9" x="470.325299" y="390.448693" style="fill: #808080; stroke: #808080"/>
     <use xlink:href="#m7442e43fb9" x="470.325299" y="383.267121" style="fill: #808080; stroke: #808080"/>
     <use xlink:href="#m7442e43fb9" x="487.205389" y="408.235696" style="fill: #808080; stroke: #808080"/>
     <use xlink:href="#m7442e43fb9" x="487.205389" y="397.083425" style="fill: #808080; stroke: #808080"/>
     <use xlink:href="#m7442e43fb9" x="504.085479" y="418.509118" style="fill: #808080; stroke: #808080"/>
     <use xlink:href="#m7442e43fb9" x="504.085479" y="383.71016" style="fill: #808080; stroke: #808080"/>
     <use xlink:href="#m7442e43fb9" x="520.965569" y="390.219538" style="fill: #808080; stroke: #808080"/>
     <use xlink:href="#m7442e43fb9" x="520.965569" y="413.384961" style="fill: #808080; stroke: #808080"/>
     <use xlink:href="#m7442e43fb9" x="537.845659" y="447.037128" style="fill: #808080; stroke: #808080"/>
     <use xlink:href="#m7442e43fb9" x="537.845659" y="447.392019" style="fill: #808080; stroke: #808080"/>
     <use xlink:href="#m7442e43fb9" x="554.725748" y="442.206762" style="fill: #808080; stroke: #808080"/>
     <use xlink:href="#m7442e43fb9" x="554.725748" y="431.277167" style="fill: #808080; stroke: #808080"/>
     <use xlink:href="#m7442e43fb9" x="571.605838" y="399.275123" style="fill: #808080; stroke: #808080"/>
     <use xlink:href="#m7442e43fb9" x="571.605838" y="411.846929" style="fill: #808080; stroke: #808080"/>
     <use xlink:href="#m7442e43fb9" x="588.485928" y="422.664703" style="fill: #808080; stroke: #808080"/>
     <use xlink:href="#m7442e43fb9" x="588.485928" y="415.77093" style="fill: #808080; stroke: #808080"/>
     <use xlink:href="#m7442e43fb9" x="605.366018" y="396.97774" style="fill: #808080; stroke: #808080"/>
     <use xlink:href="#m7442e43fb9" x="605.366018" y="420.946713" style="fill: #808080; stroke: #808080"/>
     <use xlink:href="#m7442e43fb9" x="622.246108" y="392.935575" style="fill: #808080; stroke: #808080"/>
     <use xlink:href="#m7442e43fb9" x="622.246108" y="397.000504" style="fill: #808080; stroke: #808080"/>
     <use xlink:href="#m7442e43fb9" x="639.126197" y="399.369061" style="fill: #808080; stroke: #808080"/>
     <use xlink:href="#m7442e43fb9" x="639.126197" y="413.603763" style="fill: #808080; stroke: #808080"/>
     <use xlink:href="#m7442e43fb9" x="656.006287" y="410.885838" style="fill: #808080; stroke: #808080"/>
     <use xlink:href="#m7442e43fb9" x="656.006287" y="408.620369" style="fill: #808080; stroke: #808080"/>
     <use xlink:href="#m7442e43fb9" x="672.886377" y="391.816079" style="fill: #808080; stroke: #808080"/>
     <use xlink:href="#m7442e43fb9" x="672.886377" y="391.341236" style="fill: #808080; stroke: #808080"/>
     <use xlink:href="#m7442e43fb9" x="689.766467" y="418.499606" style="fill: #808080; stroke: #808080"/>
     <use xlink:href="#m7442e43fb9" x="689.766467" y="461.157213" style="fill: #808080; stroke: #808080"/>
     <use xlink:href="#m7442e43fb9" x="706.646557" y="457.232298" style="fill: #808080; stroke: #808080"/>
     <use xlink:href="#m7442e43fb9" x="706.646557" y="470.738218" style="fill: #808080; stroke: #808080"/>
     <use xlink:href="#m7442e43fb9" x="723.526647" y="423.764167" style="fill: #808080; stroke: #808080"/>
     <use xlink:href="#m7442e43fb9" x="723.526647" y="438.702361" style="fill: #808080; stroke: #808080"/>
     <use xlink:href="#m7442e43fb9" x="740.406736" y="463.954192" style="fill: #808080; stroke: #808080"/>
     <use xlink:href="#m7442e43fb9" x="740.406736" y="446.849403" style="fill: #808080; stroke: #808080"/>
     <use xlink:href="#m7442e43fb9" x="757.286826" y="411.016248" style="fill: #808080; stroke: #808080"/>
     <use xlink:href="#m7442e43fb9" x="757.286826" y="373.952651" style="fill: #808080; stroke: #808080"/>
     <use xlink:href="#m7442e43fb9" x="774.166916" y="405.32806" style="fill: #808080; stroke: #808080"/>
     <use xlink:href="#m7442e43fb9" x="774.166916" y="397.762547" style="fill: #808080; stroke: #808080"/>
     <use xlink:href="#m7442e43fb9" x="791.047006" y="405.211571" style="fill: #808080; stroke: #808080"/>
     <use xlink:href="#m7442e43fb9" x="791.047006" y="387.530986" style="fill: #808080; stroke: #808080"/>
     <use xlink:href="#m7442e43fb9" x="807.927096" y="388.715889" style="fill: #808080; stroke: #808080"/>
     <use xlink:href="#m7442e43fb9" x="807.927096" y="370.494691" style="fill: #808080; stroke: #808080"/>
     <use xlink:href="#m7442e43fb9" x="824.807185" y="320.203636" style="fill: #808080; stroke: #808080"/>
     <use xlink:href="#m7442e43fb9" x="824.807185" y="393.164043" style="fill: #808080; stroke: #808080"/>
     <use xlink:href="#m7442e43fb9" x="841.687275" y="364.404245" style="fill: #808080; stroke: #808080"/>
     <use xlink:href="#m7442e43fb9" x="841.687275" y="416.09275" style="fill: #808080; stroke: #808080"/>
     <use xlink:href="#m7442e43fb9" x="858.567365" y="430.600425" style="fill: #808080; stroke: #808080"/>
     <use xlink:href="#m7442e43fb9" x="858.567365" y="437.637717" style="fill: #808080; stroke: #808080"/>
     <use xlink:href="#m7442e43fb9" x="875.447455" y="449.69082" style="fill: #808080; stroke: #808080"/>
     <use xlink:href="#m7442e43fb9" x="875.447455" y="438.772262" style="fill: #808080; stroke: #808080"/>
     <use xlink:href="#m7442e43fb9" x="892.327545" y="420.541263" style="fill: #808080; stroke: #808080"/>
     <use xlink:href="#m7442e43fb9" x="892.327545" y="446.158873" style="fill: #808080; stroke: #808080"/>
     <use xlink:href="#m7442e43fb9" x="909.207634" y="415.184203" style="fill: #808080; stroke: #808080"/>
     <use xlink:href="#m7442e43fb9" x="909.207634" y="426.728728" style="fill: #808080; stroke: #808080"/>
     <use xlink:href="#m7442e43fb9" x="926.087724" y="453.604491" style="fill: #808080; stroke: #808080"/>
     <use xlink:href="#m7442e43fb9" x="926.087724" y="468.471632" style="fill: #808080; stroke: #808080"/>
     <use xlink:href="#m7442e43fb9" x="942.967814" y="454.539065" style="fill: #808080; stroke: #808080"/>
     <use xlink:href="#m7442e43fb9" x="942.967814" y="432.42672" style="fill: #808080; stroke: #808080"/>
     <use xlink:href="#m7442e43fb9" x="959.847904" y="402.373728" style="fill: #808080; stroke: #808080"/>
     <use xlink:href="#m7442e43fb9" x="959.847904" y="378.433479" style="fill: #808080; stroke: #808080"/>
     <use xlink:href="#m7442e43fb9" x="976.727994" y="326.582142" style="fill: #808080; stroke: #808080"/>
     <use xlink:href="#m7442e43fb9" x="976.727994" y="352.242731" style="fill: #808080; stroke: #808080"/>
     <use xlink:href="#m7442e43fb9" x="993.608084" y="369.332319" style="fill: #808080; stroke: #808080"/>
     <use xlink:href="#m7442e43fb9" x="993.608084" y="419.154715" style="fill: #808080; stroke: #808080"/>
     <use xlink:href="#m7442e43fb9" x="1010.488173" y="503.476364" style="fill: #808080; stroke: #808080"/>
    </g>
   </g>
   <g id="patch_9">
    <path d="M 144 512.64 
L 144 311.04 
" style="fill: none; stroke: #000000; stroke-width: 1.5; stroke-linejoin: miter; stroke-linecap: square"/>
   </g>
   <g id="patch_10">
    <path d="M 1036.8 512.64 
L 1036.8 311.04 
" style="fill: none; stroke: #000000; stroke-width: 1.5; stroke-linejoin: miter; stroke-linecap: square"/>
   </g>
   <g id="patch_11">
    <path d="M 144 512.64 
L 1036.8 512.64 
" style="fill: none; stroke: #000000; stroke-width: 1.5; stroke-linejoin: miter; stroke-linecap: square"/>
   </g>
   <g id="patch_12">
    <path d="M 144 311.04 
L 1036.8 311.04 
" style="fill: none; stroke: #000000; stroke-width: 1.5; stroke-linejoin: miter; stroke-linecap: square"/>
   </g>
   <g id="legend_2">
    <g id="patch_13">
     <path d="M 865.86 370.81 
L 1025.6 370.81 
Q 1028.8 370.81 1028.8 367.61 
L 1028.8 322.24 
Q 1028.8 319.04 1025.6 319.04 
L 865.86 319.04 
Q 862.66 319.04 862.66 322.24 
L 862.66 367.61 
Q 862.66 370.81 865.86 370.81 
z
" style="fill: #ffffff; opacity: 0.8; stroke: #cccccc; stroke-linejoin: miter"/>
    </g>
    <g id="line2d_25">
     <path d="M 869.06 331.9975 
L 885.06 331.9975 
L 901.06 331.9975 
" style="fill: none; stroke-dasharray: 9.6,2.4,1.5,2.4; stroke-dashoffset: 0; stroke: #0000ff; stroke-width: 1.5"/>
    </g>
    <g id="text_24">
     <!-- Pumped Fit -->
     <g transform="translate(913.86 337.5975) scale(0.16 -0.16)">
      <defs>
       <path id="DejaVuSans-50" d="M 1259 4147 
L 1259 2394 
L 2053 2394 
Q 2494 2394 2734 2622 
Q 2975 2850 2975 3272 
Q 2975 3691 2734 3919 
Q 2494 4147 2053 4147 
L 1259 4147 
z
M 628 4666 
L 2053 4666 
Q 2838 4666 3239 4311 
Q 3641 3956 3641 3272 
Q 3641 2581 3239 2228 
Q 2838 1875 2053 1875 
L 1259 1875 
L 1259 0 
L 628 0 
L 628 4666 
z
" transform="scale(0.015625)"/>
      </defs>
      <use xlink:href="#DejaVuSans-50"/>
      <use xlink:href="#DejaVuSans-75" transform="translate(58.552734 0)"/>
      <use xlink:href="#DejaVuSans-6d" transform="translate(121.931641 0)"/>
      <use xlink:href="#DejaVuSans-70" transform="translate(219.34375 0)"/>
      <use xlink:href="#DejaVuSans-65" transform="translate(282.820312 0)"/>
      <use xlink:href="#DejaVuSans-64" transform="translate(344.34375 0)"/>
      <use xlink:href="#DejaVuSans-20" transform="translate(407.820312 0)"/>
      <use xlink:href="#DejaVuSans-46" transform="translate(439.607422 0)"/>
      <use xlink:href="#DejaVuSans-69" transform="translate(489.876953 0)"/>
      <use xlink:href="#DejaVuSans-74" transform="translate(517.660156 0)"/>
     </g>
    </g>
    <g id="line2d_26">
     <path d="M 869.06 355.4825 
L 885.06 355.4825 
L 901.06 355.4825 
" style="fill: none; stroke: #808080; stroke-width: 1.5; stroke-linecap: square"/>
     <g>
      <use xlink:href="#m7442e43fb9" x="885.06" y="355.4825" style="fill: #808080; stroke: #808080"/>
     </g>
    </g>
    <g id="text_25">
     <!-- Pumped Data -->
     <g transform="translate(913.86 361.0825) scale(0.16 -0.16)">
      <use xlink:href="#DejaVuSans-50"/>
      <use xlink:href="#DejaVuSans-75" transform="translate(58.552734 0)"/>
      <use xlink:href="#DejaVuSans-6d" transform="translate(121.931641 0)"/>
      <use xlink:href="#DejaVuSans-70" transform="translate(219.34375 0)"/>
      <use xlink:href="#DejaVuSans-65" transform="translate(282.820312 0)"/>
      <use xlink:href="#DejaVuSans-64" transform="translate(344.34375 0)"/>
      <use xlink:href="#DejaVuSans-20" transform="translate(407.820312 0)"/>
      <use xlink:href="#DejaVuSans-44" transform="translate(439.607422 0)"/>
      <use xlink:href="#DejaVuSans-61" transform="translate(516.609375 0)"/>
      <use xlink:href="#DejaVuSans-74" transform="translate(577.888672 0)"/>
      <use xlink:href="#DejaVuSans-61" transform="translate(617.097656 0)"/>
     </g>
    </g>
   </g>
  </g>
 </g>
 <defs>
  <clipPath id="p533926b78d">
   <rect x="144" y="69.12" width="892.8" height="201.6"/>
  </clipPath>
  <clipPath id="pfcaf2db48a">
   <rect x="144" y="311.04" width="892.8" height="201.6"/>
  </clipPath>
 </defs>
</svg>
