<?xml version="1.0" encoding="UTF-8" standalone="no"?>
<!-- Created with Inkscape (http://www.inkscape.org/) -->

<svg
   version="1.1"
   id="svg1"
   width="1500"
   height="800"
   viewBox="0 0 1500 800"
   sodipodi:docname="Mode_Locking.svg"
   inkscape:version="1.4.2 (f4327f4, 2025-05-13)"
   inkscape:export-filename="Exports\Mode_Locking.pdf"
   inkscape:export-xdpi="96"
   inkscape:export-ydpi="96"
   xmlns:inkscape="http://www.inkscape.org/namespaces/inkscape"
   xmlns:sodipodi="http://sodipodi.sourceforge.net/DTD/sodipodi-0.dtd"
   xmlns="http://www.w3.org/2000/svg"
   xmlns:svg="http://www.w3.org/2000/svg">
  <defs
     id="defs1">
    <clipPath
       clipPathUnits="userSpaceOnUse"
       id="clipPath12">
      <path
         d="M -1021,-463 H 1794 V 1233 H -1021 Z"
         transform="translate(-2.5000006e-5,3.2172008e-4)"
         id="path12" />
    </clipPath>
    <clipPath
       clipPathUnits="userSpaceOnUse"
       id="clipPath16">
      <path
         d="M -1021,-463 H 1794 V 1233 H -1021 Z"
         transform="translate(-2.5000006e-5,3.723701e-4)"
         id="path16" />
    </clipPath>
    <clipPath
       clipPathUnits="userSpaceOnUse"
       id="clipPath26">
      <path
         d="m 90,228.96 h 558 v 151.2 H 90 Z"
         id="path26" />
    </clipPath>
    <clipPath
       clipPathUnits="userSpaceOnUse"
       id="clipPath28">
      <path
         d="m 90,228.96 h 558 v 151.2 H 90 Z"
         id="path28" />
    </clipPath>
    <clipPath
       clipPathUnits="userSpaceOnUse"
       id="clipPath30">
      <path
         d="m 90,228.96 h 558 v 151.2 H 90 Z"
         id="path30" />
    </clipPath>
    <clipPath
       clipPathUnits="userSpaceOnUse"
       id="clipPath32">
      <path
         d="m 90,228.96 h 558 v 151.2 H 90 Z"
         id="path32" />
    </clipPath>
    <clipPath
       clipPathUnits="userSpaceOnUse"
       id="clipPath34">
      <path
         d="m 90,228.96 h 558 v 151.2 H 90 Z"
         id="path34" />
    </clipPath>
    <clipPath
       clipPathUnits="userSpaceOnUse"
       id="clipPath54">
      <path
         d="M -1021,-463 H 1794 V 1233 H -1021 Z"
         transform="translate(-3.6235009e-4,-2.5000006e-4)"
         id="path54" />
    </clipPath>
    <clipPath
       clipPathUnits="userSpaceOnUse"
       id="clipPath58">
      <path
         d="M -1021,-463 H 1794 V 1233 H -1021 Z"
         transform="translate(9.1770024e-5,-2.5000006e-4)"
         id="path58" />
    </clipPath>
    <clipPath
       clipPathUnits="userSpaceOnUse"
       id="clipPath62">
      <path
         d="M -1021,-463 H 1794 V 1233 H -1021 Z"
         transform="translate(-2.0412006e-4,-2.5000006e-4)"
         id="path62" />
    </clipPath>
    <clipPath
       clipPathUnits="userSpaceOnUse"
       id="clipPath75">
      <path
         d="M -1021,-463 H 1794 V 1233 H -1021 Z"
         transform="translate(-2.5000006e-5,5.1730014e-5)"
         id="path75" />
    </clipPath>
    <clipPath
       clipPathUnits="userSpaceOnUse"
       id="clipPath91">
      <path
         d="m 90,47.52 h 558 v 151.2 H 90 Z"
         id="path91" />
    </clipPath>
  </defs>
  <sodipodi:namedview
     id="namedview1"
     pagecolor="#ffffff"
     bordercolor="#000000"
     borderopacity="0.25"
     inkscape:showpageshadow="2"
     inkscape:pageopacity="0.0"
     inkscape:pagecheckerboard="0"
     inkscape:deskcolor="#d1d1d1"
     inkscape:zoom="0.35026042"
     inkscape:cx="669.50185"
     inkscape:cy="678.06691"
     inkscape:window-width="1920"
     inkscape:window-height="1009"
     inkscape:window-x="-8"
     inkscape:window-y="-8"
     inkscape:window-maximized="1"
     inkscape:current-layer="g1">
    <inkscape:page
       x="0"
       y="0"
       inkscape:label="1"
       id="page1"
       width="1500"
       height="800"
       margin="0"
       bleed="0" />
  </sodipodi:namedview>
  <g
     id="g1"
     inkscape:groupmode="layer"
     inkscape:label="1">
    <path
       id="path11"
       d=""
       style="fill:#000000;fill-opacity:1;fill-rule:nonzero;stroke:none"
       aria-label="1.0"
       transform="matrix(1.3333333,0,0,1.3333333,89.463542,266.6189)" />
    <path
       id="path15"
       d=""
       style="fill:#000000;fill-opacity:1;fill-rule:nonzero;stroke:none"
       aria-label="0.5"
       transform="matrix(1.3333333,0,0,1.3333333,89.463542,220.80071)" />
    <path
       id="path19"
       d=""
       style="fill:#000000;fill-opacity:1;fill-rule:nonzero;stroke:none"
       aria-label="0.0"
       transform="matrix(1.3333333,0,0,1.3333333,89.458333,174.98251)" />
    <path
       id="path21"
       d=""
       style="fill:#000000;fill-opacity:1;fill-rule:nonzero;stroke:none"
       aria-label="0.5"
       transform="matrix(1.3333333,0,0,1.3333333,89.458333,129.16432)" />
    <path
       id="path23"
       d=""
       style="fill:#000000;fill-opacity:1;fill-rule:nonzero;stroke:none"
       aria-label="1.0"
       transform="matrix(1.3333333,0,0,1.3333333,89.458333,83.346133)" />
    <path
       id="path24"
       d=""
       style="fill:#000000;fill-opacity:1;fill-rule:nonzero;stroke:none"
       aria-label="Amplitude"
       transform="matrix(0,-1.3333333,1.3333333,0,70.1875,204.09708)" />
    <path
       id="path39"
       d=""
       style="fill:#000000;fill-opacity:1;fill-rule:nonzero;stroke:none"
       aria-label="Individual Modes (locked in phase)"
       transform="matrix(1.3333333,0,0,1.3333333,353.27083,61.12)" />
    <path
       id="path42"
       d=""
       style="fill:#000000;fill-opacity:1;fill-rule:nonzero;stroke:none"
       aria-label="mode 1"
       transform="matrix(1.3333333,0,0,1.3333333,801.4375,91.245)" />
    <path
       id="path44"
       d=""
       style="fill:#000000;fill-opacity:1;fill-rule:nonzero;stroke:none"
       aria-label="mode 2"
       transform="matrix(1.3333333,0,0,1.3333333,801.4375,110.8075)" />
    <path
       id="path46"
       d=""
       style="fill:#000000;fill-opacity:1;fill-rule:nonzero;stroke:none"
       aria-label="mode 3"
       transform="matrix(1.3333333,0,0,1.3333333,801.4375,130.37)" />
    <path
       id="path48"
       d=""
       style="fill:#000000;fill-opacity:1;fill-rule:nonzero;stroke:none"
       aria-label="mode 4"
       transform="matrix(1.3333333,0,0,1.3333333,801.4375,149.9325)" />
    <path
       id="path50"
       d=""
       style="fill:#000000;fill-opacity:1;fill-rule:nonzero;stroke:none"
       aria-label="mode 5"
       transform="matrix(1.3333333,0,0,1.3333333,801.4375,169.495)" />
    <path
       id="path53"
       d=""
       style="fill:#000000;fill-opacity:1;fill-rule:nonzero;stroke:none"
       aria-label="6"
       transform="matrix(1.3333333,0,0,1.3333333,170.40911,532.09833)" />
    <path
       id="path57"
       d=""
       style="fill:#000000;fill-opacity:1;fill-rule:nonzero;stroke:none"
       aria-label="4"
       transform="matrix(1.3333333,0,0,1.3333333,278.05573,532.09833)" />
    <path
       id="path61"
       d=""
       style="fill:#000000;fill-opacity:1;fill-rule:nonzero;stroke:none"
       aria-label="2"
       transform="matrix(1.3333333,0,0,1.3333333,385.70234,532.09833)" />
    <path
       id="path65"
       d=""
       style="fill:#000000;fill-opacity:1;fill-rule:nonzero;stroke:none"
       aria-label="0"
       transform="matrix(1.3333333,0,0,1.3333333,487.76042,532.09833)" />
    <path
       id="path67"
       d=""
       style="fill:#000000;fill-opacity:1;fill-rule:nonzero;stroke:none"
       aria-label="2"
       transform="matrix(1.3333333,0,0,1.3333333,595.40703,532.09833)" />
    <path
       id="path69"
       d=""
       style="fill:#000000;fill-opacity:1;fill-rule:nonzero;stroke:none"
       aria-label="4"
       transform="matrix(1.3333333,0,0,1.3333333,703.05365,532.09833)" />
    <path
       id="path71"
       d=""
       style="fill:#000000;fill-opacity:1;fill-rule:nonzero;stroke:none"
       aria-label="6"
       transform="matrix(1.3333333,0,0,1.3333333,810.70026,532.09833)" />
    <path
       id="path72"
       d=""
       style="fill:#000000;fill-opacity:1;fill-rule:nonzero;stroke:none"
       aria-label="Time (a.u.)"
       transform="matrix(1.3333333,0,0,1.3333333,455.73958,550.3275)" />
    <path
       id="path74"
       d=""
       style="fill:#000000;fill-opacity:1;fill-rule:nonzero;stroke:none"
       aria-label="0.2"
       transform="matrix(1.3333333,0,0,1.3333333,89.463542,505.4582)" />
    <path
       id="path78"
       d=""
       style="fill:#000000;fill-opacity:1;fill-rule:nonzero;stroke:none"
       aria-label="0.0"
       transform="matrix(1.3333333,0,0,1.3333333,89.458333,475.42619)" />
    <path
       id="path80"
       d=""
       style="fill:#000000;fill-opacity:1;fill-rule:nonzero;stroke:none"
       aria-label="0.2"
       transform="matrix(1.3333333,0,0,1.3333333,89.458333,445.39418)" />
    <path
       id="path82"
       d=""
       style="fill:#000000;fill-opacity:1;fill-rule:nonzero;stroke:none"
       aria-label="0.4"
       transform="matrix(1.3333333,0,0,1.3333333,89.458333,415.36217)" />
    <path
       id="path84"
       d=""
       style="fill:#000000;fill-opacity:1;fill-rule:nonzero;stroke:none"
       aria-label="0.6"
       transform="matrix(1.3333333,0,0,1.3333333,89.458333,385.33016)" />
    <path
       id="path86"
       d=""
       style="fill:#000000;fill-opacity:1;fill-rule:nonzero;stroke:none"
       aria-label="0.8"
       transform="matrix(1.3333333,0,0,1.3333333,89.458333,355.29815)" />
    <path
       id="path88"
       d=""
       style="fill:#000000;fill-opacity:1;fill-rule:nonzero;stroke:none"
       aria-label="1.0"
       transform="matrix(1.3333333,0,0,1.3333333,89.458333,325.26614)" />
    <path
       id="path89"
       d=""
       style="fill:#000000;fill-opacity:1;fill-rule:nonzero;stroke:none"
       aria-label="Electric field"
       transform="matrix(0,-1.3333333,1.3333333,0,70.1875,453.05875)" />
    <path
       id="path96"
       d=""
       style="fill:#000000;fill-opacity:1;fill-rule:nonzero;stroke:none"
       aria-label="Mode-Locked Pulse Train"
       transform="matrix(1.3333333,0,0,1.3333333,393.98958,303.04)" />
    <g
       id="g98"
       transform="translate(281.92948,17.822855)">
      <path
         id="path25"
         d="m 115.36364,347.8363 1.90275,7.40373 1.64904,5.52449 1.39535,3.95573 1.2685,2.98218 1.14165,2.15894 1.0148,1.48702 0.88795,0.95986 0.88795,0.63645 0.7611,0.28579 0.7611,0.0449 0.7611,-0.19609 0.76109,-0.43642 0.88795,-0.81081 0.88795,-1.13194 1.0148,-1.67986 1.14165,-2.36955 1.2685,-3.20639 1.39535,-4.18794 1.5222,-5.30164 1.7759,-7.0546 2.02959,-9.04258 2.41015,-11.79515 3.5518,-18.63108 5.3277,-27.90582 2.53699,-12.06904 2.0296,-8.63795 1.7759,-6.63069 1.5222,-4.89277 1.39535,-3.78135 1.2685,-2.81453 1.14165,-2.00203 1.01479,-1.3438 0.88796,-0.83235 0.76109,-0.45505 0.7611,-0.21482 0.7611,0.0262 0.7611,0.26708 0.7611,0.50705 0.88795,0.89242 0.88795,1.21233 1.0148,1.76974 1.14165,2.46747 1.2685,3.3103 1.39535,4.29514 1.52219,5.40868 1.7759,7.16444 2.0296,9.14578 2.537,12.5324 3.93235,20.75218 4.56659,23.84648 2.537,12.08299 2.0296,8.65285 1.7759,6.6461 1.5222,4.90754 1.39534,3.79597 1.2685,2.82855 1.14165,2.01514 1.0148,1.35574 0.88795,0.84298 0.7611,0.46425 0.7611,0.22405 0.7611,-0.0169 0.7611,-0.25785 0.7611,-0.49786 0.88795,-0.88182 0.88795,-1.20188 1.0148,-1.75808 1.14164,-2.45477 1.2685,-3.29683 1.39535,-4.28126 1.5222,-5.39484 1.7759,-7.15027 2.0296,-9.13251 2.537,-12.52067 3.93234,-20.74558 4.5666,-23.857 2.537,-12.0969 2.02959,-8.66768 1.7759,-6.6615 1.5222,-4.92228 1.39535,-3.81055 1.2685,-2.84256 1.14165,-2.02824 1.0148,-1.36768 0.88795,-0.85361 0.7611,-0.47344 0.7611,-0.23329 0.7611,0.008 0.76109,0.24861 0.7611,0.48868 0.88795,0.8712 0.88795,1.19144 1.0148,1.7464 1.14165,2.44206 1.2685,3.28334 1.39535,4.26737 1.5222,5.38097 1.7759,7.13606 2.02959,9.11919 2.537,12.50888 3.8055,20.0604 4.82029,25.17821 2.537,12.0502 2.0296,8.61791 1.7759,6.60993 1.5222,4.87291 1.39535,3.76171 1.2685,2.79569 1.14164,1.98444 1.0148,1.32774 0.88795,0.81809 0.7611,0.44271 0.7611,0.20241 0.7611,-0.0386 0.7611,-0.27948 0.7611,-0.51936 0.88795,-0.90665 0.88795,-1.22633 1.0148,-1.78539 1.14165,-2.48449 1.2685,-3.32835 1.39534,-4.31373 1.5222,-5.4272 1.7759,-7.1834 2.0296,-9.16351 2.537,-12.54805 3.93235,-20.76086 4.56659,-23.83216 2.537,-12.06425 2.0296,-8.63285 1.7759,-6.62541 1.5222,-4.88771 1.39534,-3.77635 1.2685,-2.80973 1.14165,-1.99755 1.0148,-1.33971 0.88795,-0.82872 0.7611,-0.4519 0.7611,-0.21166 0.7611,0.0293 0.7611,0.27024 0.7611,0.51019 0.88795,0.89604 0.88794,1.2159 1.0148,1.77373 1.14165,2.47181 1.2685,3.3149 1.39535,4.29989 1.5222,5.4134 1.7759,7.16928 2.0296,9.1503 2.53699,12.53641 3.93235,20.7544 4.5666,23.84286 2.537,12.07822 2.02959,8.64776 1.7759,6.64084 1.5222,4.90249 1.39535,3.79096 1.2685,2.82376 1.14165,2.01066 1.0148,1.35166 0.88795,0.83935 0.7611,0.4611 0.7611,0.22089 0.76109,-0.0201 0.7611,-0.261 0.7611,-0.50101 0.88795,-0.88544 0.88795,-1.20546 1.0148,-1.76206 1.14165,-2.45912 1.2685,-3.30144 1.39535,-4.28601 1.5222,-5.39958 1.7759,-7.15512 2.02959,-9.13704 2.537,-12.5247 3.93235,-20.74784 4.56659,-23.85342 2.537,-12.09215 2.0296,-8.66261 1.7759,-6.65624 1.5222,-4.91724 1.39535,-3.80557 1.26849,-2.83777 1.14165,-2.02376 1.0148,-1.3636 0.88795,-0.84997 0.7611,-0.4703 0.7611,-0.23013 0.7611,0.0108 0.7611,0.25177 0.7611,0.49182 0.88795,0.87484 0.88795,1.19501 1.0148,1.75039 1.14165,2.44641 1.2685,3.28796 1.39534,4.27212 1.5222,5.38572 1.7759,7.14092 2.0296,9.12375 2.537,12.51292 3.8055,20.06271 4.69344,24.54233 2.537,12.106 2.0296,8.67742 1.77589,6.67161 1.5222,4.93197 1.39535,3.82014 1.2685,2.85177 1.14165,2.03685 1.0148,1.37554 0.88795,0.86059 0.88795,0.53609 0.7611,0.19925 0.7611,-0.0418 0.7611,-0.28263 0.7611,-0.52251 0.88795,-0.91027 0.88794,-1.2299 1.0148,-1.78937 1.14165,-2.48883 1.2685,-3.33294 1.39535,-4.31846 1.5222,-5.43191 1.7759,-7.18822 2.0296,-9.16802 2.53699,-12.55202 3.93235,-20.76304 4.5666,-23.82848 2.53699,-12.05945 2.0296,-8.62775 1.7759,-6.62011 1.5222,-4.88266 1.39535,-3.77134 1.2685,-2.80493 1.14165,-1.99307 1.0148,-1.33562 0.88795,-0.82508 0.76109,-0.44876 0.7611,-0.20849 0.7611,0.0325 0.7611,0.2734 0.7611,0.51332 0.88795,0.89968 0.88795,1.21946 1.0148,1.77772 1.14165,2.47615 1.2685,3.3195 1.39535,4.30462 1.5222,5.41813 1.77589,7.17411 2.0296,9.15483 2.537,12.54039 3.93235,20.75663 4.56659,23.83921 2.537,12.07345 2.0296,8.64266 1.7759,6.63557 1.5222,4.89743 1.39535,3.78598 1.26849,2.81896 1.14165,2.00618 1.0148,1.34757 0.88795,0.83571 0.7611,0.45796 0.7611,0.21773 0.7611,-0.0232 0.7611,-0.26417 0.7611,-0.50414 0.88795,-0.88907 0.88795,-1.20903 1.0148,-1.76606 1.14165,-2.46346 1.26849,-3.30604 1.39535,-4.29076 1.5222,-5.40431 1.7759,-7.15996 2.0296,-9.14159 2.537,-12.52871 3.93234,-20.7501 4.5666,-23.84982 2.537,-12.08739 2.0296,-8.65754 1.77589,-6.65097 1.5222,-4.9122 1.39535,-3.80058 1.2685,-2.83298 1.14165,-2.01928 1.0148,-1.35952 0.88795,-0.84634 0.7611,-0.46715 0.7611,-0.22697 0.7611,0.014 0.7611,0.25493 0.7611,0.49496 0.88794,0.87846 0.88795,1.19859 1.0148,1.75438 1.14165,2.45076 1.2685,3.29257 1.39535,4.27687 1.5222,5.39047 1.7759,7.14578 2.0296,9.1283 2.53699,12.51695 3.8055,20.06501 4.69345,24.53877 2.53699,12.10127 2.0296,8.67236 1.7759,6.66635 1.5222,4.92694 1.39535,3.81516 1.2685,2.84698 1.14165,2.03238 1.01479,1.37146 0.88795,0.85696 0.7611,0.47634 0.7611,0.23621 0.7611,-0.005 0.7611,-0.2457 0.7611,-0.48577 0.88795,-0.86785 0.88795,-1.18814 1.0148,-1.7427 1.14165,-2.43804 1.2685,-3.27908 1.39535,-4.26297 1.52219,-5.37659 1.39535,-5.53158 v 0"
         style="fill:none;stroke:#1f77b4;stroke-width:1.5;stroke-linecap:square;stroke-linejoin:round;stroke-miterlimit:10;stroke-dasharray:none;stroke-opacity:1"
         transform="matrix(2.3230044,0,0,-0.47181821,-253.94605,186.37714)"
         clip-path="url(#clipPath26)" />
      <path
         id="path27"
         d="m 115.36364,290.33331 4.94714,50.82168 1.39535,11.67582 1.14165,7.88753 1.0148,5.53289 0.88795,3.5851 0.63425,1.80166 0.63425,1.14846 0.5074,0.44073 0.38055,0.0497 0.38055,-0.19135 0.38055,-0.43169 0.5074,-0.94674 0.63424,-1.77113 0.7611,-2.96374 0.88795,-4.55983 1.0148,-6.55619 1.14165,-8.8929 1.39535,-12.65092 2.0296,-20.71989 4.0592,-41.98248 1.52219,-13.23626 1.2685,-9.08624 1.0148,-5.73688 0.88795,-3.77771 0.7611,-2.25672 0.63425,-1.16365 0.5074,-0.45303 0.38055,-0.0589 0.38055,0.1821 0.38055,0.42249 0.5074,0.93458 0.63425,1.75625 0.7611,2.9465 0.88795,4.54089 1.0148,6.53654 1.14164,8.87389 1.39535,12.63301 2.0296,20.70578 4.0592,42.00015 1.5222,13.25764 1.2685,9.10907 1.0148,5.75779 0.88795,3.79749 0.76109,2.27449 0.63425,1.17884 0.5074,0.46533 0.38055,0.0682 0.38055,-0.17286 0.38055,-0.41328 0.5074,-0.92243 0.63425,-1.74135 0.7611,-2.92925 0.88795,-4.52193 1.0148,-6.51684 1.14165,-8.85485 1.39535,-12.61502 2.0296,-20.69158 4.05919,-42.0176 1.5222,-13.27895 1.2685,-9.13184 1.0148,-5.77867 0.88795,-3.81727 0.7611,-2.29224 0.63425,-1.19402 0.5074,-0.47762 0.38055,-0.0774 0.38055,0.16361 0.38055,0.40408 0.50739,0.91026 0.63425,1.72644 0.7611,2.91199 0.88795,4.50294 1.0148,6.49712 1.14165,8.83575 1.39535,12.59698 2.0296,20.67726 4.05919,42.03483 1.5222,13.3002 1.2685,9.15457 1.0148,5.79952 0.88795,3.83701 0.7611,2.30999 0.63425,1.2092 0.5074,0.4899 0.38055,0.0867 0.38055,-0.15436 0.38055,-0.39487 0.5074,-0.89811 0.63425,-1.71152 0.7611,-2.8947 0.88795,-4.48394 1.0148,-6.47736 1.14164,-8.81661 1.39535,-12.57886 1.90275,-19.3213 4.3129,-44.58371 1.5222,-13.1352 1.14165,-8.17311 1.0148,-5.82033 0.88794,-3.85674 0.7611,-2.32772 0.63425,-1.22437 0.5074,-0.50219 0.38055,-0.0959 0.38055,0.14511 0.38055,0.38566 0.5074,0.88593 0.63425,1.6966 0.7611,2.8774 0.88795,4.46491 1.0148,6.45757 1.14165,8.79743 1.39535,12.56068 1.90274,19.30724 4.43975,45.78027 1.5222,12.9662 1.14165,8.0137 1.0148,5.6596 0.88795,3.70465 0.7611,2.19116 0.63425,1.10765 0.5074,0.40772 0.38055,0.0248 0.38054,-0.21616 0.38055,-0.45638 0.5074,-0.97933 0.63425,-1.81105 0.7611,-3.00993 0.88795,-4.61054 1.0148,-6.60878 1.14165,-8.94366 1.39535,-12.6987 2.0296,-20.7572 3.93235,-40.74072 1.52219,-13.36352 1.2685,-9.22247 1.0148,-5.86189 0.88795,-3.89613 0.7611,-2.36316 0.63425,-1.25469 0.5074,-0.52675 0.38055,-0.11444 0.38055,0.12662 0.38055,0.36722 0.5074,0.86158 0.63425,1.66672 0.63425,2.30655 0.7611,3.58038 0.88795,5.23269 1.14164,8.24113 1.2685,10.85572 1.64905,16.10402 6.0888,61.61945 1.2685,9.81503 1.14164,7.1136 0.88795,4.25407 0.7611,2.68617 0.63425,1.53185 0.5074,0.75178 0.38055,0.28421 0.38055,0.0433 0.38055,-0.19766 0.38055,-0.43799 0.5074,-0.95505 0.63425,-1.78131 0.7611,-2.97552 0.88795,-4.57277 1.0148,-6.56962 1.14165,-8.90586 1.39535,-12.66315 2.02959,-20.72946 4.0592,-41.97028 1.5222,-13.22159 1.2685,-9.0706 1.0148,-5.72257 0.88795,-3.76416 0.7611,-2.24456 0.63425,-1.15326 0.5074,-0.44462 0.38054,-0.0526 0.38055,0.18842 0.38055,0.42879 0.5074,0.9429 0.63425,1.76642 0.7611,2.9583 0.88795,4.55385 1.0148,6.54998 1.14165,8.8869 1.39535,12.64527 2.0296,20.71544 4.05919,41.98808 1.5222,13.24303 1.2685,9.09346 1.0148,5.74349 0.88795,3.78396 0.7611,2.26234 0.63425,1.16845 0.5074,0.45692 0.38055,0.0618 0.38055,-0.17918 0.38055,-0.41958 0.5074,-0.93075 0.63425,-1.75153 0.7611,-2.94106 0.88795,-4.5349 1.01479,-6.53031 1.14165,-8.86788 1.39535,-12.62734 2.0296,-20.7013 4.0592,-42.00569 1.5222,-13.26438 1.26849,-9.11627 1.0148,-5.76439 0.88795,-3.80375 0.7611,-2.28009 0.63425,-1.18364 0.5074,-0.46921 0.38055,-0.0711 0.38055,0.16994 0.38055,0.41037 0.5074,0.91859 0.63425,1.73663 0.7611,2.9238 0.88795,4.51593 1.0148,6.51062 1.14165,8.84882 1.39535,12.60932 2.02959,20.68707 4.0592,42.02307 1.5222,13.28567 1.2685,9.13903 1.0148,5.78526 0.88795,3.82351 0.7611,2.29785 0.63425,1.19882 0.5074,0.4815 0.38054,0.0804 0.38055,-0.16069 0.38055,-0.40117 0.5074,-0.90642 0.63425,-1.72173 0.7611,-2.90653 0.88795,-4.49694 1.0148,-6.49087 1.14165,-8.82971 1.39535,-12.59126 1.90275,-19.33086 4.31289,-44.57139 1.5222,-13.12032 1.14165,-8.15902 1.0148,-5.8061 0.88795,-3.84325 0.7611,-2.31559 0.63425,-1.214 0.5074,-0.49378 0.38055,-0.0896 0.38055,0.15144 0.38055,0.39196 0.5074,0.89425 0.63425,1.70681 0.7611,2.88924 0.88794,4.47792 1.0148,6.47111 1.14165,8.81056 1.39535,12.57312 1.90275,19.31687 4.3129,44.58936 1.5222,13.14207 1.14164,8.1796 1.0148,5.82691 0.88795,3.86297 0.7611,2.33333 0.63425,1.22916 0.5074,0.50607 0.38055,0.0989 0.38055,-0.14219 0.38055,-0.38275 0.5074,-0.88208 0.63425,-1.69188 0.7611,-2.87194 0.88795,-4.45888 1.0148,-6.45131 1.14165,-8.79136 1.39535,-12.55493 1.90274,-19.30277 4.43975,-45.78633 1.5222,-12.97323 1.14165,-8.02031 1.0148,-5.66624 0.88795,-3.71093 0.7611,-2.19678 0.63425,-1.11246 0.50739,-0.41161 0.38055,-0.0278 0.38055,0.21323 0.38055,0.45348 0.5074,0.97549 0.63425,1.80635 0.7611,3.0045 0.88795,4.60458 1.0148,6.6026 1.14165,8.93771 1.39535,12.69309 2.0296,20.75285 3.93234,40.74605 1.5222,13.37015 1.2685,9.2296 1.0148,5.86844 0.88795,3.90235 0.7611,2.36875 0.63425,1.25948 0.5074,0.53063 0.38055,0.11736 0.38055,-0.12369 0.38055,-0.36431 0.5074,-0.85773 0.63425,-1.662 0.63425,-2.30196 0.76109,-3.57513 0.88795,-5.227 1.14165,-8.23467 1.2685,-10.8499 1.64905,-16.09893 6.0888,-61.62785 1.2685,-9.82173 1.14164,-7.12072 0.88795,-4.26016 0.7611,-2.69169 0.63425,-1.5366 0.5074,-0.75564 0.38055,-0.28712 0.38055,-0.0463 0.38055,0.19474 0.38055,0.43508 0.5074,0.95121 0.63425,1.77661 0.7611,2.97008 0.88795,4.56679 1.0148,6.56342 1.14165,8.89987 1.39534,12.65751 2.0296,20.72504 4.0592,41.97593 1.5222,13.22837 1.2685,9.07783 1.0148,5.72918 0.88795,3.77043 0.7611,2.25017 0.63424,1.15807 0.5074,0.4485 0.38055,0.0555 0.38055,-0.18551 0.38055,-0.42588 0.5074,-0.93905 0.63425,-1.76173 0.7611,-2.95285 0.88795,-4.54786 1.0148,-6.54377 1.14165,-8.88089 1.39535,-12.63961 2.0296,-20.71098 4.05919,-41.99368 1.5222,-13.24978 1.2685,-9.10067 1.0148,-5.7501 0.88795,-3.79022 0.7611,-2.26795 0.63425,-1.17325 0.5074,-0.4608 0.38055,-0.0648 0.38055,0.17626 0.38055,0.41668 0.5074,0.9269 0.63425,1.74683 0.76109,2.9356 0.88795,4.52891 1.0148,6.52409 1.14165,8.86186 1.39535,12.62165 2.0296,20.69682 4.0592,42.0112 1.5222,13.27112 1.26849,9.12347 1.0148,5.77099 0.88795,3.80999 0.7611,2.28571 0.63425,1.18844 0.5074,0.47309 0.38055,0.074 0.38055,-0.16701 0.38055,-0.40747 0.5074,-0.91475 0.63425,-1.73192 0.7611,-2.91834 0.88795,-4.50994 1.0148,-6.50437 1.14165,-8.84279 1.39534,-12.60363 2.0296,-20.68254 4.0592,-42.02851 1.5222,-13.29239 1.2685,-9.14621 1.0148,-5.79185 0.88794,-3.82975 0.76111,-2.30346 0.63424,-1.20361 0.5074,-0.48539 0.38055,-0.0833 0.38055,0.15777 0.38055,0.39826 0.5074,0.90258 0.63425,1.71701 0.7611,2.90106 0.88795,4.49094 1.0148,6.48463 1.14165,8.82367 1.39535,12.58553 1.90275,19.32645 4.31289,44.57709 1.5222,13.1272 1.14165,8.16553 1.0148,5.81268 0.88795,3.84948 0.7611,2.3212 0.63425,1.21879 0.5074,0.49766 0.38055,0.0925 0.38055,-0.14852 0.38055,-0.38905 0.5074,-0.89041 0.63425,-1.70209 0.76109,-2.88377 0.88795,-4.47191 1.0148,-6.46486 1.14165,-8.8045 1.39535,-12.56738 1.90275,-19.31242 4.43975,-45.77317 1.52219,-12.95801 1.14165,-8.00601 1.0148,-5.65186 0.88795,-3.69734 0.7611,-2.1846 0.5074,-0.93458 0.5074,-0.50995 0.38055,-0.10179 0.38055,0.13927 0.38055,0.37984 0.5074,0.87823 0.63425,1.68716 0.7611,2.86647 0.88795,4.45286 1.0148,6.44505 1.14165,8.78528 1.39534,12.54916 1.90275,19.2983 4.43975,45.79237 1.5222,12.98025 1.14165,8.02691 1.0148,5.67288 0.88794,3.71721 0.7611,2.20241 0.63425,1.11726 0.5074,0.4155 0.38055,0.0307 0.38055,-0.21032 0.38055,-0.45057 0.5074,-0.97165 0.63425,-1.80166 0.7611,-2.99906 0.88795,-4.59862 1.0148,-6.59641 1.14165,-8.93175 1.39535,-12.68749 2.02959,-20.74848 2.15645,-22.94121 v 0"
         style="fill:none;stroke:#ff7f0e;stroke-width:1.5;stroke-linecap:square;stroke-linejoin:round;stroke-miterlimit:10;stroke-dasharray:none;stroke-opacity:1"
         transform="matrix(2.3230044,0,0,-0.47181821,-253.94626,309.45944)"
         clip-path="url(#clipPath28)" />
      <path
         id="path29"
         d="m 115.36364,243.36712 0.7611,6.49397 0.88795,9.7361 1.14164,15.27904 1.7759,27.48634 2.41015,36.98461 1.14165,14.38411 0.88795,8.83052 0.7611,5.60353 0.63425,3.14506 0.5074,1.46634 0.38055,0.47285 0.2537,0.0143 0.2537,-0.22674 0.38055,-0.78996 0.5074,-1.88222 0.50739,-2.80465 0.63425,-4.74188 0.7611,-7.36234 1.0148,-12.26232 1.2685,-18.27105 4.3129,-64.96064 1.0148,-11.02803 0.7611,-6.25883 0.63425,-3.73345 0.5074,-1.95555 0.38055,-0.84604 0.2537,-0.26441 0.2537,-0.0235 0.25369,0.21749 0.38056,0.7762 0.38054,1.31038 0.5074,2.55967 0.63425,4.45269 0.7611,7.04856 0.88795,10.28822 1.2685,17.69555 2.41015,38.0402 1.64905,24.29372 1.14165,13.74737 0.88795,8.20792 0.7611,5.00305 0.50739,2.20638 0.5074,1.26526 0.38055,0.32015 0.2537,-0.0878 0.2537,-0.32853 0.38055,-0.94144 0.5074,-2.08006 0.63425,-3.88239 0.7611,-6.42341 0.88795,-9.66515 1.14165,-15.21042 1.64905,-25.40752 2.537,-39.08044 1.14165,-14.46055 0.88794,-8.90636 0.7611,-5.6773 0.63425,-3.21093 0.5074,-1.52091 0.38055,-0.51435 0.2537,-0.042 0.2537,0.19901 0.38055,0.74865 0.38055,1.28326 0.5074,2.52453 0.63425,4.41107 0.7611,7.00322 0.88795,10.24347 1.2685,17.65031 2.2833,36.02368 1.7759,26.34135 1.14164,13.80191 0.88795,8.26066 0.7611,5.05357 0.5074,2.24197 0.5074,1.3018 0.38055,0.34786 0.2537,-0.0693 0.2537,-0.31008 0.38055,-0.914 0.5074,-2.04427 0.63425,-3.83962 0.7611,-6.37619 0.88795,-9.61761 1.14165,-15.16428 1.64905,-25.37641 2.53699,-39.12123 1.14165,-14.51114 0.88795,-8.95668 0.7611,-5.72633 0.63425,-3.25477 0.5074,-1.55723 0.38055,-0.54201 0.2537,-0.0605 0.2537,0.18052 0.38055,0.7211 0.38055,1.25611 0.5074,2.48932 0.63425,4.36937 0.7611,6.95774 0.88795,10.19849 1.14165,15.71926 1.90275,29.79794 2.02959,31.00535 1.14165,14.53632 0.88795,8.98179 0.7611,5.75079 0.63425,3.27666 0.5074,1.57539 0.38055,0.55583 0.2537,0.0698 0.2537,-0.17128 0.38055,-0.70731 0.38055,-1.24253 0.5074,-2.4717 0.63425,-4.34848 0.7611,-6.93496 0.88795,-10.17592 1.14164,-15.69807 1.90275,-29.78562 2.15645,-32.78206 1.14165,-14.22855 0.88795,-8.67694 0.7611,-5.45459 0.63425,-3.01229 0.5074,-1.35655 0.38055,-0.38943 0.2537,0.0415 0.2537,0.28239 0.38055,0.87281 0.5074,1.99051 0.63425,3.7753 0.7611,6.30513 0.88795,9.54592 1.14164,15.09449 1.64905,25.32876 2.66385,40.93973 1.14165,14.25455 0.88795,8.70254 0.7611,5.47938 0.63425,3.03436 0.5074,1.37479 0.38055,0.40327 0.2537,-0.0323 0.2537,-0.27316 0.38055,-0.85907 0.5074,-1.97256 0.63425,-3.75383 0.76109,-6.28138 0.88795,-9.52192 1.14165,-15.07107 1.64905,-25.31261 2.66385,-40.96154 1.14165,-14.28047 0.88795,-8.7281 0.7611,-5.50414 0.63425,-3.05642 0.5074,-1.39301 0.38055,-0.41713 0.2537,0.023 0.2537,0.26392 0.38054,0.84533 0.5074,1.95461 0.63425,3.73234 0.7611,6.25759 0.88795,9.49787 1.14165,15.04757 1.64905,25.29634 2.66385,40.98313 1.14165,14.30633 0.88795,8.7536 0.7611,5.52887 0.63425,3.07846 0.5074,1.41124 0.38054,0.43097 0.2537,-0.0138 0.2537,-0.25469 0.38055,-0.83158 0.5074,-1.93664 0.5074,-2.85713 0.63425,-4.80366 0.7611,-7.42906 1.0148,-12.33534 1.2685,-18.33117 4.3129,-64.86726 1.0148,-10.9457 0.76109,-6.18666 0.63425,-3.6683 0.5074,-1.90115 0.38055,-0.80444 0.2537,-0.23645 0.2537,0.005 0.2537,0.24545 0.38055,0.81783 0.5074,1.91867 0.5074,2.8398 0.63425,4.78327 0.7611,7.40705 1.0148,12.31128 1.2685,18.31139 4.31289,64.89846 1.0148,10.97297 0.7611,6.21054 0.63425,3.68985 0.5074,1.91913 0.38055,0.81819 0.2537,0.2457 0.2537,0.005 0.2537,-0.23621 0.38055,-0.80408 0.5074,-1.90068 0.5074,-2.82246 0.63425,-4.76285 0.7611,-7.385 1.0148,-12.28715 1.2685,-18.29153 4.31289,-64.92932 1.0148,-11.00018 0.7611,-6.23439 0.63425,-3.71138 0.5074,-1.93711 0.38055,-0.83194 0.2537,-0.25493 0.2537,-0.014 0.2537,0.22697 0.38055,0.79032 0.5074,1.88269 0.5074,2.8051 0.63425,4.74241 0.7611,7.36292 1.0148,12.26295 1.2685,18.27156 4.31289,64.95985 1.0148,11.02734 0.7611,6.2582 0.63425,3.7329 0.5074,1.95507 0.38055,0.84569 0.2537,0.26417 0.2537,0.0232 0.2537,-0.21773 0.38055,-0.77655 0.38055,-1.31074 0.5074,-2.56013 0.63425,-4.45323 0.7611,-7.04914 0.88795,-10.28881 1.2685,-17.69613 2.41014,-38.04039 1.64905,-24.29312 1.14165,-13.74666 0.88795,-8.20724 0.7611,-5.00238 0.5074,-2.20592 0.5074,-1.26478 0.38055,-0.3198 0.2537,0.088 0.2537,0.32877 0.38055,0.94179 0.5074,2.08053 0.63425,3.88294 0.7611,6.42402 0.88795,9.66577 1.14164,15.21102 1.64905,25.40792 2.537,39.07991 1.14165,14.45989 0.88795,8.9057 0.7611,5.67666 0.63425,3.21037 0.5074,1.52042 0.38055,0.514 0.2537,0.0418 0.2537,-0.19925 0.38055,-0.74901 0.38055,-1.28361 0.5074,-2.52499 0.63425,-4.41161 0.76109,-7.00381 0.88795,-10.24405 1.2685,-17.6509 2.2833,-36.0239 1.7759,-26.34074 1.14165,-13.8012 0.88795,-8.25997 0.7611,-5.05292 0.5074,-2.24151 0.5074,-1.30132 0.38055,-0.34751 0.2537,0.0695 0.2537,0.31032 0.38055,0.91435 0.50739,2.04474 0.63425,3.84017 0.7611,6.37681 0.88795,9.61823 1.14165,15.16488 1.64905,25.37682 2.537,39.1207 1.14165,14.51048 0.88795,8.95604 0.7611,5.72569 0.63425,3.2542 0.50739,1.55676 0.38056,0.54165 0.25369,0.0603 0.2537,-0.18076 0.38055,-0.72146 0.38055,-1.25646 0.5074,-2.48978 0.63425,-4.36992 0.7611,-6.95833 0.88795,-10.19908 1.14165,-15.71981 1.90275,-29.79825 2.0296,-31.00482 1.14165,-14.53567 0.88795,-8.98113 0.76109,-5.75016 0.63426,-3.2761 0.50739,-1.57491 0.38055,-0.55547 0.2537,-0.0695 0.2537,0.17152 0.38055,0.70767 0.38055,1.24288 0.5074,2.47216 0.63425,4.34903 0.7611,6.93554 0.88795,10.17651 1.14165,15.69863 1.90275,29.78593 2.15645,32.78149 1.14165,14.22787 0.88794,8.67627 0.7611,5.45394 0.63425,3.01172 0.5074,1.35607 0.38055,0.38907 0.2537,-0.0418 0.2537,-0.28263 0.38055,-0.87317 0.5074,-1.99097 0.63425,-3.77587 0.7611,-6.30574 0.88795,-9.54654 1.14165,-15.0951 1.64905,-25.32918 2.66384,-40.93916 1.14165,-14.25388 0.88795,-8.70187 0.7611,-5.47873 0.63425,-3.03379 0.5074,-1.37431 0.38055,-0.40292 0.2537,0.0325 0.2537,0.2734 0.38055,0.85943 0.5074,1.97303 0.63425,3.75439 0.7611,6.28199 0.88795,9.52254 1.14165,15.07168 1.64905,25.31304 2.66384,40.96097 1.14165,14.2798 0.88795,8.72743 0.7611,5.5035 0.63425,3.05584 0.5074,1.39255 0.38055,0.41676 0.2537,-0.0232 0.2537,-0.26417 0.38055,-0.84569 0.5074,-1.95507 0.63425,-3.7329 0.7611,-6.2582 0.88795,-9.4985 1.14165,-15.04819 1.64904,-25.29676 2.66385,-40.98257 1.14165,-14.30566 0.88795,-8.75294 0.7611,-5.52823 0.63425,-3.07788 0.5074,-1.41077 0.38055,-0.43061 0.2537,0.014 0.2537,0.25493 0.38055,0.83194 0.5074,1.93711 0.5074,2.85758 0.63425,4.80418 0.7611,7.42964 1.01479,12.33597 1.2685,18.33167 4.3129,64.86645 1.0148,10.94499 0.7611,6.18604 0.63425,3.66774 0.5074,1.90068 0.38055,0.80408 0.2537,0.23621 0.2537,-0.005 0.2537,-0.2457 0.38055,-0.81819 0.5074,-1.91913 0.5074,-2.84026 0.63425,-4.78379 0.76109,-7.40762 1.0148,-12.31191 1.2685,-18.3119 4.3129,-64.89766 1.0148,-10.97226 0.7611,-6.20992 0.63425,-3.68929 0.5074,-1.91867 0.38055,-0.81783 0.2537,-0.24545 0.2537,-0.005 0.2537,0.23645 0.38055,0.80444 0.50739,1.90115 0.5074,2.82291 0.63425,4.76338 0.7611,7.38558 1.0148,12.28777 1.2685,18.29204 4.3129,64.92853 1.0148,10.99947 0.7611,6.23377 0.63425,3.71083 0.5074,1.93664 0.38055,0.83158 0.2537,0.25469 0.25369,0.0138 0.25371,-0.22721 0.38054,-0.79067 0.5074,-1.88316 0.5074,-2.80555 0.63425,-4.74295 0.7611,-7.36349 1.0148,-12.26358 1.2685,-18.27209 4.3129,-64.95906 1.0148,-11.02662 0.7611,-6.25759 0.63425,-3.73234 0.50739,-1.95461 0.38055,-0.84533 0.2537,-0.26392 0.2537,-0.023 0.2537,0.21798 0.38055,0.77691 0.38055,1.31109 0.5074,2.56058 0.63425,4.45377 0.7611,7.04973 0.88795,10.28939 1.2685,17.69671 2.41015,38.04057 1.64905,24.29253 1.14164,13.74595 0.88796,8.20655 0.76109,5.00173 0.5074,2.20546 0.5074,1.2643 0.38055,0.31943 0.2537,-0.0883 0.2537,-0.329 0.38055,-0.94216 0.5074,-2.08099 0.63425,-3.8835 0.7611,-6.42463 0.88795,-9.66639 1.14165,-15.21162 1.64905,-25.40832 2.53699,-39.07937 1.14165,-14.45923 0.88795,-8.90505 0.7611,-5.67602 0.63425,-3.20979 0.5074,-1.51996 0.38055,-0.51363 0.2537,-0.0415 0.2537,0.19949 0.38055,0.74937 0.38055,1.28397 0.5074,2.52544 0.63425,4.41216 0.7611,7.0044 0.88795,10.24463 1.2685,17.65149 2.28329,36.02411 1.7759,26.34013 1.14165,13.8005 0.88795,8.25929 0.7611,5.05225 0.5074,2.24106 0.5074,1.30084 0.38055,0.34715 0.2537,-0.0698 0.2537,-0.31056 0.38055,-0.91471 0.5074,-2.04521 0.63425,-3.84072 0.7611,-6.37743 0.88795,-9.61884 1.14165,-15.16549 1.64905,-25.37722 2.53699,-39.12018 1.14165,-14.50983 0.88795,-8.95538 0.7611,-5.72505 0.63425,-3.25363 0.5074,-1.55629 0.38055,-0.54129 0.2537,-0.06 0.2537,0.181 0.38055,0.72181 0.38055,1.25682 0.5074,2.49024 0.63425,4.37046 0.7611,6.95892 0.88795,10.19966 1.14164,15.72036 1.90275,29.79858 2.0296,31.00429 1.14165,14.53502 0.88795,8.98048 0.7611,5.74952 0.63425,3.27553 0.5074,1.57444 0.38055,0.55511 0.2537,0.0693 0.2537,-0.17175 0.38055,-0.70803 0.38055,-1.24323 0.5074,-2.47262 0.63425,-4.34957 0.7611,-6.93614 0.88794,-10.1771 1.14165,-15.69918 1.90275,-29.78625 2.15645,-32.7809 1.14165,-14.2272 0.88795,-8.6756 0.7611,-5.4533 0.63425,-3.01114 0.5074,-1.3556 0.38055,-0.38871 0.2537,0.042 0.2537,0.28287 0.38055,0.87353 0.5074,1.99144 0.63425,3.77642 0.76109,6.30636 0.88795,9.54717 1.14165,15.0957 1.64905,25.32959 2.66385,40.9386 1.14165,14.2532 0.88795,8.7012 0.7611,5.4781 0.63425,3.03321 0.5074,1.37384 0.38055,0.40256 0.25369,-0.0328 0.25371,-0.27364 0.38055,-0.85979 0.50739,-1.97349 0.63425,-3.75495 0.7611,-6.28261 0.88795,-9.52317 1.14165,-15.07229 1.64905,-25.31346 2.66385,-40.96041 1.14165,-14.27913 0.88795,-8.72676 0.7611,-5.50286 0.63425,-3.05527 0.5074,-1.39207 0.38054,-0.4164 0.2537,0.0235 0.2537,0.26441 0.38055,0.84604 0.5074,1.95555 0.63425,3.73345 0.7611,6.25883 0.88795,9.49912 1.14165,15.0488 1.64905,25.29718 2.66385,40.98202 1.14165,14.30498 0.88794,8.75228 0.76111,5.52759 0.63424,3.07731 0.5074,1.4103 0.38055,0.43025 0.2537,-0.0143 0.2537,-0.25516 0.38055,-0.8323 0.5074,-1.93758 0.5074,-2.85803 0.63425,-4.80471 0.7611,-7.43021 1.0148,-12.33659 1.2685,-18.33219 4.31289,-64.86563 1.0148,-10.94429 0.63425,-5.28578 v 0"
         style="fill:none;stroke:#2ca02c;stroke-width:1.5;stroke-linecap:square;stroke-linejoin:round;stroke-miterlimit:10;stroke-dasharray:none;stroke-opacity:1"
         transform="matrix(2.3230044,0,0,-0.47181821,-253.95096,432.53506)"
         clip-path="url(#clipPath30)" />
      <path
         id="path31"
         d="m 115.36364,241.7226 0.5074,-3.59645 0.38055,-1.61524 0.2537,-0.54775 0.25369,-0.12011 0.25371,0.30828 0.2537,0.73473 0.38054,1.89099 0.5074,3.94927 0.63425,7.08628 0.7611,11.28137 1.0148,18.69038 3.8055,74.83045 0.7611,9.65578 0.63425,5.51541 0.5074,2.59455 0.38055,0.83975 0.2537,0.0253 0.2537,-0.40287 0.38055,-1.40095 0.38055,-2.33846 0.50739,-4.51782 0.63425,-7.73211 0.88795,-14.15597 1.14165,-22.27785 2.91755,-58.82698 0.88795,-13.00787 0.63425,-6.7349 0.5074,-3.64293 0.38055,-1.6515 0.2537,-0.57229 0.2537,-0.14477 0.2537,0.28363 0.2537,0.71029 0.38055,1.85498 0.5074,3.9033 0.63425,7.0337 0.7611,11.2281 1.01479,18.64076 3.93235,76.73637 0.7611,9.19348 0.63425,5.07978 0.5074,2.22512 0.2537,0.47794 0.2537,0.05 0.2537,-0.37826 0.38055,-1.36449 0.38055,-2.303 0.5074,-4.47294 0.63425,-7.68144 0.88795,-14.09862 1.14165,-22.23353 2.91754,-58.88654 0.88795,-13.07032 0.63425,-6.78828 0.5074,-3.68934 0.38055,-1.68771 0.38055,-0.73509 0.2537,0.0448 0.2537,0.47277 0.38055,1.50441 0.5074,3.45413 0.63425,6.51717 0.7611,10.70038 1.0148,18.14046 1.7759,37.14085 1.5222,30.05195 0.88795,13.88791 0.76109,8.71997 0.5074,3.91296 0.5074,2.27337 0.2537,0.5025 0.2537,0.0747 0.2537,-0.35364 0.2537,-0.77975 0.38055,-1.95721 0.5074,-4.03372 0.63425,-7.18274 0.7611,-11.3789 1.0148,-18.78076 3.8055,-74.68534 0.7611,-9.54601 0.63425,-5.41158 0.50739,-2.50626 0.38055,-0.77193 0.2537,0.0201 0.2537,0.44819 0.38055,1.46803 0.5074,3.40735 0.63425,6.4631 0.7611,10.64468 1.0148,18.08678 1.7759,37.1165 1.5222,30.10502 0.88795,13.9463 0.7611,8.78222 0.63425,4.69576 0.38055,1.5847 0.2537,0.52707 0.2537,0.0993 0.2537,-0.32902 0.2537,-0.75532 0.38055,-1.92127 0.50739,-3.98791 0.63425,-7.13043 0.7611,-11.32605 1.0148,-18.73186 3.8055,-74.76477 0.7611,-9.60569 0.63425,-5.46799 0.5074,-2.55421 0.38055,-0.80877 0.2537,-0.005 0.2537,0.42359 0.38055,1.43163 0.38055,2.36829 0.5074,4.55553 0.63425,7.77464 0.88794,14.20402 1.14165,22.31482 2.91755,58.77588 0.88795,12.95509 0.63425,6.68984 0.5074,3.6038 0.38055,1.62097 0.2537,0.55163 0.2537,0.12401 0.2537,-0.30439 0.2537,-0.73087 0.38055,-1.8853 0.5074,-3.94201 0.63425,-7.07798 0.7611,-11.27298 1.0148,-18.68256 3.80549,-74.84265 0.7611,-9.66516 0.63425,-5.52431 0.5074,-2.60211 0.38055,-0.84557 0.2537,-0.0292 0.2537,0.39898 0.38055,1.39519 0.38055,2.33286 0.5074,4.51074 0.63425,7.72411 0.88795,14.14693 1.14165,22.27088 2.91754,58.83646 0.88795,13.01776 0.63425,6.74335 0.5074,3.65027 0.38055,1.65721 0.2537,0.57617 0.2537,0.14867 0.2537,-0.27974 0.2537,-0.70642 0.38055,-1.84929 0.5074,-3.89602 0.63425,-7.02538 0.7611,-11.21967 1.0148,-18.63288 3.93235,-76.74977 0.7611,-9.2031 0.63425,-5.0888 0.50739,-2.23275 0.2537,-0.48182 0.2537,-0.0539 0.2537,0.37437 0.38055,1.35872 0.38055,2.2974 0.5074,4.46584 0.63425,7.67342 0.88795,14.08954 1.14165,22.22648 2.91755,58.89584 0.88795,13.08016 0.63425,6.7967 0.5074,3.69667 0.38055,1.69343 0.38055,0.74091 0.2537,-0.0409 0.2537,-0.46889 0.38054,-1.49866 0.5074,-3.44674 0.63425,-6.50865 0.7611,-10.69159 1.0148,-18.132 1.7759,-37.13706 1.5222,-30.06037 0.88795,-13.89716 0.7611,-8.72982 0.5074,-3.92022 0.5074,-2.28098 0.2537,-0.50639 0.2537,-0.0786 0.2537,0.34975 0.2537,0.77589 0.38055,1.95153 0.5074,4.02649 0.63425,7.17449 0.7611,11.37055 1.01479,18.77307 3.8055,74.69799 0.7611,9.55545 0.63425,5.4205 0.5074,2.51384 0.38055,0.77776 0.2537,-0.0162 0.2537,-0.4443 0.38055,-1.46228 0.5074,-3.39995 0.63425,-6.45455 0.7611,-10.63586 1.0148,-18.07826 1.77589,-37.11258 1.5222,-30.11335 0.88795,-13.95551 0.7611,-8.79202 0.63425,-4.7049 0.38055,-1.59043 0.2537,-0.53095 0.2537,-0.10324 0.2537,0.32513 0.2537,0.75145 0.38055,1.9156 0.5074,3.98066 0.63425,7.12216 0.7611,11.31767 1.0148,18.7241 3.80549,74.77718 0.7611,9.61509 0.63425,5.4769 0.5074,2.56179 0.38055,0.81458 0.2537,0.008 0.2537,-0.4197 0.38055,-1.42587 0.38055,-2.36269 0.5074,-4.54846 0.63425,-7.76667 0.88795,-14.19502 1.14165,-22.30791 2.91755,-58.78554 0.88795,-12.965 0.63425,-6.69831 0.50739,-3.61114 0.38055,-1.6267 0.2537,-0.55551 0.2537,-0.1279 0.2537,0.30049 0.2537,0.72701 0.38055,1.87961 0.5074,3.93475 0.63425,7.06968 0.7611,11.26457 1.0148,18.67474 3.8055,74.85482 0.7611,9.67453 0.63425,5.5332 0.5074,2.60967 0.38055,0.85138 0.25369,0.0331 0.25371,-0.3951 0.38054,-1.38943 0.38056,-2.32726 0.50739,-4.50365 0.63425,-7.71611 0.88795,-14.13788 1.14165,-22.26389 2.91755,-58.84593 0.88795,-13.02764 0.63425,-6.75178 0.5074,-3.65761 0.38055,-1.66294 0.38055,-0.70989 0.2537,0.0617 0.2537,0.48958 0.38055,1.52928 0.5074,3.48608 0.63424,6.55409 0.7611,10.73834 1.0148,18.17697 1.7759,37.15706 1.5222,30.0153 0.88795,13.8478 0.7611,8.67729 0.5074,3.88148 0.5074,2.24038 0.2537,0.4857 0.2537,0.0578 0.2537,-0.37049 0.38055,-1.35295 0.38055,-2.29178 0.5074,-4.45874 0.63425,-7.6654 0.88795,-14.08045 1.14164,-22.21942 2.91755,-58.90511 0.88795,-13.09 0.63425,-6.80512 0.5074,-3.70399 0.38055,-1.69914 0.38055,-0.74674 0.2537,0.037 0.2537,0.46501 0.38055,1.49292 0.5074,3.43935 0.63425,6.5001 0.7611,10.6828 1.0148,18.12354 1.7759,37.13324 1.52219,30.06879 0.88795,13.90639 0.7611,8.73966 0.5074,3.92749 0.5074,2.2886 0.2537,0.51027 0.2537,0.0825 0.2537,-0.34586 0.2537,-0.77203 0.38055,-1.94586 0.5074,-4.01925 0.63425,-7.16623 0.7611,-11.36222 1.0148,-18.76535 3.8055,-74.71061 0.76109,-9.56489 0.63425,-5.42942 0.5074,-2.52142 0.38055,-0.78357 0.2537,0.0123 0.2537,0.44041 0.38055,1.45653 0.5074,3.39255 0.63425,6.44599 0.7611,10.62703 1.0148,18.06974 1.7759,37.10865 1.5222,30.12166 0.88795,13.9647 0.7611,8.80184 0.63425,4.71402 0.38054,1.59616 0.25371,0.53484 0.25369,0.10713 0.2537,-0.32123 0.25371,-0.7476 0.38054,-1.90991 0.5074,-3.97341 0.63425,-7.11388 0.7611,-11.3093 1.0148,-18.71632 3.8055,-74.78955 0.7611,-9.6245 0.63425,-5.48581 0.5074,-2.56935 0.38055,-0.82039 0.2537,-0.0123 0.2537,0.41581 0.38055,1.42012 0.38055,2.3571 0.50739,4.54138 0.63426,7.75869 0.88794,14.18602 1.14165,22.30098 2.91755,58.79516 0.88795,12.97492 0.63425,6.70676 0.5074,3.61849 0.38055,1.63243 0.2537,0.55939 0.2537,0.1318 0.2537,-0.2966 0.2537,-0.72315 0.38055,-1.87392 0.5074,-3.92749 0.63425,-7.06138 0.7611,-11.25615 1.01479,-18.66691 3.8055,-74.86694 0.7611,-9.68391 0.63425,-5.54207 0.5074,-2.61724 0.38055,-0.8572 0.2537,-0.037 0.2537,0.39121 0.38055,1.38367 0.38055,2.32166 0.5074,4.49655 0.63425,7.70811 0.88795,14.12883 1.14165,22.2569 2.91754,58.85536 0.88795,13.03751 0.63425,6.76022 0.5074,3.66494 0.38055,1.66866 0.38055,0.71571 0.2537,-0.0578 0.2537,-0.4857 0.38055,-1.52354 0.5074,-3.4787 0.63425,-6.54556 0.7611,-10.72959 1.0148,-18.16854 1.7759,-37.15336 1.5222,-30.02379 0.88794,-13.85707 0.7611,-8.68716 0.5074,-3.88876 0.5074,-2.248 0.2537,-0.48958 0.2537,-0.0617 0.2537,0.3666 0.38055,1.34719 0.38055,2.28617 0.5074,4.45164 0.63425,7.65737 0.88795,14.07134 1.14165,22.21235 2.91755,58.91435 0.88795,13.09983 0.63425,6.81353 0.5074,3.71132 0.38054,1.70486 0.38055,0.75256 0.2537,-0.0331 0.2537,-0.46112 0.38055,-1.48717 0.5074,-3.43196 0.63425,-6.49156 0.7611,-10.674 1.0148,-18.11507 1.7759,-37.1294 1.5222,-30.07719 0.88795,-13.91562 0.7611,-8.7495 0.63425,-4.66536 0.38055,-1.5656 0.2537,-0.51415 0.2537,-0.0864 0.2537,0.34197 0.2537,0.76817 0.38054,1.94018 0.50741,4.01201 0.63424,7.15797 0.7611,11.35387 1.0148,18.75764 3.8055,74.72318 0.7611,9.57432 0.63425,5.43834 0.5074,2.52899 0.38055,0.78939 0.2537,-0.008 0.2537,-0.43653 0.38055,-1.45078 0.5074,-3.38515 0.63425,-6.43742 0.76109,-10.61821 1.0148,-18.0612 1.7759,-37.10469 1.5222,-30.12996 0.88795,-13.97388 0.7611,-8.81165 0.63425,-4.72315 0.38055,-1.6019 0.2537,-0.53871 0.2537,-0.11103 0.2537,0.31734 0.2537,0.74374 0.38055,1.90423 0.5074,3.96616 0.63425,7.10559 0.7611,11.30092 1.0148,18.70854 3.80549,74.80188 0.7611,9.6339 0.63425,5.4947 0.5074,2.57692 0.38055,0.82621 0.2537,0.0162 0.2537,-0.41193 0.38055,-1.41436 0.38055,-2.3515 0.5074,-4.53431 0.63425,-7.75071 0.88795,-14.17699 1.14165,-22.29405 2.91754,-58.80476 0.88795,-12.98482 0.63425,-6.71522 0.5074,-3.62584 0.38055,-1.63815 0.2537,-0.56326 0.2537,-0.1357 0.2537,0.2927 0.2537,0.71929 0.38055,1.86823 0.5074,3.92022 0.63425,7.05307 0.7611,11.24773 1.0148,18.65907 3.8055,74.87903 0.76109,9.69328 0.63425,5.55095 0.50741,2.6248 0.38054,0.86301 0.2537,0.0409 0.2537,-0.38732 0.38055,-1.3779 0.38055,-2.31606 0.5074,-4.48947 0.63425,-7.7001 0.88795,-14.11976 1.14165,-22.24989 2.91755,-58.86476 0.88795,-13.04738 0.63425,-6.76865 0.5074,-3.67227 0.38055,-1.67439 0.38055,-0.72153 0.2537,0.0539 0.25369,0.48182 0.38055,1.51779 0.5074,3.47132 0.63425,6.53704 0.7611,10.72082 1.0148,18.16012 1.7759,37.14962 1.5222,30.03227 0.88795,13.86634 0.7611,8.69703 0.5074,3.89602 0.5074,2.25562 0.2537,0.49347 0.2537,0.0656 0.2537,-0.3627 0.38055,-1.34142 0.38055,-2.28056 0.5074,-4.44454 0.63424,-7.64934 0.88795,-14.06223 1.14165,-22.20527 2.91755,-58.92356 0.88795,-13.10965 0.63425,-6.82194 0.5074,-3.71864 0.38055,-1.71057 0.38055,-0.75838 0.2537,0.0292 0.2537,0.45724 0.38055,1.48142 0.5074,3.42457 0.63425,6.48302 0.7611,10.6652 1.0148,18.10658 1.77589,37.12555 1.5222,30.08556 0.88795,13.92485 0.7611,8.75933 0.63425,4.67449 0.38055,1.57134 0.2537,0.51804 0.2537,0.0903 0.2537,-0.33808 0.2537,-0.76431 0.38055,-1.93451 0.5074,-4.00477 0.63425,-7.1497 0.7611,-11.34553 1.0148,-18.7499 3.80549,-74.73572 0.7611,-9.58374 0.63425,-5.44725 0.5074,-2.53657 0.38055,-0.79522 0.2537,0.005 0.2537,0.43265 0.38055,1.44502 0.5074,3.37775 0.63425,6.42885 0.7611,10.60937 1.0148,18.05266 1.7759,37.10072 1.5222,30.13824 0.88794,13.98306 0.76111,8.82145 0.63424,4.73227 0.38055,1.60763 0.2537,0.54259 0.2537,0.11493 0.2537,-0.31345 0.2537,-0.73987 0.38055,-1.89855 0.5074,-3.9589 0.63425,-7.09731 0.7611,-11.29253 1.0148,-18.70075 3.8055,-74.81417 0.7611,-9.6433 0.63425,-5.50359 0.5074,-2.58449 0.38054,-0.83203 0.2537,-0.0201 0.2537,0.40804 0.38056,1.4086 0.38054,2.3459 0.5074,4.52723 0.63425,7.74272 0.88795,14.16798 1.14165,22.2871 2.91755,58.81431 0.88795,12.99473 0.63425,6.72367 0.5074,3.63318 0.38055,1.64388 0.2537,0.56714 0.2537,0.1396 0.2537,-0.28881 0.2537,-0.71542 0.38055,-1.86255 0.5074,-3.91296 0.63424,-7.04475 0.7611,-11.23931 1.0148,-18.65121 3.93235,-76.7185 0.7611,-9.18069 0.63425,-5.06778 0.5074,-2.21499 0.2537,-0.47277 0.2537,-0.0448 0.2537,0.38343 0.38055,1.37214 0.38055,2.31045 0.5074,4.48237 0.63425,7.6921 0.88795,14.11069 1.14164,22.24287 2.91755,58.87413 0.88795,13.05723 0.63425,6.77709 0.5074,3.6796 0.38055,1.6801 0.38055,0.72736 0.2537,-0.05 0.2537,-0.47794 0.38055,-1.51204 0.5074,-3.46394 0.63425,-6.52852 0.7611,-10.71204 1.0148,-18.15169 1.77589,-37.14587 1.5222,-30.04073 0.88795,-13.8756 0.7611,-8.70688 0.5074,-3.9033 0.5074,-2.26324 0.2537,-0.49735 0.2537,-0.0695 0.2537,0.35881 0.38055,1.33566 0.38055,2.27495 0.5074,4.43742 0.63425,7.64131 0.88795,14.05311 1.14165,22.19818 2.91755,58.93274 0.88795,13.11946 0.63424,6.83036 0.5074,3.72595 0.38055,1.71629 0.38055,0.7642 0.2537,-0.0253 0.2537,-0.45335 0.38055,-1.47567 0.5074,-3.41718 0.63425,-6.47447 0.7611,-10.65639 1.0148,-18.09808 1.7759,-37.12168 1.5222,-30.09393 0.88795,-13.93407 0.7611,-8.76915 0.63424,-4.68363 0.38055,-1.57708 0.2537,-0.52191 0.2537,-0.0942 0.2537,0.33419 0.2537,0.76045 0.38055,1.92882 0.38055,2.8496 v 0"
         style="fill:none;stroke:#d62728;stroke-width:1.5;stroke-linecap:square;stroke-linejoin:round;stroke-miterlimit:10;stroke-dasharray:none;stroke-opacity:1"
         transform="matrix(2.3230044,0,0,-0.47181821,-253.94335,555.61015)"
         clip-path="url(#clipPath32)" />
      <path
         id="path33"
         d="m 115.36364,286.61775 1.14165,-26.7714 0.7611,-13.286 0.63424,-7.2503 0.38055,-2.47048 0.2537,-0.82551 0.2537,-0.15802 0.2537,0.511 0.2537,1.17506 0.38055,2.98092 0.5074,6.13916 0.63425,10.80115 0.88795,19.73599 3.42495,82.17647 0.63425,8.46708 0.5074,4.02938 0.38055,1.31037 0.12685,0.10349 0.12685,-0.0639 0.2537,-0.62908 0.38055,-2.18211 0.38055,-3.62345 0.50739,-6.93195 0.63425,-11.64671 0.88795,-20.55961 2.91755,-72.03888 0.7611,-11.94868 0.5074,-5.06586 0.38055,-2.12441 0.2537,-0.58985 0.12685,-0.0442 0.12685,0.12317 0.2537,0.74694 0.38055,2.35527 0.5074,5.35694 0.63425,9.94919 0.7611,15.88753 1.2685,32.31171 1.64904,41.51536 0.88795,16.70711 0.63425,7.9502 0.5074,3.57507 0.2537,0.80497 0.2537,0.13734 0.2537,-0.53164 0.2537,-1.19544 0.38055,-3.01056 0.5074,-6.17598 0.63425,-10.84084 0.88795,-19.77554 3.2981,-80.00607 0.63425,-9.13608 0.5074,-4.62384 0.38055,-1.77574 0.2537,-0.35346 0.12685,0.0743 0.2537,0.64967 0.38055,2.2124 0.5074,5.17697 0.63424,9.75083 0.7611,15.70415 1.14165,28.7923 1.90275,47.82996 0.7611,14.19143 0.63425,8.16471 0.5074,3.76312 0.2537,0.90198 0.2537,0.23509 0.12685,-0.13351 0.2537,-0.76751 0.38055,-2.38544 0.5074,-5.39488 0.63425,-9.99089 0.7611,-15.92593 1.2685,-32.33945 1.64904,-41.47712 0.88795,-16.65605 0.63425,-7.90459 0.5074,-3.53518 0.2537,-0.78442 0.12685,-0.14202 0.12685,0.0254 0.2537,0.55227 0.2537,1.2158 0.38055,3.04018 0.5074,6.21274 0.63425,10.88043 0.88795,19.81491 3.2981,79.94717 0.63425,9.09259 0.5074,4.58496 0.38055,1.74519 0.2537,0.33279 0.12685,-0.0846 0.2537,-0.67027 0.38055,-2.24267 0.50739,-5.21514 0.63425,-9.79298 0.7611,-15.74323 1.2685,-32.20567 1.64905,-41.65446 0.88795,-16.89598 0.63425,-8.11946 0.5074,-3.72339 0.2537,-0.88147 0.2537,-0.21441 0.2537,0.45474 0.2537,1.11947 0.38055,2.89997 0.5074,6.0385 0.63425,10.69248 0.88795,19.62725 3.42494,82.35318 0.63425,8.5886 0.5074,4.13682 0.38055,1.39419 0.12685,0.13168 0.12685,-0.0357 0.2537,-0.57289 0.2537,-1.23615 0.38055,-3.06977 0.5074,-6.24944 0.63425,-10.91991 0.88795,-19.85409 3.2981,-79.88754 0.63425,-9.04902 0.5074,-4.54604 0.38055,-1.71461 0.2537,-0.31213 0.12685,0.095 0.2537,0.69086 0.38055,2.27292 0.50739,5.25327 0.63425,9.83503 0.7611,15.78216 1.2685,32.23454 1.64905,41.61766 0.88795,16.8455 0.63425,8.07413 0.5074,3.68363 0.2537,0.86095 0.2537,0.19372 0.2537,-0.47539 0.2537,-1.13987 0.38055,-2.92969 0.5074,-6.07548 0.63425,-10.73243 0.88795,-19.6673 3.42494,-82.28902 0.63425,-8.54408 0.5074,-4.09744 0.38055,-1.36345 0.12685,-0.12134 0.12685,0.0461 0.2537,0.5935 0.2537,1.25649 0.38055,3.09934 0.5074,6.28609 0.63425,10.95929 0.88795,19.89309 3.2981,79.82715 0.63425,9.00536 0.5074,4.50708 0.38055,1.68403 0.2537,0.29145 0.12685,-0.10532 0.2537,-0.71144 0.38054,-2.30315 0.50741,-5.29134 0.63424,-9.87699 0.7611,-15.82095 1.2685,-32.26311 1.64905,-41.58046 0.88795,-16.79487 0.63425,-8.02872 0.5074,-3.64383 0.2537,-0.84042 0.2537,-0.17304 0.2537,0.49603 0.2537,1.16026 0.38055,2.95939 0.5074,6.11239 0.63425,10.7723 0.88795,19.70716 3.42494,82.22408 0.63425,8.49949 0.5074,4.05802 0.38055,1.3327 0.12685,0.11099 0.12685,-0.0564 0.2537,-0.61412 0.38055,-2.16011 0.38055,-3.6024 0.5074,-6.90616 0.63425,-11.6195 0.88795,-20.53377 2.91755,-72.07522 0.7611,-11.98494 0.5074,-5.09368 0.38055,-2.14642 0.2537,-0.60481 0.12685,-0.0517 0.12685,0.11567 0.2537,0.73201 0.38054,2.33336 0.5074,5.32937 0.63425,9.91886 0.7611,15.85959 1.2685,32.29137 1.64905,41.54288 0.88795,16.74408 0.63425,7.98325 0.5074,3.604 0.2537,0.81988 0.2537,0.15235 0.2537,-0.51666 0.2537,-1.18065 0.38055,-2.98906 0.5074,-6.14925 0.63425,-10.81205 0.88795,-19.74686 3.29809,-80.04834 0.63425,-9.1676 0.5074,-4.65202 0.38055,-1.79791 0.2537,-0.36846 0.12685,0.0668 0.2537,0.63472 0.38055,2.19042 0.38055,3.6314 0.5074,6.94168 0.63425,11.65698 0.88795,20.56934 2.91755,72.02506 0.7611,11.93497 0.5074,5.05535 0.38055,2.11608 0.2537,0.5842 0.12685,0.0414 0.12685,-0.12601 0.25369,-0.75258 0.38055,-2.36355 0.5074,-5.36735 0.63425,-9.96063 0.7611,-15.89808 1.2685,-32.31934 1.64905,-41.50491 0.88795,-16.69313 0.63425,-7.9377 0.5074,-3.56414 0.2537,-0.79933 0.2537,-0.13166 0.2537,0.53729 0.2537,1.20102 0.38055,3.01869 0.5074,6.18606 0.63425,10.85171 0.88795,19.78636 3.29809,79.98999 0.63425,9.12416 0.5074,4.61318 0.38055,1.76737 0.2537,0.34779 0.12685,-0.0771 0.2537,-0.65532 0.38055,-2.22071 0.5074,-5.18743 0.63425,-9.7624 0.7611,-15.71488 1.14165,-28.80014 1.90275,-47.81855 0.7611,-14.1793 0.63425,-8.15231 0.5074,-3.75222 0.2537,-0.89636 0.2537,-0.22942 0.12685,0.13634 0.25369,0.77315 0.38055,2.39371 0.5074,5.40528 0.63425,10.00231 0.7611,15.93642 1.2685,32.34702 1.64905,41.46655 0.7611,14.63439 0.63425,8.62087 0.5074,4.16537 0.38055,1.41649 0.12685,0.13918 0.12685,-0.0282 0.2537,-0.55792 0.2537,-1.22138 0.38055,-3.0483 0.5074,-6.22281 0.63425,-10.89126 0.88795,-19.82568 3.29809,-79.93089 0.63425,-9.08065 0.5074,-4.57429 0.38055,-1.73681 0.2537,-0.32712 0.12685,0.0875 0.2537,0.67591 0.38055,2.25097 0.5074,5.2256 0.63425,9.80452 0.7611,15.75392 1.2685,32.21361 1.64905,41.64441 0.88795,16.88216 0.63425,8.10703 0.5074,3.71249 0.2537,0.87585 0.25369,0.20874 0.25371,-0.46041 0.2537,-1.12506 0.38054,-2.90813 0.5074,-6.04864 0.63425,-10.70345 0.88795,-19.63825 3.42495,-82.33566 0.63425,-8.5764 0.5074,-4.12603 0.38055,-1.38576 0.12685,-0.12884 0.12685,0.0386 0.2537,0.57854 0.2537,1.24174 0.38055,3.07788 0.5074,6.2595 0.63425,10.93071 0.88795,19.86481 3.29809,79.87105 0.63425,9.03705 0.5074,4.53536 0.38055,1.70623 0.2537,0.30646 0.12685,-0.0978 0.2537,-0.6965 0.38055,-2.28121 0.5074,-5.26372 0.63425,-9.84654 0.7611,-15.79281 1.2685,-32.2424 1.64905,-41.6075 0.88795,-16.83163 0.63425,-8.06169 0.5074,-3.67272 0.25369,-0.85532 0.2537,-0.18805 0.2537,0.48105 0.25371,1.14546 0.38054,2.93784 0.5074,6.0856 0.63425,10.74338 0.88795,19.67825 3.42495,82.27128 0.63425,8.53187 0.5074,4.08663 0.38055,1.35502 0.12685,0.1185 0.12685,-0.0489 0.2537,-0.59916 0.38055,-2.1381 0.38055,-3.58134 0.5074,-6.88033 0.63425,-11.59224 0.88795,-20.50783 3.04439,-74.44285 0.63425,-9.6895 0.5074,-5.12146 0.38055,-2.16843 0.2537,-0.61976 0.12685,-0.0593 0.12685,0.10815 0.2537,0.71709 0.38055,2.31143 0.5074,5.30178 0.63425,9.88848 0.7611,15.83155 1.2685,32.27089 1.64905,41.5702 0.88795,16.78095 0.63425,8.01627 0.50739,3.63291 0.25371,0.83479 0.25369,0.16736 0.2537,-0.50168 0.25371,-1.16586 0.38054,-2.96752 0.5074,-6.12251 0.63425,-10.78321 0.88795,-19.71807 3.42495,-82.20613 0.63425,-8.48725 0.5074,-4.0472 0.38055,-1.32427 0.12685,-0.10815 0.12685,0.0593 0.2537,0.61976 0.38055,2.16843 0.38055,3.61036 0.5074,6.9159 0.63425,11.62979 0.88795,20.54355 2.91754,72.06153 0.7611,11.97124 0.5074,5.08318 0.38055,2.1381 0.2537,0.59916 0.12685,0.0489 0.12685,-0.1185 0.2537,-0.73766 0.38055,-2.34163 0.5074,-5.3398 0.63425,-9.93032 0.7611,-15.87015 1.2685,-32.29908 1.64905,-41.53251 0.88795,-16.73012 0.63425,-7.97076 0.50739,-3.59308 0.2537,-0.81424 0.2537,-0.14668 0.2537,0.52232 0.2537,1.18624 0.38055,2.99718 0.5074,6.15935 0.63425,10.82294 0.88795,19.7577 3.2981,80.03242 0.63425,9.15569 0.5074,4.64138 0.38055,1.78954 0.2537,0.36279 0.12685,-0.0696 0.2537,-0.64037 0.38055,-2.19872 0.38055,-3.63935 0.5074,-6.95141 0.7611,-14.34321 1.01479,-24.39887 2.41015,-60.52992 0.7611,-13.48021 0.63425,-7.44456 0.38055,-2.59598 0.2537,-0.91125 0.2537,-0.24443 0.12685,0.12884 0.2537,0.75823 0.38055,2.37181 0.5074,5.37776 0.63425,9.97207 0.7611,15.90861 1.2685,32.32696 1.64905,41.49443 0.88795,16.67913 0.63425,7.92519 0.5074,3.55321 0.25369,0.7937 0.2537,0.12599 0.2537,-0.54296 0.2537,-1.2066 0.38055,-3.02682 0.5074,-6.19614 0.63425,-10.86256 0.88795,-19.79716 3.2981,-79.97385 0.63425,-9.11225 0.5074,-4.60252 0.38055,-1.75899 0.2537,-0.34212 0.12685,0.0799 0.2537,0.66097 0.38055,2.229 0.5074,5.19791 0.63425,9.77396 0.7611,15.7256 1.14164,28.80795 1.90275,47.8071 0.7611,14.16716 0.63425,8.13991 0.5074,3.74133 0.2537,0.89074 0.2537,0.22374 0.12685,-0.13918 0.2537,-0.77878 0.38055,-2.40198 0.5074,-5.41567 0.63425,-10.01372 0.7611,-15.94692 1.2685,-32.35454 1.64905,-41.45597 0.7611,-14.62264 0.63424,-8.60868 0.50741,-4.15459 0.38054,-1.40807 0.12685,-0.13634 0.12685,0.031 0.2537,0.56357 0.2537,1.22696 0.38055,3.05642 0.5074,6.23288 0.63425,10.90209 0.88795,19.83642 3.2981,79.91456 0.63425,9.0687 0.5074,4.56362 0.38055,1.72842 0.2537,0.32146 0.12685,-0.0903 0.2537,-0.68156 0.38055,-2.25926 0.5074,-5.23605 0.63425,-9.81606 0.76109,-15.76459 1.2685,-32.22154 1.64905,-41.63433 0.88795,-16.86832 0.63425,-8.09461 0.5074,-3.70158 0.2537,-0.87022 0.2537,-0.20307 0.2537,0.46607 0.2537,1.13066 0.38055,2.91627 0.5074,6.05879 0.63425,10.7144 0.88795,19.64924 3.42495,82.31808 0.63424,8.5642 0.50741,4.11523 0.38054,1.37733 0.12685,0.12601 0.12685,-0.0414 0.2537,-0.5842 0.2537,-1.24731 0.38055,-3.08599 0.5074,-6.26954 0.63425,-10.94152 0.88795,-19.87551 3.2981,-79.85451 0.63425,-9.02508 0.5074,-4.52468 0.38055,-1.69784 0.2537,-0.30079 0.12685,0.10065 0.2537,0.70214 0.38055,2.2895 0.5074,5.27416 0.63425,9.85805 0.76109,15.80345 1.2685,32.25025 1.64905,41.5973 0.88795,16.81775 0.63425,8.04924 0.5074,3.66181 0.2537,0.84969 0.2537,0.18238 0.2537,-0.48671 0.2537,-1.15106 0.38055,-2.94597 0.5074,-6.09573 0.63425,-10.75431 0.88795,-19.68919 3.42494,-82.25349 0.63425,-8.51964 0.50741,-4.07583 0.38054,-1.34658 0.12685,-0.11567 0.12685,0.0517 0.2537,0.60481 0.38055,2.14642 0.38055,3.5893 0.5074,6.89009 0.63425,11.60255 0.88795,20.51764 3.0444,74.42723 0.63425,9.67789 0.5074,5.11097 0.38055,2.16011 0.2537,0.61412 0.12685,0.0564 0.12685,-0.11099 0.2537,-0.72273 0.38055,-2.31971 0.5074,-5.31221 0.63425,-9.89996 0.7611,-15.84216 1.26849,-32.27865 1.64905,-41.5599 0.88795,-16.76703 0.63425,-8.00379 0.5074,-3.62199 0.2537,-0.82916 0.2537,-0.16169 0.2537,0.50734 0.2537,1.17145 0.38055,2.97566 0.5074,6.13261 0.63425,10.79411 0.88795,19.72896 3.42494,82.18814 0.63426,8.475 0.50739,4.03638 0.38055,1.31583 0.12685,0.10532 0.12685,-0.0621 0.2537,-0.62541 0.38055,-2.17674 0.38055,-3.61831 0.5074,-6.92565 0.63425,-11.64007 0.88795,-20.5533 2.91755,-72.0478 0.7611,-11.95754 0.5074,-5.07266 0.38055,-2.12979 0.2537,-0.5935 0.12685,-0.0461 0.12685,0.12134 0.2537,0.7433 0.38055,2.34991 0.5074,5.35021 0.63425,9.94178 0.7611,15.88071 1.26849,32.30675 1.64905,41.52211 0.88795,16.71615 0.63425,7.95828 0.5074,3.58214 0.2537,0.80862 0.2537,0.141 0.2537,-0.52798 0.2537,-1.19182 0.38055,-3.00531 0.5074,-6.16945 0.63425,-10.83381 0.88795,-19.76854 3.2981,-80.01643 0.63424,-9.14379 0.5074,-4.63073 0.38055,-1.78116 0.2537,-0.35713 0.12685,0.0725 0.2537,0.64602 0.38055,2.20702 0.5074,5.17019 0.63425,9.74336 0.7611,15.6972 1.14165,28.78722 1.90275,47.83733 0.7611,14.19926 0.63425,8.17273 0.5074,3.77015 0.2537,0.90563 0.2537,0.23876 0.12685,-0.13168 0.2537,-0.76386 0.38055,-2.38009 0.5074,-5.38816 0.63424,-9.9835 0.7611,-15.91913 1.2685,-32.33455 1.64905,-41.48393 0.88795,-16.66512 0.63425,-7.91268 0.5074,-3.54226 0.2537,-0.78807 0.2537,-0.12031 0.2537,0.5486 0.2537,1.21219 0.38055,3.03494 0.5074,6.20622 0.63425,10.87341 0.88795,19.80794 3.29809,79.95767 0.63425,9.10032 0.5074,4.59185 0.38055,1.75061 0.2537,0.33646 0.12685,-0.0828 0.2537,-0.66661 0.38055,-2.23731 0.5074,-5.20837 0.63425,-9.78551 0.7611,-15.73631 1.2685,-32.20051 1.64905,-41.66096 0.88795,-16.90492 0.63425,-8.12749 0.5074,-3.73043 0.2537,-0.88512 0.2537,-0.21807 0.12685,0.14202 0.2537,0.78442 0.38055,2.41024 0.5074,5.42606 0.63425,10.02513 0.76109,15.95739 1.2685,32.36206 1.64905,41.44535 0.7611,14.61088 0.63425,8.59649 0.5074,4.1438 0.38055,1.39964 0.12685,0.13351 0.12685,-0.0339 0.2537,-0.56923 0.2537,-1.23254 0.38055,-3.06453 0.5074,-6.24294 0.63425,-10.91291 0.88795,-19.84716 3.29809,-79.89816 0.63425,-9.05675 0.5074,-4.55295 0.38055,-1.72004 0.2537,-0.31579 0.12685,0.0931 0.2537,0.6872 0.38055,2.26756 0.5074,5.24651 0.63425,9.82757 0.7611,15.77527 1.2685,32.22944 1.64905,41.62422 0.88795,16.85446 0.63425,8.08218 0.5074,3.69068 0.2537,0.86459 0.2537,0.19739 0.2537,-0.47173 0.2537,-1.13625 0.38055,-2.92442 0.50739,-6.06892 0.63426,-10.72536 0.88794,-19.66021 3.42495,-82.30045 0.63425,-8.55199 0.5074,-4.10442 0.38055,-1.3689 0.12685,-0.12317 0.12685,0.0442 0.2537,0.58985 0.2537,1.25289 0.38055,3.0941 0.5074,6.27959 0.63425,10.95231 0.88795,19.88619 3.2981,79.83791 0.63424,9.01311 0.5074,4.51399 0.38055,1.68946 0.2537,0.29512 0.12685,-0.10349 0.2537,-0.70779 0.38055,-2.29779 0.5074,-5.28459 0.63425,-9.86955 0.7611,-15.81408 1.2685,-32.25807 1.64905,-41.58708 0.88795,-16.80386 0.63425,-8.03679 0.5074,-3.65089 0.2537,-0.84406 0.2537,-0.17671 0.2537,0.49237 0.2537,1.15665 0.38055,2.95412 0.50739,6.10585 0.63425,10.76523 0.88795,19.70011 0.38055,9.59206 v 0"
         style="fill:none;stroke:#9467bd;stroke-width:1.5;stroke-linecap:square;stroke-linejoin:round;stroke-miterlimit:10;stroke-dasharray:none;stroke-opacity:1"
         transform="matrix(2.3230044,0,0,-0.47181821,-253.94638,678.68957)"
         clip-path="url(#clipPath34)" />
      <path
         id="path90"
         d="m 115.36364,85.848135 0.88795,-9.043776 1.64904,-17.21635 0.5074,-3.388307 0.38055,-1.446714 0.2537,-0.353217 0.12685,0.02206 0.2537,0.462703 0.2537,1.043576 0.38055,2.696335 0.5074,5.743279 0.63425,10.529036 0.7611,16.930746 1.2685,34.734254 1.5222,40.4864 0.7611,14.59921 0.5074,6.4043 0.38055,2.80238 0.2537,0.86535 0.12685,0.1266 0.12685,-0.0782 0.2537,-0.7692 0.38055,-2.66206 0.5074,-6.23077 0.63424,-11.62084 0.88795,-21.69467 2.7907,-73.309343 0.63425,-10.69762 0.5074,-5.887842 0.5074,-3.435832 0.38055,-1.012501 0.12685,-0.05437 0.2537,0.291846 0.2537,0.79327 0.38055,2.030765 0.5074,4.002379 0.88795,9.242868 1.5222,15.937066 0.63425,4.534231 0.5074,2.225923 0.38055,0.785847 0.2537,0.102252 0.2537,-0.224934 0.38054,-0.915013 0.5074,-2.172739 0.63425,-3.890854 2.41015,-16.334137 0.5074,-1.850208 0.38055,-0.763923 0.2537,-0.200032 0.2537,0.04661 0.2537,0.286889 0.38055,0.855092 0.5074,1.839795 0.7611,3.862498 1.90275,10.445251 0.63425,2.160036 0.38055,0.741414 0.38055,0.289665 0.2537,-0.06071 0.2537,-0.259496 0.38055,-0.742709 0.5074,-1.576596 0.76109,-3.297788 1.90275,-8.92053 0.63425,-1.827421 0.38055,-0.610809 0.38055,-0.213322 0.2537,0.08183 0.38055,0.450552 0.5074,1.166549 0.63425,2.204647 1.14165,5.074179 1.0148,4.191061 0.63425,1.796801 0.5074,0.777538 0.38055,0.153809 0.2537,-0.106371 0.38055,-0.465507 0.5074,-1.149101 0.63425,-2.133131 1.26849,-5.409102 0.88795,-3.429546 0.63425,-1.679232 0.5074,-0.698247 0.38055,-0.104023 0.2537,0.134897 0.38055,0.501509 0.5074,1.185278 0.63425,2.161583 1.39535,5.957558 0.88795,3.256788 0.5074,1.246147 0.38055,0.548233 0.38055,0.183828 0.2537,-0.08615 0.38055,-0.439431 0.5074,-1.13115 0.63425,-2.15282 1.0148,-4.455076 1.14164,-4.833271 0.63425,-1.847872 0.5074,-0.8008 0.38055,-0.148753 0.2537,0.124623 0.38055,0.519927 0.5074,1.279229 0.63425,2.393992 1.14165,5.556067 1.0148,4.659092 0.63425,2.003661 0.38055,0.701199 0.38055,0.270145 0.2537,-0.07133 0.2537,-0.274744 0.38055,-0.785982 0.5074,-1.696852 0.63425,-2.979668 2.537,-13.265166 0.50739,-1.180303 0.2537,-0.251081 0.2537,-0.0095 0.2537,0.237649 0.38055,0.819622 0.5074,1.918962 0.63425,3.543556 1.0148,7.302778 1.14165,8.004357 0.63425,3.065506 0.38055,1.067568 0.2537,0.335563 0.2537,0.01316 0.2537,-0.320942 0.38055,-1.117532 0.38055,-1.868648 0.5074,-3.575249 0.7611,-7.228585 2.15645,-22.090142 0.5074,-2.782228 0.38055,-0.892134 0.12685,-0.04022 0.12685,0.09614 0.2537,0.6169 0.38054,2.032176 0.38056,3.4043 0.50739,6.680284 0.63425,11.608188 0.88795,21.27217 2.91755,76.21562 0.63425,9.73399 0.5074,4.48546 0.2537,1.0523 0.2537,0.23699 0.12685,-0.18864 0.2537,-0.98843 0.38055,-2.9816 0.5074,-6.62516 0.63425,-12.03532 0.88795,-22.07476 2.66384,-70.294672 0.7611,-12.793643 0.5074,-5.55758 0.38055,-2.557731 0.38055,-1.212995 0.2537,-0.09898 0.2537,0.431133 0.38055,1.551124 0.5074,3.500066 0.7611,7.400147 2.0296,20.974131 0.63425,3.961842 0.38055,1.41055 0.38055,0.648628 0.2537,0.01281 0.2537,-0.310736 0.38055,-1.033464 0.5074,-2.304423 0.7611,-4.904361 2.02959,-14.061903 0.63425,-2.578188 0.38055,-0.848492 0.2537,-0.257207 0.2537,-0.0098 0.2537,0.232373 0.38055,0.779252 0.5074,1.75476 0.7611,3.781356 2.0296,11.057466 0.63425,2.042441 0.38055,0.661463 0.38055,0.207391 0.2537,-0.114907 0.38055,-0.538848 0.5074,-1.343292 0.63425,-2.487843 1.39535,-6.864198 0.88795,-3.753296 0.63425,-1.72468 0.38054,-0.540572 0.38055,-0.140774 0.2537,0.129761 0.38055,0.519261 0.5074,1.247273 0.63425,2.279003 2.66385,10.656385 0.5074,0.850217 0.38055,0.211433 0.2537,-0.06801 0.38055,-0.410085 0.38055,-0.758939 0.5074,-1.485777 0.7611,-2.96384 1.7759,-7.225812 0.63425,-1.590332 0.38055,-0.519915 0.38055,-0.160353 0.2537,0.09739 0.38054,0.447316 0.5074,1.120892 0.63425,2.101313 1.14165,4.84187 1.0148,4.01377 0.63425,1.714306 0.5074,0.723566 0.38055,0.116608 0.2537,-0.131222 0.38055,-0.505016 0.5074,-1.209927 0.63425,-2.227946 1.2685,-5.655964 0.88795,-3.59918 0.63425,-1.755793 0.38055,-0.596805 0.38055,-0.209972 0.2537,0.08326 0.38055,0.459259 0.38055,0.844164 0.5074,1.660298 0.76109,3.351549 1.90275,8.853168 0.5074,1.444348 0.38055,0.626268 0.2537,0.176539 0.2537,-0.02453 0.2537,-0.227996 0.38055,-0.718145 0.5074,-1.61579 0.63425,-2.90345 1.2685,-7.294408 0.88795,-4.617325 0.63425,-2.215647 0.38055,-0.715422 0.2537,-0.186769 0.2537,0.05679 0.2537,0.304614 0.38055,0.918216 0.5074,2.03958 0.63425,3.661911 1.14165,8.33608 1.01479,6.923181 0.63425,2.908255 0.38055,0.949871 0.2537,0.250116 0.2537,-0.07605 0.2537,-0.412224 0.38055,-1.254393 0.5074,-2.824053 0.63425,-5.167361 1.0148,-10.755123 1.2685,-13.279655 0.63425,-4.415574 0.38055,-1.419316 0.2537,-0.33282 0.12685,0.03281 0.2537,0.485095 0.2537,1.06692 0.38055,2.732411 0.5074,5.791488 0.63425,10.58534 0.7611,16.98514 1.26849,34.772506 1.39535,37.5136 0.7611,15.40767 0.63425,8.37824 0.38055,2.75566 0.2537,0.83333 0.12685,0.11047 0.12685,-0.0944 0.2537,-0.80127 0.38055,-2.70889 0.5074,-6.28874 0.63425,-11.68204 0.88795,-21.75141 2.7907,-73.235206 0.63425,-10.641535 0.5074,-5.839677 0.5074,-3.387918 0.2537,-0.795949 0.2537,-0.226041 0.2537,0.312362 0.2537,0.812142 0.38054,2.055487 0.5074,4.027729 0.88795,9.264186 1.5222,15.909643 0.63425,4.505826 0.5074,2.199865 0.38055,0.765796 0.2537,0.08915 0.2537,-0.237537 0.38055,-0.932469 0.5074,-2.192253 0.63425,-3.90748 2.41015,-16.310242 0.5074,-1.832233 0.38055,-0.749417 0.2537,-0.19026 0.2537,0.05623 0.2537,0.296153 0.38055,0.867929 0.5074,1.854089 0.76109,3.8759 1.90275,10.430709 0.63425,2.143039 0.38055,0.729788 0.38055,0.277656 0.2537,-0.06864 0.38055,-0.47273 0.38055,-0.886644 0.5074,-1.736031 0.88795,-4.075356 1.5222,-7.186365 0.63425,-1.996798 0.5074,-0.885669 0.38055,-0.202736 0.2537,0.08885 0.38055,0.460642 0.5074,1.178465 0.63425,2.215733 1.14164,5.079849 1.0148,4.179892 0.63425,1.783694 0.5074,0.765026 0.38055,0.143942 0.2537,-0.112917 0.38055,-0.474927 0.5074,-1.160232 0.63425,-2.143463 1.2685,-5.413532 0.88795,-3.41912 0.63425,-1.66641 0.38055,-0.573329 0.38055,-0.216501 0.2537,0.05977 0.38055,0.392613 0.38055,0.738104 0.5074,1.458033 0.7611,2.934743 1.7759,7.260991 0.63424,1.625561 0.38055,0.538957 0.38055,0.174032 0.2537,-0.09274 0.38055,-0.449049 0.5074,-1.142761 0.63425,-2.163997 1.14165,-5.045292 1.0148,-4.23912 0.63425,-1.834617 0.5074,-0.787762 0.38055,-0.138253 0.2537,0.131692 0.38055,0.530256 0.5074,1.291715 0.63425,2.40602 1.14165,5.563025 1.0148,4.647212 0.63425,1.988766 0.38054,0.690341 0.38055,0.258434 0.2537,-0.07934 0.25371,-0.282725 0.38054,-0.797518 0.5074,-1.710551 0.63425,-2.992393 2.537,-13.243604 0.5074,-1.16329 0.2537,-0.241736 0.2537,1.39e-4 0.2537,0.247429 0.38055,0.834064 0.5074,1.936717 0.63425,3.561136 1.0148,7.314357 1.14165,7.987287 0.63425,3.042914 0.38055,1.050544 0.2537,0.323163 0.2537,1.83e-4 0.2537,-0.334251 0.38055,-1.137544 0.5074,-2.676844 0.63424,-5.015029 0.88795,-9.210797 1.5222,-15.944832 0.5074,-3.528692 0.38055,-1.577991 0.2537,-0.45123 0.12685,-0.02963 0.2537,0.354777 0.2537,0.930856 0.38055,2.521769 0.5074,5.50928 0.63425,10.254571 0.7611,16.663668 1.14165,30.905894 1.64905,44.40906 0.7611,14.93925 0.5074,6.68223 0.38054,3.02803 0.25371,1.02038 0.25369,0.20474 0.2537,-0.61355 0.25371,-1.42388 0.38054,-3.61192 0.5074,-7.3949 0.63425,-12.83038 1.0148,-26.31565 2.15645,-57.862869 0.7611,-14.388512 0.63425,-8.028648 0.5074,-3.668563 0.38055,-1.178574 0.2537,-0.07742 0.2537,0.45123 0.38055,1.577991 0.5074,3.528692 0.7611,7.425568 1.90274,19.935887 0.63425,4.308645 0.5074,2.020584 0.38055,0.628613 0.2537,-1.83e-4 0.2537,-0.323163 0.38055,-1.050544 0.5074,-2.323267 0.7611,-4.921907 2.0296,-14.040743 0.63425,-2.556494 0.38055,-0.834064 0.2537,-0.247429 0.2537,-1.39e-4 0.2537,0.241736 0.38055,0.792311 0.5074,1.769474 0.7611,3.795565 2.0296,11.041937 0.63424,2.025038 0.38055,0.649726 0.2537,0.181147 0.2537,-0.02215 0.2537,-0.22206 0.38055,-0.690341 0.5074,-1.517463 0.7611,-3.240872 2.0296,-9.428934 0.63425,-1.709469 0.38055,-0.530256 0.38055,-0.130174 0.2537,0.136735 0.38055,0.529216 0.5074,1.258886 0.63425,2.289551 2.66385,10.638242 0.5074,0.83785 0.38055,0.201591 0.2537,-0.07458 0.38054,-0.419601 0.5074,-1.094581 0.63425,-2.08201 1.14165,-4.833303 1.0148,-4.030211 0.63425,-1.740591 0.5074,-0.757196 0.38055,-0.150732 0.2537,0.103811 0.38055,0.456621 0.5074,1.131995 0.63425,2.11179 1.14165,4.847454 1.0148,4.003122 0.63425,1.701517 0.5074,0.711204 0.38055,0.106767 0.2537,-0.137792 0.38055,-0.514536 0.5074,-1.221284 0.63424,-2.238635 1.2685,-5.660793 0.88795,-3.588276 0.63425,-1.742097 0.38055,-0.587 0.38055,-0.199528 0.2537,0.09033 0.38055,0.469663 0.38055,0.85387 0.5074,1.671336 0.7611,3.362103 1.90275,8.838941 0.5074,1.431656 0.38055,0.615218 0.2537,0.168718 0.2537,-0.03252 0.2537,-0.235999 0.38055,-0.729788 0.5074,-1.629763 0.63425,-2.916701 1.2685,-7.300262 0.88794,-4.602922 0.63425,-2.197331 0.38055,-0.702152 0.2537,-0.17732 0.2537,0.06651 0.2537,0.31439 0.38055,0.93255 0.5074,2.056998 0.63425,3.678789 1.14165,8.345582 1.0148,6.904673 0.63425,2.884798 0.38055,0.932469 0.2537,0.237537 0.2537,-0.08915 0.2537,-0.425578 0.38055,-1.274338 0.5074,-2.849047 0.63425,-5.192985 1.0148,-10.774299 1.26849,-13.252685 0.63426,-4.379933 0.38054,-1.391809 0.2537,-0.312362 0.12685,0.04357 0.2537,0.507531 0.2537,1.090296 0.38055,2.768506 0.5074,5.839677 0.63425,10.641535 0.7611,17.039292 1.2685,34.810174 1.39535,37.46072 0.7611,15.34015 0.5074,7.01332 0.38055,3.29831 0.38055,1.50559 0.12685,0.0944 0.12685,-0.11047 0.2537,-0.83333 0.38055,-2.75566 0.5074,-6.34657 0.63425,-11.74302 0.88794,-21.80774 2.7907,-73.159826 0.63425,-10.58534 0.5074,-5.791488 0.5074,-3.340038 0.2537,-0.773003 0.2537,-0.204193 0.2537,0.33282 0.2537,0.830943 0.38055,2.080089 0.5074,4.052898 0.88795,9.285169 1.39535,14.780699 0.63425,4.83145 0.5074,2.502361 0.38055,1.000373 0.2537,0.24329 0.2537,-0.08868 0.2537,-0.407514 0.38055,-1.165966 0.5074,-2.449605 0.76109,-5.037145 1.90275,-13.241174 0.63425,-2.682433 0.38055,-0.918216 0.38055,-0.363842 0.2537,0.06583 0.2537,0.3054 0.38055,0.880727 0.5074,1.86831 0.7611,3.889163 1.90275,10.415829 0.63425,2.125981 0.38055,0.718145 0.38055,0.265644 0.2537,-0.07657 0.38055,-0.484092 0.38055,-0.896905 0.5074,-1.747214 0.88795,-4.085851 1.52219,-7.174358 0.63425,-1.982633 0.5074,-0.872201 0.38055,-0.192145 0.2537,0.09586 0.38055,0.470713 0.5074,1.190339 0.63425,2.226742 1.2685,5.660067 0.88795,3.593866 0.63425,1.770528 0.5074,0.752491 0.38055,0.134072 0.2537,-0.119458 0.38055,-0.48433 0.5074,-1.171321 0.63425,-2.153723 1.2685,-5.41778 0.88795,-3.408579 0.63424,-1.653533 0.38055,-0.56424 0.38055,-0.206915 0.2537,0.06621 0.38055,0.402001 0.38055,0.746767 0.5074,1.467741 0.7611,2.943756 1.7759,7.250322 0.63425,1.612378 0.38055,0.529661 0.38055,0.164229 0.2537,-0.09933 0.38055,-0.458653 0.5074,-1.154336 0.63425,-2.175105 1.14165,-5.051725 1.0148,-4.22844 0.63425,-1.821294 0.50739,-0.774694 0.38055,-0.127745 0.2537,0.138758 0.38055,0.540572 0.5074,1.304164 0.63425,2.417971 1.14165,5.569801 1.0148,4.635169 0.63425,1.973798 0.38055,0.679452 0.38055,0.246709 0.2537,-0.08736 0.38055,-0.511458 0.38055,-0.953369 0.5074,-1.893091 0.7611,-3.864089 2.0296,-10.948322 0.5074,-1.562004 0.38055,-0.610376 0.2537,-0.112247 0.2537,0.133171 0.2537,0.381273 0.38054,1.030203 0.5074,2.174861 0.63425,3.791523 2.66385,17.479164 0.38055,1.033464 0.2537,0.310736 0.2537,-0.01281 0.2537,-0.347568 0.38055,-1.157549 0.5074,-2.702139 0.63425,-5.041373 0.88795,-9.230936 1.5222,-15.915733 0.5074,-3.500066 0.38055,-1.551124 0.2537,-0.431133 0.12685,-0.01902 0.2537,0.376952 0.2537,0.954044 0.38055,2.557731 0.5074,5.55758 0.63424,10.311385 0.7611,16.719213 1.14165,30.946412 1.64905,44.35171 0.7611,14.86967 0.5074,6.62516 0.38055,2.9816 0.2537,0.98843 0.12685,0.18864 0.12685,-0.0161 0.2537,-0.64569 0.2537,-1.45548 0.38055,-3.65744 0.5074,-7.45004 0.63425,-12.8866 1.0148,-26.3671 2.15645,-57.801226 0.76109,-14.324997 0.63426,-7.968951 0.50739,-3.620501 0.38055,-1.144208 0.2537,-0.05592 0.2537,0.471266 0.38055,1.604745 0.5074,3.557145 0.7611,7.450704 1.90275,19.909229 0.63425,4.279473 0.5074,1.994291 0.38055,0.608607 0.2537,-0.01316 0.2537,-0.335563 0.38055,-1.067568 0.5074,-2.342011 0.7611,-4.939272 1.90275,-13.353811 0.63425,-2.80603 0.50739,-1.213657 0.2537,-0.237649 0.2537,0.0095 0.25371,0.251081 0.38054,0.805334 0.5074,1.784116 0.7611,3.809637 2.0296,11.02605 0.63425,2.007579 0.38055,0.637974 0.2537,0.17313 0.2537,-0.03011 0.2537,-0.229806 0.38055,-0.701199 0.5074,-1.529772 0.7611,-3.252834 2.0296,-9.415228 0.5074,-1.43479 0.38055,-0.64994 0.38055,-0.254027 0.2537,0.05479 0.38054,0.411557 0.38055,0.783378 0.50741,1.547701 0.76109,3.098965 1.7759,7.567854 0.63425,1.678871 0.38055,0.560464 0.38055,0.191743 0.2537,-0.08114 0.38055,-0.4291 0.5074,-1.105903 0.63425,-2.092693 1.14165,-4.839137 1.0148,-4.019819 0.63425,-1.728045 0.5074,-0.745083 0.38055,-0.141105 0.2537,0.110231 0.38055,0.46591 0.5074,1.143059 0.63424,2.122198 1.14165,4.852876 1.0148,3.992338 0.63425,1.688668 0.38055,0.58374 0.38055,0.221448 0.2537,-0.06078 0.38055,-0.402304 0.38055,-0.759214 0.5074,-1.505848 0.7611,-3.04821 1.90275,-8.039837 0.5074,-1.314527 0.38055,-0.577173 0.38055,-0.189072 0.2537,0.09741 0.38055,0.480055 0.38055,0.863552 0.5074,1.682321 0.7611,3.372548 1.90274,8.824413 0.5074,1.418909 0.38055,0.60414 0.2537,0.160888 0.2537,-0.04052 0.2537,-0.243998 0.38055,-0.741414 0.5074,-1.643692 0.63425,-2.929861 1.39535,-8.031734 0.88795,-4.389286 0.5074,-1.65214 0.38055,-0.688847 0.2537,-0.167856 0.2537,0.07623 0.2537,0.324164 0.38055,0.946865 0.5074,2.074366 0.63425,3.695563 1.14165,8.354817 1.01479,6.885917 0.63426,2.861217 0.38054,0.915013 0.2537,0.224934 0.2537,-0.102252 0.2537,-0.438937 0.38055,-1.29427 0.5074,-2.873986 0.63425,-5.218483 1.0148,-10.793164 1.2685,-13.22524 0.63425,-4.344077 0.38055,-1.364192 0.2537,-0.291846 0.12685,0.05437 0.2537,0.53001 0.2537,1.113701 0.38055,2.804622 0.5074,5.887842 0.63425,10.69762 0.7611,17.0932 1.2685,34.847246 1.39534,37.40713 0.7611,15.27232 0.5074,6.95704 0.38055,3.25225 0.38055,1.4577 0.12685,0.0782 0.12685,-0.1266 0.2537,-0.86535 0.38055,-2.80238 0.5074,-6.40429 0.63425,-11.80377 0.88795,-21.86362 2.66385,-70.561124 0.7611,-13.051135 0.5074,-5.743279 0.5074,-3.292191 0.2537,-0.750095 0.2537,-0.182393 0.2537,0.353217 0.2537,0.849673 0.38055,2.104572 0.63424,5.27648 1.01481,10.973139 1.14164,11.891283 v 0"
         style="fill:none;stroke:#000000;stroke-width:2;stroke-linecap:square;stroke-linejoin:round;stroke-miterlimit:10;stroke-dasharray:none;stroke-opacity:1"
         transform="matrix(2.3230044,0,0,-0.47181821,-253.94605,716.27739)"
         clip-path="url(#clipPath91)" />
      <text
         xml:space="preserve"
         style="font-weight:bold;font-size:61.3333px;font-family:Arial;-inkscape-font-specification:'Arial Bold';text-align:start;writing-mode:lr-tb;direction:ltr;text-anchor:start;fill:#000000;fill-opacity:1;stroke-width:2.413"
         x="585.33148"
         y="123.35785"
         id="text96"><tspan
           sodipodi:role="line"
           id="tspan96"
           x="585.33148"
           y="123.35785"
           style="font-style:normal;font-variant:normal;font-weight:normal;font-stretch:normal;font-family:Arial;-inkscape-font-specification:Arial">+</tspan></text>
      <text
         xml:space="preserve"
         style="font-weight:bold;font-size:61.3333px;font-family:Arial;-inkscape-font-specification:'Arial Bold';text-align:start;writing-mode:lr-tb;direction:ltr;text-anchor:start;fill:#000000;fill-opacity:1;stroke-width:2.413"
         x="585.33148"
         y="246.52397"
         id="text96-8"><tspan
           sodipodi:role="line"
           id="tspan96-2"
           x="585.33148"
           y="246.52397"
           style="font-style:normal;font-variant:normal;font-weight:normal;font-stretch:normal;font-family:Arial;-inkscape-font-specification:Arial">+</tspan></text>
      <text
         xml:space="preserve"
         style="font-weight:bold;font-size:61.3333px;font-family:Arial;-inkscape-font-specification:'Arial Bold';text-align:start;writing-mode:lr-tb;direction:ltr;text-anchor:start;fill:#000000;fill-opacity:1;stroke-width:2.413"
         x="585.33148"
         y="369.69009"
         id="text96-7"><tspan
           sodipodi:role="line"
           id="tspan96-1"
           x="585.33148"
           y="369.69009"
           style="font-style:normal;font-variant:normal;font-weight:normal;font-stretch:normal;font-family:Arial;-inkscape-font-specification:Arial">+</tspan></text>
      <text
         xml:space="preserve"
         style="font-weight:bold;font-size:61.3333px;font-family:Arial;-inkscape-font-specification:'Arial Bold';text-align:start;writing-mode:lr-tb;direction:ltr;text-anchor:start;fill:#000000;fill-opacity:1;stroke-width:2.413"
         x="585.33148"
         y="492.85623"
         id="text96-6"><tspan
           sodipodi:role="line"
           id="tspan96-14"
           x="585.33148"
           y="492.85623"
           style="font-style:normal;font-variant:normal;font-weight:normal;font-stretch:normal;font-family:Arial;-inkscape-font-specification:Arial">+</tspan></text>
      <text
         xml:space="preserve"
         style="font-weight:bold;font-size:61.3333px;font-family:Arial;-inkscape-font-specification:'Arial Bold';text-align:start;writing-mode:lr-tb;direction:ltr;text-anchor:start;fill:#000000;fill-opacity:1;stroke-width:2.413"
         x="585.33148"
         y="618.75153"
         id="text96-1"><tspan
           sodipodi:role="line"
           id="tspan96-6"
           x="585.33148"
           y="618.75153"
           style="font-style:normal;font-variant:normal;font-weight:normal;font-stretch:normal;font-family:Arial;-inkscape-font-specification:Arial">=</tspan></text>
      <path
         style="fill:none;fill-opacity:1;stroke:#9f9f9f;stroke-width:2.42311;stroke-dasharray:7.26934, 2.42311;stroke-dashoffset:0;stroke-opacity:1"
         d="M 415.40529,690.9428 416.83262,4.2163644"
         id="path97" />
      <path
         style="fill:none;fill-opacity:1;stroke:#9f9f9f;stroke-width:2.42242;stroke-dasharray:7.26726, 2.42242;stroke-dashoffset:0;stroke-opacity:1"
         d="M 790.2485,690.76211 791.67577,4.3970447"
         id="path97-1" />
      <path
         style="fill:none;fill-opacity:1;stroke:#9f9f9f;stroke-width:2.42242;stroke-dasharray:7.26726, 2.42242;stroke-dashoffset:0;stroke-opacity:1"
         d="M 978.38069,690.76212 979.80796,4.3970423"
         id="path97-1-9" />
      <path
         style="fill:none;fill-opacity:1;stroke:#9f9f9f;stroke-width:2.42242;stroke-dasharray:7.26726, 2.42242;stroke-dashoffset:0;stroke-opacity:1"
         d="M 1165.832,690.76212 1167.2593,4.3970425"
         id="path97-1-2" />
      <path
         style="fill:none;fill-opacity:1;stroke:#9f9f9f;stroke-width:2.42242;stroke-dasharray:7.26726, 2.42242;stroke-dashoffset:0;stroke-opacity:1"
         d="M 227.98901,690.76212 229.41628,4.3970439"
         id="path97-1-1" />
      <path
         style="fill:none;fill-opacity:1;stroke:#9f9f9f;stroke-width:2.42242;stroke-dasharray:7.26726, 2.42242;stroke-dashoffset:0;stroke-opacity:1"
         d="M 40.5249,690.76211 41.95217,4.3970441"
         id="path97-1-27" />
      <rect
         style="fill:none;fill-opacity:1;stroke:#000000;stroke-width:5.00724;stroke-dasharray:none;stroke-dashoffset:0;stroke-opacity:1"
         id="rect98"
         width="1180.2484"
         height="694.474"
         x="13.119334"
         y="2.0159171" />
    </g>
    <text
       xml:space="preserve"
       style="font-style:normal;font-variant:normal;font-weight:normal;font-stretch:normal;font-size:48px;font-family:Arial;-inkscape-font-specification:Arial;text-align:start;writing-mode:lr-tb;direction:ltr;text-anchor:start;fill:#000000;fill-opacity:1;stroke:none;stroke-width:5;stroke-dasharray:none;stroke-dashoffset:0;stroke-opacity:1"
       x="821.65283"
       y="775.22034"
       id="text98"><tspan
         sodipodi:role="line"
         id="tspan98"
         x="821.65283"
         y="775.22034"
         style="font-size:48px">Time</tspan></text>
    <g
       id="g107"
       transform="translate(55.672862,7.1375469)">
      <text
         xml:space="preserve"
         style="font-style:normal;font-variant:normal;font-weight:normal;font-stretch:normal;font-size:48px;font-family:Arial;-inkscape-font-specification:Arial;text-align:start;writing-mode:lr-tb;direction:ltr;text-anchor:start;fill:#000000;fill-opacity:1;stroke:none;stroke-width:5;stroke-dasharray:none;stroke-dashoffset:0;stroke-opacity:1"
         x="92.788109"
         y="646.66168"
         id="text101"><tspan
           sodipodi:role="line"
           x="92.788109"
           y="646.66168"
           id="tspan104"
           style="font-size:48px">Pulse</tspan></text>
      <text
         xml:space="preserve"
         style="font-style:normal;font-variant:normal;font-weight:normal;font-stretch:normal;font-size:48px;font-family:Arial;-inkscape-font-specification:Arial;text-align:start;writing-mode:lr-tb;direction:ltr;text-anchor:start;fill:#000000;fill-opacity:1;stroke:none;stroke-width:5;stroke-dasharray:none;stroke-dashoffset:0;stroke-opacity:1"
         x="103.2549"
         y="704.32715"
         id="text105"><tspan
           sodipodi:role="line"
           id="tspan105"
           x="103.2549"
           y="704.32715"
           style="font-size:48px">Train</tspan></text>
    </g>
    <g
       id="g108"
       transform="translate(48.535316,-11.420074)">
      <text
         xml:space="preserve"
         style="font-style:normal;font-variant:normal;font-weight:normal;font-stretch:normal;font-size:61.3333px;font-family:Arial;-inkscape-font-specification:Arial;text-align:start;writing-mode:lr-tb;direction:ltr;text-anchor:start;fill:#000000;fill-opacity:1;stroke:none;stroke-width:5;stroke-dasharray:none;stroke-dashoffset:0;stroke-opacity:1"
         x="22.840149"
         y="194.14128"
         id="text99"><tspan
           sodipodi:role="line"
           id="tspan99"
           x="22.840149"
           y="194.14128"
           style="font-size:48px">Individual</tspan><tspan
           sodipodi:role="line"
           x="22.840149"
           y="270.80792"
           id="tspan106">  </tspan></text>
      <text
         xml:space="preserve"
         style="font-style:normal;font-variant:normal;font-weight:normal;font-stretch:normal;font-size:48px;font-family:Arial;-inkscape-font-specification:Arial;text-align:start;writing-mode:lr-tb;direction:ltr;text-anchor:start;fill:#000000;fill-opacity:1;stroke:none;stroke-width:5;stroke-dasharray:none;stroke-dashoffset:0;stroke-opacity:1"
         x="57.115524"
         y="250.32712"
         id="text107"><tspan
           sodipodi:role="line"
           id="tspan107"
           x="57.115524"
           y="250.32712"
           style="font-size:48px">Modes</tspan></text>
    </g>
  </g>
</svg>
