<?xml version="1.0" encoding="UTF-8" standalone="no"?>
<svg
   width="1220pt"
   height="620pt"
   viewBox="0 0 1220 620.00001"
   version="1.1"
   id="svg108"
   sodipodi:docname="Osc.svg"
   inkscape:version="1.4.2 (f4327f4, 2025-05-13)"
   inkscape:export-filename="Exports\Osc.pdf"
   inkscape:export-xdpi="96"
   inkscape:export-ydpi="96"
   xmlns:inkscape="http://www.inkscape.org/namespaces/inkscape"
   xmlns:sodipodi="http://sodipodi.sourceforge.net/DTD/sodipodi-0.dtd"
   xmlns:xlink="http://www.w3.org/1999/xlink"
   xmlns="http://www.w3.org/2000/svg"
   xmlns:svg="http://www.w3.org/2000/svg"
   xmlns:rdf="http://www.w3.org/1999/02/22-rdf-syntax-ns#"
   xmlns:cc="http://creativecommons.org/ns#"
   xmlns:dc="http://purl.org/dc/elements/1.1/">
  <sodipodi:namedview
     id="namedview108"
     pagecolor="#ffffff"
     bordercolor="#000000"
     borderopacity="0.25"
     inkscape:showpageshadow="2"
     inkscape:pageopacity="0.0"
     inkscape:pagecheckerboard="0"
     inkscape:deskcolor="#d1d1d1"
     inkscape:document-units="pt"
     inkscape:zoom="0.31572708"
     inkscape:cx="1021.4518"
     inkscape:cy="159.94827"
     inkscape:window-width="1920"
     inkscape:window-height="1009"
     inkscape:window-x="-8"
     inkscape:window-y="-8"
     inkscape:window-maximized="1"
     inkscape:current-layer="svg108" />
  <metadata
     id="metadata1">
    <rdf:RDF>
      <cc:Work>
        <dc:type
           rdf:resource="http://purl.org/dc/dcmitype/StillImage" />
        <dc:date>2025-09-11T12:34:46.500051</dc:date>
        <dc:format>image/svg+xml</dc:format>
        <dc:creator>
          <cc:Agent>
            <dc:title>Matplotlib v3.10.5, https://matplotlib.org/</dc:title>
          </cc:Agent>
        </dc:creator>
      </cc:Work>
    </rdf:RDF>
  </metadata>
  <defs
     id="defs1">
    <marker
       style="overflow:visible"
       id="marker110"
       refX="0"
       refY="0"
       orient="auto"
       inkscape:stockid="Stop"
       markerWidth="1"
       markerHeight="1"
       viewBox="0 0 1 1"
       inkscape:isstock="true"
       inkscape:collect="always"
       preserveAspectRatio="xMidYMid">
      <path
         style="fill:none;stroke:context-stroke;stroke-width:1"
         d="M 0,4 V -4"
         id="path110" />
    </marker>
    <marker
       style="overflow:visible"
       id="Stop"
       refX="0"
       refY="0"
       orient="auto"
       inkscape:stockid="Stop"
       markerWidth="1"
       markerHeight="1"
       viewBox="0 0 1 1"
       inkscape:isstock="true"
       inkscape:collect="always"
       preserveAspectRatio="xMidYMid">
      <path
         style="fill:none;stroke:context-stroke;stroke-width:1"
         d="M 0,4 V -4"
         id="path23" />
    </marker>
    <style
       type="text/css"
       id="style1">*{stroke-linejoin: round; stroke-linecap: butt}</style>
  </defs>
  <defs
     id="defs108">
    <clipPath
       id="pf4ce57165b">
      <rect
         x="182.61"
         y="21.7575"
         width="1167.39"
         height="575.24414"
         id="rect108" />
    </clipPath>
  </defs>
  <g
     id="g113"
     transform="translate(-3.38562,-21.0075)">
    <g
       id="axes_1"
       transform="translate(-132)">
      <g
         id="patch_2">
        <path
           d="M 182.61,597.00162 H 1350 V 21.7575 H 182.61 Z"
           style="fill:#ffffff"
           id="path2" />
      </g>
      <g
         id="patch_3">
        <path
           d="m 239.77015,597.00162 h 106.1113 V 21.7575 h -106.1113 z"
           clip-path="url(#pf4ce57165b)"
           style="fill:#e6e6e6;stroke:#e6e6e6;stroke-linejoin:miter"
           id="path3" />
      </g>
      <g
         id="patch_4">
        <path
           d="M 447.26168,597.00162 H 553.37299 V 21.7575 H 447.26168 Z"
           clip-path="url(#pf4ce57165b)"
           style="fill:#e6e6e6;stroke:#e6e6e6;stroke-linejoin:miter"
           id="path4" />
      </g>
      <g
         id="patch_5">
        <path
           d="M 656.10495,597.00162 H 760.86452 V 21.7575 H 656.10495 Z"
           clip-path="url(#pf4ce57165b)"
           style="fill:#e6e6e6;stroke:#e6e6e6;stroke-linejoin:miter"
           id="path5" />
      </g>
      <g
         id="patch_6">
        <path
           d="M 864.27235,597.00162 H 967.68018 V 21.7575 H 864.27235 Z"
           clip-path="url(#pf4ce57165b)"
           style="fill:#e6e6e6;stroke:#e6e6e6;stroke-linejoin:miter"
           id="path6" />
      </g>
      <g
         id="patch_7">
        <path
           d="m 1070.4121,597.00162 h 104.7596 V 21.7575 h -104.7596 z"
           clip-path="url(#pf4ce57165b)"
           style="fill:#e6e6e6;stroke:#e6e6e6;stroke-linejoin:miter"
           id="path7" />
      </g>
      <g
         id="patch_8">
        <path
           d="m 1277.9037,597.00162 h 106.7872 V 21.7575 h -106.7872 z"
           clip-path="url(#pf4ce57165b)"
           style="fill:#e6e6e6;stroke:#e6e6e6;stroke-linejoin:miter"
           id="path8" />
      </g>
      <g
         id="patch_9">
        <path
           d="m 1484.7193,597.00162 h 106.1114 V 21.7575 h -106.1114 z"
           clip-path="url(#pf4ce57165b)"
           style="fill:#e6e6e6;stroke:#e6e6e6;stroke-linejoin:miter"
           id="path9" />
      </g>
      <g
         id="patch_10">
        <path
           d="m 1693.5626,597.00162 h 106.7872 V 21.7575 h -106.7872 z"
           clip-path="url(#pf4ce57165b)"
           style="fill:#e6e6e6;stroke:#e6e6e6;stroke-linejoin:miter"
           id="path10" />
      </g>
      <g
         id="matplotlib.axis_1">
        <g
           id="xtick_1">
          <g
             id="line2d_1">
            <defs
               id="defs10">
              <path
                 id="ma6a7ff90b0"
                 d="M 0,0 V -3.5"
                 style="stroke:#000000;stroke-width:0.8" />
            </defs>
            <g
               id="g10">
              <use
                 xlink:href="#ma6a7ff90b0"
                 x="294.51547"
                 y="597.00165"
                 style="stroke:#000000;stroke-width:0.8"
                 id="use10" />
            </g>
          </g>
          <g
             id="text_1">
            <!-- −0.010 -->
            <g
               transform="matrix(0.14,0,0,-0.14,268.61,611.13944)"
               id="g16">
              <defs
                 id="defs11">
                <path
                   id="DejaVuSans-2212"
                   d="M 678,2272 H 4684 V 1741 H 678 Z"
                   transform="scale(0.015625)" />
                <path
                   id="DejaVuSans-30"
                   d="m 2034,4250 q -487,0 -733,-480 -245,-479 -245,-1442 0,-959 245,-1439 246,-480 733,-480 491,0 736,480 246,480 246,1439 0,963 -246,1442 -245,480 -736,480 z m 0,500 q 785,0 1199,-621 414,-620 414,-1801 0,-1178 -414,-1799 -414,-620 -1199,-620 -784,0 -1198,620 -414,621 -414,1799 0,1181 414,1801 414,621 1198,621 z"
                   transform="scale(0.015625)" />
                <path
                   id="DejaVuSans-2e"
                   d="m 684,794 h 660 V 0 H 684 Z"
                   transform="scale(0.015625)" />
                <path
                   id="DejaVuSans-31"
                   d="M 794,531 H 1825 V 4091 L 703,3866 v 575 l 1116,225 h 631 V 531 H 3481 V 0 H 794 Z"
                   transform="scale(0.015625)" />
              </defs>
              <use
                 xlink:href="#DejaVuSans-2212"
                 id="use11" />
              <use
                 xlink:href="#DejaVuSans-30"
                 transform="translate(83.789062)"
                 id="use12" />
              <use
                 xlink:href="#DejaVuSans-2e"
                 transform="translate(147.41211)"
                 id="use13" />
              <use
                 xlink:href="#DejaVuSans-30"
                 transform="translate(179.19922)"
                 id="use14" />
              <use
                 xlink:href="#DejaVuSans-31"
                 transform="translate(242.82227)"
                 id="use15" />
              <use
                 xlink:href="#DejaVuSans-30"
                 transform="translate(306.44531)"
                 id="use16" />
            </g>
          </g>
        </g>
        <g
           id="xtick_2">
          <g
             id="line2d_2">
            <g
               id="g17">
              <use
                 xlink:href="#ma6a7ff90b0"
                 x="429.68912"
                 y="597.00165"
                 style="stroke:#000000;stroke-width:0.8"
                 id="use17" />
            </g>
          </g>
          <g
             id="text_2">
            <!-- −0.008 -->
            <g
               transform="matrix(0.14,0,0,-0.14,403.78364,611.13944)"
               id="g23">
              <defs
                 id="defs17">
                <path
                   id="DejaVuSans-38"
                   d="m 2034,2216 q -450,0 -708,-241 -257,-241 -257,-662 0,-422 257,-663 258,-241 708,-241 450,0 709,242 260,243 260,662 0,421 -258,662 -257,241 -711,241 z m -631,268 q -406,100 -633,378 -226,279 -226,679 0,559 398,884 399,325 1092,325 697,0 1094,-325 397,-325 397,-884 0,-400 -227,-679 -226,-278 -629,-378 456,-106 710,-416 255,-309 255,-755 Q 3634,634 3220,271 2806,-91 2034,-91 1263,-91 848,271 434,634 434,1313 q 0,446 256,755 257,310 713,416 z m -231,997 q 0,-362 226,-565 227,-203 636,-203 407,0 636,203 230,203 230,565 0,363 -230,566 -229,203 -636,203 -409,0 -636,-203 -226,-203 -226,-566 z"
                   transform="scale(0.015625)" />
              </defs>
              <use
                 xlink:href="#DejaVuSans-2212"
                 id="use18" />
              <use
                 xlink:href="#DejaVuSans-30"
                 transform="translate(83.789062)"
                 id="use19" />
              <use
                 xlink:href="#DejaVuSans-2e"
                 transform="translate(147.41211)"
                 id="use20" />
              <use
                 xlink:href="#DejaVuSans-30"
                 transform="translate(179.19922)"
                 id="use21" />
              <use
                 xlink:href="#DejaVuSans-30"
                 transform="translate(242.82227)"
                 id="use22" />
              <use
                 xlink:href="#DejaVuSans-38"
                 transform="translate(306.44531)"
                 id="use23" />
            </g>
          </g>
        </g>
        <g
           id="xtick_3">
          <g
             id="line2d_3">
            <g
               id="g24">
              <use
                 xlink:href="#ma6a7ff90b0"
                 x="564.86273"
                 y="597.00165"
                 style="stroke:#000000;stroke-width:0.8"
                 id="use24" />
            </g>
          </g>
          <g
             id="text_3">
            <!-- −0.006 -->
            <g
               transform="matrix(0.14,0,0,-0.14,538.95728,611.13944)"
               id="g30">
              <defs
                 id="defs24">
                <path
                   id="DejaVuSans-36"
                   d="m 2113,2584 q -425,0 -674,-291 -248,-290 -248,-796 0,-503 248,-796 249,-292 674,-292 425,0 673,292 248,293 248,796 0,506 -248,796 -248,291 -673,291 z m 1253,1979 v -575 q -238,112 -480,171 -242,60 -480,60 -625,0 -955,-422 -329,-422 -376,-1275 184,272 462,417 279,145 613,145 703,0 1111,-427 408,-426 408,-1160 0,-719 -425,-1154 -425,-434 -1131,-434 -810,0 -1238,620 -428,621 -428,1799 0,1106 525,1764 525,658 1409,658 238,0 480,-47 242,-47 505,-140 z"
                   transform="scale(0.015625)" />
              </defs>
              <use
                 xlink:href="#DejaVuSans-2212"
                 id="use25" />
              <use
                 xlink:href="#DejaVuSans-30"
                 transform="translate(83.789062)"
                 id="use26" />
              <use
                 xlink:href="#DejaVuSans-2e"
                 transform="translate(147.41211)"
                 id="use27" />
              <use
                 xlink:href="#DejaVuSans-30"
                 transform="translate(179.19922)"
                 id="use28" />
              <use
                 xlink:href="#DejaVuSans-30"
                 transform="translate(242.82227)"
                 id="use29" />
              <use
                 xlink:href="#DejaVuSans-36"
                 transform="translate(306.44531)"
                 id="use30" />
            </g>
          </g>
        </g>
        <g
           id="xtick_4">
          <g
             id="line2d_4">
            <g
               id="g31">
              <use
                 xlink:href="#ma6a7ff90b0"
                 x="700.03638"
                 y="597.00165"
                 style="stroke:#000000;stroke-width:0.8"
                 id="use31" />
            </g>
          </g>
          <g
             id="text_4">
            <!-- −0.004 -->
            <g
               transform="matrix(0.14,0,0,-0.14,674.13091,611.13944)"
               id="g37">
              <defs
                 id="defs31">
                <path
                   id="DejaVuSans-34"
                   d="M 2419,4116 825,1625 h 1594 z m -166,550 h 794 V 1625 h 666 V 1100 H 3047 V 0 H 2419 V 1100 H 313 v 609 z"
                   transform="scale(0.015625)" />
              </defs>
              <use
                 xlink:href="#DejaVuSans-2212"
                 id="use32" />
              <use
                 xlink:href="#DejaVuSans-30"
                 transform="translate(83.789062)"
                 id="use33" />
              <use
                 xlink:href="#DejaVuSans-2e"
                 transform="translate(147.41211)"
                 id="use34" />
              <use
                 xlink:href="#DejaVuSans-30"
                 transform="translate(179.19922)"
                 id="use35" />
              <use
                 xlink:href="#DejaVuSans-30"
                 transform="translate(242.82227)"
                 id="use36" />
              <use
                 xlink:href="#DejaVuSans-34"
                 transform="translate(306.44531)"
                 id="use37" />
            </g>
          </g>
        </g>
        <g
           id="xtick_5">
          <g
             id="line2d_5">
            <g
               id="g38">
              <use
                 xlink:href="#ma6a7ff90b0"
                 x="835.21002"
                 y="597.00165"
                 style="stroke:#000000;stroke-width:0.8"
                 id="use38" />
            </g>
          </g>
          <g
             id="text_5">
            <!-- −0.002 -->
            <g
               transform="matrix(0.14,0,0,-0.14,809.30455,611.13944)"
               id="g44">
              <defs
                 id="defs38">
                <path
                   id="DejaVuSans-32"
                   d="M 1228,531 H 3431 V 0 H 469 v 531 q 359,372 979,998 621,627 780,809 303,340 423,576 121,236 121,464 0,372 -261,606 -261,235 -680,235 -297,0 -627,-103 -329,-103 -704,-313 v 638 q 381,153 712,231 332,78 607,78 725,0 1156,-363 431,-362 431,-968 0,-288 -108,-546 -107,-257 -392,-607 -78,-91 -497,-524 Q 1991,1309 1228,531 Z"
                   transform="scale(0.015625)" />
              </defs>
              <use
                 xlink:href="#DejaVuSans-2212"
                 id="use39" />
              <use
                 xlink:href="#DejaVuSans-30"
                 transform="translate(83.789062)"
                 id="use40" />
              <use
                 xlink:href="#DejaVuSans-2e"
                 transform="translate(147.41211)"
                 id="use41" />
              <use
                 xlink:href="#DejaVuSans-30"
                 transform="translate(179.19922)"
                 id="use42" />
              <use
                 xlink:href="#DejaVuSans-30"
                 transform="translate(242.82227)"
                 id="use43" />
              <use
                 xlink:href="#DejaVuSans-32"
                 transform="translate(306.44531)"
                 id="use44" />
            </g>
          </g>
        </g>
        <g
           id="xtick_6">
          <g
             id="line2d_6">
            <g
               id="g45">
              <use
                 xlink:href="#ma6a7ff90b0"
                 x="970.38367"
                 y="597.00165"
                 style="stroke:#000000;stroke-width:0.8"
                 id="use45" />
            </g>
          </g>
          <g
             id="text_6">
            <!-- 0.000 -->
            <g
               transform="matrix(0.14,0,0,-0.14,950.34397,611.13944)"
               id="g50">
              <use
                 xlink:href="#DejaVuSans-30"
                 id="use46" />
              <use
                 xlink:href="#DejaVuSans-2e"
                 transform="translate(63.623047)"
                 id="use47" />
              <use
                 xlink:href="#DejaVuSans-30"
                 transform="translate(95.410156)"
                 id="use48" />
              <use
                 xlink:href="#DejaVuSans-30"
                 transform="translate(159.0332)"
                 id="use49" />
              <use
                 xlink:href="#DejaVuSans-30"
                 transform="translate(222.65625)"
                 id="use50" />
            </g>
          </g>
        </g>
        <g
           id="xtick_7">
          <g
             id="line2d_7">
            <g
               id="g51">
              <use
                 xlink:href="#ma6a7ff90b0"
                 x="1105.5573"
                 y="597.00165"
                 style="stroke:#000000;stroke-width:0.8"
                 id="use51" />
            </g>
          </g>
          <g
             id="text_7">
            <!-- 0.002 -->
            <g
               transform="matrix(0.14,0,0,-0.14,1085.5176,611.13944)"
               id="g56">
              <use
                 xlink:href="#DejaVuSans-30"
                 id="use52" />
              <use
                 xlink:href="#DejaVuSans-2e"
                 transform="translate(63.623047)"
                 id="use53" />
              <use
                 xlink:href="#DejaVuSans-30"
                 transform="translate(95.410156)"
                 id="use54" />
              <use
                 xlink:href="#DejaVuSans-30"
                 transform="translate(159.0332)"
                 id="use55" />
              <use
                 xlink:href="#DejaVuSans-32"
                 transform="translate(222.65625)"
                 id="use56" />
            </g>
          </g>
        </g>
        <g
           id="xtick_8">
          <g
             id="line2d_8">
            <g
               id="g57">
              <use
                 xlink:href="#ma6a7ff90b0"
                 x="1240.731"
                 y="597.00165"
                 style="stroke:#000000;stroke-width:0.8"
                 id="use57" />
            </g>
          </g>
          <g
             id="text_8">
            <!-- 0.004 -->
            <g
               transform="matrix(0.14,0,0,-0.14,1220.6912,611.13944)"
               id="g62">
              <use
                 xlink:href="#DejaVuSans-30"
                 id="use58" />
              <use
                 xlink:href="#DejaVuSans-2e"
                 transform="translate(63.623047)"
                 id="use59" />
              <use
                 xlink:href="#DejaVuSans-30"
                 transform="translate(95.410156)"
                 id="use60" />
              <use
                 xlink:href="#DejaVuSans-30"
                 transform="translate(159.0332)"
                 id="use61" />
              <use
                 xlink:href="#DejaVuSans-34"
                 transform="translate(222.65625)"
                 id="use62" />
            </g>
          </g>
        </g>
        <g
           id="text_9">
          <!-- Time (ms) -->
          <g
             transform="matrix(0.18,0,0,-0.18,720.94641,631.72819)"
             id="g71">
            <defs
               id="defs62">
              <path
                 id="DejaVuSans-54"
                 d="M -19,4666 H 3928 V 4134 H 2272 V 0 H 1638 V 4134 H -19 Z"
                 transform="scale(0.015625)" />
              <path
                 id="DejaVuSans-69"
                 d="m 603,3500 h 575 V 0 H 603 Z m 0,1363 h 575 V 4134 H 603 Z"
                 transform="scale(0.015625)" />
              <path
                 id="DejaVuSans-6d"
                 d="m 3328,2828 q 216,388 516,572 300,184 706,184 547,0 844,-383 297,-382 297,-1088 V 0 h -578 v 2094 q 0,503 -179,746 -178,244 -543,244 -447,0 -707,-297 -259,-296 -259,-809 V 0 h -578 v 2094 q 0,506 -178,748 -178,242 -550,242 -441,0 -701,-298 -259,-298 -259,-808 V 0 H 581 v 3500 h 578 v -544 q 197,322 472,475 275,153 653,153 382,0 649,-194 267,-193 395,-562 z"
                 transform="scale(0.015625)" />
              <path
                 id="DejaVuSans-65"
                 d="M 3597,1894 V 1613 H 953 q 38,-594 358,-905 320,-311 892,-311 331,0 642,81 311,81 618,244 V 178 Q 3153,47 2828,-22 2503,-91 2169,-91 1331,-91 842,396 353,884 353,1716 q 0,859 464,1363 464,505 1252,505 706,0 1117,-455 411,-454 411,-1235 z m -575,169 q -6,471 -264,752 -258,282 -683,282 -481,0 -770,-272 -289,-272 -333,-766 z"
                 transform="scale(0.015625)" />
              <path
                 id="DejaVuSans-20"
                 transform="scale(0.015625)"
                 d="" />
              <path
                 id="DejaVuSans-28"
                 d="m 1984,4856 q -418,-718 -622,-1422 -203,-703 -203,-1425 0,-721 205,-1429 205,-708 620,-1424 h -500 q -468,735 -701,1444 -233,709 -233,1409 0,697 231,1403 232,707 703,1444 z"
                 transform="scale(0.015625)" />
              <path
                 id="DejaVuSans-73"
                 d="m 2834,3397 v -544 q -243,125 -506,187 -262,63 -544,63 -428,0 -642,-131 -214,-131 -214,-394 0,-200 153,-314 153,-114 616,-217 l 197,-44 q 612,-131 870,-370 258,-239 258,-667 0,-488 -386,-773 Q 2250,-91 1575,-91 1294,-91 989,-36 684,19 347,128 v 594 q 319,-166 628,-249 309,-82 613,-82 406,0 624,139 219,139 219,392 0,234 -158,359 -157,125 -692,241 l -200,47 q -534,112 -772,345 -237,233 -237,639 0,494 350,762 350,269 994,269 318,0 599,-47 282,-46 519,-140 z"
                 transform="scale(0.015625)" />
              <path
                 id="DejaVuSans-29"
                 d="m 513,4856 h 500 q 468,-737 701,-1444 233,-706 233,-1403 0,-700 -233,-1409 -233,-709 -701,-1444 H 513 q 415,716 620,1424 205,708 205,1429 0,722 -205,1425 -205,704 -620,1422 z"
                 transform="scale(0.015625)" />
            </defs>
            <use
               xlink:href="#DejaVuSans-54"
               id="use63" />
            <use
               xlink:href="#DejaVuSans-69"
               transform="translate(57.958984)"
               id="use64" />
            <use
               xlink:href="#DejaVuSans-6d"
               transform="translate(85.742188)"
               id="use65" />
            <use
               xlink:href="#DejaVuSans-65"
               transform="translate(183.1543)"
               id="use66" />
            <use
               xlink:href="#DejaVuSans-20"
               transform="translate(244.67773)"
               id="use67" />
            <use
               xlink:href="#DejaVuSans-28"
               transform="translate(276.46484)"
               id="use68" />
            <use
               xlink:href="#DejaVuSans-6d"
               transform="translate(315.47852)"
               id="use69" />
            <use
               xlink:href="#DejaVuSans-73"
               transform="translate(412.89062)"
               id="use70" />
            <use
               xlink:href="#DejaVuSans-29"
               transform="translate(464.99023)"
               id="use71" />
          </g>
        </g>
      </g>
      <g
         id="matplotlib.axis_2">
        <g
           id="ytick_1">
          <g
             id="line2d_9">
            <defs
               id="defs71">
              <path
                 id="mf37e34642c"
                 d="M 0,0 H 3.5"
                 style="stroke:#000000;stroke-width:0.8" />
            </defs>
            <g
               id="g72">
              <use
                 xlink:href="#mf37e34642c"
                 x="182.61"
                 y="536.45306"
                 style="stroke:#000000;stroke-width:0.8"
                 id="use72" />
            </g>
          </g>
          <g
             id="text_10">
            <!-- 0.0 -->
            <g
               transform="matrix(0.14,0,0,-0.14,156.84562,541.77198)"
               id="g75">
              <use
                 xlink:href="#DejaVuSans-30"
                 id="use73" />
              <use
                 xlink:href="#DejaVuSans-2e"
                 transform="translate(63.623047)"
                 id="use74" />
              <use
                 xlink:href="#DejaVuSans-30"
                 transform="translate(95.410156)"
                 id="use75" />
            </g>
          </g>
        </g>
        <g
           id="ytick_2">
          <g
             id="line2d_10">
            <g
               id="g76">
              <use
                 xlink:href="#mf37e34642c"
                 x="182.61"
                 y="414.08594"
                 style="stroke:#000000;stroke-width:0.8"
                 id="use76" />
            </g>
          </g>
          <g
             id="text_11">
            <!-- 0.5 -->
            <g
               transform="matrix(0.14,0,0,-0.14,156.84562,419.40484)"
               id="g79">
              <defs
                 id="defs76">
                <path
                   id="DejaVuSans-35"
                   d="M 691,4666 H 3169 V 4134 H 1269 V 2991 q 137,47 274,70 138,23 276,23 781,0 1237,-428 457,-428 457,-1159 Q 3513,744 3044,326 2575,-91 1722,-91 1428,-91 1123,-41 819,9 494,109 v 635 q 281,-153 581,-228 300,-75 634,-75 541,0 856,284 316,284 316,772 0,487 -316,771 -315,285 -856,285 -253,0 -505,-56 -251,-56 -513,-175 z"
                   transform="scale(0.015625)" />
              </defs>
              <use
                 xlink:href="#DejaVuSans-30"
                 id="use77" />
              <use
                 xlink:href="#DejaVuSans-2e"
                 transform="translate(63.623047)"
                 id="use78" />
              <use
                 xlink:href="#DejaVuSans-35"
                 transform="translate(95.410156)"
                 id="use79" />
            </g>
          </g>
        </g>
        <g
           id="ytick_3">
          <g
             id="line2d_11">
            <g
               id="g80">
              <use
                 xlink:href="#mf37e34642c"
                 x="182.61"
                 y="291.71881"
                 style="stroke:#000000;stroke-width:0.8"
                 id="use80" />
            </g>
          </g>
          <g
             id="text_12">
            <!-- 1.0 -->
            <g
               transform="matrix(0.14,0,0,-0.14,156.84562,297.03771)"
               id="g83">
              <use
                 xlink:href="#DejaVuSans-31"
                 id="use81" />
              <use
                 xlink:href="#DejaVuSans-2e"
                 transform="translate(63.623047)"
                 id="use82" />
              <use
                 xlink:href="#DejaVuSans-30"
                 transform="translate(95.410156)"
                 id="use83" />
            </g>
          </g>
        </g>
        <g
           id="ytick_4">
          <g
             id="line2d_12">
            <g
               id="g84">
              <use
                 xlink:href="#mf37e34642c"
                 x="182.61"
                 y="169.35165"
                 style="stroke:#000000;stroke-width:0.8"
                 id="use84" />
            </g>
          </g>
          <g
             id="text_13">
            <!-- 1.5 -->
            <g
               transform="matrix(0.14,0,0,-0.14,156.84562,174.67057)"
               id="g87">
              <use
                 xlink:href="#DejaVuSans-31"
                 id="use85" />
              <use
                 xlink:href="#DejaVuSans-2e"
                 transform="translate(63.623047)"
                 id="use86" />
              <use
                 xlink:href="#DejaVuSans-35"
                 transform="translate(95.410156)"
                 id="use87" />
            </g>
          </g>
        </g>
        <g
           id="ytick_5">
          <g
             id="line2d_13">
            <g
               id="g88">
              <use
                 xlink:href="#mf37e34642c"
                 x="182.61"
                 y="46.984524"
                 style="stroke:#000000;stroke-width:0.8"
                 id="use88" />
            </g>
          </g>
          <g
             id="text_14">
            <!-- 2.0 -->
            <g
               transform="matrix(0.14,0,0,-0.14,156.84562,52.303428)"
               id="g91">
              <use
                 xlink:href="#DejaVuSans-32"
                 id="use89" />
              <use
                 xlink:href="#DejaVuSans-2e"
                 transform="translate(63.623047)"
                 id="use90" />
              <use
                 xlink:href="#DejaVuSans-30"
                 transform="translate(95.410156)"
                 id="use91" />
            </g>
          </g>
        </g>
        <g
           id="text_15">
          <!-- $j_{Ph}$ (pA) -->
          <g
             transform="matrix(0,-0.18,-0.18,0,149.06562,341.68956)"
             id="g99">
            <defs
               id="defs91">
              <path
                 id="DejaVuSans-Oblique-6a"
                 d="m 928,3500 h 575 L 813,-63 809,-78 q -115,-597 -265,-819 -141,-209 -412,-321 -270,-113 -638,-113 h -216 l 94,487 h 147 q 337,0 480,141 142,140 239,640 z m 269,1363 h 575 l -141,-729 h -575 z"
                 transform="scale(0.015625)" />
              <path
                 id="DejaVuSans-Oblique-50"
                 d="m 1081,4666 h 1460 q 637,0 971,-297 335,-297 335,-869 0,-769 -494,-1197 -494,-428 -1387,-428 H 1172 L 806,0 H 172 Z m 532,-519 -338,-1753 h 794 q 537,0 824,275 288,275 288,787 0,328 -195,509 -195,182 -548,182 z"
                 transform="scale(0.015625)" />
              <path
                 id="DejaVuSans-Oblique-68"
                 d="M 3566,2113 3156,0 h -578 l 410,2091 q 28,147 43,259 16,113 16,178 0,263 -166,409 -165,147 -462,147 -463,0 -802,-313 -339,-312 -439,-830 L 800,0 H 225 l 947,4863 h 575 L 1375,2950 q 219,294 559,464 341,170 716,170 463,0 717,-250 255,-250 255,-703 0,-112 -14,-240 -14,-128 -42,-278 z"
                 transform="scale(0.015625)" />
              <path
                 id="DejaVuSans-70"
                 d="M 1159,525 V -1331 H 581 v 4831 h 578 v -531 q 182,312 458,463 277,152 661,152 638,0 1036,-506 399,-506 399,-1331 0,-825 -399,-1332 -398,-506 -1036,-506 -384,0 -661,152 -276,152 -458,464 z m 1957,1222 q 0,634 -261,995 -261,361 -717,361 -457,0 -718,-361 -261,-361 -261,-995 0,-634 261,-995 261,-361 718,-361 456,0 717,361 261,361 261,995 z"
                 transform="scale(0.015625)" />
              <path
                 id="DejaVuSans-41"
                 d="M 2188,4044 1331,1722 h 1716 z m -357,622 h 716 L 4325,0 H 3669 L 3244,1197 H 1141 L 716,0 H 50 Z"
                 transform="scale(0.015625)" />
            </defs>
            <use
               xlink:href="#DejaVuSans-Oblique-6a"
               transform="translate(0,0.015625)"
               id="use92" />
            <use
               xlink:href="#DejaVuSans-Oblique-50"
               transform="matrix(0.7,0,0,0.7,27.783203,-16.390625)"
               id="use93" />
            <use
               xlink:href="#DejaVuSans-Oblique-68"
               transform="matrix(0.7,0,0,0.7,69.995117,-16.390625)"
               id="use94" />
            <use
               xlink:href="#DejaVuSans-20"
               transform="translate(117.09473,0.015625)"
               id="use95" />
            <use
               xlink:href="#DejaVuSans-28"
               transform="translate(148.88184,0.015625)"
               id="use96" />
            <use
               xlink:href="#DejaVuSans-70"
               transform="translate(187.89551,0.015625)"
               id="use97" />
            <use
               xlink:href="#DejaVuSans-41"
               transform="translate(251.37207,0.015625)"
               id="use98" />
            <use
               xlink:href="#DejaVuSans-29"
               transform="translate(319.78027,0.015625)"
               id="use99" />
          </g>
        </g>
      </g>
      <g
         id="line2d_14">
        <path
           d="M 182.61,536.45308 H 1350"
           clip-path="url(#pf4ce57165b)"
           style="fill:none;stroke:#a9a9a9;stroke-width:1.5;stroke-dasharray:5.55, 2.4;stroke-dashoffset:0"
           id="path99" />
      </g>
      <g
         id="line2d_15">
        <path
           d="m 182.32135,521.84797 h 0.67587 l 0.67587,9.78937 0.67587,-9.78937 0.67587,9.78937 h 2.0276 l 0.67587,9.78937 h 1.35173 l 0.67587,-9.78937 h 2.02761 l 0.67587,9.78937 h 1.35173 l 0.67587,-9.78937 0.67587,9.78937 0.67587,-9.78937 h 0.67586 l 0.67587,9.78937 h 0.67587 l 0.67587,-9.78937 h 0.67587 l 0.67587,9.78937 h 1.35173 l 0.67587,-9.78937 2.0276,29.36811 0.67587,-9.78937 0.67587,9.78937 0.67587,-9.78937 0.67587,9.78937 h 1.35173 l 0.67587,-9.78937 h 4.73108 l 0.67587,-9.78937 h 0.67587 l 0.67586,-9.78937 0.67587,9.78937 0.67587,-19.57874 0.67587,9.78937 h 2.0276 l 0.67587,-9.78937 h 0.67587 l 0.67587,-9.78938 h 2.0276 l 0.67587,-9.78937 h 2.0276 l 0.67587,-9.78937 h 0.67587 l 0.67587,-9.78937 h 1.35174 l 0.67586,-9.78937 h 0.67587 l 1.35174,-19.57874 h 0.67587 l 1.35173,-39.15749 0.67587,-9.78937 1.35174,-39.15748 h 0.67587 l 1.35173,-39.15749 0.67587,-9.78937 h 0.67587 l 2.0276,-29.36811 1.35174,-39.15749 0.67587,-9.78937 h 0.67587 l 1.35173,-19.57874 h 0.67587 l 1.35174,-19.57874 0.67586,-19.57874 h 0.67587 l 0.67587,-9.78937 h 0.67587 l 1.35174,-19.57875 h 0.67586 l 0.67587,-9.78937 0.67587,-19.57874 h 0.67587 l 0.67587,-9.78937 h 0.67586 l 0.67587,9.78937 0.67587,-9.78937 h 0.67587 l 0.67587,-9.78937 h 1.35173 l 0.67587,-9.789372 0.67587,9.789372 0.67587,-9.789372 0.67587,9.789372 1.35173,-19.578743 h 2.70348 l 0.67586,-9.789371 0.67587,9.789371 0.67587,-9.789371 0.67587,9.789371 h 7.43455 l 0.67587,9.789371 0.67587,-9.789371 0.67586,9.789371 0.67587,-9.789371 0.67587,9.789371 h 0.67587 l 0.67587,9.789372 h 1.35173 l 0.67587,-9.789372 0.67587,9.789372 0.67587,-9.789372 h 1.35173 l 0.67587,9.789372 0.67587,-9.789372 0.67587,9.789372 h 0.67587 l 0.67586,9.78937 0.67587,-9.78937 h 2.70347 l 0.67587,-9.789372 0.67587,19.578742 h 0.67587 l 0.67587,-9.78937 h 8.78628 l 0.67587,-9.789372 h 4.05521 l 0.67587,9.789372 0.67587,-9.789372 h 0.67587 l 0.67586,-9.789371 h 0.67587 l 0.67587,9.789371 0.67587,-9.789371 0.67587,9.789371 h 0.67586 l 0.67587,-9.789371 0.67587,9.789371 h 2.70348 l 0.67586,9.789372 h 0.67587 l 0.67587,9.78937 h 2.0276 l 0.67587,-9.78937 h 2.70348 l 0.67586,9.78937 h 0.67587 l 0.67587,9.78937 h 2.70347 l 0.67587,9.78937 0.67587,-9.78937 0.67587,19.57874 h 0.67587 l 0.67586,9.78937 h 0.67587 l 2.70347,39.15749 h 0.67587 l 0.67587,29.36811 1.35174,19.57874 0.67586,19.57875 1.35174,19.57874 0.67587,19.57874 h 0.67587 l 1.35173,19.57874 0.67587,19.57874 0.67587,9.78938 h 0.67587 l 1.35173,39.15748 h 0.67587 l 1.35174,19.57874 h 0.67587 l 0.67587,19.57874 h 0.67586 l 0.67587,9.78938 h 1.35174 l 1.35173,19.57874 h 0.67587 l 1.35174,19.57874 h 0.67587 l 0.67587,9.78937 h 0.67586 l 0.67587,9.78937 0.67587,19.57874 0.67587,-9.78937 1.35173,19.57875 h 2.70348 l 0.67587,9.78937 0.67586,-9.78937 h 1.35174 l 0.67587,9.78937 h 4.73108 l 0.67586,9.78937 0.67587,-9.78937 0.67587,9.78937 h 3.37934 l 0.67587,9.78937 h 2.0276 l 0.67587,-9.78937 h 2.70347 l 0.67587,-9.78937 0.67587,9.78937 h 1.35174 l 0.67587,-9.78937 1.35173,19.57874 0.67587,-9.78937 h 4.05521 l 0.67587,-9.78937 h 2.0276 l 0.67587,-9.78937 h 0.67587 l 0.67587,9.78937 0.67586,-9.78937 h 0.67587 l 0.67587,9.78937 1.35174,-19.57875 0.67587,19.57875 1.35173,-19.57875 h 1.35174 l 0.67587,9.78938 0.67586,-9.78938 h 4.05521 l 0.67587,9.78938 0.67587,-9.78938 h 5.40695 l 0.67586,-9.78937 0.67587,9.78937 h 0.67587 l 0.67587,-9.78937 h 2.0276 l 0.67587,-9.78937 0.67587,9.78937 h 2.0276 l 0.67587,-9.78937 h 1.35174 l 0.67587,-9.78937 h 1.35173 l 0.67587,-9.78937 h 0.67587 l 0.67587,-9.78937 h 2.0276 l 0.67587,-19.57874 0.67587,-9.78937 h 1.35173 l 0.67587,-9.78938 h 0.67587 l 1.35174,-19.57874 h 0.67587 l 2.70347,-39.15748 0.67587,-19.57874 0.67586,-9.78938 h 0.67587 l 1.35174,-39.15748 0.67587,-9.78937 0.67587,-19.57874 1.35173,-19.57875 1.35174,-39.15748 h 0.67587 l 0.67586,-19.57874 h 0.67587 l 0.67587,-9.78937 0.67587,-19.57874 h 0.67587 l 0.67587,-9.78938 h 0.67586 l 0.67587,-9.78937 h 0.67587 l 0.67587,-19.57874 h 1.35173 l 0.67587,-9.78937 0.67587,9.78937 1.35174,-19.57874 h 0.67587 l 0.67586,-9.789372 h 0.67587 l 0.67587,-9.789371 h 2.0276 l 0.67587,-9.789371 h 2.02761 l 0.67587,9.789371 0.67586,-9.789371 h 0.67587 l 0.67587,-9.789371 h 2.0276 l 0.67587,-9.789371 h 5.40695 l 0.67587,9.789371 0.67586,-9.789371 h 1.35174 l 0.67587,-9.789371 0.67587,9.789371 h 2.0276 l 1.35174,19.578742 1.35173,-19.578742 h 0.67587 l 0.67587,9.789371 h 6.75868 l 0.67587,9.789371 h 0.67587 l 0.67587,-9.789371 h 0.67587 l 0.67586,9.789371 h 1.35174 l 0.67587,9.789371 1.35173,-19.578742 h 0.67587 l 0.67587,-9.789371 h 4.73108 l 0.67587,-9.789371 0.67586,9.789371 h 0.67587 l 0.67587,-9.789371 0.67587,9.789371 h 0.67587 l 0.67587,-9.789371 0.67586,9.789371 h 2.02761 l 0.67587,9.789371 h 0.67586 l 0.67587,9.789371 0.67587,-9.789371 0.67587,9.789371 0.67587,-9.789371 h 2.70347 l 0.67587,9.789371 1.35173,-19.578742 h 0.67587 l 0.67587,9.789371 h 2.02761 l 0.67586,9.789371 h 0.67587 l 0.67587,9.789371 h 1.35174 l 0.67586,9.789371 h 0.67587 l 0.67587,9.789372 h 0.67587 l 0.67587,-9.789372 h 0.67587 l 0.67586,9.789372 h 0.67587 l 1.35174,19.57874 h 0.67587 l 0.67586,9.78937 0.67587,19.57874 h 0.67587 l 0.67587,9.78938 0.67587,19.57874 3.37934,48.94685 0.67587,19.57874 0.67587,9.78938 0.67586,19.57874 2.70348,39.15748 0.67586,19.57874 0.67587,9.78938 0.67587,19.57874 2.70347,39.15748 h 0.67587 l 1.35174,19.57874 0.67587,19.57875 1.35173,19.57874 h 0.67587 l 1.35174,19.57874 h 0.67587 l 0.67586,9.78937 h 1.35174 l 0.67587,9.78937 h 0.67587 l 0.67586,9.78937 h 2.02761 l 0.67587,9.78938 h 1.35173 l 0.67587,9.78937 h 0.67587 l 0.67587,9.78937 0.67587,-9.78937 h 1.35173 l 0.67587,9.78937 h 8.11042 l 0.67587,9.78937 h 1.35173 l 0.67587,9.78937 0.67587,-9.78937 h 1.35174 l 0.67586,-9.78937 h 2.70348 l 0.67587,9.78937 h 2.0276 l 0.67587,9.78937 0.67587,-9.78937 0.67586,9.78937 0.67587,-9.78937 0.67587,9.78937 0.67587,-9.78937 h 1.35174 l 0.67586,-9.78937 0.67587,9.78937 h 0.67587 l 0.67587,-9.78937 0.67587,9.78937 0.67586,-9.78937 h 4.73108 l 0.67587,9.78937 h 0.67587 l 0.67587,9.78937 0.67587,-9.78937 0.67586,9.78937 0.67587,-9.78937 h 1.35174 l 0.67587,-9.78937 0.67586,9.78937 h 2.02761 l 0.67587,-9.78937 0.67586,9.78937 h 0.67587 l 0.67587,-9.78937 0.67587,9.78937 h 0.67587 l 0.67587,-9.78937 h 11.48975 l 0.67587,-9.78937 h 1.35174 l 0.67587,9.78937 0.67587,-9.78937 h 3.37934 l 3.37934,-48.94686 h 0.67587 l 0.67586,-9.78937 h 0.67587 l 1.35174,-19.57874 0.67587,-19.57874 4.05521,-58.73623 1.35173,-39.15749 0.67587,-9.78937 0.67587,-19.57874 0.67587,-9.78937 1.35173,-39.15748 2.02761,-29.36812 h 0.67587 l 0.67586,-19.57874 1.35174,-19.57874 h 0.67587 l 1.35173,-19.57874 h 0.67587 l 0.67587,-9.78937 h 0.67587 l 0.67587,-9.78938 h 2.0276 l 0.67587,-19.57874 h 0.67587 l 0.67587,-9.78937 h 2.70347 l 0.67587,-9.78937 0.67587,9.78937 h 2.0276 l 1.35174,-19.57874 0.67586,9.78937 0.67587,-9.78937 h 0.67587 l 0.67587,9.78937 h 0.67587 l 0.67587,9.78937 0.67586,-9.78937 h 2.70348 l 0.67587,-9.78937 h 4.0552 l 0.67587,9.78937 h 1.35174 l 0.67587,9.78937 h 3.37934 l 0.67587,-9.78937 h 1.35173 l 1.35174,-19.578742 h 2.0276 l 0.67587,-9.789371 h 1.35174 l 0.67587,9.789371 h 2.0276 l 0.67587,9.789372 h 3.37934 l 0.67587,-9.789372 0.67587,9.789372 0.67586,-9.789372 h 2.70348 l 0.67587,-9.789371 0.67586,9.789371 h 1.35174 l 0.67587,-9.789371 0.67587,9.789371 0.67586,-9.789371 h 0.67587 l 1.35174,19.578743 0.67587,-9.789372 h 0.67586 l 0.67587,9.789372 0.67587,-9.789372 0.67587,9.789372 0.67587,-9.789372 h 1.35173 l 0.67587,-9.789371 h 1.35174 l 0.67587,-9.789371 h 1.35173 l 0.67587,9.789371 h 2.02761 l 0.67586,19.578743 0.67587,-9.789372 0.67587,9.789372 h 0.67587 l 0.67587,9.78937 h 1.35173 l 0.67587,9.78937 1.35174,-19.57874 0.67587,9.78937 h 0.67586 l 1.35174,19.57874 h 0.67587 l 0.67587,19.57874 h 0.67587 l 0.67586,-9.78937 1.35174,19.57875 h 1.35174 l 0.67586,9.78937 h 0.67587 l 0.67587,19.57874 h 0.67587 l 3.37934,48.94685 0.67587,19.57875 2.0276,29.36811 0.67587,19.57874 0.67587,9.78937 0.67587,19.57874 0.67587,9.78938 1.35173,39.15748 0.67587,9.78937 0.67587,19.57874 0.67587,9.78937 h 0.67587 l 1.35173,19.57875 h 0.67587 l 0.67587,9.78937 h 0.67586 l 1.35174,19.57874 h 0.67587 l 2.0276,29.36811 h 0.67587 l 1.35174,19.57875 h 0.67587 l 0.67587,-9.78938 1.35173,19.57875 h 0.67587 l 0.67587,9.78937 h 3.37934 l 0.67587,9.78937 h 0.67586 l 0.67587,-9.78937 h 2.02761 l 0.67587,19.57874 h 2.70347 l 0.67587,-9.78937 0.67587,9.78937 h 2.70347 l 0.67587,9.78937 h 1.35173 l 0.67587,-9.78937 0.67587,19.57874 h 0.67587 l 0.67587,-9.78937 0.67586,9.78937 0.67587,-9.78937 h 0.67587 l 0.67587,-9.78937 0.67587,19.57874 0.67586,-9.78937 0.67587,9.78937 0.67587,-9.78937 h 0.67587 l 0.67587,-9.78937 h 1.35173 l 0.67587,-9.78937 1.35174,19.57874 h 2.0276 l 0.67587,-9.78937 0.67587,9.78937 0.67587,-9.78937 0.67587,9.78937 h 4.0552 l 0.67587,9.78937 0.67587,-9.78937 0.67587,9.78937 h 0.67587 l 0.67587,-19.57874 0.67586,9.78937 0.67587,-9.78937 h 0.67587 l 0.67587,9.78937 0.67587,-19.57874 0.67587,9.78937 0.67586,-9.78937 h 4.05521 l 0.67587,9.78937 0.67587,-9.78937 h 2.0276 l 0.67587,-9.78937 0.67587,9.78937 h 0.67587 l 0.67587,-9.78937 h 0.67586 l 0.67587,9.78937 0.67587,-9.78937 h 2.02761 l 0.67586,-9.78937 0.67587,9.78937 0.67587,-9.78937 h 1.35174 l 0.67586,9.78937 0.67587,-9.78937 0.67587,9.78937 1.35174,-19.57874 h 1.35173 l 1.35174,-19.57875 h 0.67587 l 0.67587,-9.78937 0.67586,-19.57874 h 0.67587 l 0.67587,-9.78937 h 1.35174 l 0.67587,-19.57874 0.67586,-9.78937 h 0.67587 l 0.67587,-19.57875 h 0.67587 l 0.67587,-9.78937 0.67586,-19.57874 2.02761,-29.36811 h 0.67587 l 0.67586,-19.57875 1.35174,-19.57874 0.67587,-29.36811 2.70347,-39.15749 0.67587,-19.57874 4.05521,-58.73622 h 0.67587 l 1.35173,-19.57875 h 0.67587 l 0.67587,-9.78937 0.67587,-19.57874 h 2.0276 l 0.67587,-9.78937 h 0.67587 l 1.35174,-19.578742 0.67586,9.789372 h 0.67587 l 0.67587,-9.789372 h 1.35174 l 0.67586,-9.789371 h 2.02761 l 0.67587,-9.789371 h 2.0276 l 0.67587,-9.789371 0.67587,9.789371 h 5.40694 l 0.67587,-19.578742 0.67587,9.789371 h 1.35174 l 0.67586,9.789371 h 4.73108 l 1.35174,-19.578742 1.35173,19.578742 0.67587,-9.789371 h 0.67587 l 0.67587,9.789371 0.67587,-9.789371 0.67587,19.578742 1.35173,-19.578742 h 1.35174 l 1.35173,19.578742 h 2.02761 l 0.67587,9.789371 0.67587,-9.789371 0.67586,9.789371 h 1.35174 l 0.67587,-9.789371 h 2.70347 l 0.67587,9.789371 0.67587,-9.789371 h 0.67587 l 0.67586,9.789371 0.67587,-9.789371 h 0.67587 l 0.67587,9.789371 0.67587,-9.789371 h 3.37934 l 0.67587,-9.789371 h 4.05521 l 0.67586,9.789371 h 1.35174 l 0.67587,-9.789371 h 0.67587 l 0.67586,9.789371 h 0.67587 l 0.67587,-9.789371 0.67587,9.789371 h 4.05521 l 0.67587,9.789371 h 1.35173 l 0.67587,9.789372 h 0.67587 l 0.67587,9.78937 0.67587,-9.78937 1.35173,19.57874 h 1.35174 l 1.35173,19.57874 h 1.35174 l 0.67587,19.57875 h 0.67587 l 0.67586,9.78937 0.67587,19.57874 h 0.67587 l 0.67587,9.78937 h 0.67587 l 0.67587,29.36811 1.35173,19.57874 1.35174,39.15749 0.67587,9.78937 h 0.67587 l 1.35173,39.15748 h 0.67587 l 0.67587,29.36812 h 0.67587 l 1.35173,19.57874 0.67587,19.57874 0.67587,9.78937 h 0.67587 l 0.67586,19.57875 1.35174,19.57874 h 0.67587 l 0.67587,9.78937 h 0.67587 l 0.67586,9.78937 h 1.35174 l 0.67587,9.78937 h 0.67587 l 0.67587,9.78937 h 0.67586 l 1.35174,19.57874 0.67587,-9.78937 0.67587,9.78937 h 2.0276 l 0.67587,9.78938 h 0.67587 l 0.67586,9.78937 h 0.67587 l 0.67587,9.78937 h 0.67587 l 0.67587,-9.78937 1.35173,19.57874 0.67587,-9.78937 0.67587,9.78937 h 0.67587 l 0.67587,-9.78937 0.67587,9.78937 0.67586,-9.78937 0.67587,9.78937 0.67587,-9.78937 h 1.35178 l 0.6758,9.78937 0.6759,-9.78937 h 1.3517 l 0.6759,9.78937 h 0.6759 l 0.6758,-9.78937 0.6759,9.78937 h 2.0276 l 0.6759,-9.78937 h 0.6758 l 0.6759,-9.78937 h 1.3517 l 0.6759,-9.78937 h 2.0276 l 1.3518,19.57874 h 1.3517 l 0.6759,9.78937 0.6758,-9.78937 h 2.0276 l 1.3518,19.57874 0.6758,-9.78937 h 0.6759 l 0.6759,-9.78937 0.6758,9.78937 0.6759,-9.78937 0.6759,9.78937 0.6758,-9.78937 h 0.6759 l 0.6759,9.78937 h 0.6759 l 1.3517,-19.57874 0.6759,9.78937 h 0.6758 l 0.6759,9.78937 0.6759,-9.78937 0.6758,9.78937 h 4.0552 l 1.3518,19.57874 0.6758,-9.78937 h 2.0276 l 0.6759,-9.78937 0.6759,9.78937 h 2.7035 l 0.6758,-9.78937 h 0.6759 l 0.6759,-9.78937 h 1.3517 l 0.6759,-9.78937 h 0.6758 l 1.3518,-19.57875 h 1.3517 l 0.6759,-9.78937 h 1.3517 l 0.6759,-9.78937 h 0.6758 l 0.6759,-9.78937 h 1.3518 l 0.6758,-9.78937 h 0.6759 l 1.3517,-19.57874 h 2.0276 l 0.6759,-19.57874 0.6759,9.78937 4.0552,-58.73623 0.6758,-19.57874 1.3518,-19.57874 1.3517,-39.15749 2.7035,-39.15748 0.6759,-19.57875 2.7034,-39.15748 h 0.6759 l 0.6759,-9.78937 h 0.6758 l 0.6759,-9.78937 h 0.6759 l 1.3517,-19.57874 h 0.6759 l 2.7034,-39.15749 h 0.6759 l 0.6759,-9.78937 h 3.3793 l 0.6759,-9.78937 0.6759,9.78937 0.6758,-9.78937 0.6759,9.78937 h 0.6759 l 0.6758,-9.78937 h 1.3518 l 0.6758,-9.78937 h 0.6759 l 0.6759,9.78937 0.6758,-9.78937 0.6759,9.78937 h 0.6759 l 0.6758,-9.78937 0.6759,9.78937 h 2.0276 l 0.6759,9.78937 h 3.3793 l 0.6759,-9.78937 h 3.3793 l 0.6759,-9.78937 h 2.0276 l 0.6759,9.78937 h 4.0552 l 0.6759,9.78937 0.6758,-9.78937 h 1.3518 l 0.6758,-9.78937 h 1.3518 l 1.3517,19.57874 h 0.6759 l 0.6758,-9.78937 h 1.3518 l 0.6758,9.78937 h 3.3794 l 0.6759,9.78937 0.6758,-9.78937 h 2.7035 l 0.6759,-9.78937 0.6758,9.78937 h 4.0552 l 0.6759,-9.78937 0.6759,9.78937 h 0.6758 l 0.6759,-9.78937 h 2.7035 l 0.6759,9.78937 0.6758,-9.78937 h 0.6759 l 0.6759,-9.78937 h 1.3517 l 0.6759,9.78937 h 1.3517 l 0.6759,-9.78937 0.6758,9.78937 h 0.6759 l 0.6759,9.78937 h 2.7034 l 1.3518,19.57874 h 0.6758 l 0.6759,9.78937 0.6759,-9.78937 0.6759,19.57875 h 0.6758 l 0.6759,9.78937 h 0.6759 l 1.3517,19.57874 h 1.3517 l 0.6759,9.78937 0.6759,19.57874 h 0.6758 l 2.7035,39.15749 0.6759,19.57874 0.6758,9.78937 h 0.6759 l 3.3794,48.94685 1.3517,39.15749 2.0276,29.36811 0.6759,19.57874 3.3793,48.94686 0.6759,19.57874 h 0.6758 l 0.6759,9.78937 h 0.6759 l 0.6758,9.78937 h 1.3518 l 0.6758,19.57875 0.6759,-9.78937 1.3518,19.57874 h 0.6758 l 2.0276,29.36811 h 2.7035 l 0.6759,-9.78937 h 1.3517 l 0.6759,-9.78937 h 0.6758 l 0.6759,-9.78937 0.6759,9.78937 0.6758,-9.78937 0.6759,9.78937 h 2.0276 l 0.6759,19.57874 0.6759,-9.78937 h 0.6758 l 0.6759,9.78937 h 0.6759 l 0.6758,-9.78937 0.6759,9.78937 h 2.0276 l 0.6759,9.78937 h 0.6758 l 0.6759,-9.78937 h 0.6759 l 0.6758,9.78937 h 2.0276 l 0.6759,-9.78937 h 0.6759 l 0.6758,-9.78937 h 0.6759 l 0.6759,9.78937 h 2.0276 l 1.3517,-19.57874 0.6759,9.78937 0.6759,-9.78937 0.6758,9.78937 h 0.6759 l 0.6759,-9.78937 h 0.6758 l 0.6759,9.78937 h 2.7035 l 0.6758,-9.78937 h 0.6759 l 0.6759,9.78937 0.6758,-9.78937 0.6759,9.78937 0.6759,-9.78937 h 0.6759 l 0.6758,9.78937 0.6759,-9.78937 0.6759,9.78937 h 1.3517 l 0.6759,-9.78937 h 0.6758 l 0.6759,-9.78937 0.6759,9.78937 h 3.3793 l 0.6759,-9.78937 h 1.3517 l 0.6759,9.78937 0.6758,-9.78937 h 0.6759 l 0.6759,-9.78937 0.6759,9.78937 1.3517,-19.57874 0.6759,9.78937 1.3517,-19.57875 h 6.0828 l 0.6759,-9.78937 h 2.7034 l 1.3518,-19.57874 h 0.6759 l 0.6758,-9.78937 h 0.6759 l 0.6759,-9.78937 h 1.3517 l 2.0276,-29.36811 0.6759,-19.57875 2.0276,-29.36811 h 0.6758 l 0.6759,-19.57874 1.3517,-19.57874 0.6759,-19.57875 1.3517,-19.57874 0.6759,-19.57874 2.7035,-39.15749 0.6759,-19.57874 h 0.6758 l 0.6759,-9.78937 0.6759,-19.57874 h 0.6758 l 2.7035,-39.15748 h 0.6759 l 0.6758,-9.78938 0.6759,-19.57874 h 0.6759 l 0.6758,-9.78937 h 2.0276 l 0.6759,-9.78937 h 0.6759 l 0.6759,9.78937 0.6758,-19.57874 0.6759,9.78937 1.3517,-19.578742 h 1.3518 l 1.3517,-19.578742 h 2.7035 l 0.6758,-9.789371 h 5.407 l 0.6759,9.789371 h 8.1104 l 0.6758,9.789371 h 0.6759 l 0.6759,-9.789371 h 1.3517 l 0.6759,-9.789371 0.6758,9.789371 0.6759,-9.789371 0.6759,9.789371 h 2.7035 l 0.6758,-9.789371 h 2.0276 l 0.6759,-9.789371 0.6759,9.789371 h 2.0276 l 0.6758,9.789371 h 0.6759 l 0.6759,-9.789371 0.6758,9.789371 h 0.6759 l 0.6759,9.789371 h 5.4069 l 0.6759,-9.789371 h 0.6759 l 1.3517,-19.578742 h 0.6759 l 0.6758,9.789371 h 1.3518 l 0.6758,-9.789371 0.6759,9.789371 h 0.6759 v 0"
           clip-path="url(#pf4ce57165b)"
           style="fill:none;stroke:#1f77b4;stroke-width:1.5;stroke-linecap:square"
           id="path100" />
      </g>
      <g
         id="patch_11">
        <path
           d="M 182.61,597.00162 V 21.7575"
           style="fill:none;stroke:#000000;stroke-width:1.5;stroke-linecap:square;stroke-linejoin:miter"
           id="path101" />
      </g>
      <g
         id="patch_12">
        <path
           d="M 1350,597.00162 V 21.7575"
           style="fill:none;stroke:#000000;stroke-width:1.5;stroke-linecap:square;stroke-linejoin:miter"
           id="path102" />
      </g>
      <g
         id="patch_13">
        <path
           d="M 182.61,597.00162 H 1350"
           style="fill:none;stroke:#000000;stroke-width:1.5;stroke-linecap:square;stroke-linejoin:miter"
           id="path103" />
      </g>
      <g
         id="patch_14">
        <path
           d="M 182.61,21.7575 H 1350"
           style="fill:none;stroke:#000000;stroke-width:1.5;stroke-linecap:square;stroke-linejoin:miter"
           id="path104" />
      </g>
      <g
         id="text_16">
        <!-- On -->
        <g
           transform="matrix(0.18,0,0,-0.18,280.03736,47.063468)"
           id="g105">
          <defs
             id="defs104">
            <path
               id="DejaVuSans-4f"
               d="m 2522,4238 q -688,0 -1093,-513 -404,-512 -404,-1397 0,-881 404,-1394 405,-512 1093,-512 687,0 1089,512 402,513 402,1394 0,885 -402,1397 -402,513 -1089,513 z m 0,512 q 981,0 1568,-658 588,-658 588,-1764 0,-1103 -588,-1761 -587,-658 -1568,-658 -984,0 -1574,656 -589,657 -589,1763 0,1106 589,1764 590,658 1574,658 z"
               transform="scale(0.015625)" />
            <path
               id="DejaVuSans-6e"
               d="M 3513,2113 V 0 h -575 v 2094 q 0,497 -194,743 -194,247 -581,247 -466,0 -735,-297 -269,-296 -269,-809 V 0 H 581 v 3500 h 578 v -544 q 207,316 486,472 280,156 646,156 603,0 912,-373 310,-373 310,-1098 z"
               transform="scale(0.015625)" />
          </defs>
          <use
             xlink:href="#DejaVuSans-4f"
             id="use104" />
          <use
             xlink:href="#DejaVuSans-6e"
             transform="translate(78.710938)"
             id="use105" />
        </g>
      </g>
      <g
         id="text_17">
        <!-- Off -->
        <g
           transform="matrix(0.18,0,0,-0.18,383.15032,47.063468)"
           id="g108">
          <defs
             id="defs105">
            <path
               id="DejaVuSans-66"
               d="m 2375,4863 v -479 h -550 q -309,0 -430,-125 -120,-125 -120,-450 v -309 h 947 V 3053 H 1275 V 0 H 697 V 3053 H 147 v 447 h 550 v 244 q 0,584 272,851 272,268 862,268 z"
               transform="scale(0.015625)" />
          </defs>
          <use
             xlink:href="#DejaVuSans-4f"
             id="use106" />
          <use
             xlink:href="#DejaVuSans-66"
             transform="translate(78.710938)"
             id="use107" />
          <use
             xlink:href="#DejaVuSans-66"
             transform="translate(113.91602)"
             id="use108" />
        </g>
      </g>
    </g>
    <path
       style="fill:none;stroke:#000000;stroke-width:2;stroke-dasharray:none;stroke-opacity:1;marker-start:url(#Stop);marker-end:url(#Stop)"
       d="M 421.4646,307.80695 H 523.92694"
       id="path108" />
    <path
       style="fill:none;stroke:#000000;stroke-width:2;stroke-dasharray:none;stroke-opacity:1;marker-start:url(#marker110);marker-end:url(#Stop)"
       d="M 677.3055,536.35255 V 71.857947"
       id="path109" />
    <text
       xml:space="preserve"
       style="font-size:16px;font-family:Arial;-inkscape-font-specification:Arial;text-align:start;writing-mode:lr-tb;direction:ltr;text-anchor:start;fill:none;stroke:#000000;stroke-width:2;stroke-dasharray:none;stroke-opacity:1"
       x="417.05536"
       y="280.72162"
       id="text110"><tspan
         sodipodi:role="line"
         id="tspan110"
         style="font-size:16px;fill:#000000;fill-opacity:1;stroke:none;stroke-width:2"
         x="417.05536"
         y="280.72162">1/f<tspan
   style="font-size:16px;baseline-shift:sub"
   id="tspan111">chop</tspan>=1/327 s</tspan></text>
    <text
       xml:space="preserve"
       style="font-size:16px;font-family:Arial;-inkscape-font-specification:Arial;text-align:start;writing-mode:lr-tb;direction:ltr;text-anchor:start;fill:#000000;fill-opacity:1;stroke:none;stroke-width:2;stroke-dasharray:none;stroke-opacity:1"
       x="682.78607"
       y="253.28442"
       id="text112"><tspan
         sodipodi:role="line"
         id="tspan112"
         style="stroke-width:2"
         x="682.78607"
         y="253.28442">j<tspan
   style="font-size:65%;baseline-shift:sub"
   id="tspan113">Ph</tspan></tspan></text>
  </g>
</svg>
