<?xml version="1.0" encoding="utf-8" standalone="no"?>
<!DOCTYPE svg PUBLIC "-//W3C//DTD SVG 1.1//EN"
  "http://www.w3.org/Graphics/SVG/1.1/DTD/svg11.dtd">
<svg xmlns:xlink="http://www.w3.org/1999/xlink" width="576pt" height="432pt" viewBox="0 0 576 432" xmlns="http://www.w3.org/2000/svg" version="1.1">
 <metadata>
  <rdf:RDF xmlns:dc="http://purl.org/dc/elements/1.1/" xmlns:cc="http://creativecommons.org/ns#" xmlns:rdf="http://www.w3.org/1999/02/22-rdf-syntax-ns#">
   <cc:Work>
    <dc:type rdf:resource="http://purl.org/dc/dcmitype/StillImage"/>
    <dc:date>2025-09-11T12:53:49.047932</dc:date>
    <dc:format>image/svg+xml</dc:format>
    <dc:creator>
     <cc:Agent>
      <dc:title>Matplotlib v3.10.5, https://matplotlib.org/</dc:title>
     </cc:Agent>
    </dc:creator>
   </cc:Work>
  </rdf:RDF>
 </metadata>
 <defs>
  <style type="text/css">*{stroke-linejoin: round; stroke-linecap: butt}</style>
 </defs>
 <g id="figure_1">
  <g id="patch_1">
   <path d="M 0 432 
L 576 432 
L 576 0 
L 0 0 
z
" style="fill: #ffffff"/>
  </g>
  <g id="axes_1">
   <g id="patch_2">
    <path d="M 60.05 382.84 
L 565.2 382.84 
L 565.2 10.8 
L 60.05 10.8 
z
" style="fill: #ffffff"/>
   </g>
   <g id="patch_3">
    <path d="M 9.389769 382.642957 
L 14.08135 382.634325 
L 18.772931 382.625113 
L 23.464511 382.615268 
L 28.149778 382.604746 
L 32.841358 382.593451 
L 37.532939 382.581324 
L 42.218205 382.568298 
L 46.909786 382.554243 
L 51.595052 382.53909 
L 56.280318 382.5227 
L 60.965584 382.504934 
L 65.650851 382.485634 
L 70.336117 382.464617 
L 75.021383 382.441676 
L 79.706649 382.416566 
L 84.391916 382.389006 
L 89.070868 382.35871 
L 93.756134 382.325211 
L 98.435086 382.288143 
L 103.114037 382.246926 
L 107.799304 382.200852 
L 112.478256 382.149272 
L 117.157207 382.091192 
L 121.836159 382.025475 
L 126.508797 381.950831 
L 131.187749 381.865326 
L 135.866701 381.766887 
L 140.539338 381.652936 
L 145.21829 381.519663 
L 149.890928 381.362898 
L 154.563565 381.17653 
L 159.236203 380.95263 
L 163.90884 380.680431 
L 168.581477 380.345026 
L 173.254115 379.925306 
L 177.926753 379.390602 
L 182.59939 378.695008 
L 187.265713 377.768848 
L 191.938351 376.494942 
L 196.604674 374.682686 
L 201.270997 371.981818 
L 205.943634 367.709612 
L 210.609958 360.441961 
L 215.276281 346.767666 
L 219.942604 317.55771 
L 224.602613 248.4751 
L 229.268936 137.364253 
L 233.935259 191.47908 
L 238.595268 290.993277 
L 243.261591 335.390411 
L 247.921599 354.875823 
L 252.581608 364.642815 
L 257.241617 370.126338 
L 261.901626 373.482488 
L 266.561634 375.675904 
L 271.221643 377.184287 
L 275.881652 378.264352 
L 280.541661 379.06346 
L 285.195355 379.670163 
L 289.855364 380.142611 
L 294.509058 380.516626 
L 299.169067 380.818469 
L 303.822761 381.064914 
L 308.476456 381.268976 
L 313.13015 381.439829 
L 317.783844 381.584295 
L 322.437539 381.707534 
L 327.084919 381.813371 
L 331.738613 381.905168 
L 336.392308 381.985195 
L 341.039688 382.055289 
L 345.687068 382.11711 
L 350.340762 382.171979 
L 354.988142 382.220772 
L 359.635522 382.264412 
L 364.282902 382.303599 
L 368.930282 382.338919 
L 373.577662 382.370864 
L 378.218728 382.399813 
L 382.866108 382.426198 
L 387.513488 382.450281 
L 392.154553 382.472294 
L 396.795619 382.492493 
L 401.442999 382.511098 
L 406.084064 382.528226 
L 410.72513 382.544051 
L 415.366196 382.558701 
L 420.007261 382.57229 
L 424.642012 382.584901 
L 429.283078 382.596657 
L 433.924144 382.60762 
L 438.558895 382.617844 
L 443.199961 382.627421 
L 447.834712 382.63638 
z
" clip-path="url(#p4174bf12b5)" style="fill: #808080"/>
   </g>
   <g id="patch_4">
    <path d="M 131.187749 382.227718 
L 135.866701 382.201032 
L 140.539338 382.172604 
L 145.21829 382.142195 
L 149.890928 382.109706 
L 154.563565 382.074895 
L 159.236203 382.037536 
L 163.90884 381.997376 
L 168.581477 381.954125 
L 173.254115 381.90746 
L 177.926753 381.857012 
L 182.59939 381.802361 
L 187.265713 381.74311 
L 191.938351 381.67855 
L 196.604674 381.608224 
L 201.270997 381.53132 
L 205.943634 381.446873 
L 210.609958 381.354123 
L 215.276281 381.251806 
L 219.942604 381.138564 
L 224.602613 381.012963 
L 229.268936 380.87275 
L 233.935259 380.715788 
L 238.595268 380.539558 
L 243.261591 380.340219 
L 247.921599 380.114197 
L 252.581608 379.856166 
L 257.241617 379.559802 
L 261.901626 379.217148 
L 266.561634 378.818074 
L 271.221643 378.349536 
L 275.881652 377.794507 
L 280.541661 377.130438 
L 285.195355 376.328173 
L 289.855364 375.343971 
L 294.509058 374.12245 
L 299.169067 372.577008 
L 303.822761 370.589577 
L 308.476456 367.973167 
L 313.13015 364.437157 
L 317.783844 359.506408 
L 322.437539 352.366623 
L 327.084919 341.56324 
L 331.738613 324.246928 
L 336.392308 294.723758 
L 341.039688 241.53476 
L 345.687068 147.148088 
L 350.340762 31.416829 
L 354.988142 36.688178 
L 359.635522 154.004702 
L 364.282902 245.641707 
L 368.930282 296.96772 
L 373.577662 325.498572 
L 378.218728 342.289337 
L 382.866108 352.835365 
L 387.513488 359.816337 
L 392.154553 364.644957 
L 396.795619 368.116857 
L 401.442999 370.694484 
L 406.084064 372.653044 
L 410.72513 374.17662 
L 415.366196 375.384316 
L 420.007261 376.357317 
L 424.642012 377.151455 
L 429.283078 377.809536 
L 433.924144 378.360106 
L 438.558895 378.824709 
L 443.199961 379.221327 
L 447.834712 379.561683 
L 452.469463 379.856303 
L 457.104214 380.11301 
L 461.738966 380.338027 
L 466.373717 380.536354 
L 471.008468 380.712042 
L 475.643219 380.868406 
L 480.271656 381.007994 
L 484.906408 381.133449 
L 489.541159 381.246462 
L 494.169596 381.348492 
L 498.798032 381.441039 
L 503.426469 381.525242 
L 508.061221 381.602173 
L 512.689658 381.672459 
L 517.31178 381.736846 
L 521.940217 381.796132 
L 526.568654 381.850768 
L 531.197091 381.901228 
L 535.819213 381.947865 
L 540.44765 381.99117 
L 545.069772 382.031347 
L 549.691895 382.068738 
L 554.314018 382.103597 
L 558.942454 382.136189 
L 563.564577 382.166626 
L 568.180385 382.195093 
z
" clip-path="url(#p4174bf12b5)" style="fill: #808080"/>
   </g>
   <g id="matplotlib.axis_1">
    <g id="xtick_1">
     <g id="line2d_1">
      <defs>
       <path id="mceb4a539fb" d="M 0 0 
L 0 3.5 
" style="stroke: #000000; stroke-width: 0.8"/>
      </defs>
      <g>
       <use xlink:href="#mceb4a539fb" x="60.05" y="382.84" style="stroke: #000000; stroke-width: 0.8"/>
      </g>
     </g>
     <g id="text_1">
      <!-- 360 -->
      <g transform="translate(46.68875 400.477813) scale(0.14 -0.14)">
       <defs>
        <path id="DejaVuSans-33" d="M 2597 2516 
Q 3050 2419 3304 2112 
Q 3559 1806 3559 1356 
Q 3559 666 3084 287 
Q 2609 -91 1734 -91 
Q 1441 -91 1130 -33 
Q 819 25 488 141 
L 488 750 
Q 750 597 1062 519 
Q 1375 441 1716 441 
Q 2309 441 2620 675 
Q 2931 909 2931 1356 
Q 2931 1769 2642 2001 
Q 2353 2234 1838 2234 
L 1294 2234 
L 1294 2753 
L 1863 2753 
Q 2328 2753 2575 2939 
Q 2822 3125 2822 3475 
Q 2822 3834 2567 4026 
Q 2313 4219 1838 4219 
Q 1578 4219 1281 4162 
Q 984 4106 628 3988 
L 628 4550 
Q 988 4650 1302 4700 
Q 1616 4750 1894 4750 
Q 2613 4750 3031 4423 
Q 3450 4097 3450 3541 
Q 3450 3153 3228 2886 
Q 3006 2619 2597 2516 
z
" transform="scale(0.015625)"/>
        <path id="DejaVuSans-36" d="M 2113 2584 
Q 1688 2584 1439 2293 
Q 1191 2003 1191 1497 
Q 1191 994 1439 701 
Q 1688 409 2113 409 
Q 2538 409 2786 701 
Q 3034 994 3034 1497 
Q 3034 2003 2786 2293 
Q 2538 2584 2113 2584 
z
M 3366 4563 
L 3366 3988 
Q 3128 4100 2886 4159 
Q 2644 4219 2406 4219 
Q 1781 4219 1451 3797 
Q 1122 3375 1075 2522 
Q 1259 2794 1537 2939 
Q 1816 3084 2150 3084 
Q 2853 3084 3261 2657 
Q 3669 2231 3669 1497 
Q 3669 778 3244 343 
Q 2819 -91 2113 -91 
Q 1303 -91 875 529 
Q 447 1150 447 2328 
Q 447 3434 972 4092 
Q 1497 4750 2381 4750 
Q 2619 4750 2861 4703 
Q 3103 4656 3366 4563 
z
" transform="scale(0.015625)"/>
        <path id="DejaVuSans-30" d="M 2034 4250 
Q 1547 4250 1301 3770 
Q 1056 3291 1056 2328 
Q 1056 1369 1301 889 
Q 1547 409 2034 409 
Q 2525 409 2770 889 
Q 3016 1369 3016 2328 
Q 3016 3291 2770 3770 
Q 2525 4250 2034 4250 
z
M 2034 4750 
Q 2819 4750 3233 4129 
Q 3647 3509 3647 2328 
Q 3647 1150 3233 529 
Q 2819 -91 2034 -91 
Q 1250 -91 836 529 
Q 422 1150 422 2328 
Q 422 3509 836 4129 
Q 1250 4750 2034 4750 
z
" transform="scale(0.015625)"/>
       </defs>
       <use xlink:href="#DejaVuSans-33"/>
       <use xlink:href="#DejaVuSans-36" transform="translate(63.623047 0)"/>
       <use xlink:href="#DejaVuSans-30" transform="translate(127.246094 0)"/>
      </g>
     </g>
    </g>
    <g id="xtick_2">
     <g id="line2d_2">
      <g>
       <use xlink:href="#mceb4a539fb" x="123.19375" y="382.84" style="stroke: #000000; stroke-width: 0.8"/>
      </g>
     </g>
     <g id="text_2">
      <!-- 370 -->
      <g transform="translate(109.8325 400.477813) scale(0.14 -0.14)">
       <defs>
        <path id="DejaVuSans-37" d="M 525 4666 
L 3525 4666 
L 3525 4397 
L 1831 0 
L 1172 0 
L 2766 4134 
L 525 4134 
L 525 4666 
z
" transform="scale(0.015625)"/>
       </defs>
       <use xlink:href="#DejaVuSans-33"/>
       <use xlink:href="#DejaVuSans-37" transform="translate(63.623047 0)"/>
       <use xlink:href="#DejaVuSans-30" transform="translate(127.246094 0)"/>
      </g>
     </g>
    </g>
    <g id="xtick_3">
     <g id="line2d_3">
      <g>
       <use xlink:href="#mceb4a539fb" x="186.3375" y="382.84" style="stroke: #000000; stroke-width: 0.8"/>
      </g>
     </g>
     <g id="text_3">
      <!-- 380 -->
      <g transform="translate(172.97625 400.477813) scale(0.14 -0.14)">
       <defs>
        <path id="DejaVuSans-38" d="M 2034 2216 
Q 1584 2216 1326 1975 
Q 1069 1734 1069 1313 
Q 1069 891 1326 650 
Q 1584 409 2034 409 
Q 2484 409 2743 651 
Q 3003 894 3003 1313 
Q 3003 1734 2745 1975 
Q 2488 2216 2034 2216 
z
M 1403 2484 
Q 997 2584 770 2862 
Q 544 3141 544 3541 
Q 544 4100 942 4425 
Q 1341 4750 2034 4750 
Q 2731 4750 3128 4425 
Q 3525 4100 3525 3541 
Q 3525 3141 3298 2862 
Q 3072 2584 2669 2484 
Q 3125 2378 3379 2068 
Q 3634 1759 3634 1313 
Q 3634 634 3220 271 
Q 2806 -91 2034 -91 
Q 1263 -91 848 271 
Q 434 634 434 1313 
Q 434 1759 690 2068 
Q 947 2378 1403 2484 
z
M 1172 3481 
Q 1172 3119 1398 2916 
Q 1625 2713 2034 2713 
Q 2441 2713 2670 2916 
Q 2900 3119 2900 3481 
Q 2900 3844 2670 4047 
Q 2441 4250 2034 4250 
Q 1625 4250 1398 4047 
Q 1172 3844 1172 3481 
z
" transform="scale(0.015625)"/>
       </defs>
       <use xlink:href="#DejaVuSans-33"/>
       <use xlink:href="#DejaVuSans-38" transform="translate(63.623047 0)"/>
       <use xlink:href="#DejaVuSans-30" transform="translate(127.246094 0)"/>
      </g>
     </g>
    </g>
    <g id="xtick_4">
     <g id="line2d_4">
      <g>
       <use xlink:href="#mceb4a539fb" x="249.48125" y="382.84" style="stroke: #000000; stroke-width: 0.8"/>
      </g>
     </g>
     <g id="text_4">
      <!-- 390 -->
      <g transform="translate(236.12 400.477813) scale(0.14 -0.14)">
       <defs>
        <path id="DejaVuSans-39" d="M 703 97 
L 703 672 
Q 941 559 1184 500 
Q 1428 441 1663 441 
Q 2288 441 2617 861 
Q 2947 1281 2994 2138 
Q 2813 1869 2534 1725 
Q 2256 1581 1919 1581 
Q 1219 1581 811 2004 
Q 403 2428 403 3163 
Q 403 3881 828 4315 
Q 1253 4750 1959 4750 
Q 2769 4750 3195 4129 
Q 3622 3509 3622 2328 
Q 3622 1225 3098 567 
Q 2575 -91 1691 -91 
Q 1453 -91 1209 -44 
Q 966 3 703 97 
z
M 1959 2075 
Q 2384 2075 2632 2365 
Q 2881 2656 2881 3163 
Q 2881 3666 2632 3958 
Q 2384 4250 1959 4250 
Q 1534 4250 1286 3958 
Q 1038 3666 1038 3163 
Q 1038 2656 1286 2365 
Q 1534 2075 1959 2075 
z
" transform="scale(0.015625)"/>
       </defs>
       <use xlink:href="#DejaVuSans-33"/>
       <use xlink:href="#DejaVuSans-39" transform="translate(63.623047 0)"/>
       <use xlink:href="#DejaVuSans-30" transform="translate(127.246094 0)"/>
      </g>
     </g>
    </g>
    <g id="xtick_5">
     <g id="line2d_5">
      <g>
       <use xlink:href="#mceb4a539fb" x="312.625" y="382.84" style="stroke: #000000; stroke-width: 0.8"/>
      </g>
     </g>
     <g id="text_5">
      <!-- 400 -->
      <g transform="translate(299.26375 400.477813) scale(0.14 -0.14)">
       <defs>
        <path id="DejaVuSans-34" d="M 2419 4116 
L 825 1625 
L 2419 1625 
L 2419 4116 
z
M 2253 4666 
L 3047 4666 
L 3047 1625 
L 3713 1625 
L 3713 1100 
L 3047 1100 
L 3047 0 
L 2419 0 
L 2419 1100 
L 313 1100 
L 313 1709 
L 2253 4666 
z
" transform="scale(0.015625)"/>
       </defs>
       <use xlink:href="#DejaVuSans-34"/>
       <use xlink:href="#DejaVuSans-30" transform="translate(63.623047 0)"/>
       <use xlink:href="#DejaVuSans-30" transform="translate(127.246094 0)"/>
      </g>
     </g>
    </g>
    <g id="xtick_6">
     <g id="line2d_6">
      <g>
       <use xlink:href="#mceb4a539fb" x="375.76875" y="382.84" style="stroke: #000000; stroke-width: 0.8"/>
      </g>
     </g>
     <g id="text_6">
      <!-- 410 -->
      <g transform="translate(362.4075 400.477813) scale(0.14 -0.14)">
       <defs>
        <path id="DejaVuSans-31" d="M 794 531 
L 1825 531 
L 1825 4091 
L 703 3866 
L 703 4441 
L 1819 4666 
L 2450 4666 
L 2450 531 
L 3481 531 
L 3481 0 
L 794 0 
L 794 531 
z
" transform="scale(0.015625)"/>
       </defs>
       <use xlink:href="#DejaVuSans-34"/>
       <use xlink:href="#DejaVuSans-31" transform="translate(63.623047 0)"/>
       <use xlink:href="#DejaVuSans-30" transform="translate(127.246094 0)"/>
      </g>
     </g>
    </g>
    <g id="xtick_7">
     <g id="line2d_7">
      <g>
       <use xlink:href="#mceb4a539fb" x="438.9125" y="382.84" style="stroke: #000000; stroke-width: 0.8"/>
      </g>
     </g>
     <g id="text_7">
      <!-- 420 -->
      <g transform="translate(425.55125 400.477813) scale(0.14 -0.14)">
       <defs>
        <path id="DejaVuSans-32" d="M 1228 531 
L 3431 531 
L 3431 0 
L 469 0 
L 469 531 
Q 828 903 1448 1529 
Q 2069 2156 2228 2338 
Q 2531 2678 2651 2914 
Q 2772 3150 2772 3378 
Q 2772 3750 2511 3984 
Q 2250 4219 1831 4219 
Q 1534 4219 1204 4116 
Q 875 4013 500 3803 
L 500 4441 
Q 881 4594 1212 4672 
Q 1544 4750 1819 4750 
Q 2544 4750 2975 4387 
Q 3406 4025 3406 3419 
Q 3406 3131 3298 2873 
Q 3191 2616 2906 2266 
Q 2828 2175 2409 1742 
Q 1991 1309 1228 531 
z
" transform="scale(0.015625)"/>
       </defs>
       <use xlink:href="#DejaVuSans-34"/>
       <use xlink:href="#DejaVuSans-32" transform="translate(63.623047 0)"/>
       <use xlink:href="#DejaVuSans-30" transform="translate(127.246094 0)"/>
      </g>
     </g>
    </g>
    <g id="xtick_8">
     <g id="line2d_8">
      <g>
       <use xlink:href="#mceb4a539fb" x="502.05625" y="382.84" style="stroke: #000000; stroke-width: 0.8"/>
      </g>
     </g>
     <g id="text_8">
      <!-- 430 -->
      <g transform="translate(488.695 400.477813) scale(0.14 -0.14)">
       <use xlink:href="#DejaVuSans-34"/>
       <use xlink:href="#DejaVuSans-33" transform="translate(63.623047 0)"/>
       <use xlink:href="#DejaVuSans-30" transform="translate(127.246094 0)"/>
      </g>
     </g>
    </g>
    <g id="xtick_9">
     <g id="line2d_9">
      <g>
       <use xlink:href="#mceb4a539fb" x="565.2" y="382.84" style="stroke: #000000; stroke-width: 0.8"/>
      </g>
     </g>
     <g id="text_9">
      <!-- 440 -->
      <g transform="translate(551.83875 400.477813) scale(0.14 -0.14)">
       <use xlink:href="#DejaVuSans-34"/>
       <use xlink:href="#DejaVuSans-34" transform="translate(63.623047 0)"/>
       <use xlink:href="#DejaVuSans-30" transform="translate(127.246094 0)"/>
      </g>
     </g>
    </g>
    <g id="text_10">
     <!-- Raman Shift (cm⁻¹) -->
     <g transform="translate(225.798906 421.066563) scale(0.18 -0.18)">
      <defs>
       <path id="DejaVuSans-52" d="M 2841 2188 
Q 3044 2119 3236 1894 
Q 3428 1669 3622 1275 
L 4263 0 
L 3584 0 
L 2988 1197 
Q 2756 1666 2539 1819 
Q 2322 1972 1947 1972 
L 1259 1972 
L 1259 0 
L 628 0 
L 628 4666 
L 2053 4666 
Q 2853 4666 3247 4331 
Q 3641 3997 3641 3322 
Q 3641 2881 3436 2590 
Q 3231 2300 2841 2188 
z
M 1259 4147 
L 1259 2491 
L 2053 2491 
Q 2509 2491 2742 2702 
Q 2975 2913 2975 3322 
Q 2975 3731 2742 3939 
Q 2509 4147 2053 4147 
L 1259 4147 
z
" transform="scale(0.015625)"/>
       <path id="DejaVuSans-61" d="M 2194 1759 
Q 1497 1759 1228 1600 
Q 959 1441 959 1056 
Q 959 750 1161 570 
Q 1363 391 1709 391 
Q 2188 391 2477 730 
Q 2766 1069 2766 1631 
L 2766 1759 
L 2194 1759 
z
M 3341 1997 
L 3341 0 
L 2766 0 
L 2766 531 
Q 2569 213 2275 61 
Q 1981 -91 1556 -91 
Q 1019 -91 701 211 
Q 384 513 384 1019 
Q 384 1609 779 1909 
Q 1175 2209 1959 2209 
L 2766 2209 
L 2766 2266 
Q 2766 2663 2505 2880 
Q 2244 3097 1772 3097 
Q 1472 3097 1187 3025 
Q 903 2953 641 2809 
L 641 3341 
Q 956 3463 1253 3523 
Q 1550 3584 1831 3584 
Q 2591 3584 2966 3190 
Q 3341 2797 3341 1997 
z
" transform="scale(0.015625)"/>
       <path id="DejaVuSans-6d" d="M 3328 2828 
Q 3544 3216 3844 3400 
Q 4144 3584 4550 3584 
Q 5097 3584 5394 3201 
Q 5691 2819 5691 2113 
L 5691 0 
L 5113 0 
L 5113 2094 
Q 5113 2597 4934 2840 
Q 4756 3084 4391 3084 
Q 3944 3084 3684 2787 
Q 3425 2491 3425 1978 
L 3425 0 
L 2847 0 
L 2847 2094 
Q 2847 2600 2669 2842 
Q 2491 3084 2119 3084 
Q 1678 3084 1418 2786 
Q 1159 2488 1159 1978 
L 1159 0 
L 581 0 
L 581 3500 
L 1159 3500 
L 1159 2956 
Q 1356 3278 1631 3431 
Q 1906 3584 2284 3584 
Q 2666 3584 2933 3390 
Q 3200 3197 3328 2828 
z
" transform="scale(0.015625)"/>
       <path id="DejaVuSans-6e" d="M 3513 2113 
L 3513 0 
L 2938 0 
L 2938 2094 
Q 2938 2591 2744 2837 
Q 2550 3084 2163 3084 
Q 1697 3084 1428 2787 
Q 1159 2491 1159 1978 
L 1159 0 
L 581 0 
L 581 3500 
L 1159 3500 
L 1159 2956 
Q 1366 3272 1645 3428 
Q 1925 3584 2291 3584 
Q 2894 3584 3203 3211 
Q 3513 2838 3513 2113 
z
" transform="scale(0.015625)"/>
       <path id="DejaVuSans-20" transform="scale(0.015625)"/>
       <path id="DejaVuSans-53" d="M 3425 4513 
L 3425 3897 
Q 3066 4069 2747 4153 
Q 2428 4238 2131 4238 
Q 1616 4238 1336 4038 
Q 1056 3838 1056 3469 
Q 1056 3159 1242 3001 
Q 1428 2844 1947 2747 
L 2328 2669 
Q 3034 2534 3370 2195 
Q 3706 1856 3706 1288 
Q 3706 609 3251 259 
Q 2797 -91 1919 -91 
Q 1588 -91 1214 -16 
Q 841 59 441 206 
L 441 856 
Q 825 641 1194 531 
Q 1563 422 1919 422 
Q 2459 422 2753 634 
Q 3047 847 3047 1241 
Q 3047 1584 2836 1778 
Q 2625 1972 2144 2069 
L 1759 2144 
Q 1053 2284 737 2584 
Q 422 2884 422 3419 
Q 422 4038 858 4394 
Q 1294 4750 2059 4750 
Q 2388 4750 2728 4690 
Q 3069 4631 3425 4513 
z
" transform="scale(0.015625)"/>
       <path id="DejaVuSans-68" d="M 3513 2113 
L 3513 0 
L 2938 0 
L 2938 2094 
Q 2938 2591 2744 2837 
Q 2550 3084 2163 3084 
Q 1697 3084 1428 2787 
Q 1159 2491 1159 1978 
L 1159 0 
L 581 0 
L 581 4863 
L 1159 4863 
L 1159 2956 
Q 1366 3272 1645 3428 
Q 1925 3584 2291 3584 
Q 2894 3584 3203 3211 
Q 3513 2838 3513 2113 
z
" transform="scale(0.015625)"/>
       <path id="DejaVuSans-69" d="M 603 3500 
L 1178 3500 
L 1178 0 
L 603 0 
L 603 3500 
z
M 603 4863 
L 1178 4863 
L 1178 4134 
L 603 4134 
L 603 4863 
z
" transform="scale(0.015625)"/>
       <path id="DejaVuSans-66" d="M 2375 4863 
L 2375 4384 
L 1825 4384 
Q 1516 4384 1395 4259 
Q 1275 4134 1275 3809 
L 1275 3500 
L 2222 3500 
L 2222 3053 
L 1275 3053 
L 1275 0 
L 697 0 
L 697 3053 
L 147 3053 
L 147 3500 
L 697 3500 
L 697 3744 
Q 697 4328 969 4595 
Q 1241 4863 1831 4863 
L 2375 4863 
z
" transform="scale(0.015625)"/>
       <path id="DejaVuSans-74" d="M 1172 4494 
L 1172 3500 
L 2356 3500 
L 2356 3053 
L 1172 3053 
L 1172 1153 
Q 1172 725 1289 603 
Q 1406 481 1766 481 
L 2356 481 
L 2356 0 
L 1766 0 
Q 1100 0 847 248 
Q 594 497 594 1153 
L 594 3053 
L 172 3053 
L 172 3500 
L 594 3500 
L 594 4494 
L 1172 4494 
z
" transform="scale(0.015625)"/>
       <path id="DejaVuSans-28" d="M 1984 4856 
Q 1566 4138 1362 3434 
Q 1159 2731 1159 2009 
Q 1159 1288 1364 580 
Q 1569 -128 1984 -844 
L 1484 -844 
Q 1016 -109 783 600 
Q 550 1309 550 2009 
Q 550 2706 781 3412 
Q 1013 4119 1484 4856 
L 1984 4856 
z
" transform="scale(0.015625)"/>
       <path id="DejaVuSans-63" d="M 3122 3366 
L 3122 2828 
Q 2878 2963 2633 3030 
Q 2388 3097 2138 3097 
Q 1578 3097 1268 2742 
Q 959 2388 959 1747 
Q 959 1106 1268 751 
Q 1578 397 2138 397 
Q 2388 397 2633 464 
Q 2878 531 3122 666 
L 3122 134 
Q 2881 22 2623 -34 
Q 2366 -91 2075 -91 
Q 1284 -91 818 406 
Q 353 903 353 1747 
Q 353 2603 823 3093 
Q 1294 3584 2113 3584 
Q 2378 3584 2631 3529 
Q 2884 3475 3122 3366 
z
" transform="scale(0.015625)"/>
       <path id="DejaVuSans-207b" d="M 428 3359 
L 2950 3359 
L 2950 3063 
L 428 3063 
L 428 3359 
z
" transform="scale(0.015625)"/>
       <path id="DejaVuSans-b9" d="M 488 2431 
L 1125 2431 
L 1125 4341 
L 428 4213 
L 428 4575 
L 1147 4697 
L 1575 4697 
L 1575 2431 
L 2216 2431 
L 2216 2088 
L 488 2088 
L 488 2431 
z
" transform="scale(0.015625)"/>
       <path id="DejaVuSans-29" d="M 513 4856 
L 1013 4856 
Q 1481 4119 1714 3412 
Q 1947 2706 1947 2009 
Q 1947 1309 1714 600 
Q 1481 -109 1013 -844 
L 513 -844 
Q 928 -128 1133 580 
Q 1338 1288 1338 2009 
Q 1338 2731 1133 3434 
Q 928 4138 513 4856 
z
" transform="scale(0.015625)"/>
      </defs>
      <use xlink:href="#DejaVuSans-52"/>
      <use xlink:href="#DejaVuSans-61" transform="translate(67.232422 0)"/>
      <use xlink:href="#DejaVuSans-6d" transform="translate(128.511719 0)"/>
      <use xlink:href="#DejaVuSans-61" transform="translate(225.923828 0)"/>
      <use xlink:href="#DejaVuSans-6e" transform="translate(287.203125 0)"/>
      <use xlink:href="#DejaVuSans-20" transform="translate(350.582031 0)"/>
      <use xlink:href="#DejaVuSans-53" transform="translate(382.369141 0)"/>
      <use xlink:href="#DejaVuSans-68" transform="translate(445.845703 0)"/>
      <use xlink:href="#DejaVuSans-69" transform="translate(509.224609 0)"/>
      <use xlink:href="#DejaVuSans-66" transform="translate(537.007812 0)"/>
      <use xlink:href="#DejaVuSans-74" transform="translate(570.462891 0)"/>
      <use xlink:href="#DejaVuSans-20" transform="translate(609.671875 0)"/>
      <use xlink:href="#DejaVuSans-28" transform="translate(641.458984 0)"/>
      <use xlink:href="#DejaVuSans-63" transform="translate(680.472656 0)"/>
      <use xlink:href="#DejaVuSans-6d" transform="translate(735.453125 0)"/>
      <use xlink:href="#DejaVuSans-207b" transform="translate(832.865234 0)"/>
      <use xlink:href="#DejaVuSans-b9" transform="translate(885.648438 0)"/>
      <use xlink:href="#DejaVuSans-29" transform="translate(925.736328 0)"/>
     </g>
    </g>
   </g>
   <g id="matplotlib.axis_2">
    <g id="ytick_1">
     <g id="line2d_10">
      <defs>
       <path id="m0da97c6b5b" d="M 0 0 
L -3.5 0 
" style="stroke: #000000; stroke-width: 0.8"/>
      </defs>
      <g>
       <use xlink:href="#m0da97c6b5b" x="60.05" y="382.84" style="stroke: #000000; stroke-width: 0.8"/>
      </g>
     </g>
     <g id="text_11">
      <!-- 0 -->
      <g transform="translate(44.1425 388.158906) scale(0.14 -0.14)">
       <use xlink:href="#DejaVuSans-30"/>
      </g>
     </g>
    </g>
    <g id="ytick_2">
     <g id="line2d_11">
      <g>
       <use xlink:href="#m0da97c6b5b" x="60.05" y="320.833333" style="stroke: #000000; stroke-width: 0.8"/>
      </g>
     </g>
     <g id="text_12">
      <!-- 50 -->
      <g transform="translate(35.235 326.15224) scale(0.14 -0.14)">
       <defs>
        <path id="DejaVuSans-35" d="M 691 4666 
L 3169 4666 
L 3169 4134 
L 1269 4134 
L 1269 2991 
Q 1406 3038 1543 3061 
Q 1681 3084 1819 3084 
Q 2600 3084 3056 2656 
Q 3513 2228 3513 1497 
Q 3513 744 3044 326 
Q 2575 -91 1722 -91 
Q 1428 -91 1123 -41 
Q 819 9 494 109 
L 494 744 
Q 775 591 1075 516 
Q 1375 441 1709 441 
Q 2250 441 2565 725 
Q 2881 1009 2881 1497 
Q 2881 1984 2565 2268 
Q 2250 2553 1709 2553 
Q 1456 2553 1204 2497 
Q 953 2441 691 2322 
L 691 4666 
z
" transform="scale(0.015625)"/>
       </defs>
       <use xlink:href="#DejaVuSans-35"/>
       <use xlink:href="#DejaVuSans-30" transform="translate(63.623047 0)"/>
      </g>
     </g>
    </g>
    <g id="ytick_3">
     <g id="line2d_12">
      <g>
       <use xlink:href="#m0da97c6b5b" x="60.05" y="258.826667" style="stroke: #000000; stroke-width: 0.8"/>
      </g>
     </g>
     <g id="text_13">
      <!-- 100 -->
      <g transform="translate(26.3275 264.145573) scale(0.14 -0.14)">
       <use xlink:href="#DejaVuSans-31"/>
       <use xlink:href="#DejaVuSans-30" transform="translate(63.623047 0)"/>
       <use xlink:href="#DejaVuSans-30" transform="translate(127.246094 0)"/>
      </g>
     </g>
    </g>
    <g id="ytick_4">
     <g id="line2d_13">
      <g>
       <use xlink:href="#m0da97c6b5b" x="60.05" y="196.82" style="stroke: #000000; stroke-width: 0.8"/>
      </g>
     </g>
     <g id="text_14">
      <!-- 150 -->
      <g transform="translate(26.3275 202.138906) scale(0.14 -0.14)">
       <use xlink:href="#DejaVuSans-31"/>
       <use xlink:href="#DejaVuSans-35" transform="translate(63.623047 0)"/>
       <use xlink:href="#DejaVuSans-30" transform="translate(127.246094 0)"/>
      </g>
     </g>
    </g>
    <g id="ytick_5">
     <g id="line2d_14">
      <g>
       <use xlink:href="#m0da97c6b5b" x="60.05" y="134.813333" style="stroke: #000000; stroke-width: 0.8"/>
      </g>
     </g>
     <g id="text_15">
      <!-- 200 -->
      <g transform="translate(26.3275 140.13224) scale(0.14 -0.14)">
       <use xlink:href="#DejaVuSans-32"/>
       <use xlink:href="#DejaVuSans-30" transform="translate(63.623047 0)"/>
       <use xlink:href="#DejaVuSans-30" transform="translate(127.246094 0)"/>
      </g>
     </g>
    </g>
    <g id="ytick_6">
     <g id="line2d_15">
      <g>
       <use xlink:href="#m0da97c6b5b" x="60.05" y="72.806667" style="stroke: #000000; stroke-width: 0.8"/>
      </g>
     </g>
     <g id="text_16">
      <!-- 250 -->
      <g transform="translate(26.3275 78.125573) scale(0.14 -0.14)">
       <use xlink:href="#DejaVuSans-32"/>
       <use xlink:href="#DejaVuSans-35" transform="translate(63.623047 0)"/>
       <use xlink:href="#DejaVuSans-30" transform="translate(127.246094 0)"/>
      </g>
     </g>
    </g>
    <g id="ytick_7">
     <g id="line2d_16">
      <g>
       <use xlink:href="#m0da97c6b5b" x="60.05" y="10.8" style="stroke: #000000; stroke-width: 0.8"/>
      </g>
     </g>
     <g id="text_17">
      <!-- 300 -->
      <g transform="translate(26.3275 16.118906) scale(0.14 -0.14)">
       <use xlink:href="#DejaVuSans-33"/>
       <use xlink:href="#DejaVuSans-30" transform="translate(63.623047 0)"/>
       <use xlink:href="#DejaVuSans-30" transform="translate(127.246094 0)"/>
      </g>
     </g>
    </g>
    <g id="text_18">
     <!-- Intensity (a.u.) -->
     <g transform="translate(18.584063 262.815313) rotate(-90) scale(0.18 -0.18)">
      <defs>
       <path id="DejaVuSans-49" d="M 628 4666 
L 1259 4666 
L 1259 0 
L 628 0 
L 628 4666 
z
" transform="scale(0.015625)"/>
       <path id="DejaVuSans-65" d="M 3597 1894 
L 3597 1613 
L 953 1613 
Q 991 1019 1311 708 
Q 1631 397 2203 397 
Q 2534 397 2845 478 
Q 3156 559 3463 722 
L 3463 178 
Q 3153 47 2828 -22 
Q 2503 -91 2169 -91 
Q 1331 -91 842 396 
Q 353 884 353 1716 
Q 353 2575 817 3079 
Q 1281 3584 2069 3584 
Q 2775 3584 3186 3129 
Q 3597 2675 3597 1894 
z
M 3022 2063 
Q 3016 2534 2758 2815 
Q 2500 3097 2075 3097 
Q 1594 3097 1305 2825 
Q 1016 2553 972 2059 
L 3022 2063 
z
" transform="scale(0.015625)"/>
       <path id="DejaVuSans-73" d="M 2834 3397 
L 2834 2853 
Q 2591 2978 2328 3040 
Q 2066 3103 1784 3103 
Q 1356 3103 1142 2972 
Q 928 2841 928 2578 
Q 928 2378 1081 2264 
Q 1234 2150 1697 2047 
L 1894 2003 
Q 2506 1872 2764 1633 
Q 3022 1394 3022 966 
Q 3022 478 2636 193 
Q 2250 -91 1575 -91 
Q 1294 -91 989 -36 
Q 684 19 347 128 
L 347 722 
Q 666 556 975 473 
Q 1284 391 1588 391 
Q 1994 391 2212 530 
Q 2431 669 2431 922 
Q 2431 1156 2273 1281 
Q 2116 1406 1581 1522 
L 1381 1569 
Q 847 1681 609 1914 
Q 372 2147 372 2553 
Q 372 3047 722 3315 
Q 1072 3584 1716 3584 
Q 2034 3584 2315 3537 
Q 2597 3491 2834 3397 
z
" transform="scale(0.015625)"/>
       <path id="DejaVuSans-79" d="M 2059 -325 
Q 1816 -950 1584 -1140 
Q 1353 -1331 966 -1331 
L 506 -1331 
L 506 -850 
L 844 -850 
Q 1081 -850 1212 -737 
Q 1344 -625 1503 -206 
L 1606 56 
L 191 3500 
L 800 3500 
L 1894 763 
L 2988 3500 
L 3597 3500 
L 2059 -325 
z
" transform="scale(0.015625)"/>
       <path id="DejaVuSans-2e" d="M 684 794 
L 1344 794 
L 1344 0 
L 684 0 
L 684 794 
z
" transform="scale(0.015625)"/>
       <path id="DejaVuSans-75" d="M 544 1381 
L 544 3500 
L 1119 3500 
L 1119 1403 
Q 1119 906 1312 657 
Q 1506 409 1894 409 
Q 2359 409 2629 706 
Q 2900 1003 2900 1516 
L 2900 3500 
L 3475 3500 
L 3475 0 
L 2900 0 
L 2900 538 
Q 2691 219 2414 64 
Q 2138 -91 1772 -91 
Q 1169 -91 856 284 
Q 544 659 544 1381 
z
M 1991 3584 
L 1991 3584 
z
" transform="scale(0.015625)"/>
      </defs>
      <use xlink:href="#DejaVuSans-49"/>
      <use xlink:href="#DejaVuSans-6e" transform="translate(29.492188 0)"/>
      <use xlink:href="#DejaVuSans-74" transform="translate(92.871094 0)"/>
      <use xlink:href="#DejaVuSans-65" transform="translate(132.080078 0)"/>
      <use xlink:href="#DejaVuSans-6e" transform="translate(193.603516 0)"/>
      <use xlink:href="#DejaVuSans-73" transform="translate(256.982422 0)"/>
      <use xlink:href="#DejaVuSans-69" transform="translate(309.082031 0)"/>
      <use xlink:href="#DejaVuSans-74" transform="translate(336.865234 0)"/>
      <use xlink:href="#DejaVuSans-79" transform="translate(376.074219 0)"/>
      <use xlink:href="#DejaVuSans-20" transform="translate(435.253906 0)"/>
      <use xlink:href="#DejaVuSans-28" transform="translate(467.041016 0)"/>
      <use xlink:href="#DejaVuSans-61" transform="translate(506.054688 0)"/>
      <use xlink:href="#DejaVuSans-2e" transform="translate(567.333984 0)"/>
      <use xlink:href="#DejaVuSans-75" transform="translate(599.121094 0)"/>
      <use xlink:href="#DejaVuSans-2e" transform="translate(662.5 0)"/>
      <use xlink:href="#DejaVuSans-29" transform="translate(694.287109 0)"/>
     </g>
    </g>
   </g>
   <g id="line2d_17">
    <path d="M -1 398.490861 
L 4.691874 401.798761 
L 9.389769 394.604594 
L 14.08135 403.531828 
L 18.772931 397.577463 
L 23.464511 397.823764 
L 28.149778 399.309866 
L 32.841358 397.075901 
L 37.532939 408.483402 
L 42.218205 395.087905 
L 46.909786 412.696072 
L 51.595052 386.899242 
L 56.280318 400.786678 
L 60.965584 393.591847 
L 65.650851 408.719417 
L 70.336117 400.284453 
L 75.021383 410.451489 
L 79.706649 402.016526 
L 84.391916 397.301962 
L 89.070868 393.8272 
L 93.756134 399.033703 
L 98.435086 407.960274 
L 103.114037 398.284845 
L 107.799304 405.971615 
L 112.478256 377.694186 
L 117.157207 407.703024 
L 121.836159 399.267729 
L 126.508797 397.032769 
L 131.187749 397.278407 
L 135.866701 404.964845 
L 140.539338 400.249618 
L 145.21829 400.495256 
L 149.890928 403.220829 
L 154.563565 393.545069 
L 159.236203 346.665309 
L 163.90884 395.275815 
L 168.581477 402.961922 
L 173.254115 393.286162 
L 177.926753 382.370268 
L 182.59939 398.737308 
L 187.265713 394.02175 
L 191.938351 385.586123 
L 196.604674 379.630431 
L 201.270997 387.316206 
L 205.943634 381.360846 
L 210.609958 372.924888 
L 215.276281 342.166529 
L 219.942604 296.526571 
L 224.602613 237.244815 
L 229.268936 148.20019 
L 233.935259 184.409031 
L 238.595268 270.222875 
L 243.261591 343.635717 
L 247.921599 386.044893 
L 257.241617 408.85658 
L 261.901626 411.581491 
L 271.221643 392.228644 
L 275.881652 402.394355 
L 280.541661 420.000865 
L 285.195355 400.403043 
L 289.855364 399.407554 
L 294.509058 389.730799 
L 299.169067 406.097176 
L 303.822761 398.900688 
L 308.476456 390.464067 
L 313.13015 386.987979 
L 317.783844 367.390157 
L 322.437539 376.315403 
L 327.084919 365.398183 
L 331.738613 343.320095 
L 336.392308 266.676141 
L 341.039688 216.074654 
L 345.687068 131.989568 
L 350.340762 42.94428 
L 354.988142 50.629061 
L 364.282902 213.574489 
L 368.930282 298.147536 
L 373.577662 329.39485 
L 378.218728 358.161565 
L 382.866108 365.846346 
L 387.513488 380.971926 
L 392.154553 382.455709 
L 396.795619 390.140158 
L 401.442999 399.065072 
L 406.084064 398.068587 
L 410.72513 395.83197 
L 415.366196 410.957219 
L 420.007261 421.121935 
L 424.642012 406.483652 
L 429.283078 405.487168 
L 433.924144 415.651883 
L 438.558895 417.135334 
L 443.199961 423.57965 
L 447.834712 420.102568 
L 452.469463 426.546552 
L 457.104214 426.789869 
L 461.738966 420.83252 
L 466.373717 413.635038 
L 471.008468 417.598755 
L 475.643219 424.04274 
L 480.271656 420.565326 
L 484.906408 420.808643 
L 489.541159 417.331561 
L 498.798032 415.337266 
L 503.426469 421.780919 
L 508.061221 422.024236 
L 512.689658 414.826422 
L 517.31178 413.828944 
L 521.940217 400.430463 
L 526.568654 425.476116 
L 531.197091 421.998702 
L 535.819213 421.001223 
L 540.44765 422.484342 
L 545.069772 404.124997 
L 549.691895 415.528851 
L 554.314018 423.212306 
L 558.942454 419.734892 
L 563.564577 413.77688 
L 568.180385 421.460003 
L 572.802508 408.061191 
L 577 400.398129 
L 577 400.398129 
" clip-path="url(#p4174bf12b5)" style="fill: none; stroke: #000000; stroke-width: 1.5; stroke-linecap: square"/>
   </g>
   <g id="line2d_18">
    <path d="M 9.389769 382.642957 
L 14.08135 382.634325 
L 18.772931 382.625113 
L 23.464511 382.615268 
L 28.149778 382.604746 
L 32.841358 382.593451 
L 37.532939 382.581324 
L 42.218205 382.568298 
L 46.909786 382.554243 
L 51.595052 382.53909 
L 56.280318 382.5227 
L 60.965584 382.504934 
L 65.650851 382.485634 
L 70.336117 382.464617 
L 75.021383 382.441676 
L 79.706649 382.416566 
L 84.391916 382.389006 
L 89.070868 382.35871 
L 93.756134 382.325211 
L 98.435086 382.288143 
L 103.114037 382.246926 
L 107.799304 382.200852 
L 112.478256 382.149272 
L 117.157207 382.091192 
L 121.836159 382.025475 
L 126.508797 381.950831 
L 131.187749 381.865326 
L 135.866701 381.766887 
L 140.539338 381.652936 
L 145.21829 381.519663 
L 149.890928 381.362898 
L 154.563565 381.17653 
L 159.236203 380.95263 
L 163.90884 380.680431 
L 168.581477 380.345026 
L 173.254115 379.925306 
L 177.926753 379.390602 
L 182.59939 378.695008 
L 187.265713 377.768848 
L 191.938351 376.494942 
L 196.604674 374.682686 
L 201.270997 371.981818 
L 205.943634 367.709612 
L 210.609958 360.441961 
L 215.276281 346.767666 
L 219.942604 317.55771 
L 224.602613 248.4751 
L 229.268936 137.364253 
L 233.935259 191.47908 
L 238.595268 290.993277 
L 243.261591 335.390411 
L 247.921599 354.875823 
L 252.581608 364.642815 
L 257.241617 370.126338 
L 261.901626 373.482488 
L 266.561634 375.675904 
L 271.221643 377.184287 
L 275.881652 378.264352 
L 280.541661 379.06346 
L 285.195355 379.670163 
L 289.855364 380.142611 
L 294.509058 380.516626 
L 299.169067 380.818469 
L 303.822761 381.064914 
L 308.476456 381.268976 
L 313.13015 381.439829 
L 317.783844 381.584295 
L 322.437539 381.707534 
L 327.084919 381.813371 
L 331.738613 381.905168 
L 336.392308 381.985195 
L 341.039688 382.055289 
L 345.687068 382.11711 
L 350.340762 382.171979 
L 354.988142 382.220772 
L 359.635522 382.264412 
L 364.282902 382.303599 
L 368.930282 382.338919 
L 373.577662 382.370864 
L 378.218728 382.399813 
L 382.866108 382.426198 
L 387.513488 382.450281 
L 392.154553 382.472294 
L 396.795619 382.492493 
L 401.442999 382.511098 
L 406.084064 382.528226 
L 410.72513 382.544051 
L 415.366196 382.558701 
L 420.007261 382.57229 
L 424.642012 382.584901 
L 429.283078 382.596657 
L 433.924144 382.60762 
L 438.558895 382.617844 
L 443.199961 382.627421 
L 447.834712 382.63638 
" clip-path="url(#p4174bf12b5)" style="fill: none; stroke-dasharray: 4.44,1.92; stroke-dashoffset: 0; stroke: #440154; stroke-width: 1.2"/>
   </g>
   <g id="line2d_19">
    <path d="M 131.187749 382.227718 
L 135.866701 382.201032 
L 140.539338 382.172604 
L 145.21829 382.142195 
L 149.890928 382.109706 
L 154.563565 382.074895 
L 159.236203 382.037536 
L 163.90884 381.997376 
L 168.581477 381.954125 
L 173.254115 381.90746 
L 177.926753 381.857012 
L 182.59939 381.802361 
L 187.265713 381.74311 
L 191.938351 381.67855 
L 196.604674 381.608224 
L 201.270997 381.53132 
L 205.943634 381.446873 
L 210.609958 381.354123 
L 215.276281 381.251806 
L 219.942604 381.138564 
L 224.602613 381.012963 
L 229.268936 380.87275 
L 233.935259 380.715788 
L 238.595268 380.539558 
L 243.261591 380.340219 
L 247.921599 380.114197 
L 252.581608 379.856166 
L 257.241617 379.559802 
L 261.901626 379.217148 
L 266.561634 378.818074 
L 271.221643 378.349536 
L 275.881652 377.794507 
L 280.541661 377.130438 
L 285.195355 376.328173 
L 289.855364 375.343971 
L 294.509058 374.12245 
L 299.169067 372.577008 
L 303.822761 370.589577 
L 308.476456 367.973167 
L 313.13015 364.437157 
L 317.783844 359.506408 
L 322.437539 352.366623 
L 327.084919 341.56324 
L 331.738613 324.246928 
L 336.392308 294.723758 
L 341.039688 241.53476 
L 345.687068 147.148088 
L 350.340762 31.416829 
L 354.988142 36.688178 
L 359.635522 154.004702 
L 364.282902 245.641707 
L 368.930282 296.96772 
L 373.577662 325.498572 
L 378.218728 342.289337 
L 382.866108 352.835365 
L 387.513488 359.816337 
L 392.154553 364.644957 
L 396.795619 368.116857 
L 401.442999 370.694484 
L 406.084064 372.653044 
L 410.72513 374.17662 
L 415.366196 375.384316 
L 420.007261 376.357317 
L 424.642012 377.151455 
L 429.283078 377.809536 
L 433.924144 378.360106 
L 438.558895 378.824709 
L 443.199961 379.221327 
L 447.834712 379.561683 
L 452.469463 379.856303 
L 457.104214 380.11301 
L 461.738966 380.338027 
L 466.373717 380.536354 
L 471.008468 380.712042 
L 475.643219 380.868406 
L 480.271656 381.007994 
L 484.906408 381.133449 
L 489.541159 381.246462 
L 494.169596 381.348492 
L 498.798032 381.441039 
L 503.426469 381.525242 
L 508.061221 381.602173 
L 512.689658 381.672459 
L 517.31178 381.736846 
L 521.940217 381.796132 
L 526.568654 381.850768 
L 531.197091 381.901228 
L 535.819213 381.947865 
L 540.44765 381.99117 
L 545.069772 382.031347 
L 549.691895 382.068738 
L 554.314018 382.103597 
L 558.942454 382.136189 
L 563.564577 382.166626 
L 568.180385 382.195093 
" clip-path="url(#p4174bf12b5)" style="fill: none; stroke-dasharray: 4.44,1.92; stroke-dashoffset: 0; stroke: #fde725; stroke-width: 1.2"/>
   </g>
   <g id="patch_5">
    <path d="M 60.05 382.84 
L 60.05 10.8 
" style="fill: none; stroke: #000000; stroke-width: 1.5; stroke-linejoin: miter; stroke-linecap: square"/>
   </g>
   <g id="patch_6">
    <path d="M 565.2 382.84 
L 565.2 10.8 
" style="fill: none; stroke: #000000; stroke-width: 1.5; stroke-linejoin: miter; stroke-linecap: square"/>
   </g>
   <g id="patch_7">
    <path d="M 60.05 382.84 
L 565.2 382.84 
" style="fill: none; stroke: #000000; stroke-width: 1.5; stroke-linejoin: miter; stroke-linecap: square"/>
   </g>
   <g id="patch_8">
    <path d="M 60.05 10.8 
L 565.2 10.8 
" style="fill: none; stroke: #000000; stroke-width: 1.5; stroke-linejoin: miter; stroke-linecap: square"/>
   </g>
   <g id="text_19">
    <!-- 387.0 -->
    <g style="fill: #808080" transform="translate(216.098921 132.804298) scale(0.1 -0.1)">
     <use xlink:href="#DejaVuSans-33"/>
     <use xlink:href="#DejaVuSans-38" transform="translate(63.623047 0)"/>
     <use xlink:href="#DejaVuSans-37" transform="translate(127.246094 0)"/>
     <use xlink:href="#DejaVuSans-2e" transform="translate(190.869141 0)"/>
     <use xlink:href="#DejaVuSans-30" transform="translate(222.65625 0)"/>
    </g>
   </g>
   <g id="text_20">
    <!-- 406.3 -->
    <g style="fill: #808080" transform="translate(338.210315 26.856875) scale(0.1 -0.1)">
     <use xlink:href="#DejaVuSans-34"/>
     <use xlink:href="#DejaVuSans-30" transform="translate(63.623047 0)"/>
     <use xlink:href="#DejaVuSans-36" transform="translate(127.246094 0)"/>
     <use xlink:href="#DejaVuSans-2e" transform="translate(190.869141 0)"/>
     <use xlink:href="#DejaVuSans-33" transform="translate(222.65625 0)"/>
    </g>
   </g>
  </g>
 </g>
 <defs>
  <clipPath id="p4174bf12b5">
   <rect x="60.05" y="10.8" width="505.15" height="372.04"/>
  </clipPath>
 </defs>
</svg>
