<?xml version="1.0" encoding="UTF-8" standalone="no"?>
<!-- Created with Inkscape (http://www.inkscape.org/) -->

<svg
   version="1.1"
   id="svg1"
   width="320"
   height="250"
   viewBox="0 0 320 250"
   sodipodi:docname="Raman_Theory.svg"
   inkscape:version="1.4.2 (f4327f4, 2025-05-13)"
   inkscape:export-filename="Exports\Raman_Theory.pdf"
   inkscape:export-xdpi="96"
   inkscape:export-ydpi="96"
   xmlns:inkscape="http://www.inkscape.org/namespaces/inkscape"
   xmlns:sodipodi="http://sodipodi.sourceforge.net/DTD/sodipodi-0.dtd"
   xmlns="http://www.w3.org/2000/svg"
   xmlns:svg="http://www.w3.org/2000/svg">
  <defs
     id="defs1">
    <marker
       style="overflow:visible"
       id="Triangle"
       refX="0"
       refY="0"
       orient="auto-start-reverse"
       inkscape:stockid="Triangle arrow"
       markerWidth="1"
       markerHeight="1"
       viewBox="0 0 1 1"
       inkscape:isstock="true"
       inkscape:collect="always"
       preserveAspectRatio="xMidYMid">
      <path
         transform="scale(0.5)"
         style="fill:context-stroke;fill-rule:evenodd;stroke:context-stroke;stroke-width:1pt"
         d="M 5.77,0 -2.88,5 V -5 Z"
         id="path135" />
    </marker>
    <marker
       style="overflow:visible"
       id="Triangle-6"
       refX="0"
       refY="0"
       orient="auto-start-reverse"
       inkscape:stockid="Triangle arrow"
       markerWidth="1"
       markerHeight="1"
       viewBox="0 0 1 1"
       inkscape:isstock="true"
       inkscape:collect="always"
       preserveAspectRatio="xMidYMid">
      <path
         transform="scale(0.5)"
         style="fill:context-stroke;fill-rule:evenodd;stroke:context-stroke;stroke-width:1pt"
         d="M 5.77,0 -2.88,5 V -5 Z"
         id="path135-1" />
    </marker>
  </defs>
  <sodipodi:namedview
     id="namedview1"
     pagecolor="#ffffff"
     bordercolor="#000000"
     borderopacity="0.25"
     inkscape:showpageshadow="2"
     inkscape:pageopacity="0.0"
     inkscape:pagecheckerboard="0"
     inkscape:deskcolor="#d1d1d1"
     inkscape:zoom="1.0320273"
     inkscape:cx="156.4881"
     inkscape:cy="270.82616"
     inkscape:window-width="1920"
     inkscape:window-height="1009"
     inkscape:window-x="-8"
     inkscape:window-y="-8"
     inkscape:window-maximized="1"
     inkscape:current-layer="g1">
    <inkscape:page
       x="0"
       y="0"
       inkscape:label="1"
       id="page1"
       width="320"
       height="250"
       margin="0"
       bleed="0" />
  </sodipodi:namedview>
  <g
     id="g1"
     inkscape:groupmode="layer"
     inkscape:label="1">
    <path
       id="path1"
       d="M 19.057332,4.306936 H 312.28132 V 219.72304 H 19.057332 Z"
       style="fill:none;stroke:#000000;stroke-width:1.00267;stroke-linecap:butt;stroke-linejoin:miter;stroke-miterlimit:4;stroke-dasharray:none;stroke-opacity:1" />
    <path
       id="path2"
       d="m 18.671999,51.60375 c 12.912,-0.36476 35.791999,0.62036 38.734666,-1.08363 C 66.693331,46.95769 69.254664,34.12977 74.062664,32.65076 80.14,30.95341 81.64533,46.3746 91.62,50.60931 c 9,1.917 65.77066,1.22874 69.104,-0.4899 9.72933,-4.80714 10.844,-16.79637 17.62533,-16.62464 3.78666,-0.79742 9.948,12.64021 17.92133,16.7551 23.16667,2.48411 46.24,0.50588 57.90667,1.1928"
       style="fill:none;stroke:#ff0000;stroke-width:1.00267;stroke-linecap:butt;stroke-linejoin:miter;stroke-miterlimit:4;stroke-dasharray:none;stroke-opacity:1" />
    <path
       id="path3"
       d="m 19.057332,206.39608 34.473333,-1.15685 c 16.037333,-4.00973 15.463999,-12.63489 18.209333,-18.17688 3.088,-9.32274 6.254666,-14.96324 8.525332,-14.89002 6.432,0.3794 10.83867,24.67603 14.90667,28.28638 2.92133,2.30706 5.74,4.22406 7.94266,4.0044 6.26,-0.20235 20.104,0.98512 24.068,-1.18215 6.916,-2.41089 10.13467,-7.04098 13.50534,-11.57788 4.63466,-10.22931 11.672,-21.61416 16.26533,-20.11517 5.588,0.0572 9.09867,12.22486 10.45867,12.76668 7.54133,15.1616 16.03066,16.43693 26.72799,19.72379 21.412,3.0459 43.78134,2.54135 60.52134,2.3177"
       style="fill:none;stroke:#000000;stroke-width:1.00267;stroke-linecap:butt;stroke-linejoin:miter;stroke-miterlimit:4;stroke-dasharray:none;stroke-opacity:1" />
    <path
       id="path4"
       d="m 19.557332,158.25616 c 10.765333,-0.47925 6.984,0.22898 31.401333,-1.29264 15.295999,-2.09805 16.019999,-29.07182 23.901333,-29.80667 4.276002,-0.38606 5.556002,7.34317 7.337332,13.53614 2.96933,10.28657 5.93867,10.67263 8.90667,14.693 9.12533,4.49962 39.27066,1.39116 46.86933,0.77612 28.10533,-8.69838 21.896,-18.12496 32.152,-20.10985 8.088,0.45928 15.052,18.07304 26.33866,18.94767 16.46267,4.07362 38.208,1.81316 57.328,2.70909"
       style="fill:none;stroke:#000000;stroke-width:1.00267;stroke-linecap:butt;stroke-linejoin:miter;stroke-miterlimit:4;stroke-dasharray:none;stroke-opacity:1" />
    <path
       id="path5"
       d="m 254.56266,124.19854 c -13.036,0.009 -26.07867,-0.0426 -39.12,-1.54691 -13.45333,-2.03149 -19.97333,-4.47433 -27.69333,-15.27609 -4.52,-9.15101 -9.744,-26.31347 -14.68667,-26.37471 -3.104,-0.2556 -8.464,8.2391 -12.23466,19.99403 -1.35867,3.90056 -7.828,18.10366 -28.66667,20.88597 -10.28133,2.00487 -20.156,1.13955 -30.21333,1.54692 -21.47467,1.43641 -18.77067,-65.360351 -27.156002,-60.333553 -6.349334,13.520168 -5.328,37.718283 -15.448,54.145903 -14.526666,8.42148 -26.994666,7.97418 -39.510666,7.73456"
       style="fill:none;stroke:#000000;stroke-width:1.00267;stroke-linecap:butt;stroke-linejoin:miter;stroke-miterlimit:4;stroke-dasharray:none;stroke-opacity:1" />
    <path
       id="path7"
       d="M 74.546664,4.40678 V 219.53134"
       style="fill:none;stroke:#000000;stroke-width:1.00425;stroke-linecap:butt;stroke-linejoin:miter;stroke-miterlimit:4;stroke-dasharray:3.01275, 1.00425;stroke-dashoffset:0;stroke-opacity:1" />
    <path
       id="path8"
       d="M 178.30666,4.551886 V 219.25045"
       style="fill:none;stroke:#000000;stroke-width:1.00425;stroke-linecap:butt;stroke-linejoin:miter;stroke-miterlimit:4;stroke-dasharray:3.01275, 1.00425;stroke-dashoffset:0;stroke-opacity:1" />
    <path
       id="path9"
       d="m 165.66666,219.81756 v -4.64073"
       style="fill:none;stroke:#000000;stroke-width:1.00425;stroke-linecap:butt;stroke-linejoin:miter;stroke-miterlimit:4;stroke-dasharray:none;stroke-opacity:1" />
    <path
       id="path10"
       d="m 103.36,219.83886 v -4.64073"
       style="fill:none;stroke:#000000;stroke-width:1.00425;stroke-linecap:butt;stroke-linejoin:miter;stroke-miterlimit:4;stroke-dasharray:none;stroke-opacity:1" />
    <path
       id="path11"
       d="m 228.27066,219.8748 v -4.64073"
       style="fill:none;stroke:#000000;stroke-width:1.00425;stroke-linecap:butt;stroke-linejoin:miter;stroke-miterlimit:4;stroke-dasharray:none;stroke-opacity:1" />
    <path
       id="path12"
       d="M 40.442665,219.83354 V 215.1928"
       style="fill:none;stroke:#000000;stroke-width:1.00425;stroke-linecap:butt;stroke-linejoin:miter;stroke-miterlimit:4;stroke-dasharray:none;stroke-opacity:1" />
    <g
       id="g24"
       transform="matrix(0.48002539,0,0,0.48002539,66.110952,113.59608)">
      <g
         id="g22">
        <path
           id="path14"
           d="m 5.3086454,-12.898621 c 1.0693359,0 1.9482422,0.137911 2.6367187,0.410798 0.694336,0.267019 1.209961,0.674883 1.546875,1.220658 0.3427735,0.539906 0.5156249,1.220657 0.5156249,2.0422531 0,0.6807512 -0.1289061,1.2529343 -0.3867186,1.713615 -0.2519532,0.4548122 -0.5712891,0.818662 -0.9609375,1.0915493 -0.3925782,0.2758216 -0.8056641,0.4900235 -1.2421875,0.6455399 L 10.957083,4.4012519e-4 H 9.0703641 L 5.9414579,-5.3281983 H 3.3750516 V 4.4012519e-4 H 1.7461454 V -12.898621 Z m -0.09375,1.408451 H 3.3750516 v 4.7887323 h 1.9335938 c 1.0458984,0 1.8076172,-0.2053991 2.2851562,-0.6220657 0.4833985,-0.4137324 0.7265625,-1.0240611 0.7265625,-1.8309859 0,-0.5692489 -0.1142578,-1.0240607 -0.3398437,-1.3615027 -0.2197266,-0.334507 -0.5595703,-0.580986 -1.0195313,-0.739436 -0.4541015,-0.155517 -1.0371094,-0.234742 -1.7460937,-0.234742 z m 11.2236326,1.6431924 c 1.177735,0 2.050781,0.2640845 2.613281,0.786385 0.56836,0.5164319 0.855469,1.3380281 0.855469,2.4647887 V 4.4012519e-4 H 18.747122 L 18.442434,-1.3727993 h -0.07031 c -0.28125,0.3521127 -0.571289,0.6455399 -0.867188,0.88028168 -0.290039,0.23474179 -0.626953,0.40492958 -1.007812,0.50469483 -0.375,0.10856808 -0.837891,0.16431925 -1.382813,0.16431925 -0.580078,0 -1.098632,-0.10269953 -1.558593,-0.30516431 -0.462891,-0.20246479 -0.826172,-0.51643192 -1.089844,-0.93896715 -0.266602,-0.4284037 -0.398438,-0.9683098 -0.398438,-1.6197183 0,-0.9624413 0.37793,-1.7048122 1.136719,-2.2300469 0.75586,-0.5223005 1.924805,-0.8098591 3.503906,-0.8568075 l 1.640625,-0.058685 v -0.5751174 c 0,-0.8039906 -0.175781,-1.3644366 -0.527343,-1.6784037 -0.345703,-0.3110329 -0.837891,-0.4694836 -1.476563,-0.4694836 -0.509765,0 -0.993164,0.076291 -1.453125,0.2230047 -0.454101,0.1496479 -0.878906,0.3227699 -1.277344,0.5164319 l -0.480468,-1.1971831 c 0.421875,-0.2259389 0.919922,-0.4225352 1.5,-0.5868544 0.577148,-0.1643193 1.177734,-0.2464789 1.804687,-0.2464789 z m 0.46875,5.1643192 c -1.204101,0.055751 -2.039062,0.2523474 -2.507812,0.5868544 -0.462891,0.3374414 -0.691407,0.8098592 -0.691407,1.4201878 0,0.5399061 0.164063,0.9389671 0.492188,1.1971831 0.333984,0.2523474 0.761719,0.3755869 1.277344,0.3755869 0.820312,0 1.5,-0.2230047 2.039062,-0.6690141 0.544922,-0.451878 0.820313,-1.1502348 0.820313,-2.0892019 v -0.8685446 z m 16.611328,-5.1760563 c 1.092774,0 1.910157,0.2816902 2.449219,0.8450704 0.544922,0.5575118 0.820313,1.4612676 0.820313,2.7112676 V 4.4012519e-4 H 35.217825 V -6.2319542 c 0,-0.7570422 -0.161133,-1.3292253 -0.480469,-1.713615 -0.322265,-0.3814554 -0.817383,-0.5751173 -1.488281,-0.5751173 -0.9375,0 -1.611328,0.269953 -2.015625,0.8098591 -0.398437,0.5399061 -0.597656,1.3262911 -0.597656,2.3591549 V 4.4012519e-4 H 29.053763 V -6.2319542 c 0,-0.5076291 -0.07617,-0.9301643 -0.222657,-1.2676056 -0.140625,-0.3433098 -0.357422,-0.5985915 -0.644531,-0.7629108 -0.28125,-0.1701878 -0.65332,-0.2582159 -1.113281,-0.2582159 -0.650391,0 -1.160156,0.1379108 -1.535156,0.4107981 -0.375,0.2670188 -0.644532,0.657277 -0.808594,1.1737089 -0.158203,0.5164319 -0.234375,1.1561033 -0.234375,1.9131455 V 4.4012519e-4 h -1.59375 V -9.6826583 h 1.277344 l 0.234375,1.3145539 h 0.09375 c 0.202148,-0.334507 0.451171,-0.6132629 0.75,-0.8333333 0.295898,-0.225939 0.624023,-0.3902582 0.984375,-0.4929577 0.357421,-0.1085681 0.732421,-0.1643193 1.125,-0.1643193 0.74121,0 1.362304,0.1349765 1.863281,0.399061 0.498047,0.258216 0.861328,0.6660798 1.089844,1.2206573 h 0.09375 c 0.328125,-0.5545775 0.767578,-0.9624413 1.324218,-1.2206573 0.5625,-0.2640845 1.154297,-0.399061 1.78125,-0.399061 z m 9.94043,0.011737 c 1.177734,0 2.050781,0.2640845 2.613281,0.786385 0.56836,0.5164319 0.855469,1.3380281 0.855469,2.4647887 V 4.4012519e-4 H 45.76763 L 45.462942,-1.3727993 h -0.07031 c -0.28125,0.3521127 -0.571289,0.6455399 -0.867188,0.88028168 -0.290039,0.23474179 -0.626953,0.40492958 -1.007812,0.50469483 -0.375,0.10856808 -0.837891,0.16431925 -1.382813,0.16431925 -0.580078,0 -1.098633,-0.10269953 -1.558594,-0.30516431 -0.46289,-0.20246479 -0.826171,-0.51643192 -1.089843,-0.93896715 -0.266602,-0.4284037 -0.398438,-0.9683098 -0.398438,-1.6197183 0,-0.9624413 0.37793,-1.7048122 1.136719,-2.2300469 0.755859,-0.5223005 1.924805,-0.8098591 3.503906,-0.8568075 l 1.640625,-0.058685 v -0.5751174 c 0,-0.8039906 -0.175781,-1.3644366 -0.527344,-1.6784037 -0.345703,-0.3110329 -0.83789,-0.4694836 -1.476562,-0.4694836 -0.509766,0 -0.993164,0.076291 -1.453125,0.2230047 -0.454102,0.1496479 -0.878906,0.3227699 -1.277344,0.5164319 L 40.15435,-9.0136439 c 0.421875,-0.2259389 0.919922,-0.4225352 1.5,-0.5868544 0.577149,-0.1643193 1.177735,-0.2464789 1.804688,-0.2464789 z m 0.46875,5.1643192 c -1.204102,0.055751 -2.039063,0.2523474 -2.507813,0.5868544 -0.46289,0.3374414 -0.691406,0.8098592 -0.691406,1.4201878 0,0.5399061 0.164063,0.9389671 0.492188,1.1971831 0.333984,0.2523474 0.761718,0.3755869 1.277343,0.3755869 0.820313,0 1.5,-0.2230047 2.039063,-0.6690141 0.544922,-0.451878 0.820312,-1.1502348 0.820312,-2.0892019 v -0.8685446 z m 10.661133,-5.1760563 c 1.148437,0 2.018554,0.2816902 2.613281,0.8450704 0.591797,0.5575118 0.890625,1.4612676 0.890625,2.7112676 V 4.4012519e-4 H 56.510794 V -6.1967429 c 0,-0.7805164 -0.175781,-1.3644366 -0.527344,-1.7488263 -0.345703,-0.3814554 -0.887695,-0.5751173 -1.628906,-0.5751173 -1.078125,0 -1.822266,0.30223 -2.226563,0.9037558 -0.407226,0.5956573 -0.609375,1.4612676 -0.609375,2.5938967 V 4.4012519e-4 h -1.59375 V -9.6826583 H 51.2022 l 0.234375,1.3145539 h 0.09375 c 0.216797,-0.334507 0.486328,-0.6132629 0.808594,-0.8333333 0.319336,-0.225939 0.670898,-0.3902582 1.054687,-0.4929577 0.38086,-0.1085681 0.779297,-0.1643193 1.195313,-0.1643194 z m 18.729492,6.4084506 c 0,0.7746479 -0.1875,1.4319249 -0.5625,1.971831 -0.375,0.53403756 -0.911133,0.94483567 -1.605469,1.23239435 -0.688476,0.28169014 -1.5,0.42253521 -2.4375,0.42253521 -0.486328,0 -0.949219,-0.0234742 -1.394531,-0.0704225 C 66.878958,0.05912557 66.48052,-0.00542842 66.123098,-0.09345659 65.762747,-0.1873533 65.446341,-0.29885565 65.17388,-0.43383217 V -1.9831279 c 0.427734,0.1877934 0.963867,0.3609155 1.605468,0.5164319 0.647461,0.1584507 1.31543,0.2347418 2.003907,0.2347418 0.632812,0 1.163086,-0.08216 1.59375,-0.2464789 0.436523,-0.1701878 0.764648,-0.4137324 0.984375,-0.7276995 0.216797,-0.3110329 0.328125,-0.6807512 0.328125,-1.1032864 0,-0.4225352 -0.09082,-0.7746479 -0.269532,-1.056338 -0.18164,-0.2875587 -0.492187,-0.5545775 -0.9375,-0.7981221 -0.439453,-0.2494131 -1.048828,-0.5164319 -1.828125,-0.798122 -0.55664,-0.2024648 -1.040039,-0.4225352 -1.453125,-0.657277 -0.416015,-0.2347418 -0.761718,-0.4988263 -1.042968,-0.7981221 -0.275391,-0.3051643 -0.480469,-0.6484741 -0.621094,-1.0328638 -0.140625,-0.3902582 -0.210938,-0.8362676 -0.210938,-1.3380281 0,-0.6866199 0.175782,-1.2734739 0.527344,-1.7605639 0.351563,-0.492957 0.834961,-0.868544 1.453125,-1.12676 0.624024,-0.264085 1.338867,-0.399061 2.144531,-0.399061 0.708985,0 1.359375,0.06749 1.945313,0.19953 0.591797,0.134977 1.12793,0.305165 1.605469,0.516432 l -0.503907,1.396714 c -0.445312,-0.193662 -0.93164,-0.357981 -1.453125,-0.492958 -0.524414,-0.132042 -1.066406,-0.19953 -1.628906,-0.19953 -0.547851,0 -1.001953,0.07922 -1.359375,0.234741 -0.360351,0.158451 -0.629883,0.381456 -0.808594,0.669015 -0.18164,0.28169 -0.269531,0.607394 -0.269531,0.9741779 0,0.4401409 0.08789,0.8039906 0.269531,1.0915493 0.178711,0.290493 0.47168,0.5487089 0.878907,0.7746479 0.413086,0.2288732 0.966797,0.4753521 1.664062,0.7394366 0.75586,0.2758216 1.397461,0.5721831 1.921875,0.8920188 0.521485,0.3227699 0.919922,0.7042253 1.195313,1.1502347 0.272461,0.4460094 0.410156,1.0064554 0.410156,1.6784036 z m 3.972656,-6.2441313 c 0,0.2288732 -0.01172,0.463615 -0.03516,0.7042253 -0.01758,0.2347418 -0.03516,0.4518779 -0.05859,0.6455399 h 0.105469 c 0.202148,-0.334507 0.459961,-0.6132629 0.773437,-0.8333333 0.310547,-0.2171362 0.65918,-0.3814554 1.042969,-0.4929578 0.389649,-0.1173708 0.788086,-0.1760563 1.195313,-0.1760563 0.788086,0 1.444336,0.1261737 1.96875,0.3755869 0.521484,0.2435446 0.916992,0.6279342 1.183593,1.1502347 0.263672,0.5164319 0.398438,1.1913145 0.398438,2.0187793 V 4.4012519e-4 H 82.283255 V -6.1967429 c 0,-0.7805164 -0.175782,-1.3644366 -0.527344,-1.7488263 -0.345703,-0.3814554 -0.887695,-0.5751173 -1.628906,-0.5751173 -0.726563,0 -1.297852,0.1379108 -1.710938,0.4107981 -0.407226,0.2670188 -0.697265,0.6631455 -0.867187,1.185446 -0.172852,0.5252347 -0.257813,1.1678403 -0.257813,1.9248826 V 4.4012519e-4 h -1.59375 V -13.731954 h 1.59375 z m 11.165039,0.011737 V 4.4012519e-4 h -1.59375 V -9.6826583 Z M 87.67095,-13.309419 c 0.240234,0 0.457031,0.08216 0.644531,0.246479 0.1875,0.158451 0.28125,0.410798 0.28125,0.762911 0,0.337441 -0.09375,0.592723 -0.28125,0.762911 -0.1875,0.164319 -0.404297,0.246478 -0.644531,0.246478 -0.266602,0 -0.489258,-0.08216 -0.667969,-0.246478 -0.18164,-0.170188 -0.269531,-0.42547 -0.269531,-0.762911 0,-0.352113 0.08789,-0.60446 0.269531,-0.762911 0.178711,-0.164319 0.401367,-0.246479 0.667969,-0.246479 z m 8.314453,4.859155 h -2.4375 V 4.4012519e-4 h -1.59375 V -8.450264 h -1.699219 v -0.7394366 l 1.699219,-0.5516432 v -0.5516432 c 0,-0.827465 0.120117,-1.502347 0.363281,-2.018779 0.249024,-0.522301 0.609375,-0.903756 1.078125,-1.138498 0.46875,-0.24061 1.03418,-0.36385 1.699219,-0.36385 0.38086,0 0.732422,0.03521 1.054688,0.105634 0.319336,0.06455 0.591797,0.134977 0.820312,0.211268 l -0.410156,1.255868 c -0.196289,-0.06162 -0.418945,-0.123239 -0.667969,-0.187793 -0.251953,-0.06162 -0.509765,-0.0939 -0.773437,-0.0939 -0.533203,0 -0.925782,0.181925 -1.183594,0.539906 -0.257813,0.352113 -0.386719,0.909625 -0.386719,1.666667 v 0.6338027 h 2.4375 z m 4.983397,7.3356807 c 0.24024,0 0.48633,-0.017606 0.73828,-0.058685 0.24903,-0.046948 0.45117,-0.093897 0.60938,-0.140845 v 1.20892012 c -0.16406,0.08802817 -0.4043,0.15258216 -0.71485,0.19953052 -0.31347,0.0528169 -0.61523,0.08215962 -0.90234,0.08215962 -0.50977,0 -0.978515,-0.08802817 -1.40625,-0.25821596 C 98.871145,-0.25190729 98.525442,-0.55413733 98.26177,-0.98547536 97.995169,-1.4226819 97.863333,-2.0330106 97.863333,-2.8164612 V -8.450264 h -1.371094 v -0.7629108 l 1.382813,-0.6338028 0.632812,-2.0539904 h 0.9375 v 2.2183097 h 2.800786 v 1.2323943 h -2.800786 v 5.5985915 c 0,0.5868544 0.140625,1.0269953 0.421875,1.314554 0.287111,0.2816901 0.656251,0.4225352 1.101561,0.4225352 z m 7.17481,-3.8380282 c 0,-0.9859154 0.0879,-1.9483567 0.26953,-2.8873239 0.1875,-0.9389671 0.48047,-1.8339201 0.8789,-2.6877936 0.39844,-0.859742 0.89649,-1.649061 1.5,-2.370892 h 1.5 c -0.84375,1.135564 -1.48242,2.382629 -1.91015,3.7441317 -0.42188,1.3615023 -0.63281,2.7582159 -0.63281,4.1901408 0,0.9242957 0.0937,1.8427229 0.28125,2.7582159 0.19335,0.9154929 0.48046,1.79577461 0.85546,2.64084502 0.375,0.85093898 0.83789,1.65786378 1.39454,2.41784038 h -1.48829 c -0.60351,-0.7130282 -1.10156,-1.4876761 -1.5,-2.32394367 -0.39843,-0.83626759 -0.6914,-1.71654923 -0.8789,-2.64084503 -0.18164,-0.9301643 -0.26953,-1.8779343 -0.26953,-2.8403756 z m 10.10449,5.12910796 c -0.85254,0 -1.61426,-0.17312206 -2.28516,-0.51643192 -0.66504,-0.35211267 -1.18945,-0.89495304 -1.57031,-1.63145534 -0.375,-0.7335681 -0.5625,-1.6725352 -0.5625,-2.8169014 0,-1.1883803 0.19336,-2.1537559 0.58594,-2.899061 0.39843,-0.7511737 0.9375,-1.2969483 1.61718,-1.6431925 0.68555,-0.3521126 1.46485,-0.528169 2.33204,-0.528169 0.49218,0 0.96386,0.052817 1.41796,0.1525822 0.45997,0.1026995 0.83497,0.2230047 1.125,0.3638497 l -0.49218,1.3262911 c -0.29004,-0.1085681 -0.62696,-0.2112676 -1.00782,-0.3051643 -0.38378,-0.099765 -0.74707,-0.1525822 -1.08984,-0.1525822 -0.65039,0 -1.18359,0.1408451 -1.60547,0.4225352 -0.42187,0.2758216 -0.73535,0.6866197 -0.9375,1.2323944 -0.20508,0.5399061 -0.30469,1.2147887 -0.30469,2.0187793 0,0.7687793 0.0996,1.4260563 0.30469,1.971831 0.20215,0.5399061 0.50684,0.9477699 0.91406,1.2206572 0.41309,0.2758216 0.92872,0.4107981 1.54688,0.4107981 0.53027,0 0.99609,-0.049883 1.39453,-0.1525821 0.4043,-0.1085681 0.77637,-0.2406103 1.11328,-0.399061 v 1.40845064 c -0.32812,0.16431925 -0.68847,0.29049296 -1.07812,0.37558685 -0.39258,0.09389671 -0.86426,0.14084507 -1.41797,0.14084507 z M 133.65825,-9.8587147 c 1.09278,0 1.91016,0.2816902 2.44922,0.8450704 0.54493,0.5575118 0.82032,1.4612676 0.82032,2.7112676 V 4.4012519e-4 h -1.57032 V -6.2319542 c 0,-0.7570422 -0.16113,-1.3292253 -0.48047,-1.713615 -0.32226,-0.3814554 -0.81738,-0.5751173 -1.48828,-0.5751173 -0.9375,0 -1.61132,0.269953 -2.01562,0.8098591 -0.39844,0.5399061 -0.59766,1.3262911 -0.59766,2.3591549 V 4.4012519e-4 h -1.58203 V -6.2319542 c 0,-0.5076291 -0.0762,-0.9301643 -0.22266,-1.2676056 -0.14062,-0.3433098 -0.35742,-0.5985915 -0.64453,-0.7629108 -0.28125,-0.1701878 -0.65332,-0.2582159 -1.11328,-0.2582159 -0.65039,0 -1.16015,0.1379108 -1.53515,0.4107981 -0.375,0.2670188 -0.64454,0.657277 -0.8086,1.1737089 -0.1582,0.5164319 -0.23437,1.1561033 -0.23437,1.9131455 V 4.4012519e-4 h -1.59375 V -9.6826583 h 1.27734 l 0.23438,1.3145539 h 0.0937 c 0.20214,-0.334507 0.45117,-0.6132629 0.75,-0.8333333 0.29589,-0.225939 0.62402,-0.3902582 0.98437,-0.4929577 0.35742,-0.1085681 0.73242,-0.1643193 1.125,-0.1643193 0.74121,0 1.36231,0.1349765 1.86328,0.399061 0.49805,0.258216 0.86133,0.6660798 1.08985,1.2206573 h 0.0937 c 0.32812,-0.5545775 0.76757,-0.9624413 1.32421,-1.2206573 0.5625,-0.2640845 1.1543,-0.399061 1.78125,-0.399061 z m 0,0"
           style="fill:#000000;fill-opacity:1;fill-rule:nonzero;stroke:none"
           aria-label="Raman Shift (cm"
           transform="matrix(1.3333333,0,0,1.33125,94.179619,275.01895)" />
        <path
           id="path15"
           d="M 0.46865975,-2.6866427 V -3.6021356 H 3.316316 v 0.9154929 z M 7.9510816,0.00115061 H 6.9432691 V -5.8556567 c 0,-0.2259389 0,-0.4166666 0,-0.5751173 0.00586,-0.1555165 0.014648,-0.2992958 0.023437,-0.4342723 0.00586,-0.1408451 0.014648,-0.2846244 0.023437,-0.4342723 -0.1259765,0.1261737 -0.243164,0.2318075 -0.3515625,0.3169014 -0.102539,0.088028 -0.2314453,0.1965962 -0.3867187,0.3286385 l -0.890625,0.7276995 -0.5390625,-0.6924882 2.2734375,-1.7605634 h 0.8554687 z m 0,0"
           style="fill:#000000;fill-opacity:1;fill-rule:nonzero;stroke:none"
           aria-label="-1"
           transform="matrix(1.3333333,0,0,1.3312501,278.70325,265.40081)" />
        <path
           id="path16"
           d="m 4.7002248,-4.9526115 c 0,0.9624413 -0.09375,1.9102113 -0.28125,2.8403756 -0.1875,0.9242958 -0.4775391,1.80457744 -0.8671875,2.64084503 C 3.1592092,1.3648767 2.6553029,2.1395246 2.0400686,2.8525528 H 0.56350606 C 1.117217,2.0925762 1.5771779,1.2856514 1.9463186,0.43471242 c 0.375,-0.84507041 0.6591796,-1.72535212 0.8554687,-2.64084502 0.1933594,-0.915493 0.2929688,-1.8339202 0.2929688,-2.7582159 0,-0.9536385 -0.099609,-1.8926057 -0.2929688,-2.8169014 C 2.6054982,-8.7114142 2.3213186,-9.6063673 1.9463186,-10.469043 1.5771779,-11.337588 1.1084279,-12.147447 0.54006856,-12.898621 H 2.0400686 c 0.6152343,0.721831 1.1191406,1.51115 1.5117187,2.370892 0.3896484,0.8538735 0.6796875,1.7488265 0.8671875,2.6877936 0.1875,0.9389672 0.28125,1.9014085 0.28125,2.8873239 z m 0,0"
           style="fill:#000000;fill-opacity:1;fill-rule:nonzero;stroke:none"
           aria-label=")"
           transform="matrix(1.3333333,0,0,1.33125,292.69788,275.01895)" />
      </g>
    </g>
    <g
       id="g23"
       transform="translate(-4.558601,20.037964)">
      <path
         id="path17"
         d="m 16.930607,125.06403 v 2.97765 h -0.600032 l -0.217511,-0.96755 H 9.5127146 l -0.2325119,0.96755 H 8.6801711 v -2.97765 h 0.6000316 l 0.2325119,0.97505 h 6.6003494 l 0.217511,-0.97505 z m -6.307833,-4.42899 c 0,-0.73879 0.180009,-1.29757 0.540028,-1.67259 0.356269,-0.37502 0.9338,-0.56253 1.732592,-0.56253 h 4.035213 v 0.99756 h -3.96771 c -0.498776,0 -0.871921,0.1125 -1.117559,0.33751 -0.243763,0.22502 -0.367519,0.57566 -0.367519,1.05006 0,0.68629 0.193135,1.16069 0.57753,1.42508 0.386271,0.26063 0.9413,0.39002 1.665088,0.39002 h 3.21017 v 1.01255 H 10.73528 v -0.81754 l 0.847544,-0.15001 v -0.06 c -0.219386,-0.135 -0.399396,-0.30376 -0.540028,-0.51002 -0.144383,-0.20439 -0.249388,-0.4294 -0.315017,-0.67504 -0.06938,-0.24939 -0.105005,-0.5044 -0.105005,-0.76504 z m 5.587795,-6.2197 c 0,-0.15376 -0.01125,-0.31127 -0.0375,-0.47253 -0.02438,-0.16501 -0.0525,-0.29626 -0.0825,-0.39752 h 0.772541 c 0.05625,0.11063 0.09751,0.26627 0.127506,0.46503 0.03375,0.20063 0.0525,0.39377 0.0525,0.57753 0,0.32064 -0.05625,0.61878 -0.165008,0.89254 -0.108756,0.27564 -0.301892,0.49878 -0.577531,0.66754 -0.27939,0.16501 -0.669411,0.24751 -1.170062,0.24751 h -3.607691 v 0.87755 h -0.487526 l -0.405021,-0.88505 -1.3200702,-0.40502 v -0.60003 H 10.73528 v -1.7926 h 0.787541 v 1.7926 h 3.58519 c 0.37502,0 0.652534,-0.09 0.832544,-0.27002 0.180009,-0.18 0.270014,-0.41252 0.270014,-0.69753 z m -5.587795,-4.48899 c 0,-0.5344 0.116256,-0.99193 0.345018,-1.37257 0.230637,-0.37877 0.555029,-0.67129 0.975051,-0.87755 0.420023,-0.20438 0.913174,-0.30751 1.477579,-0.30751 h 0.607532 v 4.23772 c 0.701287,-0.015 1.23569,-0.19126 1.605085,-0.53253 0.365644,-0.34502 0.547529,-0.82504 0.547529,-1.44007 0,-0.39003 -0.03375,-0.73692 -0.105006,-1.04256 -0.075,-0.30377 -0.181885,-0.61878 -0.322517,-0.94505 h 0.885047 c 0.140632,0.32064 0.243763,0.63566 0.307516,0.94505 0.06375,0.30564 0.09751,0.66754 0.09751,1.08756 0,0.58503 -0.116256,1.10256 -0.352519,1.55258 -0.240012,0.45002 -0.596281,0.80067 -1.072556,1.05006 -0.4744,0.25126 -1.053806,0.37502 -1.740092,0.37502 -0.675036,0 -1.254442,-0.11251 -1.740092,-0.33752 -0.489401,-0.22501 -0.864421,-0.54191 -1.12506,-0.95255 -0.258763,-0.4144 -0.39002,-0.89443 -0.39002,-1.44008 z m 0.832544,0.008 c 0,0.48565 0.155633,0.86817 0.465024,1.14756 0.311267,0.28127 0.742539,0.44815 1.297569,0.50253 v -3.15017 c -0.354394,0 -0.66191,0.0563 -0.922549,0.16501 -0.258764,0.10501 -0.465025,0.26814 -0.615032,0.48753 -0.150008,0.22126 -0.225012,0.50252 -0.225012,0.84754 z m -0.832544,-7.1085 c 0,-0.73879 0.180009,-1.29757 0.540028,-1.67259 0.356269,-0.37502 0.9338,-0.56253 1.732592,-0.56253 h 4.035213 v 0.99755 h -3.96771 c -0.498776,0 -0.871921,0.11251 -1.117559,0.33752 -0.243763,0.22501 -0.367519,0.57566 -0.367519,1.05006 0,0.68628 0.193135,1.16068 0.57753,1.42507 0.386271,0.26064 0.9413,0.39002 1.665088,0.39002 h 3.21017 v 1.01256 H 10.73528 v -0.81755 l 0.847544,-0.15 v -0.06 c -0.219386,-0.135 -0.399396,-0.30376 -0.540028,-0.51002 -0.144383,-0.20439 -0.249388,-0.4294 -0.315017,-0.67504 -0.06938,-0.24939 -0.105005,-0.5044 -0.105005,-0.76504 z m 4.597743,-8.184806 c 0.401271,0 0.735039,0.101255 1.005053,0.300016 0.270014,0.200636 0.476275,0.48565 0.615032,0.855045 0.135008,0.37127 0.202511,0.808168 0.202511,1.31257 0,0.435022 -0.03563,0.808167 -0.105005,1.117559 -0.06375,0.311266 -0.159384,0.58503 -0.285016,0.825043 h -0.922548 c 0.120006,-0.243763 0.232512,-0.541904 0.337518,-0.892547 0.105005,-0.348769 0.157508,-0.706912 0.157508,-1.072557 0,-0.513777 -0.0825,-0.886922 -0.247513,-1.117559 -0.165009,-0.228762 -0.386271,-0.345018 -0.667535,-0.345018 -0.153759,0 -0.292516,0.04312 -0.412522,0.127507 -0.123757,0.08625 -0.247513,0.238137 -0.36752,0.457524 -0.123756,0.215636 -0.264389,0.528778 -0.420022,0.93755 -0.153758,0.401271 -0.307516,0.742539 -0.457524,1.027553 -0.153758,0.285016 -0.339393,0.506277 -0.55503,0.660035 -0.219386,0.155634 -0.498776,0.232513 -0.840044,0.232513 -0.519402,0 -0.922549,-0.211886 -1.207564,-0.637534 -0.285015,-0.429398 -0.427522,-0.991927 -0.427522,-1.687589 0,-0.37502 0.0375,-0.723788 0.112506,-1.050056 0.07125,-0.330017 0.170634,-0.637533 0.300015,-0.922548 l 0.810043,0.345018 c -0.108756,0.260639 -0.20251,0.532528 -0.277514,0.817543 -0.075,0.285015 -0.112506,0.577531 -0.112506,0.877547 0,0.420022 0.0675,0.740663 0.20251,0.96005 0.135007,0.215637 0.318767,0.322517 0.547529,0.322517 0.170634,0 0.315017,-0.04875 0.435023,-0.150008 0.116256,-0.09938 0.230637,-0.266264 0.345019,-0.502526 0.11063,-0.234387 0.243762,-0.547529 0.397521,-0.93755 0.146257,-0.39377 0.296265,-0.729413 0.450023,-1.005053 0.155634,-0.273764 0.343144,-0.483776 0.56253,-0.630033 0.221262,-0.150008 0.495026,-0.225012 0.825044,-0.225012 z M 10.73528,92.12791 h 6.195327 v 1.012553 H 10.73528 Z m -2.3251233,0.495026 c 0,-0.153758 0.052501,-0.292516 0.1575082,-0.412522 0.1050055,-0.120006 0.2700144,-0.180009 0.4950262,-0.180009 0.2156366,0 0.3787699,0.06 0.487526,0.180009 0.1050055,0.120006 0.1575082,0.258764 0.1575082,0.412522 0,0.170634 -0.052501,0.313141 -0.1575082,0.427523 -0.1087561,0.116256 -0.2718894,0.172509 -0.487526,0.172509 -0.2250118,0 -0.3900207,-0.05625 -0.4950262,-0.172509 C 8.4626595,92.936077 8.4101567,92.79357 8.4101567,92.622936 Z m 7.8004123,-4.522739 c 0,-0.153758 -0.01125,-0.311267 -0.0375,-0.472525 -0.02438,-0.165009 -0.0525,-0.296266 -0.0825,-0.397521 h 0.772541 c 0.05625,0.110631 0.09751,0.266264 0.127506,0.465025 0.03375,0.200635 0.0525,0.39377 0.0525,0.57753 0,0.320642 -0.05625,0.618783 -0.165008,0.892547 -0.108756,0.27564 -0.301892,0.498776 -0.577531,0.667535 -0.27939,0.165009 -0.669411,0.247514 -1.170062,0.247514 h -3.607691 v 0.877546 H 11.035295 L 10.630274,90.072801 9.3102038,89.66778 V 89.067748 H 10.73528 v -1.792594 h 0.787541 v 1.792594 h 3.58519 c 0.37502,0 0.652534,-0.09 0.832544,-0.270014 0.180009,-0.18001 0.270014,-0.412522 0.270014,-0.697537 z m -5.475289,-1.13631 v -1.080058 l 3.525186,-1.34257 c 0.210011,-0.075 0.412522,-0.144383 0.607532,-0.210011 0.19126,-0.06375 0.37502,-0.123757 0.555029,-0.18001 0.18001,-0.05438 0.356269,-0.09751 0.525028,-0.127507 v -0.045 c -0.19501,-0.045 -0.446273,-0.116256 -0.75754,-0.217511 -0.309391,-0.09938 -0.624408,-0.204386 -0.94505,-0.315017 L 10.73528,82.186136 v -1.095058 l 7.050372,2.670139 c 0.384396,0.146258 0.721914,0.315017 1.012554,0.510027 0.288765,0.195011 0.511902,0.435024 0.667535,0.720038 0.159384,0.281265 0.240013,0.620659 0.240013,1.020054 0,0.185635 -0.01125,0.348769 -0.03,0.487526 -0.02063,0.135007 -0.04125,0.253139 -0.06,0.352519 h -0.810043 c 0.015,-0.08438 0.03,-0.18751 0.045,-0.307517 0.015,-0.120006 0.0225,-0.243762 0.0225,-0.375019 0,-0.234388 -0.045,-0.438773 -0.135007,-0.615033 -0.09,-0.174384 -0.217512,-0.322517 -0.382521,-0.442523 -0.165008,-0.123757 -0.360019,-0.228762 -0.58503,-0.315017 l -0.817544,-0.322517 z m 3.03016,-9.337994 c -0.633784,0 -1.252566,-0.05625 -1.852598,-0.172509 -0.600032,-0.120007 -1.171937,-0.307516 -1.717591,-0.56253 -0.5494042,-0.255013 -1.0538055,-0.57378 -1.5150799,-0.960051 v -0.96005 c 0.7256631,0.540028 1.5225799,0.9488 2.3926259,1.222564 0.870046,0.270014 1.762594,0.405022 2.677642,0.405022 0.596282,0 1.185063,-0.06 1.770094,-0.18001 0.585031,-0.123756 1.14756,-0.303765 1.687589,-0.540028 0.543779,-0.240013 1.059431,-0.536279 1.545082,-0.892547 v 0.945049 c -0.450024,0.386271 -0.94505,0.705038 -1.485079,0.960051 -0.534403,0.255014 -1.096933,0.442523 -1.687589,0.56253 -0.594407,0.116256 -1.200064,0.172509 -1.815096,0.172509 z m -3.135166,-6.320959 c 0,-0.75379 0.168759,-1.312569 0.502527,-1.672588 0.330017,-0.363769 0.858795,-0.547529 1.582583,-0.547529 h 4.215223 v 0.742539 l -0.877546,0.19501 v 0.045 c 0.225012,0.17626 0.412522,0.358144 0.562529,0.547529 0.150008,0.19126 0.258764,0.408772 0.322518,0.652534 0.06938,0.240013 0.105005,0.532529 0.105005,0.877547 0,0.37127 -0.06563,0.703162 -0.19501,0.997553 -0.129382,0.296266 -0.330018,0.528778 -0.600032,0.697537 -0.273764,0.170634 -0.622533,0.255013 -1.042555,0.255013 -0.615033,0 -1.089433,-0.241888 -1.425075,-0.727538 -0.333768,-0.483776 -0.517528,-1.230066 -0.547529,-2.235118 l -0.0375,-1.050056 h -0.36752 c -0.513777,0 -0.871921,0.112506 -1.072556,0.337518 -0.198761,0.221262 -0.300016,0.532528 -0.300016,0.937549 0,0.326268 0.04875,0.635659 0.142507,0.930049 0.09563,0.290641 0.206261,0.562531 0.330018,0.817544 l -0.765041,0.307516 c -0.144382,-0.264389 -0.270014,-0.58128 -0.37502,-0.95255 -0.105005,-0.369395 -0.157508,-0.75379 -0.157508,-1.155061 z m 3.307675,-0.300016 c 0.03,0.770666 0.153758,1.303194 0.367519,1.597585 0.215637,0.296266 0.521278,0.442523 0.915049,0.442523 0.345018,0 0.600031,-0.105005 0.76504,-0.315016 0.161259,-0.210012 0.240013,-0.481901 0.240013,-0.817544 0,-0.519403 -0.144383,-0.95255 -0.435023,-1.297569 -0.288765,-0.348768 -0.735039,-0.525027 -1.335071,-0.525027 h -0.555029 z m 2.370125,-3.68457 c -0.285015,0 -0.483775,-0.0675 -0.600031,-0.20251 -0.114382,-0.138758 -0.17251,-0.307517 -0.17251,-0.502527 0,-0.19876 0.05813,-0.369395 0.17251,-0.510027 0.116256,-0.144382 0.315016,-0.217511 0.600031,-0.217511 0.27564,0 0.476275,0.07313 0.600032,0.217511 0.123757,0.140632 0.18751,0.311267 0.18751,0.510027 0,0.19501 -0.06375,0.363769 -0.18751,0.502527 -0.123757,0.135006 -0.324392,0.20251 -0.600032,0.20251 z M 10.73528,58.908651 h 6.195327 v 0.83255 l -0.817543,0.150004 v 0.045 c 0.215636,0.131258 0.393771,0.300016 0.532528,0.51003 0.135007,0.206257 0.236263,0.431274 0.300016,0.675037 0.06375,0.245632 0.09751,0.502523 0.09751,0.77254 0,0.495022 -0.07875,0.911293 -0.232512,1.245064 -0.159384,0.335641 -0.405022,0.58878 -0.735039,0.757538 -0.330017,0.165014 -0.75754,0.247514 -1.282568,0.247514 H 10.73528 v -1.027555 h 3.990211 c 0.491276,0 0.86067,-0.108755 1.110058,-0.330014 0.245638,-0.225011 0.36752,-0.571909 0.36752,-1.042558 0,-0.459397 -0.08438,-0.821291 -0.255014,-1.087558 -0.174384,-0.264385 -0.429397,-0.451896 -0.76504,-0.562526 -0.333768,-0.11438 -0.74254,-0.172508 -1.222565,-0.172508 h -3.22517 z m 5.572794,-1.815091 c -0.285015,0 -0.483775,-0.0675 -0.600031,-0.202513 -0.114382,-0.13876 -0.17251,-0.307517 -0.17251,-0.502529 0,-0.198756 0.05813,-0.369389 0.17251,-0.510024 0.116256,-0.144385 0.315016,-0.217509 0.600031,-0.217509 0.27564,0 0.476275,0.07312 0.600032,0.217509 0.123757,0.140635 0.18751,0.311268 0.18751,0.510024 0,0.195012 -0.06375,0.363769 -0.18751,0.502529 -0.123757,0.135009 -0.324392,0.202513 -0.600032,0.202513 z M 13.76544,51.832027 c 0.615032,0 1.220689,0.05997 1.815096,0.18001 0.590656,0.120006 1.153186,0.305642 1.687589,0.555031 0.540029,0.251264 1.035055,0.570033 1.485079,0.960051 v 0.945048 c -0.485651,-0.354393 -1.001303,-0.648783 -1.545082,-0.885045 -0.540029,-0.240013 -1.102558,-0.420022 -1.687589,-0.540029 -0.585031,-0.123757 -1.173812,-0.187511 -1.770094,-0.187511 -0.609407,0 -1.209439,0.06375 -1.800095,0.187511 -0.594407,0.120007 -1.170062,0.300016 -1.725092,0.540029 -0.5550285,0.236262 -1.0688063,0.536278 -1.5450809,0.900047 v -0.96005 c 0.4612744,-0.390018 0.9656757,-0.708787 1.5150799,-0.960051 0.545654,-0.249389 1.117559,-0.435025 1.717591,-0.555031 0.600032,-0.120007 1.218814,-0.18001 1.852598,-0.18001 z m 0,0"
         style="fill:#000000;fill-opacity:1;fill-rule:nonzero;stroke:none;stroke-width:0.640534"
         aria-label="Intensity (a.u.)" />
    </g>
    <path
       id="path19"
       d="m 41.322967,23.9907 h -4.580969 v -8.189879 h 4.580969 v 0.90502 h -3.553044 v 2.558639 h 3.340755 v 0.893848 h -3.340755 v 2.927351 h 3.553044 z m 0,0"
       style="fill:#ff0000;fill-opacity:1;fill-rule:nonzero;stroke:none;stroke-width:0.952692"
       aria-label="E" />
    <path
       id="path20"
       d="m 44.655343,19.406937 h -0.636866 v -3.72064 c 0,-0.139664 0,-0.259775 0,-0.357539 0,-0.103352 0.0028,-0.19553 0.01117,-0.279328 0.0056,-0.08939 0.01117,-0.181563 0.01117,-0.279327 -0.07542,0.0838 -0.14525,0.150837 -0.212288,0.201115 -0.06704,0.05307 -0.150837,0.122905 -0.245809,0.212289 l -0.569828,0.458097 -0.346366,-0.435751 1.44133,-1.117309 h 0.547481 z m 5.497163,6.877041 h -3.519525 v -0.547482 l 1.396637,-1.40781 c 0.268154,-0.268154 0.491616,-0.505583 0.670386,-0.715078 0.184356,-0.206702 0.326813,-0.413405 0.424577,-0.61452 0.09497,-0.201116 0.145251,-0.418991 0.145251,-0.659213 0,-0.2905 -0.08938,-0.508376 -0.268155,-0.659213 -0.173183,-0.156423 -0.396645,-0.234635 -0.670385,-0.234635 -0.262568,0 -0.491617,0.04469 -0.692732,0.134078 -0.19553,0.08938 -0.391059,0.212288 -0.592174,0.368712 l -0.357539,-0.435751 c 0.139663,-0.117318 0.293293,-0.223462 0.458097,-0.312847 0.170389,-0.09497 0.351952,-0.170389 0.547481,-0.223462 0.201116,-0.05866 0.413405,-0.08939 0.636867,-0.08939 0.326813,0 0.608933,0.06145 0.849155,0.17877 0.245808,0.111731 0.430164,0.273741 0.558655,0.480443 0.134077,0.209496 0.201115,0.463684 0.201115,0.75977 0,0.276535 -0.06145,0.536309 -0.178769,0.782117 -0.111731,0.245809 -0.273741,0.488823 -0.480443,0.726252 -0.201116,0.231841 -0.435751,0.480443 -0.703905,0.748597 l -1.11731,1.094963 v 0.03352 h 2.692716 z m 2.446908,-4.067007 c 0.259775,0 0.494409,0.05028 0.703905,0.14525 0.215082,0.09777 0.396645,0.251395 0.547482,0.458097 h 0.03352 l 0.08939,-0.536308 h 0.525135 v 4.067006 c 0,0.379886 -0.06704,0.695526 -0.201115,0.949713 -0.128491,0.251395 -0.32402,0.441338 -0.592175,0.569828 -0.262568,0.134077 -0.592174,0.201116 -0.994405,0.201116 -0.2905,0 -0.558655,-0.02235 -0.804463,-0.06704 -0.240225,-0.03911 -0.452514,-0.100557 -0.63687,-0.189942 v -0.603347 c 0.184356,0.103351 0.405024,0.181563 0.659213,0.234635 0.251394,0.05028 0.525135,0.07821 0.815636,0.07821 0.340778,0 0.608933,-0.100558 0.804463,-0.301674 0.201115,-0.201116 0.301673,-0.474857 0.301673,-0.815636 v -0.156424 c 0,-0.05866 0,-0.14525 0,-0.256981 0.0056,-0.111731 0.01397,-0.189942 0.02235,-0.234635 h -0.03352 c -0.134077,0.201116 -0.307261,0.354746 -0.513962,0.458097 -0.209496,0.09497 -0.452511,0.14525 -0.726252,0.14525 -0.513962,0 -0.916194,-0.181562 -1.206694,-0.547481 -0.2905,-0.363126 -0.43575,-0.871502 -0.43575,-1.519541 0,-0.63128 0.14525,-1.134069 0.435751,-1.508368 0.2905,-0.379885 0.692731,-0.569828 1.206694,-0.569828 z m 0.08938,0.547482 c -0.223462,0 -0.413405,0.06145 -0.569828,0.178769 -0.156423,0.120111 -0.276535,0.296087 -0.357539,0.525136 -0.0838,0.231841 -0.122904,0.511169 -0.122904,0.837982 0,0.491616 0.08938,0.868708 0.268154,1.128483 0.178769,0.262567 0.441338,0.391058 0.79329,0.391058 0.201116,0 0.371505,-0.02514 0.513962,-0.07821 0.148043,-0.05028 0.270948,-0.134077 0.368713,-0.245808 0.09497,-0.111731 0.167596,-0.251395 0.212288,-0.424578 0.04469,-0.178769 0.06704,-0.385472 0.06704,-0.625693 v -0.156423 c 0,-0.363126 -0.0419,-0.659213 -0.122905,-0.882675 -0.08379,-0.223462 -0.212286,-0.385472 -0.391055,-0.491616 -0.173184,-0.103351 -0.391059,-0.156423 -0.659213,-0.156423 z m 0,0"
       style="fill:#ff0000;fill-opacity:1;fill-rule:nonzero;stroke:none;stroke-width:0.952692"
       aria-label="1&#10;2g" />
    <path
       id="path21"
       d="m 149.32127,25.087858 -0.98323,-2.536293 h -3.25137 l -0.97206,2.536293 h -1.05027 l 3.20668,-8.223399 h 0.92736 l 3.19551,8.223399 z M 147.109,19.166117 c -0.0223,-0.06704 -0.0642,-0.17877 -0.1229,-0.335193 -0.0531,-0.16201 -0.10615,-0.329606 -0.15643,-0.502789 -0.0447,-0.17039 -0.0838,-0.301674 -0.11173,-0.391059 -0.0391,0.150837 -0.0782,0.301674 -0.1229,0.458097 -0.0447,0.156424 -0.0894,0.301674 -0.13408,0.435751 -0.0391,0.128491 -0.0726,0.240222 -0.10056,0.335193 l -0.92737,2.469254 h 2.59216 z m 0,0"
       style="fill:#ff0000;fill-opacity:1;fill-rule:nonzero;stroke:none;stroke-width:0.952692"
       aria-label="A" />
    <path
       id="path22"
       d="m 153.0475,27.378342 h -0.63687 v -3.720641 c 0,-0.139664 0,-0.259774 0,-0.357539 0,-0.103351 0.003,-0.195529 0.0112,-0.279327 0.006,-0.08939 0.0112,-0.181563 0.0112,-0.279328 -0.0754,0.0838 -0.14525,0.150837 -0.21229,0.201116 -0.067,0.05307 -0.15084,0.122904 -0.24581,0.212289 l -0.56983,0.458097 -0.34636,-0.435751 1.44133,-1.11731 h 0.54748 z m 3.67595,-4.067007 c 0.25977,0 0.49441,0.05028 0.7039,0.14525 0.21508,0.09776 0.39665,0.251395 0.54748,0.458097 h 0.0335 l 0.0894,-0.536308 h 0.52513 v 4.067007 c 0,0.379885 -0.067,0.695525 -0.20111,0.949713 -0.12849,0.251394 -0.32402,0.441337 -0.59218,0.569828 -0.26256,0.134077 -0.59217,0.201115 -0.9944,0.201115 -0.2905,0 -0.55866,-0.02235 -0.80447,-0.06704 -0.24022,-0.0391 -0.45251,-0.100557 -0.63686,-0.189942 v -0.603347 c 0.18435,0.103351 0.40502,0.181563 0.65921,0.234635 0.2514,0.05028 0.52514,0.07821 0.81564,0.07821 0.34078,0 0.60893,-0.100558 0.80446,-0.301674 0.20112,-0.201116 0.30167,-0.474857 0.30167,-0.815636 v -0.15642 c 0,-0.05866 0,-0.145251 0,-0.256982 0.006,-0.11173 0.014,-0.189942 0.0223,-0.234635 h -0.0335 c -0.13408,0.201116 -0.30726,0.354746 -0.51396,0.458097 -0.2095,0.09497 -0.45251,0.145251 -0.72625,0.145251 -0.51397,0 -0.9162,-0.181563 -1.2067,-0.547482 -0.2905,-0.363126 -0.43575,-0.871502 -0.43575,-1.519541 0,-0.63128 0.14525,-1.134069 0.43575,-1.508368 0.2905,-0.379885 0.69273,-0.569828 1.2067,-0.569828 z m 0.0894,0.547482 c -0.22346,0 -0.4134,0.06145 -0.56983,0.178769 -0.15642,0.120111 -0.27653,0.296087 -0.35754,0.525136 -0.0838,0.231842 -0.1229,0.511169 -0.1229,0.837982 0,0.491616 0.0894,0.868708 0.26815,1.128483 0.17877,0.262567 0.44134,0.391058 0.79329,0.391058 0.20112,0 0.37151,-0.02514 0.51397,-0.07821 0.14804,-0.05028 0.27094,-0.134077 0.36871,-0.245808 0.095,-0.111731 0.1676,-0.251394 0.21229,-0.424577 0.0447,-0.17877 0.067,-0.385472 0.067,-0.625694 v -0.156423 c 0,-0.363126 -0.0419,-0.659213 -0.12291,-0.882675 -0.0838,-0.223462 -0.21229,-0.385471 -0.39106,-0.491616 -0.17318,-0.103351 -0.39105,-0.156423 -0.65921,-0.156423 z m 0,0"
       style="fill:#ff0000;fill-opacity:1;fill-rule:nonzero;stroke:none;stroke-width:0.952692"
       aria-label="1g" />
    <text
       xml:space="preserve"
       style="font-style:normal;font-variant:normal;font-weight:normal;font-stretch:normal;font-size:10.6667px;font-family:Arial;-inkscape-font-specification:Arial;text-align:start;writing-mode:lr-tb;direction:ltr;text-anchor:start;fill:#000000;stroke-width:1.88933;stroke-dasharray:5.66928, 1.88976"
       x="32.746613"
       y="229.7554"
       id="text24"><tspan
         sodipodi:role="line"
         id="tspan24"
         x="32.746613"
         y="229.7554">375</tspan></text>
    <text
       xml:space="preserve"
       style="font-style:normal;font-variant:normal;font-weight:normal;font-stretch:normal;font-size:10.6667px;font-family:Arial;-inkscape-font-specification:Arial;text-align:start;writing-mode:lr-tb;direction:ltr;text-anchor:start;fill:#000000;stroke-width:1.88933;stroke-dasharray:5.66928, 1.88976"
       x="94.760483"
       y="229.7554"
       id="text25"><tspan
         sodipodi:role="line"
         id="tspan25"
         x="94.760483"
         y="229.7554">390</tspan><tspan
         sodipodi:role="line"
         x="94.760483"
         y="243.08878"
         id="tspan26" /></text>
    <text
       xml:space="preserve"
       style="font-style:normal;font-variant:normal;font-weight:normal;font-stretch:normal;font-size:10.6667px;font-family:Arial;-inkscape-font-specification:Arial;text-align:start;writing-mode:lr-tb;direction:ltr;text-anchor:start;fill:#000000;stroke-width:1.88933;stroke-dasharray:5.66928, 1.88976"
       x="157.74332"
       y="229.758"
       id="text27"><tspan
         sodipodi:role="line"
         id="tspan27"
         x="157.74332"
         y="229.758">405</tspan></text>
    <text
       xml:space="preserve"
       style="font-style:normal;font-variant:normal;font-weight:normal;font-stretch:normal;font-size:10.6667px;font-family:Arial;-inkscape-font-specification:Arial;text-align:start;writing-mode:lr-tb;direction:ltr;text-anchor:start;fill:#000000;stroke-width:1.88933;stroke-dasharray:5.66928, 1.88976"
       x="220.24165"
       y="229.758"
       id="text28"><tspan
         sodipodi:role="line"
         id="tspan28"
         x="220.24165"
         y="229.758">420</tspan></text>
    <text
       xml:space="preserve"
       style="font-style:normal;font-variant:normal;font-weight:normal;font-stretch:normal;font-size:10.6667px;font-family:Arial;-inkscape-font-specification:Arial;text-align:start;writing-mode:lr-tb;direction:ltr;text-anchor:start;fill:#000000;stroke-width:1.88933;stroke-dasharray:5.66928, 1.88976"
       x="257.06238"
       y="55.219048"
       id="text29"><tspan
         sodipodi:role="line"
         id="tspan29"
         x="257.06238"
         y="55.219048">Bulk</tspan></text>
    <text
       xml:space="preserve"
       style="font-style:normal;font-variant:normal;font-weight:normal;font-stretch:normal;font-size:10.6667px;font-family:Arial;-inkscape-font-specification:Arial;text-align:start;writing-mode:lr-tb;direction:ltr;text-anchor:start;fill:#000000;stroke-width:1.88933;stroke-dasharray:5.66928, 1.88976"
       x="261.84103"
       y="127.46912"
       id="text30"><tspan
         sodipodi:role="line"
         id="tspan30"
         x="261.84103"
         y="127.46912">3L</tspan></text>
    <text
       xml:space="preserve"
       style="font-style:normal;font-variant:normal;font-weight:normal;font-stretch:normal;font-size:10.6667px;font-family:Arial;-inkscape-font-specification:Arial;text-align:start;writing-mode:lr-tb;direction:ltr;text-anchor:start;fill:#000000;stroke-width:1.88933;stroke-dasharray:5.66928, 1.88976"
       x="261.90875"
       y="160.41399"
       id="text31"><tspan
         sodipodi:role="line"
         id="tspan31"
         x="261.90875"
         y="160.41399">2L</tspan></text>
    <text
       xml:space="preserve"
       style="font-style:normal;font-variant:normal;font-weight:normal;font-stretch:normal;font-size:10.6667px;font-family:Arial;-inkscape-font-specification:Arial;text-align:start;writing-mode:lr-tb;direction:ltr;text-anchor:start;fill:#000000;stroke-width:1.88933;stroke-dasharray:5.66928, 1.88976"
       x="261.48425"
       y="206.56403"
       id="text32"><tspan
         sodipodi:role="line"
         id="tspan32"
         x="261.48425"
         y="206.56403">1L</tspan></text>
    <path
       style="fill:none;fill-opacity:1;stroke:#000000;stroke-width:1;stroke-dasharray:none;stroke-opacity:1;marker-end:url(#Triangle)"
       d="m 57.213018,26.578489 11.143116,2.906899"
       id="path32" />
    <path
       style="fill:none;fill-opacity:1;stroke:#000000;stroke-width:1;stroke-dasharray:none;stroke-opacity:1;marker-end:url(#Triangle-6)"
       d="m 161.44529,28.034275 11.14311,2.906899"
       id="path32-3" />
  </g>
</svg>
