<?xml version="1.0" encoding="utf-8" standalone="no"?>
<!DOCTYPE svg PUBLIC "-//W3C//DTD SVG 1.1//EN"
  "http://www.w3.org/Graphics/SVG/1.1/DTD/svg11.dtd">
<svg xmlns:xlink="http://www.w3.org/1999/xlink" width="1152pt" height="576pt" viewBox="0 0 1152 576" xmlns="http://www.w3.org/2000/svg" version="1.1">
 <metadata>
  <rdf:RDF xmlns:dc="http://purl.org/dc/elements/1.1/" xmlns:cc="http://creativecommons.org/ns#" xmlns:rdf="http://www.w3.org/1999/02/22-rdf-syntax-ns#">
   <cc:Work>
    <dc:type rdf:resource="http://purl.org/dc/dcmitype/StillImage"/>
    <dc:date>2025-09-11T12:30:37.642050</dc:date>
    <dc:format>image/svg+xml</dc:format>
    <dc:creator>
     <cc:Agent>
      <dc:title>Matplotlib v3.10.5, https://matplotlib.org/</dc:title>
     </cc:Agent>
    </dc:creator>
   </cc:Work>
  </rdf:RDF>
 </metadata>
 <defs>
  <style type="text/css">*{stroke-linejoin: round; stroke-linecap: butt}</style>
 </defs>
 <g id="figure_1">
  <g id="patch_1">
   <path d="M 0 576 
L 1152 576 
L 1152 0 
L 0 0 
z
" style="fill: #ffffff"/>
  </g>
  <g id="axes_1">
   <g id="patch_2">
    <path d="M 144 270.72 
L 1036.8 270.72 
L 1036.8 69.12 
L 144 69.12 
z
" style="fill: #ffffff"/>
   </g>
   <g id="matplotlib.axis_1"/>
   <g id="matplotlib.axis_2">
    <g id="ytick_1">
     <g id="line2d_1">
      <defs>
       <path id="m632909f15f" d="M 0 0 
L 3.5 0 
" style="stroke: #000000; stroke-width: 0.8"/>
      </defs>
      <g>
       <use xlink:href="#m632909f15f" x="144" y="244.576047" style="stroke: #000000; stroke-width: 0.8"/>
      </g>
     </g>
     <g id="text_1">
      <!-- −40 -->
      <g transform="translate(119.395313 248.375266) scale(0.1 -0.1)">
       <defs>
        <path id="DejaVuSans-2212" d="M 678 2272 
L 4684 2272 
L 4684 1741 
L 678 1741 
L 678 2272 
z
" transform="scale(0.015625)"/>
        <path id="DejaVuSans-34" d="M 2419 4116 
L 825 1625 
L 2419 1625 
L 2419 4116 
z
M 2253 4666 
L 3047 4666 
L 3047 1625 
L 3713 1625 
L 3713 1100 
L 3047 1100 
L 3047 0 
L 2419 0 
L 2419 1100 
L 313 1100 
L 313 1709 
L 2253 4666 
z
" transform="scale(0.015625)"/>
        <path id="DejaVuSans-30" d="M 2034 4250 
Q 1547 4250 1301 3770 
Q 1056 3291 1056 2328 
Q 1056 1369 1301 889 
Q 1547 409 2034 409 
Q 2525 409 2770 889 
Q 3016 1369 3016 2328 
Q 3016 3291 2770 3770 
Q 2525 4250 2034 4250 
z
M 2034 4750 
Q 2819 4750 3233 4129 
Q 3647 3509 3647 2328 
Q 3647 1150 3233 529 
Q 2819 -91 2034 -91 
Q 1250 -91 836 529 
Q 422 1150 422 2328 
Q 422 3509 836 4129 
Q 1250 4750 2034 4750 
z
" transform="scale(0.015625)"/>
       </defs>
       <use xlink:href="#DejaVuSans-2212"/>
       <use xlink:href="#DejaVuSans-34" transform="translate(83.789062 0)"/>
       <use xlink:href="#DejaVuSans-30" transform="translate(147.412109 0)"/>
      </g>
     </g>
    </g>
    <g id="ytick_2">
     <g id="line2d_2">
      <g>
       <use xlink:href="#m632909f15f" x="144" y="205.649684" style="stroke: #000000; stroke-width: 0.8"/>
      </g>
     </g>
     <g id="text_2">
      <!-- −20 -->
      <g transform="translate(119.395313 209.448902) scale(0.1 -0.1)">
       <defs>
        <path id="DejaVuSans-32" d="M 1228 531 
L 3431 531 
L 3431 0 
L 469 0 
L 469 531 
Q 828 903 1448 1529 
Q 2069 2156 2228 2338 
Q 2531 2678 2651 2914 
Q 2772 3150 2772 3378 
Q 2772 3750 2511 3984 
Q 2250 4219 1831 4219 
Q 1534 4219 1204 4116 
Q 875 4013 500 3803 
L 500 4441 
Q 881 4594 1212 4672 
Q 1544 4750 1819 4750 
Q 2544 4750 2975 4387 
Q 3406 4025 3406 3419 
Q 3406 3131 3298 2873 
Q 3191 2616 2906 2266 
Q 2828 2175 2409 1742 
Q 1991 1309 1228 531 
z
" transform="scale(0.015625)"/>
       </defs>
       <use xlink:href="#DejaVuSans-2212"/>
       <use xlink:href="#DejaVuSans-32" transform="translate(83.789062 0)"/>
       <use xlink:href="#DejaVuSans-30" transform="translate(147.412109 0)"/>
      </g>
     </g>
    </g>
    <g id="ytick_3">
     <g id="line2d_3">
      <g>
       <use xlink:href="#m632909f15f" x="144" y="166.72332" style="stroke: #000000; stroke-width: 0.8"/>
      </g>
     </g>
     <g id="text_3">
      <!-- 0 -->
      <g transform="translate(134.1375 170.522539) scale(0.1 -0.1)">
       <use xlink:href="#DejaVuSans-30"/>
      </g>
     </g>
    </g>
    <g id="ytick_4">
     <g id="line2d_4">
      <g>
       <use xlink:href="#m632909f15f" x="144" y="127.796957" style="stroke: #000000; stroke-width: 0.8"/>
      </g>
     </g>
     <g id="text_4">
      <!-- 20 -->
      <g transform="translate(127.775 131.596176) scale(0.1 -0.1)">
       <use xlink:href="#DejaVuSans-32"/>
       <use xlink:href="#DejaVuSans-30" transform="translate(63.623047 0)"/>
      </g>
     </g>
    </g>
    <g id="ytick_5">
     <g id="line2d_5">
      <g>
       <use xlink:href="#m632909f15f" x="144" y="88.870593" style="stroke: #000000; stroke-width: 0.8"/>
      </g>
     </g>
     <g id="text_5">
      <!-- 40 -->
      <g transform="translate(127.775 92.669812) scale(0.1 -0.1)">
       <use xlink:href="#DejaVuSans-34"/>
       <use xlink:href="#DejaVuSans-30" transform="translate(63.623047 0)"/>
      </g>
     </g>
    </g>
    <g id="text_6">
     <!-- $ j_{CEP} $ (pA) -->
     <g transform="translate(111.615313 206.64) rotate(-90) scale(0.18 -0.18)">
      <defs>
       <path id="DejaVuSans-Oblique-6a" d="M 928 3500 
L 1503 3500 
L 813 -63 
L 809 -78 
Q 694 -675 544 -897 
Q 403 -1106 132 -1218 
Q -138 -1331 -506 -1331 
L -722 -1331 
L -628 -844 
L -481 -844 
Q -144 -844 -1 -703 
Q 141 -563 238 -63 
L 928 3500 
z
M 1197 4863 
L 1772 4863 
L 1631 4134 
L 1056 4134 
L 1197 4863 
z
" transform="scale(0.015625)"/>
       <path id="DejaVuSans-Oblique-43" d="M 4447 4306 
L 4319 3641 
Q 4019 3944 3683 4091 
Q 3347 4238 2956 4238 
Q 2422 4238 2017 3981 
Q 1613 3725 1319 3200 
Q 1131 2863 1032 2486 
Q 934 2109 934 1728 
Q 934 1091 1264 756 
Q 1594 422 2222 422 
Q 2656 422 3056 561 
Q 3456 700 3834 978 
L 3688 231 
Q 3316 72 2936 -9 
Q 2556 -91 2175 -91 
Q 1278 -91 773 396 
Q 269 884 269 1753 
Q 269 2309 461 2846 
Q 653 3384 1013 3828 
Q 1394 4300 1883 4525 
Q 2372 4750 3022 4750 
Q 3422 4750 3780 4639 
Q 4138 4528 4447 4306 
z
" transform="scale(0.015625)"/>
       <path id="DejaVuSans-Oblique-45" d="M 1081 4666 
L 4031 4666 
L 3928 4134 
L 1606 4134 
L 1338 2753 
L 3566 2753 
L 3463 2222 
L 1234 2222 
L 909 531 
L 3284 531 
L 3181 0 
L 172 0 
L 1081 4666 
z
" transform="scale(0.015625)"/>
       <path id="DejaVuSans-Oblique-50" d="M 1081 4666 
L 2541 4666 
Q 3178 4666 3512 4369 
Q 3847 4072 3847 3500 
Q 3847 2731 3353 2303 
Q 2859 1875 1966 1875 
L 1172 1875 
L 806 0 
L 172 0 
L 1081 4666 
z
M 1613 4147 
L 1275 2394 
L 2069 2394 
Q 2606 2394 2893 2669 
Q 3181 2944 3181 3456 
Q 3181 3784 2986 3965 
Q 2791 4147 2438 4147 
L 1613 4147 
z
" transform="scale(0.015625)"/>
       <path id="DejaVuSans-20" transform="scale(0.015625)"/>
       <path id="DejaVuSans-28" d="M 1984 4856 
Q 1566 4138 1362 3434 
Q 1159 2731 1159 2009 
Q 1159 1288 1364 580 
Q 1569 -128 1984 -844 
L 1484 -844 
Q 1016 -109 783 600 
Q 550 1309 550 2009 
Q 550 2706 781 3412 
Q 1013 4119 1484 4856 
L 1984 4856 
z
" transform="scale(0.015625)"/>
       <path id="DejaVuSans-70" d="M 1159 525 
L 1159 -1331 
L 581 -1331 
L 581 3500 
L 1159 3500 
L 1159 2969 
Q 1341 3281 1617 3432 
Q 1894 3584 2278 3584 
Q 2916 3584 3314 3078 
Q 3713 2572 3713 1747 
Q 3713 922 3314 415 
Q 2916 -91 2278 -91 
Q 1894 -91 1617 61 
Q 1341 213 1159 525 
z
M 3116 1747 
Q 3116 2381 2855 2742 
Q 2594 3103 2138 3103 
Q 1681 3103 1420 2742 
Q 1159 2381 1159 1747 
Q 1159 1113 1420 752 
Q 1681 391 2138 391 
Q 2594 391 2855 752 
Q 3116 1113 3116 1747 
z
" transform="scale(0.015625)"/>
       <path id="DejaVuSans-41" d="M 2188 4044 
L 1331 1722 
L 3047 1722 
L 2188 4044 
z
M 1831 4666 
L 2547 4666 
L 4325 0 
L 3669 0 
L 3244 1197 
L 1141 1197 
L 716 0 
L 50 0 
L 1831 4666 
z
" transform="scale(0.015625)"/>
       <path id="DejaVuSans-29" d="M 513 4856 
L 1013 4856 
Q 1481 4119 1714 3412 
Q 1947 2706 1947 2009 
Q 1947 1309 1714 600 
Q 1481 -109 1013 -844 
L 513 -844 
Q 928 -128 1133 580 
Q 1338 1288 1338 2009 
Q 1338 2731 1133 3434 
Q 928 4138 513 4856 
z
" transform="scale(0.015625)"/>
      </defs>
      <use xlink:href="#DejaVuSans-Oblique-6a" transform="translate(0 0.015625)"/>
      <use xlink:href="#DejaVuSans-Oblique-43" transform="translate(27.783203 -16.390625) scale(0.7)"/>
      <use xlink:href="#DejaVuSans-Oblique-45" transform="translate(76.660156 -16.390625) scale(0.7)"/>
      <use xlink:href="#DejaVuSans-Oblique-50" transform="translate(120.888672 -16.390625) scale(0.7)"/>
      <use xlink:href="#DejaVuSans-20" transform="translate(165.834961 0.015625)"/>
      <use xlink:href="#DejaVuSans-28" transform="translate(197.62207 0.015625)"/>
      <use xlink:href="#DejaVuSans-70" transform="translate(236.635742 0.015625)"/>
      <use xlink:href="#DejaVuSans-41" transform="translate(300.112305 0.015625)"/>
      <use xlink:href="#DejaVuSans-29" transform="translate(368.520508 0.015625)"/>
     </g>
    </g>
   </g>
   <g id="line2d_6">
    <path d="M 144 140.861146 
L 149.362162 156.214778 
L 159.192793 184.553247 
L 163.661261 196.631813 
L 167.236036 205.59061 
L 169.917117 211.789506 
L 172.598198 217.471012 
L 175.279279 222.576886 
L 177.96036 227.055173 
L 179.747748 229.66945 
L 181.535135 231.972988 
L 183.322523 233.955679 
L 185.10991 235.608947 
L 186.897297 236.925786 
L 188.684685 237.90079 
L 190.472072 238.530174 
L 192.259459 238.811788 
L 194.046847 238.745124 
L 195.834234 238.331314 
L 197.621622 237.57312 
L 199.409009 236.47492 
L 201.196396 235.042681 
L 202.983784 233.283926 
L 204.771171 231.2077 
L 206.558559 228.824517 
L 208.345946 226.146312 
L 211.027027 221.605273 
L 213.708108 216.480896 
L 216.389189 210.829413 
L 219.07027 204.712424 
L 222.645045 195.947489 
L 227.113514 184.25048 
L 234.263063 164.648659 
L 240.518919 147.611306 
L 244.987387 136.076296 
L 248.562162 127.48761 
L 251.243243 121.523686 
L 253.924324 116.037646 
L 256.605405 111.085464 
L 259.286486 106.717242 
L 261.073874 104.151383 
L 262.861261 101.875924 
L 264.648649 99.900754 
L 266.436036 98.234325 
L 268.223423 96.883611 
L 270.010811 95.854083 
L 271.798198 95.149683 
L 273.585586 94.772814 
L 275.372973 94.724332 
L 277.16036 95.003543 
L 278.947748 95.608215 
L 280.735135 96.534589 
L 282.522523 97.777404 
L 284.30991 99.329925 
L 286.097297 101.183978 
L 287.884685 103.329996 
L 289.672072 105.757062 
L 292.353153 109.897587 
L 295.034234 114.596404 
L 297.715315 119.801497 
L 300.396396 125.455723 
L 303.971171 133.586238 
L 308.43964 144.478375 
L 314.695495 160.502607 
L 322.738739 181.072249 
L 327.207207 191.829794 
L 330.781982 199.819017 
L 333.463063 205.354172 
L 336.144144 210.434574 
L 338.825225 215.008759 
L 341.506306 219.030859 
L 343.293694 221.385621 
L 345.081081 223.466965 
L 346.868468 225.26599 
L 348.655856 226.775153 
L 350.443243 227.988299 
L 352.230631 228.900684 
L 354.018018 229.508996 
L 355.805405 229.811365 
L 357.592793 229.807364 
L 359.38018 229.498012 
L 361.167568 228.885759 
L 362.954955 227.974474 
L 364.742342 226.769417 
L 366.52973 225.277218 
L 368.317117 223.505831 
L 370.104505 221.464501 
L 371.891892 219.163711 
L 374.572973 215.251872 
L 377.254054 210.826835 
L 379.935135 205.937873 
L 382.616216 200.638913 
L 386.190991 193.036596 
L 390.659459 182.878411 
L 396.915315 167.980459 
L 404.064865 150.992644 
L 408.533333 140.933167 
L 412.108108 133.433876 
L 414.789189 128.22001 
L 417.47027 123.417455 
L 420.151351 119.07466 
L 422.832432 115.234954 
L 424.61982 112.973538 
L 426.407207 110.962372 
L 428.194595 109.209987 
L 429.981982 107.723665 
L 431.769369 106.50941 
L 433.556757 105.571924 
L 435.344144 104.914589 
L 437.131532 104.539459 
L 438.918919 104.447248 
L 440.706306 104.637341 
L 442.493694 105.107794 
L 444.281081 105.855353 
L 446.068468 106.875471 
L 447.855856 108.162337 
L 449.643243 109.708906 
L 451.430631 111.506937 
L 453.218018 113.547039 
L 455.899099 117.037826 
L 458.58018 121.009622 
L 461.261261 125.417779 
L 463.942342 130.213294 
L 467.517117 137.118105 
L 471.985586 146.380275 
L 478.241441 160.024943 
L 486.284685 177.567471 
L 490.753153 186.755821 
L 494.327928 193.588244 
L 497.009009 198.327898 
L 499.69009 202.684182 
L 502.371171 206.613474 
L 505.052252 210.076928 
L 506.83964 212.110242 
L 508.627027 213.912795 
L 510.414414 215.477071 
L 512.201802 216.796703 
L 513.989189 217.866505 
L 515.776577 218.682485 
L 517.563964 219.241863 
L 519.351351 219.543076 
L 521.138739 219.585784 
L 522.926126 219.370863 
L 524.713514 218.900399 
L 526.500901 218.17767 
L 528.288288 217.207128 
L 530.075676 215.994373 
L 531.863063 214.546118 
L 533.65045 212.870159 
L 536.331532 209.948868 
L 539.012613 206.569293 
L 541.693694 202.770004 
L 544.374775 198.593761 
L 547.94955 192.519854 
L 551.524324 185.97752 
L 555.992793 177.334125 
L 571.185586 147.45253 
L 574.76036 141.059147 
L 578.335135 135.163059 
L 581.016216 131.131491 
L 583.697297 127.479699 
L 586.378378 124.243627 
L 589.059459 121.454583 
L 590.846847 119.856802 
L 592.634234 118.47607 
L 594.421622 117.317878 
L 596.209009 116.386646 
L 597.996396 115.685704 
L 599.783784 115.217286 
L 601.571171 114.982521 
L 603.358559 114.981432 
L 605.145946 115.212945 
L 606.933333 115.674895 
L 608.720721 116.364043 
L 610.508108 117.276097 
L 612.295495 118.405736 
L 614.082883 119.746639 
L 615.87027 121.291523 
L 618.551351 123.97311 
L 621.232432 127.063593 
L 623.913514 130.527488 
L 626.594595 134.325621 
L 630.169369 139.835975 
L 633.744144 145.756737 
L 639.106306 155.155198 
L 651.618018 177.394278 
L 655.192793 183.292928 
L 658.767568 188.785242 
L 661.448649 192.578027 
L 664.12973 196.048588 
L 666.810811 199.162721 
L 669.491892 201.890244 
L 672.172973 204.205286 
L 673.96036 205.508769 
L 675.747748 206.614202 
L 677.535135 207.517389 
L 679.322523 208.215109 
L 681.10991 208.705123 
L 682.897297 208.98618 
L 684.684685 209.058019 
L 686.472072 208.921364 
L 688.259459 208.577917 
L 690.046847 208.030343 
L 691.834234 207.282255 
L 693.621622 206.33819 
L 695.409009 205.203584 
L 698.09009 203.158433 
L 700.771171 200.723706 
L 703.452252 197.928087 
L 706.133333 194.803852 
L 708.814414 191.386497 
L 712.389189 186.440645 
L 716.857658 179.770425 
L 723.113514 169.885548 
L 732.05045 155.705245 
L 736.518919 149.043558 
L 740.093694 144.096462 
L 743.668468 139.585891 
L 746.34955 136.537747 
L 749.030631 133.809966 
L 751.711712 131.428703 
L 754.392793 129.416242 
L 757.073874 127.790784 
L 758.861261 126.929223 
L 760.648649 126.249028 
L 762.436036 125.752394 
L 764.223423 125.440644 
L 766.010811 125.314222 
L 767.798198 125.372696 
L 769.585586 125.61477 
L 771.372973 126.038288 
L 773.16036 126.640255 
L 774.947748 127.416852 
L 776.735135 128.363458 
L 779.416216 130.090135 
L 782.097297 132.165716 
L 784.778378 134.565385 
L 787.459459 137.26111 
L 790.140541 140.221969 
L 793.715315 144.524052 
L 798.183784 150.350284 
L 803.545946 157.764705 
L 814.27027 172.753432 
L 818.738739 178.587155 
L 822.313514 182.908278 
L 825.888288 186.837903 
L 828.569369 189.486392 
L 831.25045 191.850053 
L 833.931532 193.906477 
L 836.612613 195.636695 
L 839.293694 197.025357 
L 841.974775 198.060853 
L 843.762162 198.550983 
L 845.54955 198.87927 
L 847.336937 199.045138 
L 849.124324 199.04878 
L 850.911712 198.891149 
L 852.699099 198.573952 
L 854.486486 198.099636 
L 857.167568 197.100696 
L 859.848649 195.769199 
L 862.52973 194.12219 
L 865.210811 192.179897 
L 867.891892 189.96548 
L 870.572973 187.504768 
L 874.147748 183.889722 
L 877.722523 179.959505 
L 882.190991 174.721728 
L 891.127928 163.769452 
L 897.383784 156.287784 
L 901.852252 151.310049 
L 905.427027 147.656688 
L 909.001802 144.366029 
L 911.682883 142.170642 
L 914.363964 140.232403 
L 917.045045 138.569302 
L 919.726126 137.196253 
L 922.407207 136.124962 
L 925.088288 135.363837 
L 927.769369 134.917928 
L 930.45045 134.788905 
L 933.131532 134.975077 
L 935.812613 135.471438 
L 938.493694 136.269751 
L 941.174775 137.358674 
L 943.855856 138.7239 
L 946.536937 140.348344 
L 949.218018 142.21235 
L 952.792793 145.032018 
L 956.367568 148.180455 
L 960.836036 152.481673 
L 966.198198 158.003974 
L 979.603604 172.015908 
L 984.072072 176.280563 
L 987.646847 179.402176 
L 991.221622 182.206114 
L 993.902703 184.071357 
L 996.583784 185.713102 
L 999.264865 187.116317 
L 1001.945946 188.268642 
L 1004.627027 189.160494 
L 1007.308108 189.78514 
L 1009.989189 190.13874 
L 1012.67027 190.220354 
L 1015.351351 190.031928 
L 1018.032432 189.578239 
L 1020.713514 188.866817 
L 1023.394595 187.907838 
L 1026.075676 186.713986 
L 1028.756757 185.300296 
L 1032.331532 183.103421 
L 1035.906306 180.592616 
L 1036.8 179.921778 
L 1036.8 179.921778 
" clip-path="url(#p773d32c5bf)" style="fill: none; stroke-dasharray: 9.6,2.4,1.5,2.4; stroke-dashoffset: 0; stroke: #ff0000; stroke-width: 1.5"/>
   </g>
   <g id="line2d_7">
    <path d="M 149.603593 83.775365 
L 166.483683 126.397813 
L 166.483683 187.891256 
L 183.363772 245.72371 
L 183.363772 255.082839 
L 200.243862 223.451884 
L 200.243862 213.558008 
L 217.123952 213.120103 
L 217.123952 157.704608 
L 234.004042 127.526887 
L 234.004042 113.200209 
L 250.884132 116.846256 
L 250.884132 123.732394 
L 267.764221 91.690285 
L 267.764221 84.851802 
L 284.644311 79.742645 
L 284.644311 89.484351 
L 301.524401 140.992884 
L 301.524401 167.239074 
L 318.404491 196.220615 
L 318.404491 220.274927 
L 335.284581 239.299504 
L 335.284581 261.556364 
L 352.164671 258.486761 
L 352.164671 243.726266 
L 369.04476 249.967129 
L 369.04476 249.102192 
L 385.92485 239.668472 
L 385.92485 204.049862 
L 402.80494 130.080909 
L 402.80494 135.050601 
L 419.68503 120.571836 
L 419.68503 100.260119 
L 436.56512 78.283636 
L 436.56512 110.550096 
L 453.445209 118.470612 
L 453.445209 114.690071 
L 470.325299 138.680647 
L 470.325299 140.202381 
L 487.205389 123.12311 
L 487.205389 136.138455 
L 504.085479 171.925475 
L 504.085479 158.233447 
L 520.965569 153.651681 
L 520.965569 167.371973 
L 537.845659 209.665396 
L 537.845659 247.280653 
L 554.725748 229.842176 
L 554.725748 217.121498 
L 571.605838 178.56399 
L 571.605838 168.832089 
L 588.485928 178.237853 
L 588.485928 144.741546 
L 605.366018 144.312811 
L 605.366018 128.135798 
L 622.246108 130.887447 
L 622.246108 140.99856 
L 639.126197 155.89708 
L 639.126197 177.233159 
L 656.006287 184.454618 
L 656.006287 207.810387 
L 672.886377 236.107611 
L 672.886377 242.30975 
L 689.766467 209.418422 
L 689.766467 193.228374 
L 706.646557 180.639247 
L 706.646557 160.781258 
L 723.526647 154.818459 
L 723.526647 151.197206 
L 740.406736 133.967732 
L 740.406736 133.587104 
L 757.286826 101.005623 
L 757.286826 91.858755 
L 774.166916 116.393211 
L 774.166916 127.309829 
L 791.047006 130.470393 
L 791.047006 145.043196 
L 807.927096 146.512997 
L 807.927096 189.453329 
L 824.807185 197.950701 
L 824.807185 162.858286 
L 841.687275 186.326055 
L 841.687275 234.456745 
L 858.567365 242.255926 
L 858.567365 231.337871 
L 875.447455 219.155823 
L 875.447455 171.962032 
L 892.327545 157.249421 
L 892.327545 153.107533 
L 909.207634 136.416235 
L 909.207634 141.199353 
L 926.087724 167.718625 
L 926.087724 124.743633 
L 942.967814 127.54713 
L 942.967814 157.858162 
L 959.847904 165.288183 
L 959.847904 175.460294 
L 976.727994 166.698224 
L 976.727994 184.337828 
L 993.608084 179.618331 
L 993.608084 169.074527 
L 1010.488173 163.390682 
" clip-path="url(#p773d32c5bf)" style="fill: none; stroke: #808080; stroke-width: 1.5; stroke-linecap: square"/>
    <defs>
     <path id="mfd008d7953" d="M 0 4.242641 
L 2.545584 0 
L 0 -4.242641 
L -2.545584 0 
z
" style="stroke: #808080; stroke-linejoin: miter"/>
    </defs>
    <g clip-path="url(#p773d32c5bf)">
     <use xlink:href="#mfd008d7953" x="149.603593" y="83.775365" style="fill: #808080; stroke: #808080; stroke-linejoin: miter"/>
     <use xlink:href="#mfd008d7953" x="166.483683" y="126.397813" style="fill: #808080; stroke: #808080; stroke-linejoin: miter"/>
     <use xlink:href="#mfd008d7953" x="166.483683" y="187.891256" style="fill: #808080; stroke: #808080; stroke-linejoin: miter"/>
     <use xlink:href="#mfd008d7953" x="183.363772" y="245.72371" style="fill: #808080; stroke: #808080; stroke-linejoin: miter"/>
     <use xlink:href="#mfd008d7953" x="183.363772" y="255.082839" style="fill: #808080; stroke: #808080; stroke-linejoin: miter"/>
     <use xlink:href="#mfd008d7953" x="200.243862" y="223.451884" style="fill: #808080; stroke: #808080; stroke-linejoin: miter"/>
     <use xlink:href="#mfd008d7953" x="200.243862" y="213.558008" style="fill: #808080; stroke: #808080; stroke-linejoin: miter"/>
     <use xlink:href="#mfd008d7953" x="217.123952" y="213.120103" style="fill: #808080; stroke: #808080; stroke-linejoin: miter"/>
     <use xlink:href="#mfd008d7953" x="217.123952" y="157.704608" style="fill: #808080; stroke: #808080; stroke-linejoin: miter"/>
     <use xlink:href="#mfd008d7953" x="234.004042" y="127.526887" style="fill: #808080; stroke: #808080; stroke-linejoin: miter"/>
     <use xlink:href="#mfd008d7953" x="234.004042" y="113.200209" style="fill: #808080; stroke: #808080; stroke-linejoin: miter"/>
     <use xlink:href="#mfd008d7953" x="250.884132" y="116.846256" style="fill: #808080; stroke: #808080; stroke-linejoin: miter"/>
     <use xlink:href="#mfd008d7953" x="250.884132" y="123.732394" style="fill: #808080; stroke: #808080; stroke-linejoin: miter"/>
     <use xlink:href="#mfd008d7953" x="267.764221" y="91.690285" style="fill: #808080; stroke: #808080; stroke-linejoin: miter"/>
     <use xlink:href="#mfd008d7953" x="267.764221" y="84.851802" style="fill: #808080; stroke: #808080; stroke-linejoin: miter"/>
     <use xlink:href="#mfd008d7953" x="284.644311" y="79.742645" style="fill: #808080; stroke: #808080; stroke-linejoin: miter"/>
     <use xlink:href="#mfd008d7953" x="284.644311" y="89.484351" style="fill: #808080; stroke: #808080; stroke-linejoin: miter"/>
     <use xlink:href="#mfd008d7953" x="301.524401" y="140.992884" style="fill: #808080; stroke: #808080; stroke-linejoin: miter"/>
     <use xlink:href="#mfd008d7953" x="301.524401" y="167.239074" style="fill: #808080; stroke: #808080; stroke-linejoin: miter"/>
     <use xlink:href="#mfd008d7953" x="318.404491" y="196.220615" style="fill: #808080; stroke: #808080; stroke-linejoin: miter"/>
     <use xlink:href="#mfd008d7953" x="318.404491" y="220.274927" style="fill: #808080; stroke: #808080; stroke-linejoin: miter"/>
     <use xlink:href="#mfd008d7953" x="335.284581" y="239.299504" style="fill: #808080; stroke: #808080; stroke-linejoin: miter"/>
     <use xlink:href="#mfd008d7953" x="335.284581" y="261.556364" style="fill: #808080; stroke: #808080; stroke-linejoin: miter"/>
     <use xlink:href="#mfd008d7953" x="352.164671" y="258.486761" style="fill: #808080; stroke: #808080; stroke-linejoin: miter"/>
     <use xlink:href="#mfd008d7953" x="352.164671" y="243.726266" style="fill: #808080; stroke: #808080; stroke-linejoin: miter"/>
     <use xlink:href="#mfd008d7953" x="369.04476" y="249.967129" style="fill: #808080; stroke: #808080; stroke-linejoin: miter"/>
     <use xlink:href="#mfd008d7953" x="369.04476" y="249.102192" style="fill: #808080; stroke: #808080; stroke-linejoin: miter"/>
     <use xlink:href="#mfd008d7953" x="385.92485" y="239.668472" style="fill: #808080; stroke: #808080; stroke-linejoin: miter"/>
     <use xlink:href="#mfd008d7953" x="385.92485" y="204.049862" style="fill: #808080; stroke: #808080; stroke-linejoin: miter"/>
     <use xlink:href="#mfd008d7953" x="402.80494" y="130.080909" style="fill: #808080; stroke: #808080; stroke-linejoin: miter"/>
     <use xlink:href="#mfd008d7953" x="402.80494" y="135.050601" style="fill: #808080; stroke: #808080; stroke-linejoin: miter"/>
     <use xlink:href="#mfd008d7953" x="419.68503" y="120.571836" style="fill: #808080; stroke: #808080; stroke-linejoin: miter"/>
     <use xlink:href="#mfd008d7953" x="419.68503" y="100.260119" style="fill: #808080; stroke: #808080; stroke-linejoin: miter"/>
     <use xlink:href="#mfd008d7953" x="436.56512" y="78.283636" style="fill: #808080; stroke: #808080; stroke-linejoin: miter"/>
     <use xlink:href="#mfd008d7953" x="436.56512" y="110.550096" style="fill: #808080; stroke: #808080; stroke-linejoin: miter"/>
     <use xlink:href="#mfd008d7953" x="453.445209" y="118.470612" style="fill: #808080; stroke: #808080; stroke-linejoin: miter"/>
     <use xlink:href="#mfd008d7953" x="453.445209" y="114.690071" style="fill: #808080; stroke: #808080; stroke-linejoin: miter"/>
     <use xlink:href="#mfd008d7953" x="470.325299" y="138.680647" style="fill: #808080; stroke: #808080; stroke-linejoin: miter"/>
     <use xlink:href="#mfd008d7953" x="470.325299" y="140.202381" style="fill: #808080; stroke: #808080; stroke-linejoin: miter"/>
     <use xlink:href="#mfd008d7953" x="487.205389" y="123.12311" style="fill: #808080; stroke: #808080; stroke-linejoin: miter"/>
     <use xlink:href="#mfd008d7953" x="487.205389" y="136.138455" style="fill: #808080; stroke: #808080; stroke-linejoin: miter"/>
     <use xlink:href="#mfd008d7953" x="504.085479" y="171.925475" style="fill: #808080; stroke: #808080; stroke-linejoin: miter"/>
     <use xlink:href="#mfd008d7953" x="504.085479" y="158.233447" style="fill: #808080; stroke: #808080; stroke-linejoin: miter"/>
     <use xlink:href="#mfd008d7953" x="520.965569" y="153.651681" style="fill: #808080; stroke: #808080; stroke-linejoin: miter"/>
     <use xlink:href="#mfd008d7953" x="520.965569" y="167.371973" style="fill: #808080; stroke: #808080; stroke-linejoin: miter"/>
     <use xlink:href="#mfd008d7953" x="537.845659" y="209.665396" style="fill: #808080; stroke: #808080; stroke-linejoin: miter"/>
     <use xlink:href="#mfd008d7953" x="537.845659" y="247.280653" style="fill: #808080; stroke: #808080; stroke-linejoin: miter"/>
     <use xlink:href="#mfd008d7953" x="554.725748" y="229.842176" style="fill: #808080; stroke: #808080; stroke-linejoin: miter"/>
     <use xlink:href="#mfd008d7953" x="554.725748" y="217.121498" style="fill: #808080; stroke: #808080; stroke-linejoin: miter"/>
     <use xlink:href="#mfd008d7953" x="571.605838" y="178.56399" style="fill: #808080; stroke: #808080; stroke-linejoin: miter"/>
     <use xlink:href="#mfd008d7953" x="571.605838" y="168.832089" style="fill: #808080; stroke: #808080; stroke-linejoin: miter"/>
     <use xlink:href="#mfd008d7953" x="588.485928" y="178.237853" style="fill: #808080; stroke: #808080; stroke-linejoin: miter"/>
     <use xlink:href="#mfd008d7953" x="588.485928" y="144.741546" style="fill: #808080; stroke: #808080; stroke-linejoin: miter"/>
     <use xlink:href="#mfd008d7953" x="605.366018" y="144.312811" style="fill: #808080; stroke: #808080; stroke-linejoin: miter"/>
     <use xlink:href="#mfd008d7953" x="605.366018" y="128.135798" style="fill: #808080; stroke: #808080; stroke-linejoin: miter"/>
     <use xlink:href="#mfd008d7953" x="622.246108" y="130.887447" style="fill: #808080; stroke: #808080; stroke-linejoin: miter"/>
     <use xlink:href="#mfd008d7953" x="622.246108" y="140.99856" style="fill: #808080; stroke: #808080; stroke-linejoin: miter"/>
     <use xlink:href="#mfd008d7953" x="639.126197" y="155.89708" style="fill: #808080; stroke: #808080; stroke-linejoin: miter"/>
     <use xlink:href="#mfd008d7953" x="639.126197" y="177.233159" style="fill: #808080; stroke: #808080; stroke-linejoin: miter"/>
     <use xlink:href="#mfd008d7953" x="656.006287" y="184.454618" style="fill: #808080; stroke: #808080; stroke-linejoin: miter"/>
     <use xlink:href="#mfd008d7953" x="656.006287" y="207.810387" style="fill: #808080; stroke: #808080; stroke-linejoin: miter"/>
     <use xlink:href="#mfd008d7953" x="672.886377" y="236.107611" style="fill: #808080; stroke: #808080; stroke-linejoin: miter"/>
     <use xlink:href="#mfd008d7953" x="672.886377" y="242.30975" style="fill: #808080; stroke: #808080; stroke-linejoin: miter"/>
     <use xlink:href="#mfd008d7953" x="689.766467" y="209.418422" style="fill: #808080; stroke: #808080; stroke-linejoin: miter"/>
     <use xlink:href="#mfd008d7953" x="689.766467" y="193.228374" style="fill: #808080; stroke: #808080; stroke-linejoin: miter"/>
     <use xlink:href="#mfd008d7953" x="706.646557" y="180.639247" style="fill: #808080; stroke: #808080; stroke-linejoin: miter"/>
     <use xlink:href="#mfd008d7953" x="706.646557" y="160.781258" style="fill: #808080; stroke: #808080; stroke-linejoin: miter"/>
     <use xlink:href="#mfd008d7953" x="723.526647" y="154.818459" style="fill: #808080; stroke: #808080; stroke-linejoin: miter"/>
     <use xlink:href="#mfd008d7953" x="723.526647" y="151.197206" style="fill: #808080; stroke: #808080; stroke-linejoin: miter"/>
     <use xlink:href="#mfd008d7953" x="740.406736" y="133.967732" style="fill: #808080; stroke: #808080; stroke-linejoin: miter"/>
     <use xlink:href="#mfd008d7953" x="740.406736" y="133.587104" style="fill: #808080; stroke: #808080; stroke-linejoin: miter"/>
     <use xlink:href="#mfd008d7953" x="757.286826" y="101.005623" style="fill: #808080; stroke: #808080; stroke-linejoin: miter"/>
     <use xlink:href="#mfd008d7953" x="757.286826" y="91.858755" style="fill: #808080; stroke: #808080; stroke-linejoin: miter"/>
     <use xlink:href="#mfd008d7953" x="774.166916" y="116.393211" style="fill: #808080; stroke: #808080; stroke-linejoin: miter"/>
     <use xlink:href="#mfd008d7953" x="774.166916" y="127.309829" style="fill: #808080; stroke: #808080; stroke-linejoin: miter"/>
     <use xlink:href="#mfd008d7953" x="791.047006" y="130.470393" style="fill: #808080; stroke: #808080; stroke-linejoin: miter"/>
     <use xlink:href="#mfd008d7953" x="791.047006" y="145.043196" style="fill: #808080; stroke: #808080; stroke-linejoin: miter"/>
     <use xlink:href="#mfd008d7953" x="807.927096" y="146.512997" style="fill: #808080; stroke: #808080; stroke-linejoin: miter"/>
     <use xlink:href="#mfd008d7953" x="807.927096" y="189.453329" style="fill: #808080; stroke: #808080; stroke-linejoin: miter"/>
     <use xlink:href="#mfd008d7953" x="824.807185" y="197.950701" style="fill: #808080; stroke: #808080; stroke-linejoin: miter"/>
     <use xlink:href="#mfd008d7953" x="824.807185" y="162.858286" style="fill: #808080; stroke: #808080; stroke-linejoin: miter"/>
     <use xlink:href="#mfd008d7953" x="841.687275" y="186.326055" style="fill: #808080; stroke: #808080; stroke-linejoin: miter"/>
     <use xlink:href="#mfd008d7953" x="841.687275" y="234.456745" style="fill: #808080; stroke: #808080; stroke-linejoin: miter"/>
     <use xlink:href="#mfd008d7953" x="858.567365" y="242.255926" style="fill: #808080; stroke: #808080; stroke-linejoin: miter"/>
     <use xlink:href="#mfd008d7953" x="858.567365" y="231.337871" style="fill: #808080; stroke: #808080; stroke-linejoin: miter"/>
     <use xlink:href="#mfd008d7953" x="875.447455" y="219.155823" style="fill: #808080; stroke: #808080; stroke-linejoin: miter"/>
     <use xlink:href="#mfd008d7953" x="875.447455" y="171.962032" style="fill: #808080; stroke: #808080; stroke-linejoin: miter"/>
     <use xlink:href="#mfd008d7953" x="892.327545" y="157.249421" style="fill: #808080; stroke: #808080; stroke-linejoin: miter"/>
     <use xlink:href="#mfd008d7953" x="892.327545" y="153.107533" style="fill: #808080; stroke: #808080; stroke-linejoin: miter"/>
     <use xlink:href="#mfd008d7953" x="909.207634" y="136.416235" style="fill: #808080; stroke: #808080; stroke-linejoin: miter"/>
     <use xlink:href="#mfd008d7953" x="909.207634" y="141.199353" style="fill: #808080; stroke: #808080; stroke-linejoin: miter"/>
     <use xlink:href="#mfd008d7953" x="926.087724" y="167.718625" style="fill: #808080; stroke: #808080; stroke-linejoin: miter"/>
     <use xlink:href="#mfd008d7953" x="926.087724" y="124.743633" style="fill: #808080; stroke: #808080; stroke-linejoin: miter"/>
     <use xlink:href="#mfd008d7953" x="942.967814" y="127.54713" style="fill: #808080; stroke: #808080; stroke-linejoin: miter"/>
     <use xlink:href="#mfd008d7953" x="942.967814" y="157.858162" style="fill: #808080; stroke: #808080; stroke-linejoin: miter"/>
     <use xlink:href="#mfd008d7953" x="959.847904" y="165.288183" style="fill: #808080; stroke: #808080; stroke-linejoin: miter"/>
     <use xlink:href="#mfd008d7953" x="959.847904" y="175.460294" style="fill: #808080; stroke: #808080; stroke-linejoin: miter"/>
     <use xlink:href="#mfd008d7953" x="976.727994" y="166.698224" style="fill: #808080; stroke: #808080; stroke-linejoin: miter"/>
     <use xlink:href="#mfd008d7953" x="976.727994" y="184.337828" style="fill: #808080; stroke: #808080; stroke-linejoin: miter"/>
     <use xlink:href="#mfd008d7953" x="993.608084" y="179.618331" style="fill: #808080; stroke: #808080; stroke-linejoin: miter"/>
     <use xlink:href="#mfd008d7953" x="993.608084" y="169.074527" style="fill: #808080; stroke: #808080; stroke-linejoin: miter"/>
     <use xlink:href="#mfd008d7953" x="1010.488173" y="163.390682" style="fill: #808080; stroke: #808080; stroke-linejoin: miter"/>
    </g>
   </g>
   <g id="patch_3">
    <path d="M 144 270.72 
L 144 69.12 
" style="fill: none; stroke: #000000; stroke-width: 1.5; stroke-linejoin: miter; stroke-linecap: square"/>
   </g>
   <g id="patch_4">
    <path d="M 1036.8 270.72 
L 1036.8 69.12 
" style="fill: none; stroke: #000000; stroke-width: 1.5; stroke-linejoin: miter; stroke-linecap: square"/>
   </g>
   <g id="patch_5">
    <path d="M 144 270.72 
L 1036.8 270.72 
" style="fill: none; stroke: #000000; stroke-width: 1.5; stroke-linejoin: miter; stroke-linecap: square"/>
   </g>
   <g id="patch_6">
    <path d="M 144 69.12 
L 1036.8 69.12 
" style="fill: none; stroke: #000000; stroke-width: 1.5; stroke-linejoin: miter; stroke-linecap: square"/>
   </g>
   <g id="legend_1">
    <g id="patch_7">
     <path d="M 843.22 128.89 
L 1025.6 128.89 
Q 1028.8 128.89 1028.8 125.69 
L 1028.8 80.32 
Q 1028.8 77.12 1025.6 77.12 
L 843.22 77.12 
Q 840.02 77.12 840.02 80.32 
L 840.02 125.69 
Q 840.02 128.89 843.22 128.89 
z
" style="fill: #ffffff; opacity: 0.8; stroke: #cccccc; stroke-linejoin: miter"/>
    </g>
    <g id="line2d_8">
     <path d="M 846.42 90.0775 
L 862.42 90.0775 
L 878.42 90.0775 
" style="fill: none; stroke-dasharray: 9.6,2.4,1.5,2.4; stroke-dashoffset: 0; stroke: #ff0000; stroke-width: 1.5"/>
    </g>
    <g id="text_7">
     <!-- Unpumped Fit -->
     <g transform="translate(891.22 95.6775) scale(0.16 -0.16)">
      <defs>
       <path id="DejaVuSans-55" d="M 556 4666 
L 1191 4666 
L 1191 1831 
Q 1191 1081 1462 751 
Q 1734 422 2344 422 
Q 2950 422 3222 751 
Q 3494 1081 3494 1831 
L 3494 4666 
L 4128 4666 
L 4128 1753 
Q 4128 841 3676 375 
Q 3225 -91 2344 -91 
Q 1459 -91 1007 375 
Q 556 841 556 1753 
L 556 4666 
z
" transform="scale(0.015625)"/>
       <path id="DejaVuSans-6e" d="M 3513 2113 
L 3513 0 
L 2938 0 
L 2938 2094 
Q 2938 2591 2744 2837 
Q 2550 3084 2163 3084 
Q 1697 3084 1428 2787 
Q 1159 2491 1159 1978 
L 1159 0 
L 581 0 
L 581 3500 
L 1159 3500 
L 1159 2956 
Q 1366 3272 1645 3428 
Q 1925 3584 2291 3584 
Q 2894 3584 3203 3211 
Q 3513 2838 3513 2113 
z
" transform="scale(0.015625)"/>
       <path id="DejaVuSans-75" d="M 544 1381 
L 544 3500 
L 1119 3500 
L 1119 1403 
Q 1119 906 1312 657 
Q 1506 409 1894 409 
Q 2359 409 2629 706 
Q 2900 1003 2900 1516 
L 2900 3500 
L 3475 3500 
L 3475 0 
L 2900 0 
L 2900 538 
Q 2691 219 2414 64 
Q 2138 -91 1772 -91 
Q 1169 -91 856 284 
Q 544 659 544 1381 
z
M 1991 3584 
L 1991 3584 
z
" transform="scale(0.015625)"/>
       <path id="DejaVuSans-6d" d="M 3328 2828 
Q 3544 3216 3844 3400 
Q 4144 3584 4550 3584 
Q 5097 3584 5394 3201 
Q 5691 2819 5691 2113 
L 5691 0 
L 5113 0 
L 5113 2094 
Q 5113 2597 4934 2840 
Q 4756 3084 4391 3084 
Q 3944 3084 3684 2787 
Q 3425 2491 3425 1978 
L 3425 0 
L 2847 0 
L 2847 2094 
Q 2847 2600 2669 2842 
Q 2491 3084 2119 3084 
Q 1678 3084 1418 2786 
Q 1159 2488 1159 1978 
L 1159 0 
L 581 0 
L 581 3500 
L 1159 3500 
L 1159 2956 
Q 1356 3278 1631 3431 
Q 1906 3584 2284 3584 
Q 2666 3584 2933 3390 
Q 3200 3197 3328 2828 
z
" transform="scale(0.015625)"/>
       <path id="DejaVuSans-65" d="M 3597 1894 
L 3597 1613 
L 953 1613 
Q 991 1019 1311 708 
Q 1631 397 2203 397 
Q 2534 397 2845 478 
Q 3156 559 3463 722 
L 3463 178 
Q 3153 47 2828 -22 
Q 2503 -91 2169 -91 
Q 1331 -91 842 396 
Q 353 884 353 1716 
Q 353 2575 817 3079 
Q 1281 3584 2069 3584 
Q 2775 3584 3186 3129 
Q 3597 2675 3597 1894 
z
M 3022 2063 
Q 3016 2534 2758 2815 
Q 2500 3097 2075 3097 
Q 1594 3097 1305 2825 
Q 1016 2553 972 2059 
L 3022 2063 
z
" transform="scale(0.015625)"/>
       <path id="DejaVuSans-64" d="M 2906 2969 
L 2906 4863 
L 3481 4863 
L 3481 0 
L 2906 0 
L 2906 525 
Q 2725 213 2448 61 
Q 2172 -91 1784 -91 
Q 1150 -91 751 415 
Q 353 922 353 1747 
Q 353 2572 751 3078 
Q 1150 3584 1784 3584 
Q 2172 3584 2448 3432 
Q 2725 3281 2906 2969 
z
M 947 1747 
Q 947 1113 1208 752 
Q 1469 391 1925 391 
Q 2381 391 2643 752 
Q 2906 1113 2906 1747 
Q 2906 2381 2643 2742 
Q 2381 3103 1925 3103 
Q 1469 3103 1208 2742 
Q 947 2381 947 1747 
z
" transform="scale(0.015625)"/>
       <path id="DejaVuSans-46" d="M 628 4666 
L 3309 4666 
L 3309 4134 
L 1259 4134 
L 1259 2759 
L 3109 2759 
L 3109 2228 
L 1259 2228 
L 1259 0 
L 628 0 
L 628 4666 
z
" transform="scale(0.015625)"/>
       <path id="DejaVuSans-69" d="M 603 3500 
L 1178 3500 
L 1178 0 
L 603 0 
L 603 3500 
z
M 603 4863 
L 1178 4863 
L 1178 4134 
L 603 4134 
L 603 4863 
z
" transform="scale(0.015625)"/>
       <path id="DejaVuSans-74" d="M 1172 4494 
L 1172 3500 
L 2356 3500 
L 2356 3053 
L 1172 3053 
L 1172 1153 
Q 1172 725 1289 603 
Q 1406 481 1766 481 
L 2356 481 
L 2356 0 
L 1766 0 
Q 1100 0 847 248 
Q 594 497 594 1153 
L 594 3053 
L 172 3053 
L 172 3500 
L 594 3500 
L 594 4494 
L 1172 4494 
z
" transform="scale(0.015625)"/>
      </defs>
      <use xlink:href="#DejaVuSans-55"/>
      <use xlink:href="#DejaVuSans-6e" transform="translate(73.193359 0)"/>
      <use xlink:href="#DejaVuSans-70" transform="translate(136.572266 0)"/>
      <use xlink:href="#DejaVuSans-75" transform="translate(200.048828 0)"/>
      <use xlink:href="#DejaVuSans-6d" transform="translate(263.427734 0)"/>
      <use xlink:href="#DejaVuSans-70" transform="translate(360.839844 0)"/>
      <use xlink:href="#DejaVuSans-65" transform="translate(424.316406 0)"/>
      <use xlink:href="#DejaVuSans-64" transform="translate(485.839844 0)"/>
      <use xlink:href="#DejaVuSans-20" transform="translate(549.316406 0)"/>
      <use xlink:href="#DejaVuSans-46" transform="translate(581.103516 0)"/>
      <use xlink:href="#DejaVuSans-69" transform="translate(631.373047 0)"/>
      <use xlink:href="#DejaVuSans-74" transform="translate(659.15625 0)"/>
     </g>
    </g>
    <g id="line2d_9">
     <path d="M 846.42 113.5625 
L 862.42 113.5625 
L 878.42 113.5625 
" style="fill: none; stroke: #808080; stroke-width: 1.5; stroke-linecap: square"/>
     <g>
      <use xlink:href="#mfd008d7953" x="862.42" y="113.5625" style="fill: #808080; stroke: #808080; stroke-linejoin: miter"/>
     </g>
    </g>
    <g id="text_8">
     <!-- Unpumped Data -->
     <g transform="translate(891.22 119.1625) scale(0.16 -0.16)">
      <defs>
       <path id="DejaVuSans-44" d="M 1259 4147 
L 1259 519 
L 2022 519 
Q 2988 519 3436 956 
Q 3884 1394 3884 2338 
Q 3884 3275 3436 3711 
Q 2988 4147 2022 4147 
L 1259 4147 
z
M 628 4666 
L 1925 4666 
Q 3281 4666 3915 4102 
Q 4550 3538 4550 2338 
Q 4550 1131 3912 565 
Q 3275 0 1925 0 
L 628 0 
L 628 4666 
z
" transform="scale(0.015625)"/>
       <path id="DejaVuSans-61" d="M 2194 1759 
Q 1497 1759 1228 1600 
Q 959 1441 959 1056 
Q 959 750 1161 570 
Q 1363 391 1709 391 
Q 2188 391 2477 730 
Q 2766 1069 2766 1631 
L 2766 1759 
L 2194 1759 
z
M 3341 1997 
L 3341 0 
L 2766 0 
L 2766 531 
Q 2569 213 2275 61 
Q 1981 -91 1556 -91 
Q 1019 -91 701 211 
Q 384 513 384 1019 
Q 384 1609 779 1909 
Q 1175 2209 1959 2209 
L 2766 2209 
L 2766 2266 
Q 2766 2663 2505 2880 
Q 2244 3097 1772 3097 
Q 1472 3097 1187 3025 
Q 903 2953 641 2809 
L 641 3341 
Q 956 3463 1253 3523 
Q 1550 3584 1831 3584 
Q 2591 3584 2966 3190 
Q 3341 2797 3341 1997 
z
" transform="scale(0.015625)"/>
      </defs>
      <use xlink:href="#DejaVuSans-55"/>
      <use xlink:href="#DejaVuSans-6e" transform="translate(73.193359 0)"/>
      <use xlink:href="#DejaVuSans-70" transform="translate(136.572266 0)"/>
      <use xlink:href="#DejaVuSans-75" transform="translate(200.048828 0)"/>
      <use xlink:href="#DejaVuSans-6d" transform="translate(263.427734 0)"/>
      <use xlink:href="#DejaVuSans-70" transform="translate(360.839844 0)"/>
      <use xlink:href="#DejaVuSans-65" transform="translate(424.316406 0)"/>
      <use xlink:href="#DejaVuSans-64" transform="translate(485.839844 0)"/>
      <use xlink:href="#DejaVuSans-20" transform="translate(549.316406 0)"/>
      <use xlink:href="#DejaVuSans-44" transform="translate(581.103516 0)"/>
      <use xlink:href="#DejaVuSans-61" transform="translate(658.105469 0)"/>
      <use xlink:href="#DejaVuSans-74" transform="translate(719.384766 0)"/>
      <use xlink:href="#DejaVuSans-61" transform="translate(758.59375 0)"/>
     </g>
    </g>
   </g>
  </g>
  <g id="axes_2">
   <g id="patch_8">
    <path d="M 144 512.64 
L 1036.8 512.64 
L 1036.8 311.04 
L 144 311.04 
z
" style="fill: #ffffff"/>
   </g>
   <g id="matplotlib.axis_3">
    <g id="xtick_1">
     <g id="line2d_10">
      <defs>
       <path id="m2801911048" d="M 0 0 
L 0 -3.5 
" style="stroke: #000000; stroke-width: 0.8"/>
      </defs>
      <g>
       <use xlink:href="#m2801911048" x="218.4" y="512.64" style="stroke: #000000; stroke-width: 0.8"/>
      </g>
     </g>
     <g id="text_9">
      <!-- 0.5 -->
      <g transform="translate(210.448437 523.738438) scale(0.1 -0.1)">
       <defs>
        <path id="DejaVuSans-2e" d="M 684 794 
L 1344 794 
L 1344 0 
L 684 0 
L 684 794 
z
" transform="scale(0.015625)"/>
        <path id="DejaVuSans-35" d="M 691 4666 
L 3169 4666 
L 3169 4134 
L 1269 4134 
L 1269 2991 
Q 1406 3038 1543 3061 
Q 1681 3084 1819 3084 
Q 2600 3084 3056 2656 
Q 3513 2228 3513 1497 
Q 3513 744 3044 326 
Q 2575 -91 1722 -91 
Q 1428 -91 1123 -41 
Q 819 9 494 109 
L 494 744 
Q 775 591 1075 516 
Q 1375 441 1709 441 
Q 2250 441 2565 725 
Q 2881 1009 2881 1497 
Q 2881 1984 2565 2268 
Q 2250 2553 1709 2553 
Q 1456 2553 1204 2497 
Q 953 2441 691 2322 
L 691 4666 
z
" transform="scale(0.015625)"/>
       </defs>
       <use xlink:href="#DejaVuSans-30"/>
       <use xlink:href="#DejaVuSans-2e" transform="translate(63.623047 0)"/>
       <use xlink:href="#DejaVuSans-35" transform="translate(95.410156 0)"/>
      </g>
     </g>
    </g>
    <g id="xtick_2">
     <g id="line2d_11">
      <g>
       <use xlink:href="#m2801911048" x="367.2" y="512.64" style="stroke: #000000; stroke-width: 0.8"/>
      </g>
     </g>
     <g id="text_10">
      <!-- 0.6 -->
      <g transform="translate(359.248438 523.738438) scale(0.1 -0.1)">
       <defs>
        <path id="DejaVuSans-36" d="M 2113 2584 
Q 1688 2584 1439 2293 
Q 1191 2003 1191 1497 
Q 1191 994 1439 701 
Q 1688 409 2113 409 
Q 2538 409 2786 701 
Q 3034 994 3034 1497 
Q 3034 2003 2786 2293 
Q 2538 2584 2113 2584 
z
M 3366 4563 
L 3366 3988 
Q 3128 4100 2886 4159 
Q 2644 4219 2406 4219 
Q 1781 4219 1451 3797 
Q 1122 3375 1075 2522 
Q 1259 2794 1537 2939 
Q 1816 3084 2150 3084 
Q 2853 3084 3261 2657 
Q 3669 2231 3669 1497 
Q 3669 778 3244 343 
Q 2819 -91 2113 -91 
Q 1303 -91 875 529 
Q 447 1150 447 2328 
Q 447 3434 972 4092 
Q 1497 4750 2381 4750 
Q 2619 4750 2861 4703 
Q 3103 4656 3366 4563 
z
" transform="scale(0.015625)"/>
       </defs>
       <use xlink:href="#DejaVuSans-30"/>
       <use xlink:href="#DejaVuSans-2e" transform="translate(63.623047 0)"/>
       <use xlink:href="#DejaVuSans-36" transform="translate(95.410156 0)"/>
      </g>
     </g>
    </g>
    <g id="xtick_3">
     <g id="line2d_12">
      <g>
       <use xlink:href="#m2801911048" x="516" y="512.64" style="stroke: #000000; stroke-width: 0.8"/>
      </g>
     </g>
     <g id="text_11">
      <!-- 0.7 -->
      <g transform="translate(508.048437 523.738438) scale(0.1 -0.1)">
       <defs>
        <path id="DejaVuSans-37" d="M 525 4666 
L 3525 4666 
L 3525 4397 
L 1831 0 
L 1172 0 
L 2766 4134 
L 525 4134 
L 525 4666 
z
" transform="scale(0.015625)"/>
       </defs>
       <use xlink:href="#DejaVuSans-30"/>
       <use xlink:href="#DejaVuSans-2e" transform="translate(63.623047 0)"/>
       <use xlink:href="#DejaVuSans-37" transform="translate(95.410156 0)"/>
      </g>
     </g>
    </g>
    <g id="xtick_4">
     <g id="line2d_13">
      <g>
       <use xlink:href="#m2801911048" x="664.8" y="512.64" style="stroke: #000000; stroke-width: 0.8"/>
      </g>
     </g>
     <g id="text_12">
      <!-- 0.8 -->
      <g transform="translate(656.848437 523.738438) scale(0.1 -0.1)">
       <defs>
        <path id="DejaVuSans-38" d="M 2034 2216 
Q 1584 2216 1326 1975 
Q 1069 1734 1069 1313 
Q 1069 891 1326 650 
Q 1584 409 2034 409 
Q 2484 409 2743 651 
Q 3003 894 3003 1313 
Q 3003 1734 2745 1975 
Q 2488 2216 2034 2216 
z
M 1403 2484 
Q 997 2584 770 2862 
Q 544 3141 544 3541 
Q 544 4100 942 4425 
Q 1341 4750 2034 4750 
Q 2731 4750 3128 4425 
Q 3525 4100 3525 3541 
Q 3525 3141 3298 2862 
Q 3072 2584 2669 2484 
Q 3125 2378 3379 2068 
Q 3634 1759 3634 1313 
Q 3634 634 3220 271 
Q 2806 -91 2034 -91 
Q 1263 -91 848 271 
Q 434 634 434 1313 
Q 434 1759 690 2068 
Q 947 2378 1403 2484 
z
M 1172 3481 
Q 1172 3119 1398 2916 
Q 1625 2713 2034 2713 
Q 2441 2713 2670 2916 
Q 2900 3119 2900 3481 
Q 2900 3844 2670 4047 
Q 2441 4250 2034 4250 
Q 1625 4250 1398 4047 
Q 1172 3844 1172 3481 
z
" transform="scale(0.015625)"/>
       </defs>
       <use xlink:href="#DejaVuSans-30"/>
       <use xlink:href="#DejaVuSans-2e" transform="translate(63.623047 0)"/>
       <use xlink:href="#DejaVuSans-38" transform="translate(95.410156 0)"/>
      </g>
     </g>
    </g>
    <g id="xtick_5">
     <g id="line2d_14">
      <g>
       <use xlink:href="#m2801911048" x="813.6" y="512.64" style="stroke: #000000; stroke-width: 0.8"/>
      </g>
     </g>
     <g id="text_13">
      <!-- 0.9 -->
      <g transform="translate(805.648437 523.738438) scale(0.1 -0.1)">
       <defs>
        <path id="DejaVuSans-39" d="M 703 97 
L 703 672 
Q 941 559 1184 500 
Q 1428 441 1663 441 
Q 2288 441 2617 861 
Q 2947 1281 2994 2138 
Q 2813 1869 2534 1725 
Q 2256 1581 1919 1581 
Q 1219 1581 811 2004 
Q 403 2428 403 3163 
Q 403 3881 828 4315 
Q 1253 4750 1959 4750 
Q 2769 4750 3195 4129 
Q 3622 3509 3622 2328 
Q 3622 1225 3098 567 
Q 2575 -91 1691 -91 
Q 1453 -91 1209 -44 
Q 966 3 703 97 
z
M 1959 2075 
Q 2384 2075 2632 2365 
Q 2881 2656 2881 3163 
Q 2881 3666 2632 3958 
Q 2384 4250 1959 4250 
Q 1534 4250 1286 3958 
Q 1038 3666 1038 3163 
Q 1038 2656 1286 2365 
Q 1534 2075 1959 2075 
z
" transform="scale(0.015625)"/>
       </defs>
       <use xlink:href="#DejaVuSans-30"/>
       <use xlink:href="#DejaVuSans-2e" transform="translate(63.623047 0)"/>
       <use xlink:href="#DejaVuSans-39" transform="translate(95.410156 0)"/>
      </g>
     </g>
    </g>
    <g id="xtick_6">
     <g id="line2d_15">
      <g>
       <use xlink:href="#m2801911048" x="962.4" y="512.64" style="stroke: #000000; stroke-width: 0.8"/>
      </g>
     </g>
     <g id="text_14">
      <!-- 1.0 -->
      <g transform="translate(954.448437 523.738438) scale(0.1 -0.1)">
       <defs>
        <path id="DejaVuSans-31" d="M 794 531 
L 1825 531 
L 1825 4091 
L 703 3866 
L 703 4441 
L 1819 4666 
L 2450 4666 
L 2450 531 
L 3481 531 
L 3481 0 
L 794 0 
L 794 531 
z
" transform="scale(0.015625)"/>
       </defs>
       <use xlink:href="#DejaVuSans-31"/>
       <use xlink:href="#DejaVuSans-2e" transform="translate(63.623047 0)"/>
       <use xlink:href="#DejaVuSans-30" transform="translate(95.410156 0)"/>
      </g>
     </g>
    </g>
    <g id="text_15">
     <!-- Wedge insertion (mm) -->
     <g transform="translate(489.88125 543.495312) scale(0.18 -0.18)">
      <defs>
       <path id="DejaVuSans-57" d="M 213 4666 
L 850 4666 
L 1831 722 
L 2809 4666 
L 3519 4666 
L 4500 722 
L 5478 4666 
L 6119 4666 
L 4947 0 
L 4153 0 
L 3169 4050 
L 2175 0 
L 1381 0 
L 213 4666 
z
" transform="scale(0.015625)"/>
       <path id="DejaVuSans-67" d="M 2906 1791 
Q 2906 2416 2648 2759 
Q 2391 3103 1925 3103 
Q 1463 3103 1205 2759 
Q 947 2416 947 1791 
Q 947 1169 1205 825 
Q 1463 481 1925 481 
Q 2391 481 2648 825 
Q 2906 1169 2906 1791 
z
M 3481 434 
Q 3481 -459 3084 -895 
Q 2688 -1331 1869 -1331 
Q 1566 -1331 1297 -1286 
Q 1028 -1241 775 -1147 
L 775 -588 
Q 1028 -725 1275 -790 
Q 1522 -856 1778 -856 
Q 2344 -856 2625 -561 
Q 2906 -266 2906 331 
L 2906 616 
Q 2728 306 2450 153 
Q 2172 0 1784 0 
Q 1141 0 747 490 
Q 353 981 353 1791 
Q 353 2603 747 3093 
Q 1141 3584 1784 3584 
Q 2172 3584 2450 3431 
Q 2728 3278 2906 2969 
L 2906 3500 
L 3481 3500 
L 3481 434 
z
" transform="scale(0.015625)"/>
       <path id="DejaVuSans-73" d="M 2834 3397 
L 2834 2853 
Q 2591 2978 2328 3040 
Q 2066 3103 1784 3103 
Q 1356 3103 1142 2972 
Q 928 2841 928 2578 
Q 928 2378 1081 2264 
Q 1234 2150 1697 2047 
L 1894 2003 
Q 2506 1872 2764 1633 
Q 3022 1394 3022 966 
Q 3022 478 2636 193 
Q 2250 -91 1575 -91 
Q 1294 -91 989 -36 
Q 684 19 347 128 
L 347 722 
Q 666 556 975 473 
Q 1284 391 1588 391 
Q 1994 391 2212 530 
Q 2431 669 2431 922 
Q 2431 1156 2273 1281 
Q 2116 1406 1581 1522 
L 1381 1569 
Q 847 1681 609 1914 
Q 372 2147 372 2553 
Q 372 3047 722 3315 
Q 1072 3584 1716 3584 
Q 2034 3584 2315 3537 
Q 2597 3491 2834 3397 
z
" transform="scale(0.015625)"/>
       <path id="DejaVuSans-72" d="M 2631 2963 
Q 2534 3019 2420 3045 
Q 2306 3072 2169 3072 
Q 1681 3072 1420 2755 
Q 1159 2438 1159 1844 
L 1159 0 
L 581 0 
L 581 3500 
L 1159 3500 
L 1159 2956 
Q 1341 3275 1631 3429 
Q 1922 3584 2338 3584 
Q 2397 3584 2469 3576 
Q 2541 3569 2628 3553 
L 2631 2963 
z
" transform="scale(0.015625)"/>
       <path id="DejaVuSans-6f" d="M 1959 3097 
Q 1497 3097 1228 2736 
Q 959 2375 959 1747 
Q 959 1119 1226 758 
Q 1494 397 1959 397 
Q 2419 397 2687 759 
Q 2956 1122 2956 1747 
Q 2956 2369 2687 2733 
Q 2419 3097 1959 3097 
z
M 1959 3584 
Q 2709 3584 3137 3096 
Q 3566 2609 3566 1747 
Q 3566 888 3137 398 
Q 2709 -91 1959 -91 
Q 1206 -91 779 398 
Q 353 888 353 1747 
Q 353 2609 779 3096 
Q 1206 3584 1959 3584 
z
" transform="scale(0.015625)"/>
      </defs>
      <use xlink:href="#DejaVuSans-57"/>
      <use xlink:href="#DejaVuSans-65" transform="translate(93.001953 0)"/>
      <use xlink:href="#DejaVuSans-64" transform="translate(154.525391 0)"/>
      <use xlink:href="#DejaVuSans-67" transform="translate(218.001953 0)"/>
      <use xlink:href="#DejaVuSans-65" transform="translate(281.478516 0)"/>
      <use xlink:href="#DejaVuSans-20" transform="translate(343.001953 0)"/>
      <use xlink:href="#DejaVuSans-69" transform="translate(374.789062 0)"/>
      <use xlink:href="#DejaVuSans-6e" transform="translate(402.572266 0)"/>
      <use xlink:href="#DejaVuSans-73" transform="translate(465.951172 0)"/>
      <use xlink:href="#DejaVuSans-65" transform="translate(518.050781 0)"/>
      <use xlink:href="#DejaVuSans-72" transform="translate(579.574219 0)"/>
      <use xlink:href="#DejaVuSans-74" transform="translate(620.6875 0)"/>
      <use xlink:href="#DejaVuSans-69" transform="translate(659.896484 0)"/>
      <use xlink:href="#DejaVuSans-6f" transform="translate(687.679688 0)"/>
      <use xlink:href="#DejaVuSans-6e" transform="translate(748.861328 0)"/>
      <use xlink:href="#DejaVuSans-20" transform="translate(812.240234 0)"/>
      <use xlink:href="#DejaVuSans-28" transform="translate(844.027344 0)"/>
      <use xlink:href="#DejaVuSans-6d" transform="translate(883.041016 0)"/>
      <use xlink:href="#DejaVuSans-6d" transform="translate(980.453125 0)"/>
      <use xlink:href="#DejaVuSans-29" transform="translate(1077.865234 0)"/>
     </g>
    </g>
   </g>
   <g id="matplotlib.axis_4">
    <g id="ytick_6">
     <g id="line2d_16">
      <g>
       <use xlink:href="#m632909f15f" x="144" y="495.682814" style="stroke: #000000; stroke-width: 0.8"/>
      </g>
     </g>
     <g id="text_16">
      <!-- −80 -->
      <g transform="translate(119.395313 499.482033) scale(0.1 -0.1)">
       <use xlink:href="#DejaVuSans-2212"/>
       <use xlink:href="#DejaVuSans-38" transform="translate(83.789062 0)"/>
       <use xlink:href="#DejaVuSans-30" transform="translate(147.412109 0)"/>
      </g>
     </g>
    </g>
    <g id="ytick_7">
     <g id="line2d_17">
      <g>
       <use xlink:href="#m632909f15f" x="144" y="470.727114" style="stroke: #000000; stroke-width: 0.8"/>
      </g>
     </g>
     <g id="text_17">
      <!-- −60 -->
      <g transform="translate(119.395313 474.526333) scale(0.1 -0.1)">
       <use xlink:href="#DejaVuSans-2212"/>
       <use xlink:href="#DejaVuSans-36" transform="translate(83.789062 0)"/>
       <use xlink:href="#DejaVuSans-30" transform="translate(147.412109 0)"/>
      </g>
     </g>
    </g>
    <g id="ytick_8">
     <g id="line2d_18">
      <g>
       <use xlink:href="#m632909f15f" x="144" y="445.771414" style="stroke: #000000; stroke-width: 0.8"/>
      </g>
     </g>
     <g id="text_18">
      <!-- −40 -->
      <g transform="translate(119.395313 449.570633) scale(0.1 -0.1)">
       <use xlink:href="#DejaVuSans-2212"/>
       <use xlink:href="#DejaVuSans-34" transform="translate(83.789062 0)"/>
       <use xlink:href="#DejaVuSans-30" transform="translate(147.412109 0)"/>
      </g>
     </g>
    </g>
    <g id="ytick_9">
     <g id="line2d_19">
      <g>
       <use xlink:href="#m632909f15f" x="144" y="420.815715" style="stroke: #000000; stroke-width: 0.8"/>
      </g>
     </g>
     <g id="text_19">
      <!-- −20 -->
      <g transform="translate(119.395313 424.614933) scale(0.1 -0.1)">
       <use xlink:href="#DejaVuSans-2212"/>
       <use xlink:href="#DejaVuSans-32" transform="translate(83.789062 0)"/>
       <use xlink:href="#DejaVuSans-30" transform="translate(147.412109 0)"/>
      </g>
     </g>
    </g>
    <g id="ytick_10">
     <g id="line2d_20">
      <g>
       <use xlink:href="#m632909f15f" x="144" y="395.860015" style="stroke: #000000; stroke-width: 0.8"/>
      </g>
     </g>
     <g id="text_20">
      <!-- 0 -->
      <g transform="translate(134.1375 399.659233) scale(0.1 -0.1)">
       <use xlink:href="#DejaVuSans-30"/>
      </g>
     </g>
    </g>
    <g id="ytick_11">
     <g id="line2d_21">
      <g>
       <use xlink:href="#m632909f15f" x="144" y="370.904315" style="stroke: #000000; stroke-width: 0.8"/>
      </g>
     </g>
     <g id="text_21">
      <!-- 20 -->
      <g transform="translate(127.775 374.703534) scale(0.1 -0.1)">
       <use xlink:href="#DejaVuSans-32"/>
       <use xlink:href="#DejaVuSans-30" transform="translate(63.623047 0)"/>
      </g>
     </g>
    </g>
    <g id="ytick_12">
     <g id="line2d_22">
      <g>
       <use xlink:href="#m632909f15f" x="144" y="345.948615" style="stroke: #000000; stroke-width: 0.8"/>
      </g>
     </g>
     <g id="text_22">
      <!-- 40 -->
      <g transform="translate(127.775 349.747834) scale(0.1 -0.1)">
       <use xlink:href="#DejaVuSans-34"/>
       <use xlink:href="#DejaVuSans-30" transform="translate(63.623047 0)"/>
      </g>
     </g>
    </g>
    <g id="ytick_13">
     <g id="line2d_23">
      <g>
       <use xlink:href="#m632909f15f" x="144" y="320.992915" style="stroke: #000000; stroke-width: 0.8"/>
      </g>
     </g>
     <g id="text_23">
      <!-- 60 -->
      <g transform="translate(127.775 324.792134) scale(0.1 -0.1)">
       <use xlink:href="#DejaVuSans-36"/>
       <use xlink:href="#DejaVuSans-30" transform="translate(63.623047 0)"/>
      </g>
     </g>
    </g>
    <g id="text_24">
     <!-- $ j_{CEP} $ (pA) -->
     <g transform="translate(111.615313 448.56) rotate(-90) scale(0.18 -0.18)">
      <use xlink:href="#DejaVuSans-Oblique-6a" transform="translate(0 0.015625)"/>
      <use xlink:href="#DejaVuSans-Oblique-43" transform="translate(27.783203 -16.390625) scale(0.7)"/>
      <use xlink:href="#DejaVuSans-Oblique-45" transform="translate(76.660156 -16.390625) scale(0.7)"/>
      <use xlink:href="#DejaVuSans-Oblique-50" transform="translate(120.888672 -16.390625) scale(0.7)"/>
      <use xlink:href="#DejaVuSans-20" transform="translate(165.834961 0.015625)"/>
      <use xlink:href="#DejaVuSans-28" transform="translate(197.62207 0.015625)"/>
      <use xlink:href="#DejaVuSans-70" transform="translate(236.635742 0.015625)"/>
      <use xlink:href="#DejaVuSans-41" transform="translate(300.112305 0.015625)"/>
      <use xlink:href="#DejaVuSans-29" transform="translate(368.520508 0.015625)"/>
     </g>
    </g>
   </g>
   <g id="line2d_24">
    <path d="M 144 379.233972 
L 148.468468 385.254599 
L 154.724324 394.159693 
L 163.661261 406.92756 
L 168.12973 412.924912 
L 171.704505 417.37552 
L 175.279279 421.42685 
L 177.96036 424.157266 
L 180.641441 426.591189 
L 183.322523 428.702715 
L 186.003604 430.469267 
L 188.684685 431.871827 
L 190.472072 432.596961 
L 192.259459 433.149913 
L 194.046847 433.527928 
L 195.834234 433.729058 
L 197.621622 433.752178 
L 199.409009 433.596984 
L 201.196396 433.264002 
L 202.983784 432.754585 
L 204.771171 432.070904 
L 206.558559 431.215943 
L 209.23964 429.62084 
L 211.920721 427.665092 
L 214.601802 425.368532 
L 217.282883 422.754584 
L 219.963964 419.850021 
L 223.538739 415.577203 
L 227.113514 410.919382 
L 231.581982 404.686606 
L 237.837838 395.518422 
L 245.881081 383.735885 
L 250.34955 377.564223 
L 253.924324 372.976306 
L 257.499099 368.792091 
L 260.18018 365.96624 
L 262.861261 363.441474 
L 265.542342 361.244503 
L 268.223423 359.398647 
L 270.904505 357.923589 
L 272.691892 357.154199 
L 274.479279 356.560435 
L 276.266667 356.14519 
L 278.054054 355.91053 
L 279.841441 355.857686 
L 281.628829 355.987044 
L 283.416216 356.298147 
L 285.203604 356.789691 
L 286.990991 357.459535 
L 288.778378 358.304709 
L 291.459459 359.892711 
L 294.140541 361.850368 
L 296.821622 364.157673 
L 299.502703 366.790947 
L 302.183784 369.72308 
L 305.758559 374.044772 
L 309.333333 378.764245 
L 313.801802 385.090002 
L 320.057658 394.412697 
L 328.994595 407.714236 
L 333.463063 413.933919 
L 337.037838 418.535384 
L 340.612613 422.710959 
L 343.293694 425.516004 
L 345.974775 428.008052 
L 348.655856 430.160876 
L 351.336937 431.951766 
L 353.124324 432.935102 
L 354.911712 433.744434 
L 356.699099 434.375925 
L 358.486486 434.826561 
L 360.273874 435.094165 
L 362.061261 435.177412 
L 363.848649 435.075828 
L 365.636036 434.7898 
L 367.423423 434.320568 
L 369.210811 433.670226 
L 370.998198 432.841707 
L 372.785586 431.838774 
L 375.466667 430.01757 
L 378.147748 427.833153 
L 380.828829 425.30807 
L 383.50991 422.468438 
L 386.190991 419.343672 
L 389.765766 414.790181 
L 393.340541 409.871705 
L 397.809009 403.349237 
L 414.789189 378.041748 
L 418.363964 373.272685 
L 421.938739 368.907227 
L 424.61982 365.947068 
L 427.300901 363.290648 
L 429.981982 360.965754 
L 432.663063 358.996721 
L 435.344144 357.404178 
L 437.131532 356.56006 
L 438.918919 355.894725 
L 440.706306 355.411285 
L 442.493694 355.112013 
L 444.281081 354.998326 
L 446.068468 355.070778 
L 447.855856 355.329062 
L 449.643243 355.772008 
L 451.430631 356.397588 
L 453.218018 357.202927 
L 455.005405 358.184315 
L 457.686486 359.976366 
L 460.367568 362.135541 
L 463.048649 364.639392 
L 465.72973 367.46187 
L 468.410811 370.573598 
L 471.985586 375.116125 
L 475.56036 380.030921 
L 480.028829 386.558825 
L 488.965766 400.17031 
L 494.327928 408.164265 
L 498.796396 414.42861 
L 502.371171 419.048782 
L 505.052252 422.228955 
L 507.733333 425.127848 
L 510.414414 427.715289 
L 513.095495 429.964362 
L 515.776577 431.851687 
L 518.457658 433.357659 
L 520.245045 434.141895 
L 522.032432 434.746004 
L 523.81982 435.167211 
L 525.607207 435.403592 
L 527.394595 435.45408 
L 529.181982 435.318471 
L 530.969369 434.997423 
L 532.756757 434.492458 
L 534.544144 433.805947 
L 536.331532 432.941104 
L 538.118919 431.901973 
L 540.8 430.027307 
L 543.481081 427.791235 
L 546.162162 425.217175 
L 548.843243 422.332061 
L 551.524324 419.166063 
L 555.099099 414.565372 
L 558.673874 409.609834 
L 564.036036 401.713611 
L 578.335135 380.297138 
L 581.90991 375.399031 
L 585.484685 370.871015 
L 588.165766 367.768419 
L 590.846847 364.953322 
L 593.527928 362.454879 
L 596.209009 360.29892 
L 598.89009 358.50769 
L 600.677477 357.525425 
L 602.464865 356.718008 
L 604.252252 356.089103 
L 606.03964 355.641541 
L 607.827027 355.377312 
L 609.614414 355.297556 
L 611.401802 355.402555 
L 613.189189 355.691733 
L 614.976577 356.163662 
L 616.763964 356.816065 
L 618.551351 357.645831 
L 620.338739 358.649024 
L 623.01982 360.468418 
L 625.700901 362.647938 
L 628.381982 365.164593 
L 631.063063 367.991897 
L 633.744144 371.10014 
L 637.318919 375.62474 
L 640.893694 380.506293 
L 645.362162 386.971482 
L 661.448649 410.746543 
L 665.023423 415.529925 
L 668.598198 419.931741 
L 671.279279 422.933717 
L 673.96036 425.644383 
L 676.641441 428.03582 
L 679.322523 430.083469 
L 682.003604 431.766382 
L 683.790991 432.677077 
L 685.578378 433.413885 
L 687.365766 433.973528 
L 689.153153 434.353548 
L 690.940541 434.552325 
L 692.727928 434.569079 
L 694.515315 434.403876 
L 696.302703 434.057627 
L 698.09009 433.53208 
L 699.877477 432.829814 
L 701.664865 431.954227 
L 704.345946 430.325264 
L 707.027027 428.333395 
L 709.708108 425.99982 
L 712.389189 423.349278 
L 715.07027 420.409781 
L 718.645045 416.094916 
L 722.21982 411.402372 
L 726.688288 405.139363 
L 733.837838 394.632992 
L 740.987387 384.210314 
L 745.455856 378.081315 
L 749.030631 373.536977 
L 752.605405 369.402413 
L 755.286486 366.616235 
L 757.967568 364.131881 
L 760.648649 361.974753 
L 763.32973 360.1668 
L 766.010811 358.726294 
L 767.798198 357.977376 
L 769.585586 357.401542 
L 771.372973 357.001272 
L 773.16036 356.77823 
L 774.947748 356.733255 
L 776.735135 356.866358 
L 778.522523 357.176727 
L 780.30991 357.662726 
L 782.097297 358.321908 
L 783.884685 359.151024 
L 786.565766 360.704295 
L 789.246847 362.613853 
L 791.927928 364.8592 
L 794.609009 367.416372 
L 797.29009 370.258195 
L 800.864865 374.437687 
L 804.43964 378.991057 
L 808.908108 385.078374 
L 816.057658 395.310981 
L 823.207207 405.486157 
L 827.675676 411.482164 
L 831.25045 415.93554 
L 834.825225 419.994903 
L 837.506306 422.736009 
L 840.187387 425.185659 
L 842.868468 427.318939 
L 845.54955 429.114282 
L 848.230631 430.553691 
L 850.018018 431.308359 
L 851.805405 431.895155 
L 853.592793 432.311593 
L 855.38018 432.555985 
L 857.167568 432.62744 
L 858.954955 432.525872 
L 860.742342 432.251996 
L 862.52973 431.807327 
L 864.317117 431.194169 
L 866.104505 430.415603 
L 868.785586 428.946229 
L 871.466667 427.129603 
L 874.147748 424.985398 
L 876.828829 422.53666 
L 879.50991 419.80956 
L 883.084685 415.790934 
L 886.659459 411.40494 
L 891.127928 405.531562 
L 897.383784 396.888246 
L 905.427027 385.776991 
L 909.895495 379.953908 
L 913.47027 375.621624 
L 917.045045 371.665399 
L 919.726126 368.98858 
L 922.407207 366.591154 
L 925.088288 364.49738 
L 927.769369 362.728292 
L 930.45045 361.301486 
L 933.131532 360.230948 
L 934.918919 359.720394 
L 936.706306 359.374895 
L 938.493694 359.195767 
L 940.281081 359.183554 
L 942.068468 359.338023 
L 943.855856 359.658171 
L 945.643243 360.142226 
L 947.430631 360.78766 
L 950.111712 362.051042 
L 952.792793 363.655905 
L 955.473874 365.584637 
L 958.154955 367.816298 
L 960.836036 370.326845 
L 963.517117 373.089393 
L 967.091892 377.113583 
L 970.666667 381.457364 
L 976.028829 388.392916 
L 990.327928 407.271141 
L 994.796396 412.64123 
L 998.371171 416.56446 
L 1001.052252 419.242091 
L 1003.733333 421.66231 
L 1006.414414 423.80069 
L 1009.095495 425.635811 
L 1011.776577 427.149479 
L 1014.457658 428.326905 
L 1017.138739 429.156847 
L 1018.926126 429.513196 
L 1020.713514 429.71033 
L 1022.500901 429.74766 
L 1024.288288 429.625339 
L 1026.075676 429.34426 
L 1027.863063 428.90605 
L 1030.544144 427.959458 
L 1033.225225 426.675713 
L 1035.906306 425.069226 
L 1036.8 424.464982 
L 1036.8 424.464982 
" clip-path="url(#p5c697b0ff0)" style="fill: none; stroke-dasharray: 9.6,2.4,1.5,2.4; stroke-dashoffset: 0; stroke: #ff0000; stroke-width: 1.5"/>
   </g>
   <g id="line2d_25">
    <path d="M 149.603593 346.149306 
L 166.483683 397.047954 
L 166.483683 384.906526 
L 183.363772 401.352805 
L 183.363772 464.89116 
L 200.243862 442.522247 
L 200.243862 416.317621 
L 217.123952 423.452061 
L 217.123952 407.611147 
L 234.004042 387.982315 
L 234.004042 394.792803 
L 250.884132 370.133265 
L 250.884132 326.765855 
L 267.764221 371.570319 
L 267.764221 377.763456 
L 284.644311 360.044934 
L 284.644311 341.392847 
L 301.524401 330.45582 
L 301.524401 362.164862 
L 318.404491 388.023711 
L 318.404491 450.155663 
L 335.284581 437.977497 
L 335.284581 407.203121 
L 352.164671 389.563076 
L 352.164671 449.022272 
L 369.04476 503.476364 
L 369.04476 473.762048 
L 385.92485 441.196243 
L 385.92485 444.362987 
L 402.80494 392.27801 
L 402.80494 364.169912 
L 419.68503 380.956661 
L 419.68503 359.588346 
L 436.56512 374.671889 
L 436.56512 388.926162 
L 453.445209 359.104286 
L 453.445209 353.377762 
L 470.325299 365.461792 
L 470.325299 375.891561 
L 487.205389 377.717603 
L 487.205389 409.713471 
L 504.085479 412.48581 
L 504.085479 377.459841 
L 520.965569 378.855084 
L 520.965569 413.840995 
L 537.845659 399.116556 
L 537.845659 370.253669 
L 554.725748 387.136923 
L 554.725748 441.544908 
L 571.605838 413.873328 
L 571.605838 410.643362 
L 588.485928 355.644117 
L 588.485928 353.280158 
L 605.366018 376.452974 
L 605.366018 363.055348 
L 622.246108 389.193238 
L 622.246108 396.846173 
L 639.126197 387.00407 
L 639.126197 403.784107 
L 656.006287 429.401604 
L 656.006287 439.612803 
L 672.886377 435.759298 
L 672.886377 424.605994 
L 689.766467 443.178317 
L 689.766467 476.539789 
L 706.646557 447.574335 
L 706.646557 430.642263 
L 723.526647 441.896341 
L 723.526647 413.747612 
L 740.406736 359.050656 
L 740.406736 358.45168 
L 757.286826 320.203636 
L 757.286826 326.111671 
L 774.166916 324.854803 
L 774.166916 322.50921 
L 791.047006 336.7931 
L 791.047006 348.530028 
L 807.927096 372.272439 
L 807.927096 390.330568 
L 824.807185 399.021864 
L 824.807185 424.311637 
L 841.687275 435.564873 
L 841.687275 464.643715 
L 858.567365 397.31686 
L 858.567365 409.916918 
L 875.447455 454.933552 
L 875.447455 411.386475 
L 892.327545 441.163344 
L 892.327545 417.934631 
L 909.207634 402.334369 
L 909.207634 395.146183 
L 926.087724 390.09176 
L 926.087724 374.739824 
L 942.967814 365.842824 
L 942.967814 352.734477 
L 959.847904 390.647271 
L 959.847904 406.711499 
L 976.727994 384.455237 
L 976.727994 380.057062 
L 993.608084 385.753952 
L 993.608084 394.097018 
L 1010.488173 432.461605 
" clip-path="url(#p5c697b0ff0)" style="fill: none; stroke: #808080; stroke-width: 1.5; stroke-linecap: square"/>
    <defs>
     <path id="mef5c901471" d="M 0 3 
C 0.795609 3 1.55874 2.683901 2.12132 2.12132 
C 2.683901 1.55874 3 0.795609 3 0 
C 3 -0.795609 2.683901 -1.55874 2.12132 -2.12132 
C 1.55874 -2.683901 0.795609 -3 0 -3 
C -0.795609 -3 -1.55874 -2.683901 -2.12132 -2.12132 
C -2.683901 -1.55874 -3 -0.795609 -3 0 
C -3 0.795609 -2.683901 1.55874 -2.12132 2.12132 
C -1.55874 2.683901 -0.795609 3 0 3 
z
" style="stroke: #808080"/>
    </defs>
    <g clip-path="url(#p5c697b0ff0)">
     <use xlink:href="#mef5c901471" x="149.603593" y="346.149306" style="fill: #808080; stroke: #808080"/>
     <use xlink:href="#mef5c901471" x="166.483683" y="397.047954" style="fill: #808080; stroke: #808080"/>
     <use xlink:href="#mef5c901471" x="166.483683" y="384.906526" style="fill: #808080; stroke: #808080"/>
     <use xlink:href="#mef5c901471" x="183.363772" y="401.352805" style="fill: #808080; stroke: #808080"/>
     <use xlink:href="#mef5c901471" x="183.363772" y="464.89116" style="fill: #808080; stroke: #808080"/>
     <use xlink:href="#mef5c901471" x="200.243862" y="442.522247" style="fill: #808080; stroke: #808080"/>
     <use xlink:href="#mef5c901471" x="200.243862" y="416.317621" style="fill: #808080; stroke: #808080"/>
     <use xlink:href="#mef5c901471" x="217.123952" y="423.452061" style="fill: #808080; stroke: #808080"/>
     <use xlink:href="#mef5c901471" x="217.123952" y="407.611147" style="fill: #808080; stroke: #808080"/>
     <use xlink:href="#mef5c901471" x="234.004042" y="387.982315" style="fill: #808080; stroke: #808080"/>
     <use xlink:href="#mef5c901471" x="234.004042" y="394.792803" style="fill: #808080; stroke: #808080"/>
     <use xlink:href="#mef5c901471" x="250.884132" y="370.133265" style="fill: #808080; stroke: #808080"/>
     <use xlink:href="#mef5c901471" x="250.884132" y="326.765855" style="fill: #808080; stroke: #808080"/>
     <use xlink:href="#mef5c901471" x="267.764221" y="371.570319" style="fill: #808080; stroke: #808080"/>
     <use xlink:href="#mef5c901471" x="267.764221" y="377.763456" style="fill: #808080; stroke: #808080"/>
     <use xlink:href="#mef5c901471" x="284.644311" y="360.044934" style="fill: #808080; stroke: #808080"/>
     <use xlink:href="#mef5c901471" x="284.644311" y="341.392847" style="fill: #808080; stroke: #808080"/>
     <use xlink:href="#mef5c901471" x="301.524401" y="330.45582" style="fill: #808080; stroke: #808080"/>
     <use xlink:href="#mef5c901471" x="301.524401" y="362.164862" style="fill: #808080; stroke: #808080"/>
     <use xlink:href="#mef5c901471" x="318.404491" y="388.023711" style="fill: #808080; stroke: #808080"/>
     <use xlink:href="#mef5c901471" x="318.404491" y="450.155663" style="fill: #808080; stroke: #808080"/>
     <use xlink:href="#mef5c901471" x="335.284581" y="437.977497" style="fill: #808080; stroke: #808080"/>
     <use xlink:href="#mef5c901471" x="335.284581" y="407.203121" style="fill: #808080; stroke: #808080"/>
     <use xlink:href="#mef5c901471" x="352.164671" y="389.563076" style="fill: #808080; stroke: #808080"/>
     <use xlink:href="#mef5c901471" x="352.164671" y="449.022272" style="fill: #808080; stroke: #808080"/>
     <use xlink:href="#mef5c901471" x="369.04476" y="503.476364" style="fill: #808080; stroke: #808080"/>
     <use xlink:href="#mef5c901471" x="369.04476" y="473.762048" style="fill: #808080; stroke: #808080"/>
     <use xlink:href="#mef5c901471" x="385.92485" y="441.196243" style="fill: #808080; stroke: #808080"/>
     <use xlink:href="#mef5c901471" x="385.92485" y="444.362987" style="fill: #808080; stroke: #808080"/>
     <use xlink:href="#mef5c901471" x="402.80494" y="392.27801" style="fill: #808080; stroke: #808080"/>
     <use xlink:href="#mef5c901471" x="402.80494" y="364.169912" style="fill: #808080; stroke: #808080"/>
     <use xlink:href="#mef5c901471" x="419.68503" y="380.956661" style="fill: #808080; stroke: #808080"/>
     <use xlink:href="#mef5c901471" x="419.68503" y="359.588346" style="fill: #808080; stroke: #808080"/>
     <use xlink:href="#mef5c901471" x="436.56512" y="374.671889" style="fill: #808080; stroke: #808080"/>
     <use xlink:href="#mef5c901471" x="436.56512" y="388.926162" style="fill: #808080; stroke: #808080"/>
     <use xlink:href="#mef5c901471" x="453.445209" y="359.104286" style="fill: #808080; stroke: #808080"/>
     <use xlink:href="#mef5c901471" x="453.445209" y="353.377762" style="fill: #808080; stroke: #808080"/>
     <use xlink:href="#mef5c901471" x="470.325299" y="365.461792" style="fill: #808080; stroke: #808080"/>
     <use xlink:href="#mef5c901471" x="470.325299" y="375.891561" style="fill: #808080; stroke: #808080"/>
     <use xlink:href="#mef5c901471" x="487.205389" y="377.717603" style="fill: #808080; stroke: #808080"/>
     <use xlink:href="#mef5c901471" x="487.205389" y="409.713471" style="fill: #808080; stroke: #808080"/>
     <use xlink:href="#mef5c901471" x="504.085479" y="412.48581" style="fill: #808080; stroke: #808080"/>
     <use xlink:href="#mef5c901471" x="504.085479" y="377.459841" style="fill: #808080; stroke: #808080"/>
     <use xlink:href="#mef5c901471" x="520.965569" y="378.855084" style="fill: #808080; stroke: #808080"/>
     <use xlink:href="#mef5c901471" x="520.965569" y="413.840995" style="fill: #808080; stroke: #808080"/>
     <use xlink:href="#mef5c901471" x="537.845659" y="399.116556" style="fill: #808080; stroke: #808080"/>
     <use xlink:href="#mef5c901471" x="537.845659" y="370.253669" style="fill: #808080; stroke: #808080"/>
     <use xlink:href="#mef5c901471" x="554.725748" y="387.136923" style="fill: #808080; stroke: #808080"/>
     <use xlink:href="#mef5c901471" x="554.725748" y="441.544908" style="fill: #808080; stroke: #808080"/>
     <use xlink:href="#mef5c901471" x="571.605838" y="413.873328" style="fill: #808080; stroke: #808080"/>
     <use xlink:href="#mef5c901471" x="571.605838" y="410.643362" style="fill: #808080; stroke: #808080"/>
     <use xlink:href="#mef5c901471" x="588.485928" y="355.644117" style="fill: #808080; stroke: #808080"/>
     <use xlink:href="#mef5c901471" x="588.485928" y="353.280158" style="fill: #808080; stroke: #808080"/>
     <use xlink:href="#mef5c901471" x="605.366018" y="376.452974" style="fill: #808080; stroke: #808080"/>
     <use xlink:href="#mef5c901471" x="605.366018" y="363.055348" style="fill: #808080; stroke: #808080"/>
     <use xlink:href="#mef5c901471" x="622.246108" y="389.193238" style="fill: #808080; stroke: #808080"/>
     <use xlink:href="#mef5c901471" x="622.246108" y="396.846173" style="fill: #808080; stroke: #808080"/>
     <use xlink:href="#mef5c901471" x="639.126197" y="387.00407" style="fill: #808080; stroke: #808080"/>
     <use xlink:href="#mef5c901471" x="639.126197" y="403.784107" style="fill: #808080; stroke: #808080"/>
     <use xlink:href="#mef5c901471" x="656.006287" y="429.401604" style="fill: #808080; stroke: #808080"/>
     <use xlink:href="#mef5c901471" x="656.006287" y="439.612803" style="fill: #808080; stroke: #808080"/>
     <use xlink:href="#mef5c901471" x="672.886377" y="435.759298" style="fill: #808080; stroke: #808080"/>
     <use xlink:href="#mef5c901471" x="672.886377" y="424.605994" style="fill: #808080; stroke: #808080"/>
     <use xlink:href="#mef5c901471" x="689.766467" y="443.178317" style="fill: #808080; stroke: #808080"/>
     <use xlink:href="#mef5c901471" x="689.766467" y="476.539789" style="fill: #808080; stroke: #808080"/>
     <use xlink:href="#mef5c901471" x="706.646557" y="447.574335" style="fill: #808080; stroke: #808080"/>
     <use xlink:href="#mef5c901471" x="706.646557" y="430.642263" style="fill: #808080; stroke: #808080"/>
     <use xlink:href="#mef5c901471" x="723.526647" y="441.896341" style="fill: #808080; stroke: #808080"/>
     <use xlink:href="#mef5c901471" x="723.526647" y="413.747612" style="fill: #808080; stroke: #808080"/>
     <use xlink:href="#mef5c901471" x="740.406736" y="359.050656" style="fill: #808080; stroke: #808080"/>
     <use xlink:href="#mef5c901471" x="740.406736" y="358.45168" style="fill: #808080; stroke: #808080"/>
     <use xlink:href="#mef5c901471" x="757.286826" y="320.203636" style="fill: #808080; stroke: #808080"/>
     <use xlink:href="#mef5c901471" x="757.286826" y="326.111671" style="fill: #808080; stroke: #808080"/>
     <use xlink:href="#mef5c901471" x="774.166916" y="324.854803" style="fill: #808080; stroke: #808080"/>
     <use xlink:href="#mef5c901471" x="774.166916" y="322.50921" style="fill: #808080; stroke: #808080"/>
     <use xlink:href="#mef5c901471" x="791.047006" y="336.7931" style="fill: #808080; stroke: #808080"/>
     <use xlink:href="#mef5c901471" x="791.047006" y="348.530028" style="fill: #808080; stroke: #808080"/>
     <use xlink:href="#mef5c901471" x="807.927096" y="372.272439" style="fill: #808080; stroke: #808080"/>
     <use xlink:href="#mef5c901471" x="807.927096" y="390.330568" style="fill: #808080; stroke: #808080"/>
     <use xlink:href="#mef5c901471" x="824.807185" y="399.021864" style="fill: #808080; stroke: #808080"/>
     <use xlink:href="#mef5c901471" x="824.807185" y="424.311637" style="fill: #808080; stroke: #808080"/>
     <use xlink:href="#mef5c901471" x="841.687275" y="435.564873" style="fill: #808080; stroke: #808080"/>
     <use xlink:href="#mef5c901471" x="841.687275" y="464.643715" style="fill: #808080; stroke: #808080"/>
     <use xlink:href="#mef5c901471" x="858.567365" y="397.31686" style="fill: #808080; stroke: #808080"/>
     <use xlink:href="#mef5c901471" x="858.567365" y="409.916918" style="fill: #808080; stroke: #808080"/>
     <use xlink:href="#mef5c901471" x="875.447455" y="454.933552" style="fill: #808080; stroke: #808080"/>
     <use xlink:href="#mef5c901471" x="875.447455" y="411.386475" style="fill: #808080; stroke: #808080"/>
     <use xlink:href="#mef5c901471" x="892.327545" y="441.163344" style="fill: #808080; stroke: #808080"/>
     <use xlink:href="#mef5c901471" x="892.327545" y="417.934631" style="fill: #808080; stroke: #808080"/>
     <use xlink:href="#mef5c901471" x="909.207634" y="402.334369" style="fill: #808080; stroke: #808080"/>
     <use xlink:href="#mef5c901471" x="909.207634" y="395.146183" style="fill: #808080; stroke: #808080"/>
     <use xlink:href="#mef5c901471" x="926.087724" y="390.09176" style="fill: #808080; stroke: #808080"/>
     <use xlink:href="#mef5c901471" x="926.087724" y="374.739824" style="fill: #808080; stroke: #808080"/>
     <use xlink:href="#mef5c901471" x="942.967814" y="365.842824" style="fill: #808080; stroke: #808080"/>
     <use xlink:href="#mef5c901471" x="942.967814" y="352.734477" style="fill: #808080; stroke: #808080"/>
     <use xlink:href="#mef5c901471" x="959.847904" y="390.647271" style="fill: #808080; stroke: #808080"/>
     <use xlink:href="#mef5c901471" x="959.847904" y="406.711499" style="fill: #808080; stroke: #808080"/>
     <use xlink:href="#mef5c901471" x="976.727994" y="384.455237" style="fill: #808080; stroke: #808080"/>
     <use xlink:href="#mef5c901471" x="976.727994" y="380.057062" style="fill: #808080; stroke: #808080"/>
     <use xlink:href="#mef5c901471" x="993.608084" y="385.753952" style="fill: #808080; stroke: #808080"/>
     <use xlink:href="#mef5c901471" x="993.608084" y="394.097018" style="fill: #808080; stroke: #808080"/>
     <use xlink:href="#mef5c901471" x="1010.488173" y="432.461605" style="fill: #808080; stroke: #808080"/>
    </g>
   </g>
   <g id="patch_9">
    <path d="M 144 512.64 
L 144 311.04 
" style="fill: none; stroke: #000000; stroke-width: 1.5; stroke-linejoin: miter; stroke-linecap: square"/>
   </g>
   <g id="patch_10">
    <path d="M 1036.8 512.64 
L 1036.8 311.04 
" style="fill: none; stroke: #000000; stroke-width: 1.5; stroke-linejoin: miter; stroke-linecap: square"/>
   </g>
   <g id="patch_11">
    <path d="M 144 512.64 
L 1036.8 512.64 
" style="fill: none; stroke: #000000; stroke-width: 1.5; stroke-linejoin: miter; stroke-linecap: square"/>
   </g>
   <g id="patch_12">
    <path d="M 144 311.04 
L 1036.8 311.04 
" style="fill: none; stroke: #000000; stroke-width: 1.5; stroke-linejoin: miter; stroke-linecap: square"/>
   </g>
   <g id="legend_2">
    <g id="patch_13">
     <path d="M 865.86 370.81 
L 1025.6 370.81 
Q 1028.8 370.81 1028.8 367.61 
L 1028.8 322.24 
Q 1028.8 319.04 1025.6 319.04 
L 865.86 319.04 
Q 862.66 319.04 862.66 322.24 
L 862.66 367.61 
Q 862.66 370.81 865.86 370.81 
z
" style="fill: #ffffff; opacity: 0.8; stroke: #cccccc; stroke-linejoin: miter"/>
    </g>
    <g id="line2d_26">
     <path d="M 869.06 331.9975 
L 885.06 331.9975 
L 901.06 331.9975 
" style="fill: none; stroke-dasharray: 9.6,2.4,1.5,2.4; stroke-dashoffset: 0; stroke: #ff0000; stroke-width: 1.5"/>
    </g>
    <g id="text_25">
     <!-- Pumped Fit -->
     <g transform="translate(913.86 337.5975) scale(0.16 -0.16)">
      <defs>
       <path id="DejaVuSans-50" d="M 1259 4147 
L 1259 2394 
L 2053 2394 
Q 2494 2394 2734 2622 
Q 2975 2850 2975 3272 
Q 2975 3691 2734 3919 
Q 2494 4147 2053 4147 
L 1259 4147 
z
M 628 4666 
L 2053 4666 
Q 2838 4666 3239 4311 
Q 3641 3956 3641 3272 
Q 3641 2581 3239 2228 
Q 2838 1875 2053 1875 
L 1259 1875 
L 1259 0 
L 628 0 
L 628 4666 
z
" transform="scale(0.015625)"/>
      </defs>
      <use xlink:href="#DejaVuSans-50"/>
      <use xlink:href="#DejaVuSans-75" transform="translate(58.552734 0)"/>
      <use xlink:href="#DejaVuSans-6d" transform="translate(121.931641 0)"/>
      <use xlink:href="#DejaVuSans-70" transform="translate(219.34375 0)"/>
      <use xlink:href="#DejaVuSans-65" transform="translate(282.820312 0)"/>
      <use xlink:href="#DejaVuSans-64" transform="translate(344.34375 0)"/>
      <use xlink:href="#DejaVuSans-20" transform="translate(407.820312 0)"/>
      <use xlink:href="#DejaVuSans-46" transform="translate(439.607422 0)"/>
      <use xlink:href="#DejaVuSans-69" transform="translate(489.876953 0)"/>
      <use xlink:href="#DejaVuSans-74" transform="translate(517.660156 0)"/>
     </g>
    </g>
    <g id="line2d_27">
     <path d="M 869.06 355.4825 
L 885.06 355.4825 
L 901.06 355.4825 
" style="fill: none; stroke: #808080; stroke-width: 1.5; stroke-linecap: square"/>
     <g>
      <use xlink:href="#mef5c901471" x="885.06" y="355.4825" style="fill: #808080; stroke: #808080"/>
     </g>
    </g>
    <g id="text_26">
     <!-- Pumped Data -->
     <g transform="translate(913.86 361.0825) scale(0.16 -0.16)">
      <use xlink:href="#DejaVuSans-50"/>
      <use xlink:href="#DejaVuSans-75" transform="translate(58.552734 0)"/>
      <use xlink:href="#DejaVuSans-6d" transform="translate(121.931641 0)"/>
      <use xlink:href="#DejaVuSans-70" transform="translate(219.34375 0)"/>
      <use xlink:href="#DejaVuSans-65" transform="translate(282.820312 0)"/>
      <use xlink:href="#DejaVuSans-64" transform="translate(344.34375 0)"/>
      <use xlink:href="#DejaVuSans-20" transform="translate(407.820312 0)"/>
      <use xlink:href="#DejaVuSans-44" transform="translate(439.607422 0)"/>
      <use xlink:href="#DejaVuSans-61" transform="translate(516.609375 0)"/>
      <use xlink:href="#DejaVuSans-74" transform="translate(577.888672 0)"/>
      <use xlink:href="#DejaVuSans-61" transform="translate(617.097656 0)"/>
     </g>
    </g>
   </g>
  </g>
 </g>
 <defs>
  <clipPath id="p773d32c5bf">
   <rect x="144" y="69.12" width="892.8" height="201.6"/>
  </clipPath>
  <clipPath id="p5c697b0ff0">
   <rect x="144" y="311.04" width="892.8" height="201.6"/>
  </clipPath>
 </defs>
</svg>
