<?xml version="1.0" encoding="UTF-8" standalone="no"?>
<svg
   width="1150pt"
   height="650pt"
   viewBox="0 0 1150 650.00001"
   version="1.1"
   id="svg105"
   sodipodi:docname="Theory_Phase.svg"
   inkscape:version="1.4.2 (f4327f4, 2025-05-13)"
   inkscape:export-filename="Exports\Theory_Phase.pdf"
   inkscape:export-xdpi="96"
   inkscape:export-ydpi="96"
   xmlns:inkscape="http://www.inkscape.org/namespaces/inkscape"
   xmlns:sodipodi="http://sodipodi.sourceforge.net/DTD/sodipodi-0.dtd"
   xmlns:xlink="http://www.w3.org/1999/xlink"
   xmlns="http://www.w3.org/2000/svg"
   xmlns:svg="http://www.w3.org/2000/svg"
   xmlns:rdf="http://www.w3.org/1999/02/22-rdf-syntax-ns#"
   xmlns:cc="http://creativecommons.org/ns#"
   xmlns:dc="http://purl.org/dc/elements/1.1/">
  <sodipodi:namedview
     id="namedview105"
     pagecolor="#ffffff"
     bordercolor="#000000"
     borderopacity="0.25"
     inkscape:showpageshadow="2"
     inkscape:pageopacity="0.0"
     inkscape:pagecheckerboard="0"
     inkscape:deskcolor="#d1d1d1"
     inkscape:document-units="pt"
     inkscape:zoom="0.61469664"
     inkscape:cx="407.51809"
     inkscape:cy="290.38714"
     inkscape:window-width="1920"
     inkscape:window-height="1009"
     inkscape:window-x="-8"
     inkscape:window-y="-8"
     inkscape:window-maximized="1"
     inkscape:current-layer="axes_1" />
  <metadata
     id="metadata1">
    <rdf:RDF>
      <cc:Work>
        <dc:type
           rdf:resource="http://purl.org/dc/dcmitype/StillImage" />
        <dc:date>2025-09-07T19:08:15.729483</dc:date>
        <dc:format>image/svg+xml</dc:format>
        <dc:creator>
          <cc:Agent>
            <dc:title>Matplotlib v3.10.5, https://matplotlib.org/</dc:title>
          </cc:Agent>
        </dc:creator>
      </cc:Work>
    </rdf:RDF>
  </metadata>
  <defs
     id="defs1">
    <style
       type="text/css"
       id="style1">*{stroke-linejoin: round; stroke-linecap: butt}</style>
  </defs>
  <g
     id="figure_1">
    <g
       id="axes_1">
      <g
         id="axes_2"
         transform="translate(-124.5,-21)">
        <g
           id="patch_3">
          <path
             d="m 1207.674,631.61217 v 0 -598.97592 0 z"
             style="fill:#ffffff"
             id="path3" />
        </g>
        <g
           id="matplotlib.axis_1" />
        <g
           id="matplotlib.axis_2">
          <g
             id="ytick_1">
            <g
               id="line2d_1">
              <defs
                 id="defs3">
                <path
                   id="m0ceb788768"
                   d="M 0,0 H -3.5"
                   style="stroke:#ff0000;stroke-width:0.8" />
              </defs>
              <g
                 id="g3">
                <use
                   xlink:href="#m0ceb788768"
                   x="1207.674"
                   y="631.61218"
                   style="fill:#ff0000;stroke:#ff0000;stroke-width:0.8"
                   id="use3" />
              </g>
            </g>
            <g
               id="text_1">
              <!-- 0.0 -->
              <g
                 style="fill:#ff0000"
                 transform="matrix(0.12,0,0,-0.12,1211.174,636.17123)"
                 id="g6">
                <defs
                   id="defs4">
                  <path
                     id="DejaVuSans-30"
                     d="m 2034,4250 q -487,0 -733,-480 -245,-479 -245,-1442 0,-959 245,-1439 246,-480 733,-480 491,0 736,480 246,480 246,1439 0,963 -246,1442 -245,480 -736,480 z m 0,500 q 785,0 1199,-621 414,-620 414,-1801 0,-1178 -414,-1799 -414,-620 -1199,-620 -784,0 -1198,620 -414,621 -414,1799 0,1181 414,1801 414,621 1198,621 z"
                     transform="scale(0.015625)" />
                  <path
                     id="DejaVuSans-2e"
                     d="m 684,794 h 660 V 0 H 684 Z"
                     transform="scale(0.015625)" />
                </defs>
                <use
                   xlink:href="#DejaVuSans-30"
                   id="use4" />
                <use
                   xlink:href="#DejaVuSans-2e"
                   transform="translate(63.623047)"
                   id="use5" />
                <use
                   xlink:href="#DejaVuSans-30"
                   transform="translate(95.410156)"
                   id="use6" />
              </g>
            </g>
          </g>
          <g
             id="ytick_6">
            <g
               id="line2d_6">
              <g
                 id="g23">
                <use
                   xlink:href="#m0ceb788768"
                   x="1207.674"
                   y="32.63625"
                   style="fill:#ff0000;stroke:#ff0000;stroke-width:0.8"
                   id="use23" />
              </g>
            </g>
            <g
               id="text_6">
              <!-- 1.0 -->
              <g
                 style="fill:#ff0000"
                 transform="matrix(0.12,0,0,-0.12,1211.174,37.195312)"
                 id="g26">
                <defs
                   id="defs23">
                  <path
                     id="DejaVuSans-31"
                     d="M 794,531 H 1825 V 4091 L 703,3866 v 575 l 1116,225 h 631 V 531 H 3481 V 0 H 794 Z"
                     transform="scale(0.015625)" />
                </defs>
                <use
                   xlink:href="#DejaVuSans-31"
                   id="use24" />
                <use
                   xlink:href="#DejaVuSans-2e"
                   transform="translate(63.623047)"
                   id="use25" />
                <use
                   xlink:href="#DejaVuSans-30"
                   transform="translate(95.410156)"
                   id="use26" />
              </g>
            </g>
          </g>
          <g
             id="text_7">
            <!-- $\Theta_{CEP,ins}$ ($\pi$ radians) -->
            <g
               style="fill:#ff0000"
               transform="matrix(0,-0.18,-0.18,0,1247.9378,415.55421)"
               id="g46">
              <defs
                 id="defs26">
                <path
                   id="DejaVuSans-398"
                   d="M 1416,2750 H 3622 V 2219 H 1416 Z m 1106,1488 q -688,0 -1091,-513 -406,-512 -406,-1397 0,-881 404,-1394 405,-512 1093,-512 687,0 1091,512 400,513 400,1394 0,885 -400,1397 -404,513 -1091,513 z m 0,512 q 981,0 1568,-658 588,-658 588,-1764 0,-1103 -587,-1759 -588,-660 -1569,-660 -984,0 -1572,657 -591,656 -591,1762 0,1106 591,1766 588,656 1572,656 z"
                   transform="scale(0.015625)" />
                <path
                   id="DejaVuSans-Oblique-43"
                   d="m 4447,4306 -128,-665 q -300,303 -636,450 -336,147 -727,147 -534,0 -939,-257 -404,-256 -698,-781 -188,-337 -287,-714 -98,-377 -98,-758 0,-637 330,-972 330,-334 958,-334 434,0 834,139 400,139 778,417 L 3688,231 Q 3316,72 2936,-9 2556,-91 2175,-91 1278,-91 773,396 269,884 269,1753 q 0,556 192,1093 192,538 552,982 381,472 870,697 489,225 1139,225 400,0 758,-111 358,-111 667,-333 z"
                   transform="scale(0.015625)" />
                <path
                   id="DejaVuSans-Oblique-45"
                   d="M 1081,4666 H 4031 L 3928,4134 H 1606 L 1338,2753 H 3566 L 3463,2222 H 1234 L 909,531 H 3284 L 3181,0 H 172 Z"
                   transform="scale(0.015625)" />
                <path
                   id="DejaVuSans-Oblique-50"
                   d="m 1081,4666 h 1460 q 637,0 971,-297 335,-297 335,-869 0,-769 -494,-1197 -494,-428 -1387,-428 H 1172 L 806,0 H 172 Z m 532,-519 -338,-1753 h 794 q 537,0 824,275 288,275 288,787 0,328 -195,509 -195,182 -548,182 z"
                   transform="scale(0.015625)" />
                <path
                   id="DejaVuSans-2c"
                   d="m 750,794 h 659 V 256 L 897,-744 H 494 L 750,256 Z"
                   transform="scale(0.015625)" />
                <path
                   id="DejaVuSans-Oblique-69"
                   d="m 1172,4863 h 575 L 1606,4134 H 1031 Z M 909,3500 h 575 L 800,0 H 225 Z"
                   transform="scale(0.015625)" />
                <path
                   id="DejaVuSans-Oblique-6e"
                   d="M 3566,2113 3156,0 h -578 l 410,2091 q 28,147 43,259 16,113 16,178 0,263 -166,409 -165,147 -462,147 -463,0 -797,-308 -334,-307 -438,-835 L 800,0 H 225 l 678,3500 h 575 l -115,-550 q 240,303 577,468 338,166 710,166 463,0 717,-250 255,-250 255,-703 0,-112 -14,-240 -14,-128 -42,-278 z"
                   transform="scale(0.015625)" />
                <path
                   id="DejaVuSans-Oblique-73"
                   d="m 3200,3397 -109,-544 q -228,125 -482,187 -253,63 -521,63 -454,0 -715,-155 -260,-154 -260,-420 0,-309 606,-475 47,-12 69,-19 l 184,-56 q 575,-159 767,-334 192,-175 192,-478 0,-557 -442,-907 Q 2047,-91 1331,-91 1053,-91 747,-37 441,16 72,128 l 112,594 q 316,-163 622,-247 307,-84 588,-84 422,0 686,181 264,181 264,459 0,300 -694,485 l -59,15 -197,50 q -438,116 -641,305 -203,189 -203,483 0,559 420,887 421,328 1143,328 284,0 554,-47 271,-46 533,-140 z"
                   transform="scale(0.015625)" />
                <path
                   id="DejaVuSans-20"
                   transform="scale(0.015625)" />
                <path
                   id="DejaVuSans-28"
                   d="m 1984,4856 q -418,-718 -622,-1422 -203,-703 -203,-1425 0,-721 205,-1429 205,-708 620,-1424 h -500 q -468,735 -701,1444 -233,709 -233,1409 0,697 231,1403 232,707 703,1444 z"
                   transform="scale(0.015625)" />
                <path
                   id="DejaVuSans-Oblique-3c0"
                   d="M 584,3500 H 3938 L 3825,2925 H 3384 L 2966,775 q -44,-225 15,-325 57,-97 228,-97 47,0 116,10 72,6 94,9 l -81,-416 q -116,-40 -235,-59 -122,-19 -237,-19 -375,0 -478,203 -104,207 3,757 l 406,2087 H 1506 L 938,0 H 350 L 919,2925 H 472 Z"
                   transform="scale(0.015625)" />
                <path
                   id="DejaVuSans-72"
                   d="m 2631,2963 q -97,56 -211,82 -114,27 -251,27 -488,0 -749,-317 -261,-317 -261,-911 V 0 H 581 v 3500 h 578 v -544 q 182,319 472,473 291,155 707,155 59,0 131,-8 72,-7 159,-23 z"
                   transform="scale(0.015625)" />
                <path
                   id="DejaVuSans-61"
                   d="m 2194,1759 q -697,0 -966,-159 -269,-159 -269,-544 0,-306 202,-486 202,-179 548,-179 479,0 768,339 289,339 289,901 v 128 z m 1147,238 V 0 H 2766 V 531 Q 2569,213 2275,61 1981,-91 1556,-91 q -537,0 -855,302 -317,302 -317,808 0,590 395,890 396,300 1180,300 h 807 v 57 q 0,397 -261,614 -261,217 -733,217 -300,0 -585,-72 -284,-72 -546,-216 v 532 q 315,122 612,182 297,61 578,61 760,0 1135,-394 375,-393 375,-1193 z"
                   transform="scale(0.015625)" />
                <path
                   id="DejaVuSans-64"
                   d="m 2906,2969 v 1894 h 575 V 0 H 2906 V 525 Q 2725,213 2448,61 2172,-91 1784,-91 1150,-91 751,415 353,922 353,1747 q 0,825 398,1331 399,506 1033,506 388,0 664,-152 277,-151 458,-463 z M 947,1747 q 0,-634 261,-995 261,-361 717,-361 456,0 718,361 263,361 263,995 0,634 -263,995 -262,361 -718,361 -456,0 -717,-361 -261,-361 -261,-995 z"
                   transform="scale(0.015625)" />
                <path
                   id="DejaVuSans-69"
                   d="m 603,3500 h 575 V 0 H 603 Z m 0,1363 h 575 V 4134 H 603 Z"
                   transform="scale(0.015625)" />
                <path
                   id="DejaVuSans-6e"
                   d="M 3513,2113 V 0 h -575 v 2094 q 0,497 -194,743 -194,247 -581,247 -466,0 -735,-297 -269,-296 -269,-809 V 0 H 581 v 3500 h 578 v -544 q 207,316 486,472 280,156 646,156 603,0 912,-373 310,-373 310,-1098 z"
                   transform="scale(0.015625)" />
                <path
                   id="DejaVuSans-73"
                   d="m 2834,3397 v -544 q -243,125 -506,187 -262,63 -544,63 -428,0 -642,-131 -214,-131 -214,-394 0,-200 153,-314 153,-114 616,-217 l 197,-44 q 612,-131 870,-370 258,-239 258,-667 0,-488 -386,-773 Q 2250,-91 1575,-91 1294,-91 989,-36 684,19 347,128 v 594 q 319,-166 628,-249 309,-82 613,-82 406,0 624,139 219,139 219,392 0,234 -158,359 -157,125 -692,241 l -200,47 q -534,112 -772,345 -237,233 -237,639 0,494 350,762 350,269 994,269 318,0 599,-47 282,-46 519,-140 z"
                   transform="scale(0.015625)" />
                <path
                   id="DejaVuSans-29"
                   d="m 513,4856 h 500 q 468,-737 701,-1444 233,-706 233,-1403 0,-700 -233,-1409 -233,-709 -701,-1444 H 513 q 415,716 620,1424 205,708 205,1429 0,722 -205,1425 -205,704 -620,1422 z"
                   transform="scale(0.015625)" />
              </defs>
              <use
                 xlink:href="#DejaVuSans-398"
                 transform="translate(0,0.015625)"
                 id="use27" />
              <use
                 xlink:href="#DejaVuSans-Oblique-43"
                 transform="matrix(0.7,0,0,0.7,79.667969,-16.390625)"
                 id="use28" />
              <use
                 xlink:href="#DejaVuSans-Oblique-45"
                 transform="matrix(0.7,0,0,0.7,128.54492,-16.390625)"
                 id="use29" />
              <use
                 xlink:href="#DejaVuSans-Oblique-50"
                 transform="matrix(0.7,0,0,0.7,172.77344,-16.390625)"
                 id="use30" />
              <use
                 xlink:href="#DejaVuSans-2c"
                 transform="matrix(0.7,0,0,0.7,214.98535,-16.390625)"
                 id="use31" />
              <use
                 xlink:href="#DejaVuSans-Oblique-69"
                 transform="matrix(0.7,0,0,0.7,250.87402,-16.390625)"
                 id="use32" />
              <use
                 xlink:href="#DejaVuSans-Oblique-6e"
                 transform="matrix(0.7,0,0,0.7,270.32227,-16.390625)"
                 id="use33" />
              <use
                 xlink:href="#DejaVuSans-Oblique-73"
                 transform="matrix(0.7,0,0,0.7,314.6875,-16.390625)"
                 id="use34" />
              <use
                 xlink:href="#DejaVuSans-20"
                 transform="translate(353.8916,0.015625)"
                 id="use35" />
              <use
                 xlink:href="#DejaVuSans-28"
                 transform="translate(385.67871,0.015625)"
                 id="use36" />
              <use
                 xlink:href="#DejaVuSans-Oblique-3c0"
                 transform="translate(424.69238,0.015625)"
                 id="use37" />
              <use
                 xlink:href="#DejaVuSans-20"
                 transform="translate(484.89746,0.015625)"
                 id="use38" />
              <use
                 xlink:href="#DejaVuSans-72"
                 transform="translate(516.68457,0.015625)"
                 id="use39" />
              <use
                 xlink:href="#DejaVuSans-61"
                 transform="translate(557.79785,0.015625)"
                 id="use40" />
              <use
                 xlink:href="#DejaVuSans-64"
                 transform="translate(619.07715,0.015625)"
                 id="use41" />
              <use
                 xlink:href="#DejaVuSans-69"
                 transform="translate(682.55371,0.015625)"
                 id="use42" />
              <use
                 xlink:href="#DejaVuSans-61"
                 transform="translate(710.33691,0.015625)"
                 id="use43" />
              <use
                 xlink:href="#DejaVuSans-6e"
                 transform="translate(771.61621,0.015625)"
                 id="use44" />
              <use
                 xlink:href="#DejaVuSans-73"
                 transform="translate(834.99512,0.015625)"
                 id="use45" />
              <use
                 xlink:href="#DejaVuSans-29"
                 transform="translate(887.09473,0.015625)"
                 id="use46" />
            </g>
          </g>
        </g>
        <g
           id="patch_4">
          <path
             d="M 1207.674,631.61217 V 32.63625"
             style="fill:none;stroke:#ff0000;stroke-width:2;stroke-linecap:square;stroke-linejoin:miter"
             id="path46" />
        </g>
      </g>
      <path
         d="M 310.2705,631.61217 H 438.471 V 32.63625 H 310.2705 Z"
         clip-path="url(#pc9999bc10b)"
         style="opacity:0.5;fill:#ff0000"
         id="path47"
         transform="translate(-124.5,-21)" />
      <g
         id="patch_6"
         transform="translate(-124.5,-21)">
        <path
           d="m 951.273,631.61217 h 128.2005 V 32.63625 H 951.273 Z"
           clip-path="url(#pc9999bc10b)"
           style="opacity:0.5;fill:#0000ff"
           id="path48" />
      </g>
      <g
         id="matplotlib.axis_3"
         transform="translate(-124.5,-21)">
        <g
           id="text_8">
          <!-- x position -->
          <g
             transform="matrix(0.18,0,0,-0.18,651.03638,649.28935)"
             id="g57">
            <defs
               id="defs48">
              <path
                 id="DejaVuSans-78"
                 d="M 3513,3500 2247,1797 3578,0 H 2900 L 1881,1375 863,0 H 184 L 1544,1831 300,3500 h 678 l 928,-1247 928,1247 z"
                 transform="scale(0.015625)" />
              <path
                 id="DejaVuSans-70"
                 d="M 1159,525 V -1331 H 581 v 4831 h 578 v -531 q 182,312 458,463 277,152 661,152 638,0 1036,-506 399,-506 399,-1331 0,-825 -399,-1332 -398,-506 -1036,-506 -384,0 -661,152 -276,152 -458,464 z m 1957,1222 q 0,634 -261,995 -261,361 -717,361 -457,0 -718,-361 -261,-361 -261,-995 0,-634 261,-995 261,-361 718,-361 456,0 717,361 261,361 261,995 z"
                 transform="scale(0.015625)" />
              <path
                 id="DejaVuSans-6f"
                 d="m 1959,3097 q -462,0 -731,-361 -269,-361 -269,-989 0,-628 267,-989 268,-361 733,-361 460,0 728,362 269,363 269,988 0,622 -269,986 -268,364 -728,364 z m 0,487 q 750,0 1178,-488 429,-487 429,-1349 Q 3566,888 3137,398 2709,-91 1959,-91 1206,-91 779,398 353,888 353,1747 q 0,862 426,1349 427,488 1180,488 z"
                 transform="scale(0.015625)" />
              <path
                 id="DejaVuSans-74"
                 d="M 1172,4494 V 3500 H 2356 V 3053 H 1172 V 1153 q 0,-428 117,-550 117,-122 477,-122 h 590 V 0 H 1766 Q 1100,0 847,248 594,497 594,1153 V 3053 H 172 v 447 h 422 v 994 z"
                 transform="scale(0.015625)" />
            </defs>
            <use
               xlink:href="#DejaVuSans-78"
               id="use48" />
            <use
               xlink:href="#DejaVuSans-20"
               transform="translate(59.179688)"
               id="use49" />
            <use
               xlink:href="#DejaVuSans-70"
               transform="translate(90.966797)"
               id="use50" />
            <use
               xlink:href="#DejaVuSans-6f"
               transform="translate(154.44336)"
               id="use51" />
            <use
               xlink:href="#DejaVuSans-73"
               transform="translate(215.625)"
               id="use52" />
            <use
               xlink:href="#DejaVuSans-69"
               transform="translate(267.72461)"
               id="use53" />
            <use
               xlink:href="#DejaVuSans-74"
               transform="translate(295.50781)"
               id="use54" />
            <use
               xlink:href="#DejaVuSans-69"
               transform="translate(334.7168)"
               id="use55" />
            <use
               xlink:href="#DejaVuSans-6f"
               transform="translate(362.5)"
               id="use56" />
            <use
               xlink:href="#DejaVuSans-6e"
               transform="translate(423.68164)"
               id="use57" />
          </g>
        </g>
      </g>
      <g
         id="ytick_7"
         transform="translate(-124.5,-21)">
        <g
           id="line2d_7">
          <defs
             id="defs57">
            <path
               id="m0378f5930a"
               d="M 0,0 H 3.5"
               style="stroke:#000000;stroke-width:0.8" />
          </defs>
          <g
             id="g58">
            <use
               xlink:href="#m0378f5930a"
               x="182.07001"
               y="631.61218"
               style="stroke:#000000;stroke-width:0.8"
               id="use58" />
          </g>
        </g>
        <g
           id="text_9">
          <!-- 0.0 -->
          <g
             transform="matrix(0.14,0,0,-0.14,156.30562,636.93107)"
             id="g61">
            <use
               xlink:href="#DejaVuSans-30"
               id="use59" />
            <use
               xlink:href="#DejaVuSans-2e"
               transform="translate(63.623047)"
               id="use60" />
            <use
               xlink:href="#DejaVuSans-30"
               transform="translate(95.410156)"
               id="use61" />
          </g>
        </g>
      </g>
      <g
         id="ytick_12"
         transform="translate(-124.5,-21)">
        <g
           id="line2d_12">
          <g
             id="g78">
            <use
               xlink:href="#m0378f5930a"
               x="182.07001"
               y="32.63625"
               style="stroke:#000000;stroke-width:0.8"
               id="use78" />
          </g>
        </g>
        <g
           id="text_14">
          <!-- 1.0 -->
          <g
             transform="matrix(0.14,0,0,-0.14,156.30562,37.955156)"
             id="g81">
            <use
               xlink:href="#DejaVuSans-31"
               id="use79" />
            <use
               xlink:href="#DejaVuSans-2e"
               transform="translate(63.623047)"
               id="use80" />
            <use
               xlink:href="#DejaVuSans-30"
               transform="translate(95.410156)"
               id="use81" />
          </g>
        </g>
      </g>
      <g
         id="text_15"
         transform="translate(-124.5,-21)">
        <!-- $j_0$ (normalised) -->
        <g
           transform="matrix(0,-0.18,-0.18,0,148.52562,398.90421)"
           id="g96">
          <defs
             id="defs81">
            <path
               id="DejaVuSans-Oblique-6a"
               d="m 928,3500 h 575 L 813,-63 809,-78 q -115,-597 -265,-819 -141,-209 -412,-321 -270,-113 -638,-113 h -216 l 94,487 h 147 q 337,0 480,141 142,140 239,640 z m 269,1363 h 575 l -141,-729 h -575 z"
               transform="scale(0.015625)" />
            <path
               id="DejaVuSans-6d"
               d="m 3328,2828 q 216,388 516,572 300,184 706,184 547,0 844,-383 297,-382 297,-1088 V 0 h -578 v 2094 q 0,503 -179,746 -178,244 -543,244 -447,0 -707,-297 -259,-296 -259,-809 V 0 h -578 v 2094 q 0,506 -178,748 -178,242 -550,242 -441,0 -701,-298 -259,-298 -259,-808 V 0 H 581 v 3500 h 578 v -544 q 197,322 472,475 275,153 653,153 382,0 649,-194 267,-193 395,-562 z"
               transform="scale(0.015625)" />
            <path
               id="DejaVuSans-6c"
               d="m 603,4863 h 575 V 0 H 603 Z"
               transform="scale(0.015625)" />
            <path
               id="DejaVuSans-65"
               d="M 3597,1894 V 1613 H 953 q 38,-594 358,-905 320,-311 892,-311 331,0 642,81 311,81 618,244 V 178 Q 3153,47 2828,-22 2503,-91 2169,-91 1331,-91 842,396 353,884 353,1716 q 0,859 464,1363 464,505 1252,505 706,0 1117,-455 411,-454 411,-1235 z m -575,169 q -6,471 -264,752 -258,282 -683,282 -481,0 -770,-272 -289,-272 -333,-766 z"
               transform="scale(0.015625)" />
          </defs>
          <use
             xlink:href="#DejaVuSans-Oblique-6a"
             transform="translate(0,0.015625)"
             id="use82" />
          <use
             xlink:href="#DejaVuSans-30"
             transform="matrix(0.7,0,0,0.7,27.783203,-16.390625)"
             id="use83" />
          <use
             xlink:href="#DejaVuSans-20"
             transform="translate(75.053711,0.015625)"
             id="use84" />
          <use
             xlink:href="#DejaVuSans-28"
             transform="translate(106.84082,0.015625)"
             id="use85" />
          <use
             xlink:href="#DejaVuSans-6e"
             transform="translate(145.85449,0.015625)"
             id="use86" />
          <use
             xlink:href="#DejaVuSans-6f"
             transform="translate(209.2334,0.015625)"
             id="use87" />
          <use
             xlink:href="#DejaVuSans-72"
             transform="translate(270.41504,0.015625)"
             id="use88" />
          <use
             xlink:href="#DejaVuSans-6d"
             transform="translate(311.52832,0.015625)"
             id="use89" />
          <use
             xlink:href="#DejaVuSans-61"
             transform="translate(408.94043,0.015625)"
             id="use90" />
          <use
             xlink:href="#DejaVuSans-6c"
             transform="translate(470.21973,0.015625)"
             id="use91" />
          <use
             xlink:href="#DejaVuSans-69"
             transform="translate(498.00293,0.015625)"
             id="use92" />
          <use
             xlink:href="#DejaVuSans-73"
             transform="translate(525.78613,0.015625)"
             id="use93" />
          <use
             xlink:href="#DejaVuSans-65"
             transform="translate(577.88574,0.015625)"
             id="use94" />
          <use
             xlink:href="#DejaVuSans-64"
             transform="translate(639.40918,0.015625)"
             id="use95" />
          <use
             xlink:href="#DejaVuSans-29"
             transform="translate(702.88574,0.015625)"
             id="use96" />
        </g>
      </g>
      <text
         xml:space="preserve"
         style="font-size:20px;font-family:Arial;-inkscape-font-specification:Arial;text-align:start;writing-mode:lr-tb;direction:ltr;text-anchor:start;fill:#ff0000;fill-opacity:0.501961;stroke-width:1.41732"
         x="228.97623"
         y="569.06451"
         id="text106"><tspan
           sodipodi:role="line"
           id="tspan106"
           style="font-size:20px;fill:#ff0000;fill-opacity:0.501961;stroke-width:1.41732"
           x="228.97623"
           y="569.06451"><tspan
   style="font-size:24px;fill:#ff0000;fill-opacity:0.8"
   id="tspan112">Left</tspan> </tspan></text>
      <text
         xml:space="preserve"
         style="font-size:24px;font-family:Arial;-inkscape-font-specification:Arial;text-align:start;writing-mode:lr-tb;direction:ltr;text-anchor:start;fill:#ff0000;fill-opacity:0.501961;stroke-width:1.41732"
         x="208.00552"
         y="594.8526"
         id="text111"><tspan
           sodipodi:role="line"
           id="tspan111"
           style="font-size:24px;fill:#ff0000;fill-opacity:0.8;stroke-width:1.41732"
           x="208.00552"
           y="594.8526">Contact</tspan></text>
      <g
         id="line2d_13"
         transform="translate(-124.5,-21)">
        <path
           d="m 182.07,550.54958 5.13315,-6.68813 5.13316,-7.08777 5.13315,-7.49607 5.13315,-7.91167 5.13316,-8.33308 5.13315,-8.75863 5.13315,-9.18652 5.13315,-9.61479 5.13316,-10.04132 5.13315,-10.46389 6.15978,-13.10536 6.15979,-13.68891 6.15978,-14.25138 6.15979,-14.78713 7.18641,-17.88513 7.18641,-18.50823 8.21305,-21.82159 9.23968,-25.25108 11.29293,-31.5783 30.79892,-86.63114 8.21305,-22.27228 7.18641,-18.87674 6.15978,-15.61021 6.15979,-14.98818 5.13315,-11.95038 5.13315,-11.40568 5.13316,-10.81187 4.10652,-8.190159 4.10652,-7.756647 4.10653,-7.300951 4.10652,-6.824174 4.10652,-6.327539 4.10652,-5.812355 3.0799,-4.010814 3.07989,-3.704672 3.07989,-3.392339 3.07989,-3.074329 3.07989,-2.751166 3.07989,-2.423393 3.0799,-2.091567 3.07989,-1.756256 3.07989,-1.418039 3.07989,-1.077503 3.07989,-0.735246 2.05327,-0.299443 2.05326,-0.146636 2.05326,0.0062 2.05326,0.159045 2.05326,0.311678 2.05326,0.464012 3.07989,0.980697 3.0799,1.320561 3.07989,1.657904 3.07989,1.992133 3.07989,2.322657 3.07989,2.648896 3.0799,2.970283 3.07989,3.286259 3.07989,3.596284 3.07989,3.899825 3.07989,4.196372 4.10652,6.043447 4.10653,6.538215 4.10652,7.012501 4.10652,7.464977 4.10652,7.894403 5.13316,10.434939 5.13315,11.01856 5.13316,11.55049 6.15978,14.48719 6.15978,15.0805 7.18642,18.21318 8.21304,21.4382 11.29294,30.14309 21.55924,57.64442 8.21305,21.31823 7.18641,18.10533 6.15979,15.00846 6.15978,14.45628 6.15978,13.83216 5.13316,11.00146 5.13315,10.48507 5.13315,9.93485 4.10653,7.53052 4.10652,7.14325 4.10652,6.74197 4.10652,6.32771 4.10652,5.90141 4.10653,5.46404 4.10652,5.01656 3.07989,3.46321 3.07989,3.2028 3.0799,2.93915 3.07989,2.67257 3.07989,2.40332 3.07989,2.13169 3.07989,1.85798 3.07989,1.58244 3.0799,1.30536 3.07989,1.02702 3.07989,0.74769 3.07989,0.46763 3.0799,0.18712 3.07989,-0.0936 3.07989,-0.37416 3.07989,-0.6544 3.07989,-0.93401 3.07989,-1.21271 3.0799,-1.49023 3.07989,-1.76632 3.07989,-2.04068 3.07989,-2.31302 3.07989,-2.5831 3.07989,-2.85061 3.0799,-3.11526 3.07989,-3.37678 3.07989,-3.63488 4.10652,-5.2415 4.10653,-5.68405 4.10652,-6.116 4.10652,-6.53641 4.10652,-6.9443 4.10653,-7.33869 5.13315,-9.70583 5.13315,-10.26891 5.13316,-10.79911 5.13315,-11.29404 6.15978,-14.15292 6.15979,-14.74166 7.18641,-17.84333 8.21305,-21.08794 9.23967,-24.3707 17.45272,-46.84891 12.31957,-32.73207 8.21304,-21.21303 7.18642,-17.94338 6.15978,-14.79594 6.15979,-14.15457 5.13315,-11.23765 5.13315,-10.67446 4.10653,-8.100113 4.10652,-7.682645 4.10652,-7.241545 4.10652,-6.778003 4.10653,-6.293304 4.10652,-5.788823 3.07989,-3.999476 3.07989,-3.69821 3.07989,-3.390289 3.0799,-3.076237 3.07989,-2.756592 3.07989,-2.431907 3.07989,-2.102748 3.07989,-1.769689 3.07989,-1.433319 3.0799,-1.094227 3.07989,-0.753018 2.05326,-0.311678 2.05326,-0.159045 2.05326,-0.0062 2.05326,0.146636 2.05326,0.299443 2.05327,0.452068 3.07989,0.963579 3.07989,1.304755 3.07989,1.643811 3.07989,1.980156 3.0799,2.313207 3.07989,2.642393 3.07989,2.967154 3.07989,3.286941 3.07989,3.601224 3.0799,3.909484 3.07989,4.211227 4.10652,6.072179 4.10651,6.578259 4.1065,7.065124 4.1066,7.531505 4.1065,7.97624 4.1065,8.398263 5.1332,11.05518 5.1331,11.62954 5.1332,12.15417 6.1597,15.20555 6.1598,15.7974 7.1864,19.0566 8.2131,22.42712 11.2929,31.58764 30.7989,86.62721 9.2397,25.10123 8.2131,21.653 7.1864,18.33714 7.1864,17.6953 6.1598,14.61186 6.1598,14.06658 6.1597,13.49647 6.1598,12.9071 5.1332,10.29548 5.1331,9.87106 5.1332,9.44356 5.1331,9.01521 5.1332,8.58803 5.1331,8.16392 5.1332,7.74464 5.1332,7.3318 5.1331,6.9268 3.0799,3.96545 v 0"
           clip-path="url(#pc9999bc10b)"
           style="fill:none;stroke:#000000;stroke-width:4;stroke-linecap:square"
           id="path96" />
      </g>
      <g
         id="line2d_14"
         transform="translate(-124.5,-21)">
        <path
           d="M 310.2705,631.61217 438.471,32.63625 951.273,631.61217 1079.4735,32.63625"
           clip-path="url(#pc9999bc10b)"
           style="fill:none;stroke:#ff0000;stroke-width:4;stroke-linecap:square"
           id="path97" />
      </g>
      <g
         id="text_16"
         transform="matrix(1.9263099,0,0,1.9263099,-590.52198,-92.931283)">
        <path
           d="m 529.31014,145.62241 -4.09513,1.56086 0.70698,1.85484 q 0.39266,1.0302 1.13898,1.38785 0.74721,0.35998 1.73303,-0.0158 0.97881,-0.37307 1.29684,-1.13907 0.31893,-0.76367 -0.0737,-1.79387 z m 0.65058,-1.93617 1.26881,3.32889 q 0.69896,1.83381 0.2267,3.08667 -0.47136,1.25518 -2.06923,1.86421 -1.61422,0.61526 -2.79679,-0.01 -1.18168,-0.62246 -1.88064,-2.45627 l -0.70697,-1.85483 -4.38012,1.66948 -0.56184,-1.47405 z m 0.0412,18.02847 -4.9361,1.8814 -0.51198,-1.34323 4.89172,-1.86449 q 1.16102,-0.44252 1.56296,-1.11476 0.40427,-0.67312 0.0597,-1.57718 -0.41492,-1.0886 -1.34825,-1.45256 -0.93099,-0.36484 -2.12939,0.0919 l -4.62074,1.7612 -0.51465,-1.35025 11.36029,-4.32998 0.51464,1.35024 -4.45487,1.69798 q 0.92251,0.20221 1.53535,0.71507 0.61374,0.51519 0.93962,1.37019 0.53691,1.40865 -0.0593,2.46261 -0.59533,1.0563 -2.28898,1.70183 z m 4.52668,4.96927 q -0.41136,-1.07926 -1.4942,-1.38623 -1.08283,-0.30697 -2.54988,0.2522 -1.46705,0.55917 -2.07264,1.50433 -0.60469,0.9475 -0.19066,2.03377 0.40958,1.07459 1.49386,1.37833 1.08751,0.30519 2.54755,-0.25131 1.45304,-0.55382 2.06385,-1.50633 0.6117,-0.95017 0.20212,-2.02476 z m 1.13766,-0.43362 q 0.6678,1.75205 -0.0911,3.1864 -0.75568,1.43579 -2.76937,2.20331 -2.00668,0.76485 -3.53333,0.19897 -1.52342,-0.56443 -2.19122,-2.31648 -0.67046,-1.75906 0.0917,-3.19196 0.76537,-1.43146 2.77205,-2.19631 2.01369,-0.76751 3.53066,-0.20597 1.52019,0.56298 2.19066,2.32204 z m 4.91153,6.49841 -2.32205,0.88506 1.05423,2.7659 -1.04423,0.398 -1.05422,-2.7659 -4.43852,1.69175 q -0.99984,0.38109 -1.18066,0.76304 -0.18083,0.38194 0.13971,1.22293 l 0.52534,1.37828 -1.12365,0.42827 -0.52533,-1.37827 q -0.59301,-1.55582 -0.23893,-2.36766 0.35641,-0.81274 1.88887,-1.39684 l 4.43852,-1.69174 -0.37574,-0.98582 1.04422,-0.39801 0.37574,0.98582 2.32205,-0.88505 z m -0.32841,8.94443 q -0.41136,-1.07926 -1.4942,-1.38623 -1.08283,-0.30697 -2.54988,0.2522 -1.46705,0.55916 -2.07264,1.50433 -0.60469,0.94749 -0.19066,2.03376 0.40958,1.07459 1.49386,1.37834 1.08751,0.30518 2.54755,-0.25131 1.45303,-0.55383 2.06385,-1.50633 0.6117,-0.95017 0.20212,-2.02476 z m 1.13766,-0.43362 q 0.6678,1.75205 -0.0911,3.18639 -0.75568,1.4358 -2.76937,2.20332 -2.00668,0.76485 -3.53333,0.19897 -1.52342,-0.56444 -2.19122,-2.31648 -0.67046,-1.75906 0.0917,-3.19196 0.76537,-1.43146 2.77205,-2.19631 2.01369,-0.76752 3.53066,-0.20598 1.52019,0.56299 2.19066,2.32205 z m 4.01271,12.0581 -1.2568,0.47903 q 0.0981,-0.6902 0.0365,-1.32219 -0.0616,-0.63199 -0.28422,-1.21601 -0.49862,-1.3082 -1.60395,-1.71629 -1.1021,-0.40664 -2.59952,0.1641 -1.49741,0.57074 -2.05159,1.60868 -0.55094,1.03938 -0.0523,2.34757 0.2226,0.58402 0.59726,1.0967 0.37466,0.51268 0.90729,0.96247 l -1.24279,0.47369 q -0.47622,-0.46326 -0.83676,-1.01611 -0.36199,-0.54961 -0.62109,-1.22941 -0.70431,-1.84782 0.0418,-3.37896 0.74699,-1.52879 2.71863,-2.28028 1.99967,-0.76218 3.56282,-0.10052 1.56639,0.6631 2.29562,2.57634 0.23595,0.61905 0.33274,1.25905 0.0991,0.6391 0.0564,1.29214 z m -3.79945,3.96509 4.95013,-1.88675 0.51197,1.34324 -4.89873,1.86715 q -1.16102,0.44253 -1.57085,1.1151 -0.40661,0.67401 -0.0611,1.58041 0.41403,1.08627 1.34825,1.45256 0.93511,0.36862 2.13351,-0.0882 l 4.63475,-1.76654 0.51198,1.34324 -8.17623,3.11638 -0.51197,-1.34324 1.2568,-0.47903 q -0.9313,-0.20421 -1.54003,-0.71328 -0.60784,-0.50675 -0.93372,-1.36175 -0.53691,-1.40864 0.0604,-2.47373 0.59823,-1.06275 2.28486,-1.70561 z m 6.43476,1.41874 z m 2.73081,11.52368 q 0.0444,-0.27646 0.004,-0.56592 -0.0384,-0.29035 -0.16042,-0.61039 -0.43451,-1.14 -1.40744,-1.46746 -0.97292,-0.32746 -2.36055,0.20144 l -4.3077,1.64188 -0.51465,-1.35024 8.17623,-3.11638 0.51465,1.35024 -1.27082,0.48438 q 0.90726,0.14113 1.52522,0.68147 0.6212,0.54178 0.9916,1.51358 0.0525,0.13783 0.0979,0.31315 0.0478,0.17443 0.0879,0.39191 z m 2.24312,5.88513 q 0.0445,-0.27646 0.004,-0.56592 -0.0384,-0.29035 -0.16042,-0.61039 -0.43451,-1.14 -1.40743,-1.46746 -0.97293,-0.32746 -2.36055,0.20144 l -4.3077,1.64188 -0.51465,-1.35024 8.17623,-3.11638 0.51464,1.35025 -1.27082,0.48437 q 0.90726,0.14113 1.52523,0.68147 0.62119,0.54178 0.9916,1.51358 0.0525,0.13783 0.0979,0.31315 0.0477,0.17443 0.0878,0.39191 z m 0.5775,9.01885 -0.65643,0.2502 -2.3542,-6.17655 q -1.35379,0.61766 -1.79538,1.64211 -0.44159,1.02446 0.0677,2.36069 0.29472,0.77323 0.76085,1.42763 0.46613,0.65439 1.12026,1.22643 l -1.27082,0.48437 q -0.58204,-0.60753 -1.03261,-1.30532 -0.45057,-0.69778 -0.74796,-1.47803 -0.74615,-1.95762 -0.0439,-3.53358 0.7046,-1.57685 2.64821,-2.31765 2.00668,-0.76485 3.5972,-0.12968 1.59285,0.63429 2.29448,2.47511 0.62862,1.64926 -0.0683,3.01451 -0.69462,1.36436 -2.51909,2.05976 z m -0.11718,-1.49371 q 1.09495,-0.43339 1.52166,-1.2863 0.42905,-0.8538 0.0506,-1.84662 -0.42828,-1.12365 -1.32101,-1.55659 -0.89274,-0.43293 -2.08593,-0.0959 z m 4.05991,10.30074 -4.9361,1.8814 -0.51198,-1.34323 4.89172,-1.86449 q 1.16103,-0.44252 1.56296,-1.11476 0.40427,-0.67312 0.0597,-1.57718 -0.41492,-1.0886 -1.34825,-1.45256 -0.93099,-0.36484 -2.12939,0.0919 l -4.62074,1.7612 -0.51465,-1.35025 8.17623,-3.11638 0.51465,1.35025 -1.27082,0.48437 q 0.92251,0.2022 1.53535,0.71506 0.61374,0.5152 0.93962,1.3702 0.53691,1.40865 -0.0593,2.46261 -0.59533,1.0563 -2.28898,1.70183 z m 7.08942,1.88691 -2.32205,0.88505 1.05423,2.7659 -1.04422,0.39801 -1.05423,-2.7659 -4.43852,1.69174 q -0.99984,0.38109 -1.18066,0.76304 -0.18082,0.38195 0.13972,1.22293 l 0.52533,1.37828 -1.12365,0.42828 -0.52533,-1.37828 q -0.593,-1.55582 -0.23893,-2.36766 0.35641,-0.81273 1.88887,-1.39683 l 4.43853,-1.69175 -0.37575,-0.98582 1.04422,-0.398 0.37575,0.98581 2.32205,-0.88505 z"
           clip-path="url(#pc9999bc10b)"
           style="stroke:#ffffff;stroke-width:5"
           id="path98" />
        <path
           d="m 529.31014,145.62241 -4.09513,1.56086 0.70698,1.85484 q 0.39266,1.0302 1.13898,1.38785 0.74721,0.35998 1.73303,-0.0158 0.97881,-0.37307 1.29684,-1.13907 0.31893,-0.76367 -0.0737,-1.79387 z m 0.65058,-1.93617 1.26881,3.32889 q 0.69896,1.83381 0.2267,3.08667 -0.47136,1.25518 -2.06923,1.86421 -1.61422,0.61526 -2.79679,-0.01 -1.18168,-0.62246 -1.88064,-2.45627 l -0.70697,-1.85483 -4.38012,1.66948 -0.56184,-1.47405 z m 0.0412,18.02847 -4.9361,1.8814 -0.51198,-1.34323 4.89172,-1.86449 q 1.16102,-0.44252 1.56296,-1.11476 0.40427,-0.67312 0.0597,-1.57718 -0.41492,-1.0886 -1.34825,-1.45256 -0.93099,-0.36484 -2.12939,0.0919 l -4.62074,1.7612 -0.51465,-1.35025 11.36029,-4.32998 0.51464,1.35024 -4.45487,1.69798 q 0.92251,0.20221 1.53535,0.71507 0.61374,0.51519 0.93962,1.37019 0.53691,1.40865 -0.0593,2.46261 -0.59533,1.0563 -2.28898,1.70183 z m 4.52668,4.96927 q -0.41136,-1.07926 -1.4942,-1.38623 -1.08283,-0.30697 -2.54988,0.2522 -1.46705,0.55917 -2.07264,1.50433 -0.60469,0.9475 -0.19066,2.03377 0.40958,1.07459 1.49386,1.37833 1.08751,0.30519 2.54755,-0.25131 1.45304,-0.55382 2.06385,-1.50633 0.6117,-0.95017 0.20212,-2.02476 z m 1.13766,-0.43362 q 0.6678,1.75205 -0.0911,3.1864 -0.75568,1.43579 -2.76937,2.20331 -2.00668,0.76485 -3.53333,0.19897 -1.52342,-0.56443 -2.19122,-2.31648 -0.67046,-1.75906 0.0917,-3.19196 0.76537,-1.43146 2.77205,-2.19631 2.01369,-0.76751 3.53066,-0.20597 1.52019,0.56298 2.19066,2.32204 z m 4.91153,6.49841 -2.32205,0.88506 1.05423,2.7659 -1.04423,0.398 -1.05422,-2.7659 -4.43852,1.69175 q -0.99984,0.38109 -1.18066,0.76304 -0.18083,0.38194 0.13971,1.22293 l 0.52534,1.37828 -1.12365,0.42827 -0.52533,-1.37827 q -0.59301,-1.55582 -0.23893,-2.36766 0.35641,-0.81274 1.88887,-1.39684 l 4.43852,-1.69174 -0.37574,-0.98582 1.04422,-0.39801 0.37574,0.98582 2.32205,-0.88505 z m -0.32841,8.94443 q -0.41136,-1.07926 -1.4942,-1.38623 -1.08283,-0.30697 -2.54988,0.2522 -1.46705,0.55916 -2.07264,1.50433 -0.60469,0.94749 -0.19066,2.03376 0.40958,1.07459 1.49386,1.37834 1.08751,0.30518 2.54755,-0.25131 1.45303,-0.55383 2.06385,-1.50633 0.6117,-0.95017 0.20212,-2.02476 z m 1.13766,-0.43362 q 0.6678,1.75205 -0.0911,3.18639 -0.75568,1.4358 -2.76937,2.20332 -2.00668,0.76485 -3.53333,0.19897 -1.52342,-0.56444 -2.19122,-2.31648 -0.67046,-1.75906 0.0917,-3.19196 0.76537,-1.43146 2.77205,-2.19631 2.01369,-0.76752 3.53066,-0.20598 1.52019,0.56299 2.19066,2.32205 z m 4.01271,12.0581 -1.2568,0.47903 q 0.0981,-0.6902 0.0365,-1.32219 -0.0616,-0.63199 -0.28422,-1.21601 -0.49862,-1.3082 -1.60395,-1.71629 -1.1021,-0.40664 -2.59952,0.1641 -1.49741,0.57074 -2.05159,1.60868 -0.55094,1.03938 -0.0523,2.34757 0.2226,0.58402 0.59726,1.0967 0.37466,0.51268 0.90729,0.96247 l -1.24279,0.47369 q -0.47622,-0.46326 -0.83676,-1.01611 -0.36199,-0.54961 -0.62109,-1.22941 -0.70431,-1.84782 0.0418,-3.37896 0.74699,-1.52879 2.71863,-2.28028 1.99967,-0.76218 3.56282,-0.10052 1.56639,0.6631 2.29562,2.57634 0.23595,0.61905 0.33274,1.25905 0.0991,0.6391 0.0564,1.29214 z m -3.79945,3.96509 4.95013,-1.88675 0.51197,1.34324 -4.89873,1.86715 q -1.16102,0.44253 -1.57085,1.1151 -0.40661,0.67401 -0.0611,1.58041 0.41403,1.08627 1.34825,1.45256 0.93511,0.36862 2.13351,-0.0882 l 4.63475,-1.76654 0.51198,1.34324 -8.17623,3.11638 -0.51197,-1.34324 1.2568,-0.47903 q -0.9313,-0.20421 -1.54003,-0.71328 -0.60784,-0.50675 -0.93372,-1.36175 -0.53691,-1.40864 0.0604,-2.47373 0.59823,-1.06275 2.28486,-1.70561 z m 6.43476,1.41874 z m 2.73081,11.52368 q 0.0444,-0.27646 0.004,-0.56592 -0.0384,-0.29035 -0.16042,-0.61039 -0.43451,-1.14 -1.40744,-1.46746 -0.97292,-0.32746 -2.36055,0.20144 l -4.3077,1.64188 -0.51465,-1.35024 8.17623,-3.11638 0.51465,1.35024 -1.27082,0.48438 q 0.90726,0.14113 1.52522,0.68147 0.6212,0.54178 0.9916,1.51358 0.0525,0.13783 0.0979,0.31315 0.0478,0.17443 0.0879,0.39191 z m 2.24312,5.88513 q 0.0445,-0.27646 0.004,-0.56592 -0.0384,-0.29035 -0.16042,-0.61039 -0.43451,-1.14 -1.40743,-1.46746 -0.97293,-0.32746 -2.36055,0.20144 l -4.3077,1.64188 -0.51465,-1.35024 8.17623,-3.11638 0.51464,1.35025 -1.27082,0.48437 q 0.90726,0.14113 1.52523,0.68147 0.62119,0.54178 0.9916,1.51358 0.0525,0.13783 0.0979,0.31315 0.0477,0.17443 0.0878,0.39191 z m 0.5775,9.01885 -0.65643,0.2502 -2.3542,-6.17655 q -1.35379,0.61766 -1.79538,1.64211 -0.44159,1.02446 0.0677,2.36069 0.29472,0.77323 0.76085,1.42763 0.46613,0.65439 1.12026,1.22643 l -1.27082,0.48437 q -0.58204,-0.60753 -1.03261,-1.30532 -0.45057,-0.69778 -0.74796,-1.47803 -0.74615,-1.95762 -0.0439,-3.53358 0.7046,-1.57685 2.64821,-2.31765 2.00668,-0.76485 3.5972,-0.12968 1.59285,0.63429 2.29448,2.47511 0.62862,1.64926 -0.0683,3.01451 -0.69462,1.36436 -2.51909,2.05976 z m -0.11718,-1.49371 q 1.09495,-0.43339 1.52166,-1.2863 0.42905,-0.8538 0.0506,-1.84662 -0.42828,-1.12365 -1.32101,-1.55659 -0.89274,-0.43293 -2.08593,-0.0959 z m 4.05991,10.30074 -4.9361,1.8814 -0.51198,-1.34323 4.89172,-1.86449 q 1.16103,-0.44252 1.56296,-1.11476 0.40427,-0.67312 0.0597,-1.57718 -0.41492,-1.0886 -1.34825,-1.45256 -0.93099,-0.36484 -2.12939,0.0919 l -4.62074,1.7612 -0.51465,-1.35025 8.17623,-3.11638 0.51465,1.35025 -1.27082,0.48437 q 0.92251,0.2022 1.53535,0.71506 0.61374,0.5152 0.93962,1.3702 0.53691,1.40865 -0.0593,2.46261 -0.59533,1.0563 -2.28898,1.70183 z m 7.08942,1.88691 -2.32205,0.88505 1.05423,2.7659 -1.04422,0.39801 -1.05423,-2.7659 -4.43852,1.69174 q -0.99984,0.38109 -1.18066,0.76304 -0.18082,0.38195 0.13972,1.22293 l 0.52533,1.37828 -1.12365,0.42828 -0.52533,-1.37828 q -0.593,-1.55582 -0.23893,-2.36766 0.35641,-0.81273 1.88887,-1.39683 l 4.43853,-1.69175 -0.37575,-0.98582 1.04422,-0.398 0.37575,0.98581 2.32205,-0.88505 z"
           clip-path="url(#pc9999bc10b)"
           id="path99" />
      </g>
      <g
         id="text_17"
         transform="matrix(1.588938,0,0,1.588938,-635.77902,-335.57724)">
        <path
           d="m 839.74692,492.19188 -3.3291,2.85015 1.29094,1.50788 q 0.71701,0.8375 1.54021,0.92258 0.82483,0.087 1.62624,-0.59913 0.79572,-0.68124 0.83688,-1.50962 0.0428,-0.82648 -0.67423,-1.66398 z m -0.0403,-2.04215 2.31686,2.7062 q 1.27631,1.49079 1.25411,2.82951 -0.0206,1.34061 -1.31956,2.45271 -1.31227,1.12348 -2.63625,0.93398 -1.32235,-0.18761 -2.59866,-1.67839 l -1.29094,-1.50788 -3.56079,3.04851 -1.02593,-1.19833 z m 6.1171,16.95902 -4.01278,3.43547 -0.93487,-1.09198 3.97669,-3.40457 q 0.94385,-0.80806 1.09561,-1.57645 0.15365,-0.77001 -0.47556,-1.50496 -0.75765,-0.88498 -1.75904,-0.91295 -0.99949,-0.0296 -1.97373,0.80448 l -3.7564,3.21597 -0.93975,-1.09768 9.23528,-7.9066 0.93975,1.09767 -3.62157,3.10054 q 0.93667,-0.12067 1.68655,0.15554 0.7515,0.27811 1.34657,0.97318 0.9804,1.14515 0.77443,2.33842 -0.20434,1.19517 -1.58118,2.37392 z m 3.77814,5.77385 q -1.13323,-1.32367 -1.87255,-1.57601 -0.73931,-0.25234 -1.47046,0.37362 -0.58113,0.49751 -0.59454,1.17379 -0.0115,0.67464 0.55105,1.33173 0.77879,0.90966 1.89246,0.90733 1.11366,-0.002 2.18095,-0.91607 l 0.24309,-0.20811 z m 2.31685,1.7913 -3.79248,3.24686 -0.93487,-1.09198 1.00841,-0.86333 q -0.92421,0.1429 -1.69087,-0.1683 -0.76667,-0.3112 -1.45767,-1.11831 -0.87309,-1.01981 -0.81659,-2.11474 0.0581,-1.09302 1.01907,-1.91571 1.12046,-0.95927 2.3324,-0.69689 1.21358,0.26428 2.48826,1.75317 l 1.31208,1.53257 0.10824,-0.0927 q 0.75394,-0.64547 0.74169,-1.49395 -0.0122,-0.84847 -0.77966,-1.74484 -0.48776,-0.56973 -1.08787,-0.99391 -0.59848,-0.42228 -1.29792,-0.68572 l 1.01031,-0.86496 q 0.74384,0.39986 1.34067,0.86634 0.59873,0.46485 1.0556,0.99849 1.23566,1.44331 1.09712,2.79606 -0.13664,1.35113 -1.65592,2.65183 z m 8.21088,4.20893 -1.03311,0.88448 q -0.1577,-0.66472 -0.46756,-1.26498 -0.30634,-0.59999 -0.76483,-1.13553 -0.69587,-0.81282 -1.29259,-1.00623 -0.59672,-0.19342 -1.09618,0.23419 -0.37982,0.32517 -0.34755,0.80108 0.0323,0.47591 0.58943,1.52265 l 0.23674,0.44566 q 0.74625,1.37523 0.71184,2.25378 -0.0344,0.87855 -0.84722,1.57443 -0.92676,0.79342 -2.09558,0.52374 -1.16693,-0.2713 -2.26439,-1.55318 -0.45687,-0.53365 -0.84831,-1.20229 -0.39144,-0.66865 -0.73236,-1.48586 l 1.12806,-0.96577 q 0.2034,0.87571 0.54817,1.59747 0.34667,0.72014 0.84094,1.29747 0.6601,0.77103 1.27851,0.95903 0.62004,0.18991 1.10051,-0.22144 0.44439,-0.38045 0.42489,-0.88374 -0.0179,-0.50139 -0.66742,-1.70601 l -0.23592,-0.45623 q -0.65552,-1.19622 -0.59999,-2.02703 0.0572,-0.82891 0.82819,-1.48901 0.93815,-0.80318 2.01616,-0.57423 1.07991,0.22732 2.12697,1.45033 0.51703,0.60391 0.88464,1.21397 0.37114,0.61034 0.57796,1.21325 z m 3.80747,10.22497 -0.53365,0.45687 -4.2988,-5.02119 q -1.06628,1.03793 -1.13662,2.15128 -0.0703,1.11336 0.85966,2.19964 0.53817,0.6286 1.19764,1.08752 0.65947,0.45892 1.46817,0.77693 l -1.03311,0.88447 q -0.7528,-0.37573 -1.41225,-0.88075 -0.65944,-0.50502 -1.20248,-1.13931 -1.36248,-1.59144 -1.23268,-3.3119 0.13171,-1.72208 1.71175,-3.0748 1.63132,-1.39662 3.34287,-1.33489 1.71344,0.0601 2.99463,1.5566 1.14786,1.34076 0.95201,2.86106 -0.19396,1.51867 -1.67714,2.78847 z m -0.61393,-1.36675 q 0.88471,-0.77717 0.99888,-1.72401 0.11607,-0.94846 -0.57492,-1.75557 -0.78205,-0.91347 -1.76848,-1.02007 -0.98643,-0.1066 -1.99612,0.61302 z"
           clip-path="url(#pc9999bc10b)"
           style="fill:#ff0000;stroke:#ffffff;stroke-width:5"
           id="path100" />
        <path
           d="m 839.74692,492.19188 -3.3291,2.85015 1.29094,1.50788 q 0.71701,0.8375 1.54021,0.92258 0.82483,0.087 1.62624,-0.59913 0.79572,-0.68124 0.83688,-1.50962 0.0428,-0.82648 -0.67423,-1.66398 z m -0.0403,-2.04215 2.31686,2.7062 q 1.27631,1.49079 1.25411,2.82951 -0.0206,1.34061 -1.31956,2.45271 -1.31227,1.12348 -2.63625,0.93398 -1.32235,-0.18761 -2.59866,-1.67839 l -1.29094,-1.50788 -3.56079,3.04851 -1.02593,-1.19833 z m 6.1171,16.95902 -4.01278,3.43547 -0.93487,-1.09198 3.97669,-3.40457 q 0.94385,-0.80806 1.09561,-1.57645 0.15365,-0.77001 -0.47556,-1.50496 -0.75765,-0.88498 -1.75904,-0.91295 -0.99949,-0.0296 -1.97373,0.80448 l -3.7564,3.21597 -0.93975,-1.09768 9.23528,-7.9066 0.93975,1.09767 -3.62157,3.10054 q 0.93667,-0.12067 1.68655,0.15554 0.7515,0.27811 1.34657,0.97318 0.9804,1.14515 0.77443,2.33842 -0.20434,1.19517 -1.58118,2.37392 z m 3.77814,5.77385 q -1.13323,-1.32367 -1.87255,-1.57601 -0.73931,-0.25234 -1.47046,0.37362 -0.58113,0.49751 -0.59454,1.17379 -0.0115,0.67464 0.55105,1.33173 0.77879,0.90966 1.89246,0.90733 1.11366,-0.002 2.18095,-0.91607 l 0.24309,-0.20811 z m 2.31685,1.7913 -3.79248,3.24686 -0.93487,-1.09198 1.00841,-0.86333 q -0.92421,0.1429 -1.69087,-0.1683 -0.76667,-0.3112 -1.45767,-1.11831 -0.87309,-1.01981 -0.81659,-2.11474 0.0581,-1.09302 1.01907,-1.91571 1.12046,-0.95927 2.3324,-0.69689 1.21358,0.26428 2.48826,1.75317 l 1.31208,1.53257 0.10824,-0.0927 q 0.75394,-0.64547 0.74169,-1.49395 -0.0122,-0.84847 -0.77966,-1.74484 -0.48776,-0.56973 -1.08787,-0.99391 -0.59848,-0.42228 -1.29792,-0.68572 l 1.01031,-0.86496 q 0.74384,0.39986 1.34067,0.86634 0.59873,0.46485 1.0556,0.99849 1.23566,1.44331 1.09712,2.79606 -0.13664,1.35113 -1.65592,2.65183 z m 8.21088,4.20893 -1.03311,0.88448 q -0.1577,-0.66472 -0.46756,-1.26498 -0.30634,-0.59999 -0.76483,-1.13553 -0.69587,-0.81282 -1.29259,-1.00623 -0.59672,-0.19342 -1.09618,0.23419 -0.37982,0.32517 -0.34755,0.80108 0.0323,0.47591 0.58943,1.52265 l 0.23674,0.44566 q 0.74625,1.37523 0.71184,2.25378 -0.0344,0.87855 -0.84722,1.57443 -0.92676,0.79342 -2.09558,0.52374 -1.16693,-0.2713 -2.26439,-1.55318 -0.45687,-0.53365 -0.84831,-1.20229 -0.39144,-0.66865 -0.73236,-1.48586 l 1.12806,-0.96577 q 0.2034,0.87571 0.54817,1.59747 0.34667,0.72014 0.84094,1.29747 0.6601,0.77103 1.27851,0.95903 0.62004,0.18991 1.10051,-0.22144 0.44439,-0.38045 0.42489,-0.88374 -0.0179,-0.50139 -0.66742,-1.70601 l -0.23592,-0.45623 q -0.65552,-1.19622 -0.59999,-2.02703 0.0572,-0.82891 0.82819,-1.48901 0.93815,-0.80318 2.01616,-0.57423 1.07991,0.22732 2.12697,1.45033 0.51703,0.60391 0.88464,1.21397 0.37114,0.61034 0.57796,1.21325 z m 3.80747,10.22497 -0.53365,0.45687 -4.2988,-5.02119 q -1.06628,1.03793 -1.13662,2.15128 -0.0703,1.11336 0.85966,2.19964 0.53817,0.6286 1.19764,1.08752 0.65947,0.45892 1.46817,0.77693 l -1.03311,0.88447 q -0.7528,-0.37573 -1.41225,-0.88075 -0.65944,-0.50502 -1.20248,-1.13931 -1.36248,-1.59144 -1.23268,-3.3119 0.13171,-1.72208 1.71175,-3.0748 1.63132,-1.39662 3.34287,-1.33489 1.71344,0.0601 2.99463,1.5566 1.14786,1.34076 0.95201,2.86106 -0.19396,1.51867 -1.67714,2.78847 z m -0.61393,-1.36675 q 0.88471,-0.77717 0.99888,-1.72401 0.11607,-0.94846 -0.57492,-1.75557 -0.78205,-0.91347 -1.76848,-1.02007 -0.98643,-0.1066 -1.99612,0.61302 z"
           clip-path="url(#pc9999bc10b)"
           style="fill:#ff0000"
           id="path101" />
      </g>
      <path
         d="M 57.57,610.61217 V 11.63625"
         style="fill:none;stroke:#000000;stroke-width:2;stroke-linecap:square;stroke-linejoin:miter"
         id="path102" />
      <g
         id="patch_8"
         transform="translate(-124.5,-21)">
        <path
           d="M 1207.674,631.61217 V 32.63625"
           style="fill:none;stroke:#000000;stroke-width:2;stroke-linecap:square;stroke-linejoin:miter"
           id="path103" />
      </g>
      <g
         id="patch_9"
         transform="translate(-124.5,-21)">
        <path
           d="M 182.07,631.61217 H 1207.674"
           style="fill:none;stroke:#000000;stroke-width:2;stroke-linecap:square;stroke-linejoin:miter"
           id="path104" />
      </g>
      <g
         id="patch_10"
         transform="translate(-124.5,-21)">
        <path
           d="M 182.07,32.63625 H 1207.674"
           style="fill:none;stroke:#000000;stroke-width:2;stroke-linecap:square;stroke-linejoin:miter"
           id="path105" />
      </g>
      <text
         xml:space="preserve"
         style="font-size:20px;font-family:Arial;-inkscape-font-specification:Arial;text-align:start;writing-mode:lr-tb;direction:ltr;text-anchor:start;fill:#0000ff;fill-opacity:0.501961;stroke-width:1.41732"
         x="861.9162"
         y="573.38849"
         id="text107"><tspan
           sodipodi:role="line"
           style="font-size:24px;fill:#0000ff;fill-opacity:0.501961;stroke-width:1.41732"
           x="861.9162"
           y="573.38849"
           id="tspan108"><tspan
   style="fill:#0000ff;fill-opacity:0.8"
   id="tspan113">Right</tspan> </tspan><tspan
           sodipodi:role="line"
           style="fill:#0000ff;fill-opacity:0.501961;stroke-width:1.41732"
           x="861.9162"
           y="599.78546"
           id="tspan109" /></text>
      <text
         xml:space="preserve"
         style="font-size:24px;font-family:Arial;-inkscape-font-specification:Arial;text-align:start;writing-mode:lr-tb;direction:ltr;text-anchor:start;fill:#0000ff;fill-opacity:0.501961;stroke-width:1.41732"
         x="849.008"
         y="598.81793"
         id="text110"><tspan
           sodipodi:role="line"
           id="tspan110"
           style="font-size:24px;fill:#0000ff;fill-opacity:0.8;stroke-width:1.41732"
           x="849.008"
           y="598.81793">Contact</tspan></text>
      <text
         xml:space="preserve"
         style="font-size:24px;font-family:Arial;-inkscape-font-specification:Arial;text-align:start;writing-mode:lr-tb;direction:ltr;text-anchor:start;fill:#0000ff;fill-opacity:0.8;stroke-width:1.41732"
         x="1217.6738"
         y="278.186"
         id="text114"><tspan
           sodipodi:role="line"
           id="tspan114"
           style="stroke-width:1.41732"
           x="1217.6738"
           y="278.186" /><tspan
           sodipodi:role="line"
           style="stroke-width:1.41732"
           x="1217.6738"
           y="308.186"
           id="tspan115" /></text>
    </g>
  </g>
  <defs
     id="defs105">
    <clipPath
       id="pc9999bc10b">
      <rect
         x="182.07001"
         y="32.63625"
         width="1025.604"
         height="598.97589"
         id="rect105" />
    </clipPath>
  </defs>
</svg>
