<?xml version="1.0" encoding="utf-8" standalone="no"?>
<!DOCTYPE svg PUBLIC "-//W3C//DTD SVG 1.1//EN"
  "http://www.w3.org/Graphics/SVG/1.1/DTD/svg11.dtd">
<svg xmlns:xlink="http://www.w3.org/1999/xlink" width="460.8pt" height="345.6pt" viewBox="0 0 460.8 345.6" xmlns="http://www.w3.org/2000/svg" version="1.1">
 <metadata>
  <rdf:RDF xmlns:dc="http://purl.org/dc/elements/1.1/" xmlns:cc="http://creativecommons.org/ns#" xmlns:rdf="http://www.w3.org/1999/02/22-rdf-syntax-ns#">
   <cc:Work>
    <dc:type rdf:resource="http://purl.org/dc/dcmitype/StillImage"/>
    <dc:date>2025-09-13T21:48:03.598350</dc:date>
    <dc:format>image/svg+xml</dc:format>
    <dc:creator>
     <cc:Agent>
      <dc:title>Matplotlib v3.10.5, https://matplotlib.org/</dc:title>
     </cc:Agent>
    </dc:creator>
   </cc:Work>
  </rdf:RDF>
 </metadata>
 <defs>
  <style type="text/css">*{stroke-linejoin: round; stroke-linecap: butt}</style>
 </defs>
 <g id="figure_1">
  <g id="patch_1">
   <path d="M 0 345.6 
L 460.8 345.6 
L 460.8 0 
L 0 0 
z
" style="fill: #ffffff"/>
  </g>
  <g id="axes_1">
   <g id="patch_2">
    <path d="M 80.3 292.84 
L 445.865973 292.84 
L 445.865973 46.74 
L 80.3 46.74 
z
" style="fill: #ffffff"/>
   </g>
   <g id="axes_2">
    <g id="patch_3">
     <path d="M 80.3 46.74 
L 445.865973 46.74 
L 445.865973 46.74 
L 80.3 46.74 
z
" style="fill: #ffffff"/>
    </g>
    <g id="matplotlib.axis_1">
     <g id="xtick_1">
      <g id="line2d_1">
       <defs>
        <path id="mc1b1799a92" d="M 0 0 
L 0 3.5 
" style="stroke: #000000; stroke-width: 0.8"/>
       </defs>
       <g>
        <use xlink:href="#mc1b1799a92" x="81.460569" y="46.74" style="stroke: #000000; stroke-width: 0.8"/>
       </g>
      </g>
      <g id="text_1">
       <!-- 0 -->
       <g transform="translate(77.006819 40.328438) scale(0.14 -0.14)">
        <defs>
         <path id="DejaVuSans-30" d="M 2034 4250 
Q 1547 4250 1301 3770 
Q 1056 3291 1056 2328 
Q 1056 1369 1301 889 
Q 1547 409 2034 409 
Q 2525 409 2770 889 
Q 3016 1369 3016 2328 
Q 3016 3291 2770 3770 
Q 2525 4250 2034 4250 
z
M 2034 4750 
Q 2819 4750 3233 4129 
Q 3647 3509 3647 2328 
Q 3647 1150 3233 529 
Q 2819 -91 2034 -91 
Q 1250 -91 836 529 
Q 422 1150 422 2328 
Q 422 3509 836 4129 
Q 1250 4750 2034 4750 
z
" transform="scale(0.015625)"/>
        </defs>
        <use xlink:href="#DejaVuSans-30"/>
       </g>
      </g>
     </g>
     <g id="xtick_2">
      <g id="line2d_2">
       <g>
        <use xlink:href="#mc1b1799a92" x="134.234968" y="46.74" style="stroke: #000000; stroke-width: 0.8"/>
       </g>
      </g>
      <g id="text_2">
       <!-- 2 -->
       <g transform="translate(129.781218 40.328438) scale(0.14 -0.14)">
        <defs>
         <path id="DejaVuSans-32" d="M 1228 531 
L 3431 531 
L 3431 0 
L 469 0 
L 469 531 
Q 828 903 1448 1529 
Q 2069 2156 2228 2338 
Q 2531 2678 2651 2914 
Q 2772 3150 2772 3378 
Q 2772 3750 2511 3984 
Q 2250 4219 1831 4219 
Q 1534 4219 1204 4116 
Q 875 4013 500 3803 
L 500 4441 
Q 881 4594 1212 4672 
Q 1544 4750 1819 4750 
Q 2544 4750 2975 4387 
Q 3406 4025 3406 3419 
Q 3406 3131 3298 2873 
Q 3191 2616 2906 2266 
Q 2828 2175 2409 1742 
Q 1991 1309 1228 531 
z
" transform="scale(0.015625)"/>
        </defs>
        <use xlink:href="#DejaVuSans-32"/>
       </g>
      </g>
     </g>
     <g id="xtick_3">
      <g id="line2d_3">
       <g>
        <use xlink:href="#mc1b1799a92" x="187.009367" y="46.74" style="stroke: #000000; stroke-width: 0.8"/>
       </g>
      </g>
      <g id="text_3">
       <!-- 4 -->
       <g transform="translate(182.555617 40.328438) scale(0.14 -0.14)">
        <defs>
         <path id="DejaVuSans-34" d="M 2419 4116 
L 825 1625 
L 2419 1625 
L 2419 4116 
z
M 2253 4666 
L 3047 4666 
L 3047 1625 
L 3713 1625 
L 3713 1100 
L 3047 1100 
L 3047 0 
L 2419 0 
L 2419 1100 
L 313 1100 
L 313 1709 
L 2253 4666 
z
" transform="scale(0.015625)"/>
        </defs>
        <use xlink:href="#DejaVuSans-34"/>
       </g>
      </g>
     </g>
     <g id="xtick_4">
      <g id="line2d_4">
       <g>
        <use xlink:href="#mc1b1799a92" x="239.783766" y="46.74" style="stroke: #000000; stroke-width: 0.8"/>
       </g>
      </g>
      <g id="text_4">
       <!-- 6 -->
       <g transform="translate(235.330016 40.328438) scale(0.14 -0.14)">
        <defs>
         <path id="DejaVuSans-36" d="M 2113 2584 
Q 1688 2584 1439 2293 
Q 1191 2003 1191 1497 
Q 1191 994 1439 701 
Q 1688 409 2113 409 
Q 2538 409 2786 701 
Q 3034 994 3034 1497 
Q 3034 2003 2786 2293 
Q 2538 2584 2113 2584 
z
M 3366 4563 
L 3366 3988 
Q 3128 4100 2886 4159 
Q 2644 4219 2406 4219 
Q 1781 4219 1451 3797 
Q 1122 3375 1075 2522 
Q 1259 2794 1537 2939 
Q 1816 3084 2150 3084 
Q 2853 3084 3261 2657 
Q 3669 2231 3669 1497 
Q 3669 778 3244 343 
Q 2819 -91 2113 -91 
Q 1303 -91 875 529 
Q 447 1150 447 2328 
Q 447 3434 972 4092 
Q 1497 4750 2381 4750 
Q 2619 4750 2861 4703 
Q 3103 4656 3366 4563 
z
" transform="scale(0.015625)"/>
        </defs>
        <use xlink:href="#DejaVuSans-36"/>
       </g>
      </g>
     </g>
     <g id="xtick_5">
      <g id="line2d_5">
       <g>
        <use xlink:href="#mc1b1799a92" x="292.558165" y="46.74" style="stroke: #000000; stroke-width: 0.8"/>
       </g>
      </g>
      <g id="text_5">
       <!-- 8 -->
       <g transform="translate(288.104415 40.328438) scale(0.14 -0.14)">
        <defs>
         <path id="DejaVuSans-38" d="M 2034 2216 
Q 1584 2216 1326 1975 
Q 1069 1734 1069 1313 
Q 1069 891 1326 650 
Q 1584 409 2034 409 
Q 2484 409 2743 651 
Q 3003 894 3003 1313 
Q 3003 1734 2745 1975 
Q 2488 2216 2034 2216 
z
M 1403 2484 
Q 997 2584 770 2862 
Q 544 3141 544 3541 
Q 544 4100 942 4425 
Q 1341 4750 2034 4750 
Q 2731 4750 3128 4425 
Q 3525 4100 3525 3541 
Q 3525 3141 3298 2862 
Q 3072 2584 2669 2484 
Q 3125 2378 3379 2068 
Q 3634 1759 3634 1313 
Q 3634 634 3220 271 
Q 2806 -91 2034 -91 
Q 1263 -91 848 271 
Q 434 634 434 1313 
Q 434 1759 690 2068 
Q 947 2378 1403 2484 
z
M 1172 3481 
Q 1172 3119 1398 2916 
Q 1625 2713 2034 2713 
Q 2441 2713 2670 2916 
Q 2900 3119 2900 3481 
Q 2900 3844 2670 4047 
Q 2441 4250 2034 4250 
Q 1625 4250 1398 4047 
Q 1172 3844 1172 3481 
z
" transform="scale(0.015625)"/>
        </defs>
        <use xlink:href="#DejaVuSans-38"/>
       </g>
      </g>
     </g>
     <g id="xtick_6">
      <g id="line2d_6">
       <g>
        <use xlink:href="#mc1b1799a92" x="345.332564" y="46.74" style="stroke: #000000; stroke-width: 0.8"/>
       </g>
      </g>
      <g id="text_6">
       <!-- 10 -->
       <g transform="translate(336.425064 40.328438) scale(0.14 -0.14)">
        <defs>
         <path id="DejaVuSans-31" d="M 794 531 
L 1825 531 
L 1825 4091 
L 703 3866 
L 703 4441 
L 1819 4666 
L 2450 4666 
L 2450 531 
L 3481 531 
L 3481 0 
L 794 0 
L 794 531 
z
" transform="scale(0.015625)"/>
        </defs>
        <use xlink:href="#DejaVuSans-31"/>
        <use xlink:href="#DejaVuSans-30" transform="translate(63.623047 0)"/>
       </g>
      </g>
     </g>
     <g id="xtick_7">
      <g id="line2d_7">
       <g>
        <use xlink:href="#mc1b1799a92" x="398.106963" y="46.74" style="stroke: #000000; stroke-width: 0.8"/>
       </g>
      </g>
      <g id="text_7">
       <!-- 12 -->
       <g transform="translate(389.199463 40.328438) scale(0.14 -0.14)">
        <use xlink:href="#DejaVuSans-31"/>
        <use xlink:href="#DejaVuSans-32" transform="translate(63.623047 0)"/>
       </g>
      </g>
     </g>
     <g id="text_8">
      <!-- Shift in CEP ($\pi$ radians) -->
      <g transform="translate(159.582986 25.690625) scale(0.18 -0.18)">
       <defs>
        <path id="DejaVuSans-53" d="M 3425 4513 
L 3425 3897 
Q 3066 4069 2747 4153 
Q 2428 4238 2131 4238 
Q 1616 4238 1336 4038 
Q 1056 3838 1056 3469 
Q 1056 3159 1242 3001 
Q 1428 2844 1947 2747 
L 2328 2669 
Q 3034 2534 3370 2195 
Q 3706 1856 3706 1288 
Q 3706 609 3251 259 
Q 2797 -91 1919 -91 
Q 1588 -91 1214 -16 
Q 841 59 441 206 
L 441 856 
Q 825 641 1194 531 
Q 1563 422 1919 422 
Q 2459 422 2753 634 
Q 3047 847 3047 1241 
Q 3047 1584 2836 1778 
Q 2625 1972 2144 2069 
L 1759 2144 
Q 1053 2284 737 2584 
Q 422 2884 422 3419 
Q 422 4038 858 4394 
Q 1294 4750 2059 4750 
Q 2388 4750 2728 4690 
Q 3069 4631 3425 4513 
z
" transform="scale(0.015625)"/>
        <path id="DejaVuSans-68" d="M 3513 2113 
L 3513 0 
L 2938 0 
L 2938 2094 
Q 2938 2591 2744 2837 
Q 2550 3084 2163 3084 
Q 1697 3084 1428 2787 
Q 1159 2491 1159 1978 
L 1159 0 
L 581 0 
L 581 4863 
L 1159 4863 
L 1159 2956 
Q 1366 3272 1645 3428 
Q 1925 3584 2291 3584 
Q 2894 3584 3203 3211 
Q 3513 2838 3513 2113 
z
" transform="scale(0.015625)"/>
        <path id="DejaVuSans-69" d="M 603 3500 
L 1178 3500 
L 1178 0 
L 603 0 
L 603 3500 
z
M 603 4863 
L 1178 4863 
L 1178 4134 
L 603 4134 
L 603 4863 
z
" transform="scale(0.015625)"/>
        <path id="DejaVuSans-66" d="M 2375 4863 
L 2375 4384 
L 1825 4384 
Q 1516 4384 1395 4259 
Q 1275 4134 1275 3809 
L 1275 3500 
L 2222 3500 
L 2222 3053 
L 1275 3053 
L 1275 0 
L 697 0 
L 697 3053 
L 147 3053 
L 147 3500 
L 697 3500 
L 697 3744 
Q 697 4328 969 4595 
Q 1241 4863 1831 4863 
L 2375 4863 
z
" transform="scale(0.015625)"/>
        <path id="DejaVuSans-74" d="M 1172 4494 
L 1172 3500 
L 2356 3500 
L 2356 3053 
L 1172 3053 
L 1172 1153 
Q 1172 725 1289 603 
Q 1406 481 1766 481 
L 2356 481 
L 2356 0 
L 1766 0 
Q 1100 0 847 248 
Q 594 497 594 1153 
L 594 3053 
L 172 3053 
L 172 3500 
L 594 3500 
L 594 4494 
L 1172 4494 
z
" transform="scale(0.015625)"/>
        <path id="DejaVuSans-20" transform="scale(0.015625)"/>
        <path id="DejaVuSans-6e" d="M 3513 2113 
L 3513 0 
L 2938 0 
L 2938 2094 
Q 2938 2591 2744 2837 
Q 2550 3084 2163 3084 
Q 1697 3084 1428 2787 
Q 1159 2491 1159 1978 
L 1159 0 
L 581 0 
L 581 3500 
L 1159 3500 
L 1159 2956 
Q 1366 3272 1645 3428 
Q 1925 3584 2291 3584 
Q 2894 3584 3203 3211 
Q 3513 2838 3513 2113 
z
" transform="scale(0.015625)"/>
        <path id="DejaVuSans-43" d="M 4122 4306 
L 4122 3641 
Q 3803 3938 3442 4084 
Q 3081 4231 2675 4231 
Q 1875 4231 1450 3742 
Q 1025 3253 1025 2328 
Q 1025 1406 1450 917 
Q 1875 428 2675 428 
Q 3081 428 3442 575 
Q 3803 722 4122 1019 
L 4122 359 
Q 3791 134 3420 21 
Q 3050 -91 2638 -91 
Q 1578 -91 968 557 
Q 359 1206 359 2328 
Q 359 3453 968 4101 
Q 1578 4750 2638 4750 
Q 3056 4750 3426 4639 
Q 3797 4528 4122 4306 
z
" transform="scale(0.015625)"/>
        <path id="DejaVuSans-45" d="M 628 4666 
L 3578 4666 
L 3578 4134 
L 1259 4134 
L 1259 2753 
L 3481 2753 
L 3481 2222 
L 1259 2222 
L 1259 531 
L 3634 531 
L 3634 0 
L 628 0 
L 628 4666 
z
" transform="scale(0.015625)"/>
        <path id="DejaVuSans-50" d="M 1259 4147 
L 1259 2394 
L 2053 2394 
Q 2494 2394 2734 2622 
Q 2975 2850 2975 3272 
Q 2975 3691 2734 3919 
Q 2494 4147 2053 4147 
L 1259 4147 
z
M 628 4666 
L 2053 4666 
Q 2838 4666 3239 4311 
Q 3641 3956 3641 3272 
Q 3641 2581 3239 2228 
Q 2838 1875 2053 1875 
L 1259 1875 
L 1259 0 
L 628 0 
L 628 4666 
z
" transform="scale(0.015625)"/>
        <path id="DejaVuSans-28" d="M 1984 4856 
Q 1566 4138 1362 3434 
Q 1159 2731 1159 2009 
Q 1159 1288 1364 580 
Q 1569 -128 1984 -844 
L 1484 -844 
Q 1016 -109 783 600 
Q 550 1309 550 2009 
Q 550 2706 781 3412 
Q 1013 4119 1484 4856 
L 1984 4856 
z
" transform="scale(0.015625)"/>
        <path id="DejaVuSans-Oblique-3c0" d="M 584 3500 
L 3938 3500 
L 3825 2925 
L 3384 2925 
L 2966 775 
Q 2922 550 2981 450 
Q 3038 353 3209 353 
Q 3256 353 3325 363 
Q 3397 369 3419 372 
L 3338 -44 
Q 3222 -84 3103 -103 
Q 2981 -122 2866 -122 
Q 2491 -122 2388 81 
Q 2284 288 2391 838 
L 2797 2925 
L 1506 2925 
L 938 0 
L 350 0 
L 919 2925 
L 472 2925 
L 584 3500 
z
" transform="scale(0.015625)"/>
        <path id="DejaVuSans-72" d="M 2631 2963 
Q 2534 3019 2420 3045 
Q 2306 3072 2169 3072 
Q 1681 3072 1420 2755 
Q 1159 2438 1159 1844 
L 1159 0 
L 581 0 
L 581 3500 
L 1159 3500 
L 1159 2956 
Q 1341 3275 1631 3429 
Q 1922 3584 2338 3584 
Q 2397 3584 2469 3576 
Q 2541 3569 2628 3553 
L 2631 2963 
z
" transform="scale(0.015625)"/>
        <path id="DejaVuSans-61" d="M 2194 1759 
Q 1497 1759 1228 1600 
Q 959 1441 959 1056 
Q 959 750 1161 570 
Q 1363 391 1709 391 
Q 2188 391 2477 730 
Q 2766 1069 2766 1631 
L 2766 1759 
L 2194 1759 
z
M 3341 1997 
L 3341 0 
L 2766 0 
L 2766 531 
Q 2569 213 2275 61 
Q 1981 -91 1556 -91 
Q 1019 -91 701 211 
Q 384 513 384 1019 
Q 384 1609 779 1909 
Q 1175 2209 1959 2209 
L 2766 2209 
L 2766 2266 
Q 2766 2663 2505 2880 
Q 2244 3097 1772 3097 
Q 1472 3097 1187 3025 
Q 903 2953 641 2809 
L 641 3341 
Q 956 3463 1253 3523 
Q 1550 3584 1831 3584 
Q 2591 3584 2966 3190 
Q 3341 2797 3341 1997 
z
" transform="scale(0.015625)"/>
        <path id="DejaVuSans-64" d="M 2906 2969 
L 2906 4863 
L 3481 4863 
L 3481 0 
L 2906 0 
L 2906 525 
Q 2725 213 2448 61 
Q 2172 -91 1784 -91 
Q 1150 -91 751 415 
Q 353 922 353 1747 
Q 353 2572 751 3078 
Q 1150 3584 1784 3584 
Q 2172 3584 2448 3432 
Q 2725 3281 2906 2969 
z
M 947 1747 
Q 947 1113 1208 752 
Q 1469 391 1925 391 
Q 2381 391 2643 752 
Q 2906 1113 2906 1747 
Q 2906 2381 2643 2742 
Q 2381 3103 1925 3103 
Q 1469 3103 1208 2742 
Q 947 2381 947 1747 
z
" transform="scale(0.015625)"/>
        <path id="DejaVuSans-73" d="M 2834 3397 
L 2834 2853 
Q 2591 2978 2328 3040 
Q 2066 3103 1784 3103 
Q 1356 3103 1142 2972 
Q 928 2841 928 2578 
Q 928 2378 1081 2264 
Q 1234 2150 1697 2047 
L 1894 2003 
Q 2506 1872 2764 1633 
Q 3022 1394 3022 966 
Q 3022 478 2636 193 
Q 2250 -91 1575 -91 
Q 1294 -91 989 -36 
Q 684 19 347 128 
L 347 722 
Q 666 556 975 473 
Q 1284 391 1588 391 
Q 1994 391 2212 530 
Q 2431 669 2431 922 
Q 2431 1156 2273 1281 
Q 2116 1406 1581 1522 
L 1381 1569 
Q 847 1681 609 1914 
Q 372 2147 372 2553 
Q 372 3047 722 3315 
Q 1072 3584 1716 3584 
Q 2034 3584 2315 3537 
Q 2597 3491 2834 3397 
z
" transform="scale(0.015625)"/>
        <path id="DejaVuSans-29" d="M 513 4856 
L 1013 4856 
Q 1481 4119 1714 3412 
Q 1947 2706 1947 2009 
Q 1947 1309 1714 600 
Q 1481 -109 1013 -844 
L 513 -844 
Q 928 -128 1133 580 
Q 1338 1288 1338 2009 
Q 1338 2731 1133 3434 
Q 928 4138 513 4856 
z
" transform="scale(0.015625)"/>
       </defs>
       <use xlink:href="#DejaVuSans-53" transform="translate(0 0.015625)"/>
       <use xlink:href="#DejaVuSans-68" transform="translate(63.476562 0.015625)"/>
       <use xlink:href="#DejaVuSans-69" transform="translate(126.855469 0.015625)"/>
       <use xlink:href="#DejaVuSans-66" transform="translate(154.638672 0.015625)"/>
       <use xlink:href="#DejaVuSans-74" transform="translate(189.84375 0.015625)"/>
       <use xlink:href="#DejaVuSans-20" transform="translate(229.052734 0.015625)"/>
       <use xlink:href="#DejaVuSans-69" transform="translate(260.839844 0.015625)"/>
       <use xlink:href="#DejaVuSans-6e" transform="translate(288.623047 0.015625)"/>
       <use xlink:href="#DejaVuSans-20" transform="translate(352.001953 0.015625)"/>
       <use xlink:href="#DejaVuSans-43" transform="translate(383.789062 0.015625)"/>
       <use xlink:href="#DejaVuSans-45" transform="translate(453.613281 0.015625)"/>
       <use xlink:href="#DejaVuSans-50" transform="translate(516.796875 0.015625)"/>
       <use xlink:href="#DejaVuSans-20" transform="translate(577.099609 0.015625)"/>
       <use xlink:href="#DejaVuSans-28" transform="translate(608.886719 0.015625)"/>
       <use xlink:href="#DejaVuSans-Oblique-3c0" transform="translate(647.900391 0.015625)"/>
       <use xlink:href="#DejaVuSans-20" transform="translate(708.105469 0.015625)"/>
       <use xlink:href="#DejaVuSans-72" transform="translate(739.892578 0.015625)"/>
       <use xlink:href="#DejaVuSans-61" transform="translate(781.005859 0.015625)"/>
       <use xlink:href="#DejaVuSans-64" transform="translate(842.285156 0.015625)"/>
       <use xlink:href="#DejaVuSans-69" transform="translate(905.761719 0.015625)"/>
       <use xlink:href="#DejaVuSans-61" transform="translate(933.544922 0.015625)"/>
       <use xlink:href="#DejaVuSans-6e" transform="translate(994.824219 0.015625)"/>
       <use xlink:href="#DejaVuSans-73" transform="translate(1058.203125 0.015625)"/>
       <use xlink:href="#DejaVuSans-29" transform="translate(1110.302734 0.015625)"/>
      </g>
     </g>
    </g>
    <g id="matplotlib.axis_2"/>
    <g id="patch_4">
     <path d="M 80.3 46.74 
L 445.865973 46.74 
" style="fill: none; stroke: #000000; stroke-width: 1.5; stroke-linejoin: miter; stroke-linecap: square"/>
    </g>
   </g>
   <g id="PathCollection_1">
    <defs>
     <path id="m43fdd24127" d="M -3 3 
L 3 3 
L 3 -3 
L -3 -3 
z
" style="stroke: #add8e6"/>
    </defs>
    <g clip-path="url(#p1e63c47134)">
     <use xlink:href="#m43fdd24127" x="80.3" y="226.846161" style="fill: #add8e6; stroke: #add8e6"/>
     <use xlink:href="#m43fdd24127" x="82.949029" y="180.013743" style="fill: #add8e6; stroke: #add8e6"/>
     <use xlink:href="#m43fdd24127" x="85.598058" y="94.330064" style="fill: #add8e6; stroke: #add8e6"/>
     <use xlink:href="#m43fdd24127" x="88.247086" y="107.22161" style="fill: #add8e6; stroke: #add8e6"/>
     <use xlink:href="#m43fdd24127" x="90.896115" y="120.045706" style="fill: #add8e6; stroke: #add8e6"/>
     <use xlink:href="#m43fdd24127" x="93.545144" y="105.336199" style="fill: #add8e6; stroke: #add8e6"/>
     <use xlink:href="#m43fdd24127" x="96.194173" y="124.328429" style="fill: #add8e6; stroke: #add8e6"/>
     <use xlink:href="#m43fdd24127" x="98.843202" y="155.570556" style="fill: #add8e6; stroke: #add8e6"/>
     <use xlink:href="#m43fdd24127" x="101.49223" y="174.436696" style="fill: #add8e6; stroke: #add8e6"/>
     <use xlink:href="#m43fdd24127" x="104.141259" y="202.544811" style="fill: #add8e6; stroke: #add8e6"/>
     <use xlink:href="#m43fdd24127" x="106.790288" y="213.163195" style="fill: #add8e6; stroke: #add8e6"/>
     <use xlink:href="#m43fdd24127" x="109.439317" y="235.139162" style="fill: #add8e6; stroke: #add8e6"/>
     <use xlink:href="#m43fdd24127" x="112.088345" y="272.185156" style="fill: #add8e6; stroke: #add8e6"/>
     <use xlink:href="#m43fdd24127" x="114.737374" y="235.850913" style="fill: #add8e6; stroke: #add8e6"/>
     <use xlink:href="#m43fdd24127" x="117.386403" y="208.285873" style="fill: #add8e6; stroke: #add8e6"/>
     <use xlink:href="#m43fdd24127" x="120.035432" y="173.608065" style="fill: #add8e6; stroke: #add8e6"/>
     <use xlink:href="#m43fdd24127" x="122.684461" y="155.799985" style="fill: #add8e6; stroke: #add8e6"/>
     <use xlink:href="#m43fdd24127" x="125.333489" y="165.830065" style="fill: #add8e6; stroke: #add8e6"/>
     <use xlink:href="#m43fdd24127" x="127.982518" y="138.991108" style="fill: #add8e6; stroke: #add8e6"/>
     <use xlink:href="#m43fdd24127" x="130.631547" y="170.104767" style="fill: #add8e6; stroke: #add8e6"/>
     <use xlink:href="#m43fdd24127" x="133.280576" y="152.503311" style="fill: #add8e6; stroke: #add8e6"/>
     <use xlink:href="#m43fdd24127" x="135.929605" y="128.976826" style="fill: #add8e6; stroke: #add8e6"/>
     <use xlink:href="#m43fdd24127" x="138.578633" y="75.169132" style="fill: #add8e6; stroke: #add8e6"/>
     <use xlink:href="#m43fdd24127" x="141.227662" y="127.124442" style="fill: #add8e6; stroke: #add8e6"/>
     <use xlink:href="#m43fdd24127" x="143.876691" y="153.972383" style="fill: #add8e6; stroke: #add8e6"/>
     <use xlink:href="#m43fdd24127" x="146.52572" y="98.820922" style="fill: #add8e6; stroke: #add8e6"/>
     <use xlink:href="#m43fdd24127" x="149.174749" y="149.544612" style="fill: #add8e6; stroke: #add8e6"/>
     <use xlink:href="#m43fdd24127" x="151.823777" y="105.678945" style="fill: #add8e6; stroke: #add8e6"/>
     <use xlink:href="#m43fdd24127" x="154.472806" y="158.455045" style="fill: #add8e6; stroke: #add8e6"/>
     <use xlink:href="#m43fdd24127" x="157.121835" y="220.433359" style="fill: #add8e6; stroke: #add8e6"/>
     <use xlink:href="#m43fdd24127" x="159.770864" y="146.116674" style="fill: #add8e6; stroke: #add8e6"/>
     <use xlink:href="#m43fdd24127" x="162.419892" y="174.73952" style="fill: #add8e6; stroke: #add8e6"/>
     <use xlink:href="#m43fdd24127" x="165.068921" y="264.215523" style="fill: #add8e6; stroke: #add8e6"/>
     <use xlink:href="#m43fdd24127" x="167.71795" y="234.762821" style="fill: #add8e6; stroke: #add8e6"/>
     <use xlink:href="#m43fdd24127" x="170.366979" y="213.86117" style="fill: #add8e6; stroke: #add8e6"/>
     <use xlink:href="#m43fdd24127" x="173.016008" y="217.525199" style="fill: #add8e6; stroke: #add8e6"/>
     <use xlink:href="#m43fdd24127" x="175.665036" y="198.97735" style="fill: #add8e6; stroke: #add8e6"/>
     <use xlink:href="#m43fdd24127" x="178.314065" y="218.036263" style="fill: #add8e6; stroke: #add8e6"/>
     <use xlink:href="#m43fdd24127" x="180.963094" y="141.015578" style="fill: #add8e6; stroke: #add8e6"/>
     <use xlink:href="#m43fdd24127" x="183.612123" y="136.500713" style="fill: #add8e6; stroke: #add8e6"/>
     <use xlink:href="#m43fdd24127" x="186.261152" y="109.769541" style="fill: #add8e6; stroke: #add8e6"/>
     <use xlink:href="#m43fdd24127" x="188.91018" y="100.693944" style="fill: #add8e6; stroke: #add8e6"/>
     <use xlink:href="#m43fdd24127" x="191.559209" y="57.926364" style="fill: #add8e6; stroke: #add8e6"/>
     <use xlink:href="#m43fdd24127" x="194.208238" y="99.910728" style="fill: #add8e6; stroke: #add8e6"/>
     <use xlink:href="#m43fdd24127" x="196.857267" y="127.066818" style="fill: #add8e6; stroke: #add8e6"/>
     <use xlink:href="#m43fdd24127" x="199.506295" y="126.52242" style="fill: #add8e6; stroke: #add8e6"/>
     <use xlink:href="#m43fdd24127" x="202.155324" y="115.050194" style="fill: #add8e6; stroke: #add8e6"/>
     <use xlink:href="#m43fdd24127" x="204.804353" y="178.012911" style="fill: #add8e6; stroke: #add8e6"/>
     <use xlink:href="#m43fdd24127" x="207.453382" y="211.712419" style="fill: #add8e6; stroke: #add8e6"/>
     <use xlink:href="#m43fdd24127" x="210.102411" y="220.697889" style="fill: #add8e6; stroke: #add8e6"/>
     <use xlink:href="#m43fdd24127" x="212.751439" y="206.306906" style="fill: #add8e6; stroke: #add8e6"/>
     <use xlink:href="#m43fdd24127" x="215.400468" y="198.016921" style="fill: #add8e6; stroke: #add8e6"/>
     <use xlink:href="#m43fdd24127" x="218.049497" y="231.51814" style="fill: #add8e6; stroke: #add8e6"/>
     <use xlink:href="#m43fdd24127" x="220.698526" y="262.765882" style="fill: #add8e6; stroke: #add8e6"/>
     <use xlink:href="#m43fdd24127" x="223.347555" y="209.626939" style="fill: #add8e6; stroke: #add8e6"/>
     <use xlink:href="#m43fdd24127" x="225.996583" y="241.117633" style="fill: #add8e6; stroke: #add8e6"/>
     <use xlink:href="#m43fdd24127" x="228.645612" y="199.823238" style="fill: #add8e6; stroke: #add8e6"/>
     <use xlink:href="#m43fdd24127" x="231.294641" y="214.41698" style="fill: #add8e6; stroke: #add8e6"/>
     <use xlink:href="#m43fdd24127" x="233.94367" y="184.129981" style="fill: #add8e6; stroke: #add8e6"/>
     <use xlink:href="#m43fdd24127" x="236.592699" y="144.216988" style="fill: #add8e6; stroke: #add8e6"/>
     <use xlink:href="#m43fdd24127" x="239.241727" y="175.133587" style="fill: #add8e6; stroke: #add8e6"/>
     <use xlink:href="#m43fdd24127" x="241.890756" y="135.800306" style="fill: #add8e6; stroke: #add8e6"/>
     <use xlink:href="#m43fdd24127" x="244.539785" y="114.388133" style="fill: #add8e6; stroke: #add8e6"/>
     <use xlink:href="#m43fdd24127" x="247.188814" y="102.8621" style="fill: #add8e6; stroke: #add8e6"/>
     <use xlink:href="#m43fdd24127" x="249.837842" y="145.628537" style="fill: #add8e6; stroke: #add8e6"/>
     <use xlink:href="#m43fdd24127" x="252.486871" y="122.637062" style="fill: #add8e6; stroke: #add8e6"/>
     <use xlink:href="#m43fdd24127" x="255.1359" y="143.768697" style="fill: #add8e6; stroke: #add8e6"/>
     <use xlink:href="#m43fdd24127" x="257.784929" y="152.851235" style="fill: #add8e6; stroke: #add8e6"/>
     <use xlink:href="#m43fdd24127" x="260.433958" y="169.831897" style="fill: #add8e6; stroke: #add8e6"/>
     <use xlink:href="#m43fdd24127" x="263.082986" y="128.47737" style="fill: #add8e6; stroke: #add8e6"/>
     <use xlink:href="#m43fdd24127" x="265.732015" y="131.088842" style="fill: #add8e6; stroke: #add8e6"/>
     <use xlink:href="#m43fdd24127" x="268.381044" y="184.16508" style="fill: #add8e6; stroke: #add8e6"/>
     <use xlink:href="#m43fdd24127" x="271.030073" y="222.9929" style="fill: #add8e6; stroke: #add8e6"/>
     <use xlink:href="#m43fdd24127" x="273.679102" y="202.15942" style="fill: #add8e6; stroke: #add8e6"/>
     <use xlink:href="#m43fdd24127" x="276.32813" y="212.202395" style="fill: #add8e6; stroke: #add8e6"/>
     <use xlink:href="#m43fdd24127" x="278.977159" y="220.347377" style="fill: #add8e6; stroke: #add8e6"/>
     <use xlink:href="#m43fdd24127" x="281.626188" y="164.582361" style="fill: #add8e6; stroke: #add8e6"/>
     <use xlink:href="#m43fdd24127" x="284.275217" y="114.777246" style="fill: #add8e6; stroke: #add8e6"/>
     <use xlink:href="#m43fdd24127" x="286.924246" y="83.044136" style="fill: #add8e6; stroke: #add8e6"/>
     <use xlink:href="#m43fdd24127" x="289.573274" y="173.159074" style="fill: #add8e6; stroke: #add8e6"/>
     <use xlink:href="#m43fdd24127" x="292.222303" y="148.839635" style="fill: #add8e6; stroke: #add8e6"/>
     <use xlink:href="#m43fdd24127" x="294.871332" y="124.588702" style="fill: #add8e6; stroke: #add8e6"/>
     <use xlink:href="#m43fdd24127" x="297.520361" y="137.866056" style="fill: #add8e6; stroke: #add8e6"/>
     <use xlink:href="#m43fdd24127" x="300.169389" y="122.551251" style="fill: #add8e6; stroke: #add8e6"/>
     <use xlink:href="#m43fdd24127" x="302.818418" y="91.745603" style="fill: #add8e6; stroke: #add8e6"/>
     <use xlink:href="#m43fdd24127" x="305.467447" y="129.493578" style="fill: #add8e6; stroke: #add8e6"/>
     <use xlink:href="#m43fdd24127" x="308.116476" y="145.069937" style="fill: #add8e6; stroke: #add8e6"/>
     <use xlink:href="#m43fdd24127" x="310.765505" y="137.165765" style="fill: #add8e6; stroke: #add8e6"/>
     <use xlink:href="#m43fdd24127" x="313.414533" y="173.136887" style="fill: #add8e6; stroke: #add8e6"/>
     <use xlink:href="#m43fdd24127" x="316.063562" y="188.002511" style="fill: #add8e6; stroke: #add8e6"/>
     <use xlink:href="#m43fdd24127" x="318.712591" y="152.763501" style="fill: #add8e6; stroke: #add8e6"/>
     <use xlink:href="#m43fdd24127" x="321.36162" y="204.486326" style="fill: #add8e6; stroke: #add8e6"/>
     <use xlink:href="#m43fdd24127" x="324.010649" y="219.957456" style="fill: #add8e6; stroke: #add8e6"/>
     <use xlink:href="#m43fdd24127" x="326.659677" y="230.591591" style="fill: #add8e6; stroke: #add8e6"/>
     <use xlink:href="#m43fdd24127" x="329.308706" y="247.241902" style="fill: #add8e6; stroke: #add8e6"/>
     <use xlink:href="#m43fdd24127" x="331.957735" y="246.381885" style="fill: #add8e6; stroke: #add8e6"/>
     <use xlink:href="#m43fdd24127" x="334.606764" y="281.653636" style="fill: #add8e6; stroke: #add8e6"/>
     <use xlink:href="#m43fdd24127" x="337.255793" y="254.537413" style="fill: #add8e6; stroke: #add8e6"/>
     <use xlink:href="#m43fdd24127" x="339.904821" y="217.690574" style="fill: #add8e6; stroke: #add8e6"/>
     <use xlink:href="#m43fdd24127" x="342.55385" y="200.616272" style="fill: #add8e6; stroke: #add8e6"/>
     <use xlink:href="#m43fdd24127" x="345.202879" y="154.523269" style="fill: #add8e6; stroke: #add8e6"/>
     <use xlink:href="#m43fdd24127" x="347.851908" y="128.223693" style="fill: #add8e6; stroke: #add8e6"/>
     <use xlink:href="#m43fdd24127" x="350.500936" y="154.191021" style="fill: #add8e6; stroke: #add8e6"/>
     <use xlink:href="#m43fdd24127" x="353.149965" y="118.458365" style="fill: #add8e6; stroke: #add8e6"/>
     <use xlink:href="#m43fdd24127" x="355.798994" y="95.63679" style="fill: #add8e6; stroke: #add8e6"/>
     <use xlink:href="#m43fdd24127" x="358.448023" y="74.439888" style="fill: #add8e6; stroke: #add8e6"/>
     <use xlink:href="#m43fdd24127" x="361.097052" y="137.41472" style="fill: #add8e6; stroke: #add8e6"/>
     <use xlink:href="#m43fdd24127" x="363.74608" y="101.372373" style="fill: #add8e6; stroke: #add8e6"/>
     <use xlink:href="#m43fdd24127" x="366.395109" y="115.699668" style="fill: #add8e6; stroke: #add8e6"/>
     <use xlink:href="#m43fdd24127" x="369.044138" y="140.878652" style="fill: #add8e6; stroke: #add8e6"/>
     <use xlink:href="#m43fdd24127" x="371.693167" y="171.472692" style="fill: #add8e6; stroke: #add8e6"/>
     <use xlink:href="#m43fdd24127" x="374.342196" y="211.030973" style="fill: #add8e6; stroke: #add8e6"/>
     <use xlink:href="#m43fdd24127" x="376.991224" y="201.146704" style="fill: #add8e6; stroke: #add8e6"/>
     <use xlink:href="#m43fdd24127" x="379.640253" y="173.471547" style="fill: #add8e6; stroke: #add8e6"/>
     <use xlink:href="#m43fdd24127" x="382.289282" y="189.753685" style="fill: #add8e6; stroke: #add8e6"/>
     <use xlink:href="#m43fdd24127" x="384.938311" y="199.899442" style="fill: #add8e6; stroke: #add8e6"/>
     <use xlink:href="#m43fdd24127" x="387.58734" y="193.970041" style="fill: #add8e6; stroke: #add8e6"/>
     <use xlink:href="#m43fdd24127" x="390.236368" y="130.832636" style="fill: #add8e6; stroke: #add8e6"/>
     <use xlink:href="#m43fdd24127" x="392.885397" y="171.468947" style="fill: #add8e6; stroke: #add8e6"/>
     <use xlink:href="#m43fdd24127" x="395.534426" y="189.693361" style="fill: #add8e6; stroke: #add8e6"/>
     <use xlink:href="#m43fdd24127" x="398.183455" y="199.77371" style="fill: #add8e6; stroke: #add8e6"/>
     <use xlink:href="#m43fdd24127" x="400.832483" y="132.308154" style="fill: #add8e6; stroke: #add8e6"/>
     <use xlink:href="#m43fdd24127" x="403.481512" y="136.152991" style="fill: #add8e6; stroke: #add8e6"/>
     <use xlink:href="#m43fdd24127" x="406.130541" y="165.261775" style="fill: #add8e6; stroke: #add8e6"/>
     <use xlink:href="#m43fdd24127" x="408.77957" y="115.229098" style="fill: #add8e6; stroke: #add8e6"/>
     <use xlink:href="#m43fdd24127" x="411.428599" y="137.482163" style="fill: #add8e6; stroke: #add8e6"/>
     <use xlink:href="#m43fdd24127" x="414.077627" y="167.642373" style="fill: #add8e6; stroke: #add8e6"/>
     <use xlink:href="#m43fdd24127" x="416.726656" y="153.756645" style="fill: #add8e6; stroke: #add8e6"/>
     <use xlink:href="#m43fdd24127" x="419.375685" y="165.536106" style="fill: #add8e6; stroke: #add8e6"/>
     <use xlink:href="#m43fdd24127" x="422.024714" y="177.636575" style="fill: #add8e6; stroke: #add8e6"/>
     <use xlink:href="#m43fdd24127" x="424.673743" y="181.478081" style="fill: #add8e6; stroke: #add8e6"/>
     <use xlink:href="#m43fdd24127" x="427.322771" y="193.754412" style="fill: #add8e6; stroke: #add8e6"/>
     <use xlink:href="#m43fdd24127" x="429.9718" y="190.707133" style="fill: #add8e6; stroke: #add8e6"/>
     <use xlink:href="#m43fdd24127" x="432.620829" y="232.632994" style="fill: #add8e6; stroke: #add8e6"/>
     <use xlink:href="#m43fdd24127" x="435.269858" y="166.239495" style="fill: #add8e6; stroke: #add8e6"/>
     <use xlink:href="#m43fdd24127" x="437.918886" y="150.172597" style="fill: #add8e6; stroke: #add8e6"/>
     <use xlink:href="#m43fdd24127" x="440.567915" y="171.147561" style="fill: #add8e6; stroke: #add8e6"/>
     <use xlink:href="#m43fdd24127" x="443.216944" y="160.87451" style="fill: #add8e6; stroke: #add8e6"/>
     <use xlink:href="#m43fdd24127" x="445.865973" y="158.389026" style="fill: #add8e6; stroke: #add8e6"/>
    </g>
   </g>
   <g id="PathCollection_2">
    <defs>
     <path id="mb0132cf347" d="M -3 3 
L 3 3 
L 3 -3 
L -3 -3 
z
" style="stroke: #ffc0cb"/>
    </defs>
    <g clip-path="url(#p1e63c47134)">
     <use xlink:href="#mb0132cf347" x="80.3" y="162.985748" style="fill: #ffc0cb; stroke: #ffc0cb"/>
     <use xlink:href="#mb0132cf347" x="82.949029" y="166.242641" style="fill: #ffc0cb; stroke: #ffc0cb"/>
     <use xlink:href="#mb0132cf347" x="85.598058" y="167.788039" style="fill: #ffc0cb; stroke: #ffc0cb"/>
     <use xlink:href="#mb0132cf347" x="88.247086" y="168.384263" style="fill: #ffc0cb; stroke: #ffc0cb"/>
     <use xlink:href="#mb0132cf347" x="90.896115" y="174.273788" style="fill: #ffc0cb; stroke: #ffc0cb"/>
     <use xlink:href="#mb0132cf347" x="93.545144" y="174.902883" style="fill: #ffc0cb; stroke: #ffc0cb"/>
     <use xlink:href="#mb0132cf347" x="96.194173" y="181.726058" style="fill: #ffc0cb; stroke: #ffc0cb"/>
     <use xlink:href="#mb0132cf347" x="98.843202" y="170.708363" style="fill: #ffc0cb; stroke: #ffc0cb"/>
     <use xlink:href="#mb0132cf347" x="101.49223" y="166.082457" style="fill: #ffc0cb; stroke: #ffc0cb"/>
     <use xlink:href="#mb0132cf347" x="104.141259" y="166.197709" style="fill: #ffc0cb; stroke: #ffc0cb"/>
     <use xlink:href="#mb0132cf347" x="106.790288" y="161.667927" style="fill: #ffc0cb; stroke: #ffc0cb"/>
     <use xlink:href="#mb0132cf347" x="109.439317" y="161.61197" style="fill: #ffc0cb; stroke: #ffc0cb"/>
     <use xlink:href="#mb0132cf347" x="112.088345" y="159.023805" style="fill: #ffc0cb; stroke: #ffc0cb"/>
     <use xlink:href="#mb0132cf347" x="114.737374" y="163.605077" style="fill: #ffc0cb; stroke: #ffc0cb"/>
     <use xlink:href="#mb0132cf347" x="117.386403" y="162.587174" style="fill: #ffc0cb; stroke: #ffc0cb"/>
     <use xlink:href="#mb0132cf347" x="120.035432" y="161.726999" style="fill: #ffc0cb; stroke: #ffc0cb"/>
     <use xlink:href="#mb0132cf347" x="122.684461" y="162.899743" style="fill: #ffc0cb; stroke: #ffc0cb"/>
     <use xlink:href="#mb0132cf347" x="125.333489" y="165.389462" style="fill: #ffc0cb; stroke: #ffc0cb"/>
     <use xlink:href="#mb0132cf347" x="127.982518" y="168.638494" style="fill: #ffc0cb; stroke: #ffc0cb"/>
     <use xlink:href="#mb0132cf347" x="130.631547" y="168.951474" style="fill: #ffc0cb; stroke: #ffc0cb"/>
     <use xlink:href="#mb0132cf347" x="133.280576" y="163.807313" style="fill: #ffc0cb; stroke: #ffc0cb"/>
     <use xlink:href="#mb0132cf347" x="135.929605" y="168.648329" style="fill: #ffc0cb; stroke: #ffc0cb"/>
     <use xlink:href="#mb0132cf347" x="138.578633" y="167.383088" style="fill: #ffc0cb; stroke: #ffc0cb"/>
     <use xlink:href="#mb0132cf347" x="141.227662" y="167.915265" style="fill: #ffc0cb; stroke: #ffc0cb"/>
     <use xlink:href="#mb0132cf347" x="143.876691" y="167.565562" style="fill: #ffc0cb; stroke: #ffc0cb"/>
     <use xlink:href="#mb0132cf347" x="146.52572" y="170.860811" style="fill: #ffc0cb; stroke: #ffc0cb"/>
     <use xlink:href="#mb0132cf347" x="149.174749" y="168.557857" style="fill: #ffc0cb; stroke: #ffc0cb"/>
     <use xlink:href="#mb0132cf347" x="151.823777" y="168.520461" style="fill: #ffc0cb; stroke: #ffc0cb"/>
     <use xlink:href="#mb0132cf347" x="154.472806" y="170.078063" style="fill: #ffc0cb; stroke: #ffc0cb"/>
     <use xlink:href="#mb0132cf347" x="157.121835" y="169.815958" style="fill: #ffc0cb; stroke: #ffc0cb"/>
     <use xlink:href="#mb0132cf347" x="159.770864" y="163.73887" style="fill: #ffc0cb; stroke: #ffc0cb"/>
     <use xlink:href="#mb0132cf347" x="162.419892" y="164.273945" style="fill: #ffc0cb; stroke: #ffc0cb"/>
     <use xlink:href="#mb0132cf347" x="165.068921" y="161.215794" style="fill: #ffc0cb; stroke: #ffc0cb"/>
     <use xlink:href="#mb0132cf347" x="167.71795" y="163.190353" style="fill: #ffc0cb; stroke: #ffc0cb"/>
     <use xlink:href="#mb0132cf347" x="170.366979" y="162.963434" style="fill: #ffc0cb; stroke: #ffc0cb"/>
     <use xlink:href="#mb0132cf347" x="173.016008" y="162.259011" style="fill: #ffc0cb; stroke: #ffc0cb"/>
     <use xlink:href="#mb0132cf347" x="175.665036" y="163.484957" style="fill: #ffc0cb; stroke: #ffc0cb"/>
     <use xlink:href="#mb0132cf347" x="178.314065" y="165.613082" style="fill: #ffc0cb; stroke: #ffc0cb"/>
     <use xlink:href="#mb0132cf347" x="180.963094" y="166.876423" style="fill: #ffc0cb; stroke: #ffc0cb"/>
     <use xlink:href="#mb0132cf347" x="183.612123" y="170.24453" style="fill: #ffc0cb; stroke: #ffc0cb"/>
     <use xlink:href="#mb0132cf347" x="186.261152" y="171.378529" style="fill: #ffc0cb; stroke: #ffc0cb"/>
     <use xlink:href="#mb0132cf347" x="188.91018" y="173.954241" style="fill: #ffc0cb; stroke: #ffc0cb"/>
     <use xlink:href="#mb0132cf347" x="191.559209" y="173.769885" style="fill: #ffc0cb; stroke: #ffc0cb"/>
     <use xlink:href="#mb0132cf347" x="194.208238" y="175.855016" style="fill: #ffc0cb; stroke: #ffc0cb"/>
     <use xlink:href="#mb0132cf347" x="196.857267" y="175.204072" style="fill: #ffc0cb; stroke: #ffc0cb"/>
     <use xlink:href="#mb0132cf347" x="199.506295" y="177.122895" style="fill: #ffc0cb; stroke: #ffc0cb"/>
     <use xlink:href="#mb0132cf347" x="202.155324" y="171.977744" style="fill: #ffc0cb; stroke: #ffc0cb"/>
     <use xlink:href="#mb0132cf347" x="204.804353" y="173.354163" style="fill: #ffc0cb; stroke: #ffc0cb"/>
     <use xlink:href="#mb0132cf347" x="207.453382" y="168.83583" style="fill: #ffc0cb; stroke: #ffc0cb"/>
     <use xlink:href="#mb0132cf347" x="210.102411" y="166.678383" style="fill: #ffc0cb; stroke: #ffc0cb"/>
     <use xlink:href="#mb0132cf347" x="212.751439" y="165.438146" style="fill: #ffc0cb; stroke: #ffc0cb"/>
     <use xlink:href="#mb0132cf347" x="215.400468" y="160.552593" style="fill: #ffc0cb; stroke: #ffc0cb"/>
     <use xlink:href="#mb0132cf347" x="218.049497" y="159.201814" style="fill: #ffc0cb; stroke: #ffc0cb"/>
     <use xlink:href="#mb0132cf347" x="220.698526" y="158.770201" style="fill: #ffc0cb; stroke: #ffc0cb"/>
     <use xlink:href="#mb0132cf347" x="223.347555" y="158.010319" style="fill: #ffc0cb; stroke: #ffc0cb"/>
     <use xlink:href="#mb0132cf347" x="225.996583" y="159.76665" style="fill: #ffc0cb; stroke: #ffc0cb"/>
     <use xlink:href="#mb0132cf347" x="228.645612" y="161.466388" style="fill: #ffc0cb; stroke: #ffc0cb"/>
     <use xlink:href="#mb0132cf347" x="231.294641" y="157.5149" style="fill: #ffc0cb; stroke: #ffc0cb"/>
     <use xlink:href="#mb0132cf347" x="233.94367" y="159.807562" style="fill: #ffc0cb; stroke: #ffc0cb"/>
     <use xlink:href="#mb0132cf347" x="236.592699" y="164.670781" style="fill: #ffc0cb; stroke: #ffc0cb"/>
     <use xlink:href="#mb0132cf347" x="239.241727" y="166.245082" style="fill: #ffc0cb; stroke: #ffc0cb"/>
     <use xlink:href="#mb0132cf347" x="241.890756" y="170.366854" style="fill: #ffc0cb; stroke: #ffc0cb"/>
     <use xlink:href="#mb0132cf347" x="244.539785" y="166.106041" style="fill: #ffc0cb; stroke: #ffc0cb"/>
     <use xlink:href="#mb0132cf347" x="247.188814" y="170.267468" style="fill: #ffc0cb; stroke: #ffc0cb"/>
     <use xlink:href="#mb0132cf347" x="249.837842" y="170.659885" style="fill: #ffc0cb; stroke: #ffc0cb"/>
     <use xlink:href="#mb0132cf347" x="252.486871" y="168.720116" style="fill: #ffc0cb; stroke: #ffc0cb"/>
     <use xlink:href="#mb0132cf347" x="255.1359" y="170.365353" style="fill: #ffc0cb; stroke: #ffc0cb"/>
     <use xlink:href="#mb0132cf347" x="257.784929" y="170.791663" style="fill: #ffc0cb; stroke: #ffc0cb"/>
     <use xlink:href="#mb0132cf347" x="260.433958" y="169.005536" style="fill: #ffc0cb; stroke: #ffc0cb"/>
     <use xlink:href="#mb0132cf347" x="263.082986" y="169.110076" style="fill: #ffc0cb; stroke: #ffc0cb"/>
     <use xlink:href="#mb0132cf347" x="265.732015" y="166.799442" style="fill: #ffc0cb; stroke: #ffc0cb"/>
     <use xlink:href="#mb0132cf347" x="268.381044" y="165.160052" style="fill: #ffc0cb; stroke: #ffc0cb"/>
     <use xlink:href="#mb0132cf347" x="271.030073" y="164.150853" style="fill: #ffc0cb; stroke: #ffc0cb"/>
     <use xlink:href="#mb0132cf347" x="273.679102" y="168.164327" style="fill: #ffc0cb; stroke: #ffc0cb"/>
     <use xlink:href="#mb0132cf347" x="276.32813" y="164.951694" style="fill: #ffc0cb; stroke: #ffc0cb"/>
     <use xlink:href="#mb0132cf347" x="278.977159" y="160.848794" style="fill: #ffc0cb; stroke: #ffc0cb"/>
     <use xlink:href="#mb0132cf347" x="281.626188" y="158.755673" style="fill: #ffc0cb; stroke: #ffc0cb"/>
     <use xlink:href="#mb0132cf347" x="284.275217" y="161.303031" style="fill: #ffc0cb; stroke: #ffc0cb"/>
     <use xlink:href="#mb0132cf347" x="286.924246" y="167.251394" style="fill: #ffc0cb; stroke: #ffc0cb"/>
     <use xlink:href="#mb0132cf347" x="289.573274" y="165.941248" style="fill: #ffc0cb; stroke: #ffc0cb"/>
     <use xlink:href="#mb0132cf347" x="292.222303" y="164.512734" style="fill: #ffc0cb; stroke: #ffc0cb"/>
     <use xlink:href="#mb0132cf347" x="294.871332" y="169.098944" style="fill: #ffc0cb; stroke: #ffc0cb"/>
     <use xlink:href="#mb0132cf347" x="297.520361" y="171.689488" style="fill: #ffc0cb; stroke: #ffc0cb"/>
     <use xlink:href="#mb0132cf347" x="300.169389" y="173.885599" style="fill: #ffc0cb; stroke: #ffc0cb"/>
     <use xlink:href="#mb0132cf347" x="302.818418" y="172.76482" style="fill: #ffc0cb; stroke: #ffc0cb"/>
     <use xlink:href="#mb0132cf347" x="305.467447" y="177.615803" style="fill: #ffc0cb; stroke: #ffc0cb"/>
     <use xlink:href="#mb0132cf347" x="308.116476" y="176.985465" style="fill: #ffc0cb; stroke: #ffc0cb"/>
     <use xlink:href="#mb0132cf347" x="310.765505" y="171.232584" style="fill: #ffc0cb; stroke: #ffc0cb"/>
     <use xlink:href="#mb0132cf347" x="313.414533" y="173.361191" style="fill: #ffc0cb; stroke: #ffc0cb"/>
     <use xlink:href="#mb0132cf347" x="316.063562" y="167.798882" style="fill: #ffc0cb; stroke: #ffc0cb"/>
     <use xlink:href="#mb0132cf347" x="318.712591" y="167.261497" style="fill: #ffc0cb; stroke: #ffc0cb"/>
     <use xlink:href="#mb0132cf347" x="321.36162" y="165.437134" style="fill: #ffc0cb; stroke: #ffc0cb"/>
     <use xlink:href="#mb0132cf347" x="324.010649" y="164.124807" style="fill: #ffc0cb; stroke: #ffc0cb"/>
     <use xlink:href="#mb0132cf347" x="326.659677" y="163.366889" style="fill: #ffc0cb; stroke: #ffc0cb"/>
     <use xlink:href="#mb0132cf347" x="329.308706" y="162.159063" style="fill: #ffc0cb; stroke: #ffc0cb"/>
     <use xlink:href="#mb0132cf347" x="331.957735" y="166.252754" style="fill: #ffc0cb; stroke: #ffc0cb"/>
     <use xlink:href="#mb0132cf347" x="334.606764" y="162.38395" style="fill: #ffc0cb; stroke: #ffc0cb"/>
     <use xlink:href="#mb0132cf347" x="337.255793" y="160.873244" style="fill: #ffc0cb; stroke: #ffc0cb"/>
     <use xlink:href="#mb0132cf347" x="339.904821" y="159.345815" style="fill: #ffc0cb; stroke: #ffc0cb"/>
     <use xlink:href="#mb0132cf347" x="342.55385" y="162.183246" style="fill: #ffc0cb; stroke: #ffc0cb"/>
     <use xlink:href="#mb0132cf347" x="345.202879" y="165.856276" style="fill: #ffc0cb; stroke: #ffc0cb"/>
     <use xlink:href="#mb0132cf347" x="347.851908" y="169.945975" style="fill: #ffc0cb; stroke: #ffc0cb"/>
     <use xlink:href="#mb0132cf347" x="350.500936" y="169.786854" style="fill: #ffc0cb; stroke: #ffc0cb"/>
     <use xlink:href="#mb0132cf347" x="353.149965" y="170.441207" style="fill: #ffc0cb; stroke: #ffc0cb"/>
     <use xlink:href="#mb0132cf347" x="355.798994" y="167.933023" style="fill: #ffc0cb; stroke: #ffc0cb"/>
     <use xlink:href="#mb0132cf347" x="358.448023" y="168.379604" style="fill: #ffc0cb; stroke: #ffc0cb"/>
     <use xlink:href="#mb0132cf347" x="361.097052" y="168.262856" style="fill: #ffc0cb; stroke: #ffc0cb"/>
     <use xlink:href="#mb0132cf347" x="363.74608" y="167.034238" style="fill: #ffc0cb; stroke: #ffc0cb"/>
     <use xlink:href="#mb0132cf347" x="366.395109" y="165.903508" style="fill: #ffc0cb; stroke: #ffc0cb"/>
     <use xlink:href="#mb0132cf347" x="369.044138" y="166.272217" style="fill: #ffc0cb; stroke: #ffc0cb"/>
     <use xlink:href="#mb0132cf347" x="371.693167" y="165.205133" style="fill: #ffc0cb; stroke: #ffc0cb"/>
     <use xlink:href="#mb0132cf347" x="374.342196" y="163.841619" style="fill: #ffc0cb; stroke: #ffc0cb"/>
     <use xlink:href="#mb0132cf347" x="376.991224" y="162.42995" style="fill: #ffc0cb; stroke: #ffc0cb"/>
     <use xlink:href="#mb0132cf347" x="379.640253" y="165.769904" style="fill: #ffc0cb; stroke: #ffc0cb"/>
     <use xlink:href="#mb0132cf347" x="382.289282" y="164.927023" style="fill: #ffc0cb; stroke: #ffc0cb"/>
     <use xlink:href="#mb0132cf347" x="384.938311" y="162.389196" style="fill: #ffc0cb; stroke: #ffc0cb"/>
     <use xlink:href="#mb0132cf347" x="387.58734" y="163.032494" style="fill: #ffc0cb; stroke: #ffc0cb"/>
     <use xlink:href="#mb0132cf347" x="390.236368" y="167.524911" style="fill: #ffc0cb; stroke: #ffc0cb"/>
     <use xlink:href="#mb0132cf347" x="392.885397" y="165.450132" style="fill: #ffc0cb; stroke: #ffc0cb"/>
     <use xlink:href="#mb0132cf347" x="395.534426" y="164.941128" style="fill: #ffc0cb; stroke: #ffc0cb"/>
     <use xlink:href="#mb0132cf347" x="398.183455" y="169.393449" style="fill: #ffc0cb; stroke: #ffc0cb"/>
     <use xlink:href="#mb0132cf347" x="400.832483" y="170.9655" style="fill: #ffc0cb; stroke: #ffc0cb"/>
     <use xlink:href="#mb0132cf347" x="403.481512" y="169.568394" style="fill: #ffc0cb; stroke: #ffc0cb"/>
     <use xlink:href="#mb0132cf347" x="406.130541" y="169.32061" style="fill: #ffc0cb; stroke: #ffc0cb"/>
     <use xlink:href="#mb0132cf347" x="408.77957" y="170.631035" style="fill: #ffc0cb; stroke: #ffc0cb"/>
     <use xlink:href="#mb0132cf347" x="411.428599" y="172.717165" style="fill: #ffc0cb; stroke: #ffc0cb"/>
     <use xlink:href="#mb0132cf347" x="414.077627" y="172.615445" style="fill: #ffc0cb; stroke: #ffc0cb"/>
     <use xlink:href="#mb0132cf347" x="416.726656" y="174.332567" style="fill: #ffc0cb; stroke: #ffc0cb"/>
     <use xlink:href="#mb0132cf347" x="419.375685" y="173.078655" style="fill: #ffc0cb; stroke: #ffc0cb"/>
     <use xlink:href="#mb0132cf347" x="422.024714" y="167.088376" style="fill: #ffc0cb; stroke: #ffc0cb"/>
     <use xlink:href="#mb0132cf347" x="424.673743" y="160.912804" style="fill: #ffc0cb; stroke: #ffc0cb"/>
     <use xlink:href="#mb0132cf347" x="427.322771" y="162.866746" style="fill: #ffc0cb; stroke: #ffc0cb"/>
     <use xlink:href="#mb0132cf347" x="429.9718" y="163.379516" style="fill: #ffc0cb; stroke: #ffc0cb"/>
     <use xlink:href="#mb0132cf347" x="432.620829" y="161.239539" style="fill: #ffc0cb; stroke: #ffc0cb"/>
     <use xlink:href="#mb0132cf347" x="435.269858" y="162.291523" style="fill: #ffc0cb; stroke: #ffc0cb"/>
     <use xlink:href="#mb0132cf347" x="437.918886" y="163.701266" style="fill: #ffc0cb; stroke: #ffc0cb"/>
     <use xlink:href="#mb0132cf347" x="440.567915" y="161.888077" style="fill: #ffc0cb; stroke: #ffc0cb"/>
     <use xlink:href="#mb0132cf347" x="443.216944" y="163.884435" style="fill: #ffc0cb; stroke: #ffc0cb"/>
     <use xlink:href="#mb0132cf347" x="445.865973" y="171.381752" style="fill: #ffc0cb; stroke: #ffc0cb"/>
    </g>
   </g>
   <g id="matplotlib.axis_3">
    <g id="xtick_8">
     <g id="line2d_8">
      <g>
       <use xlink:href="#mc1b1799a92" x="111.798843" y="292.84" style="stroke: #000000; stroke-width: 0.8"/>
      </g>
     </g>
     <g id="text_9">
      <!-- 0.3 -->
      <g transform="translate(100.666656 310.477812) scale(0.14 -0.14)">
       <defs>
        <path id="DejaVuSans-2e" d="M 684 794 
L 1344 794 
L 1344 0 
L 684 0 
L 684 794 
z
" transform="scale(0.015625)"/>
        <path id="DejaVuSans-33" d="M 2597 2516 
Q 3050 2419 3304 2112 
Q 3559 1806 3559 1356 
Q 3559 666 3084 287 
Q 2609 -91 1734 -91 
Q 1441 -91 1130 -33 
Q 819 25 488 141 
L 488 750 
Q 750 597 1062 519 
Q 1375 441 1716 441 
Q 2309 441 2620 675 
Q 2931 909 2931 1356 
Q 2931 1769 2642 2001 
Q 2353 2234 1838 2234 
L 1294 2234 
L 1294 2753 
L 1863 2753 
Q 2328 2753 2575 2939 
Q 2822 3125 2822 3475 
Q 2822 3834 2567 4026 
Q 2313 4219 1838 4219 
Q 1578 4219 1281 4162 
Q 984 4106 628 3988 
L 628 4550 
Q 988 4650 1302 4700 
Q 1616 4750 1894 4750 
Q 2613 4750 3031 4423 
Q 3450 4097 3450 3541 
Q 3450 3153 3228 2886 
Q 3006 2619 2597 2516 
z
" transform="scale(0.015625)"/>
       </defs>
       <use xlink:href="#DejaVuSans-30"/>
       <use xlink:href="#DejaVuSans-2e" transform="translate(63.623047 0)"/>
       <use xlink:href="#DejaVuSans-33" transform="translate(95.410156 0)"/>
      </g>
     </g>
    </g>
    <g id="xtick_9">
     <g id="line2d_9">
      <g>
       <use xlink:href="#mc1b1799a92" x="158.501851" y="292.84" style="stroke: #000000; stroke-width: 0.8"/>
      </g>
     </g>
     <g id="text_10">
      <!-- 0.4 -->
      <g transform="translate(147.369664 310.477812) scale(0.14 -0.14)">
       <use xlink:href="#DejaVuSans-30"/>
       <use xlink:href="#DejaVuSans-2e" transform="translate(63.623047 0)"/>
       <use xlink:href="#DejaVuSans-34" transform="translate(95.410156 0)"/>
      </g>
     </g>
    </g>
    <g id="xtick_10">
     <g id="line2d_10">
      <g>
       <use xlink:href="#mc1b1799a92" x="205.204859" y="292.84" style="stroke: #000000; stroke-width: 0.8"/>
      </g>
     </g>
     <g id="text_11">
      <!-- 0.5 -->
      <g transform="translate(194.072671 310.477812) scale(0.14 -0.14)">
       <defs>
        <path id="DejaVuSans-35" d="M 691 4666 
L 3169 4666 
L 3169 4134 
L 1269 4134 
L 1269 2991 
Q 1406 3038 1543 3061 
Q 1681 3084 1819 3084 
Q 2600 3084 3056 2656 
Q 3513 2228 3513 1497 
Q 3513 744 3044 326 
Q 2575 -91 1722 -91 
Q 1428 -91 1123 -41 
Q 819 9 494 109 
L 494 744 
Q 775 591 1075 516 
Q 1375 441 1709 441 
Q 2250 441 2565 725 
Q 2881 1009 2881 1497 
Q 2881 1984 2565 2268 
Q 2250 2553 1709 2553 
Q 1456 2553 1204 2497 
Q 953 2441 691 2322 
L 691 4666 
z
" transform="scale(0.015625)"/>
       </defs>
       <use xlink:href="#DejaVuSans-30"/>
       <use xlink:href="#DejaVuSans-2e" transform="translate(63.623047 0)"/>
       <use xlink:href="#DejaVuSans-35" transform="translate(95.410156 0)"/>
      </g>
     </g>
    </g>
    <g id="xtick_11">
     <g id="line2d_11">
      <g>
       <use xlink:href="#mc1b1799a92" x="251.907867" y="292.84" style="stroke: #000000; stroke-width: 0.8"/>
      </g>
     </g>
     <g id="text_12">
      <!-- 0.6 -->
      <g transform="translate(240.775679 310.477812) scale(0.14 -0.14)">
       <use xlink:href="#DejaVuSans-30"/>
       <use xlink:href="#DejaVuSans-2e" transform="translate(63.623047 0)"/>
       <use xlink:href="#DejaVuSans-36" transform="translate(95.410156 0)"/>
      </g>
     </g>
    </g>
    <g id="xtick_12">
     <g id="line2d_12">
      <g>
       <use xlink:href="#mc1b1799a92" x="298.610875" y="292.84" style="stroke: #000000; stroke-width: 0.8"/>
      </g>
     </g>
     <g id="text_13">
      <!-- 0.7 -->
      <g transform="translate(287.478687 310.477812) scale(0.14 -0.14)">
       <defs>
        <path id="DejaVuSans-37" d="M 525 4666 
L 3525 4666 
L 3525 4397 
L 1831 0 
L 1172 0 
L 2766 4134 
L 525 4134 
L 525 4666 
z
" transform="scale(0.015625)"/>
       </defs>
       <use xlink:href="#DejaVuSans-30"/>
       <use xlink:href="#DejaVuSans-2e" transform="translate(63.623047 0)"/>
       <use xlink:href="#DejaVuSans-37" transform="translate(95.410156 0)"/>
      </g>
     </g>
    </g>
    <g id="xtick_13">
     <g id="line2d_13">
      <g>
       <use xlink:href="#mc1b1799a92" x="345.313883" y="292.84" style="stroke: #000000; stroke-width: 0.8"/>
      </g>
     </g>
     <g id="text_14">
      <!-- 0.8 -->
      <g transform="translate(334.181695 310.477812) scale(0.14 -0.14)">
       <use xlink:href="#DejaVuSans-30"/>
       <use xlink:href="#DejaVuSans-2e" transform="translate(63.623047 0)"/>
       <use xlink:href="#DejaVuSans-38" transform="translate(95.410156 0)"/>
      </g>
     </g>
    </g>
    <g id="xtick_14">
     <g id="line2d_14">
      <g>
       <use xlink:href="#mc1b1799a92" x="392.01689" y="292.84" style="stroke: #000000; stroke-width: 0.8"/>
      </g>
     </g>
     <g id="text_15">
      <!-- 0.9 -->
      <g transform="translate(380.884703 310.477812) scale(0.14 -0.14)">
       <defs>
        <path id="DejaVuSans-39" d="M 703 97 
L 703 672 
Q 941 559 1184 500 
Q 1428 441 1663 441 
Q 2288 441 2617 861 
Q 2947 1281 2994 2138 
Q 2813 1869 2534 1725 
Q 2256 1581 1919 1581 
Q 1219 1581 811 2004 
Q 403 2428 403 3163 
Q 403 3881 828 4315 
Q 1253 4750 1959 4750 
Q 2769 4750 3195 4129 
Q 3622 3509 3622 2328 
Q 3622 1225 3098 567 
Q 2575 -91 1691 -91 
Q 1453 -91 1209 -44 
Q 966 3 703 97 
z
M 1959 2075 
Q 2384 2075 2632 2365 
Q 2881 2656 2881 3163 
Q 2881 3666 2632 3958 
Q 2384 4250 1959 4250 
Q 1534 4250 1286 3958 
Q 1038 3666 1038 3163 
Q 1038 2656 1286 2365 
Q 1534 2075 1959 2075 
z
" transform="scale(0.015625)"/>
       </defs>
       <use xlink:href="#DejaVuSans-30"/>
       <use xlink:href="#DejaVuSans-2e" transform="translate(63.623047 0)"/>
       <use xlink:href="#DejaVuSans-39" transform="translate(95.410156 0)"/>
      </g>
     </g>
    </g>
    <g id="xtick_15">
     <g id="line2d_15">
      <g>
       <use xlink:href="#mc1b1799a92" x="438.719898" y="292.84" style="stroke: #000000; stroke-width: 0.8"/>
      </g>
     </g>
     <g id="text_16">
      <!-- 1.0 -->
      <g transform="translate(427.587711 310.477812) scale(0.14 -0.14)">
       <use xlink:href="#DejaVuSans-31"/>
       <use xlink:href="#DejaVuSans-2e" transform="translate(63.623047 0)"/>
       <use xlink:href="#DejaVuSans-30" transform="translate(95.410156 0)"/>
      </g>
     </g>
    </g>
    <g id="text_17">
     <!-- Wedge insertion (mm) -->
     <g transform="translate(162.564236 331.066562) scale(0.18 -0.18)">
      <defs>
       <path id="DejaVuSans-57" d="M 213 4666 
L 850 4666 
L 1831 722 
L 2809 4666 
L 3519 4666 
L 4500 722 
L 5478 4666 
L 6119 4666 
L 4947 0 
L 4153 0 
L 3169 4050 
L 2175 0 
L 1381 0 
L 213 4666 
z
" transform="scale(0.015625)"/>
       <path id="DejaVuSans-65" d="M 3597 1894 
L 3597 1613 
L 953 1613 
Q 991 1019 1311 708 
Q 1631 397 2203 397 
Q 2534 397 2845 478 
Q 3156 559 3463 722 
L 3463 178 
Q 3153 47 2828 -22 
Q 2503 -91 2169 -91 
Q 1331 -91 842 396 
Q 353 884 353 1716 
Q 353 2575 817 3079 
Q 1281 3584 2069 3584 
Q 2775 3584 3186 3129 
Q 3597 2675 3597 1894 
z
M 3022 2063 
Q 3016 2534 2758 2815 
Q 2500 3097 2075 3097 
Q 1594 3097 1305 2825 
Q 1016 2553 972 2059 
L 3022 2063 
z
" transform="scale(0.015625)"/>
       <path id="DejaVuSans-67" d="M 2906 1791 
Q 2906 2416 2648 2759 
Q 2391 3103 1925 3103 
Q 1463 3103 1205 2759 
Q 947 2416 947 1791 
Q 947 1169 1205 825 
Q 1463 481 1925 481 
Q 2391 481 2648 825 
Q 2906 1169 2906 1791 
z
M 3481 434 
Q 3481 -459 3084 -895 
Q 2688 -1331 1869 -1331 
Q 1566 -1331 1297 -1286 
Q 1028 -1241 775 -1147 
L 775 -588 
Q 1028 -725 1275 -790 
Q 1522 -856 1778 -856 
Q 2344 -856 2625 -561 
Q 2906 -266 2906 331 
L 2906 616 
Q 2728 306 2450 153 
Q 2172 0 1784 0 
Q 1141 0 747 490 
Q 353 981 353 1791 
Q 353 2603 747 3093 
Q 1141 3584 1784 3584 
Q 2172 3584 2450 3431 
Q 2728 3278 2906 2969 
L 2906 3500 
L 3481 3500 
L 3481 434 
z
" transform="scale(0.015625)"/>
       <path id="DejaVuSans-6f" d="M 1959 3097 
Q 1497 3097 1228 2736 
Q 959 2375 959 1747 
Q 959 1119 1226 758 
Q 1494 397 1959 397 
Q 2419 397 2687 759 
Q 2956 1122 2956 1747 
Q 2956 2369 2687 2733 
Q 2419 3097 1959 3097 
z
M 1959 3584 
Q 2709 3584 3137 3096 
Q 3566 2609 3566 1747 
Q 3566 888 3137 398 
Q 2709 -91 1959 -91 
Q 1206 -91 779 398 
Q 353 888 353 1747 
Q 353 2609 779 3096 
Q 1206 3584 1959 3584 
z
" transform="scale(0.015625)"/>
       <path id="DejaVuSans-6d" d="M 3328 2828 
Q 3544 3216 3844 3400 
Q 4144 3584 4550 3584 
Q 5097 3584 5394 3201 
Q 5691 2819 5691 2113 
L 5691 0 
L 5113 0 
L 5113 2094 
Q 5113 2597 4934 2840 
Q 4756 3084 4391 3084 
Q 3944 3084 3684 2787 
Q 3425 2491 3425 1978 
L 3425 0 
L 2847 0 
L 2847 2094 
Q 2847 2600 2669 2842 
Q 2491 3084 2119 3084 
Q 1678 3084 1418 2786 
Q 1159 2488 1159 1978 
L 1159 0 
L 581 0 
L 581 3500 
L 1159 3500 
L 1159 2956 
Q 1356 3278 1631 3431 
Q 1906 3584 2284 3584 
Q 2666 3584 2933 3390 
Q 3200 3197 3328 2828 
z
" transform="scale(0.015625)"/>
      </defs>
      <use xlink:href="#DejaVuSans-57"/>
      <use xlink:href="#DejaVuSans-65" transform="translate(93.001953 0)"/>
      <use xlink:href="#DejaVuSans-64" transform="translate(154.525391 0)"/>
      <use xlink:href="#DejaVuSans-67" transform="translate(218.001953 0)"/>
      <use xlink:href="#DejaVuSans-65" transform="translate(281.478516 0)"/>
      <use xlink:href="#DejaVuSans-20" transform="translate(343.001953 0)"/>
      <use xlink:href="#DejaVuSans-69" transform="translate(374.789062 0)"/>
      <use xlink:href="#DejaVuSans-6e" transform="translate(402.572266 0)"/>
      <use xlink:href="#DejaVuSans-73" transform="translate(465.951172 0)"/>
      <use xlink:href="#DejaVuSans-65" transform="translate(518.050781 0)"/>
      <use xlink:href="#DejaVuSans-72" transform="translate(579.574219 0)"/>
      <use xlink:href="#DejaVuSans-74" transform="translate(620.6875 0)"/>
      <use xlink:href="#DejaVuSans-69" transform="translate(659.896484 0)"/>
      <use xlink:href="#DejaVuSans-6f" transform="translate(687.679688 0)"/>
      <use xlink:href="#DejaVuSans-6e" transform="translate(748.861328 0)"/>
      <use xlink:href="#DejaVuSans-20" transform="translate(812.240234 0)"/>
      <use xlink:href="#DejaVuSans-28" transform="translate(844.027344 0)"/>
      <use xlink:href="#DejaVuSans-6d" transform="translate(883.041016 0)"/>
      <use xlink:href="#DejaVuSans-6d" transform="translate(980.453125 0)"/>
      <use xlink:href="#DejaVuSans-29" transform="translate(1077.865234 0)"/>
     </g>
    </g>
   </g>
   <g id="matplotlib.axis_4">
    <g id="ytick_1">
     <g id="line2d_16">
      <defs>
       <path id="mac1dd0b95b" d="M 0 0 
L -3.5 0 
" style="stroke: #000000; stroke-width: 0.8"/>
      </defs>
      <g>
       <use xlink:href="#mac1dd0b95b" x="80.3" y="273.925635" style="stroke: #000000; stroke-width: 0.8"/>
      </g>
     </g>
     <g id="text_18">
      <!-- 300 -->
      <g transform="translate(34.845938 279.244541) scale(0.14 -0.14)">
       <defs>
        <path id="DejaVuSans-2212" d="M 678 2272 
L 4684 2272 
L 4684 1741 
L 678 1741 
L 678 2272 
z
" transform="scale(0.015625)"/>
       </defs>
       <use xlink:href="#DejaVuSans-2212"/>
       <use xlink:href="#DejaVuSans-33" transform="translate(83.789062 0)"/>
       <use xlink:href="#DejaVuSans-30" transform="translate(147.412109 0)"/>
       <use xlink:href="#DejaVuSans-30" transform="translate(211.035156 0)"/>
      </g>
     </g>
    </g>
    <g id="ytick_2">
     <g id="line2d_17">
      <g>
       <use xlink:href="#mac1dd0b95b" x="80.3" y="238.227228" style="stroke: #000000; stroke-width: 0.8"/>
      </g>
     </g>
     <g id="text_19">
      <!-- 200 -->
      <g transform="translate(34.845938 243.546134) scale(0.14 -0.14)">
       <use xlink:href="#DejaVuSans-2212"/>
       <use xlink:href="#DejaVuSans-32" transform="translate(83.789062 0)"/>
       <use xlink:href="#DejaVuSans-30" transform="translate(147.412109 0)"/>
       <use xlink:href="#DejaVuSans-30" transform="translate(211.035156 0)"/>
      </g>
     </g>
    </g>
    <g id="ytick_3">
     <g id="line2d_18">
      <g>
       <use xlink:href="#mac1dd0b95b" x="80.3" y="202.52882" style="stroke: #000000; stroke-width: 0.8"/>
      </g>
     </g>
     <g id="text_20">
      <!-- 100 -->
      <g transform="translate(34.845938 207.847726) scale(0.14 -0.14)">
       <use xlink:href="#DejaVuSans-2212"/>
       <use xlink:href="#DejaVuSans-31" transform="translate(83.789062 0)"/>
       <use xlink:href="#DejaVuSans-30" transform="translate(147.412109 0)"/>
       <use xlink:href="#DejaVuSans-30" transform="translate(211.035156 0)"/>
      </g>
     </g>
    </g>
    <g id="ytick_4">
     <g id="line2d_19">
      <g>
       <use xlink:href="#mac1dd0b95b" x="80.3" y="166.830413" style="stroke: #000000; stroke-width: 0.8"/>
      </g>
     </g>
     <g id="text_21">
      <!-- 0 -->
      <g transform="translate(64.3925 172.149319) scale(0.14 -0.14)">
       <use xlink:href="#DejaVuSans-30"/>
      </g>
     </g>
    </g>
    <g id="ytick_5">
     <g id="line2d_20">
      <g>
       <use xlink:href="#mac1dd0b95b" x="80.3" y="131.132005" style="stroke: #000000; stroke-width: 0.8"/>
      </g>
     </g>
     <g id="text_22">
      <!-- 100 -->
      <g transform="translate(46.5775 136.450911) scale(0.14 -0.14)">
       <use xlink:href="#DejaVuSans-31"/>
       <use xlink:href="#DejaVuSans-30" transform="translate(63.623047 0)"/>
       <use xlink:href="#DejaVuSans-30" transform="translate(127.246094 0)"/>
      </g>
     </g>
    </g>
    <g id="ytick_6">
     <g id="line2d_21">
      <g>
       <use xlink:href="#mac1dd0b95b" x="80.3" y="95.433597" style="stroke: #000000; stroke-width: 0.8"/>
      </g>
     </g>
     <g id="text_23">
      <!-- 200 -->
      <g transform="translate(46.5775 100.752504) scale(0.14 -0.14)">
       <use xlink:href="#DejaVuSans-32"/>
       <use xlink:href="#DejaVuSans-30" transform="translate(63.623047 0)"/>
       <use xlink:href="#DejaVuSans-30" transform="translate(127.246094 0)"/>
      </g>
     </g>
    </g>
    <g id="ytick_7">
     <g id="line2d_22">
      <g>
       <use xlink:href="#mac1dd0b95b" x="80.3" y="59.73519" style="stroke: #000000; stroke-width: 0.8"/>
      </g>
     </g>
     <g id="text_24">
      <!-- 300 -->
      <g transform="translate(46.5775 65.054096) scale(0.14 -0.14)">
       <use xlink:href="#DejaVuSans-33"/>
       <use xlink:href="#DejaVuSans-30" transform="translate(63.623047 0)"/>
       <use xlink:href="#DejaVuSans-30" transform="translate(127.246094 0)"/>
      </g>
     </g>
    </g>
    <g id="text_25">
     <!-- $ j_{CEP} $ (pA) -->
     <g transform="translate(27.065938 206.51) rotate(-90) scale(0.18 -0.18)">
      <defs>
       <path id="DejaVuSans-Oblique-6a" d="M 928 3500 
L 1503 3500 
L 813 -63 
L 809 -78 
Q 694 -675 544 -897 
Q 403 -1106 132 -1218 
Q -138 -1331 -506 -1331 
L -722 -1331 
L -628 -844 
L -481 -844 
Q -144 -844 -1 -703 
Q 141 -563 238 -63 
L 928 3500 
z
M 1197 4863 
L 1772 4863 
L 1631 4134 
L 1056 4134 
L 1197 4863 
z
" transform="scale(0.015625)"/>
       <path id="DejaVuSans-Oblique-43" d="M 4447 4306 
L 4319 3641 
Q 4019 3944 3683 4091 
Q 3347 4238 2956 4238 
Q 2422 4238 2017 3981 
Q 1613 3725 1319 3200 
Q 1131 2863 1032 2486 
Q 934 2109 934 1728 
Q 934 1091 1264 756 
Q 1594 422 2222 422 
Q 2656 422 3056 561 
Q 3456 700 3834 978 
L 3688 231 
Q 3316 72 2936 -9 
Q 2556 -91 2175 -91 
Q 1278 -91 773 396 
Q 269 884 269 1753 
Q 269 2309 461 2846 
Q 653 3384 1013 3828 
Q 1394 4300 1883 4525 
Q 2372 4750 3022 4750 
Q 3422 4750 3780 4639 
Q 4138 4528 4447 4306 
z
" transform="scale(0.015625)"/>
       <path id="DejaVuSans-Oblique-45" d="M 1081 4666 
L 4031 4666 
L 3928 4134 
L 1606 4134 
L 1338 2753 
L 3566 2753 
L 3463 2222 
L 1234 2222 
L 909 531 
L 3284 531 
L 3181 0 
L 172 0 
L 1081 4666 
z
" transform="scale(0.015625)"/>
       <path id="DejaVuSans-Oblique-50" d="M 1081 4666 
L 2541 4666 
Q 3178 4666 3512 4369 
Q 3847 4072 3847 3500 
Q 3847 2731 3353 2303 
Q 2859 1875 1966 1875 
L 1172 1875 
L 806 0 
L 172 0 
L 1081 4666 
z
M 1613 4147 
L 1275 2394 
L 2069 2394 
Q 2606 2394 2893 2669 
Q 3181 2944 3181 3456 
Q 3181 3784 2986 3965 
Q 2791 4147 2438 4147 
L 1613 4147 
z
" transform="scale(0.015625)"/>
       <path id="DejaVuSans-70" d="M 1159 525 
L 1159 -1331 
L 581 -1331 
L 581 3500 
L 1159 3500 
L 1159 2969 
Q 1341 3281 1617 3432 
Q 1894 3584 2278 3584 
Q 2916 3584 3314 3078 
Q 3713 2572 3713 1747 
Q 3713 922 3314 415 
Q 2916 -91 2278 -91 
Q 1894 -91 1617 61 
Q 1341 213 1159 525 
z
M 3116 1747 
Q 3116 2381 2855 2742 
Q 2594 3103 2138 3103 
Q 1681 3103 1420 2742 
Q 1159 2381 1159 1747 
Q 1159 1113 1420 752 
Q 1681 391 2138 391 
Q 2594 391 2855 752 
Q 3116 1113 3116 1747 
z
" transform="scale(0.015625)"/>
       <path id="DejaVuSans-41" d="M 2188 4044 
L 1331 1722 
L 3047 1722 
L 2188 4044 
z
M 1831 4666 
L 2547 4666 
L 4325 0 
L 3669 0 
L 3244 1197 
L 1141 1197 
L 716 0 
L 50 0 
L 1831 4666 
z
" transform="scale(0.015625)"/>
      </defs>
      <use xlink:href="#DejaVuSans-Oblique-6a" transform="translate(0 0.015625)"/>
      <use xlink:href="#DejaVuSans-Oblique-43" transform="translate(27.783203 -16.390625) scale(0.7)"/>
      <use xlink:href="#DejaVuSans-Oblique-45" transform="translate(76.660156 -16.390625) scale(0.7)"/>
      <use xlink:href="#DejaVuSans-Oblique-50" transform="translate(120.888672 -16.390625) scale(0.7)"/>
      <use xlink:href="#DejaVuSans-20" transform="translate(165.834961 0.015625)"/>
      <use xlink:href="#DejaVuSans-28" transform="translate(197.62207 0.015625)"/>
      <use xlink:href="#DejaVuSans-70" transform="translate(236.635742 0.015625)"/>
      <use xlink:href="#DejaVuSans-41" transform="translate(300.112305 0.015625)"/>
      <use xlink:href="#DejaVuSans-29" transform="translate(368.520508 0.015625)"/>
     </g>
    </g>
   </g>
   <g id="line2d_23">
    <path d="M 80.3 134.994554 
L 81.763728 130.040254 
L 82.861523 126.986223 
L 83.959319 124.563471 
L 84.691183 123.322654 
L 85.423047 122.394783 
L 86.15491 121.788883 
L 86.886774 121.511648 
L 87.618638 121.567378 
L 88.350502 121.957926 
L 89.082366 122.682674 
L 89.81423 123.738513 
L 90.546093 125.119857 
L 91.643889 127.783943 
L 92.741685 131.124506 
L 93.83948 135.092617 
L 95.303208 141.254614 
L 97.132868 150.113946 
L 99.694391 163.965079 
L 104.451506 190.246241 
L 106.281165 199.142965 
L 107.744893 205.31114 
L 109.20862 210.425707 
L 110.306416 213.470837 
L 111.404212 215.77451 
L 112.136076 216.875914 
L 112.86794 217.617728 
L 113.599803 217.992525 
L 114.331667 217.995559 
L 115.063531 217.624816 
L 115.795395 216.881046 
L 116.527259 215.76777 
L 117.259122 214.291269 
L 118.356918 211.415905 
L 119.454714 207.785783 
L 120.55251 203.455428 
L 122.016237 196.709155 
L 123.845897 186.983448 
L 126.041488 173.9931 
L 131.896399 138.648441 
L 133.726058 129.326653 
L 135.189786 123.023523 
L 136.287581 119.099969 
L 137.385377 115.943623 
L 138.483173 113.611592 
L 139.215037 112.537018 
L 139.9469 111.857992 
L 140.678764 111.581087 
L 141.410628 111.709921 
L 142.142492 112.245121 
L 142.874356 113.184306 
L 143.60622 114.522089 
L 144.338083 116.250111 
L 145.435879 119.548383 
L 146.533675 123.648644 
L 147.997402 130.251354 
L 149.46113 137.979931 
L 151.29079 148.886033 
L 154.218245 168.034673 
L 157.877564 191.888489 
L 159.707223 202.513567 
L 161.170951 209.923366 
L 162.634679 216.119609 
L 163.732474 219.855139 
L 164.83027 222.735742 
L 165.562134 224.155349 
L 166.293998 225.160482 
L 167.025861 225.742689 
L 167.757725 225.896625 
L 168.489589 225.620106 
L 169.221453 224.914129 
L 169.953317 223.782869 
L 170.68518 222.233664 
L 171.782976 219.14989 
L 172.880772 215.197937 
L 173.978568 210.440401 
L 175.442295 202.977426 
L 177.271955 192.156884 
L 179.467546 177.638157 
L 185.322457 137.871339 
L 187.152116 127.293054 
L 188.615844 120.090156 
L 189.71364 115.56675 
L 190.811435 111.882545 
L 191.909231 109.100039 
L 192.641095 107.770128 
L 193.372959 106.872708 
L 194.104822 106.414844 
L 194.836686 106.400357 
L 195.56855 106.829794 
L 196.300414 107.700416 
L 197.032278 109.006222 
L 197.764141 110.737983 
L 198.861937 114.106361 
L 199.959733 118.349928 
L 201.057529 123.399444 
L 202.521256 131.241093 
L 204.350916 142.497583 
L 206.912439 160.034528 
L 211.669554 193.082391 
L 213.499213 204.209031 
L 214.962941 211.913363 
L 216.426669 218.306646 
L 217.524464 222.126972 
L 218.62226 225.040737 
L 219.354124 226.455365 
L 220.085988 227.435261 
L 220.817851 227.973384 
L 221.549715 228.06596 
L 222.281579 227.712511 
L 223.013443 226.915855 
L 223.745307 225.682085 
L 224.47717 224.02052 
L 225.574966 220.754188 
L 226.672762 216.609001 
L 227.770558 211.654399 
L 229.234285 203.934049 
L 231.063945 192.820414 
L 233.625468 175.464051 
L 238.382583 142.658934 
L 240.212242 131.576697 
L 241.67597 123.881088 
L 243.139698 117.468783 
L 244.237493 113.613931 
L 245.335289 110.646847 
L 246.067153 109.18569 
L 246.799017 108.150167 
L 247.53088 107.547113 
L 248.262744 107.380158 
L 248.994608 107.649699 
L 249.726472 108.352914 
L 250.458336 109.483778 
L 251.1902 111.033124 
L 252.287995 114.1142 
L 253.385791 118.054877 
L 254.483587 122.787319 
L 255.947314 130.187615 
L 257.776974 140.871655 
L 259.972565 155.130466 
L 265.461544 191.562082 
L 267.291203 202.031091 
L 268.754931 209.227896 
L 269.852727 213.80108 
L 270.950522 217.586267 
L 272.048318 220.52468 
L 272.780182 221.990627 
L 273.512046 223.050672 
L 274.24391 223.698352 
L 274.975773 223.930269 
L 275.707637 223.746108 
L 276.439501 223.148624 
L 277.171365 222.143617 
L 277.903229 220.739873 
L 278.635092 218.949094 
L 279.732888 215.56973 
L 280.830684 211.413065 
L 282.294411 204.789192 
L 283.758139 197.117266 
L 285.95373 184.158951 
L 293.272369 139.191969 
L 294.736096 131.851468 
L 296.199824 125.600386 
L 297.29762 121.732569 
L 298.395415 118.634676 
L 299.493211 116.35249 
L 300.225075 115.300564 
L 300.956939 114.631619 
L 301.688802 114.348755 
L 302.420666 114.452204 
L 303.15253 114.939348 
L 303.884394 115.804751 
L 304.616258 117.040209 
L 305.348121 118.634827 
L 306.445917 121.669989 
L 307.543713 125.426454 
L 309.00744 131.43909 
L 310.471168 138.425337 
L 312.300828 148.198711 
L 315.594215 167.287876 
L 318.52167 183.919875 
L 320.35133 193.252317 
L 321.815057 199.785128 
L 323.278785 205.290452 
L 324.37658 208.654346 
L 325.474376 211.306372 
L 326.20624 212.659989 
L 326.938104 213.672493 
L 327.669968 214.338544 
L 328.401831 214.655391 
L 329.133695 214.622875 
L 329.865559 214.243418 
L 330.597423 213.521987 
L 331.329287 212.46604 
L 332.06115 211.085456 
L 333.158946 208.433214 
L 334.256742 205.129023 
L 335.72047 199.815715 
L 337.184197 193.621485 
L 339.013857 184.935086 
L 342.307244 167.926816 
L 345.234699 153.071009 
L 347.064359 144.715269 
L 348.528086 138.851476 
L 349.991814 133.892772 
L 351.08961 130.848016 
L 352.187405 128.430684 
L 353.285201 126.673567 
L 354.017065 125.880029 
L 354.748929 125.393235 
L 355.480792 125.214418 
L 356.212656 125.342533 
L 356.94452 125.774276 
L 357.676384 126.504127 
L 358.408248 127.52441 
L 359.506043 129.577501 
L 360.603839 132.220396 
L 361.701635 135.402574 
L 363.165362 140.381578 
L 364.995022 147.561234 
L 367.556545 158.764597 
L 372.31366 179.859604 
L 374.14332 186.969045 
L 375.607047 191.911577 
L 377.070775 196.046776 
L 378.16857 198.553238 
L 379.266366 200.510638 
L 380.364162 201.894082 
L 381.096026 202.489667 
L 381.82789 202.821257 
L 382.559753 202.888813 
L 383.291617 202.694246 
L 384.023481 202.241382 
L 384.755345 201.53592 
L 385.487209 200.585369 
L 386.585004 198.72069 
L 387.6828 196.363854 
L 389.146528 192.535826 
L 390.610255 188.041459 
L 392.439915 181.706682 
L 395.36737 170.647268 
L 399.026689 157.00432 
L 400.856349 150.96628 
L 402.320076 146.757738 
L 403.783804 143.223944 
L 404.8816 141.071026 
L 405.979395 139.377205 
L 407.077191 138.163256 
L 407.809055 137.627072 
L 408.540919 137.31154 
L 409.272782 137.216659 
L 410.004646 137.3408 
L 410.73651 137.680733 
L 411.468374 138.231672 
L 412.56617 139.43955 
L 413.663965 141.080432 
L 414.761761 143.120329 
L 416.225489 146.390894 
L 418.055148 151.208054 
L 420.25074 157.736326 
L 426.471582 176.814542 
L 428.301241 181.545522 
L 429.764969 184.770305 
L 431.228697 187.406948 
L 432.326492 188.959694 
L 433.424288 190.126538 
L 434.522084 190.895096 
L 435.253948 191.183164 
L 435.985811 191.291625 
L 436.717675 191.221832 
L 437.449539 190.976438 
L 438.181403 190.559361 
L 439.279199 189.623401 
L 440.376994 188.335195 
L 441.47479 186.722373 
L 442.938518 184.123784 
L 444.768177 180.281726 
L 445.865973 177.734348 
L 445.865973 177.734348 
" clip-path="url(#p1e63c47134)" style="fill: none; stroke: #0000ff; stroke-width: 1.5; stroke-linecap: square"/>
   </g>
   <g id="line2d_24">
    <path d="M 80.3 167.841227 
L 83.593387 169.547561 
L 86.15491 170.620205 
L 88.350502 171.275137 
L 90.180161 171.597158 
L 92.009821 171.696955 
L 93.83948 171.567695 
L 95.66914 171.213296 
L 97.4988 170.648336 
L 99.694391 169.7278 
L 102.255914 168.396222 
L 107.378961 165.378979 
L 110.306416 163.784134 
L 112.502008 162.80138 
L 114.697599 162.078672 
L 116.527259 161.712723 
L 118.356918 161.582295 
L 120.186578 161.695324 
L 122.016237 162.048325 
L 123.845897 162.626475 
L 126.041488 163.580792 
L 128.603011 164.973058 
L 132.994194 167.700766 
L 136.287581 169.656371 
L 138.483173 170.749133 
L 140.678764 171.583586 
L 142.508424 172.039013 
L 144.338083 172.251553 
L 146.167743 172.209832 
L 147.997402 171.914384 
L 149.827062 171.377698 
L 151.656721 170.623688 
L 153.852313 169.480905 
L 156.779768 167.680501 
L 163.00061 163.743454 
L 165.196202 162.628452 
L 167.025861 161.906579 
L 168.855521 161.410603 
L 170.68518 161.16468 
L 172.51484 161.181297 
L 174.3445 161.460635 
L 176.174159 161.990515 
L 178.003819 162.746934 
L 180.19941 163.904087 
L 183.126865 165.740644 
L 189.71364 170.005911 
L 191.909231 171.126565 
L 193.73889 171.843049 
L 195.56855 172.325116 
L 197.39821 172.549712 
L 199.227869 172.505839 
L 201.057529 172.195098 
L 202.887188 171.631635 
L 204.716848 170.841492 
L 206.912439 169.64647 
L 209.839894 167.768834 
L 216.060737 163.682241 
L 218.256328 162.530058 
L 220.085988 161.785684 
L 221.915647 161.275202 
L 223.745307 161.022521 
L 225.574966 161.039446 
L 227.404626 161.32512 
L 229.234285 161.866068 
L 231.063945 162.63684 
L 233.259536 163.813466 
L 236.186991 165.6759 
L 242.407834 169.769236 
L 244.603425 170.936538 
L 246.433085 171.69819 
L 248.262744 172.229785 
L 250.092404 172.50689 
L 251.922063 172.517063 
L 253.751723 172.260406 
L 255.581382 171.749538 
L 257.411042 171.008968 
L 259.606633 169.867331 
L 262.534089 168.046475 
L 269.120863 163.79511 
L 271.316454 162.669802 
L 273.146114 161.944321 
L 274.975773 161.447724 
L 276.805433 161.202338 
L 278.635092 161.218631 
L 280.464752 161.494761 
L 282.294411 162.016722 
L 284.124071 162.759046 
L 286.319662 163.889857 
L 289.247118 165.674954 
L 295.46796 169.579826 
L 297.663551 170.688411 
L 299.493211 171.410226 
L 301.32287 171.913073 
L 303.15253 172.174737 
L 304.98219 172.184422 
L 306.811849 171.943201 
L 308.641509 171.463884 
L 310.471168 170.77035 
L 312.66676 169.703472 
L 315.594215 168.006435 
L 322.180989 164.063544 
L 324.37658 163.024757 
L 326.572172 162.247428 
L 328.401831 161.835872 
L 330.231491 161.658314 
L 332.06115 161.721194 
L 333.89081 162.019652 
L 335.72047 162.537846 
L 337.916061 163.412495 
L 340.477584 164.702195 
L 344.868767 167.243587 
L 348.528086 169.258576 
L 351.08961 170.397484 
L 353.285201 171.104964 
L 355.11486 171.469844 
L 356.94452 171.613912 
L 358.77418 171.53262 
L 360.603839 171.232002 
L 362.433499 170.728281 
L 364.62909 169.892284 
L 367.190613 168.673965 
L 377.070775 163.675508 
L 379.266366 162.957158 
L 381.096026 162.56036 
L 382.925685 162.364958 
L 384.755345 162.377698 
L 386.585004 162.595521 
L 388.780596 163.109246 
L 390.976187 163.861306 
L 393.903642 165.140071 
L 403.05194 169.437516 
L 405.247531 170.148985 
L 407.443123 170.625603 
L 409.272782 170.822602 
L 411.102442 170.83002 
L 413.298033 170.592477 
L 415.493625 170.106008 
L 418.055148 169.273584 
L 420.982603 168.074165 
L 429.033105 164.617824 
L 431.594629 163.833413 
L 433.79022 163.385564 
L 435.985811 163.17311 
L 438.181403 163.205856 
L 440.376994 163.477007 
L 442.572586 163.963937 
L 445.134109 164.7552 
L 445.865973 165.015586 
L 445.865973 165.015586 
" clip-path="url(#p1e63c47134)" style="fill: none; stroke: #ff0000; stroke-width: 1.5; stroke-linecap: square"/>
   </g>
   <g id="patch_5">
    <path d="M 80.3 292.84 
L 80.3 46.74 
" style="fill: none; stroke: #000000; stroke-width: 1.5; stroke-linejoin: miter; stroke-linecap: square"/>
   </g>
   <g id="patch_6">
    <path d="M 445.865973 292.84 
L 445.865973 46.74 
" style="fill: none; stroke: #000000; stroke-width: 1.5; stroke-linejoin: miter; stroke-linecap: square"/>
   </g>
   <g id="patch_7">
    <path d="M 80.3 292.84 
L 445.865973 292.84 
" style="fill: none; stroke: #000000; stroke-width: 1.5; stroke-linejoin: miter; stroke-linecap: square"/>
   </g>
   <g id="patch_8">
    <path d="M 80.3 46.74 
L 445.865973 46.74 
" style="fill: none; stroke: #000000; stroke-width: 1.5; stroke-linejoin: miter; stroke-linecap: square"/>
   </g>
   <g id="legend_1">
    <g id="patch_9">
     <path d="M 252.515035 283.84 
L 433.265973 283.84 
Q 436.865973 283.84 436.865973 280.24 
L 436.865973 229.19875 
Q 436.865973 225.59875 433.265973 225.59875 
L 252.515035 225.59875 
Q 248.915035 225.59875 248.915035 229.19875 
L 248.915035 280.24 
Q 248.915035 283.84 252.515035 283.84 
z
" style="fill: #ffffff; opacity: 0.8; stroke: #cccccc; stroke-linejoin: miter"/>
    </g>
    <g id="line2d_25">
     <path d="M 256.115035 240.175937 
L 274.115035 240.175937 
L 292.115035 240.175937 
" style="fill: none; stroke: #0000ff; stroke-width: 1.5; stroke-linecap: square"/>
    </g>
    <g id="text_26">
     <!-- Right Contact -->
     <g transform="translate(306.515035 246.475937) scale(0.18 -0.18)">
      <defs>
       <path id="DejaVuSans-52" d="M 2841 2188 
Q 3044 2119 3236 1894 
Q 3428 1669 3622 1275 
L 4263 0 
L 3584 0 
L 2988 1197 
Q 2756 1666 2539 1819 
Q 2322 1972 1947 1972 
L 1259 1972 
L 1259 0 
L 628 0 
L 628 4666 
L 2053 4666 
Q 2853 4666 3247 4331 
Q 3641 3997 3641 3322 
Q 3641 2881 3436 2590 
Q 3231 2300 2841 2188 
z
M 1259 4147 
L 1259 2491 
L 2053 2491 
Q 2509 2491 2742 2702 
Q 2975 2913 2975 3322 
Q 2975 3731 2742 3939 
Q 2509 4147 2053 4147 
L 1259 4147 
z
" transform="scale(0.015625)"/>
       <path id="DejaVuSans-63" d="M 3122 3366 
L 3122 2828 
Q 2878 2963 2633 3030 
Q 2388 3097 2138 3097 
Q 1578 3097 1268 2742 
Q 959 2388 959 1747 
Q 959 1106 1268 751 
Q 1578 397 2138 397 
Q 2388 397 2633 464 
Q 2878 531 3122 666 
L 3122 134 
Q 2881 22 2623 -34 
Q 2366 -91 2075 -91 
Q 1284 -91 818 406 
Q 353 903 353 1747 
Q 353 2603 823 3093 
Q 1294 3584 2113 3584 
Q 2378 3584 2631 3529 
Q 2884 3475 3122 3366 
z
" transform="scale(0.015625)"/>
      </defs>
      <use xlink:href="#DejaVuSans-52"/>
      <use xlink:href="#DejaVuSans-69" transform="translate(69.482422 0)"/>
      <use xlink:href="#DejaVuSans-67" transform="translate(97.265625 0)"/>
      <use xlink:href="#DejaVuSans-68" transform="translate(160.742188 0)"/>
      <use xlink:href="#DejaVuSans-74" transform="translate(224.121094 0)"/>
      <use xlink:href="#DejaVuSans-20" transform="translate(263.330078 0)"/>
      <use xlink:href="#DejaVuSans-43" transform="translate(295.117188 0)"/>
      <use xlink:href="#DejaVuSans-6f" transform="translate(364.941406 0)"/>
      <use xlink:href="#DejaVuSans-6e" transform="translate(426.123047 0)"/>
      <use xlink:href="#DejaVuSans-74" transform="translate(489.501953 0)"/>
      <use xlink:href="#DejaVuSans-61" transform="translate(528.710938 0)"/>
      <use xlink:href="#DejaVuSans-63" transform="translate(589.990234 0)"/>
      <use xlink:href="#DejaVuSans-74" transform="translate(644.970703 0)"/>
     </g>
    </g>
    <g id="line2d_26">
     <path d="M 256.115035 266.596562 
L 274.115035 266.596562 
L 292.115035 266.596562 
" style="fill: none; stroke: #ff0000; stroke-width: 1.5; stroke-linecap: square"/>
    </g>
    <g id="text_27">
     <!-- Left Contact -->
     <g transform="translate(306.515035 272.896562) scale(0.18 -0.18)">
      <defs>
       <path id="DejaVuSans-4c" d="M 628 4666 
L 1259 4666 
L 1259 531 
L 3531 531 
L 3531 0 
L 628 0 
L 628 4666 
z
" transform="scale(0.015625)"/>
      </defs>
      <use xlink:href="#DejaVuSans-4c"/>
      <use xlink:href="#DejaVuSans-65" transform="translate(53.962891 0)"/>
      <use xlink:href="#DejaVuSans-66" transform="translate(115.486328 0)"/>
      <use xlink:href="#DejaVuSans-74" transform="translate(148.941406 0)"/>
      <use xlink:href="#DejaVuSans-20" transform="translate(188.150391 0)"/>
      <use xlink:href="#DejaVuSans-43" transform="translate(219.9375 0)"/>
      <use xlink:href="#DejaVuSans-6f" transform="translate(289.761719 0)"/>
      <use xlink:href="#DejaVuSans-6e" transform="translate(350.943359 0)"/>
      <use xlink:href="#DejaVuSans-74" transform="translate(414.322266 0)"/>
      <use xlink:href="#DejaVuSans-61" transform="translate(453.53125 0)"/>
      <use xlink:href="#DejaVuSans-63" transform="translate(514.810547 0)"/>
      <use xlink:href="#DejaVuSans-74" transform="translate(569.791016 0)"/>
     </g>
    </g>
   </g>
  </g>
 </g>
 <defs>
  <clipPath id="p1e63c47134">
   <rect x="80.3" y="46.74" width="365.565973" height="246.1"/>
  </clipPath>
 </defs>
</svg>
